G04 #@! TF.GenerationSoftware,KiCad,Pcbnew,5.1.4*
G04 #@! TF.CreationDate,2020-01-08T09:35:31-05:00*
G04 #@! TF.ProjectId,siot-node-relay,73696f74-2d6e-46f6-9465-2d72656c6179,rev?*
G04 #@! TF.SameCoordinates,Original*
G04 #@! TF.FileFunction,Copper,L2,Bot*
G04 #@! TF.FilePolarity,Positive*
%FSLAX46Y46*%
G04 Gerber Fmt 4.6, Leading zero omitted, Abs format (unit mm)*
G04 Created by KiCad (PCBNEW 5.1.4) date 2020-01-08 09:35:31*
%MOMM*%
%LPD*%
G04 APERTURE LIST*
%ADD10C,2.600000*%
%ADD11R,2.600000X2.600000*%
%ADD12C,2.000000*%
%ADD13R,2.000000X2.000000*%
%ADD14C,0.800000*%
%ADD15C,0.100000*%
%ADD16C,1.800000*%
%ADD17C,0.250000*%
%ADD18C,0.254000*%
G04 APERTURE END LIST*
D10*
X194750000Y-83100000D03*
D11*
X194750000Y-78100000D03*
D10*
X178150000Y-94800000D03*
D11*
X183150000Y-94800000D03*
D12*
X173350000Y-85920000D03*
X173350000Y-93540000D03*
X173350000Y-101160000D03*
D13*
X173350000Y-103700000D03*
D14*
X190250000Y-111900000D03*
X189150000Y-111900000D03*
X190250000Y-111000000D03*
X190250000Y-110100000D03*
X189150000Y-111000000D03*
D15*
G36*
X190424504Y-109751204D02*
G01*
X190448773Y-109754804D01*
X190472571Y-109760765D01*
X190495671Y-109769030D01*
X190517849Y-109779520D01*
X190538893Y-109792133D01*
X190558598Y-109806747D01*
X190576777Y-109823223D01*
X190593253Y-109841402D01*
X190607867Y-109861107D01*
X190620480Y-109882151D01*
X190630970Y-109904329D01*
X190639235Y-109927429D01*
X190645196Y-109951227D01*
X190648796Y-109975496D01*
X190650000Y-110000000D01*
X190650000Y-112000000D01*
X190648796Y-112024504D01*
X190645196Y-112048773D01*
X190639235Y-112072571D01*
X190630970Y-112095671D01*
X190620480Y-112117849D01*
X190607867Y-112138893D01*
X190593253Y-112158598D01*
X190576777Y-112176777D01*
X190558598Y-112193253D01*
X190538893Y-112207867D01*
X190517849Y-112220480D01*
X190495671Y-112230970D01*
X190472571Y-112239235D01*
X190448773Y-112245196D01*
X190424504Y-112248796D01*
X190400000Y-112250000D01*
X189100000Y-112250000D01*
X189075496Y-112248796D01*
X189051227Y-112245196D01*
X189027429Y-112239235D01*
X189004329Y-112230970D01*
X188982151Y-112220480D01*
X188961107Y-112207867D01*
X188941402Y-112193253D01*
X188923223Y-112176777D01*
X188906747Y-112158598D01*
X188892133Y-112138893D01*
X188879520Y-112117849D01*
X188869030Y-112095671D01*
X188860765Y-112072571D01*
X188854804Y-112048773D01*
X188851204Y-112024504D01*
X188850000Y-112000000D01*
X188850000Y-110000000D01*
X188851204Y-109975496D01*
X188854804Y-109951227D01*
X188860765Y-109927429D01*
X188869030Y-109904329D01*
X188879520Y-109882151D01*
X188892133Y-109861107D01*
X188906747Y-109841402D01*
X188923223Y-109823223D01*
X188941402Y-109806747D01*
X188961107Y-109792133D01*
X188982151Y-109779520D01*
X189004329Y-109769030D01*
X189027429Y-109760765D01*
X189051227Y-109754804D01*
X189075496Y-109751204D01*
X189100000Y-109750000D01*
X190400000Y-109750000D01*
X190424504Y-109751204D01*
X190424504Y-109751204D01*
G37*
D16*
X189750000Y-111000000D03*
D14*
X189150000Y-110100000D03*
X165750000Y-96750000D03*
X163250000Y-96750000D03*
X164500000Y-95500000D03*
X165500000Y-94250000D03*
X163250000Y-94250000D03*
X195150000Y-88500000D03*
X196250000Y-89700000D03*
X194000000Y-87500000D03*
X196250000Y-87500000D03*
X194050000Y-89800000D03*
X191000000Y-105750000D03*
X188905000Y-112905000D03*
X187250000Y-106000000D03*
X182500000Y-110500000D03*
X187150000Y-103400000D03*
X193650000Y-93500000D03*
X166000000Y-100500000D03*
D17*
X193050000Y-93500000D02*
X193650000Y-93500000D01*
X192650000Y-93900000D02*
X193050000Y-93500000D01*
X181436001Y-103394999D02*
X181441002Y-103400000D01*
X181441002Y-103400000D02*
X192450000Y-103400000D01*
X192450000Y-103400000D02*
X192650000Y-103200000D01*
X192650000Y-103200000D02*
X192650000Y-93900000D01*
X177144999Y-103394999D02*
X175514997Y-105025001D01*
X175514997Y-105025001D02*
X171775001Y-105025001D01*
X177144999Y-103394999D02*
X181436001Y-103394999D01*
X167250000Y-100500000D02*
X166000000Y-100500000D01*
X171775001Y-105025001D02*
X167250000Y-100500000D01*
X177250000Y-103394999D02*
X177144999Y-103394999D01*
D18*
G36*
X191373000Y-112873000D02*
G01*
X188227000Y-112873000D01*
X188227000Y-109127000D01*
X191373000Y-109127000D01*
X191373000Y-112873000D01*
X191373000Y-112873000D01*
G37*
X191373000Y-112873000D02*
X188227000Y-112873000D01*
X188227000Y-109127000D01*
X191373000Y-109127000D01*
X191373000Y-112873000D01*
G36*
X198265001Y-81032503D02*
G01*
X198265000Y-104470164D01*
X195362922Y-108656771D01*
X195335914Y-108689680D01*
X195304752Y-108747980D01*
X195272592Y-108805750D01*
X195270649Y-108811783D01*
X195267664Y-108817367D01*
X195248481Y-108880604D01*
X195228203Y-108943560D01*
X195227474Y-108949855D01*
X195225636Y-108955915D01*
X195219159Y-109021673D01*
X195211552Y-109087382D01*
X195215001Y-109129819D01*
X195215000Y-117965000D01*
X165337500Y-117965000D01*
X162535000Y-113872462D01*
X162535000Y-110186377D01*
X188113587Y-110186377D01*
X188150353Y-110386912D01*
X188214472Y-110548536D01*
X188214495Y-110555680D01*
X188159423Y-110683184D01*
X188116649Y-110882523D01*
X188113587Y-111086377D01*
X188150353Y-111286912D01*
X188214481Y-111448560D01*
X188214458Y-111455765D01*
X188159423Y-111583184D01*
X188116649Y-111782523D01*
X188113587Y-111986377D01*
X188150353Y-112186912D01*
X188223997Y-112372547D01*
X188224188Y-112374482D01*
X188260498Y-112494180D01*
X188319463Y-112604494D01*
X188398815Y-112701185D01*
X188495506Y-112780537D01*
X188605820Y-112839502D01*
X188725518Y-112875812D01*
X188820704Y-112885187D01*
X188833184Y-112890577D01*
X189032523Y-112933351D01*
X189236377Y-112936413D01*
X189436912Y-112899647D01*
X189626420Y-112824466D01*
X189653981Y-112809736D01*
X189670968Y-112658640D01*
X189700000Y-112629608D01*
X189729032Y-112658640D01*
X189746019Y-112809736D01*
X189933184Y-112890577D01*
X190132523Y-112933351D01*
X190336377Y-112936413D01*
X190536912Y-112899647D01*
X190567134Y-112887658D01*
X190650000Y-112888072D01*
X190774482Y-112875812D01*
X190894180Y-112839502D01*
X191004494Y-112780537D01*
X191101185Y-112701185D01*
X191180537Y-112604494D01*
X191239502Y-112494180D01*
X191275812Y-112374482D01*
X191288072Y-112250000D01*
X191285000Y-111285750D01*
X191253914Y-111254664D01*
X191281307Y-111127002D01*
X191285000Y-111127002D01*
X191285000Y-111007694D01*
X191286413Y-110913623D01*
X191285000Y-110905916D01*
X191285000Y-110872998D01*
X191278965Y-110872998D01*
X191255304Y-110743946D01*
X191285000Y-110714250D01*
X191288072Y-109750000D01*
X191275812Y-109625518D01*
X191239502Y-109505820D01*
X191180537Y-109395506D01*
X191101185Y-109298815D01*
X191004494Y-109219463D01*
X190894180Y-109160498D01*
X190774482Y-109124188D01*
X190650000Y-109111928D01*
X190573501Y-109112311D01*
X190566816Y-109109423D01*
X190367477Y-109066649D01*
X190163623Y-109063587D01*
X189963088Y-109100353D01*
X189773580Y-109175534D01*
X189746019Y-109190264D01*
X189729032Y-109341360D01*
X189700000Y-109370392D01*
X189670968Y-109341360D01*
X189653981Y-109190264D01*
X189466816Y-109109423D01*
X189267477Y-109066649D01*
X189063623Y-109063587D01*
X188863088Y-109100353D01*
X188828598Y-109114036D01*
X188725518Y-109124188D01*
X188605820Y-109160498D01*
X188495506Y-109219463D01*
X188398815Y-109298815D01*
X188319463Y-109395506D01*
X188260498Y-109505820D01*
X188224188Y-109625518D01*
X188223203Y-109635519D01*
X188159423Y-109783184D01*
X188116649Y-109982523D01*
X188113587Y-110186377D01*
X162535000Y-110186377D01*
X162535000Y-92424212D01*
X166373000Y-92378521D01*
X166373000Y-99534226D01*
X166301898Y-99504774D01*
X166101939Y-99465000D01*
X165898061Y-99465000D01*
X165698102Y-99504774D01*
X165509744Y-99582795D01*
X165340226Y-99696063D01*
X165196063Y-99840226D01*
X165082795Y-100009744D01*
X165004774Y-100198102D01*
X164965000Y-100398061D01*
X164965000Y-100601939D01*
X165004774Y-100801898D01*
X165082795Y-100990256D01*
X165196063Y-101159774D01*
X165340226Y-101303937D01*
X165509744Y-101417205D01*
X165698102Y-101495226D01*
X165898061Y-101535000D01*
X166101939Y-101535000D01*
X166301898Y-101495226D01*
X166373000Y-101465774D01*
X166373000Y-105500000D01*
X166375440Y-105524776D01*
X166382667Y-105548601D01*
X166394403Y-105570557D01*
X166410197Y-105589803D01*
X166429443Y-105605597D01*
X166451399Y-105617333D01*
X166475224Y-105624560D01*
X166500000Y-105627000D01*
X171310545Y-105627000D01*
X171350725Y-105659975D01*
X171482754Y-105730547D01*
X171626015Y-105774004D01*
X171737668Y-105785001D01*
X171737676Y-105785001D01*
X171775001Y-105788677D01*
X171812326Y-105785001D01*
X175477675Y-105785001D01*
X175514997Y-105788677D01*
X175552319Y-105785001D01*
X175552330Y-105785001D01*
X175663983Y-105774004D01*
X175807244Y-105730547D01*
X175939273Y-105659975D01*
X175979453Y-105627000D01*
X178055000Y-105627000D01*
X178055000Y-105704902D01*
X178146654Y-106165679D01*
X178326440Y-106599721D01*
X178587450Y-106990349D01*
X178919651Y-107322550D01*
X179310279Y-107583560D01*
X179744321Y-107763346D01*
X180205098Y-107855000D01*
X180674902Y-107855000D01*
X181135679Y-107763346D01*
X181569721Y-107583560D01*
X181960349Y-107322550D01*
X182292550Y-106990349D01*
X182553560Y-106599721D01*
X182733346Y-106165679D01*
X182825000Y-105704902D01*
X182825000Y-105627000D01*
X193000000Y-105627000D01*
X193024776Y-105624560D01*
X193048601Y-105617333D01*
X193070557Y-105605597D01*
X193089803Y-105589803D01*
X193105597Y-105570557D01*
X193117333Y-105548601D01*
X193124560Y-105524776D01*
X193127000Y-105500000D01*
X193127000Y-103797801D01*
X193160998Y-103763803D01*
X193190001Y-103740001D01*
X193284974Y-103624276D01*
X193355546Y-103492247D01*
X193399003Y-103348986D01*
X193410000Y-103237333D01*
X193410000Y-103237325D01*
X193413676Y-103200000D01*
X193410000Y-103162675D01*
X193410000Y-94507538D01*
X193548061Y-94535000D01*
X193751939Y-94535000D01*
X193951898Y-94495226D01*
X194140256Y-94417205D01*
X194309774Y-94303937D01*
X194453937Y-94159774D01*
X194567205Y-93990256D01*
X194645226Y-93801898D01*
X194685000Y-93601939D01*
X194685000Y-93398061D01*
X194645226Y-93198102D01*
X194567205Y-93009744D01*
X194453937Y-92840226D01*
X194309774Y-92696063D01*
X194140256Y-92582795D01*
X193951898Y-92504774D01*
X193751939Y-92465000D01*
X193548061Y-92465000D01*
X193348102Y-92504774D01*
X193159744Y-92582795D01*
X193127000Y-92604674D01*
X193127000Y-84449224D01*
X193580381Y-84449224D01*
X193712317Y-84744312D01*
X194053045Y-84915159D01*
X194420557Y-85016250D01*
X194800729Y-85043701D01*
X195178951Y-84996457D01*
X195540690Y-84876333D01*
X195787683Y-84744312D01*
X195919619Y-84449224D01*
X194750000Y-83279605D01*
X193580381Y-84449224D01*
X193127000Y-84449224D01*
X193127000Y-84147212D01*
X193400776Y-84269619D01*
X194570395Y-83100000D01*
X194929605Y-83100000D01*
X196099224Y-84269619D01*
X196394312Y-84137683D01*
X196565159Y-83796955D01*
X196666250Y-83429443D01*
X196693701Y-83049271D01*
X196646457Y-82671049D01*
X196526333Y-82309310D01*
X196394312Y-82062317D01*
X196099224Y-81930381D01*
X194929605Y-83100000D01*
X194570395Y-83100000D01*
X193400776Y-81930381D01*
X193127000Y-82052788D01*
X193127000Y-81750776D01*
X193580381Y-81750776D01*
X194750000Y-82920395D01*
X195919619Y-81750776D01*
X195787683Y-81455688D01*
X195446955Y-81284841D01*
X195079443Y-81183750D01*
X194699271Y-81156299D01*
X194321049Y-81203543D01*
X193959310Y-81323667D01*
X193712317Y-81455688D01*
X193580381Y-81750776D01*
X193127000Y-81750776D01*
X193127000Y-81021034D01*
X198265001Y-81032503D01*
X198265001Y-81032503D01*
G37*
X198265001Y-81032503D02*
X198265000Y-104470164D01*
X195362922Y-108656771D01*
X195335914Y-108689680D01*
X195304752Y-108747980D01*
X195272592Y-108805750D01*
X195270649Y-108811783D01*
X195267664Y-108817367D01*
X195248481Y-108880604D01*
X195228203Y-108943560D01*
X195227474Y-108949855D01*
X195225636Y-108955915D01*
X195219159Y-109021673D01*
X195211552Y-109087382D01*
X195215001Y-109129819D01*
X195215000Y-117965000D01*
X165337500Y-117965000D01*
X162535000Y-113872462D01*
X162535000Y-110186377D01*
X188113587Y-110186377D01*
X188150353Y-110386912D01*
X188214472Y-110548536D01*
X188214495Y-110555680D01*
X188159423Y-110683184D01*
X188116649Y-110882523D01*
X188113587Y-111086377D01*
X188150353Y-111286912D01*
X188214481Y-111448560D01*
X188214458Y-111455765D01*
X188159423Y-111583184D01*
X188116649Y-111782523D01*
X188113587Y-111986377D01*
X188150353Y-112186912D01*
X188223997Y-112372547D01*
X188224188Y-112374482D01*
X188260498Y-112494180D01*
X188319463Y-112604494D01*
X188398815Y-112701185D01*
X188495506Y-112780537D01*
X188605820Y-112839502D01*
X188725518Y-112875812D01*
X188820704Y-112885187D01*
X188833184Y-112890577D01*
X189032523Y-112933351D01*
X189236377Y-112936413D01*
X189436912Y-112899647D01*
X189626420Y-112824466D01*
X189653981Y-112809736D01*
X189670968Y-112658640D01*
X189700000Y-112629608D01*
X189729032Y-112658640D01*
X189746019Y-112809736D01*
X189933184Y-112890577D01*
X190132523Y-112933351D01*
X190336377Y-112936413D01*
X190536912Y-112899647D01*
X190567134Y-112887658D01*
X190650000Y-112888072D01*
X190774482Y-112875812D01*
X190894180Y-112839502D01*
X191004494Y-112780537D01*
X191101185Y-112701185D01*
X191180537Y-112604494D01*
X191239502Y-112494180D01*
X191275812Y-112374482D01*
X191288072Y-112250000D01*
X191285000Y-111285750D01*
X191253914Y-111254664D01*
X191281307Y-111127002D01*
X191285000Y-111127002D01*
X191285000Y-111007694D01*
X191286413Y-110913623D01*
X191285000Y-110905916D01*
X191285000Y-110872998D01*
X191278965Y-110872998D01*
X191255304Y-110743946D01*
X191285000Y-110714250D01*
X191288072Y-109750000D01*
X191275812Y-109625518D01*
X191239502Y-109505820D01*
X191180537Y-109395506D01*
X191101185Y-109298815D01*
X191004494Y-109219463D01*
X190894180Y-109160498D01*
X190774482Y-109124188D01*
X190650000Y-109111928D01*
X190573501Y-109112311D01*
X190566816Y-109109423D01*
X190367477Y-109066649D01*
X190163623Y-109063587D01*
X189963088Y-109100353D01*
X189773580Y-109175534D01*
X189746019Y-109190264D01*
X189729032Y-109341360D01*
X189700000Y-109370392D01*
X189670968Y-109341360D01*
X189653981Y-109190264D01*
X189466816Y-109109423D01*
X189267477Y-109066649D01*
X189063623Y-109063587D01*
X188863088Y-109100353D01*
X188828598Y-109114036D01*
X188725518Y-109124188D01*
X188605820Y-109160498D01*
X188495506Y-109219463D01*
X188398815Y-109298815D01*
X188319463Y-109395506D01*
X188260498Y-109505820D01*
X188224188Y-109625518D01*
X188223203Y-109635519D01*
X188159423Y-109783184D01*
X188116649Y-109982523D01*
X188113587Y-110186377D01*
X162535000Y-110186377D01*
X162535000Y-92424212D01*
X166373000Y-92378521D01*
X166373000Y-99534226D01*
X166301898Y-99504774D01*
X166101939Y-99465000D01*
X165898061Y-99465000D01*
X165698102Y-99504774D01*
X165509744Y-99582795D01*
X165340226Y-99696063D01*
X165196063Y-99840226D01*
X165082795Y-100009744D01*
X165004774Y-100198102D01*
X164965000Y-100398061D01*
X164965000Y-100601939D01*
X165004774Y-100801898D01*
X165082795Y-100990256D01*
X165196063Y-101159774D01*
X165340226Y-101303937D01*
X165509744Y-101417205D01*
X165698102Y-101495226D01*
X165898061Y-101535000D01*
X166101939Y-101535000D01*
X166301898Y-101495226D01*
X166373000Y-101465774D01*
X166373000Y-105500000D01*
X166375440Y-105524776D01*
X166382667Y-105548601D01*
X166394403Y-105570557D01*
X166410197Y-105589803D01*
X166429443Y-105605597D01*
X166451399Y-105617333D01*
X166475224Y-105624560D01*
X166500000Y-105627000D01*
X171310545Y-105627000D01*
X171350725Y-105659975D01*
X171482754Y-105730547D01*
X171626015Y-105774004D01*
X171737668Y-105785001D01*
X171737676Y-105785001D01*
X171775001Y-105788677D01*
X171812326Y-105785001D01*
X175477675Y-105785001D01*
X175514997Y-105788677D01*
X175552319Y-105785001D01*
X175552330Y-105785001D01*
X175663983Y-105774004D01*
X175807244Y-105730547D01*
X175939273Y-105659975D01*
X175979453Y-105627000D01*
X178055000Y-105627000D01*
X178055000Y-105704902D01*
X178146654Y-106165679D01*
X178326440Y-106599721D01*
X178587450Y-106990349D01*
X178919651Y-107322550D01*
X179310279Y-107583560D01*
X179744321Y-107763346D01*
X180205098Y-107855000D01*
X180674902Y-107855000D01*
X181135679Y-107763346D01*
X181569721Y-107583560D01*
X181960349Y-107322550D01*
X182292550Y-106990349D01*
X182553560Y-106599721D01*
X182733346Y-106165679D01*
X182825000Y-105704902D01*
X182825000Y-105627000D01*
X193000000Y-105627000D01*
X193024776Y-105624560D01*
X193048601Y-105617333D01*
X193070557Y-105605597D01*
X193089803Y-105589803D01*
X193105597Y-105570557D01*
X193117333Y-105548601D01*
X193124560Y-105524776D01*
X193127000Y-105500000D01*
X193127000Y-103797801D01*
X193160998Y-103763803D01*
X193190001Y-103740001D01*
X193284974Y-103624276D01*
X193355546Y-103492247D01*
X193399003Y-103348986D01*
X193410000Y-103237333D01*
X193410000Y-103237325D01*
X193413676Y-103200000D01*
X193410000Y-103162675D01*
X193410000Y-94507538D01*
X193548061Y-94535000D01*
X193751939Y-94535000D01*
X193951898Y-94495226D01*
X194140256Y-94417205D01*
X194309774Y-94303937D01*
X194453937Y-94159774D01*
X194567205Y-93990256D01*
X194645226Y-93801898D01*
X194685000Y-93601939D01*
X194685000Y-93398061D01*
X194645226Y-93198102D01*
X194567205Y-93009744D01*
X194453937Y-92840226D01*
X194309774Y-92696063D01*
X194140256Y-92582795D01*
X193951898Y-92504774D01*
X193751939Y-92465000D01*
X193548061Y-92465000D01*
X193348102Y-92504774D01*
X193159744Y-92582795D01*
X193127000Y-92604674D01*
X193127000Y-84449224D01*
X193580381Y-84449224D01*
X193712317Y-84744312D01*
X194053045Y-84915159D01*
X194420557Y-85016250D01*
X194800729Y-85043701D01*
X195178951Y-84996457D01*
X195540690Y-84876333D01*
X195787683Y-84744312D01*
X195919619Y-84449224D01*
X194750000Y-83279605D01*
X193580381Y-84449224D01*
X193127000Y-84449224D01*
X193127000Y-84147212D01*
X193400776Y-84269619D01*
X194570395Y-83100000D01*
X194929605Y-83100000D01*
X196099224Y-84269619D01*
X196394312Y-84137683D01*
X196565159Y-83796955D01*
X196666250Y-83429443D01*
X196693701Y-83049271D01*
X196646457Y-82671049D01*
X196526333Y-82309310D01*
X196394312Y-82062317D01*
X196099224Y-81930381D01*
X194929605Y-83100000D01*
X194570395Y-83100000D01*
X193400776Y-81930381D01*
X193127000Y-82052788D01*
X193127000Y-81750776D01*
X193580381Y-81750776D01*
X194750000Y-82920395D01*
X195919619Y-81750776D01*
X195787683Y-81455688D01*
X195446955Y-81284841D01*
X195079443Y-81183750D01*
X194699271Y-81156299D01*
X194321049Y-81203543D01*
X193959310Y-81323667D01*
X193712317Y-81455688D01*
X193580381Y-81750776D01*
X193127000Y-81750776D01*
X193127000Y-81021034D01*
X198265001Y-81032503D01*
M02*
