%FSLAX45Y45*%
G04 Gerber Fmt 4.5, Leading zero omitted, Abs format (unit mm)*
G04 Created by KiCad (PCBNEW 5.1.4) date 2020-01-08 09:33:54*
%MOMM*%
%LPD*%
G04 APERTURE LIST*
%ADD10C,0.200000*%
%ADD11C,0.300000*%
G04 APERTURE END LIST*
D10*
X19595000Y-10910000D02*
X19900000Y-10470000D01*
X19595000Y-11870000D02*
X19595000Y-10910000D01*
X16180000Y-11410000D02*
X16495000Y-11870000D01*
X16495000Y-8210000D02*
X16180000Y-8630000D01*
X16495000Y-7210000D02*
X16495000Y-8210000D01*
X19575000Y-7210000D02*
X19900000Y-7730000D01*
X19575000Y-7210000D02*
X16495000Y-7210000D01*
X16180000Y-8630000D02*
X16180000Y-11410000D01*
X16495000Y-11870000D02*
X19595000Y-11870000D01*
X19900000Y-10470000D02*
X19900000Y-7730000D01*
D10*
X16305000Y-9405000D02*
X16345000Y-9445000D01*
X16345000Y-9405000D02*
X16305000Y-9445000D01*
X16305000Y-9655000D02*
X16345000Y-9695000D01*
X16345000Y-9655000D02*
X16305000Y-9695000D01*
X16430000Y-9530000D02*
X16470000Y-9570000D01*
X16470000Y-9530000D02*
X16430000Y-9570000D01*
X16530000Y-9405000D02*
X16570000Y-9445000D01*
X16570000Y-9405000D02*
X16530000Y-9445000D01*
X16555000Y-9655000D02*
X16595000Y-9695000D01*
X16595000Y-9655000D02*
X16555000Y-9695000D01*
X16580000Y-10030000D02*
X16620000Y-10070000D01*
X16620000Y-10030000D02*
X16580000Y-10070000D01*
X18230000Y-11030000D02*
X18270000Y-11070000D01*
X18270000Y-11030000D02*
X18230000Y-11070000D01*
X18695000Y-10320000D02*
X18735000Y-10360000D01*
X18735000Y-10320000D02*
X18695000Y-10360000D01*
X18705000Y-10580000D02*
X18745000Y-10620000D01*
X18745000Y-10580000D02*
X18705000Y-10620000D01*
X18870500Y-11270500D02*
X18910500Y-11310500D01*
X18910500Y-11270500D02*
X18870500Y-11310500D01*
X19080000Y-10555000D02*
X19120000Y-10595000D01*
X19120000Y-10555000D02*
X19080000Y-10595000D01*
X19345000Y-9330000D02*
X19385000Y-9370000D01*
X19385000Y-9330000D02*
X19345000Y-9370000D01*
X19380000Y-8730000D02*
X19420000Y-8770000D01*
X19420000Y-8730000D02*
X19380000Y-8770000D01*
X19385000Y-8960000D02*
X19425000Y-9000000D01*
X19425000Y-8960000D02*
X19385000Y-9000000D01*
X19495000Y-8830000D02*
X19535000Y-8870000D01*
X19535000Y-8830000D02*
X19495000Y-8870000D01*
X19605000Y-8730000D02*
X19645000Y-8770000D01*
X19645000Y-8730000D02*
X19605000Y-8770000D01*
X19605000Y-8950000D02*
X19645000Y-8990000D01*
X19645000Y-8950000D02*
X19605000Y-8990000D01*
X18895000Y-10990000D02*
X18935000Y-11030000D01*
X18935000Y-10990000D02*
X18895000Y-11030000D01*
X18895000Y-11080000D02*
X18935000Y-11120000D01*
X18935000Y-11080000D02*
X18895000Y-11120000D01*
X18895000Y-11170000D02*
X18935000Y-11210000D01*
X18935000Y-11170000D02*
X18895000Y-11210000D01*
X19005000Y-10990000D02*
X19045000Y-11030000D01*
X19045000Y-10990000D02*
X19005000Y-11030000D01*
X19005000Y-11080000D02*
X19045000Y-11120000D01*
X19045000Y-11080000D02*
X19005000Y-11120000D01*
X19005000Y-11170000D02*
X19045000Y-11210000D01*
X19045000Y-11170000D02*
X19005000Y-11210000D01*
X17390000Y-8592000D02*
G75*
G03X17390000Y-8592000I-55000J0D01*
G01*
X17390000Y-9354000D02*
G75*
G03X17390000Y-9354000I-55000J0D01*
G01*
X17390000Y-10116000D02*
G75*
G03X17390000Y-10116000I-55000J0D01*
G01*
X17390000Y-10370000D02*
G75*
G03X17390000Y-10370000I-55000J0D01*
G01*
X17815000Y-9415000D02*
X17815000Y-9545000D01*
X17750000Y-9480000D02*
X17880000Y-9480000D01*
X18315000Y-9415000D02*
X18315000Y-9545000D01*
X18250000Y-9480000D02*
X18380000Y-9480000D01*
X19475000Y-7745000D02*
X19475000Y-7875000D01*
X19410000Y-7810000D02*
X19540000Y-7810000D01*
X19475000Y-8245000D02*
X19475000Y-8375000D01*
X19410000Y-8310000D02*
X19540000Y-8310000D01*
D11*
X16456428Y-12345714D02*
X16456428Y-12045714D01*
X16527857Y-12045714D01*
X16570714Y-12060000D01*
X16599286Y-12088571D01*
X16613571Y-12117143D01*
X16627857Y-12174286D01*
X16627857Y-12217143D01*
X16613571Y-12274286D01*
X16599286Y-12302857D01*
X16570714Y-12331429D01*
X16527857Y-12345714D01*
X16456428Y-12345714D01*
X16756428Y-12345714D02*
X16756428Y-12145714D01*
X16756428Y-12202857D02*
X16770714Y-12174286D01*
X16785000Y-12160000D01*
X16813571Y-12145714D01*
X16842143Y-12145714D01*
X16942143Y-12345714D02*
X16942143Y-12145714D01*
X16942143Y-12045714D02*
X16927857Y-12060000D01*
X16942143Y-12074286D01*
X16956428Y-12060000D01*
X16942143Y-12045714D01*
X16942143Y-12074286D01*
X17127857Y-12345714D02*
X17099286Y-12331429D01*
X17085000Y-12302857D01*
X17085000Y-12045714D01*
X17285000Y-12345714D02*
X17256428Y-12331429D01*
X17242143Y-12302857D01*
X17242143Y-12045714D01*
X17627857Y-12345714D02*
X17627857Y-12045714D01*
X17727857Y-12260000D01*
X17827857Y-12045714D01*
X17827857Y-12345714D01*
X18099286Y-12345714D02*
X18099286Y-12188571D01*
X18085000Y-12160000D01*
X18056428Y-12145714D01*
X17999286Y-12145714D01*
X17970714Y-12160000D01*
X18099286Y-12331429D02*
X18070714Y-12345714D01*
X17999286Y-12345714D01*
X17970714Y-12331429D01*
X17956428Y-12302857D01*
X17956428Y-12274286D01*
X17970714Y-12245714D01*
X17999286Y-12231429D01*
X18070714Y-12231429D01*
X18099286Y-12217143D01*
X18242143Y-12145714D02*
X18242143Y-12445714D01*
X18242143Y-12160000D02*
X18270714Y-12145714D01*
X18327857Y-12145714D01*
X18356428Y-12160000D01*
X18370714Y-12174286D01*
X18385000Y-12202857D01*
X18385000Y-12288571D01*
X18370714Y-12317143D01*
X18356428Y-12331429D01*
X18327857Y-12345714D01*
X18270714Y-12345714D01*
X18242143Y-12331429D01*
X18513571Y-12317143D02*
X18527857Y-12331429D01*
X18513571Y-12345714D01*
X18499286Y-12331429D01*
X18513571Y-12317143D01*
X18513571Y-12345714D01*
X18513571Y-12160000D02*
X18527857Y-12174286D01*
X18513571Y-12188571D01*
X18499286Y-12174286D01*
X18513571Y-12160000D01*
X18513571Y-12188571D01*
X16130000Y-12820000D02*
X16170000Y-12860000D01*
X16170000Y-12820000D02*
X16130000Y-12860000D01*
X16513571Y-12675714D02*
X16542143Y-12675714D01*
X16570714Y-12690000D01*
X16585000Y-12704286D01*
X16599286Y-12732857D01*
X16613571Y-12790000D01*
X16613571Y-12861429D01*
X16599286Y-12918571D01*
X16585000Y-12947143D01*
X16570714Y-12961429D01*
X16542143Y-12975714D01*
X16513571Y-12975714D01*
X16485000Y-12961429D01*
X16470714Y-12947143D01*
X16456428Y-12918571D01*
X16442143Y-12861429D01*
X16442143Y-12790000D01*
X16456428Y-12732857D01*
X16470714Y-12704286D01*
X16485000Y-12690000D01*
X16513571Y-12675714D01*
X16742143Y-12947143D02*
X16756428Y-12961429D01*
X16742143Y-12975714D01*
X16727857Y-12961429D01*
X16742143Y-12947143D01*
X16742143Y-12975714D01*
X17013571Y-12775714D02*
X17013571Y-12975714D01*
X16942143Y-12661429D02*
X16870714Y-12875714D01*
X17056428Y-12875714D01*
X17227857Y-12675714D02*
X17256428Y-12675714D01*
X17285000Y-12690000D01*
X17299286Y-12704286D01*
X17313571Y-12732857D01*
X17327857Y-12790000D01*
X17327857Y-12861429D01*
X17313571Y-12918571D01*
X17299286Y-12947143D01*
X17285000Y-12961429D01*
X17256428Y-12975714D01*
X17227857Y-12975714D01*
X17199286Y-12961429D01*
X17185000Y-12947143D01*
X17170714Y-12918571D01*
X17156428Y-12861429D01*
X17156428Y-12790000D01*
X17170714Y-12732857D01*
X17185000Y-12704286D01*
X17199286Y-12690000D01*
X17227857Y-12675714D01*
X17456428Y-12975714D02*
X17456428Y-12775714D01*
X17456428Y-12804286D02*
X17470714Y-12790000D01*
X17499286Y-12775714D01*
X17542143Y-12775714D01*
X17570714Y-12790000D01*
X17585000Y-12818571D01*
X17585000Y-12975714D01*
X17585000Y-12818571D02*
X17599286Y-12790000D01*
X17627857Y-12775714D01*
X17670714Y-12775714D01*
X17699286Y-12790000D01*
X17713571Y-12818571D01*
X17713571Y-12975714D01*
X17856428Y-12975714D02*
X17856428Y-12775714D01*
X17856428Y-12804286D02*
X17870714Y-12790000D01*
X17899286Y-12775714D01*
X17942143Y-12775714D01*
X17970714Y-12790000D01*
X17985000Y-12818571D01*
X17985000Y-12975714D01*
X17985000Y-12818571D02*
X17999286Y-12790000D01*
X18027857Y-12775714D01*
X18070714Y-12775714D01*
X18099286Y-12790000D01*
X18113571Y-12818571D01*
X18113571Y-12975714D01*
X18699286Y-12661429D02*
X18442143Y-13047143D01*
X19085000Y-12675714D02*
X19113571Y-12675714D01*
X19142143Y-12690000D01*
X19156428Y-12704286D01*
X19170714Y-12732857D01*
X19185000Y-12790000D01*
X19185000Y-12861429D01*
X19170714Y-12918571D01*
X19156428Y-12947143D01*
X19142143Y-12961429D01*
X19113571Y-12975714D01*
X19085000Y-12975714D01*
X19056428Y-12961429D01*
X19042143Y-12947143D01*
X19027857Y-12918571D01*
X19013571Y-12861429D01*
X19013571Y-12790000D01*
X19027857Y-12732857D01*
X19042143Y-12704286D01*
X19056428Y-12690000D01*
X19085000Y-12675714D01*
X19313571Y-12947143D02*
X19327857Y-12961429D01*
X19313571Y-12975714D01*
X19299286Y-12961429D01*
X19313571Y-12947143D01*
X19313571Y-12975714D01*
X19513571Y-12675714D02*
X19542143Y-12675714D01*
X19570714Y-12690000D01*
X19585000Y-12704286D01*
X19599286Y-12732857D01*
X19613571Y-12790000D01*
X19613571Y-12861429D01*
X19599286Y-12918571D01*
X19585000Y-12947143D01*
X19570714Y-12961429D01*
X19542143Y-12975714D01*
X19513571Y-12975714D01*
X19485000Y-12961429D01*
X19470714Y-12947143D01*
X19456428Y-12918571D01*
X19442143Y-12861429D01*
X19442143Y-12790000D01*
X19456428Y-12732857D01*
X19470714Y-12704286D01*
X19485000Y-12690000D01*
X19513571Y-12675714D01*
X19899286Y-12975714D02*
X19727857Y-12975714D01*
X19813571Y-12975714D02*
X19813571Y-12675714D01*
X19785000Y-12718571D01*
X19756428Y-12747143D01*
X19727857Y-12761429D01*
X20156428Y-12675714D02*
X20099286Y-12675714D01*
X20070714Y-12690000D01*
X20056428Y-12704286D01*
X20027857Y-12747143D01*
X20013571Y-12804286D01*
X20013571Y-12918571D01*
X20027857Y-12947143D01*
X20042143Y-12961429D01*
X20070714Y-12975714D01*
X20127857Y-12975714D01*
X20156428Y-12961429D01*
X20170714Y-12947143D01*
X20185000Y-12918571D01*
X20185000Y-12847143D01*
X20170714Y-12818571D01*
X20156428Y-12804286D01*
X20127857Y-12790000D01*
X20070714Y-12790000D01*
X20042143Y-12804286D01*
X20027857Y-12818571D01*
X20013571Y-12847143D01*
X20299286Y-12675714D02*
X20299286Y-12732857D01*
X20413571Y-12675714D02*
X20413571Y-12732857D01*
X20856428Y-13090000D02*
X20842143Y-13075714D01*
X20813571Y-13032857D01*
X20799286Y-13004286D01*
X20785000Y-12961429D01*
X20770714Y-12890000D01*
X20770714Y-12832857D01*
X20785000Y-12761429D01*
X20799286Y-12718571D01*
X20813571Y-12690000D01*
X20842143Y-12647143D01*
X20856428Y-12632857D01*
X20956428Y-12704286D02*
X20970714Y-12690000D01*
X20999286Y-12675714D01*
X21070714Y-12675714D01*
X21099286Y-12690000D01*
X21113571Y-12704286D01*
X21127857Y-12732857D01*
X21127857Y-12761429D01*
X21113571Y-12804286D01*
X20942143Y-12975714D01*
X21127857Y-12975714D01*
X21227857Y-12675714D02*
X21413571Y-12675714D01*
X21313571Y-12790000D01*
X21356428Y-12790000D01*
X21385000Y-12804286D01*
X21399286Y-12818571D01*
X21413571Y-12847143D01*
X21413571Y-12918571D01*
X21399286Y-12947143D01*
X21385000Y-12961429D01*
X21356428Y-12975714D01*
X21270714Y-12975714D01*
X21242143Y-12961429D01*
X21227857Y-12947143D01*
X21770714Y-12975714D02*
X21770714Y-12675714D01*
X21899286Y-12975714D02*
X21899286Y-12818571D01*
X21885000Y-12790000D01*
X21856428Y-12775714D01*
X21813571Y-12775714D01*
X21785000Y-12790000D01*
X21770714Y-12804286D01*
X22085000Y-12975714D02*
X22056428Y-12961429D01*
X22042143Y-12947143D01*
X22027857Y-12918571D01*
X22027857Y-12832857D01*
X22042143Y-12804286D01*
X22056428Y-12790000D01*
X22085000Y-12775714D01*
X22127857Y-12775714D01*
X22156428Y-12790000D01*
X22170714Y-12804286D01*
X22185000Y-12832857D01*
X22185000Y-12918571D01*
X22170714Y-12947143D01*
X22156428Y-12961429D01*
X22127857Y-12975714D01*
X22085000Y-12975714D01*
X22356428Y-12975714D02*
X22327857Y-12961429D01*
X22313571Y-12932857D01*
X22313571Y-12675714D01*
X22585000Y-12961429D02*
X22556428Y-12975714D01*
X22499286Y-12975714D01*
X22470714Y-12961429D01*
X22456428Y-12932857D01*
X22456428Y-12818571D01*
X22470714Y-12790000D01*
X22499286Y-12775714D01*
X22556428Y-12775714D01*
X22585000Y-12790000D01*
X22599286Y-12818571D01*
X22599286Y-12847143D01*
X22456428Y-12875714D01*
X22713571Y-12961429D02*
X22742143Y-12975714D01*
X22799286Y-12975714D01*
X22827857Y-12961429D01*
X22842143Y-12932857D01*
X22842143Y-12918571D01*
X22827857Y-12890000D01*
X22799286Y-12875714D01*
X22756428Y-12875714D01*
X22727857Y-12861429D01*
X22713571Y-12832857D01*
X22713571Y-12818571D01*
X22727857Y-12790000D01*
X22756428Y-12775714D01*
X22799286Y-12775714D01*
X22827857Y-12790000D01*
X22942143Y-13090000D02*
X22956428Y-13075714D01*
X22985000Y-13032857D01*
X22999286Y-13004286D01*
X23013571Y-12961429D01*
X23027857Y-12890000D01*
X23027857Y-12832857D01*
X23013571Y-12761429D01*
X22999286Y-12718571D01*
X22985000Y-12690000D01*
X22956428Y-12647143D01*
X22942143Y-12632857D01*
X16170000Y-13236000D02*
G75*
G03X16170000Y-13236000I-55000J0D01*
G01*
X16613571Y-13371714D02*
X16442143Y-13371714D01*
X16527857Y-13371714D02*
X16527857Y-13071714D01*
X16499286Y-13114571D01*
X16470714Y-13143143D01*
X16442143Y-13157429D01*
X16742143Y-13343143D02*
X16756428Y-13357429D01*
X16742143Y-13371714D01*
X16727857Y-13357429D01*
X16742143Y-13343143D01*
X16742143Y-13371714D01*
X17042143Y-13371714D02*
X16870714Y-13371714D01*
X16956428Y-13371714D02*
X16956428Y-13071714D01*
X16927857Y-13114571D01*
X16899286Y-13143143D01*
X16870714Y-13157429D01*
X17227857Y-13071714D02*
X17256428Y-13071714D01*
X17285000Y-13086000D01*
X17299286Y-13100286D01*
X17313571Y-13128857D01*
X17327857Y-13186000D01*
X17327857Y-13257429D01*
X17313571Y-13314571D01*
X17299286Y-13343143D01*
X17285000Y-13357429D01*
X17256428Y-13371714D01*
X17227857Y-13371714D01*
X17199286Y-13357429D01*
X17185000Y-13343143D01*
X17170714Y-13314571D01*
X17156428Y-13257429D01*
X17156428Y-13186000D01*
X17170714Y-13128857D01*
X17185000Y-13100286D01*
X17199286Y-13086000D01*
X17227857Y-13071714D01*
X17456428Y-13371714D02*
X17456428Y-13171714D01*
X17456428Y-13200286D02*
X17470714Y-13186000D01*
X17499286Y-13171714D01*
X17542143Y-13171714D01*
X17570714Y-13186000D01*
X17585000Y-13214571D01*
X17585000Y-13371714D01*
X17585000Y-13214571D02*
X17599286Y-13186000D01*
X17627857Y-13171714D01*
X17670714Y-13171714D01*
X17699286Y-13186000D01*
X17713571Y-13214571D01*
X17713571Y-13371714D01*
X17856428Y-13371714D02*
X17856428Y-13171714D01*
X17856428Y-13200286D02*
X17870714Y-13186000D01*
X17899286Y-13171714D01*
X17942143Y-13171714D01*
X17970714Y-13186000D01*
X17985000Y-13214571D01*
X17985000Y-13371714D01*
X17985000Y-13214571D02*
X17999286Y-13186000D01*
X18027857Y-13171714D01*
X18070714Y-13171714D01*
X18099286Y-13186000D01*
X18113571Y-13214571D01*
X18113571Y-13371714D01*
X18699286Y-13057429D02*
X18442143Y-13443143D01*
X19085000Y-13071714D02*
X19113571Y-13071714D01*
X19142143Y-13086000D01*
X19156428Y-13100286D01*
X19170714Y-13128857D01*
X19185000Y-13186000D01*
X19185000Y-13257429D01*
X19170714Y-13314571D01*
X19156428Y-13343143D01*
X19142143Y-13357429D01*
X19113571Y-13371714D01*
X19085000Y-13371714D01*
X19056428Y-13357429D01*
X19042143Y-13343143D01*
X19027857Y-13314571D01*
X19013571Y-13257429D01*
X19013571Y-13186000D01*
X19027857Y-13128857D01*
X19042143Y-13100286D01*
X19056428Y-13086000D01*
X19085000Y-13071714D01*
X19313571Y-13343143D02*
X19327857Y-13357429D01*
X19313571Y-13371714D01*
X19299286Y-13357429D01*
X19313571Y-13343143D01*
X19313571Y-13371714D01*
X19513571Y-13071714D02*
X19542143Y-13071714D01*
X19570714Y-13086000D01*
X19585000Y-13100286D01*
X19599286Y-13128857D01*
X19613571Y-13186000D01*
X19613571Y-13257429D01*
X19599286Y-13314571D01*
X19585000Y-13343143D01*
X19570714Y-13357429D01*
X19542143Y-13371714D01*
X19513571Y-13371714D01*
X19485000Y-13357429D01*
X19470714Y-13343143D01*
X19456428Y-13314571D01*
X19442143Y-13257429D01*
X19442143Y-13186000D01*
X19456428Y-13128857D01*
X19470714Y-13100286D01*
X19485000Y-13086000D01*
X19513571Y-13071714D01*
X19870714Y-13171714D02*
X19870714Y-13371714D01*
X19799286Y-13057429D02*
X19727857Y-13271714D01*
X19913571Y-13271714D01*
X19999286Y-13071714D02*
X20185000Y-13071714D01*
X20085000Y-13186000D01*
X20127857Y-13186000D01*
X20156428Y-13200286D01*
X20170714Y-13214571D01*
X20185000Y-13243143D01*
X20185000Y-13314571D01*
X20170714Y-13343143D01*
X20156428Y-13357429D01*
X20127857Y-13371714D01*
X20042143Y-13371714D01*
X20013571Y-13357429D01*
X19999286Y-13343143D01*
X20299286Y-13071714D02*
X20299286Y-13128857D01*
X20413571Y-13071714D02*
X20413571Y-13128857D01*
X20856428Y-13486000D02*
X20842143Y-13471714D01*
X20813571Y-13428857D01*
X20799286Y-13400286D01*
X20785000Y-13357429D01*
X20770714Y-13286000D01*
X20770714Y-13228857D01*
X20785000Y-13157429D01*
X20799286Y-13114571D01*
X20813571Y-13086000D01*
X20842143Y-13043143D01*
X20856428Y-13028857D01*
X21099286Y-13171714D02*
X21099286Y-13371714D01*
X21027857Y-13057429D02*
X20956428Y-13271714D01*
X21142143Y-13271714D01*
X21485000Y-13371714D02*
X21485000Y-13071714D01*
X21613571Y-13371714D02*
X21613571Y-13214571D01*
X21599286Y-13186000D01*
X21570714Y-13171714D01*
X21527857Y-13171714D01*
X21499286Y-13186000D01*
X21485000Y-13200286D01*
X21799286Y-13371714D02*
X21770714Y-13357429D01*
X21756428Y-13343143D01*
X21742143Y-13314571D01*
X21742143Y-13228857D01*
X21756428Y-13200286D01*
X21770714Y-13186000D01*
X21799286Y-13171714D01*
X21842143Y-13171714D01*
X21870714Y-13186000D01*
X21885000Y-13200286D01*
X21899286Y-13228857D01*
X21899286Y-13314571D01*
X21885000Y-13343143D01*
X21870714Y-13357429D01*
X21842143Y-13371714D01*
X21799286Y-13371714D01*
X22070714Y-13371714D02*
X22042143Y-13357429D01*
X22027857Y-13328857D01*
X22027857Y-13071714D01*
X22299286Y-13357429D02*
X22270714Y-13371714D01*
X22213571Y-13371714D01*
X22185000Y-13357429D01*
X22170714Y-13328857D01*
X22170714Y-13214571D01*
X22185000Y-13186000D01*
X22213571Y-13171714D01*
X22270714Y-13171714D01*
X22299286Y-13186000D01*
X22313571Y-13214571D01*
X22313571Y-13243143D01*
X22170714Y-13271714D01*
X22427857Y-13357429D02*
X22456428Y-13371714D01*
X22513571Y-13371714D01*
X22542143Y-13357429D01*
X22556428Y-13328857D01*
X22556428Y-13314571D01*
X22542143Y-13286000D01*
X22513571Y-13271714D01*
X22470714Y-13271714D01*
X22442143Y-13257429D01*
X22427857Y-13228857D01*
X22427857Y-13214571D01*
X22442143Y-13186000D01*
X22470714Y-13171714D01*
X22513571Y-13171714D01*
X22542143Y-13186000D01*
X22656428Y-13486000D02*
X22670714Y-13471714D01*
X22699286Y-13428857D01*
X22713571Y-13400286D01*
X22727857Y-13357429D01*
X22742143Y-13286000D01*
X22742143Y-13228857D01*
X22727857Y-13157429D01*
X22713571Y-13114571D01*
X22699286Y-13086000D01*
X22670714Y-13043143D01*
X22656428Y-13028857D01*
X16105000Y-13567000D02*
X16105000Y-13697000D01*
X16040000Y-13632000D02*
X16170000Y-13632000D01*
X16613571Y-13767714D02*
X16442143Y-13767714D01*
X16527857Y-13767714D02*
X16527857Y-13467714D01*
X16499286Y-13510571D01*
X16470714Y-13539143D01*
X16442143Y-13553429D01*
X16742143Y-13739143D02*
X16756428Y-13753429D01*
X16742143Y-13767714D01*
X16727857Y-13753429D01*
X16742143Y-13739143D01*
X16742143Y-13767714D01*
X16856428Y-13467714D02*
X17042143Y-13467714D01*
X16942143Y-13582000D01*
X16985000Y-13582000D01*
X17013571Y-13596286D01*
X17027857Y-13610571D01*
X17042143Y-13639143D01*
X17042143Y-13710571D01*
X17027857Y-13739143D01*
X17013571Y-13753429D01*
X16985000Y-13767714D01*
X16899286Y-13767714D01*
X16870714Y-13753429D01*
X16856428Y-13739143D01*
X17227857Y-13467714D02*
X17256428Y-13467714D01*
X17285000Y-13482000D01*
X17299286Y-13496286D01*
X17313571Y-13524857D01*
X17327857Y-13582000D01*
X17327857Y-13653429D01*
X17313571Y-13710571D01*
X17299286Y-13739143D01*
X17285000Y-13753429D01*
X17256428Y-13767714D01*
X17227857Y-13767714D01*
X17199286Y-13753429D01*
X17185000Y-13739143D01*
X17170714Y-13710571D01*
X17156428Y-13653429D01*
X17156428Y-13582000D01*
X17170714Y-13524857D01*
X17185000Y-13496286D01*
X17199286Y-13482000D01*
X17227857Y-13467714D01*
X17456428Y-13767714D02*
X17456428Y-13567714D01*
X17456428Y-13596286D02*
X17470714Y-13582000D01*
X17499286Y-13567714D01*
X17542143Y-13567714D01*
X17570714Y-13582000D01*
X17585000Y-13610571D01*
X17585000Y-13767714D01*
X17585000Y-13610571D02*
X17599286Y-13582000D01*
X17627857Y-13567714D01*
X17670714Y-13567714D01*
X17699286Y-13582000D01*
X17713571Y-13610571D01*
X17713571Y-13767714D01*
X17856428Y-13767714D02*
X17856428Y-13567714D01*
X17856428Y-13596286D02*
X17870714Y-13582000D01*
X17899286Y-13567714D01*
X17942143Y-13567714D01*
X17970714Y-13582000D01*
X17985000Y-13610571D01*
X17985000Y-13767714D01*
X17985000Y-13610571D02*
X17999286Y-13582000D01*
X18027857Y-13567714D01*
X18070714Y-13567714D01*
X18099286Y-13582000D01*
X18113571Y-13610571D01*
X18113571Y-13767714D01*
X18699286Y-13453429D02*
X18442143Y-13839143D01*
X19085000Y-13467714D02*
X19113571Y-13467714D01*
X19142143Y-13482000D01*
X19156428Y-13496286D01*
X19170714Y-13524857D01*
X19185000Y-13582000D01*
X19185000Y-13653429D01*
X19170714Y-13710571D01*
X19156428Y-13739143D01*
X19142143Y-13753429D01*
X19113571Y-13767714D01*
X19085000Y-13767714D01*
X19056428Y-13753429D01*
X19042143Y-13739143D01*
X19027857Y-13710571D01*
X19013571Y-13653429D01*
X19013571Y-13582000D01*
X19027857Y-13524857D01*
X19042143Y-13496286D01*
X19056428Y-13482000D01*
X19085000Y-13467714D01*
X19313571Y-13739143D02*
X19327857Y-13753429D01*
X19313571Y-13767714D01*
X19299286Y-13753429D01*
X19313571Y-13739143D01*
X19313571Y-13767714D01*
X19513571Y-13467714D02*
X19542143Y-13467714D01*
X19570714Y-13482000D01*
X19585000Y-13496286D01*
X19599286Y-13524857D01*
X19613571Y-13582000D01*
X19613571Y-13653429D01*
X19599286Y-13710571D01*
X19585000Y-13739143D01*
X19570714Y-13753429D01*
X19542143Y-13767714D01*
X19513571Y-13767714D01*
X19485000Y-13753429D01*
X19470714Y-13739143D01*
X19456428Y-13710571D01*
X19442143Y-13653429D01*
X19442143Y-13582000D01*
X19456428Y-13524857D01*
X19470714Y-13496286D01*
X19485000Y-13482000D01*
X19513571Y-13467714D01*
X19885000Y-13467714D02*
X19742143Y-13467714D01*
X19727857Y-13610571D01*
X19742143Y-13596286D01*
X19770714Y-13582000D01*
X19842143Y-13582000D01*
X19870714Y-13596286D01*
X19885000Y-13610571D01*
X19899286Y-13639143D01*
X19899286Y-13710571D01*
X19885000Y-13739143D01*
X19870714Y-13753429D01*
X19842143Y-13767714D01*
X19770714Y-13767714D01*
X19742143Y-13753429D01*
X19727857Y-13739143D01*
X20185000Y-13767714D02*
X20013571Y-13767714D01*
X20099286Y-13767714D02*
X20099286Y-13467714D01*
X20070714Y-13510571D01*
X20042143Y-13539143D01*
X20013571Y-13553429D01*
X20299286Y-13467714D02*
X20299286Y-13524857D01*
X20413571Y-13467714D02*
X20413571Y-13524857D01*
X20856428Y-13882000D02*
X20842143Y-13867714D01*
X20813571Y-13824857D01*
X20799286Y-13796286D01*
X20785000Y-13753429D01*
X20770714Y-13682000D01*
X20770714Y-13624857D01*
X20785000Y-13553429D01*
X20799286Y-13510571D01*
X20813571Y-13482000D01*
X20842143Y-13439143D01*
X20856428Y-13424857D01*
X21099286Y-13567714D02*
X21099286Y-13767714D01*
X21027857Y-13453429D02*
X20956428Y-13667714D01*
X21142143Y-13667714D01*
X21485000Y-13767714D02*
X21485000Y-13467714D01*
X21613571Y-13767714D02*
X21613571Y-13610571D01*
X21599286Y-13582000D01*
X21570714Y-13567714D01*
X21527857Y-13567714D01*
X21499286Y-13582000D01*
X21485000Y-13596286D01*
X21799286Y-13767714D02*
X21770714Y-13753429D01*
X21756428Y-13739143D01*
X21742143Y-13710571D01*
X21742143Y-13624857D01*
X21756428Y-13596286D01*
X21770714Y-13582000D01*
X21799286Y-13567714D01*
X21842143Y-13567714D01*
X21870714Y-13582000D01*
X21885000Y-13596286D01*
X21899286Y-13624857D01*
X21899286Y-13710571D01*
X21885000Y-13739143D01*
X21870714Y-13753429D01*
X21842143Y-13767714D01*
X21799286Y-13767714D01*
X22070714Y-13767714D02*
X22042143Y-13753429D01*
X22027857Y-13724857D01*
X22027857Y-13467714D01*
X22299286Y-13753429D02*
X22270714Y-13767714D01*
X22213571Y-13767714D01*
X22185000Y-13753429D01*
X22170714Y-13724857D01*
X22170714Y-13610571D01*
X22185000Y-13582000D01*
X22213571Y-13567714D01*
X22270714Y-13567714D01*
X22299286Y-13582000D01*
X22313571Y-13610571D01*
X22313571Y-13639143D01*
X22170714Y-13667714D01*
X22427857Y-13753429D02*
X22456428Y-13767714D01*
X22513571Y-13767714D01*
X22542143Y-13753429D01*
X22556428Y-13724857D01*
X22556428Y-13710571D01*
X22542143Y-13682000D01*
X22513571Y-13667714D01*
X22470714Y-13667714D01*
X22442143Y-13653429D01*
X22427857Y-13624857D01*
X22427857Y-13610571D01*
X22442143Y-13582000D01*
X22470714Y-13567714D01*
X22513571Y-13567714D01*
X22542143Y-13582000D01*
X22656428Y-13882000D02*
X22670714Y-13867714D01*
X22699286Y-13824857D01*
X22713571Y-13796286D01*
X22727857Y-13753429D01*
X22742143Y-13682000D01*
X22742143Y-13624857D01*
X22727857Y-13553429D01*
X22713571Y-13510571D01*
X22699286Y-13482000D01*
X22670714Y-13439143D01*
X22656428Y-13424857D01*
M02*
