G04 #@! TF.GenerationSoftware,KiCad,Pcbnew,5.1.2*
G04 #@! TF.CreationDate,2019-07-22T09:17:52-04:00*
G04 #@! TF.ProjectId,siot-node-current-clamp,73696f74-2d6e-46f6-9465-2d6375727265,rev?*
G04 #@! TF.SameCoordinates,Original*
G04 #@! TF.FileFunction,Copper,L2,Bot*
G04 #@! TF.FilePolarity,Positive*
%FSLAX46Y46*%
G04 Gerber Fmt 4.6, Leading zero omitted, Abs format (unit mm)*
G04 Created by KiCad (PCBNEW 5.1.2) date 2019-07-22 09:17:52*
%MOMM*%
%LPD*%
G04 APERTURE LIST*
%ADD10O,1.000000X1.000000*%
%ADD11R,1.000000X1.000000*%
%ADD12C,0.800000*%
%ADD13C,0.250000*%
%ADD14C,0.254000*%
G04 APERTURE END LIST*
D10*
X127508000Y-61468000D03*
X127508000Y-60198000D03*
D11*
X127508000Y-58928000D03*
D10*
X119126000Y-51816000D03*
D11*
X117856000Y-51816000D03*
D10*
X108712000Y-61468000D03*
X108712000Y-60198000D03*
D11*
X108712000Y-58928000D03*
D12*
X119380000Y-67564000D03*
X122936000Y-65532000D03*
X113792000Y-65532000D03*
X125476000Y-54864000D03*
X118999000Y-59055000D03*
X117348000Y-61384000D03*
X117348000Y-63584000D03*
D13*
X117348000Y-61384000D02*
X117348000Y-63500000D01*
X117348000Y-63500000D02*
X117348000Y-63584000D01*
D14*
G36*
X116825463Y-50961506D02*
G01*
X116766498Y-51071820D01*
X116730188Y-51191518D01*
X116717928Y-51316000D01*
X116721000Y-51530250D01*
X116879750Y-51689000D01*
X117729000Y-51689000D01*
X117729000Y-51669000D01*
X117983000Y-51669000D01*
X117983000Y-51689000D01*
X117998017Y-51689000D01*
X117985509Y-51816000D01*
X117998017Y-51943000D01*
X117983000Y-51943000D01*
X117983000Y-52792250D01*
X118141750Y-52951000D01*
X118356000Y-52954072D01*
X118480482Y-52941812D01*
X118600180Y-52905502D01*
X118678379Y-52863703D01*
X118689553Y-52869676D01*
X118903501Y-52934577D01*
X119070248Y-52951000D01*
X119181752Y-52951000D01*
X119348499Y-52934577D01*
X119562447Y-52869676D01*
X119759623Y-52764284D01*
X119932449Y-52622449D01*
X120074284Y-52449623D01*
X120179676Y-52252447D01*
X120244577Y-52038499D01*
X120266491Y-51816000D01*
X120244577Y-51593501D01*
X120179676Y-51379553D01*
X120074284Y-51182377D01*
X119932449Y-51009551D01*
X119862323Y-50952000D01*
X128372001Y-50952000D01*
X128372001Y-57905265D01*
X128362494Y-57897463D01*
X128252180Y-57838498D01*
X128132482Y-57802188D01*
X128008000Y-57789928D01*
X127008000Y-57789928D01*
X126883518Y-57802188D01*
X126763820Y-57838498D01*
X126653506Y-57897463D01*
X126556815Y-57976815D01*
X126477463Y-58073506D01*
X126418498Y-58183820D01*
X126382188Y-58303518D01*
X126369928Y-58428000D01*
X126369928Y-59428000D01*
X126382188Y-59552482D01*
X126418498Y-59672180D01*
X126460297Y-59750379D01*
X126454324Y-59761553D01*
X126389423Y-59975501D01*
X126367509Y-60198000D01*
X126389423Y-60420499D01*
X126454324Y-60634447D01*
X126559716Y-60831623D01*
X126567726Y-60841383D01*
X126520877Y-60907794D01*
X126430554Y-61111136D01*
X126413881Y-61166126D01*
X126540046Y-61341000D01*
X127381000Y-61341000D01*
X127381000Y-61325983D01*
X127452248Y-61333000D01*
X127563752Y-61333000D01*
X127635000Y-61325983D01*
X127635000Y-61341000D01*
X127655000Y-61341000D01*
X127655000Y-61595000D01*
X127635000Y-61595000D01*
X127635000Y-62437129D01*
X127809876Y-62562126D01*
X128017529Y-62482210D01*
X128205601Y-62363318D01*
X128366865Y-62210020D01*
X128372000Y-62202740D01*
X128372000Y-70460000D01*
X107848000Y-70460000D01*
X107848000Y-62202741D01*
X107853135Y-62210020D01*
X108014399Y-62363318D01*
X108202471Y-62482210D01*
X108410124Y-62562126D01*
X108585000Y-62437129D01*
X108585000Y-61595000D01*
X108839000Y-61595000D01*
X108839000Y-62437129D01*
X109013876Y-62562126D01*
X109221529Y-62482210D01*
X109409601Y-62363318D01*
X109570865Y-62210020D01*
X109699123Y-62028206D01*
X109789446Y-61824864D01*
X109806119Y-61769874D01*
X109679954Y-61595000D01*
X108839000Y-61595000D01*
X108585000Y-61595000D01*
X108565000Y-61595000D01*
X108565000Y-61341000D01*
X108585000Y-61341000D01*
X108585000Y-61325983D01*
X108656248Y-61333000D01*
X108767752Y-61333000D01*
X108839000Y-61325983D01*
X108839000Y-61341000D01*
X109679954Y-61341000D01*
X109722476Y-61282061D01*
X116313000Y-61282061D01*
X116313000Y-61485939D01*
X116352774Y-61685898D01*
X116430795Y-61874256D01*
X116544063Y-62043774D01*
X116588000Y-62087711D01*
X116588001Y-62880288D01*
X116544063Y-62924226D01*
X116430795Y-63093744D01*
X116352774Y-63282102D01*
X116313000Y-63482061D01*
X116313000Y-63685939D01*
X116352774Y-63885898D01*
X116430795Y-64074256D01*
X116544063Y-64243774D01*
X116688226Y-64387937D01*
X116857744Y-64501205D01*
X117046102Y-64579226D01*
X117246061Y-64619000D01*
X117449939Y-64619000D01*
X117649898Y-64579226D01*
X117838256Y-64501205D01*
X118007774Y-64387937D01*
X118151937Y-64243774D01*
X118265205Y-64074256D01*
X118343226Y-63885898D01*
X118383000Y-63685939D01*
X118383000Y-63482061D01*
X118343226Y-63282102D01*
X118265205Y-63093744D01*
X118151937Y-62924226D01*
X118108000Y-62880289D01*
X118108000Y-62087711D01*
X118151937Y-62043774D01*
X118265205Y-61874256D01*
X118308441Y-61769874D01*
X126413881Y-61769874D01*
X126430554Y-61824864D01*
X126520877Y-62028206D01*
X126649135Y-62210020D01*
X126810399Y-62363318D01*
X126998471Y-62482210D01*
X127206124Y-62562126D01*
X127381000Y-62437129D01*
X127381000Y-61595000D01*
X126540046Y-61595000D01*
X126413881Y-61769874D01*
X118308441Y-61769874D01*
X118343226Y-61685898D01*
X118383000Y-61485939D01*
X118383000Y-61282061D01*
X118343226Y-61082102D01*
X118265205Y-60893744D01*
X118151937Y-60724226D01*
X118007774Y-60580063D01*
X117838256Y-60466795D01*
X117649898Y-60388774D01*
X117449939Y-60349000D01*
X117246061Y-60349000D01*
X117046102Y-60388774D01*
X116857744Y-60466795D01*
X116688226Y-60580063D01*
X116544063Y-60724226D01*
X116430795Y-60893744D01*
X116352774Y-61082102D01*
X116313000Y-61282061D01*
X109722476Y-61282061D01*
X109806119Y-61166126D01*
X109789446Y-61111136D01*
X109699123Y-60907794D01*
X109652274Y-60841383D01*
X109660284Y-60831623D01*
X109765676Y-60634447D01*
X109830577Y-60420499D01*
X109852491Y-60198000D01*
X109830577Y-59975501D01*
X109765676Y-59761553D01*
X109759703Y-59750379D01*
X109801502Y-59672180D01*
X109837812Y-59552482D01*
X109850072Y-59428000D01*
X109850072Y-58428000D01*
X109837812Y-58303518D01*
X109801502Y-58183820D01*
X109742537Y-58073506D01*
X109663185Y-57976815D01*
X109566494Y-57897463D01*
X109456180Y-57838498D01*
X109336482Y-57802188D01*
X109212000Y-57789928D01*
X108212000Y-57789928D01*
X108087518Y-57802188D01*
X107967820Y-57838498D01*
X107857506Y-57897463D01*
X107848000Y-57905264D01*
X107848000Y-52316000D01*
X116717928Y-52316000D01*
X116730188Y-52440482D01*
X116766498Y-52560180D01*
X116825463Y-52670494D01*
X116904815Y-52767185D01*
X117001506Y-52846537D01*
X117111820Y-52905502D01*
X117231518Y-52941812D01*
X117356000Y-52954072D01*
X117570250Y-52951000D01*
X117729000Y-52792250D01*
X117729000Y-51943000D01*
X116879750Y-51943000D01*
X116721000Y-52101750D01*
X116717928Y-52316000D01*
X107848000Y-52316000D01*
X107848000Y-50952000D01*
X116833264Y-50952000D01*
X116825463Y-50961506D01*
X116825463Y-50961506D01*
G37*
X116825463Y-50961506D02*
X116766498Y-51071820D01*
X116730188Y-51191518D01*
X116717928Y-51316000D01*
X116721000Y-51530250D01*
X116879750Y-51689000D01*
X117729000Y-51689000D01*
X117729000Y-51669000D01*
X117983000Y-51669000D01*
X117983000Y-51689000D01*
X117998017Y-51689000D01*
X117985509Y-51816000D01*
X117998017Y-51943000D01*
X117983000Y-51943000D01*
X117983000Y-52792250D01*
X118141750Y-52951000D01*
X118356000Y-52954072D01*
X118480482Y-52941812D01*
X118600180Y-52905502D01*
X118678379Y-52863703D01*
X118689553Y-52869676D01*
X118903501Y-52934577D01*
X119070248Y-52951000D01*
X119181752Y-52951000D01*
X119348499Y-52934577D01*
X119562447Y-52869676D01*
X119759623Y-52764284D01*
X119932449Y-52622449D01*
X120074284Y-52449623D01*
X120179676Y-52252447D01*
X120244577Y-52038499D01*
X120266491Y-51816000D01*
X120244577Y-51593501D01*
X120179676Y-51379553D01*
X120074284Y-51182377D01*
X119932449Y-51009551D01*
X119862323Y-50952000D01*
X128372001Y-50952000D01*
X128372001Y-57905265D01*
X128362494Y-57897463D01*
X128252180Y-57838498D01*
X128132482Y-57802188D01*
X128008000Y-57789928D01*
X127008000Y-57789928D01*
X126883518Y-57802188D01*
X126763820Y-57838498D01*
X126653506Y-57897463D01*
X126556815Y-57976815D01*
X126477463Y-58073506D01*
X126418498Y-58183820D01*
X126382188Y-58303518D01*
X126369928Y-58428000D01*
X126369928Y-59428000D01*
X126382188Y-59552482D01*
X126418498Y-59672180D01*
X126460297Y-59750379D01*
X126454324Y-59761553D01*
X126389423Y-59975501D01*
X126367509Y-60198000D01*
X126389423Y-60420499D01*
X126454324Y-60634447D01*
X126559716Y-60831623D01*
X126567726Y-60841383D01*
X126520877Y-60907794D01*
X126430554Y-61111136D01*
X126413881Y-61166126D01*
X126540046Y-61341000D01*
X127381000Y-61341000D01*
X127381000Y-61325983D01*
X127452248Y-61333000D01*
X127563752Y-61333000D01*
X127635000Y-61325983D01*
X127635000Y-61341000D01*
X127655000Y-61341000D01*
X127655000Y-61595000D01*
X127635000Y-61595000D01*
X127635000Y-62437129D01*
X127809876Y-62562126D01*
X128017529Y-62482210D01*
X128205601Y-62363318D01*
X128366865Y-62210020D01*
X128372000Y-62202740D01*
X128372000Y-70460000D01*
X107848000Y-70460000D01*
X107848000Y-62202741D01*
X107853135Y-62210020D01*
X108014399Y-62363318D01*
X108202471Y-62482210D01*
X108410124Y-62562126D01*
X108585000Y-62437129D01*
X108585000Y-61595000D01*
X108839000Y-61595000D01*
X108839000Y-62437129D01*
X109013876Y-62562126D01*
X109221529Y-62482210D01*
X109409601Y-62363318D01*
X109570865Y-62210020D01*
X109699123Y-62028206D01*
X109789446Y-61824864D01*
X109806119Y-61769874D01*
X109679954Y-61595000D01*
X108839000Y-61595000D01*
X108585000Y-61595000D01*
X108565000Y-61595000D01*
X108565000Y-61341000D01*
X108585000Y-61341000D01*
X108585000Y-61325983D01*
X108656248Y-61333000D01*
X108767752Y-61333000D01*
X108839000Y-61325983D01*
X108839000Y-61341000D01*
X109679954Y-61341000D01*
X109722476Y-61282061D01*
X116313000Y-61282061D01*
X116313000Y-61485939D01*
X116352774Y-61685898D01*
X116430795Y-61874256D01*
X116544063Y-62043774D01*
X116588000Y-62087711D01*
X116588001Y-62880288D01*
X116544063Y-62924226D01*
X116430795Y-63093744D01*
X116352774Y-63282102D01*
X116313000Y-63482061D01*
X116313000Y-63685939D01*
X116352774Y-63885898D01*
X116430795Y-64074256D01*
X116544063Y-64243774D01*
X116688226Y-64387937D01*
X116857744Y-64501205D01*
X117046102Y-64579226D01*
X117246061Y-64619000D01*
X117449939Y-64619000D01*
X117649898Y-64579226D01*
X117838256Y-64501205D01*
X118007774Y-64387937D01*
X118151937Y-64243774D01*
X118265205Y-64074256D01*
X118343226Y-63885898D01*
X118383000Y-63685939D01*
X118383000Y-63482061D01*
X118343226Y-63282102D01*
X118265205Y-63093744D01*
X118151937Y-62924226D01*
X118108000Y-62880289D01*
X118108000Y-62087711D01*
X118151937Y-62043774D01*
X118265205Y-61874256D01*
X118308441Y-61769874D01*
X126413881Y-61769874D01*
X126430554Y-61824864D01*
X126520877Y-62028206D01*
X126649135Y-62210020D01*
X126810399Y-62363318D01*
X126998471Y-62482210D01*
X127206124Y-62562126D01*
X127381000Y-62437129D01*
X127381000Y-61595000D01*
X126540046Y-61595000D01*
X126413881Y-61769874D01*
X118308441Y-61769874D01*
X118343226Y-61685898D01*
X118383000Y-61485939D01*
X118383000Y-61282061D01*
X118343226Y-61082102D01*
X118265205Y-60893744D01*
X118151937Y-60724226D01*
X118007774Y-60580063D01*
X117838256Y-60466795D01*
X117649898Y-60388774D01*
X117449939Y-60349000D01*
X117246061Y-60349000D01*
X117046102Y-60388774D01*
X116857744Y-60466795D01*
X116688226Y-60580063D01*
X116544063Y-60724226D01*
X116430795Y-60893744D01*
X116352774Y-61082102D01*
X116313000Y-61282061D01*
X109722476Y-61282061D01*
X109806119Y-61166126D01*
X109789446Y-61111136D01*
X109699123Y-60907794D01*
X109652274Y-60841383D01*
X109660284Y-60831623D01*
X109765676Y-60634447D01*
X109830577Y-60420499D01*
X109852491Y-60198000D01*
X109830577Y-59975501D01*
X109765676Y-59761553D01*
X109759703Y-59750379D01*
X109801502Y-59672180D01*
X109837812Y-59552482D01*
X109850072Y-59428000D01*
X109850072Y-58428000D01*
X109837812Y-58303518D01*
X109801502Y-58183820D01*
X109742537Y-58073506D01*
X109663185Y-57976815D01*
X109566494Y-57897463D01*
X109456180Y-57838498D01*
X109336482Y-57802188D01*
X109212000Y-57789928D01*
X108212000Y-57789928D01*
X108087518Y-57802188D01*
X107967820Y-57838498D01*
X107857506Y-57897463D01*
X107848000Y-57905264D01*
X107848000Y-52316000D01*
X116717928Y-52316000D01*
X116730188Y-52440482D01*
X116766498Y-52560180D01*
X116825463Y-52670494D01*
X116904815Y-52767185D01*
X117001506Y-52846537D01*
X117111820Y-52905502D01*
X117231518Y-52941812D01*
X117356000Y-52954072D01*
X117570250Y-52951000D01*
X117729000Y-52792250D01*
X117729000Y-51943000D01*
X116879750Y-51943000D01*
X116721000Y-52101750D01*
X116717928Y-52316000D01*
X107848000Y-52316000D01*
X107848000Y-50952000D01*
X116833264Y-50952000D01*
X116825463Y-50961506D01*
M02*
