G04 #@! TF.GenerationSoftware,KiCad,Pcbnew,5.1.4*
G04 #@! TF.CreationDate,2019-08-27T15:50:40-04:00*
G04 #@! TF.ProjectId,siot-node-current-clamp,73696f74-2d6e-46f6-9465-2d6375727265,rev?*
G04 #@! TF.SameCoordinates,Original*
G04 #@! TF.FileFunction,Soldermask,Top*
G04 #@! TF.FilePolarity,Negative*
%FSLAX46Y46*%
G04 Gerber Fmt 4.6, Leading zero omitted, Abs format (unit mm)*
G04 Created by KiCad (PCBNEW 5.1.4) date 2019-08-27 15:50:40*
%MOMM*%
%LPD*%
G04 APERTURE LIST*
%ADD10C,0.100000*%
G04 APERTURE END LIST*
D10*
G36*
X122005752Y-66673097D02*
G01*
X122186295Y-66727864D01*
X122352677Y-66816797D01*
X122498516Y-66936484D01*
X122618203Y-67082323D01*
X122707136Y-67248705D01*
X122761903Y-67429248D01*
X122781000Y-67623140D01*
X122781000Y-69786860D01*
X122761903Y-69980752D01*
X122707136Y-70161295D01*
X122618203Y-70327677D01*
X122498516Y-70473516D01*
X122352677Y-70593203D01*
X122186295Y-70682136D01*
X122005752Y-70736903D01*
X121811860Y-70756000D01*
X119648140Y-70756000D01*
X119454248Y-70736903D01*
X119273705Y-70682136D01*
X119107323Y-70593203D01*
X118961484Y-70473516D01*
X118841797Y-70327677D01*
X118752864Y-70161295D01*
X118698097Y-69980752D01*
X118679000Y-69786860D01*
X118679000Y-67623140D01*
X118698097Y-67429248D01*
X118752864Y-67248705D01*
X118841797Y-67082323D01*
X118961484Y-66936484D01*
X119107323Y-66816797D01*
X119273705Y-66727864D01*
X119454248Y-66673097D01*
X119648140Y-66654000D01*
X121811860Y-66654000D01*
X122005752Y-66673097D01*
X122005752Y-66673097D01*
G37*
G36*
X117255752Y-66673097D02*
G01*
X117436295Y-66727864D01*
X117602677Y-66816797D01*
X117748516Y-66936484D01*
X117868203Y-67082323D01*
X117957136Y-67248705D01*
X118011903Y-67429248D01*
X118031000Y-67623140D01*
X118031000Y-69786860D01*
X118011903Y-69980752D01*
X117957136Y-70161295D01*
X117868203Y-70327677D01*
X117748516Y-70473516D01*
X117602677Y-70593203D01*
X117436295Y-70682136D01*
X117255752Y-70736903D01*
X117061860Y-70756000D01*
X114898140Y-70756000D01*
X114704248Y-70736903D01*
X114523705Y-70682136D01*
X114357323Y-70593203D01*
X114211484Y-70473516D01*
X114091797Y-70327677D01*
X114002864Y-70161295D01*
X113948097Y-69980752D01*
X113929000Y-69786860D01*
X113929000Y-67623140D01*
X113948097Y-67429248D01*
X114002864Y-67248705D01*
X114091797Y-67082323D01*
X114211484Y-66936484D01*
X114357323Y-66816797D01*
X114523705Y-66727864D01*
X114704248Y-66673097D01*
X114898140Y-66654000D01*
X117061860Y-66654000D01*
X117255752Y-66673097D01*
X117255752Y-66673097D01*
G37*
G36*
X117255752Y-61673097D02*
G01*
X117436295Y-61727864D01*
X117602677Y-61816797D01*
X117748516Y-61936484D01*
X117868203Y-62082323D01*
X117957136Y-62248705D01*
X118011903Y-62429248D01*
X118031000Y-62623140D01*
X118031000Y-64786860D01*
X118011903Y-64980752D01*
X117957136Y-65161295D01*
X117868203Y-65327677D01*
X117748516Y-65473516D01*
X117602677Y-65593203D01*
X117436295Y-65682136D01*
X117255752Y-65736903D01*
X117061860Y-65756000D01*
X114898140Y-65756000D01*
X114704248Y-65736903D01*
X114523705Y-65682136D01*
X114357323Y-65593203D01*
X114211484Y-65473516D01*
X114091797Y-65327677D01*
X114002864Y-65161295D01*
X113948097Y-64980752D01*
X113929000Y-64786860D01*
X113929000Y-62623140D01*
X113948097Y-62429248D01*
X114002864Y-62248705D01*
X114091797Y-62082323D01*
X114211484Y-61936484D01*
X114357323Y-61816797D01*
X114523705Y-61727864D01*
X114704248Y-61673097D01*
X114898140Y-61654000D01*
X117061860Y-61654000D01*
X117255752Y-61673097D01*
X117255752Y-61673097D01*
G37*
G36*
X122005752Y-61673097D02*
G01*
X122186295Y-61727864D01*
X122352677Y-61816797D01*
X122498516Y-61936484D01*
X122618203Y-62082323D01*
X122707136Y-62248705D01*
X122761903Y-62429248D01*
X122781000Y-62623140D01*
X122781000Y-64786860D01*
X122761903Y-64980752D01*
X122707136Y-65161295D01*
X122618203Y-65327677D01*
X122498516Y-65473516D01*
X122352677Y-65593203D01*
X122186295Y-65682136D01*
X122005752Y-65736903D01*
X121811860Y-65756000D01*
X119648140Y-65756000D01*
X119454248Y-65736903D01*
X119273705Y-65682136D01*
X119107323Y-65593203D01*
X118961484Y-65473516D01*
X118841797Y-65327677D01*
X118752864Y-65161295D01*
X118698097Y-64980752D01*
X118679000Y-64786860D01*
X118679000Y-62623140D01*
X118698097Y-62429248D01*
X118752864Y-62248705D01*
X118841797Y-62082323D01*
X118961484Y-61936484D01*
X119107323Y-61816797D01*
X119273705Y-61727864D01*
X119454248Y-61673097D01*
X119648140Y-61654000D01*
X121811860Y-61654000D01*
X122005752Y-61673097D01*
X122005752Y-61673097D01*
G37*
G36*
X110259591Y-63333085D02*
G01*
X110293569Y-63343393D01*
X110324890Y-63360134D01*
X110352339Y-63382661D01*
X110374866Y-63410110D01*
X110391607Y-63441431D01*
X110401915Y-63475409D01*
X110406000Y-63516890D01*
X110406000Y-64193110D01*
X110401915Y-64234591D01*
X110391607Y-64268569D01*
X110374866Y-64299890D01*
X110352339Y-64327339D01*
X110324890Y-64349866D01*
X110293569Y-64366607D01*
X110259591Y-64376915D01*
X110218110Y-64381000D01*
X109616890Y-64381000D01*
X109575409Y-64376915D01*
X109541431Y-64366607D01*
X109510110Y-64349866D01*
X109482661Y-64327339D01*
X109460134Y-64299890D01*
X109443393Y-64268569D01*
X109433085Y-64234591D01*
X109429000Y-64193110D01*
X109429000Y-63516890D01*
X109433085Y-63475409D01*
X109443393Y-63441431D01*
X109460134Y-63410110D01*
X109482661Y-63382661D01*
X109510110Y-63360134D01*
X109541431Y-63343393D01*
X109575409Y-63333085D01*
X109616890Y-63329000D01*
X110218110Y-63329000D01*
X110259591Y-63333085D01*
X110259591Y-63333085D01*
G37*
G36*
X108684591Y-63333085D02*
G01*
X108718569Y-63343393D01*
X108749890Y-63360134D01*
X108777339Y-63382661D01*
X108799866Y-63410110D01*
X108816607Y-63441431D01*
X108826915Y-63475409D01*
X108831000Y-63516890D01*
X108831000Y-64193110D01*
X108826915Y-64234591D01*
X108816607Y-64268569D01*
X108799866Y-64299890D01*
X108777339Y-64327339D01*
X108749890Y-64349866D01*
X108718569Y-64366607D01*
X108684591Y-64376915D01*
X108643110Y-64381000D01*
X108041890Y-64381000D01*
X108000409Y-64376915D01*
X107966431Y-64366607D01*
X107935110Y-64349866D01*
X107907661Y-64327339D01*
X107885134Y-64299890D01*
X107868393Y-64268569D01*
X107858085Y-64234591D01*
X107854000Y-64193110D01*
X107854000Y-63516890D01*
X107858085Y-63475409D01*
X107868393Y-63441431D01*
X107885134Y-63410110D01*
X107907661Y-63382661D01*
X107935110Y-63360134D01*
X107966431Y-63343393D01*
X108000409Y-63333085D01*
X108041890Y-63329000D01*
X108643110Y-63329000D01*
X108684591Y-63333085D01*
X108684591Y-63333085D01*
G37*
G36*
X110656000Y-62626000D02*
G01*
X108004000Y-62626000D01*
X108004000Y-61304000D01*
X110656000Y-61304000D01*
X110656000Y-62626000D01*
X110656000Y-62626000D01*
G37*
G36*
X117255752Y-56673097D02*
G01*
X117436295Y-56727864D01*
X117602677Y-56816797D01*
X117748516Y-56936484D01*
X117868203Y-57082323D01*
X117957136Y-57248705D01*
X118011903Y-57429248D01*
X118031000Y-57623140D01*
X118031000Y-59786860D01*
X118011903Y-59980752D01*
X117957136Y-60161295D01*
X117868203Y-60327677D01*
X117748516Y-60473516D01*
X117602677Y-60593203D01*
X117436295Y-60682136D01*
X117255752Y-60736903D01*
X117061860Y-60756000D01*
X114898140Y-60756000D01*
X114704248Y-60736903D01*
X114523705Y-60682136D01*
X114357323Y-60593203D01*
X114211484Y-60473516D01*
X114091797Y-60327677D01*
X114002864Y-60161295D01*
X113948097Y-59980752D01*
X113929000Y-59786860D01*
X113929000Y-57623140D01*
X113948097Y-57429248D01*
X114002864Y-57248705D01*
X114091797Y-57082323D01*
X114211484Y-56936484D01*
X114357323Y-56816797D01*
X114523705Y-56727864D01*
X114704248Y-56673097D01*
X114898140Y-56654000D01*
X117061860Y-56654000D01*
X117255752Y-56673097D01*
X117255752Y-56673097D01*
G37*
G36*
X122005752Y-56673097D02*
G01*
X122186295Y-56727864D01*
X122352677Y-56816797D01*
X122498516Y-56936484D01*
X122618203Y-57082323D01*
X122707136Y-57248705D01*
X122761903Y-57429248D01*
X122781000Y-57623140D01*
X122781000Y-59786860D01*
X122761903Y-59980752D01*
X122707136Y-60161295D01*
X122618203Y-60327677D01*
X122498516Y-60473516D01*
X122352677Y-60593203D01*
X122186295Y-60682136D01*
X122005752Y-60736903D01*
X121811860Y-60756000D01*
X119648140Y-60756000D01*
X119454248Y-60736903D01*
X119273705Y-60682136D01*
X119107323Y-60593203D01*
X118961484Y-60473516D01*
X118841797Y-60327677D01*
X118752864Y-60161295D01*
X118698097Y-59980752D01*
X118679000Y-59786860D01*
X118679000Y-57623140D01*
X118698097Y-57429248D01*
X118752864Y-57248705D01*
X118841797Y-57082323D01*
X118961484Y-56936484D01*
X119107323Y-56816797D01*
X119273705Y-56727864D01*
X119454248Y-56673097D01*
X119648140Y-56654000D01*
X121811860Y-56654000D01*
X122005752Y-56673097D01*
X122005752Y-56673097D01*
G37*
G36*
X110656000Y-60006000D02*
G01*
X109904000Y-60006000D01*
X109904000Y-58684000D01*
X110656000Y-58684000D01*
X110656000Y-60006000D01*
X110656000Y-60006000D01*
G37*
G36*
X108756000Y-60006000D02*
G01*
X108004000Y-60006000D01*
X108004000Y-58684000D01*
X108756000Y-58684000D01*
X108756000Y-60006000D01*
X108756000Y-60006000D01*
G37*
G36*
X125884591Y-56933085D02*
G01*
X125918569Y-56943393D01*
X125949890Y-56960134D01*
X125977339Y-56982661D01*
X125999866Y-57010110D01*
X126016607Y-57041431D01*
X126026915Y-57075409D01*
X126031000Y-57116890D01*
X126031000Y-57793110D01*
X126026915Y-57834591D01*
X126016607Y-57868569D01*
X125999866Y-57899890D01*
X125977339Y-57927339D01*
X125949890Y-57949866D01*
X125918569Y-57966607D01*
X125884591Y-57976915D01*
X125843110Y-57981000D01*
X125241890Y-57981000D01*
X125200409Y-57976915D01*
X125166431Y-57966607D01*
X125135110Y-57949866D01*
X125107661Y-57927339D01*
X125085134Y-57899890D01*
X125068393Y-57868569D01*
X125058085Y-57834591D01*
X125054000Y-57793110D01*
X125054000Y-57116890D01*
X125058085Y-57075409D01*
X125068393Y-57041431D01*
X125085134Y-57010110D01*
X125107661Y-56982661D01*
X125135110Y-56960134D01*
X125166431Y-56943393D01*
X125200409Y-56933085D01*
X125241890Y-56929000D01*
X125843110Y-56929000D01*
X125884591Y-56933085D01*
X125884591Y-56933085D01*
G37*
G36*
X127459591Y-56933085D02*
G01*
X127493569Y-56943393D01*
X127524890Y-56960134D01*
X127552339Y-56982661D01*
X127574866Y-57010110D01*
X127591607Y-57041431D01*
X127601915Y-57075409D01*
X127606000Y-57116890D01*
X127606000Y-57793110D01*
X127601915Y-57834591D01*
X127591607Y-57868569D01*
X127574866Y-57899890D01*
X127552339Y-57927339D01*
X127524890Y-57949866D01*
X127493569Y-57966607D01*
X127459591Y-57976915D01*
X127418110Y-57981000D01*
X126816890Y-57981000D01*
X126775409Y-57976915D01*
X126741431Y-57966607D01*
X126710110Y-57949866D01*
X126682661Y-57927339D01*
X126660134Y-57899890D01*
X126643393Y-57868569D01*
X126633085Y-57834591D01*
X126629000Y-57793110D01*
X126629000Y-57116890D01*
X126633085Y-57075409D01*
X126643393Y-57041431D01*
X126660134Y-57010110D01*
X126682661Y-56982661D01*
X126710110Y-56960134D01*
X126741431Y-56943393D01*
X126775409Y-56933085D01*
X126816890Y-56929000D01*
X127418110Y-56929000D01*
X127459591Y-56933085D01*
X127459591Y-56933085D01*
G37*
G36*
X111309591Y-55370585D02*
G01*
X111343569Y-55380893D01*
X111374890Y-55397634D01*
X111402339Y-55420161D01*
X111424866Y-55447610D01*
X111441607Y-55478931D01*
X111451915Y-55512909D01*
X111456000Y-55554390D01*
X111456000Y-56155610D01*
X111451915Y-56197091D01*
X111441607Y-56231069D01*
X111424866Y-56262390D01*
X111402339Y-56289839D01*
X111374890Y-56312366D01*
X111343569Y-56329107D01*
X111309591Y-56339415D01*
X111268110Y-56343500D01*
X110591890Y-56343500D01*
X110550409Y-56339415D01*
X110516431Y-56329107D01*
X110485110Y-56312366D01*
X110457661Y-56289839D01*
X110435134Y-56262390D01*
X110418393Y-56231069D01*
X110408085Y-56197091D01*
X110404000Y-56155610D01*
X110404000Y-55554390D01*
X110408085Y-55512909D01*
X110418393Y-55478931D01*
X110435134Y-55447610D01*
X110457661Y-55420161D01*
X110485110Y-55397634D01*
X110516431Y-55380893D01*
X110550409Y-55370585D01*
X110591890Y-55366500D01*
X111268110Y-55366500D01*
X111309591Y-55370585D01*
X111309591Y-55370585D01*
G37*
G36*
X128389928Y-55361764D02*
G01*
X128411009Y-55368160D01*
X128430445Y-55378548D01*
X128447476Y-55392524D01*
X128461452Y-55409555D01*
X128471840Y-55428991D01*
X128478236Y-55450072D01*
X128481000Y-55478140D01*
X128481000Y-55941860D01*
X128478236Y-55969928D01*
X128471840Y-55991009D01*
X128461452Y-56010445D01*
X128447476Y-56027476D01*
X128430445Y-56041452D01*
X128411009Y-56051840D01*
X128389928Y-56058236D01*
X128361860Y-56061000D01*
X126548140Y-56061000D01*
X126520072Y-56058236D01*
X126498991Y-56051840D01*
X126479555Y-56041452D01*
X126462524Y-56027476D01*
X126448548Y-56010445D01*
X126438160Y-55991009D01*
X126431764Y-55969928D01*
X126429000Y-55941860D01*
X126429000Y-55478140D01*
X126431764Y-55450072D01*
X126438160Y-55428991D01*
X126448548Y-55409555D01*
X126462524Y-55392524D01*
X126479555Y-55378548D01*
X126498991Y-55368160D01*
X126520072Y-55361764D01*
X126548140Y-55359000D01*
X128361860Y-55359000D01*
X128389928Y-55361764D01*
X128389928Y-55361764D01*
G37*
G36*
X123439928Y-55361764D02*
G01*
X123461009Y-55368160D01*
X123480445Y-55378548D01*
X123497476Y-55392524D01*
X123511452Y-55409555D01*
X123521840Y-55428991D01*
X123528236Y-55450072D01*
X123531000Y-55478140D01*
X123531000Y-55941860D01*
X123528236Y-55969928D01*
X123521840Y-55991009D01*
X123511452Y-56010445D01*
X123497476Y-56027476D01*
X123480445Y-56041452D01*
X123461009Y-56051840D01*
X123439928Y-56058236D01*
X123411860Y-56061000D01*
X121598140Y-56061000D01*
X121570072Y-56058236D01*
X121548991Y-56051840D01*
X121529555Y-56041452D01*
X121512524Y-56027476D01*
X121498548Y-56010445D01*
X121488160Y-55991009D01*
X121481764Y-55969928D01*
X121479000Y-55941860D01*
X121479000Y-55478140D01*
X121481764Y-55450072D01*
X121488160Y-55428991D01*
X121498548Y-55409555D01*
X121512524Y-55392524D01*
X121529555Y-55378548D01*
X121548991Y-55368160D01*
X121570072Y-55361764D01*
X121598140Y-55359000D01*
X123411860Y-55359000D01*
X123439928Y-55361764D01*
X123439928Y-55361764D01*
G37*
G36*
X120206979Y-52718293D02*
G01*
X120340625Y-52758834D01*
X120463784Y-52824664D01*
X120571740Y-52913260D01*
X120660336Y-53021216D01*
X120726166Y-53144375D01*
X120766707Y-53278021D01*
X120781000Y-53423140D01*
X120781000Y-55086860D01*
X120766707Y-55231979D01*
X120726166Y-55365625D01*
X120660336Y-55488784D01*
X120571740Y-55596740D01*
X120463784Y-55685336D01*
X120340625Y-55751166D01*
X120206979Y-55791707D01*
X120061860Y-55806000D01*
X118398140Y-55806000D01*
X118253021Y-55791707D01*
X118119375Y-55751166D01*
X117996216Y-55685336D01*
X117888260Y-55596740D01*
X117799664Y-55488784D01*
X117733834Y-55365625D01*
X117693293Y-55231979D01*
X117679000Y-55086860D01*
X117679000Y-53423140D01*
X117693293Y-53278021D01*
X117733834Y-53144375D01*
X117799664Y-53021216D01*
X117888260Y-52913260D01*
X117996216Y-52824664D01*
X118119375Y-52758834D01*
X118253021Y-52718293D01*
X118398140Y-52704000D01*
X120061860Y-52704000D01*
X120206979Y-52718293D01*
X120206979Y-52718293D01*
G37*
G36*
X116706979Y-52718293D02*
G01*
X116840625Y-52758834D01*
X116963784Y-52824664D01*
X117071740Y-52913260D01*
X117160336Y-53021216D01*
X117226166Y-53144375D01*
X117266707Y-53278021D01*
X117281000Y-53423140D01*
X117281000Y-55086860D01*
X117266707Y-55231979D01*
X117226166Y-55365625D01*
X117160336Y-55488784D01*
X117071740Y-55596740D01*
X116963784Y-55685336D01*
X116840625Y-55751166D01*
X116706979Y-55791707D01*
X116561860Y-55806000D01*
X114898140Y-55806000D01*
X114753021Y-55791707D01*
X114619375Y-55751166D01*
X114496216Y-55685336D01*
X114388260Y-55596740D01*
X114299664Y-55488784D01*
X114233834Y-55365625D01*
X114193293Y-55231979D01*
X114179000Y-55086860D01*
X114179000Y-53423140D01*
X114193293Y-53278021D01*
X114233834Y-53144375D01*
X114299664Y-53021216D01*
X114388260Y-52913260D01*
X114496216Y-52824664D01*
X114619375Y-52758834D01*
X114753021Y-52718293D01*
X114898140Y-52704000D01*
X116561860Y-52704000D01*
X116706979Y-52718293D01*
X116706979Y-52718293D01*
G37*
G36*
X128389928Y-54091764D02*
G01*
X128411009Y-54098160D01*
X128430445Y-54108548D01*
X128447476Y-54122524D01*
X128461452Y-54139555D01*
X128471840Y-54158991D01*
X128478236Y-54180072D01*
X128481000Y-54208140D01*
X128481000Y-54671860D01*
X128478236Y-54699928D01*
X128471840Y-54721009D01*
X128461452Y-54740445D01*
X128447476Y-54757476D01*
X128430445Y-54771452D01*
X128411009Y-54781840D01*
X128389928Y-54788236D01*
X128361860Y-54791000D01*
X126548140Y-54791000D01*
X126520072Y-54788236D01*
X126498991Y-54781840D01*
X126479555Y-54771452D01*
X126462524Y-54757476D01*
X126448548Y-54740445D01*
X126438160Y-54721009D01*
X126431764Y-54699928D01*
X126429000Y-54671860D01*
X126429000Y-54208140D01*
X126431764Y-54180072D01*
X126438160Y-54158991D01*
X126448548Y-54139555D01*
X126462524Y-54122524D01*
X126479555Y-54108548D01*
X126498991Y-54098160D01*
X126520072Y-54091764D01*
X126548140Y-54089000D01*
X128361860Y-54089000D01*
X128389928Y-54091764D01*
X128389928Y-54091764D01*
G37*
G36*
X123439928Y-54091764D02*
G01*
X123461009Y-54098160D01*
X123480445Y-54108548D01*
X123497476Y-54122524D01*
X123511452Y-54139555D01*
X123521840Y-54158991D01*
X123528236Y-54180072D01*
X123531000Y-54208140D01*
X123531000Y-54671860D01*
X123528236Y-54699928D01*
X123521840Y-54721009D01*
X123511452Y-54740445D01*
X123497476Y-54757476D01*
X123480445Y-54771452D01*
X123461009Y-54781840D01*
X123439928Y-54788236D01*
X123411860Y-54791000D01*
X121598140Y-54791000D01*
X121570072Y-54788236D01*
X121548991Y-54781840D01*
X121529555Y-54771452D01*
X121512524Y-54757476D01*
X121498548Y-54740445D01*
X121488160Y-54721009D01*
X121481764Y-54699928D01*
X121479000Y-54671860D01*
X121479000Y-54208140D01*
X121481764Y-54180072D01*
X121488160Y-54158991D01*
X121498548Y-54139555D01*
X121512524Y-54122524D01*
X121529555Y-54108548D01*
X121548991Y-54098160D01*
X121570072Y-54091764D01*
X121598140Y-54089000D01*
X123411860Y-54089000D01*
X123439928Y-54091764D01*
X123439928Y-54091764D01*
G37*
G36*
X111309591Y-53795585D02*
G01*
X111343569Y-53805893D01*
X111374890Y-53822634D01*
X111402339Y-53845161D01*
X111424866Y-53872610D01*
X111441607Y-53903931D01*
X111451915Y-53937909D01*
X111456000Y-53979390D01*
X111456000Y-54580610D01*
X111451915Y-54622091D01*
X111441607Y-54656069D01*
X111424866Y-54687390D01*
X111402339Y-54714839D01*
X111374890Y-54737366D01*
X111343569Y-54754107D01*
X111309591Y-54764415D01*
X111268110Y-54768500D01*
X110591890Y-54768500D01*
X110550409Y-54764415D01*
X110516431Y-54754107D01*
X110485110Y-54737366D01*
X110457661Y-54714839D01*
X110435134Y-54687390D01*
X110418393Y-54656069D01*
X110408085Y-54622091D01*
X110404000Y-54580610D01*
X110404000Y-53979390D01*
X110408085Y-53937909D01*
X110418393Y-53903931D01*
X110435134Y-53872610D01*
X110457661Y-53845161D01*
X110485110Y-53822634D01*
X110516431Y-53805893D01*
X110550409Y-53795585D01*
X110591890Y-53791500D01*
X111268110Y-53791500D01*
X111309591Y-53795585D01*
X111309591Y-53795585D01*
G37*
G36*
X128389928Y-52821764D02*
G01*
X128411009Y-52828160D01*
X128430445Y-52838548D01*
X128447476Y-52852524D01*
X128461452Y-52869555D01*
X128471840Y-52888991D01*
X128478236Y-52910072D01*
X128481000Y-52938140D01*
X128481000Y-53401860D01*
X128478236Y-53429928D01*
X128471840Y-53451009D01*
X128461452Y-53470445D01*
X128447476Y-53487476D01*
X128430445Y-53501452D01*
X128411009Y-53511840D01*
X128389928Y-53518236D01*
X128361860Y-53521000D01*
X126548140Y-53521000D01*
X126520072Y-53518236D01*
X126498991Y-53511840D01*
X126479555Y-53501452D01*
X126462524Y-53487476D01*
X126448548Y-53470445D01*
X126438160Y-53451009D01*
X126431764Y-53429928D01*
X126429000Y-53401860D01*
X126429000Y-52938140D01*
X126431764Y-52910072D01*
X126438160Y-52888991D01*
X126448548Y-52869555D01*
X126462524Y-52852524D01*
X126479555Y-52838548D01*
X126498991Y-52828160D01*
X126520072Y-52821764D01*
X126548140Y-52819000D01*
X128361860Y-52819000D01*
X128389928Y-52821764D01*
X128389928Y-52821764D01*
G37*
G36*
X123439928Y-52821764D02*
G01*
X123461009Y-52828160D01*
X123480445Y-52838548D01*
X123497476Y-52852524D01*
X123511452Y-52869555D01*
X123521840Y-52888991D01*
X123528236Y-52910072D01*
X123531000Y-52938140D01*
X123531000Y-53401860D01*
X123528236Y-53429928D01*
X123521840Y-53451009D01*
X123511452Y-53470445D01*
X123497476Y-53487476D01*
X123480445Y-53501452D01*
X123461009Y-53511840D01*
X123439928Y-53518236D01*
X123411860Y-53521000D01*
X121598140Y-53521000D01*
X121570072Y-53518236D01*
X121548991Y-53511840D01*
X121529555Y-53501452D01*
X121512524Y-53487476D01*
X121498548Y-53470445D01*
X121488160Y-53451009D01*
X121481764Y-53429928D01*
X121479000Y-53401860D01*
X121479000Y-52938140D01*
X121481764Y-52910072D01*
X121488160Y-52888991D01*
X121498548Y-52869555D01*
X121512524Y-52852524D01*
X121529555Y-52838548D01*
X121548991Y-52828160D01*
X121570072Y-52821764D01*
X121598140Y-52819000D01*
X123411860Y-52819000D01*
X123439928Y-52821764D01*
X123439928Y-52821764D01*
G37*
G36*
X112847091Y-52133085D02*
G01*
X112881069Y-52143393D01*
X112912390Y-52160134D01*
X112939839Y-52182661D01*
X112962366Y-52210110D01*
X112979107Y-52241431D01*
X112989415Y-52275409D01*
X112993500Y-52316890D01*
X112993500Y-52993110D01*
X112989415Y-53034591D01*
X112979107Y-53068569D01*
X112962366Y-53099890D01*
X112939839Y-53127339D01*
X112912390Y-53149866D01*
X112881069Y-53166607D01*
X112847091Y-53176915D01*
X112805610Y-53181000D01*
X112204390Y-53181000D01*
X112162909Y-53176915D01*
X112128931Y-53166607D01*
X112097610Y-53149866D01*
X112070161Y-53127339D01*
X112047634Y-53099890D01*
X112030893Y-53068569D01*
X112020585Y-53034591D01*
X112016500Y-52993110D01*
X112016500Y-52316890D01*
X112020585Y-52275409D01*
X112030893Y-52241431D01*
X112047634Y-52210110D01*
X112070161Y-52182661D01*
X112097610Y-52160134D01*
X112128931Y-52143393D01*
X112162909Y-52133085D01*
X112204390Y-52129000D01*
X112805610Y-52129000D01*
X112847091Y-52133085D01*
X112847091Y-52133085D01*
G37*
G36*
X111272091Y-52133085D02*
G01*
X111306069Y-52143393D01*
X111337390Y-52160134D01*
X111364839Y-52182661D01*
X111387366Y-52210110D01*
X111404107Y-52241431D01*
X111414415Y-52275409D01*
X111418500Y-52316890D01*
X111418500Y-52993110D01*
X111414415Y-53034591D01*
X111404107Y-53068569D01*
X111387366Y-53099890D01*
X111364839Y-53127339D01*
X111337390Y-53149866D01*
X111306069Y-53166607D01*
X111272091Y-53176915D01*
X111230610Y-53181000D01*
X110629390Y-53181000D01*
X110587909Y-53176915D01*
X110553931Y-53166607D01*
X110522610Y-53149866D01*
X110495161Y-53127339D01*
X110472634Y-53099890D01*
X110455893Y-53068569D01*
X110445585Y-53034591D01*
X110441500Y-52993110D01*
X110441500Y-52316890D01*
X110445585Y-52275409D01*
X110455893Y-52241431D01*
X110472634Y-52210110D01*
X110495161Y-52182661D01*
X110522610Y-52160134D01*
X110553931Y-52143393D01*
X110587909Y-52133085D01*
X110629390Y-52129000D01*
X111230610Y-52129000D01*
X111272091Y-52133085D01*
X111272091Y-52133085D01*
G37*
G36*
X123439928Y-51551764D02*
G01*
X123461009Y-51558160D01*
X123480445Y-51568548D01*
X123497476Y-51582524D01*
X123511452Y-51599555D01*
X123521840Y-51618991D01*
X123528236Y-51640072D01*
X123531000Y-51668140D01*
X123531000Y-52131860D01*
X123528236Y-52159928D01*
X123521840Y-52181009D01*
X123511452Y-52200445D01*
X123497476Y-52217476D01*
X123480445Y-52231452D01*
X123461009Y-52241840D01*
X123439928Y-52248236D01*
X123411860Y-52251000D01*
X121598140Y-52251000D01*
X121570072Y-52248236D01*
X121548991Y-52241840D01*
X121529555Y-52231452D01*
X121512524Y-52217476D01*
X121498548Y-52200445D01*
X121488160Y-52181009D01*
X121481764Y-52159928D01*
X121479000Y-52131860D01*
X121479000Y-51668140D01*
X121481764Y-51640072D01*
X121488160Y-51618991D01*
X121498548Y-51599555D01*
X121512524Y-51582524D01*
X121529555Y-51568548D01*
X121548991Y-51558160D01*
X121570072Y-51551764D01*
X121598140Y-51549000D01*
X123411860Y-51549000D01*
X123439928Y-51551764D01*
X123439928Y-51551764D01*
G37*
G36*
X128389928Y-51551764D02*
G01*
X128411009Y-51558160D01*
X128430445Y-51568548D01*
X128447476Y-51582524D01*
X128461452Y-51599555D01*
X128471840Y-51618991D01*
X128478236Y-51640072D01*
X128481000Y-51668140D01*
X128481000Y-52131860D01*
X128478236Y-52159928D01*
X128471840Y-52181009D01*
X128461452Y-52200445D01*
X128447476Y-52217476D01*
X128430445Y-52231452D01*
X128411009Y-52241840D01*
X128389928Y-52248236D01*
X128361860Y-52251000D01*
X126548140Y-52251000D01*
X126520072Y-52248236D01*
X126498991Y-52241840D01*
X126479555Y-52231452D01*
X126462524Y-52217476D01*
X126448548Y-52200445D01*
X126438160Y-52181009D01*
X126431764Y-52159928D01*
X126429000Y-52131860D01*
X126429000Y-51668140D01*
X126431764Y-51640072D01*
X126438160Y-51618991D01*
X126448548Y-51599555D01*
X126462524Y-51582524D01*
X126479555Y-51568548D01*
X126498991Y-51558160D01*
X126520072Y-51551764D01*
X126548140Y-51549000D01*
X128361860Y-51549000D01*
X128389928Y-51551764D01*
X128389928Y-51551764D01*
G37*
M02*
