G04 #@! TF.GenerationSoftware,KiCad,Pcbnew,5.1.2*
G04 #@! TF.CreationDate,2019-07-22T09:17:52-04:00*
G04 #@! TF.ProjectId,siot-node-current-clamp,73696f74-2d6e-46f6-9465-2d6375727265,rev?*
G04 #@! TF.SameCoordinates,Original*
G04 #@! TF.FileFunction,Soldermask,Top*
G04 #@! TF.FilePolarity,Negative*
%FSLAX46Y46*%
G04 Gerber Fmt 4.6, Leading zero omitted, Abs format (unit mm)*
G04 Created by KiCad (PCBNEW 5.1.2) date 2019-07-22 09:17:52*
%MOMM*%
%LPD*%
G04 APERTURE LIST*
%ADD10C,0.100000*%
G04 APERTURE END LIST*
D10*
G36*
X121773928Y-68104764D02*
G01*
X121795009Y-68111160D01*
X121814445Y-68121548D01*
X121831476Y-68135524D01*
X121845452Y-68152555D01*
X121855840Y-68171991D01*
X121862236Y-68193072D01*
X121865000Y-68221140D01*
X121865000Y-68684860D01*
X121862236Y-68712928D01*
X121855840Y-68734009D01*
X121845452Y-68753445D01*
X121831476Y-68770476D01*
X121814445Y-68784452D01*
X121795009Y-68794840D01*
X121773928Y-68801236D01*
X121745860Y-68804000D01*
X119932140Y-68804000D01*
X119904072Y-68801236D01*
X119882991Y-68794840D01*
X119863555Y-68784452D01*
X119846524Y-68770476D01*
X119832548Y-68753445D01*
X119822160Y-68734009D01*
X119815764Y-68712928D01*
X119813000Y-68684860D01*
X119813000Y-68221140D01*
X119815764Y-68193072D01*
X119822160Y-68171991D01*
X119832548Y-68152555D01*
X119846524Y-68135524D01*
X119863555Y-68121548D01*
X119882991Y-68111160D01*
X119904072Y-68104764D01*
X119932140Y-68102000D01*
X121745860Y-68102000D01*
X121773928Y-68104764D01*
X121773928Y-68104764D01*
G37*
G36*
X116823928Y-68104764D02*
G01*
X116845009Y-68111160D01*
X116864445Y-68121548D01*
X116881476Y-68135524D01*
X116895452Y-68152555D01*
X116905840Y-68171991D01*
X116912236Y-68193072D01*
X116915000Y-68221140D01*
X116915000Y-68684860D01*
X116912236Y-68712928D01*
X116905840Y-68734009D01*
X116895452Y-68753445D01*
X116881476Y-68770476D01*
X116864445Y-68784452D01*
X116845009Y-68794840D01*
X116823928Y-68801236D01*
X116795860Y-68804000D01*
X114982140Y-68804000D01*
X114954072Y-68801236D01*
X114932991Y-68794840D01*
X114913555Y-68784452D01*
X114896524Y-68770476D01*
X114882548Y-68753445D01*
X114872160Y-68734009D01*
X114865764Y-68712928D01*
X114863000Y-68684860D01*
X114863000Y-68221140D01*
X114865764Y-68193072D01*
X114872160Y-68171991D01*
X114882548Y-68152555D01*
X114896524Y-68135524D01*
X114913555Y-68121548D01*
X114932991Y-68111160D01*
X114954072Y-68104764D01*
X114982140Y-68102000D01*
X116795860Y-68102000D01*
X116823928Y-68104764D01*
X116823928Y-68104764D01*
G37*
G36*
X124839591Y-67638585D02*
G01*
X124873569Y-67648893D01*
X124904890Y-67665634D01*
X124932339Y-67688161D01*
X124954866Y-67715610D01*
X124971607Y-67746931D01*
X124981915Y-67780909D01*
X124986000Y-67822390D01*
X124986000Y-68423610D01*
X124981915Y-68465091D01*
X124971607Y-68499069D01*
X124954866Y-68530390D01*
X124932339Y-68557839D01*
X124904890Y-68580366D01*
X124873569Y-68597107D01*
X124839591Y-68607415D01*
X124798110Y-68611500D01*
X124121890Y-68611500D01*
X124080409Y-68607415D01*
X124046431Y-68597107D01*
X124015110Y-68580366D01*
X123987661Y-68557839D01*
X123965134Y-68530390D01*
X123948393Y-68499069D01*
X123938085Y-68465091D01*
X123934000Y-68423610D01*
X123934000Y-67822390D01*
X123938085Y-67780909D01*
X123948393Y-67746931D01*
X123965134Y-67715610D01*
X123987661Y-67688161D01*
X124015110Y-67665634D01*
X124046431Y-67648893D01*
X124080409Y-67638585D01*
X124121890Y-67634500D01*
X124798110Y-67634500D01*
X124839591Y-67638585D01*
X124839591Y-67638585D01*
G37*
G36*
X113155591Y-67638585D02*
G01*
X113189569Y-67648893D01*
X113220890Y-67665634D01*
X113248339Y-67688161D01*
X113270866Y-67715610D01*
X113287607Y-67746931D01*
X113297915Y-67780909D01*
X113302000Y-67822390D01*
X113302000Y-68423610D01*
X113297915Y-68465091D01*
X113287607Y-68499069D01*
X113270866Y-68530390D01*
X113248339Y-68557839D01*
X113220890Y-68580366D01*
X113189569Y-68597107D01*
X113155591Y-68607415D01*
X113114110Y-68611500D01*
X112437890Y-68611500D01*
X112396409Y-68607415D01*
X112362431Y-68597107D01*
X112331110Y-68580366D01*
X112303661Y-68557839D01*
X112281134Y-68530390D01*
X112264393Y-68499069D01*
X112254085Y-68465091D01*
X112250000Y-68423610D01*
X112250000Y-67822390D01*
X112254085Y-67780909D01*
X112264393Y-67746931D01*
X112281134Y-67715610D01*
X112303661Y-67688161D01*
X112331110Y-67665634D01*
X112362431Y-67648893D01*
X112396409Y-67638585D01*
X112437890Y-67634500D01*
X113114110Y-67634500D01*
X113155591Y-67638585D01*
X113155591Y-67638585D01*
G37*
G36*
X121773928Y-66834764D02*
G01*
X121795009Y-66841160D01*
X121814445Y-66851548D01*
X121831476Y-66865524D01*
X121845452Y-66882555D01*
X121855840Y-66901991D01*
X121862236Y-66923072D01*
X121865000Y-66951140D01*
X121865000Y-67414860D01*
X121862236Y-67442928D01*
X121855840Y-67464009D01*
X121845452Y-67483445D01*
X121831476Y-67500476D01*
X121814445Y-67514452D01*
X121795009Y-67524840D01*
X121773928Y-67531236D01*
X121745860Y-67534000D01*
X119932140Y-67534000D01*
X119904072Y-67531236D01*
X119882991Y-67524840D01*
X119863555Y-67514452D01*
X119846524Y-67500476D01*
X119832548Y-67483445D01*
X119822160Y-67464009D01*
X119815764Y-67442928D01*
X119813000Y-67414860D01*
X119813000Y-66951140D01*
X119815764Y-66923072D01*
X119822160Y-66901991D01*
X119832548Y-66882555D01*
X119846524Y-66865524D01*
X119863555Y-66851548D01*
X119882991Y-66841160D01*
X119904072Y-66834764D01*
X119932140Y-66832000D01*
X121745860Y-66832000D01*
X121773928Y-66834764D01*
X121773928Y-66834764D01*
G37*
G36*
X116823928Y-66834764D02*
G01*
X116845009Y-66841160D01*
X116864445Y-66851548D01*
X116881476Y-66865524D01*
X116895452Y-66882555D01*
X116905840Y-66901991D01*
X116912236Y-66923072D01*
X116915000Y-66951140D01*
X116915000Y-67414860D01*
X116912236Y-67442928D01*
X116905840Y-67464009D01*
X116895452Y-67483445D01*
X116881476Y-67500476D01*
X116864445Y-67514452D01*
X116845009Y-67524840D01*
X116823928Y-67531236D01*
X116795860Y-67534000D01*
X114982140Y-67534000D01*
X114954072Y-67531236D01*
X114932991Y-67524840D01*
X114913555Y-67514452D01*
X114896524Y-67500476D01*
X114882548Y-67483445D01*
X114872160Y-67464009D01*
X114865764Y-67442928D01*
X114863000Y-67414860D01*
X114863000Y-66951140D01*
X114865764Y-66923072D01*
X114872160Y-66901991D01*
X114882548Y-66882555D01*
X114896524Y-66865524D01*
X114913555Y-66851548D01*
X114932991Y-66841160D01*
X114954072Y-66834764D01*
X114982140Y-66832000D01*
X116795860Y-66832000D01*
X116823928Y-66834764D01*
X116823928Y-66834764D01*
G37*
G36*
X113155591Y-66063585D02*
G01*
X113189569Y-66073893D01*
X113220890Y-66090634D01*
X113248339Y-66113161D01*
X113270866Y-66140610D01*
X113287607Y-66171931D01*
X113297915Y-66205909D01*
X113302000Y-66247390D01*
X113302000Y-66848610D01*
X113297915Y-66890091D01*
X113287607Y-66924069D01*
X113270866Y-66955390D01*
X113248339Y-66982839D01*
X113220890Y-67005366D01*
X113189569Y-67022107D01*
X113155591Y-67032415D01*
X113114110Y-67036500D01*
X112437890Y-67036500D01*
X112396409Y-67032415D01*
X112362431Y-67022107D01*
X112331110Y-67005366D01*
X112303661Y-66982839D01*
X112281134Y-66955390D01*
X112264393Y-66924069D01*
X112254085Y-66890091D01*
X112250000Y-66848610D01*
X112250000Y-66247390D01*
X112254085Y-66205909D01*
X112264393Y-66171931D01*
X112281134Y-66140610D01*
X112303661Y-66113161D01*
X112331110Y-66090634D01*
X112362431Y-66073893D01*
X112396409Y-66063585D01*
X112437890Y-66059500D01*
X113114110Y-66059500D01*
X113155591Y-66063585D01*
X113155591Y-66063585D01*
G37*
G36*
X124839591Y-66063585D02*
G01*
X124873569Y-66073893D01*
X124904890Y-66090634D01*
X124932339Y-66113161D01*
X124954866Y-66140610D01*
X124971607Y-66171931D01*
X124981915Y-66205909D01*
X124986000Y-66247390D01*
X124986000Y-66848610D01*
X124981915Y-66890091D01*
X124971607Y-66924069D01*
X124954866Y-66955390D01*
X124932339Y-66982839D01*
X124904890Y-67005366D01*
X124873569Y-67022107D01*
X124839591Y-67032415D01*
X124798110Y-67036500D01*
X124121890Y-67036500D01*
X124080409Y-67032415D01*
X124046431Y-67022107D01*
X124015110Y-67005366D01*
X123987661Y-66982839D01*
X123965134Y-66955390D01*
X123948393Y-66924069D01*
X123938085Y-66890091D01*
X123934000Y-66848610D01*
X123934000Y-66247390D01*
X123938085Y-66205909D01*
X123948393Y-66171931D01*
X123965134Y-66140610D01*
X123987661Y-66113161D01*
X124015110Y-66090634D01*
X124046431Y-66073893D01*
X124080409Y-66063585D01*
X124121890Y-66059500D01*
X124798110Y-66059500D01*
X124839591Y-66063585D01*
X124839591Y-66063585D01*
G37*
G36*
X116823928Y-65564764D02*
G01*
X116845009Y-65571160D01*
X116864445Y-65581548D01*
X116881476Y-65595524D01*
X116895452Y-65612555D01*
X116905840Y-65631991D01*
X116912236Y-65653072D01*
X116915000Y-65681140D01*
X116915000Y-66144860D01*
X116912236Y-66172928D01*
X116905840Y-66194009D01*
X116895452Y-66213445D01*
X116881476Y-66230476D01*
X116864445Y-66244452D01*
X116845009Y-66254840D01*
X116823928Y-66261236D01*
X116795860Y-66264000D01*
X114982140Y-66264000D01*
X114954072Y-66261236D01*
X114932991Y-66254840D01*
X114913555Y-66244452D01*
X114896524Y-66230476D01*
X114882548Y-66213445D01*
X114872160Y-66194009D01*
X114865764Y-66172928D01*
X114863000Y-66144860D01*
X114863000Y-65681140D01*
X114865764Y-65653072D01*
X114872160Y-65631991D01*
X114882548Y-65612555D01*
X114896524Y-65595524D01*
X114913555Y-65581548D01*
X114932991Y-65571160D01*
X114954072Y-65564764D01*
X114982140Y-65562000D01*
X116795860Y-65562000D01*
X116823928Y-65564764D01*
X116823928Y-65564764D01*
G37*
G36*
X121773928Y-65564764D02*
G01*
X121795009Y-65571160D01*
X121814445Y-65581548D01*
X121831476Y-65595524D01*
X121845452Y-65612555D01*
X121855840Y-65631991D01*
X121862236Y-65653072D01*
X121865000Y-65681140D01*
X121865000Y-66144860D01*
X121862236Y-66172928D01*
X121855840Y-66194009D01*
X121845452Y-66213445D01*
X121831476Y-66230476D01*
X121814445Y-66244452D01*
X121795009Y-66254840D01*
X121773928Y-66261236D01*
X121745860Y-66264000D01*
X119932140Y-66264000D01*
X119904072Y-66261236D01*
X119882991Y-66254840D01*
X119863555Y-66244452D01*
X119846524Y-66230476D01*
X119832548Y-66213445D01*
X119822160Y-66194009D01*
X119815764Y-66172928D01*
X119813000Y-66144860D01*
X119813000Y-65681140D01*
X119815764Y-65653072D01*
X119822160Y-65631991D01*
X119832548Y-65612555D01*
X119846524Y-65595524D01*
X119863555Y-65581548D01*
X119882991Y-65571160D01*
X119904072Y-65564764D01*
X119932140Y-65562000D01*
X121745860Y-65562000D01*
X121773928Y-65564764D01*
X121773928Y-65564764D01*
G37*
G36*
X116823928Y-64294764D02*
G01*
X116845009Y-64301160D01*
X116864445Y-64311548D01*
X116881476Y-64325524D01*
X116895452Y-64342555D01*
X116905840Y-64361991D01*
X116912236Y-64383072D01*
X116915000Y-64411140D01*
X116915000Y-64874860D01*
X116912236Y-64902928D01*
X116905840Y-64924009D01*
X116895452Y-64943445D01*
X116881476Y-64960476D01*
X116864445Y-64974452D01*
X116845009Y-64984840D01*
X116823928Y-64991236D01*
X116795860Y-64994000D01*
X114982140Y-64994000D01*
X114954072Y-64991236D01*
X114932991Y-64984840D01*
X114913555Y-64974452D01*
X114896524Y-64960476D01*
X114882548Y-64943445D01*
X114872160Y-64924009D01*
X114865764Y-64902928D01*
X114863000Y-64874860D01*
X114863000Y-64411140D01*
X114865764Y-64383072D01*
X114872160Y-64361991D01*
X114882548Y-64342555D01*
X114896524Y-64325524D01*
X114913555Y-64311548D01*
X114932991Y-64301160D01*
X114954072Y-64294764D01*
X114982140Y-64292000D01*
X116795860Y-64292000D01*
X116823928Y-64294764D01*
X116823928Y-64294764D01*
G37*
G36*
X121773928Y-64294764D02*
G01*
X121795009Y-64301160D01*
X121814445Y-64311548D01*
X121831476Y-64325524D01*
X121845452Y-64342555D01*
X121855840Y-64361991D01*
X121862236Y-64383072D01*
X121865000Y-64411140D01*
X121865000Y-64874860D01*
X121862236Y-64902928D01*
X121855840Y-64924009D01*
X121845452Y-64943445D01*
X121831476Y-64960476D01*
X121814445Y-64974452D01*
X121795009Y-64984840D01*
X121773928Y-64991236D01*
X121745860Y-64994000D01*
X119932140Y-64994000D01*
X119904072Y-64991236D01*
X119882991Y-64984840D01*
X119863555Y-64974452D01*
X119846524Y-64960476D01*
X119832548Y-64943445D01*
X119822160Y-64924009D01*
X119815764Y-64902928D01*
X119813000Y-64874860D01*
X119813000Y-64411140D01*
X119815764Y-64383072D01*
X119822160Y-64361991D01*
X119832548Y-64342555D01*
X119846524Y-64325524D01*
X119863555Y-64311548D01*
X119882991Y-64301160D01*
X119904072Y-64294764D01*
X119932140Y-64292000D01*
X121745860Y-64292000D01*
X121773928Y-64294764D01*
X121773928Y-64294764D01*
G37*
G36*
X109263000Y-59479000D02*
G01*
X109034735Y-59479000D01*
X109010349Y-59481402D01*
X108986900Y-59488515D01*
X108965289Y-59500066D01*
X108946347Y-59515611D01*
X108930802Y-59534553D01*
X108919251Y-59556164D01*
X108912138Y-59579613D01*
X108909736Y-59603999D01*
X108912138Y-59628385D01*
X108919251Y-59651834D01*
X108930802Y-59673445D01*
X108946347Y-59692387D01*
X108965289Y-59707932D01*
X108975802Y-59714233D01*
X109019600Y-59737644D01*
X109019602Y-59737645D01*
X109019601Y-59737645D01*
X109103501Y-59806499D01*
X109172357Y-59890400D01*
X109208995Y-59958945D01*
X109223521Y-59986121D01*
X109255027Y-60089985D01*
X109265666Y-60198000D01*
X109255027Y-60306015D01*
X109223521Y-60409879D01*
X109223519Y-60409882D01*
X109172357Y-60505600D01*
X109103501Y-60589501D01*
X109019600Y-60658357D01*
X108951055Y-60694995D01*
X108923879Y-60709521D01*
X108911131Y-60713388D01*
X108888504Y-60722760D01*
X108868130Y-60736374D01*
X108850803Y-60753701D01*
X108837189Y-60774075D01*
X108827812Y-60796714D01*
X108823031Y-60820747D01*
X108823031Y-60845251D01*
X108827811Y-60869285D01*
X108837188Y-60891924D01*
X108850802Y-60912298D01*
X108868129Y-60929625D01*
X108888503Y-60943239D01*
X108911131Y-60952612D01*
X108923879Y-60956479D01*
X108951055Y-60971005D01*
X109019600Y-61007643D01*
X109103501Y-61076499D01*
X109172357Y-61160400D01*
X109208995Y-61228945D01*
X109223521Y-61256121D01*
X109255027Y-61359985D01*
X109265666Y-61468000D01*
X109255027Y-61576015D01*
X109223521Y-61679879D01*
X109223519Y-61679882D01*
X109172357Y-61775600D01*
X109103501Y-61859501D01*
X109019600Y-61928357D01*
X108951055Y-61964995D01*
X108923879Y-61979521D01*
X108820015Y-62011027D01*
X108739067Y-62019000D01*
X108684933Y-62019000D01*
X108603985Y-62011027D01*
X108500121Y-61979521D01*
X108472945Y-61964995D01*
X108404400Y-61928357D01*
X108320499Y-61859501D01*
X108251643Y-61775600D01*
X108200481Y-61679882D01*
X108200479Y-61679879D01*
X108168973Y-61576015D01*
X108158334Y-61468000D01*
X108168973Y-61359985D01*
X108200479Y-61256121D01*
X108215005Y-61228945D01*
X108251643Y-61160400D01*
X108320499Y-61076499D01*
X108404400Y-61007643D01*
X108472945Y-60971005D01*
X108500121Y-60956479D01*
X108512869Y-60952612D01*
X108535496Y-60943240D01*
X108555870Y-60929626D01*
X108573197Y-60912299D01*
X108586811Y-60891925D01*
X108596188Y-60869286D01*
X108600969Y-60845253D01*
X108600969Y-60820749D01*
X108596189Y-60796715D01*
X108586812Y-60774076D01*
X108573198Y-60753702D01*
X108555871Y-60736375D01*
X108535497Y-60722761D01*
X108512869Y-60713388D01*
X108500121Y-60709521D01*
X108472945Y-60694995D01*
X108404400Y-60658357D01*
X108320499Y-60589501D01*
X108251643Y-60505600D01*
X108200481Y-60409882D01*
X108200479Y-60409879D01*
X108168973Y-60306015D01*
X108158334Y-60198000D01*
X108168973Y-60089985D01*
X108200479Y-59986121D01*
X108215005Y-59958945D01*
X108251643Y-59890400D01*
X108320499Y-59806499D01*
X108404399Y-59737645D01*
X108404398Y-59737645D01*
X108404400Y-59737644D01*
X108448193Y-59714236D01*
X108468563Y-59700625D01*
X108485890Y-59683298D01*
X108499504Y-59662924D01*
X108508881Y-59640285D01*
X108513662Y-59616252D01*
X108513662Y-59591748D01*
X108508882Y-59567714D01*
X108499505Y-59545076D01*
X108485891Y-59524701D01*
X108468564Y-59507374D01*
X108448190Y-59493760D01*
X108425551Y-59484383D01*
X108401518Y-59479602D01*
X108389265Y-59479000D01*
X108161000Y-59479000D01*
X108161000Y-58377000D01*
X109263000Y-58377000D01*
X109263000Y-59479000D01*
X109263000Y-59479000D01*
G37*
G36*
X128059000Y-59479000D02*
G01*
X127830735Y-59479000D01*
X127806349Y-59481402D01*
X127782900Y-59488515D01*
X127761289Y-59500066D01*
X127742347Y-59515611D01*
X127726802Y-59534553D01*
X127715251Y-59556164D01*
X127708138Y-59579613D01*
X127705736Y-59603999D01*
X127708138Y-59628385D01*
X127715251Y-59651834D01*
X127726802Y-59673445D01*
X127742347Y-59692387D01*
X127761289Y-59707932D01*
X127771802Y-59714233D01*
X127815600Y-59737644D01*
X127815602Y-59737645D01*
X127815601Y-59737645D01*
X127899501Y-59806499D01*
X127968357Y-59890400D01*
X128004995Y-59958945D01*
X128019521Y-59986121D01*
X128051027Y-60089985D01*
X128061666Y-60198000D01*
X128051027Y-60306015D01*
X128019521Y-60409879D01*
X128019519Y-60409882D01*
X127968357Y-60505600D01*
X127899501Y-60589501D01*
X127815600Y-60658357D01*
X127747055Y-60694995D01*
X127719879Y-60709521D01*
X127707131Y-60713388D01*
X127684504Y-60722760D01*
X127664130Y-60736374D01*
X127646803Y-60753701D01*
X127633189Y-60774075D01*
X127623812Y-60796714D01*
X127619031Y-60820747D01*
X127619031Y-60845251D01*
X127623811Y-60869285D01*
X127633188Y-60891924D01*
X127646802Y-60912298D01*
X127664129Y-60929625D01*
X127684503Y-60943239D01*
X127707131Y-60952612D01*
X127719879Y-60956479D01*
X127747055Y-60971005D01*
X127815600Y-61007643D01*
X127899501Y-61076499D01*
X127968357Y-61160400D01*
X128004995Y-61228945D01*
X128019521Y-61256121D01*
X128051027Y-61359985D01*
X128061666Y-61468000D01*
X128051027Y-61576015D01*
X128019521Y-61679879D01*
X128019519Y-61679882D01*
X127968357Y-61775600D01*
X127899501Y-61859501D01*
X127815600Y-61928357D01*
X127747055Y-61964995D01*
X127719879Y-61979521D01*
X127616015Y-62011027D01*
X127535067Y-62019000D01*
X127480933Y-62019000D01*
X127399985Y-62011027D01*
X127296121Y-61979521D01*
X127268945Y-61964995D01*
X127200400Y-61928357D01*
X127116499Y-61859501D01*
X127047643Y-61775600D01*
X126996481Y-61679882D01*
X126996479Y-61679879D01*
X126964973Y-61576015D01*
X126954334Y-61468000D01*
X126964973Y-61359985D01*
X126996479Y-61256121D01*
X127011005Y-61228945D01*
X127047643Y-61160400D01*
X127116499Y-61076499D01*
X127200400Y-61007643D01*
X127268945Y-60971005D01*
X127296121Y-60956479D01*
X127308869Y-60952612D01*
X127331496Y-60943240D01*
X127351870Y-60929626D01*
X127369197Y-60912299D01*
X127382811Y-60891925D01*
X127392188Y-60869286D01*
X127396969Y-60845253D01*
X127396969Y-60820749D01*
X127392189Y-60796715D01*
X127382812Y-60774076D01*
X127369198Y-60753702D01*
X127351871Y-60736375D01*
X127331497Y-60722761D01*
X127308869Y-60713388D01*
X127296121Y-60709521D01*
X127268945Y-60694995D01*
X127200400Y-60658357D01*
X127116499Y-60589501D01*
X127047643Y-60505600D01*
X126996481Y-60409882D01*
X126996479Y-60409879D01*
X126964973Y-60306015D01*
X126954334Y-60198000D01*
X126964973Y-60089985D01*
X126996479Y-59986121D01*
X127011005Y-59958945D01*
X127047643Y-59890400D01*
X127116499Y-59806499D01*
X127200399Y-59737645D01*
X127200398Y-59737645D01*
X127200400Y-59737644D01*
X127244193Y-59714236D01*
X127264563Y-59700625D01*
X127281890Y-59683298D01*
X127295504Y-59662924D01*
X127304881Y-59640285D01*
X127309662Y-59616252D01*
X127309662Y-59591748D01*
X127304882Y-59567714D01*
X127295505Y-59545076D01*
X127281891Y-59524701D01*
X127264564Y-59507374D01*
X127244190Y-59493760D01*
X127221551Y-59484383D01*
X127197518Y-59479602D01*
X127185265Y-59479000D01*
X126957000Y-59479000D01*
X126957000Y-58377000D01*
X128059000Y-58377000D01*
X128059000Y-59479000D01*
X128059000Y-59479000D01*
G37*
G36*
X116823928Y-59976764D02*
G01*
X116845009Y-59983160D01*
X116864445Y-59993548D01*
X116881476Y-60007524D01*
X116895452Y-60024555D01*
X116905840Y-60043991D01*
X116912236Y-60065072D01*
X116915000Y-60093140D01*
X116915000Y-60556860D01*
X116912236Y-60584928D01*
X116905840Y-60606009D01*
X116895452Y-60625445D01*
X116881476Y-60642476D01*
X116864445Y-60656452D01*
X116845009Y-60666840D01*
X116823928Y-60673236D01*
X116795860Y-60676000D01*
X114982140Y-60676000D01*
X114954072Y-60673236D01*
X114932991Y-60666840D01*
X114913555Y-60656452D01*
X114896524Y-60642476D01*
X114882548Y-60625445D01*
X114872160Y-60606009D01*
X114865764Y-60584928D01*
X114863000Y-60556860D01*
X114863000Y-60093140D01*
X114865764Y-60065072D01*
X114872160Y-60043991D01*
X114882548Y-60024555D01*
X114896524Y-60007524D01*
X114913555Y-59993548D01*
X114932991Y-59983160D01*
X114954072Y-59976764D01*
X114982140Y-59974000D01*
X116795860Y-59974000D01*
X116823928Y-59976764D01*
X116823928Y-59976764D01*
G37*
G36*
X121773928Y-59976764D02*
G01*
X121795009Y-59983160D01*
X121814445Y-59993548D01*
X121831476Y-60007524D01*
X121845452Y-60024555D01*
X121855840Y-60043991D01*
X121862236Y-60065072D01*
X121865000Y-60093140D01*
X121865000Y-60556860D01*
X121862236Y-60584928D01*
X121855840Y-60606009D01*
X121845452Y-60625445D01*
X121831476Y-60642476D01*
X121814445Y-60656452D01*
X121795009Y-60666840D01*
X121773928Y-60673236D01*
X121745860Y-60676000D01*
X119932140Y-60676000D01*
X119904072Y-60673236D01*
X119882991Y-60666840D01*
X119863555Y-60656452D01*
X119846524Y-60642476D01*
X119832548Y-60625445D01*
X119822160Y-60606009D01*
X119815764Y-60584928D01*
X119813000Y-60556860D01*
X119813000Y-60093140D01*
X119815764Y-60065072D01*
X119822160Y-60043991D01*
X119832548Y-60024555D01*
X119846524Y-60007524D01*
X119863555Y-59993548D01*
X119882991Y-59983160D01*
X119904072Y-59976764D01*
X119932140Y-59974000D01*
X121745860Y-59974000D01*
X121773928Y-59976764D01*
X121773928Y-59976764D01*
G37*
G36*
X116823928Y-58706764D02*
G01*
X116845009Y-58713160D01*
X116864445Y-58723548D01*
X116881476Y-58737524D01*
X116895452Y-58754555D01*
X116905840Y-58773991D01*
X116912236Y-58795072D01*
X116915000Y-58823140D01*
X116915000Y-59286860D01*
X116912236Y-59314928D01*
X116905840Y-59336009D01*
X116895452Y-59355445D01*
X116881476Y-59372476D01*
X116864445Y-59386452D01*
X116845009Y-59396840D01*
X116823928Y-59403236D01*
X116795860Y-59406000D01*
X114982140Y-59406000D01*
X114954072Y-59403236D01*
X114932991Y-59396840D01*
X114913555Y-59386452D01*
X114896524Y-59372476D01*
X114882548Y-59355445D01*
X114872160Y-59336009D01*
X114865764Y-59314928D01*
X114863000Y-59286860D01*
X114863000Y-58823140D01*
X114865764Y-58795072D01*
X114872160Y-58773991D01*
X114882548Y-58754555D01*
X114896524Y-58737524D01*
X114913555Y-58723548D01*
X114932991Y-58713160D01*
X114954072Y-58706764D01*
X114982140Y-58704000D01*
X116795860Y-58704000D01*
X116823928Y-58706764D01*
X116823928Y-58706764D01*
G37*
G36*
X121773928Y-58706764D02*
G01*
X121795009Y-58713160D01*
X121814445Y-58723548D01*
X121831476Y-58737524D01*
X121845452Y-58754555D01*
X121855840Y-58773991D01*
X121862236Y-58795072D01*
X121865000Y-58823140D01*
X121865000Y-59286860D01*
X121862236Y-59314928D01*
X121855840Y-59336009D01*
X121845452Y-59355445D01*
X121831476Y-59372476D01*
X121814445Y-59386452D01*
X121795009Y-59396840D01*
X121773928Y-59403236D01*
X121745860Y-59406000D01*
X119932140Y-59406000D01*
X119904072Y-59403236D01*
X119882991Y-59396840D01*
X119863555Y-59386452D01*
X119846524Y-59372476D01*
X119832548Y-59355445D01*
X119822160Y-59336009D01*
X119815764Y-59314928D01*
X119813000Y-59286860D01*
X119813000Y-58823140D01*
X119815764Y-58795072D01*
X119822160Y-58773991D01*
X119832548Y-58754555D01*
X119846524Y-58737524D01*
X119863555Y-58723548D01*
X119882991Y-58713160D01*
X119904072Y-58706764D01*
X119932140Y-58704000D01*
X121745860Y-58704000D01*
X121773928Y-58706764D01*
X121773928Y-58706764D01*
G37*
G36*
X121773928Y-57436764D02*
G01*
X121795009Y-57443160D01*
X121814445Y-57453548D01*
X121831476Y-57467524D01*
X121845452Y-57484555D01*
X121855840Y-57503991D01*
X121862236Y-57525072D01*
X121865000Y-57553140D01*
X121865000Y-58016860D01*
X121862236Y-58044928D01*
X121855840Y-58066009D01*
X121845452Y-58085445D01*
X121831476Y-58102476D01*
X121814445Y-58116452D01*
X121795009Y-58126840D01*
X121773928Y-58133236D01*
X121745860Y-58136000D01*
X119932140Y-58136000D01*
X119904072Y-58133236D01*
X119882991Y-58126840D01*
X119863555Y-58116452D01*
X119846524Y-58102476D01*
X119832548Y-58085445D01*
X119822160Y-58066009D01*
X119815764Y-58044928D01*
X119813000Y-58016860D01*
X119813000Y-57553140D01*
X119815764Y-57525072D01*
X119822160Y-57503991D01*
X119832548Y-57484555D01*
X119846524Y-57467524D01*
X119863555Y-57453548D01*
X119882991Y-57443160D01*
X119904072Y-57436764D01*
X119932140Y-57434000D01*
X121745860Y-57434000D01*
X121773928Y-57436764D01*
X121773928Y-57436764D01*
G37*
G36*
X116823928Y-57436764D02*
G01*
X116845009Y-57443160D01*
X116864445Y-57453548D01*
X116881476Y-57467524D01*
X116895452Y-57484555D01*
X116905840Y-57503991D01*
X116912236Y-57525072D01*
X116915000Y-57553140D01*
X116915000Y-58016860D01*
X116912236Y-58044928D01*
X116905840Y-58066009D01*
X116895452Y-58085445D01*
X116881476Y-58102476D01*
X116864445Y-58116452D01*
X116845009Y-58126840D01*
X116823928Y-58133236D01*
X116795860Y-58136000D01*
X114982140Y-58136000D01*
X114954072Y-58133236D01*
X114932991Y-58126840D01*
X114913555Y-58116452D01*
X114896524Y-58102476D01*
X114882548Y-58085445D01*
X114872160Y-58066009D01*
X114865764Y-58044928D01*
X114863000Y-58016860D01*
X114863000Y-57553140D01*
X114865764Y-57525072D01*
X114872160Y-57503991D01*
X114882548Y-57484555D01*
X114896524Y-57467524D01*
X114913555Y-57453548D01*
X114932991Y-57443160D01*
X114954072Y-57436764D01*
X114982140Y-57434000D01*
X116795860Y-57434000D01*
X116823928Y-57436764D01*
X116823928Y-57436764D01*
G37*
G36*
X116823928Y-56166764D02*
G01*
X116845009Y-56173160D01*
X116864445Y-56183548D01*
X116881476Y-56197524D01*
X116895452Y-56214555D01*
X116905840Y-56233991D01*
X116912236Y-56255072D01*
X116915000Y-56283140D01*
X116915000Y-56746860D01*
X116912236Y-56774928D01*
X116905840Y-56796009D01*
X116895452Y-56815445D01*
X116881476Y-56832476D01*
X116864445Y-56846452D01*
X116845009Y-56856840D01*
X116823928Y-56863236D01*
X116795860Y-56866000D01*
X114982140Y-56866000D01*
X114954072Y-56863236D01*
X114932991Y-56856840D01*
X114913555Y-56846452D01*
X114896524Y-56832476D01*
X114882548Y-56815445D01*
X114872160Y-56796009D01*
X114865764Y-56774928D01*
X114863000Y-56746860D01*
X114863000Y-56283140D01*
X114865764Y-56255072D01*
X114872160Y-56233991D01*
X114882548Y-56214555D01*
X114896524Y-56197524D01*
X114913555Y-56183548D01*
X114932991Y-56173160D01*
X114954072Y-56166764D01*
X114982140Y-56164000D01*
X116795860Y-56164000D01*
X116823928Y-56166764D01*
X116823928Y-56166764D01*
G37*
G36*
X121773928Y-56166764D02*
G01*
X121795009Y-56173160D01*
X121814445Y-56183548D01*
X121831476Y-56197524D01*
X121845452Y-56214555D01*
X121855840Y-56233991D01*
X121862236Y-56255072D01*
X121865000Y-56283140D01*
X121865000Y-56746860D01*
X121862236Y-56774928D01*
X121855840Y-56796009D01*
X121845452Y-56815445D01*
X121831476Y-56832476D01*
X121814445Y-56846452D01*
X121795009Y-56856840D01*
X121773928Y-56863236D01*
X121745860Y-56866000D01*
X119932140Y-56866000D01*
X119904072Y-56863236D01*
X119882991Y-56856840D01*
X119863555Y-56846452D01*
X119846524Y-56832476D01*
X119832548Y-56815445D01*
X119822160Y-56796009D01*
X119815764Y-56774928D01*
X119813000Y-56746860D01*
X119813000Y-56283140D01*
X119815764Y-56255072D01*
X119822160Y-56233991D01*
X119832548Y-56214555D01*
X119846524Y-56197524D01*
X119863555Y-56183548D01*
X119882991Y-56173160D01*
X119904072Y-56166764D01*
X119932140Y-56164000D01*
X121745860Y-56164000D01*
X121773928Y-56166764D01*
X121773928Y-56166764D01*
G37*
G36*
X125855591Y-52906585D02*
G01*
X125889569Y-52916893D01*
X125920890Y-52933634D01*
X125948339Y-52956161D01*
X125970866Y-52983610D01*
X125987607Y-53014931D01*
X125997915Y-53048909D01*
X126002000Y-53090390D01*
X126002000Y-53691610D01*
X125997915Y-53733091D01*
X125987607Y-53767069D01*
X125970866Y-53798390D01*
X125948339Y-53825839D01*
X125920890Y-53848366D01*
X125889569Y-53865107D01*
X125855591Y-53875415D01*
X125814110Y-53879500D01*
X125137890Y-53879500D01*
X125096409Y-53875415D01*
X125062431Y-53865107D01*
X125031110Y-53848366D01*
X125003661Y-53825839D01*
X124981134Y-53798390D01*
X124964393Y-53767069D01*
X124954085Y-53733091D01*
X124950000Y-53691610D01*
X124950000Y-53090390D01*
X124954085Y-53048909D01*
X124964393Y-53014931D01*
X124981134Y-52983610D01*
X125003661Y-52956161D01*
X125031110Y-52933634D01*
X125062431Y-52916893D01*
X125096409Y-52906585D01*
X125137890Y-52902500D01*
X125814110Y-52902500D01*
X125855591Y-52906585D01*
X125855591Y-52906585D01*
G37*
G36*
X118407000Y-51493265D02*
G01*
X118409402Y-51517651D01*
X118416515Y-51541100D01*
X118428066Y-51562711D01*
X118443611Y-51581653D01*
X118462553Y-51597198D01*
X118484164Y-51608749D01*
X118507613Y-51615862D01*
X118531999Y-51618264D01*
X118556385Y-51615862D01*
X118579834Y-51608749D01*
X118601445Y-51597198D01*
X118620387Y-51581653D01*
X118635932Y-51562711D01*
X118642233Y-51552198D01*
X118665644Y-51508400D01*
X118734499Y-51424499D01*
X118765522Y-51399039D01*
X118818400Y-51355643D01*
X118886945Y-51319005D01*
X118914121Y-51304479D01*
X119017985Y-51272973D01*
X119098933Y-51265000D01*
X119153067Y-51265000D01*
X119234015Y-51272973D01*
X119337879Y-51304479D01*
X119365055Y-51319005D01*
X119433600Y-51355643D01*
X119517501Y-51424499D01*
X119586357Y-51508400D01*
X119620218Y-51571750D01*
X119637521Y-51604121D01*
X119669027Y-51707985D01*
X119679666Y-51816000D01*
X119669027Y-51924015D01*
X119637521Y-52027879D01*
X119637191Y-52028496D01*
X119586357Y-52123600D01*
X119517501Y-52207501D01*
X119433600Y-52276357D01*
X119369038Y-52310866D01*
X119337879Y-52327521D01*
X119234015Y-52359027D01*
X119153067Y-52367000D01*
X119098933Y-52367000D01*
X119017985Y-52359027D01*
X118914121Y-52327521D01*
X118882962Y-52310866D01*
X118818400Y-52276357D01*
X118734499Y-52207501D01*
X118690363Y-52153720D01*
X118665644Y-52123600D01*
X118642236Y-52079807D01*
X118628625Y-52059437D01*
X118611298Y-52042110D01*
X118590924Y-52028496D01*
X118568285Y-52019119D01*
X118544252Y-52014338D01*
X118519748Y-52014338D01*
X118495714Y-52019118D01*
X118473076Y-52028495D01*
X118452701Y-52042109D01*
X118435374Y-52059436D01*
X118421760Y-52079810D01*
X118412383Y-52102449D01*
X118407602Y-52126482D01*
X118407000Y-52138735D01*
X118407000Y-52367000D01*
X117305000Y-52367000D01*
X117305000Y-51265000D01*
X118407000Y-51265000D01*
X118407000Y-51493265D01*
X118407000Y-51493265D01*
G37*
G36*
X121754091Y-51294085D02*
G01*
X121788069Y-51304393D01*
X121819390Y-51321134D01*
X121846839Y-51343661D01*
X121869366Y-51371110D01*
X121886107Y-51402431D01*
X121896415Y-51436409D01*
X121900500Y-51477890D01*
X121900500Y-52154110D01*
X121896415Y-52195591D01*
X121886107Y-52229569D01*
X121869366Y-52260890D01*
X121846839Y-52288339D01*
X121819390Y-52310866D01*
X121788069Y-52327607D01*
X121754091Y-52337915D01*
X121712610Y-52342000D01*
X121111390Y-52342000D01*
X121069909Y-52337915D01*
X121035931Y-52327607D01*
X121004610Y-52310866D01*
X120977161Y-52288339D01*
X120954634Y-52260890D01*
X120937893Y-52229569D01*
X120927585Y-52195591D01*
X120923500Y-52154110D01*
X120923500Y-51477890D01*
X120927585Y-51436409D01*
X120937893Y-51402431D01*
X120954634Y-51371110D01*
X120977161Y-51343661D01*
X121004610Y-51321134D01*
X121035931Y-51304393D01*
X121069909Y-51294085D01*
X121111390Y-51290000D01*
X121712610Y-51290000D01*
X121754091Y-51294085D01*
X121754091Y-51294085D01*
G37*
G36*
X123329091Y-51294085D02*
G01*
X123363069Y-51304393D01*
X123394390Y-51321134D01*
X123421839Y-51343661D01*
X123444366Y-51371110D01*
X123461107Y-51402431D01*
X123471415Y-51436409D01*
X123475500Y-51477890D01*
X123475500Y-52154110D01*
X123471415Y-52195591D01*
X123461107Y-52229569D01*
X123444366Y-52260890D01*
X123421839Y-52288339D01*
X123394390Y-52310866D01*
X123363069Y-52327607D01*
X123329091Y-52337915D01*
X123287610Y-52342000D01*
X122686390Y-52342000D01*
X122644909Y-52337915D01*
X122610931Y-52327607D01*
X122579610Y-52310866D01*
X122552161Y-52288339D01*
X122529634Y-52260890D01*
X122512893Y-52229569D01*
X122502585Y-52195591D01*
X122498500Y-52154110D01*
X122498500Y-51477890D01*
X122502585Y-51436409D01*
X122512893Y-51402431D01*
X122529634Y-51371110D01*
X122552161Y-51343661D01*
X122579610Y-51321134D01*
X122610931Y-51304393D01*
X122644909Y-51294085D01*
X122686390Y-51290000D01*
X123287610Y-51290000D01*
X123329091Y-51294085D01*
X123329091Y-51294085D01*
G37*
G36*
X125855591Y-51331585D02*
G01*
X125889569Y-51341893D01*
X125920890Y-51358634D01*
X125948339Y-51381161D01*
X125970866Y-51408610D01*
X125987607Y-51439931D01*
X125997915Y-51473909D01*
X126002000Y-51515390D01*
X126002000Y-52116610D01*
X125997915Y-52158091D01*
X125987607Y-52192069D01*
X125970866Y-52223390D01*
X125948339Y-52250839D01*
X125920890Y-52273366D01*
X125889569Y-52290107D01*
X125855591Y-52300415D01*
X125814110Y-52304500D01*
X125137890Y-52304500D01*
X125096409Y-52300415D01*
X125062431Y-52290107D01*
X125031110Y-52273366D01*
X125003661Y-52250839D01*
X124981134Y-52223390D01*
X124964393Y-52192069D01*
X124954085Y-52158091D01*
X124950000Y-52116610D01*
X124950000Y-51515390D01*
X124954085Y-51473909D01*
X124964393Y-51439931D01*
X124981134Y-51408610D01*
X125003661Y-51381161D01*
X125031110Y-51358634D01*
X125062431Y-51341893D01*
X125096409Y-51331585D01*
X125137890Y-51327500D01*
X125814110Y-51327500D01*
X125855591Y-51331585D01*
X125855591Y-51331585D01*
G37*
M02*
