G04 #@! TF.GenerationSoftware,KiCad,Pcbnew,5.1.4*
G04 #@! TF.CreationDate,2020-01-07T12:57:50-05:00*
G04 #@! TF.ProjectId,siot-node-current-clamp,73696f74-2d6e-46f6-9465-2d6375727265,rev?*
G04 #@! TF.SameCoordinates,Original*
G04 #@! TF.FileFunction,Copper,L2,Bot*
G04 #@! TF.FilePolarity,Positive*
%FSLAX46Y46*%
G04 Gerber Fmt 4.6, Leading zero omitted, Abs format (unit mm)*
G04 Created by KiCad (PCBNEW 5.1.4) date 2020-01-07 12:57:50*
%MOMM*%
%LPD*%
G04 APERTURE LIST*
%ADD10C,0.800000*%
%ADD11C,0.250000*%
%ADD12C,0.254000*%
G04 APERTURE END LIST*
D10*
X119330000Y-54255000D03*
X121730000Y-69655000D03*
X119730000Y-69655000D03*
X121730000Y-67855000D03*
X119530000Y-67855000D03*
X116930000Y-69655000D03*
X114930000Y-69655000D03*
X116930000Y-67855000D03*
X114930000Y-67855000D03*
X108330000Y-65255000D03*
X125730000Y-54455000D03*
X127117500Y-58842500D03*
X109530000Y-55955000D03*
X123930000Y-58180000D03*
X123930000Y-56730000D03*
D11*
X123930000Y-58180000D02*
X123930000Y-56730000D01*
D12*
G36*
X128372000Y-70460000D02*
G01*
X107848000Y-70460000D01*
X107848000Y-56628061D01*
X122895000Y-56628061D01*
X122895000Y-56831939D01*
X122934774Y-57031898D01*
X123012795Y-57220256D01*
X123126063Y-57389774D01*
X123170001Y-57433712D01*
X123170000Y-57476289D01*
X123126063Y-57520226D01*
X123012795Y-57689744D01*
X122934774Y-57878102D01*
X122895000Y-58078061D01*
X122895000Y-58281939D01*
X122934774Y-58481898D01*
X123012795Y-58670256D01*
X123126063Y-58839774D01*
X123270226Y-58983937D01*
X123439744Y-59097205D01*
X123628102Y-59175226D01*
X123828061Y-59215000D01*
X124031939Y-59215000D01*
X124231898Y-59175226D01*
X124420256Y-59097205D01*
X124589774Y-58983937D01*
X124733937Y-58839774D01*
X124847205Y-58670256D01*
X124925226Y-58481898D01*
X124965000Y-58281939D01*
X124965000Y-58078061D01*
X124925226Y-57878102D01*
X124847205Y-57689744D01*
X124733937Y-57520226D01*
X124690000Y-57476289D01*
X124690000Y-57433711D01*
X124733937Y-57389774D01*
X124847205Y-57220256D01*
X124925226Y-57031898D01*
X124965000Y-56831939D01*
X124965000Y-56628061D01*
X124925226Y-56428102D01*
X124847205Y-56239744D01*
X124733937Y-56070226D01*
X124589774Y-55926063D01*
X124420256Y-55812795D01*
X124231898Y-55734774D01*
X124031939Y-55695000D01*
X123828061Y-55695000D01*
X123628102Y-55734774D01*
X123439744Y-55812795D01*
X123270226Y-55926063D01*
X123126063Y-56070226D01*
X123012795Y-56239744D01*
X122934774Y-56428102D01*
X122895000Y-56628061D01*
X107848000Y-56628061D01*
X107848000Y-50952000D01*
X128372001Y-50952000D01*
X128372000Y-70460000D01*
X128372000Y-70460000D01*
G37*
X128372000Y-70460000D02*
X107848000Y-70460000D01*
X107848000Y-56628061D01*
X122895000Y-56628061D01*
X122895000Y-56831939D01*
X122934774Y-57031898D01*
X123012795Y-57220256D01*
X123126063Y-57389774D01*
X123170001Y-57433712D01*
X123170000Y-57476289D01*
X123126063Y-57520226D01*
X123012795Y-57689744D01*
X122934774Y-57878102D01*
X122895000Y-58078061D01*
X122895000Y-58281939D01*
X122934774Y-58481898D01*
X123012795Y-58670256D01*
X123126063Y-58839774D01*
X123270226Y-58983937D01*
X123439744Y-59097205D01*
X123628102Y-59175226D01*
X123828061Y-59215000D01*
X124031939Y-59215000D01*
X124231898Y-59175226D01*
X124420256Y-59097205D01*
X124589774Y-58983937D01*
X124733937Y-58839774D01*
X124847205Y-58670256D01*
X124925226Y-58481898D01*
X124965000Y-58281939D01*
X124965000Y-58078061D01*
X124925226Y-57878102D01*
X124847205Y-57689744D01*
X124733937Y-57520226D01*
X124690000Y-57476289D01*
X124690000Y-57433711D01*
X124733937Y-57389774D01*
X124847205Y-57220256D01*
X124925226Y-57031898D01*
X124965000Y-56831939D01*
X124965000Y-56628061D01*
X124925226Y-56428102D01*
X124847205Y-56239744D01*
X124733937Y-56070226D01*
X124589774Y-55926063D01*
X124420256Y-55812795D01*
X124231898Y-55734774D01*
X124031939Y-55695000D01*
X123828061Y-55695000D01*
X123628102Y-55734774D01*
X123439744Y-55812795D01*
X123270226Y-55926063D01*
X123126063Y-56070226D01*
X123012795Y-56239744D01*
X122934774Y-56428102D01*
X122895000Y-56628061D01*
X107848000Y-56628061D01*
X107848000Y-50952000D01*
X128372001Y-50952000D01*
X128372000Y-70460000D01*
M02*
