%FSLAX45Y45*%
G04 Gerber Fmt 4.5, Leading zero omitted, Abs format (unit mm)*
G04 Created by KiCad (PCBNEW 5.1.4) date 2019-08-27 15:50:22*
%MOMM*%
%LPD*%
G04 APERTURE LIST*
%ADD10C,0.050000*%
%ADD11C,0.200000*%
%ADD12C,0.300000*%
G04 APERTURE END LIST*
D10*
X10718800Y-5029200D02*
X10718800Y-7112000D01*
X12903200Y-5029200D02*
X10718800Y-5029200D01*
X12903200Y-7112000D02*
X12903200Y-5029200D01*
X10718800Y-7112000D02*
X12903200Y-7112000D01*
D11*
X10813000Y-6505500D02*
X10853000Y-6545500D01*
X10853000Y-6505500D02*
X10813000Y-6545500D01*
X10913000Y-5565500D02*
X10953000Y-5605500D01*
X10953000Y-5565500D02*
X10913000Y-5605500D01*
X11473000Y-6765500D02*
X11513000Y-6805500D01*
X11513000Y-6765500D02*
X11473000Y-6805500D01*
X11473000Y-6945500D02*
X11513000Y-6985500D01*
X11513000Y-6945500D02*
X11473000Y-6985500D01*
X11673000Y-6765500D02*
X11713000Y-6805500D01*
X11713000Y-6765500D02*
X11673000Y-6805500D01*
X11673000Y-6945500D02*
X11713000Y-6985500D01*
X11713000Y-6945500D02*
X11673000Y-6985500D01*
X11913000Y-5405500D02*
X11953000Y-5445500D01*
X11953000Y-5405500D02*
X11913000Y-5445500D01*
X11933000Y-6765500D02*
X11973000Y-6805500D01*
X11973000Y-6765500D02*
X11933000Y-6805500D01*
X11953000Y-6945500D02*
X11993000Y-6985500D01*
X11993000Y-6945500D02*
X11953000Y-6985500D01*
X12153000Y-6765500D02*
X12193000Y-6805500D01*
X12193000Y-6765500D02*
X12153000Y-6805500D01*
X12153000Y-6945500D02*
X12193000Y-6985500D01*
X12193000Y-6945500D02*
X12153000Y-6985500D01*
X12373000Y-5653000D02*
X12413000Y-5693000D01*
X12413000Y-5653000D02*
X12373000Y-5693000D01*
X12373000Y-5798000D02*
X12413000Y-5838000D01*
X12413000Y-5798000D02*
X12373000Y-5838000D01*
X12553000Y-5425500D02*
X12593000Y-5465500D01*
X12593000Y-5425500D02*
X12553000Y-5465500D01*
X12691750Y-5864250D02*
X12731750Y-5904250D01*
X12731750Y-5864250D02*
X12691750Y-5904250D01*
D12*
X11002728Y-7580214D02*
X11002728Y-7280214D01*
X11074157Y-7280214D01*
X11117014Y-7294500D01*
X11145586Y-7323071D01*
X11159871Y-7351643D01*
X11174157Y-7408786D01*
X11174157Y-7451643D01*
X11159871Y-7508786D01*
X11145586Y-7537357D01*
X11117014Y-7565929D01*
X11074157Y-7580214D01*
X11002728Y-7580214D01*
X11302728Y-7580214D02*
X11302728Y-7380214D01*
X11302728Y-7437357D02*
X11317014Y-7408786D01*
X11331300Y-7394500D01*
X11359871Y-7380214D01*
X11388443Y-7380214D01*
X11488443Y-7580214D02*
X11488443Y-7380214D01*
X11488443Y-7280214D02*
X11474157Y-7294500D01*
X11488443Y-7308786D01*
X11502728Y-7294500D01*
X11488443Y-7280214D01*
X11488443Y-7308786D01*
X11674157Y-7580214D02*
X11645586Y-7565929D01*
X11631300Y-7537357D01*
X11631300Y-7280214D01*
X11831300Y-7580214D02*
X11802728Y-7565929D01*
X11788443Y-7537357D01*
X11788443Y-7280214D01*
X12174157Y-7580214D02*
X12174157Y-7280214D01*
X12274157Y-7494500D01*
X12374157Y-7280214D01*
X12374157Y-7580214D01*
X12645586Y-7580214D02*
X12645586Y-7423071D01*
X12631300Y-7394500D01*
X12602728Y-7380214D01*
X12545586Y-7380214D01*
X12517014Y-7394500D01*
X12645586Y-7565929D02*
X12617014Y-7580214D01*
X12545586Y-7580214D01*
X12517014Y-7565929D01*
X12502728Y-7537357D01*
X12502728Y-7508786D01*
X12517014Y-7480214D01*
X12545586Y-7465929D01*
X12617014Y-7465929D01*
X12645586Y-7451643D01*
X12788443Y-7380214D02*
X12788443Y-7680214D01*
X12788443Y-7394500D02*
X12817014Y-7380214D01*
X12874157Y-7380214D01*
X12902728Y-7394500D01*
X12917014Y-7408786D01*
X12931300Y-7437357D01*
X12931300Y-7523071D01*
X12917014Y-7551643D01*
X12902728Y-7565929D01*
X12874157Y-7580214D01*
X12817014Y-7580214D01*
X12788443Y-7565929D01*
X13059871Y-7551643D02*
X13074157Y-7565929D01*
X13059871Y-7580214D01*
X13045586Y-7565929D01*
X13059871Y-7551643D01*
X13059871Y-7580214D01*
X13059871Y-7394500D02*
X13074157Y-7408786D01*
X13059871Y-7423071D01*
X13045586Y-7408786D01*
X13059871Y-7394500D01*
X13059871Y-7423071D01*
X10676300Y-8054500D02*
X10716300Y-8094500D01*
X10716300Y-8054500D02*
X10676300Y-8094500D01*
X11059871Y-7910214D02*
X11088443Y-7910214D01*
X11117014Y-7924500D01*
X11131300Y-7938786D01*
X11145586Y-7967357D01*
X11159871Y-8024500D01*
X11159871Y-8095929D01*
X11145586Y-8153071D01*
X11131300Y-8181643D01*
X11117014Y-8195929D01*
X11088443Y-8210214D01*
X11059871Y-8210214D01*
X11031300Y-8195929D01*
X11017014Y-8181643D01*
X11002728Y-8153071D01*
X10988443Y-8095929D01*
X10988443Y-8024500D01*
X11002728Y-7967357D01*
X11017014Y-7938786D01*
X11031300Y-7924500D01*
X11059871Y-7910214D01*
X11288443Y-8181643D02*
X11302728Y-8195929D01*
X11288443Y-8210214D01*
X11274157Y-8195929D01*
X11288443Y-8181643D01*
X11288443Y-8210214D01*
X11559871Y-8010214D02*
X11559871Y-8210214D01*
X11488443Y-7895929D02*
X11417014Y-8110214D01*
X11602728Y-8110214D01*
X11774157Y-7910214D02*
X11802728Y-7910214D01*
X11831300Y-7924500D01*
X11845586Y-7938786D01*
X11859871Y-7967357D01*
X11874157Y-8024500D01*
X11874157Y-8095929D01*
X11859871Y-8153071D01*
X11845586Y-8181643D01*
X11831300Y-8195929D01*
X11802728Y-8210214D01*
X11774157Y-8210214D01*
X11745586Y-8195929D01*
X11731300Y-8181643D01*
X11717014Y-8153071D01*
X11702728Y-8095929D01*
X11702728Y-8024500D01*
X11717014Y-7967357D01*
X11731300Y-7938786D01*
X11745586Y-7924500D01*
X11774157Y-7910214D01*
X12002728Y-8210214D02*
X12002728Y-8010214D01*
X12002728Y-8038786D02*
X12017014Y-8024500D01*
X12045586Y-8010214D01*
X12088443Y-8010214D01*
X12117014Y-8024500D01*
X12131300Y-8053071D01*
X12131300Y-8210214D01*
X12131300Y-8053071D02*
X12145586Y-8024500D01*
X12174157Y-8010214D01*
X12217014Y-8010214D01*
X12245586Y-8024500D01*
X12259871Y-8053071D01*
X12259871Y-8210214D01*
X12402728Y-8210214D02*
X12402728Y-8010214D01*
X12402728Y-8038786D02*
X12417014Y-8024500D01*
X12445586Y-8010214D01*
X12488443Y-8010214D01*
X12517014Y-8024500D01*
X12531300Y-8053071D01*
X12531300Y-8210214D01*
X12531300Y-8053071D02*
X12545586Y-8024500D01*
X12574157Y-8010214D01*
X12617014Y-8010214D01*
X12645586Y-8024500D01*
X12659871Y-8053071D01*
X12659871Y-8210214D01*
X13245586Y-7895929D02*
X12988443Y-8281643D01*
X13631300Y-7910214D02*
X13659871Y-7910214D01*
X13688443Y-7924500D01*
X13702728Y-7938786D01*
X13717014Y-7967357D01*
X13731300Y-8024500D01*
X13731300Y-8095929D01*
X13717014Y-8153071D01*
X13702728Y-8181643D01*
X13688443Y-8195929D01*
X13659871Y-8210214D01*
X13631300Y-8210214D01*
X13602728Y-8195929D01*
X13588443Y-8181643D01*
X13574157Y-8153071D01*
X13559871Y-8095929D01*
X13559871Y-8024500D01*
X13574157Y-7967357D01*
X13588443Y-7938786D01*
X13602728Y-7924500D01*
X13631300Y-7910214D01*
X13859871Y-8181643D02*
X13874157Y-8195929D01*
X13859871Y-8210214D01*
X13845586Y-8195929D01*
X13859871Y-8181643D01*
X13859871Y-8210214D01*
X14059871Y-7910214D02*
X14088443Y-7910214D01*
X14117014Y-7924500D01*
X14131300Y-7938786D01*
X14145586Y-7967357D01*
X14159871Y-8024500D01*
X14159871Y-8095929D01*
X14145586Y-8153071D01*
X14131300Y-8181643D01*
X14117014Y-8195929D01*
X14088443Y-8210214D01*
X14059871Y-8210214D01*
X14031300Y-8195929D01*
X14017014Y-8181643D01*
X14002728Y-8153071D01*
X13988443Y-8095929D01*
X13988443Y-8024500D01*
X14002728Y-7967357D01*
X14017014Y-7938786D01*
X14031300Y-7924500D01*
X14059871Y-7910214D01*
X14445586Y-8210214D02*
X14274157Y-8210214D01*
X14359871Y-8210214D02*
X14359871Y-7910214D01*
X14331300Y-7953071D01*
X14302728Y-7981643D01*
X14274157Y-7995929D01*
X14702728Y-7910214D02*
X14645586Y-7910214D01*
X14617014Y-7924500D01*
X14602728Y-7938786D01*
X14574157Y-7981643D01*
X14559871Y-8038786D01*
X14559871Y-8153071D01*
X14574157Y-8181643D01*
X14588443Y-8195929D01*
X14617014Y-8210214D01*
X14674157Y-8210214D01*
X14702728Y-8195929D01*
X14717014Y-8181643D01*
X14731300Y-8153071D01*
X14731300Y-8081643D01*
X14717014Y-8053071D01*
X14702728Y-8038786D01*
X14674157Y-8024500D01*
X14617014Y-8024500D01*
X14588443Y-8038786D01*
X14574157Y-8053071D01*
X14559871Y-8081643D01*
X14845586Y-7910214D02*
X14845586Y-7967357D01*
X14959871Y-7910214D02*
X14959871Y-7967357D01*
X15402728Y-8324500D02*
X15388443Y-8310214D01*
X15359871Y-8267357D01*
X15345586Y-8238786D01*
X15331300Y-8195929D01*
X15317014Y-8124500D01*
X15317014Y-8067357D01*
X15331300Y-7995929D01*
X15345586Y-7953071D01*
X15359871Y-7924500D01*
X15388443Y-7881643D01*
X15402728Y-7867357D01*
X15674157Y-8210214D02*
X15502728Y-8210214D01*
X15588443Y-8210214D02*
X15588443Y-7910214D01*
X15559871Y-7953071D01*
X15531300Y-7981643D01*
X15502728Y-7995929D01*
X15945586Y-7910214D02*
X15802728Y-7910214D01*
X15788443Y-8053071D01*
X15802728Y-8038786D01*
X15831300Y-8024500D01*
X15902728Y-8024500D01*
X15931300Y-8038786D01*
X15945586Y-8053071D01*
X15959871Y-8081643D01*
X15959871Y-8153071D01*
X15945586Y-8181643D01*
X15931300Y-8195929D01*
X15902728Y-8210214D01*
X15831300Y-8210214D01*
X15802728Y-8195929D01*
X15788443Y-8181643D01*
X16317014Y-8210214D02*
X16317014Y-7910214D01*
X16445586Y-8210214D02*
X16445586Y-8053071D01*
X16431300Y-8024500D01*
X16402728Y-8010214D01*
X16359871Y-8010214D01*
X16331300Y-8024500D01*
X16317014Y-8038786D01*
X16631300Y-8210214D02*
X16602728Y-8195929D01*
X16588443Y-8181643D01*
X16574157Y-8153071D01*
X16574157Y-8067357D01*
X16588443Y-8038786D01*
X16602728Y-8024500D01*
X16631300Y-8010214D01*
X16674157Y-8010214D01*
X16702728Y-8024500D01*
X16717014Y-8038786D01*
X16731300Y-8067357D01*
X16731300Y-8153071D01*
X16717014Y-8181643D01*
X16702728Y-8195929D01*
X16674157Y-8210214D01*
X16631300Y-8210214D01*
X16902728Y-8210214D02*
X16874157Y-8195929D01*
X16859871Y-8167357D01*
X16859871Y-7910214D01*
X17131300Y-8195929D02*
X17102728Y-8210214D01*
X17045586Y-8210214D01*
X17017014Y-8195929D01*
X17002728Y-8167357D01*
X17002728Y-8053071D01*
X17017014Y-8024500D01*
X17045586Y-8010214D01*
X17102728Y-8010214D01*
X17131300Y-8024500D01*
X17145586Y-8053071D01*
X17145586Y-8081643D01*
X17002728Y-8110214D01*
X17259871Y-8195929D02*
X17288443Y-8210214D01*
X17345586Y-8210214D01*
X17374157Y-8195929D01*
X17388443Y-8167357D01*
X17388443Y-8153071D01*
X17374157Y-8124500D01*
X17345586Y-8110214D01*
X17302728Y-8110214D01*
X17274157Y-8095929D01*
X17259871Y-8067357D01*
X17259871Y-8053071D01*
X17274157Y-8024500D01*
X17302728Y-8010214D01*
X17345586Y-8010214D01*
X17374157Y-8024500D01*
X17488443Y-8324500D02*
X17502728Y-8310214D01*
X17531300Y-8267357D01*
X17545586Y-8238786D01*
X17559871Y-8195929D01*
X17574157Y-8124500D01*
X17574157Y-8067357D01*
X17559871Y-7995929D01*
X17545586Y-7953071D01*
X17531300Y-7924500D01*
X17502728Y-7881643D01*
X17488443Y-7867357D01*
M02*
