G04 #@! TF.GenerationSoftware,KiCad,Pcbnew,(5.1.2-1)-1*
G04 #@! TF.CreationDate,2019-08-09T08:25:00-04:00*
G04 #@! TF.ProjectId,siot-node-current-clamp,73696f74-2d6e-46f6-9465-2d6375727265,rev?*
G04 #@! TF.SameCoordinates,Original*
G04 #@! TF.FileFunction,Legend,Top*
G04 #@! TF.FilePolarity,Positive*
%FSLAX46Y46*%
G04 Gerber Fmt 4.6, Leading zero omitted, Abs format (unit mm)*
G04 Created by KiCad (PCBNEW (5.1.2-1)-1) date 2019-08-09 08:25:00*
%MOMM*%
%LPD*%
G04 APERTURE LIST*
%ADD10C,0.120000*%
%ADD11C,0.150000*%
G04 APERTURE END LIST*
D10*
X118364000Y-69108000D02*
X121814000Y-69108000D01*
X118364000Y-69108000D02*
X116414000Y-69108000D01*
X118364000Y-63988000D02*
X120314000Y-63988000D01*
X118364000Y-63988000D02*
X116414000Y-63988000D01*
X128330000Y-64195000D02*
X128330000Y-65465000D01*
X125670000Y-64195000D02*
X125670000Y-65465000D01*
X125670000Y-56455000D02*
X127000000Y-56455000D01*
X125670000Y-57785000D02*
X125670000Y-56455000D01*
X125670000Y-59055000D02*
X128330000Y-59055000D01*
X128330000Y-59055000D02*
X128330000Y-64195000D01*
X125670000Y-59055000D02*
X125670000Y-64195000D01*
X125670000Y-65465000D02*
X128330000Y-65465000D01*
X110550000Y-64195000D02*
X110550000Y-65465000D01*
X107890000Y-64195000D02*
X107890000Y-65465000D01*
X107890000Y-56455000D02*
X109220000Y-56455000D01*
X107890000Y-57785000D02*
X107890000Y-56455000D01*
X107890000Y-59055000D02*
X110550000Y-59055000D01*
X110550000Y-59055000D02*
X110550000Y-64195000D01*
X107890000Y-59055000D02*
X107890000Y-64195000D01*
X107890000Y-65465000D02*
X110550000Y-65465000D01*
X120710000Y-52070000D02*
X120710000Y-53400000D01*
X120710000Y-53400000D02*
X119380000Y-53400000D01*
X118110000Y-53400000D02*
X115510000Y-53400000D01*
X115510000Y-50740000D02*
X115510000Y-53400000D01*
X118110000Y-50740000D02*
X115510000Y-50740000D01*
X118110000Y-50740000D02*
X118110000Y-53400000D01*
X118364000Y-60980000D02*
X121814000Y-60980000D01*
X118364000Y-60980000D02*
X116414000Y-60980000D01*
X118364000Y-55860000D02*
X120314000Y-55860000D01*
X118364000Y-55860000D02*
X116414000Y-55860000D01*
X123352779Y-51560000D02*
X123027221Y-51560000D01*
X123352779Y-52580000D02*
X123027221Y-52580000D01*
X124970000Y-67498279D02*
X124970000Y-67172721D01*
X123950000Y-67498279D02*
X123950000Y-67172721D01*
X113286000Y-67498279D02*
X113286000Y-67172721D01*
X112266000Y-67498279D02*
X112266000Y-67172721D01*
X125855000Y-52440721D02*
X125855000Y-52766279D01*
X126875000Y-52440721D02*
X126875000Y-52766279D01*
D11*
X119126095Y-62444380D02*
X119126095Y-63253904D01*
X119173714Y-63349142D01*
X119221333Y-63396761D01*
X119316571Y-63444380D01*
X119507047Y-63444380D01*
X119602285Y-63396761D01*
X119649904Y-63349142D01*
X119697523Y-63253904D01*
X119697523Y-62444380D01*
X120697523Y-63444380D02*
X120126095Y-63444380D01*
X120411809Y-63444380D02*
X120411809Y-62444380D01*
X120316571Y-62587238D01*
X120221333Y-62682476D01*
X120126095Y-62730095D01*
X126666666Y-54907380D02*
X126666666Y-55621666D01*
X126619047Y-55764523D01*
X126523809Y-55859761D01*
X126380952Y-55907380D01*
X126285714Y-55907380D01*
X127047619Y-54907380D02*
X127666666Y-54907380D01*
X127333333Y-55288333D01*
X127476190Y-55288333D01*
X127571428Y-55335952D01*
X127619047Y-55383571D01*
X127666666Y-55478809D01*
X127666666Y-55716904D01*
X127619047Y-55812142D01*
X127571428Y-55859761D01*
X127476190Y-55907380D01*
X127190476Y-55907380D01*
X127095238Y-55859761D01*
X127047619Y-55812142D01*
X108886666Y-54907380D02*
X108886666Y-55621666D01*
X108839047Y-55764523D01*
X108743809Y-55859761D01*
X108600952Y-55907380D01*
X108505714Y-55907380D01*
X109886666Y-55907380D02*
X109315238Y-55907380D01*
X109600952Y-55907380D02*
X109600952Y-54907380D01*
X109505714Y-55050238D01*
X109410476Y-55145476D01*
X109315238Y-55193095D01*
X121602380Y-52403333D02*
X122316666Y-52403333D01*
X122459523Y-52450952D01*
X122554761Y-52546190D01*
X122602380Y-52689047D01*
X122602380Y-52784285D01*
X121697619Y-51974761D02*
X121650000Y-51927142D01*
X121602380Y-51831904D01*
X121602380Y-51593809D01*
X121650000Y-51498571D01*
X121697619Y-51450952D01*
X121792857Y-51403333D01*
X121888095Y-51403333D01*
X122030952Y-51450952D01*
X122602380Y-52022380D01*
X122602380Y-51403333D01*
X114554095Y-54316380D02*
X114554095Y-55125904D01*
X114601714Y-55221142D01*
X114649333Y-55268761D01*
X114744571Y-55316380D01*
X114935047Y-55316380D01*
X115030285Y-55268761D01*
X115077904Y-55221142D01*
X115125523Y-55125904D01*
X115125523Y-54316380D01*
X115554095Y-54411619D02*
X115601714Y-54364000D01*
X115696952Y-54316380D01*
X115935047Y-54316380D01*
X116030285Y-54364000D01*
X116077904Y-54411619D01*
X116125523Y-54506857D01*
X116125523Y-54602095D01*
X116077904Y-54744952D01*
X115506476Y-55316380D01*
X116125523Y-55316380D01*
X123023333Y-53952380D02*
X122690000Y-53476190D01*
X122451904Y-53952380D02*
X122451904Y-52952380D01*
X122832857Y-52952380D01*
X122928095Y-53000000D01*
X122975714Y-53047619D01*
X123023333Y-53142857D01*
X123023333Y-53285714D01*
X122975714Y-53380952D01*
X122928095Y-53428571D01*
X122832857Y-53476190D01*
X122451904Y-53476190D01*
X123975714Y-53952380D02*
X123404285Y-53952380D01*
X123690000Y-53952380D02*
X123690000Y-52952380D01*
X123594761Y-53095238D01*
X123499523Y-53190476D01*
X123404285Y-53238095D01*
X126325333Y-67413142D02*
X126277714Y-67460761D01*
X126134857Y-67508380D01*
X126039619Y-67508380D01*
X125896761Y-67460761D01*
X125801523Y-67365523D01*
X125753904Y-67270285D01*
X125706285Y-67079809D01*
X125706285Y-66936952D01*
X125753904Y-66746476D01*
X125801523Y-66651238D01*
X125896761Y-66556000D01*
X126039619Y-66508380D01*
X126134857Y-66508380D01*
X126277714Y-66556000D01*
X126325333Y-66603619D01*
X126658666Y-66508380D02*
X127277714Y-66508380D01*
X126944380Y-66889333D01*
X127087238Y-66889333D01*
X127182476Y-66936952D01*
X127230095Y-66984571D01*
X127277714Y-67079809D01*
X127277714Y-67317904D01*
X127230095Y-67413142D01*
X127182476Y-67460761D01*
X127087238Y-67508380D01*
X126801523Y-67508380D01*
X126706285Y-67460761D01*
X126658666Y-67413142D01*
X110577333Y-68429142D02*
X110529714Y-68476761D01*
X110386857Y-68524380D01*
X110291619Y-68524380D01*
X110148761Y-68476761D01*
X110053523Y-68381523D01*
X110005904Y-68286285D01*
X109958285Y-68095809D01*
X109958285Y-67952952D01*
X110005904Y-67762476D01*
X110053523Y-67667238D01*
X110148761Y-67572000D01*
X110291619Y-67524380D01*
X110386857Y-67524380D01*
X110529714Y-67572000D01*
X110577333Y-67619619D01*
X110958285Y-67619619D02*
X111005904Y-67572000D01*
X111101142Y-67524380D01*
X111339238Y-67524380D01*
X111434476Y-67572000D01*
X111482095Y-67619619D01*
X111529714Y-67714857D01*
X111529714Y-67810095D01*
X111482095Y-67952952D01*
X110910666Y-68524380D01*
X111529714Y-68524380D01*
X127849333Y-52960642D02*
X127801714Y-53008261D01*
X127658857Y-53055880D01*
X127563619Y-53055880D01*
X127420761Y-53008261D01*
X127325523Y-52913023D01*
X127277904Y-52817785D01*
X127230285Y-52627309D01*
X127230285Y-52484452D01*
X127277904Y-52293976D01*
X127325523Y-52198738D01*
X127420761Y-52103500D01*
X127563619Y-52055880D01*
X127658857Y-52055880D01*
X127801714Y-52103500D01*
X127849333Y-52151119D01*
X128801714Y-53055880D02*
X128230285Y-53055880D01*
X128516000Y-53055880D02*
X128516000Y-52055880D01*
X128420761Y-52198738D01*
X128325523Y-52293976D01*
X128230285Y-52341595D01*
M02*
