G04 #@! TF.GenerationSoftware,KiCad,Pcbnew,5.1.4*
G04 #@! TF.CreationDate,2019-08-27T15:50:40-04:00*
G04 #@! TF.ProjectId,siot-node-current-clamp,73696f74-2d6e-46f6-9465-2d6375727265,rev?*
G04 #@! TF.SameCoordinates,Original*
G04 #@! TF.FileFunction,Legend,Top*
G04 #@! TF.FilePolarity,Positive*
%FSLAX46Y46*%
G04 Gerber Fmt 4.6, Leading zero omitted, Abs format (unit mm)*
G04 Created by KiCad (PCBNEW 5.1.4) date 2019-08-27 15:50:40*
%MOMM*%
%LPD*%
G04 APERTURE LIST*
%ADD10C,0.120000*%
%ADD11C,0.150000*%
G04 APERTURE END LIST*
D10*
X107820000Y-59775000D02*
X107820000Y-62205000D01*
X110890000Y-61535000D02*
X110890000Y-59775000D01*
X118530000Y-56505000D02*
X119860000Y-56505000D01*
X118530000Y-57835000D02*
X118530000Y-56505000D01*
X113930000Y-56055000D02*
X113930000Y-54725000D01*
X115260000Y-56055000D02*
X113930000Y-56055000D01*
X113780000Y-56505000D02*
X115110000Y-56505000D01*
X113780000Y-57835000D02*
X113780000Y-56505000D01*
X124980000Y-56365000D02*
X128430000Y-56365000D01*
X124980000Y-56365000D02*
X123030000Y-56365000D01*
X124980000Y-51245000D02*
X126930000Y-51245000D01*
X124980000Y-51245000D02*
X123030000Y-51245000D01*
X111554721Y-53165000D02*
X111880279Y-53165000D01*
X111554721Y-52145000D02*
X111880279Y-52145000D01*
X126167221Y-57965000D02*
X126492779Y-57965000D01*
X126167221Y-56945000D02*
X126492779Y-56945000D01*
X109292779Y-63345000D02*
X108967221Y-63345000D01*
X109292779Y-64365000D02*
X108967221Y-64365000D01*
X110420000Y-54904721D02*
X110420000Y-55230279D01*
X111440000Y-54904721D02*
X111440000Y-55230279D01*
D11*
X108368095Y-56907380D02*
X108368095Y-57716904D01*
X108415714Y-57812142D01*
X108463333Y-57859761D01*
X108558571Y-57907380D01*
X108749047Y-57907380D01*
X108844285Y-57859761D01*
X108891904Y-57812142D01*
X108939523Y-57716904D01*
X108939523Y-56907380D01*
X109939523Y-57907380D02*
X109368095Y-57907380D01*
X109653809Y-57907380D02*
X109653809Y-56907380D01*
X109558571Y-57050238D01*
X109463333Y-57145476D01*
X109368095Y-57193095D01*
X123396666Y-65507380D02*
X123396666Y-66221666D01*
X123349047Y-66364523D01*
X123253809Y-66459761D01*
X123110952Y-66507380D01*
X123015714Y-66507380D01*
X123777619Y-65507380D02*
X124396666Y-65507380D01*
X124063333Y-65888333D01*
X124206190Y-65888333D01*
X124301428Y-65935952D01*
X124349047Y-65983571D01*
X124396666Y-66078809D01*
X124396666Y-66316904D01*
X124349047Y-66412142D01*
X124301428Y-66459761D01*
X124206190Y-66507380D01*
X123920476Y-66507380D01*
X123825238Y-66459761D01*
X123777619Y-66412142D01*
X123801428Y-68633571D02*
X123944285Y-68681190D01*
X123991904Y-68728809D01*
X124039523Y-68824047D01*
X124039523Y-68966904D01*
X123991904Y-69062142D01*
X123944285Y-69109761D01*
X123849047Y-69157380D01*
X123468095Y-69157380D01*
X123468095Y-68157380D01*
X123801428Y-68157380D01*
X123896666Y-68205000D01*
X123944285Y-68252619D01*
X123991904Y-68347857D01*
X123991904Y-68443095D01*
X123944285Y-68538333D01*
X123896666Y-68585952D01*
X123801428Y-68633571D01*
X123468095Y-68633571D01*
X123930000Y-63581190D02*
X123930000Y-64057380D01*
X123596666Y-63057380D02*
X123930000Y-63581190D01*
X124263333Y-63057380D01*
X124139523Y-59157380D02*
X123806190Y-58681190D01*
X123568095Y-59157380D02*
X123568095Y-58157380D01*
X123949047Y-58157380D01*
X124044285Y-58205000D01*
X124091904Y-58252619D01*
X124139523Y-58347857D01*
X124139523Y-58490714D01*
X124091904Y-58585952D01*
X124044285Y-58633571D01*
X123949047Y-58681190D01*
X123568095Y-58681190D01*
X115196666Y-51107380D02*
X115196666Y-51821666D01*
X115149047Y-51964523D01*
X115053809Y-52059761D01*
X114910952Y-52107380D01*
X114815714Y-52107380D01*
X115625238Y-51202619D02*
X115672857Y-51155000D01*
X115768095Y-51107380D01*
X116006190Y-51107380D01*
X116101428Y-51155000D01*
X116149047Y-51202619D01*
X116196666Y-51297857D01*
X116196666Y-51393095D01*
X116149047Y-51535952D01*
X115577619Y-52107380D01*
X116196666Y-52107380D01*
X112796666Y-65507380D02*
X112796666Y-66221666D01*
X112749047Y-66364523D01*
X112653809Y-66459761D01*
X112510952Y-66507380D01*
X112415714Y-66507380D01*
X113796666Y-66507380D02*
X113225238Y-66507380D01*
X113510952Y-66507380D02*
X113510952Y-65507380D01*
X113415714Y-65650238D01*
X113320476Y-65745476D01*
X113225238Y-65793095D01*
X113201428Y-68633571D02*
X113344285Y-68681190D01*
X113391904Y-68728809D01*
X113439523Y-68824047D01*
X113439523Y-68966904D01*
X113391904Y-69062142D01*
X113344285Y-69109761D01*
X113249047Y-69157380D01*
X112868095Y-69157380D01*
X112868095Y-68157380D01*
X113201428Y-68157380D01*
X113296666Y-68205000D01*
X113344285Y-68252619D01*
X113391904Y-68347857D01*
X113391904Y-68443095D01*
X113344285Y-68538333D01*
X113296666Y-68585952D01*
X113201428Y-68633571D01*
X112868095Y-68633571D01*
X113130000Y-63831190D02*
X113130000Y-64307380D01*
X112796666Y-63307380D02*
X113130000Y-63831190D01*
X113463333Y-63307380D01*
X113639523Y-59157380D02*
X113306190Y-58681190D01*
X113068095Y-59157380D02*
X113068095Y-58157380D01*
X113449047Y-58157380D01*
X113544285Y-58205000D01*
X113591904Y-58252619D01*
X113639523Y-58347857D01*
X113639523Y-58490714D01*
X113591904Y-58585952D01*
X113544285Y-58633571D01*
X113449047Y-58681190D01*
X113068095Y-58681190D01*
X119568095Y-50507380D02*
X119568095Y-51316904D01*
X119615714Y-51412142D01*
X119663333Y-51459761D01*
X119758571Y-51507380D01*
X119949047Y-51507380D01*
X120044285Y-51459761D01*
X120091904Y-51412142D01*
X120139523Y-51316904D01*
X120139523Y-50507380D01*
X120568095Y-50602619D02*
X120615714Y-50555000D01*
X120710952Y-50507380D01*
X120949047Y-50507380D01*
X121044285Y-50555000D01*
X121091904Y-50602619D01*
X121139523Y-50697857D01*
X121139523Y-50793095D01*
X121091904Y-50935952D01*
X120520476Y-51507380D01*
X121139523Y-51507380D01*
X111550833Y-51677380D02*
X111217500Y-51201190D01*
X110979404Y-51677380D02*
X110979404Y-50677380D01*
X111360357Y-50677380D01*
X111455595Y-50725000D01*
X111503214Y-50772619D01*
X111550833Y-50867857D01*
X111550833Y-51010714D01*
X111503214Y-51105952D01*
X111455595Y-51153571D01*
X111360357Y-51201190D01*
X110979404Y-51201190D01*
X112503214Y-51677380D02*
X111931785Y-51677380D01*
X112217500Y-51677380D02*
X112217500Y-50677380D01*
X112122261Y-50820238D01*
X112027023Y-50915476D01*
X111931785Y-50963095D01*
X126442833Y-59844142D02*
X126395214Y-59891761D01*
X126252357Y-59939380D01*
X126157119Y-59939380D01*
X126014261Y-59891761D01*
X125919023Y-59796523D01*
X125871404Y-59701285D01*
X125823785Y-59510809D01*
X125823785Y-59367952D01*
X125871404Y-59177476D01*
X125919023Y-59082238D01*
X126014261Y-58987000D01*
X126157119Y-58939380D01*
X126252357Y-58939380D01*
X126395214Y-58987000D01*
X126442833Y-59034619D01*
X126776166Y-58939380D02*
X127395214Y-58939380D01*
X127061880Y-59320333D01*
X127204738Y-59320333D01*
X127299976Y-59367952D01*
X127347595Y-59415571D01*
X127395214Y-59510809D01*
X127395214Y-59748904D01*
X127347595Y-59844142D01*
X127299976Y-59891761D01*
X127204738Y-59939380D01*
X126919023Y-59939380D01*
X126823785Y-59891761D01*
X126776166Y-59844142D01*
X109699833Y-66244142D02*
X109652214Y-66291761D01*
X109509357Y-66339380D01*
X109414119Y-66339380D01*
X109271261Y-66291761D01*
X109176023Y-66196523D01*
X109128404Y-66101285D01*
X109080785Y-65910809D01*
X109080785Y-65767952D01*
X109128404Y-65577476D01*
X109176023Y-65482238D01*
X109271261Y-65387000D01*
X109414119Y-65339380D01*
X109509357Y-65339380D01*
X109652214Y-65387000D01*
X109699833Y-65434619D01*
X110080785Y-65434619D02*
X110128404Y-65387000D01*
X110223642Y-65339380D01*
X110461738Y-65339380D01*
X110556976Y-65387000D01*
X110604595Y-65434619D01*
X110652214Y-65529857D01*
X110652214Y-65625095D01*
X110604595Y-65767952D01*
X110033166Y-66339380D01*
X110652214Y-66339380D01*
X112414333Y-55424642D02*
X112366714Y-55472261D01*
X112223857Y-55519880D01*
X112128619Y-55519880D01*
X111985761Y-55472261D01*
X111890523Y-55377023D01*
X111842904Y-55281785D01*
X111795285Y-55091309D01*
X111795285Y-54948452D01*
X111842904Y-54757976D01*
X111890523Y-54662738D01*
X111985761Y-54567500D01*
X112128619Y-54519880D01*
X112223857Y-54519880D01*
X112366714Y-54567500D01*
X112414333Y-54615119D01*
X113366714Y-55519880D02*
X112795285Y-55519880D01*
X113081000Y-55519880D02*
X113081000Y-54519880D01*
X112985761Y-54662738D01*
X112890523Y-54757976D01*
X112795285Y-54805595D01*
M02*
