G04 #@! TF.GenerationSoftware,KiCad,Pcbnew,(5.1.2-1)-1*
G04 #@! TF.CreationDate,2019-08-09T08:25:00-04:00*
G04 #@! TF.ProjectId,siot-node-current-clamp,73696f74-2d6e-46f6-9465-2d6375727265,rev?*
G04 #@! TF.SameCoordinates,Original*
G04 #@! TF.FileFunction,Soldermask,Top*
G04 #@! TF.FilePolarity,Negative*
%FSLAX46Y46*%
G04 Gerber Fmt 4.6, Leading zero omitted, Abs format (unit mm)*
G04 Created by KiCad (PCBNEW (5.1.2-1)-1) date 2019-08-09 08:25:00*
%MOMM*%
%LPD*%
G04 APERTURE LIST*
%ADD10C,0.100000*%
G04 APERTURE END LIST*
D10*
G36*
X121773928Y-68104764D02*
G01*
X121795009Y-68111160D01*
X121814445Y-68121548D01*
X121831476Y-68135524D01*
X121845452Y-68152555D01*
X121855840Y-68171991D01*
X121862236Y-68193072D01*
X121865000Y-68221140D01*
X121865000Y-68684860D01*
X121862236Y-68712928D01*
X121855840Y-68734009D01*
X121845452Y-68753445D01*
X121831476Y-68770476D01*
X121814445Y-68784452D01*
X121795009Y-68794840D01*
X121773928Y-68801236D01*
X121745860Y-68804000D01*
X119932140Y-68804000D01*
X119904072Y-68801236D01*
X119882991Y-68794840D01*
X119863555Y-68784452D01*
X119846524Y-68770476D01*
X119832548Y-68753445D01*
X119822160Y-68734009D01*
X119815764Y-68712928D01*
X119813000Y-68684860D01*
X119813000Y-68221140D01*
X119815764Y-68193072D01*
X119822160Y-68171991D01*
X119832548Y-68152555D01*
X119846524Y-68135524D01*
X119863555Y-68121548D01*
X119882991Y-68111160D01*
X119904072Y-68104764D01*
X119932140Y-68102000D01*
X121745860Y-68102000D01*
X121773928Y-68104764D01*
X121773928Y-68104764D01*
G37*
G36*
X116823928Y-68104764D02*
G01*
X116845009Y-68111160D01*
X116864445Y-68121548D01*
X116881476Y-68135524D01*
X116895452Y-68152555D01*
X116905840Y-68171991D01*
X116912236Y-68193072D01*
X116915000Y-68221140D01*
X116915000Y-68684860D01*
X116912236Y-68712928D01*
X116905840Y-68734009D01*
X116895452Y-68753445D01*
X116881476Y-68770476D01*
X116864445Y-68784452D01*
X116845009Y-68794840D01*
X116823928Y-68801236D01*
X116795860Y-68804000D01*
X114982140Y-68804000D01*
X114954072Y-68801236D01*
X114932991Y-68794840D01*
X114913555Y-68784452D01*
X114896524Y-68770476D01*
X114882548Y-68753445D01*
X114872160Y-68734009D01*
X114865764Y-68712928D01*
X114863000Y-68684860D01*
X114863000Y-68221140D01*
X114865764Y-68193072D01*
X114872160Y-68171991D01*
X114882548Y-68152555D01*
X114896524Y-68135524D01*
X114913555Y-68121548D01*
X114932991Y-68111160D01*
X114954072Y-68104764D01*
X114982140Y-68102000D01*
X116795860Y-68102000D01*
X116823928Y-68104764D01*
X116823928Y-68104764D01*
G37*
G36*
X113155591Y-67638585D02*
G01*
X113189569Y-67648893D01*
X113220890Y-67665634D01*
X113248339Y-67688161D01*
X113270866Y-67715610D01*
X113287607Y-67746931D01*
X113297915Y-67780909D01*
X113302000Y-67822390D01*
X113302000Y-68423610D01*
X113297915Y-68465091D01*
X113287607Y-68499069D01*
X113270866Y-68530390D01*
X113248339Y-68557839D01*
X113220890Y-68580366D01*
X113189569Y-68597107D01*
X113155591Y-68607415D01*
X113114110Y-68611500D01*
X112437890Y-68611500D01*
X112396409Y-68607415D01*
X112362431Y-68597107D01*
X112331110Y-68580366D01*
X112303661Y-68557839D01*
X112281134Y-68530390D01*
X112264393Y-68499069D01*
X112254085Y-68465091D01*
X112250000Y-68423610D01*
X112250000Y-67822390D01*
X112254085Y-67780909D01*
X112264393Y-67746931D01*
X112281134Y-67715610D01*
X112303661Y-67688161D01*
X112331110Y-67665634D01*
X112362431Y-67648893D01*
X112396409Y-67638585D01*
X112437890Y-67634500D01*
X113114110Y-67634500D01*
X113155591Y-67638585D01*
X113155591Y-67638585D01*
G37*
G36*
X124839591Y-67638585D02*
G01*
X124873569Y-67648893D01*
X124904890Y-67665634D01*
X124932339Y-67688161D01*
X124954866Y-67715610D01*
X124971607Y-67746931D01*
X124981915Y-67780909D01*
X124986000Y-67822390D01*
X124986000Y-68423610D01*
X124981915Y-68465091D01*
X124971607Y-68499069D01*
X124954866Y-68530390D01*
X124932339Y-68557839D01*
X124904890Y-68580366D01*
X124873569Y-68597107D01*
X124839591Y-68607415D01*
X124798110Y-68611500D01*
X124121890Y-68611500D01*
X124080409Y-68607415D01*
X124046431Y-68597107D01*
X124015110Y-68580366D01*
X123987661Y-68557839D01*
X123965134Y-68530390D01*
X123948393Y-68499069D01*
X123938085Y-68465091D01*
X123934000Y-68423610D01*
X123934000Y-67822390D01*
X123938085Y-67780909D01*
X123948393Y-67746931D01*
X123965134Y-67715610D01*
X123987661Y-67688161D01*
X124015110Y-67665634D01*
X124046431Y-67648893D01*
X124080409Y-67638585D01*
X124121890Y-67634500D01*
X124798110Y-67634500D01*
X124839591Y-67638585D01*
X124839591Y-67638585D01*
G37*
G36*
X121773928Y-66834764D02*
G01*
X121795009Y-66841160D01*
X121814445Y-66851548D01*
X121831476Y-66865524D01*
X121845452Y-66882555D01*
X121855840Y-66901991D01*
X121862236Y-66923072D01*
X121865000Y-66951140D01*
X121865000Y-67414860D01*
X121862236Y-67442928D01*
X121855840Y-67464009D01*
X121845452Y-67483445D01*
X121831476Y-67500476D01*
X121814445Y-67514452D01*
X121795009Y-67524840D01*
X121773928Y-67531236D01*
X121745860Y-67534000D01*
X119932140Y-67534000D01*
X119904072Y-67531236D01*
X119882991Y-67524840D01*
X119863555Y-67514452D01*
X119846524Y-67500476D01*
X119832548Y-67483445D01*
X119822160Y-67464009D01*
X119815764Y-67442928D01*
X119813000Y-67414860D01*
X119813000Y-66951140D01*
X119815764Y-66923072D01*
X119822160Y-66901991D01*
X119832548Y-66882555D01*
X119846524Y-66865524D01*
X119863555Y-66851548D01*
X119882991Y-66841160D01*
X119904072Y-66834764D01*
X119932140Y-66832000D01*
X121745860Y-66832000D01*
X121773928Y-66834764D01*
X121773928Y-66834764D01*
G37*
G36*
X116823928Y-66834764D02*
G01*
X116845009Y-66841160D01*
X116864445Y-66851548D01*
X116881476Y-66865524D01*
X116895452Y-66882555D01*
X116905840Y-66901991D01*
X116912236Y-66923072D01*
X116915000Y-66951140D01*
X116915000Y-67414860D01*
X116912236Y-67442928D01*
X116905840Y-67464009D01*
X116895452Y-67483445D01*
X116881476Y-67500476D01*
X116864445Y-67514452D01*
X116845009Y-67524840D01*
X116823928Y-67531236D01*
X116795860Y-67534000D01*
X114982140Y-67534000D01*
X114954072Y-67531236D01*
X114932991Y-67524840D01*
X114913555Y-67514452D01*
X114896524Y-67500476D01*
X114882548Y-67483445D01*
X114872160Y-67464009D01*
X114865764Y-67442928D01*
X114863000Y-67414860D01*
X114863000Y-66951140D01*
X114865764Y-66923072D01*
X114872160Y-66901991D01*
X114882548Y-66882555D01*
X114896524Y-66865524D01*
X114913555Y-66851548D01*
X114932991Y-66841160D01*
X114954072Y-66834764D01*
X114982140Y-66832000D01*
X116795860Y-66832000D01*
X116823928Y-66834764D01*
X116823928Y-66834764D01*
G37*
G36*
X124839591Y-66063585D02*
G01*
X124873569Y-66073893D01*
X124904890Y-66090634D01*
X124932339Y-66113161D01*
X124954866Y-66140610D01*
X124971607Y-66171931D01*
X124981915Y-66205909D01*
X124986000Y-66247390D01*
X124986000Y-66848610D01*
X124981915Y-66890091D01*
X124971607Y-66924069D01*
X124954866Y-66955390D01*
X124932339Y-66982839D01*
X124904890Y-67005366D01*
X124873569Y-67022107D01*
X124839591Y-67032415D01*
X124798110Y-67036500D01*
X124121890Y-67036500D01*
X124080409Y-67032415D01*
X124046431Y-67022107D01*
X124015110Y-67005366D01*
X123987661Y-66982839D01*
X123965134Y-66955390D01*
X123948393Y-66924069D01*
X123938085Y-66890091D01*
X123934000Y-66848610D01*
X123934000Y-66247390D01*
X123938085Y-66205909D01*
X123948393Y-66171931D01*
X123965134Y-66140610D01*
X123987661Y-66113161D01*
X124015110Y-66090634D01*
X124046431Y-66073893D01*
X124080409Y-66063585D01*
X124121890Y-66059500D01*
X124798110Y-66059500D01*
X124839591Y-66063585D01*
X124839591Y-66063585D01*
G37*
G36*
X113155591Y-66063585D02*
G01*
X113189569Y-66073893D01*
X113220890Y-66090634D01*
X113248339Y-66113161D01*
X113270866Y-66140610D01*
X113287607Y-66171931D01*
X113297915Y-66205909D01*
X113302000Y-66247390D01*
X113302000Y-66848610D01*
X113297915Y-66890091D01*
X113287607Y-66924069D01*
X113270866Y-66955390D01*
X113248339Y-66982839D01*
X113220890Y-67005366D01*
X113189569Y-67022107D01*
X113155591Y-67032415D01*
X113114110Y-67036500D01*
X112437890Y-67036500D01*
X112396409Y-67032415D01*
X112362431Y-67022107D01*
X112331110Y-67005366D01*
X112303661Y-66982839D01*
X112281134Y-66955390D01*
X112264393Y-66924069D01*
X112254085Y-66890091D01*
X112250000Y-66848610D01*
X112250000Y-66247390D01*
X112254085Y-66205909D01*
X112264393Y-66171931D01*
X112281134Y-66140610D01*
X112303661Y-66113161D01*
X112331110Y-66090634D01*
X112362431Y-66073893D01*
X112396409Y-66063585D01*
X112437890Y-66059500D01*
X113114110Y-66059500D01*
X113155591Y-66063585D01*
X113155591Y-66063585D01*
G37*
G36*
X116823928Y-65564764D02*
G01*
X116845009Y-65571160D01*
X116864445Y-65581548D01*
X116881476Y-65595524D01*
X116895452Y-65612555D01*
X116905840Y-65631991D01*
X116912236Y-65653072D01*
X116915000Y-65681140D01*
X116915000Y-66144860D01*
X116912236Y-66172928D01*
X116905840Y-66194009D01*
X116895452Y-66213445D01*
X116881476Y-66230476D01*
X116864445Y-66244452D01*
X116845009Y-66254840D01*
X116823928Y-66261236D01*
X116795860Y-66264000D01*
X114982140Y-66264000D01*
X114954072Y-66261236D01*
X114932991Y-66254840D01*
X114913555Y-66244452D01*
X114896524Y-66230476D01*
X114882548Y-66213445D01*
X114872160Y-66194009D01*
X114865764Y-66172928D01*
X114863000Y-66144860D01*
X114863000Y-65681140D01*
X114865764Y-65653072D01*
X114872160Y-65631991D01*
X114882548Y-65612555D01*
X114896524Y-65595524D01*
X114913555Y-65581548D01*
X114932991Y-65571160D01*
X114954072Y-65564764D01*
X114982140Y-65562000D01*
X116795860Y-65562000D01*
X116823928Y-65564764D01*
X116823928Y-65564764D01*
G37*
G36*
X121773928Y-65564764D02*
G01*
X121795009Y-65571160D01*
X121814445Y-65581548D01*
X121831476Y-65595524D01*
X121845452Y-65612555D01*
X121855840Y-65631991D01*
X121862236Y-65653072D01*
X121865000Y-65681140D01*
X121865000Y-66144860D01*
X121862236Y-66172928D01*
X121855840Y-66194009D01*
X121845452Y-66213445D01*
X121831476Y-66230476D01*
X121814445Y-66244452D01*
X121795009Y-66254840D01*
X121773928Y-66261236D01*
X121745860Y-66264000D01*
X119932140Y-66264000D01*
X119904072Y-66261236D01*
X119882991Y-66254840D01*
X119863555Y-66244452D01*
X119846524Y-66230476D01*
X119832548Y-66213445D01*
X119822160Y-66194009D01*
X119815764Y-66172928D01*
X119813000Y-66144860D01*
X119813000Y-65681140D01*
X119815764Y-65653072D01*
X119822160Y-65631991D01*
X119832548Y-65612555D01*
X119846524Y-65595524D01*
X119863555Y-65581548D01*
X119882991Y-65571160D01*
X119904072Y-65564764D01*
X119932140Y-65562000D01*
X121745860Y-65562000D01*
X121773928Y-65564764D01*
X121773928Y-65564764D01*
G37*
G36*
X127115114Y-63074176D02*
G01*
X127209168Y-63083439D01*
X127410299Y-63144451D01*
X127496110Y-63190318D01*
X127595661Y-63243529D01*
X127758133Y-63376867D01*
X127891471Y-63539339D01*
X127944682Y-63638890D01*
X127990549Y-63724701D01*
X128051561Y-63925832D01*
X128072162Y-64135000D01*
X128051561Y-64344168D01*
X127990549Y-64545299D01*
X127944682Y-64631110D01*
X127891471Y-64730661D01*
X127758133Y-64893133D01*
X127595661Y-65026471D01*
X127496110Y-65079682D01*
X127410299Y-65125549D01*
X127209168Y-65186561D01*
X127115114Y-65195824D01*
X127052413Y-65202000D01*
X126947587Y-65202000D01*
X126884886Y-65195824D01*
X126790832Y-65186561D01*
X126589701Y-65125549D01*
X126503890Y-65079682D01*
X126404339Y-65026471D01*
X126241867Y-64893133D01*
X126108529Y-64730661D01*
X126055318Y-64631110D01*
X126009451Y-64545299D01*
X125948439Y-64344168D01*
X125927838Y-64135000D01*
X125948439Y-63925832D01*
X126009451Y-63724701D01*
X126055318Y-63638890D01*
X126108529Y-63539339D01*
X126241867Y-63376867D01*
X126404339Y-63243529D01*
X126503890Y-63190318D01*
X126589701Y-63144451D01*
X126790832Y-63083439D01*
X126884886Y-63074176D01*
X126947587Y-63068000D01*
X127052413Y-63068000D01*
X127115114Y-63074176D01*
X127115114Y-63074176D01*
G37*
G36*
X109335114Y-63074176D02*
G01*
X109429168Y-63083439D01*
X109630299Y-63144451D01*
X109716110Y-63190318D01*
X109815661Y-63243529D01*
X109978133Y-63376867D01*
X110111471Y-63539339D01*
X110164682Y-63638890D01*
X110210549Y-63724701D01*
X110271561Y-63925832D01*
X110292162Y-64135000D01*
X110271561Y-64344168D01*
X110210549Y-64545299D01*
X110164682Y-64631110D01*
X110111471Y-64730661D01*
X109978133Y-64893133D01*
X109815661Y-65026471D01*
X109716110Y-65079682D01*
X109630299Y-65125549D01*
X109429168Y-65186561D01*
X109335114Y-65195824D01*
X109272413Y-65202000D01*
X109167587Y-65202000D01*
X109104886Y-65195824D01*
X109010832Y-65186561D01*
X108809701Y-65125549D01*
X108723890Y-65079682D01*
X108624339Y-65026471D01*
X108461867Y-64893133D01*
X108328529Y-64730661D01*
X108275318Y-64631110D01*
X108229451Y-64545299D01*
X108168439Y-64344168D01*
X108147838Y-64135000D01*
X108168439Y-63925832D01*
X108229451Y-63724701D01*
X108275318Y-63638890D01*
X108328529Y-63539339D01*
X108461867Y-63376867D01*
X108624339Y-63243529D01*
X108723890Y-63190318D01*
X108809701Y-63144451D01*
X109010832Y-63083439D01*
X109104886Y-63074176D01*
X109167587Y-63068000D01*
X109272413Y-63068000D01*
X109335114Y-63074176D01*
X109335114Y-63074176D01*
G37*
G36*
X121773928Y-64294764D02*
G01*
X121795009Y-64301160D01*
X121814445Y-64311548D01*
X121831476Y-64325524D01*
X121845452Y-64342555D01*
X121855840Y-64361991D01*
X121862236Y-64383072D01*
X121865000Y-64411140D01*
X121865000Y-64874860D01*
X121862236Y-64902928D01*
X121855840Y-64924009D01*
X121845452Y-64943445D01*
X121831476Y-64960476D01*
X121814445Y-64974452D01*
X121795009Y-64984840D01*
X121773928Y-64991236D01*
X121745860Y-64994000D01*
X119932140Y-64994000D01*
X119904072Y-64991236D01*
X119882991Y-64984840D01*
X119863555Y-64974452D01*
X119846524Y-64960476D01*
X119832548Y-64943445D01*
X119822160Y-64924009D01*
X119815764Y-64902928D01*
X119813000Y-64874860D01*
X119813000Y-64411140D01*
X119815764Y-64383072D01*
X119822160Y-64361991D01*
X119832548Y-64342555D01*
X119846524Y-64325524D01*
X119863555Y-64311548D01*
X119882991Y-64301160D01*
X119904072Y-64294764D01*
X119932140Y-64292000D01*
X121745860Y-64292000D01*
X121773928Y-64294764D01*
X121773928Y-64294764D01*
G37*
G36*
X116823928Y-64294764D02*
G01*
X116845009Y-64301160D01*
X116864445Y-64311548D01*
X116881476Y-64325524D01*
X116895452Y-64342555D01*
X116905840Y-64361991D01*
X116912236Y-64383072D01*
X116915000Y-64411140D01*
X116915000Y-64874860D01*
X116912236Y-64902928D01*
X116905840Y-64924009D01*
X116895452Y-64943445D01*
X116881476Y-64960476D01*
X116864445Y-64974452D01*
X116845009Y-64984840D01*
X116823928Y-64991236D01*
X116795860Y-64994000D01*
X114982140Y-64994000D01*
X114954072Y-64991236D01*
X114932991Y-64984840D01*
X114913555Y-64974452D01*
X114896524Y-64960476D01*
X114882548Y-64943445D01*
X114872160Y-64924009D01*
X114865764Y-64902928D01*
X114863000Y-64874860D01*
X114863000Y-64411140D01*
X114865764Y-64383072D01*
X114872160Y-64361991D01*
X114882548Y-64342555D01*
X114896524Y-64325524D01*
X114913555Y-64311548D01*
X114932991Y-64301160D01*
X114954072Y-64294764D01*
X114982140Y-64292000D01*
X116795860Y-64292000D01*
X116823928Y-64294764D01*
X116823928Y-64294764D01*
G37*
G36*
X109335114Y-59899176D02*
G01*
X109429168Y-59908439D01*
X109630299Y-59969451D01*
X109701528Y-60007524D01*
X109815661Y-60068529D01*
X109978133Y-60201867D01*
X110111471Y-60364339D01*
X110164682Y-60463890D01*
X110210549Y-60549701D01*
X110271561Y-60750832D01*
X110292162Y-60960000D01*
X110271561Y-61169168D01*
X110210549Y-61370299D01*
X110164682Y-61456110D01*
X110111471Y-61555661D01*
X109978133Y-61718133D01*
X109815661Y-61851471D01*
X109716110Y-61904682D01*
X109630299Y-61950549D01*
X109429168Y-62011561D01*
X109335114Y-62020824D01*
X109272413Y-62027000D01*
X109167587Y-62027000D01*
X109104886Y-62020824D01*
X109010832Y-62011561D01*
X108809701Y-61950549D01*
X108723890Y-61904682D01*
X108624339Y-61851471D01*
X108461867Y-61718133D01*
X108328529Y-61555661D01*
X108275318Y-61456110D01*
X108229451Y-61370299D01*
X108168439Y-61169168D01*
X108147838Y-60960000D01*
X108168439Y-60750832D01*
X108229451Y-60549701D01*
X108275318Y-60463890D01*
X108328529Y-60364339D01*
X108461867Y-60201867D01*
X108624339Y-60068529D01*
X108738472Y-60007524D01*
X108809701Y-59969451D01*
X109010832Y-59908439D01*
X109104886Y-59899176D01*
X109167587Y-59893000D01*
X109272413Y-59893000D01*
X109335114Y-59899176D01*
X109335114Y-59899176D01*
G37*
G36*
X127115114Y-59899176D02*
G01*
X127209168Y-59908439D01*
X127410299Y-59969451D01*
X127481528Y-60007524D01*
X127595661Y-60068529D01*
X127758133Y-60201867D01*
X127891471Y-60364339D01*
X127944682Y-60463890D01*
X127990549Y-60549701D01*
X128051561Y-60750832D01*
X128072162Y-60960000D01*
X128051561Y-61169168D01*
X127990549Y-61370299D01*
X127944682Y-61456110D01*
X127891471Y-61555661D01*
X127758133Y-61718133D01*
X127595661Y-61851471D01*
X127496110Y-61904682D01*
X127410299Y-61950549D01*
X127209168Y-62011561D01*
X127115114Y-62020824D01*
X127052413Y-62027000D01*
X126947587Y-62027000D01*
X126884886Y-62020824D01*
X126790832Y-62011561D01*
X126589701Y-61950549D01*
X126503890Y-61904682D01*
X126404339Y-61851471D01*
X126241867Y-61718133D01*
X126108529Y-61555661D01*
X126055318Y-61456110D01*
X126009451Y-61370299D01*
X125948439Y-61169168D01*
X125927838Y-60960000D01*
X125948439Y-60750832D01*
X126009451Y-60549701D01*
X126055318Y-60463890D01*
X126108529Y-60364339D01*
X126241867Y-60201867D01*
X126404339Y-60068529D01*
X126518472Y-60007524D01*
X126589701Y-59969451D01*
X126790832Y-59908439D01*
X126884886Y-59899176D01*
X126947587Y-59893000D01*
X127052413Y-59893000D01*
X127115114Y-59899176D01*
X127115114Y-59899176D01*
G37*
G36*
X116823928Y-59976764D02*
G01*
X116845009Y-59983160D01*
X116864445Y-59993548D01*
X116881476Y-60007524D01*
X116895452Y-60024555D01*
X116905840Y-60043991D01*
X116912236Y-60065072D01*
X116915000Y-60093140D01*
X116915000Y-60556860D01*
X116912236Y-60584928D01*
X116905840Y-60606009D01*
X116895452Y-60625445D01*
X116881476Y-60642476D01*
X116864445Y-60656452D01*
X116845009Y-60666840D01*
X116823928Y-60673236D01*
X116795860Y-60676000D01*
X114982140Y-60676000D01*
X114954072Y-60673236D01*
X114932991Y-60666840D01*
X114913555Y-60656452D01*
X114896524Y-60642476D01*
X114882548Y-60625445D01*
X114872160Y-60606009D01*
X114865764Y-60584928D01*
X114863000Y-60556860D01*
X114863000Y-60093140D01*
X114865764Y-60065072D01*
X114872160Y-60043991D01*
X114882548Y-60024555D01*
X114896524Y-60007524D01*
X114913555Y-59993548D01*
X114932991Y-59983160D01*
X114954072Y-59976764D01*
X114982140Y-59974000D01*
X116795860Y-59974000D01*
X116823928Y-59976764D01*
X116823928Y-59976764D01*
G37*
G36*
X121773928Y-59976764D02*
G01*
X121795009Y-59983160D01*
X121814445Y-59993548D01*
X121831476Y-60007524D01*
X121845452Y-60024555D01*
X121855840Y-60043991D01*
X121862236Y-60065072D01*
X121865000Y-60093140D01*
X121865000Y-60556860D01*
X121862236Y-60584928D01*
X121855840Y-60606009D01*
X121845452Y-60625445D01*
X121831476Y-60642476D01*
X121814445Y-60656452D01*
X121795009Y-60666840D01*
X121773928Y-60673236D01*
X121745860Y-60676000D01*
X119932140Y-60676000D01*
X119904072Y-60673236D01*
X119882991Y-60666840D01*
X119863555Y-60656452D01*
X119846524Y-60642476D01*
X119832548Y-60625445D01*
X119822160Y-60606009D01*
X119815764Y-60584928D01*
X119813000Y-60556860D01*
X119813000Y-60093140D01*
X119815764Y-60065072D01*
X119822160Y-60043991D01*
X119832548Y-60024555D01*
X119846524Y-60007524D01*
X119863555Y-59993548D01*
X119882991Y-59983160D01*
X119904072Y-59976764D01*
X119932140Y-59974000D01*
X121745860Y-59974000D01*
X121773928Y-59976764D01*
X121773928Y-59976764D01*
G37*
G36*
X121773928Y-58706764D02*
G01*
X121795009Y-58713160D01*
X121814445Y-58723548D01*
X121831476Y-58737524D01*
X121845452Y-58754555D01*
X121855840Y-58773991D01*
X121862236Y-58795072D01*
X121865000Y-58823140D01*
X121865000Y-59286860D01*
X121862236Y-59314928D01*
X121855840Y-59336009D01*
X121845452Y-59355445D01*
X121831476Y-59372476D01*
X121814445Y-59386452D01*
X121795009Y-59396840D01*
X121773928Y-59403236D01*
X121745860Y-59406000D01*
X119932140Y-59406000D01*
X119904072Y-59403236D01*
X119882991Y-59396840D01*
X119863555Y-59386452D01*
X119846524Y-59372476D01*
X119832548Y-59355445D01*
X119822160Y-59336009D01*
X119815764Y-59314928D01*
X119813000Y-59286860D01*
X119813000Y-58823140D01*
X119815764Y-58795072D01*
X119822160Y-58773991D01*
X119832548Y-58754555D01*
X119846524Y-58737524D01*
X119863555Y-58723548D01*
X119882991Y-58713160D01*
X119904072Y-58706764D01*
X119932140Y-58704000D01*
X121745860Y-58704000D01*
X121773928Y-58706764D01*
X121773928Y-58706764D01*
G37*
G36*
X116823928Y-58706764D02*
G01*
X116845009Y-58713160D01*
X116864445Y-58723548D01*
X116881476Y-58737524D01*
X116895452Y-58754555D01*
X116905840Y-58773991D01*
X116912236Y-58795072D01*
X116915000Y-58823140D01*
X116915000Y-59286860D01*
X116912236Y-59314928D01*
X116905840Y-59336009D01*
X116895452Y-59355445D01*
X116881476Y-59372476D01*
X116864445Y-59386452D01*
X116845009Y-59396840D01*
X116823928Y-59403236D01*
X116795860Y-59406000D01*
X114982140Y-59406000D01*
X114954072Y-59403236D01*
X114932991Y-59396840D01*
X114913555Y-59386452D01*
X114896524Y-59372476D01*
X114882548Y-59355445D01*
X114872160Y-59336009D01*
X114865764Y-59314928D01*
X114863000Y-59286860D01*
X114863000Y-58823140D01*
X114865764Y-58795072D01*
X114872160Y-58773991D01*
X114882548Y-58754555D01*
X114896524Y-58737524D01*
X114913555Y-58723548D01*
X114932991Y-58713160D01*
X114954072Y-58706764D01*
X114982140Y-58704000D01*
X116795860Y-58704000D01*
X116823928Y-58706764D01*
X116823928Y-58706764D01*
G37*
G36*
X128067000Y-58852000D02*
G01*
X125933000Y-58852000D01*
X125933000Y-56718000D01*
X128067000Y-56718000D01*
X128067000Y-58852000D01*
X128067000Y-58852000D01*
G37*
G36*
X110287000Y-58852000D02*
G01*
X108153000Y-58852000D01*
X108153000Y-56718000D01*
X110287000Y-56718000D01*
X110287000Y-58852000D01*
X110287000Y-58852000D01*
G37*
G36*
X116823928Y-57436764D02*
G01*
X116845009Y-57443160D01*
X116864445Y-57453548D01*
X116881476Y-57467524D01*
X116895452Y-57484555D01*
X116905840Y-57503991D01*
X116912236Y-57525072D01*
X116915000Y-57553140D01*
X116915000Y-58016860D01*
X116912236Y-58044928D01*
X116905840Y-58066009D01*
X116895452Y-58085445D01*
X116881476Y-58102476D01*
X116864445Y-58116452D01*
X116845009Y-58126840D01*
X116823928Y-58133236D01*
X116795860Y-58136000D01*
X114982140Y-58136000D01*
X114954072Y-58133236D01*
X114932991Y-58126840D01*
X114913555Y-58116452D01*
X114896524Y-58102476D01*
X114882548Y-58085445D01*
X114872160Y-58066009D01*
X114865764Y-58044928D01*
X114863000Y-58016860D01*
X114863000Y-57553140D01*
X114865764Y-57525072D01*
X114872160Y-57503991D01*
X114882548Y-57484555D01*
X114896524Y-57467524D01*
X114913555Y-57453548D01*
X114932991Y-57443160D01*
X114954072Y-57436764D01*
X114982140Y-57434000D01*
X116795860Y-57434000D01*
X116823928Y-57436764D01*
X116823928Y-57436764D01*
G37*
G36*
X121773928Y-57436764D02*
G01*
X121795009Y-57443160D01*
X121814445Y-57453548D01*
X121831476Y-57467524D01*
X121845452Y-57484555D01*
X121855840Y-57503991D01*
X121862236Y-57525072D01*
X121865000Y-57553140D01*
X121865000Y-58016860D01*
X121862236Y-58044928D01*
X121855840Y-58066009D01*
X121845452Y-58085445D01*
X121831476Y-58102476D01*
X121814445Y-58116452D01*
X121795009Y-58126840D01*
X121773928Y-58133236D01*
X121745860Y-58136000D01*
X119932140Y-58136000D01*
X119904072Y-58133236D01*
X119882991Y-58126840D01*
X119863555Y-58116452D01*
X119846524Y-58102476D01*
X119832548Y-58085445D01*
X119822160Y-58066009D01*
X119815764Y-58044928D01*
X119813000Y-58016860D01*
X119813000Y-57553140D01*
X119815764Y-57525072D01*
X119822160Y-57503991D01*
X119832548Y-57484555D01*
X119846524Y-57467524D01*
X119863555Y-57453548D01*
X119882991Y-57443160D01*
X119904072Y-57436764D01*
X119932140Y-57434000D01*
X121745860Y-57434000D01*
X121773928Y-57436764D01*
X121773928Y-57436764D01*
G37*
G36*
X116823928Y-56166764D02*
G01*
X116845009Y-56173160D01*
X116864445Y-56183548D01*
X116881476Y-56197524D01*
X116895452Y-56214555D01*
X116905840Y-56233991D01*
X116912236Y-56255072D01*
X116915000Y-56283140D01*
X116915000Y-56746860D01*
X116912236Y-56774928D01*
X116905840Y-56796009D01*
X116895452Y-56815445D01*
X116881476Y-56832476D01*
X116864445Y-56846452D01*
X116845009Y-56856840D01*
X116823928Y-56863236D01*
X116795860Y-56866000D01*
X114982140Y-56866000D01*
X114954072Y-56863236D01*
X114932991Y-56856840D01*
X114913555Y-56846452D01*
X114896524Y-56832476D01*
X114882548Y-56815445D01*
X114872160Y-56796009D01*
X114865764Y-56774928D01*
X114863000Y-56746860D01*
X114863000Y-56283140D01*
X114865764Y-56255072D01*
X114872160Y-56233991D01*
X114882548Y-56214555D01*
X114896524Y-56197524D01*
X114913555Y-56183548D01*
X114932991Y-56173160D01*
X114954072Y-56166764D01*
X114982140Y-56164000D01*
X116795860Y-56164000D01*
X116823928Y-56166764D01*
X116823928Y-56166764D01*
G37*
G36*
X121773928Y-56166764D02*
G01*
X121795009Y-56173160D01*
X121814445Y-56183548D01*
X121831476Y-56197524D01*
X121845452Y-56214555D01*
X121855840Y-56233991D01*
X121862236Y-56255072D01*
X121865000Y-56283140D01*
X121865000Y-56746860D01*
X121862236Y-56774928D01*
X121855840Y-56796009D01*
X121845452Y-56815445D01*
X121831476Y-56832476D01*
X121814445Y-56846452D01*
X121795009Y-56856840D01*
X121773928Y-56863236D01*
X121745860Y-56866000D01*
X119932140Y-56866000D01*
X119904072Y-56863236D01*
X119882991Y-56856840D01*
X119863555Y-56846452D01*
X119846524Y-56832476D01*
X119832548Y-56815445D01*
X119822160Y-56796009D01*
X119815764Y-56774928D01*
X119813000Y-56746860D01*
X119813000Y-56283140D01*
X119815764Y-56255072D01*
X119822160Y-56233991D01*
X119832548Y-56214555D01*
X119846524Y-56197524D01*
X119863555Y-56183548D01*
X119882991Y-56173160D01*
X119904072Y-56166764D01*
X119932140Y-56164000D01*
X121745860Y-56164000D01*
X121773928Y-56166764D01*
X121773928Y-56166764D01*
G37*
G36*
X126744591Y-52906585D02*
G01*
X126778569Y-52916893D01*
X126809890Y-52933634D01*
X126837339Y-52956161D01*
X126859866Y-52983610D01*
X126876607Y-53014931D01*
X126886915Y-53048909D01*
X126891000Y-53090390D01*
X126891000Y-53691610D01*
X126886915Y-53733091D01*
X126876607Y-53767069D01*
X126859866Y-53798390D01*
X126837339Y-53825839D01*
X126809890Y-53848366D01*
X126778569Y-53865107D01*
X126744591Y-53875415D01*
X126703110Y-53879500D01*
X126026890Y-53879500D01*
X125985409Y-53875415D01*
X125951431Y-53865107D01*
X125920110Y-53848366D01*
X125892661Y-53825839D01*
X125870134Y-53798390D01*
X125853393Y-53767069D01*
X125843085Y-53733091D01*
X125839000Y-53691610D01*
X125839000Y-53090390D01*
X125843085Y-53048909D01*
X125853393Y-53014931D01*
X125870134Y-52983610D01*
X125892661Y-52956161D01*
X125920110Y-52933634D01*
X125951431Y-52916893D01*
X125985409Y-52906585D01*
X126026890Y-52902500D01*
X126703110Y-52902500D01*
X126744591Y-52906585D01*
X126744591Y-52906585D01*
G37*
G36*
X116950443Y-51175519D02*
G01*
X117016627Y-51182037D01*
X117186466Y-51233557D01*
X117342991Y-51317222D01*
X117360492Y-51331585D01*
X117480186Y-51429814D01*
X117563448Y-51531271D01*
X117592778Y-51567009D01*
X117676443Y-51723534D01*
X117727963Y-51893373D01*
X117745359Y-52070000D01*
X117727963Y-52246627D01*
X117676443Y-52416466D01*
X117592778Y-52572991D01*
X117577746Y-52591307D01*
X117480186Y-52710186D01*
X117378729Y-52793448D01*
X117342991Y-52822778D01*
X117186466Y-52906443D01*
X117016627Y-52957963D01*
X116950442Y-52964482D01*
X116884260Y-52971000D01*
X116795740Y-52971000D01*
X116729558Y-52964482D01*
X116663373Y-52957963D01*
X116493534Y-52906443D01*
X116337009Y-52822778D01*
X116301271Y-52793448D01*
X116199814Y-52710186D01*
X116102254Y-52591307D01*
X116087222Y-52572991D01*
X116003557Y-52416466D01*
X115952037Y-52246627D01*
X115934641Y-52070000D01*
X115952037Y-51893373D01*
X116003557Y-51723534D01*
X116087222Y-51567009D01*
X116116552Y-51531271D01*
X116199814Y-51429814D01*
X116319508Y-51331585D01*
X116337009Y-51317222D01*
X116493534Y-51233557D01*
X116663373Y-51182037D01*
X116729557Y-51175519D01*
X116795740Y-51169000D01*
X116884260Y-51169000D01*
X116950443Y-51175519D01*
X116950443Y-51175519D01*
G37*
G36*
X120281000Y-52971000D02*
G01*
X118479000Y-52971000D01*
X118479000Y-51169000D01*
X120281000Y-51169000D01*
X120281000Y-52971000D01*
X120281000Y-52971000D01*
G37*
G36*
X124319591Y-51548085D02*
G01*
X124353569Y-51558393D01*
X124384890Y-51575134D01*
X124412339Y-51597661D01*
X124434866Y-51625110D01*
X124451607Y-51656431D01*
X124461915Y-51690409D01*
X124466000Y-51731890D01*
X124466000Y-52408110D01*
X124461915Y-52449591D01*
X124451607Y-52483569D01*
X124434866Y-52514890D01*
X124412339Y-52542339D01*
X124384890Y-52564866D01*
X124353569Y-52581607D01*
X124319591Y-52591915D01*
X124278110Y-52596000D01*
X123676890Y-52596000D01*
X123635409Y-52591915D01*
X123601431Y-52581607D01*
X123570110Y-52564866D01*
X123542661Y-52542339D01*
X123520134Y-52514890D01*
X123503393Y-52483569D01*
X123493085Y-52449591D01*
X123489000Y-52408110D01*
X123489000Y-51731890D01*
X123493085Y-51690409D01*
X123503393Y-51656431D01*
X123520134Y-51625110D01*
X123542661Y-51597661D01*
X123570110Y-51575134D01*
X123601431Y-51558393D01*
X123635409Y-51548085D01*
X123676890Y-51544000D01*
X124278110Y-51544000D01*
X124319591Y-51548085D01*
X124319591Y-51548085D01*
G37*
G36*
X122744591Y-51548085D02*
G01*
X122778569Y-51558393D01*
X122809890Y-51575134D01*
X122837339Y-51597661D01*
X122859866Y-51625110D01*
X122876607Y-51656431D01*
X122886915Y-51690409D01*
X122891000Y-51731890D01*
X122891000Y-52408110D01*
X122886915Y-52449591D01*
X122876607Y-52483569D01*
X122859866Y-52514890D01*
X122837339Y-52542339D01*
X122809890Y-52564866D01*
X122778569Y-52581607D01*
X122744591Y-52591915D01*
X122703110Y-52596000D01*
X122101890Y-52596000D01*
X122060409Y-52591915D01*
X122026431Y-52581607D01*
X121995110Y-52564866D01*
X121967661Y-52542339D01*
X121945134Y-52514890D01*
X121928393Y-52483569D01*
X121918085Y-52449591D01*
X121914000Y-52408110D01*
X121914000Y-51731890D01*
X121918085Y-51690409D01*
X121928393Y-51656431D01*
X121945134Y-51625110D01*
X121967661Y-51597661D01*
X121995110Y-51575134D01*
X122026431Y-51558393D01*
X122060409Y-51548085D01*
X122101890Y-51544000D01*
X122703110Y-51544000D01*
X122744591Y-51548085D01*
X122744591Y-51548085D01*
G37*
G36*
X126744591Y-51331585D02*
G01*
X126778569Y-51341893D01*
X126809890Y-51358634D01*
X126837339Y-51381161D01*
X126859866Y-51408610D01*
X126876607Y-51439931D01*
X126886915Y-51473909D01*
X126891000Y-51515390D01*
X126891000Y-52116610D01*
X126886915Y-52158091D01*
X126876607Y-52192069D01*
X126859866Y-52223390D01*
X126837339Y-52250839D01*
X126809890Y-52273366D01*
X126778569Y-52290107D01*
X126744591Y-52300415D01*
X126703110Y-52304500D01*
X126026890Y-52304500D01*
X125985409Y-52300415D01*
X125951431Y-52290107D01*
X125920110Y-52273366D01*
X125892661Y-52250839D01*
X125870134Y-52223390D01*
X125853393Y-52192069D01*
X125843085Y-52158091D01*
X125839000Y-52116610D01*
X125839000Y-51515390D01*
X125843085Y-51473909D01*
X125853393Y-51439931D01*
X125870134Y-51408610D01*
X125892661Y-51381161D01*
X125920110Y-51358634D01*
X125951431Y-51341893D01*
X125985409Y-51331585D01*
X126026890Y-51327500D01*
X126703110Y-51327500D01*
X126744591Y-51331585D01*
X126744591Y-51331585D01*
G37*
M02*
