G04 #@! TF.GenerationSoftware,KiCad,Pcbnew,(5.1.2-1)-1*
G04 #@! TF.CreationDate,2019-08-09T08:25:00-04:00*
G04 #@! TF.ProjectId,siot-node-current-clamp,73696f74-2d6e-46f6-9465-2d6375727265,rev?*
G04 #@! TF.SameCoordinates,Original*
G04 #@! TF.FileFunction,Paste,Top*
G04 #@! TF.FilePolarity,Positive*
%FSLAX46Y46*%
G04 Gerber Fmt 4.6, Leading zero omitted, Abs format (unit mm)*
G04 Created by KiCad (PCBNEW (5.1.2-1)-1) date 2019-08-09 08:25:00*
%MOMM*%
%LPD*%
G04 APERTURE LIST*
%ADD10C,0.100000*%
%ADD11C,0.600000*%
%ADD12C,0.875000*%
G04 APERTURE END LIST*
D10*
G36*
X116728703Y-68153722D02*
G01*
X116743264Y-68155882D01*
X116757543Y-68159459D01*
X116771403Y-68164418D01*
X116784710Y-68170712D01*
X116797336Y-68178280D01*
X116809159Y-68187048D01*
X116820066Y-68196934D01*
X116829952Y-68207841D01*
X116838720Y-68219664D01*
X116846288Y-68232290D01*
X116852582Y-68245597D01*
X116857541Y-68259457D01*
X116861118Y-68273736D01*
X116863278Y-68288297D01*
X116864000Y-68303000D01*
X116864000Y-68603000D01*
X116863278Y-68617703D01*
X116861118Y-68632264D01*
X116857541Y-68646543D01*
X116852582Y-68660403D01*
X116846288Y-68673710D01*
X116838720Y-68686336D01*
X116829952Y-68698159D01*
X116820066Y-68709066D01*
X116809159Y-68718952D01*
X116797336Y-68727720D01*
X116784710Y-68735288D01*
X116771403Y-68741582D01*
X116757543Y-68746541D01*
X116743264Y-68750118D01*
X116728703Y-68752278D01*
X116714000Y-68753000D01*
X115064000Y-68753000D01*
X115049297Y-68752278D01*
X115034736Y-68750118D01*
X115020457Y-68746541D01*
X115006597Y-68741582D01*
X114993290Y-68735288D01*
X114980664Y-68727720D01*
X114968841Y-68718952D01*
X114957934Y-68709066D01*
X114948048Y-68698159D01*
X114939280Y-68686336D01*
X114931712Y-68673710D01*
X114925418Y-68660403D01*
X114920459Y-68646543D01*
X114916882Y-68632264D01*
X114914722Y-68617703D01*
X114914000Y-68603000D01*
X114914000Y-68303000D01*
X114914722Y-68288297D01*
X114916882Y-68273736D01*
X114920459Y-68259457D01*
X114925418Y-68245597D01*
X114931712Y-68232290D01*
X114939280Y-68219664D01*
X114948048Y-68207841D01*
X114957934Y-68196934D01*
X114968841Y-68187048D01*
X114980664Y-68178280D01*
X114993290Y-68170712D01*
X115006597Y-68164418D01*
X115020457Y-68159459D01*
X115034736Y-68155882D01*
X115049297Y-68153722D01*
X115064000Y-68153000D01*
X116714000Y-68153000D01*
X116728703Y-68153722D01*
X116728703Y-68153722D01*
G37*
D11*
X115889000Y-68453000D03*
D10*
G36*
X116728703Y-66883722D02*
G01*
X116743264Y-66885882D01*
X116757543Y-66889459D01*
X116771403Y-66894418D01*
X116784710Y-66900712D01*
X116797336Y-66908280D01*
X116809159Y-66917048D01*
X116820066Y-66926934D01*
X116829952Y-66937841D01*
X116838720Y-66949664D01*
X116846288Y-66962290D01*
X116852582Y-66975597D01*
X116857541Y-66989457D01*
X116861118Y-67003736D01*
X116863278Y-67018297D01*
X116864000Y-67033000D01*
X116864000Y-67333000D01*
X116863278Y-67347703D01*
X116861118Y-67362264D01*
X116857541Y-67376543D01*
X116852582Y-67390403D01*
X116846288Y-67403710D01*
X116838720Y-67416336D01*
X116829952Y-67428159D01*
X116820066Y-67439066D01*
X116809159Y-67448952D01*
X116797336Y-67457720D01*
X116784710Y-67465288D01*
X116771403Y-67471582D01*
X116757543Y-67476541D01*
X116743264Y-67480118D01*
X116728703Y-67482278D01*
X116714000Y-67483000D01*
X115064000Y-67483000D01*
X115049297Y-67482278D01*
X115034736Y-67480118D01*
X115020457Y-67476541D01*
X115006597Y-67471582D01*
X114993290Y-67465288D01*
X114980664Y-67457720D01*
X114968841Y-67448952D01*
X114957934Y-67439066D01*
X114948048Y-67428159D01*
X114939280Y-67416336D01*
X114931712Y-67403710D01*
X114925418Y-67390403D01*
X114920459Y-67376543D01*
X114916882Y-67362264D01*
X114914722Y-67347703D01*
X114914000Y-67333000D01*
X114914000Y-67033000D01*
X114914722Y-67018297D01*
X114916882Y-67003736D01*
X114920459Y-66989457D01*
X114925418Y-66975597D01*
X114931712Y-66962290D01*
X114939280Y-66949664D01*
X114948048Y-66937841D01*
X114957934Y-66926934D01*
X114968841Y-66917048D01*
X114980664Y-66908280D01*
X114993290Y-66900712D01*
X115006597Y-66894418D01*
X115020457Y-66889459D01*
X115034736Y-66885882D01*
X115049297Y-66883722D01*
X115064000Y-66883000D01*
X116714000Y-66883000D01*
X116728703Y-66883722D01*
X116728703Y-66883722D01*
G37*
D11*
X115889000Y-67183000D03*
D10*
G36*
X116728703Y-65613722D02*
G01*
X116743264Y-65615882D01*
X116757543Y-65619459D01*
X116771403Y-65624418D01*
X116784710Y-65630712D01*
X116797336Y-65638280D01*
X116809159Y-65647048D01*
X116820066Y-65656934D01*
X116829952Y-65667841D01*
X116838720Y-65679664D01*
X116846288Y-65692290D01*
X116852582Y-65705597D01*
X116857541Y-65719457D01*
X116861118Y-65733736D01*
X116863278Y-65748297D01*
X116864000Y-65763000D01*
X116864000Y-66063000D01*
X116863278Y-66077703D01*
X116861118Y-66092264D01*
X116857541Y-66106543D01*
X116852582Y-66120403D01*
X116846288Y-66133710D01*
X116838720Y-66146336D01*
X116829952Y-66158159D01*
X116820066Y-66169066D01*
X116809159Y-66178952D01*
X116797336Y-66187720D01*
X116784710Y-66195288D01*
X116771403Y-66201582D01*
X116757543Y-66206541D01*
X116743264Y-66210118D01*
X116728703Y-66212278D01*
X116714000Y-66213000D01*
X115064000Y-66213000D01*
X115049297Y-66212278D01*
X115034736Y-66210118D01*
X115020457Y-66206541D01*
X115006597Y-66201582D01*
X114993290Y-66195288D01*
X114980664Y-66187720D01*
X114968841Y-66178952D01*
X114957934Y-66169066D01*
X114948048Y-66158159D01*
X114939280Y-66146336D01*
X114931712Y-66133710D01*
X114925418Y-66120403D01*
X114920459Y-66106543D01*
X114916882Y-66092264D01*
X114914722Y-66077703D01*
X114914000Y-66063000D01*
X114914000Y-65763000D01*
X114914722Y-65748297D01*
X114916882Y-65733736D01*
X114920459Y-65719457D01*
X114925418Y-65705597D01*
X114931712Y-65692290D01*
X114939280Y-65679664D01*
X114948048Y-65667841D01*
X114957934Y-65656934D01*
X114968841Y-65647048D01*
X114980664Y-65638280D01*
X114993290Y-65630712D01*
X115006597Y-65624418D01*
X115020457Y-65619459D01*
X115034736Y-65615882D01*
X115049297Y-65613722D01*
X115064000Y-65613000D01*
X116714000Y-65613000D01*
X116728703Y-65613722D01*
X116728703Y-65613722D01*
G37*
D11*
X115889000Y-65913000D03*
D10*
G36*
X116728703Y-64343722D02*
G01*
X116743264Y-64345882D01*
X116757543Y-64349459D01*
X116771403Y-64354418D01*
X116784710Y-64360712D01*
X116797336Y-64368280D01*
X116809159Y-64377048D01*
X116820066Y-64386934D01*
X116829952Y-64397841D01*
X116838720Y-64409664D01*
X116846288Y-64422290D01*
X116852582Y-64435597D01*
X116857541Y-64449457D01*
X116861118Y-64463736D01*
X116863278Y-64478297D01*
X116864000Y-64493000D01*
X116864000Y-64793000D01*
X116863278Y-64807703D01*
X116861118Y-64822264D01*
X116857541Y-64836543D01*
X116852582Y-64850403D01*
X116846288Y-64863710D01*
X116838720Y-64876336D01*
X116829952Y-64888159D01*
X116820066Y-64899066D01*
X116809159Y-64908952D01*
X116797336Y-64917720D01*
X116784710Y-64925288D01*
X116771403Y-64931582D01*
X116757543Y-64936541D01*
X116743264Y-64940118D01*
X116728703Y-64942278D01*
X116714000Y-64943000D01*
X115064000Y-64943000D01*
X115049297Y-64942278D01*
X115034736Y-64940118D01*
X115020457Y-64936541D01*
X115006597Y-64931582D01*
X114993290Y-64925288D01*
X114980664Y-64917720D01*
X114968841Y-64908952D01*
X114957934Y-64899066D01*
X114948048Y-64888159D01*
X114939280Y-64876336D01*
X114931712Y-64863710D01*
X114925418Y-64850403D01*
X114920459Y-64836543D01*
X114916882Y-64822264D01*
X114914722Y-64807703D01*
X114914000Y-64793000D01*
X114914000Y-64493000D01*
X114914722Y-64478297D01*
X114916882Y-64463736D01*
X114920459Y-64449457D01*
X114925418Y-64435597D01*
X114931712Y-64422290D01*
X114939280Y-64409664D01*
X114948048Y-64397841D01*
X114957934Y-64386934D01*
X114968841Y-64377048D01*
X114980664Y-64368280D01*
X114993290Y-64360712D01*
X115006597Y-64354418D01*
X115020457Y-64349459D01*
X115034736Y-64345882D01*
X115049297Y-64343722D01*
X115064000Y-64343000D01*
X116714000Y-64343000D01*
X116728703Y-64343722D01*
X116728703Y-64343722D01*
G37*
D11*
X115889000Y-64643000D03*
D10*
G36*
X121678703Y-64343722D02*
G01*
X121693264Y-64345882D01*
X121707543Y-64349459D01*
X121721403Y-64354418D01*
X121734710Y-64360712D01*
X121747336Y-64368280D01*
X121759159Y-64377048D01*
X121770066Y-64386934D01*
X121779952Y-64397841D01*
X121788720Y-64409664D01*
X121796288Y-64422290D01*
X121802582Y-64435597D01*
X121807541Y-64449457D01*
X121811118Y-64463736D01*
X121813278Y-64478297D01*
X121814000Y-64493000D01*
X121814000Y-64793000D01*
X121813278Y-64807703D01*
X121811118Y-64822264D01*
X121807541Y-64836543D01*
X121802582Y-64850403D01*
X121796288Y-64863710D01*
X121788720Y-64876336D01*
X121779952Y-64888159D01*
X121770066Y-64899066D01*
X121759159Y-64908952D01*
X121747336Y-64917720D01*
X121734710Y-64925288D01*
X121721403Y-64931582D01*
X121707543Y-64936541D01*
X121693264Y-64940118D01*
X121678703Y-64942278D01*
X121664000Y-64943000D01*
X120014000Y-64943000D01*
X119999297Y-64942278D01*
X119984736Y-64940118D01*
X119970457Y-64936541D01*
X119956597Y-64931582D01*
X119943290Y-64925288D01*
X119930664Y-64917720D01*
X119918841Y-64908952D01*
X119907934Y-64899066D01*
X119898048Y-64888159D01*
X119889280Y-64876336D01*
X119881712Y-64863710D01*
X119875418Y-64850403D01*
X119870459Y-64836543D01*
X119866882Y-64822264D01*
X119864722Y-64807703D01*
X119864000Y-64793000D01*
X119864000Y-64493000D01*
X119864722Y-64478297D01*
X119866882Y-64463736D01*
X119870459Y-64449457D01*
X119875418Y-64435597D01*
X119881712Y-64422290D01*
X119889280Y-64409664D01*
X119898048Y-64397841D01*
X119907934Y-64386934D01*
X119918841Y-64377048D01*
X119930664Y-64368280D01*
X119943290Y-64360712D01*
X119956597Y-64354418D01*
X119970457Y-64349459D01*
X119984736Y-64345882D01*
X119999297Y-64343722D01*
X120014000Y-64343000D01*
X121664000Y-64343000D01*
X121678703Y-64343722D01*
X121678703Y-64343722D01*
G37*
D11*
X120839000Y-64643000D03*
D10*
G36*
X121678703Y-65613722D02*
G01*
X121693264Y-65615882D01*
X121707543Y-65619459D01*
X121721403Y-65624418D01*
X121734710Y-65630712D01*
X121747336Y-65638280D01*
X121759159Y-65647048D01*
X121770066Y-65656934D01*
X121779952Y-65667841D01*
X121788720Y-65679664D01*
X121796288Y-65692290D01*
X121802582Y-65705597D01*
X121807541Y-65719457D01*
X121811118Y-65733736D01*
X121813278Y-65748297D01*
X121814000Y-65763000D01*
X121814000Y-66063000D01*
X121813278Y-66077703D01*
X121811118Y-66092264D01*
X121807541Y-66106543D01*
X121802582Y-66120403D01*
X121796288Y-66133710D01*
X121788720Y-66146336D01*
X121779952Y-66158159D01*
X121770066Y-66169066D01*
X121759159Y-66178952D01*
X121747336Y-66187720D01*
X121734710Y-66195288D01*
X121721403Y-66201582D01*
X121707543Y-66206541D01*
X121693264Y-66210118D01*
X121678703Y-66212278D01*
X121664000Y-66213000D01*
X120014000Y-66213000D01*
X119999297Y-66212278D01*
X119984736Y-66210118D01*
X119970457Y-66206541D01*
X119956597Y-66201582D01*
X119943290Y-66195288D01*
X119930664Y-66187720D01*
X119918841Y-66178952D01*
X119907934Y-66169066D01*
X119898048Y-66158159D01*
X119889280Y-66146336D01*
X119881712Y-66133710D01*
X119875418Y-66120403D01*
X119870459Y-66106543D01*
X119866882Y-66092264D01*
X119864722Y-66077703D01*
X119864000Y-66063000D01*
X119864000Y-65763000D01*
X119864722Y-65748297D01*
X119866882Y-65733736D01*
X119870459Y-65719457D01*
X119875418Y-65705597D01*
X119881712Y-65692290D01*
X119889280Y-65679664D01*
X119898048Y-65667841D01*
X119907934Y-65656934D01*
X119918841Y-65647048D01*
X119930664Y-65638280D01*
X119943290Y-65630712D01*
X119956597Y-65624418D01*
X119970457Y-65619459D01*
X119984736Y-65615882D01*
X119999297Y-65613722D01*
X120014000Y-65613000D01*
X121664000Y-65613000D01*
X121678703Y-65613722D01*
X121678703Y-65613722D01*
G37*
D11*
X120839000Y-65913000D03*
D10*
G36*
X121678703Y-66883722D02*
G01*
X121693264Y-66885882D01*
X121707543Y-66889459D01*
X121721403Y-66894418D01*
X121734710Y-66900712D01*
X121747336Y-66908280D01*
X121759159Y-66917048D01*
X121770066Y-66926934D01*
X121779952Y-66937841D01*
X121788720Y-66949664D01*
X121796288Y-66962290D01*
X121802582Y-66975597D01*
X121807541Y-66989457D01*
X121811118Y-67003736D01*
X121813278Y-67018297D01*
X121814000Y-67033000D01*
X121814000Y-67333000D01*
X121813278Y-67347703D01*
X121811118Y-67362264D01*
X121807541Y-67376543D01*
X121802582Y-67390403D01*
X121796288Y-67403710D01*
X121788720Y-67416336D01*
X121779952Y-67428159D01*
X121770066Y-67439066D01*
X121759159Y-67448952D01*
X121747336Y-67457720D01*
X121734710Y-67465288D01*
X121721403Y-67471582D01*
X121707543Y-67476541D01*
X121693264Y-67480118D01*
X121678703Y-67482278D01*
X121664000Y-67483000D01*
X120014000Y-67483000D01*
X119999297Y-67482278D01*
X119984736Y-67480118D01*
X119970457Y-67476541D01*
X119956597Y-67471582D01*
X119943290Y-67465288D01*
X119930664Y-67457720D01*
X119918841Y-67448952D01*
X119907934Y-67439066D01*
X119898048Y-67428159D01*
X119889280Y-67416336D01*
X119881712Y-67403710D01*
X119875418Y-67390403D01*
X119870459Y-67376543D01*
X119866882Y-67362264D01*
X119864722Y-67347703D01*
X119864000Y-67333000D01*
X119864000Y-67033000D01*
X119864722Y-67018297D01*
X119866882Y-67003736D01*
X119870459Y-66989457D01*
X119875418Y-66975597D01*
X119881712Y-66962290D01*
X119889280Y-66949664D01*
X119898048Y-66937841D01*
X119907934Y-66926934D01*
X119918841Y-66917048D01*
X119930664Y-66908280D01*
X119943290Y-66900712D01*
X119956597Y-66894418D01*
X119970457Y-66889459D01*
X119984736Y-66885882D01*
X119999297Y-66883722D01*
X120014000Y-66883000D01*
X121664000Y-66883000D01*
X121678703Y-66883722D01*
X121678703Y-66883722D01*
G37*
D11*
X120839000Y-67183000D03*
D10*
G36*
X121678703Y-68153722D02*
G01*
X121693264Y-68155882D01*
X121707543Y-68159459D01*
X121721403Y-68164418D01*
X121734710Y-68170712D01*
X121747336Y-68178280D01*
X121759159Y-68187048D01*
X121770066Y-68196934D01*
X121779952Y-68207841D01*
X121788720Y-68219664D01*
X121796288Y-68232290D01*
X121802582Y-68245597D01*
X121807541Y-68259457D01*
X121811118Y-68273736D01*
X121813278Y-68288297D01*
X121814000Y-68303000D01*
X121814000Y-68603000D01*
X121813278Y-68617703D01*
X121811118Y-68632264D01*
X121807541Y-68646543D01*
X121802582Y-68660403D01*
X121796288Y-68673710D01*
X121788720Y-68686336D01*
X121779952Y-68698159D01*
X121770066Y-68709066D01*
X121759159Y-68718952D01*
X121747336Y-68727720D01*
X121734710Y-68735288D01*
X121721403Y-68741582D01*
X121707543Y-68746541D01*
X121693264Y-68750118D01*
X121678703Y-68752278D01*
X121664000Y-68753000D01*
X120014000Y-68753000D01*
X119999297Y-68752278D01*
X119984736Y-68750118D01*
X119970457Y-68746541D01*
X119956597Y-68741582D01*
X119943290Y-68735288D01*
X119930664Y-68727720D01*
X119918841Y-68718952D01*
X119907934Y-68709066D01*
X119898048Y-68698159D01*
X119889280Y-68686336D01*
X119881712Y-68673710D01*
X119875418Y-68660403D01*
X119870459Y-68646543D01*
X119866882Y-68632264D01*
X119864722Y-68617703D01*
X119864000Y-68603000D01*
X119864000Y-68303000D01*
X119864722Y-68288297D01*
X119866882Y-68273736D01*
X119870459Y-68259457D01*
X119875418Y-68245597D01*
X119881712Y-68232290D01*
X119889280Y-68219664D01*
X119898048Y-68207841D01*
X119907934Y-68196934D01*
X119918841Y-68187048D01*
X119930664Y-68178280D01*
X119943290Y-68170712D01*
X119956597Y-68164418D01*
X119970457Y-68159459D01*
X119984736Y-68155882D01*
X119999297Y-68153722D01*
X120014000Y-68153000D01*
X121664000Y-68153000D01*
X121678703Y-68153722D01*
X121678703Y-68153722D01*
G37*
D11*
X120839000Y-68453000D03*
D10*
G36*
X116728703Y-60025722D02*
G01*
X116743264Y-60027882D01*
X116757543Y-60031459D01*
X116771403Y-60036418D01*
X116784710Y-60042712D01*
X116797336Y-60050280D01*
X116809159Y-60059048D01*
X116820066Y-60068934D01*
X116829952Y-60079841D01*
X116838720Y-60091664D01*
X116846288Y-60104290D01*
X116852582Y-60117597D01*
X116857541Y-60131457D01*
X116861118Y-60145736D01*
X116863278Y-60160297D01*
X116864000Y-60175000D01*
X116864000Y-60475000D01*
X116863278Y-60489703D01*
X116861118Y-60504264D01*
X116857541Y-60518543D01*
X116852582Y-60532403D01*
X116846288Y-60545710D01*
X116838720Y-60558336D01*
X116829952Y-60570159D01*
X116820066Y-60581066D01*
X116809159Y-60590952D01*
X116797336Y-60599720D01*
X116784710Y-60607288D01*
X116771403Y-60613582D01*
X116757543Y-60618541D01*
X116743264Y-60622118D01*
X116728703Y-60624278D01*
X116714000Y-60625000D01*
X115064000Y-60625000D01*
X115049297Y-60624278D01*
X115034736Y-60622118D01*
X115020457Y-60618541D01*
X115006597Y-60613582D01*
X114993290Y-60607288D01*
X114980664Y-60599720D01*
X114968841Y-60590952D01*
X114957934Y-60581066D01*
X114948048Y-60570159D01*
X114939280Y-60558336D01*
X114931712Y-60545710D01*
X114925418Y-60532403D01*
X114920459Y-60518543D01*
X114916882Y-60504264D01*
X114914722Y-60489703D01*
X114914000Y-60475000D01*
X114914000Y-60175000D01*
X114914722Y-60160297D01*
X114916882Y-60145736D01*
X114920459Y-60131457D01*
X114925418Y-60117597D01*
X114931712Y-60104290D01*
X114939280Y-60091664D01*
X114948048Y-60079841D01*
X114957934Y-60068934D01*
X114968841Y-60059048D01*
X114980664Y-60050280D01*
X114993290Y-60042712D01*
X115006597Y-60036418D01*
X115020457Y-60031459D01*
X115034736Y-60027882D01*
X115049297Y-60025722D01*
X115064000Y-60025000D01*
X116714000Y-60025000D01*
X116728703Y-60025722D01*
X116728703Y-60025722D01*
G37*
D11*
X115889000Y-60325000D03*
D10*
G36*
X116728703Y-58755722D02*
G01*
X116743264Y-58757882D01*
X116757543Y-58761459D01*
X116771403Y-58766418D01*
X116784710Y-58772712D01*
X116797336Y-58780280D01*
X116809159Y-58789048D01*
X116820066Y-58798934D01*
X116829952Y-58809841D01*
X116838720Y-58821664D01*
X116846288Y-58834290D01*
X116852582Y-58847597D01*
X116857541Y-58861457D01*
X116861118Y-58875736D01*
X116863278Y-58890297D01*
X116864000Y-58905000D01*
X116864000Y-59205000D01*
X116863278Y-59219703D01*
X116861118Y-59234264D01*
X116857541Y-59248543D01*
X116852582Y-59262403D01*
X116846288Y-59275710D01*
X116838720Y-59288336D01*
X116829952Y-59300159D01*
X116820066Y-59311066D01*
X116809159Y-59320952D01*
X116797336Y-59329720D01*
X116784710Y-59337288D01*
X116771403Y-59343582D01*
X116757543Y-59348541D01*
X116743264Y-59352118D01*
X116728703Y-59354278D01*
X116714000Y-59355000D01*
X115064000Y-59355000D01*
X115049297Y-59354278D01*
X115034736Y-59352118D01*
X115020457Y-59348541D01*
X115006597Y-59343582D01*
X114993290Y-59337288D01*
X114980664Y-59329720D01*
X114968841Y-59320952D01*
X114957934Y-59311066D01*
X114948048Y-59300159D01*
X114939280Y-59288336D01*
X114931712Y-59275710D01*
X114925418Y-59262403D01*
X114920459Y-59248543D01*
X114916882Y-59234264D01*
X114914722Y-59219703D01*
X114914000Y-59205000D01*
X114914000Y-58905000D01*
X114914722Y-58890297D01*
X114916882Y-58875736D01*
X114920459Y-58861457D01*
X114925418Y-58847597D01*
X114931712Y-58834290D01*
X114939280Y-58821664D01*
X114948048Y-58809841D01*
X114957934Y-58798934D01*
X114968841Y-58789048D01*
X114980664Y-58780280D01*
X114993290Y-58772712D01*
X115006597Y-58766418D01*
X115020457Y-58761459D01*
X115034736Y-58757882D01*
X115049297Y-58755722D01*
X115064000Y-58755000D01*
X116714000Y-58755000D01*
X116728703Y-58755722D01*
X116728703Y-58755722D01*
G37*
D11*
X115889000Y-59055000D03*
D10*
G36*
X116728703Y-57485722D02*
G01*
X116743264Y-57487882D01*
X116757543Y-57491459D01*
X116771403Y-57496418D01*
X116784710Y-57502712D01*
X116797336Y-57510280D01*
X116809159Y-57519048D01*
X116820066Y-57528934D01*
X116829952Y-57539841D01*
X116838720Y-57551664D01*
X116846288Y-57564290D01*
X116852582Y-57577597D01*
X116857541Y-57591457D01*
X116861118Y-57605736D01*
X116863278Y-57620297D01*
X116864000Y-57635000D01*
X116864000Y-57935000D01*
X116863278Y-57949703D01*
X116861118Y-57964264D01*
X116857541Y-57978543D01*
X116852582Y-57992403D01*
X116846288Y-58005710D01*
X116838720Y-58018336D01*
X116829952Y-58030159D01*
X116820066Y-58041066D01*
X116809159Y-58050952D01*
X116797336Y-58059720D01*
X116784710Y-58067288D01*
X116771403Y-58073582D01*
X116757543Y-58078541D01*
X116743264Y-58082118D01*
X116728703Y-58084278D01*
X116714000Y-58085000D01*
X115064000Y-58085000D01*
X115049297Y-58084278D01*
X115034736Y-58082118D01*
X115020457Y-58078541D01*
X115006597Y-58073582D01*
X114993290Y-58067288D01*
X114980664Y-58059720D01*
X114968841Y-58050952D01*
X114957934Y-58041066D01*
X114948048Y-58030159D01*
X114939280Y-58018336D01*
X114931712Y-58005710D01*
X114925418Y-57992403D01*
X114920459Y-57978543D01*
X114916882Y-57964264D01*
X114914722Y-57949703D01*
X114914000Y-57935000D01*
X114914000Y-57635000D01*
X114914722Y-57620297D01*
X114916882Y-57605736D01*
X114920459Y-57591457D01*
X114925418Y-57577597D01*
X114931712Y-57564290D01*
X114939280Y-57551664D01*
X114948048Y-57539841D01*
X114957934Y-57528934D01*
X114968841Y-57519048D01*
X114980664Y-57510280D01*
X114993290Y-57502712D01*
X115006597Y-57496418D01*
X115020457Y-57491459D01*
X115034736Y-57487882D01*
X115049297Y-57485722D01*
X115064000Y-57485000D01*
X116714000Y-57485000D01*
X116728703Y-57485722D01*
X116728703Y-57485722D01*
G37*
D11*
X115889000Y-57785000D03*
D10*
G36*
X116728703Y-56215722D02*
G01*
X116743264Y-56217882D01*
X116757543Y-56221459D01*
X116771403Y-56226418D01*
X116784710Y-56232712D01*
X116797336Y-56240280D01*
X116809159Y-56249048D01*
X116820066Y-56258934D01*
X116829952Y-56269841D01*
X116838720Y-56281664D01*
X116846288Y-56294290D01*
X116852582Y-56307597D01*
X116857541Y-56321457D01*
X116861118Y-56335736D01*
X116863278Y-56350297D01*
X116864000Y-56365000D01*
X116864000Y-56665000D01*
X116863278Y-56679703D01*
X116861118Y-56694264D01*
X116857541Y-56708543D01*
X116852582Y-56722403D01*
X116846288Y-56735710D01*
X116838720Y-56748336D01*
X116829952Y-56760159D01*
X116820066Y-56771066D01*
X116809159Y-56780952D01*
X116797336Y-56789720D01*
X116784710Y-56797288D01*
X116771403Y-56803582D01*
X116757543Y-56808541D01*
X116743264Y-56812118D01*
X116728703Y-56814278D01*
X116714000Y-56815000D01*
X115064000Y-56815000D01*
X115049297Y-56814278D01*
X115034736Y-56812118D01*
X115020457Y-56808541D01*
X115006597Y-56803582D01*
X114993290Y-56797288D01*
X114980664Y-56789720D01*
X114968841Y-56780952D01*
X114957934Y-56771066D01*
X114948048Y-56760159D01*
X114939280Y-56748336D01*
X114931712Y-56735710D01*
X114925418Y-56722403D01*
X114920459Y-56708543D01*
X114916882Y-56694264D01*
X114914722Y-56679703D01*
X114914000Y-56665000D01*
X114914000Y-56365000D01*
X114914722Y-56350297D01*
X114916882Y-56335736D01*
X114920459Y-56321457D01*
X114925418Y-56307597D01*
X114931712Y-56294290D01*
X114939280Y-56281664D01*
X114948048Y-56269841D01*
X114957934Y-56258934D01*
X114968841Y-56249048D01*
X114980664Y-56240280D01*
X114993290Y-56232712D01*
X115006597Y-56226418D01*
X115020457Y-56221459D01*
X115034736Y-56217882D01*
X115049297Y-56215722D01*
X115064000Y-56215000D01*
X116714000Y-56215000D01*
X116728703Y-56215722D01*
X116728703Y-56215722D01*
G37*
D11*
X115889000Y-56515000D03*
D10*
G36*
X121678703Y-56215722D02*
G01*
X121693264Y-56217882D01*
X121707543Y-56221459D01*
X121721403Y-56226418D01*
X121734710Y-56232712D01*
X121747336Y-56240280D01*
X121759159Y-56249048D01*
X121770066Y-56258934D01*
X121779952Y-56269841D01*
X121788720Y-56281664D01*
X121796288Y-56294290D01*
X121802582Y-56307597D01*
X121807541Y-56321457D01*
X121811118Y-56335736D01*
X121813278Y-56350297D01*
X121814000Y-56365000D01*
X121814000Y-56665000D01*
X121813278Y-56679703D01*
X121811118Y-56694264D01*
X121807541Y-56708543D01*
X121802582Y-56722403D01*
X121796288Y-56735710D01*
X121788720Y-56748336D01*
X121779952Y-56760159D01*
X121770066Y-56771066D01*
X121759159Y-56780952D01*
X121747336Y-56789720D01*
X121734710Y-56797288D01*
X121721403Y-56803582D01*
X121707543Y-56808541D01*
X121693264Y-56812118D01*
X121678703Y-56814278D01*
X121664000Y-56815000D01*
X120014000Y-56815000D01*
X119999297Y-56814278D01*
X119984736Y-56812118D01*
X119970457Y-56808541D01*
X119956597Y-56803582D01*
X119943290Y-56797288D01*
X119930664Y-56789720D01*
X119918841Y-56780952D01*
X119907934Y-56771066D01*
X119898048Y-56760159D01*
X119889280Y-56748336D01*
X119881712Y-56735710D01*
X119875418Y-56722403D01*
X119870459Y-56708543D01*
X119866882Y-56694264D01*
X119864722Y-56679703D01*
X119864000Y-56665000D01*
X119864000Y-56365000D01*
X119864722Y-56350297D01*
X119866882Y-56335736D01*
X119870459Y-56321457D01*
X119875418Y-56307597D01*
X119881712Y-56294290D01*
X119889280Y-56281664D01*
X119898048Y-56269841D01*
X119907934Y-56258934D01*
X119918841Y-56249048D01*
X119930664Y-56240280D01*
X119943290Y-56232712D01*
X119956597Y-56226418D01*
X119970457Y-56221459D01*
X119984736Y-56217882D01*
X119999297Y-56215722D01*
X120014000Y-56215000D01*
X121664000Y-56215000D01*
X121678703Y-56215722D01*
X121678703Y-56215722D01*
G37*
D11*
X120839000Y-56515000D03*
D10*
G36*
X121678703Y-57485722D02*
G01*
X121693264Y-57487882D01*
X121707543Y-57491459D01*
X121721403Y-57496418D01*
X121734710Y-57502712D01*
X121747336Y-57510280D01*
X121759159Y-57519048D01*
X121770066Y-57528934D01*
X121779952Y-57539841D01*
X121788720Y-57551664D01*
X121796288Y-57564290D01*
X121802582Y-57577597D01*
X121807541Y-57591457D01*
X121811118Y-57605736D01*
X121813278Y-57620297D01*
X121814000Y-57635000D01*
X121814000Y-57935000D01*
X121813278Y-57949703D01*
X121811118Y-57964264D01*
X121807541Y-57978543D01*
X121802582Y-57992403D01*
X121796288Y-58005710D01*
X121788720Y-58018336D01*
X121779952Y-58030159D01*
X121770066Y-58041066D01*
X121759159Y-58050952D01*
X121747336Y-58059720D01*
X121734710Y-58067288D01*
X121721403Y-58073582D01*
X121707543Y-58078541D01*
X121693264Y-58082118D01*
X121678703Y-58084278D01*
X121664000Y-58085000D01*
X120014000Y-58085000D01*
X119999297Y-58084278D01*
X119984736Y-58082118D01*
X119970457Y-58078541D01*
X119956597Y-58073582D01*
X119943290Y-58067288D01*
X119930664Y-58059720D01*
X119918841Y-58050952D01*
X119907934Y-58041066D01*
X119898048Y-58030159D01*
X119889280Y-58018336D01*
X119881712Y-58005710D01*
X119875418Y-57992403D01*
X119870459Y-57978543D01*
X119866882Y-57964264D01*
X119864722Y-57949703D01*
X119864000Y-57935000D01*
X119864000Y-57635000D01*
X119864722Y-57620297D01*
X119866882Y-57605736D01*
X119870459Y-57591457D01*
X119875418Y-57577597D01*
X119881712Y-57564290D01*
X119889280Y-57551664D01*
X119898048Y-57539841D01*
X119907934Y-57528934D01*
X119918841Y-57519048D01*
X119930664Y-57510280D01*
X119943290Y-57502712D01*
X119956597Y-57496418D01*
X119970457Y-57491459D01*
X119984736Y-57487882D01*
X119999297Y-57485722D01*
X120014000Y-57485000D01*
X121664000Y-57485000D01*
X121678703Y-57485722D01*
X121678703Y-57485722D01*
G37*
D11*
X120839000Y-57785000D03*
D10*
G36*
X121678703Y-58755722D02*
G01*
X121693264Y-58757882D01*
X121707543Y-58761459D01*
X121721403Y-58766418D01*
X121734710Y-58772712D01*
X121747336Y-58780280D01*
X121759159Y-58789048D01*
X121770066Y-58798934D01*
X121779952Y-58809841D01*
X121788720Y-58821664D01*
X121796288Y-58834290D01*
X121802582Y-58847597D01*
X121807541Y-58861457D01*
X121811118Y-58875736D01*
X121813278Y-58890297D01*
X121814000Y-58905000D01*
X121814000Y-59205000D01*
X121813278Y-59219703D01*
X121811118Y-59234264D01*
X121807541Y-59248543D01*
X121802582Y-59262403D01*
X121796288Y-59275710D01*
X121788720Y-59288336D01*
X121779952Y-59300159D01*
X121770066Y-59311066D01*
X121759159Y-59320952D01*
X121747336Y-59329720D01*
X121734710Y-59337288D01*
X121721403Y-59343582D01*
X121707543Y-59348541D01*
X121693264Y-59352118D01*
X121678703Y-59354278D01*
X121664000Y-59355000D01*
X120014000Y-59355000D01*
X119999297Y-59354278D01*
X119984736Y-59352118D01*
X119970457Y-59348541D01*
X119956597Y-59343582D01*
X119943290Y-59337288D01*
X119930664Y-59329720D01*
X119918841Y-59320952D01*
X119907934Y-59311066D01*
X119898048Y-59300159D01*
X119889280Y-59288336D01*
X119881712Y-59275710D01*
X119875418Y-59262403D01*
X119870459Y-59248543D01*
X119866882Y-59234264D01*
X119864722Y-59219703D01*
X119864000Y-59205000D01*
X119864000Y-58905000D01*
X119864722Y-58890297D01*
X119866882Y-58875736D01*
X119870459Y-58861457D01*
X119875418Y-58847597D01*
X119881712Y-58834290D01*
X119889280Y-58821664D01*
X119898048Y-58809841D01*
X119907934Y-58798934D01*
X119918841Y-58789048D01*
X119930664Y-58780280D01*
X119943290Y-58772712D01*
X119956597Y-58766418D01*
X119970457Y-58761459D01*
X119984736Y-58757882D01*
X119999297Y-58755722D01*
X120014000Y-58755000D01*
X121664000Y-58755000D01*
X121678703Y-58755722D01*
X121678703Y-58755722D01*
G37*
D11*
X120839000Y-59055000D03*
D10*
G36*
X121678703Y-60025722D02*
G01*
X121693264Y-60027882D01*
X121707543Y-60031459D01*
X121721403Y-60036418D01*
X121734710Y-60042712D01*
X121747336Y-60050280D01*
X121759159Y-60059048D01*
X121770066Y-60068934D01*
X121779952Y-60079841D01*
X121788720Y-60091664D01*
X121796288Y-60104290D01*
X121802582Y-60117597D01*
X121807541Y-60131457D01*
X121811118Y-60145736D01*
X121813278Y-60160297D01*
X121814000Y-60175000D01*
X121814000Y-60475000D01*
X121813278Y-60489703D01*
X121811118Y-60504264D01*
X121807541Y-60518543D01*
X121802582Y-60532403D01*
X121796288Y-60545710D01*
X121788720Y-60558336D01*
X121779952Y-60570159D01*
X121770066Y-60581066D01*
X121759159Y-60590952D01*
X121747336Y-60599720D01*
X121734710Y-60607288D01*
X121721403Y-60613582D01*
X121707543Y-60618541D01*
X121693264Y-60622118D01*
X121678703Y-60624278D01*
X121664000Y-60625000D01*
X120014000Y-60625000D01*
X119999297Y-60624278D01*
X119984736Y-60622118D01*
X119970457Y-60618541D01*
X119956597Y-60613582D01*
X119943290Y-60607288D01*
X119930664Y-60599720D01*
X119918841Y-60590952D01*
X119907934Y-60581066D01*
X119898048Y-60570159D01*
X119889280Y-60558336D01*
X119881712Y-60545710D01*
X119875418Y-60532403D01*
X119870459Y-60518543D01*
X119866882Y-60504264D01*
X119864722Y-60489703D01*
X119864000Y-60475000D01*
X119864000Y-60175000D01*
X119864722Y-60160297D01*
X119866882Y-60145736D01*
X119870459Y-60131457D01*
X119875418Y-60117597D01*
X119881712Y-60104290D01*
X119889280Y-60091664D01*
X119898048Y-60079841D01*
X119907934Y-60068934D01*
X119918841Y-60059048D01*
X119930664Y-60050280D01*
X119943290Y-60042712D01*
X119956597Y-60036418D01*
X119970457Y-60031459D01*
X119984736Y-60027882D01*
X119999297Y-60025722D01*
X120014000Y-60025000D01*
X121664000Y-60025000D01*
X121678703Y-60025722D01*
X121678703Y-60025722D01*
G37*
D11*
X120839000Y-60325000D03*
D10*
G36*
X122642691Y-51596053D02*
G01*
X122663926Y-51599203D01*
X122684750Y-51604419D01*
X122704962Y-51611651D01*
X122724368Y-51620830D01*
X122742781Y-51631866D01*
X122760024Y-51644654D01*
X122775930Y-51659070D01*
X122790346Y-51674976D01*
X122803134Y-51692219D01*
X122814170Y-51710632D01*
X122823349Y-51730038D01*
X122830581Y-51750250D01*
X122835797Y-51771074D01*
X122838947Y-51792309D01*
X122840000Y-51813750D01*
X122840000Y-52326250D01*
X122838947Y-52347691D01*
X122835797Y-52368926D01*
X122830581Y-52389750D01*
X122823349Y-52409962D01*
X122814170Y-52429368D01*
X122803134Y-52447781D01*
X122790346Y-52465024D01*
X122775930Y-52480930D01*
X122760024Y-52495346D01*
X122742781Y-52508134D01*
X122724368Y-52519170D01*
X122704962Y-52528349D01*
X122684750Y-52535581D01*
X122663926Y-52540797D01*
X122642691Y-52543947D01*
X122621250Y-52545000D01*
X122183750Y-52545000D01*
X122162309Y-52543947D01*
X122141074Y-52540797D01*
X122120250Y-52535581D01*
X122100038Y-52528349D01*
X122080632Y-52519170D01*
X122062219Y-52508134D01*
X122044976Y-52495346D01*
X122029070Y-52480930D01*
X122014654Y-52465024D01*
X122001866Y-52447781D01*
X121990830Y-52429368D01*
X121981651Y-52409962D01*
X121974419Y-52389750D01*
X121969203Y-52368926D01*
X121966053Y-52347691D01*
X121965000Y-52326250D01*
X121965000Y-51813750D01*
X121966053Y-51792309D01*
X121969203Y-51771074D01*
X121974419Y-51750250D01*
X121981651Y-51730038D01*
X121990830Y-51710632D01*
X122001866Y-51692219D01*
X122014654Y-51674976D01*
X122029070Y-51659070D01*
X122044976Y-51644654D01*
X122062219Y-51631866D01*
X122080632Y-51620830D01*
X122100038Y-51611651D01*
X122120250Y-51604419D01*
X122141074Y-51599203D01*
X122162309Y-51596053D01*
X122183750Y-51595000D01*
X122621250Y-51595000D01*
X122642691Y-51596053D01*
X122642691Y-51596053D01*
G37*
D12*
X122402500Y-52070000D03*
D10*
G36*
X124217691Y-51596053D02*
G01*
X124238926Y-51599203D01*
X124259750Y-51604419D01*
X124279962Y-51611651D01*
X124299368Y-51620830D01*
X124317781Y-51631866D01*
X124335024Y-51644654D01*
X124350930Y-51659070D01*
X124365346Y-51674976D01*
X124378134Y-51692219D01*
X124389170Y-51710632D01*
X124398349Y-51730038D01*
X124405581Y-51750250D01*
X124410797Y-51771074D01*
X124413947Y-51792309D01*
X124415000Y-51813750D01*
X124415000Y-52326250D01*
X124413947Y-52347691D01*
X124410797Y-52368926D01*
X124405581Y-52389750D01*
X124398349Y-52409962D01*
X124389170Y-52429368D01*
X124378134Y-52447781D01*
X124365346Y-52465024D01*
X124350930Y-52480930D01*
X124335024Y-52495346D01*
X124317781Y-52508134D01*
X124299368Y-52519170D01*
X124279962Y-52528349D01*
X124259750Y-52535581D01*
X124238926Y-52540797D01*
X124217691Y-52543947D01*
X124196250Y-52545000D01*
X123758750Y-52545000D01*
X123737309Y-52543947D01*
X123716074Y-52540797D01*
X123695250Y-52535581D01*
X123675038Y-52528349D01*
X123655632Y-52519170D01*
X123637219Y-52508134D01*
X123619976Y-52495346D01*
X123604070Y-52480930D01*
X123589654Y-52465024D01*
X123576866Y-52447781D01*
X123565830Y-52429368D01*
X123556651Y-52409962D01*
X123549419Y-52389750D01*
X123544203Y-52368926D01*
X123541053Y-52347691D01*
X123540000Y-52326250D01*
X123540000Y-51813750D01*
X123541053Y-51792309D01*
X123544203Y-51771074D01*
X123549419Y-51750250D01*
X123556651Y-51730038D01*
X123565830Y-51710632D01*
X123576866Y-51692219D01*
X123589654Y-51674976D01*
X123604070Y-51659070D01*
X123619976Y-51644654D01*
X123637219Y-51631866D01*
X123655632Y-51620830D01*
X123675038Y-51611651D01*
X123695250Y-51604419D01*
X123716074Y-51599203D01*
X123737309Y-51596053D01*
X123758750Y-51595000D01*
X124196250Y-51595000D01*
X124217691Y-51596053D01*
X124217691Y-51596053D01*
G37*
D12*
X123977500Y-52070000D03*
D10*
G36*
X124737691Y-66111553D02*
G01*
X124758926Y-66114703D01*
X124779750Y-66119919D01*
X124799962Y-66127151D01*
X124819368Y-66136330D01*
X124837781Y-66147366D01*
X124855024Y-66160154D01*
X124870930Y-66174570D01*
X124885346Y-66190476D01*
X124898134Y-66207719D01*
X124909170Y-66226132D01*
X124918349Y-66245538D01*
X124925581Y-66265750D01*
X124930797Y-66286574D01*
X124933947Y-66307809D01*
X124935000Y-66329250D01*
X124935000Y-66766750D01*
X124933947Y-66788191D01*
X124930797Y-66809426D01*
X124925581Y-66830250D01*
X124918349Y-66850462D01*
X124909170Y-66869868D01*
X124898134Y-66888281D01*
X124885346Y-66905524D01*
X124870930Y-66921430D01*
X124855024Y-66935846D01*
X124837781Y-66948634D01*
X124819368Y-66959670D01*
X124799962Y-66968849D01*
X124779750Y-66976081D01*
X124758926Y-66981297D01*
X124737691Y-66984447D01*
X124716250Y-66985500D01*
X124203750Y-66985500D01*
X124182309Y-66984447D01*
X124161074Y-66981297D01*
X124140250Y-66976081D01*
X124120038Y-66968849D01*
X124100632Y-66959670D01*
X124082219Y-66948634D01*
X124064976Y-66935846D01*
X124049070Y-66921430D01*
X124034654Y-66905524D01*
X124021866Y-66888281D01*
X124010830Y-66869868D01*
X124001651Y-66850462D01*
X123994419Y-66830250D01*
X123989203Y-66809426D01*
X123986053Y-66788191D01*
X123985000Y-66766750D01*
X123985000Y-66329250D01*
X123986053Y-66307809D01*
X123989203Y-66286574D01*
X123994419Y-66265750D01*
X124001651Y-66245538D01*
X124010830Y-66226132D01*
X124021866Y-66207719D01*
X124034654Y-66190476D01*
X124049070Y-66174570D01*
X124064976Y-66160154D01*
X124082219Y-66147366D01*
X124100632Y-66136330D01*
X124120038Y-66127151D01*
X124140250Y-66119919D01*
X124161074Y-66114703D01*
X124182309Y-66111553D01*
X124203750Y-66110500D01*
X124716250Y-66110500D01*
X124737691Y-66111553D01*
X124737691Y-66111553D01*
G37*
D12*
X124460000Y-66548000D03*
D10*
G36*
X124737691Y-67686553D02*
G01*
X124758926Y-67689703D01*
X124779750Y-67694919D01*
X124799962Y-67702151D01*
X124819368Y-67711330D01*
X124837781Y-67722366D01*
X124855024Y-67735154D01*
X124870930Y-67749570D01*
X124885346Y-67765476D01*
X124898134Y-67782719D01*
X124909170Y-67801132D01*
X124918349Y-67820538D01*
X124925581Y-67840750D01*
X124930797Y-67861574D01*
X124933947Y-67882809D01*
X124935000Y-67904250D01*
X124935000Y-68341750D01*
X124933947Y-68363191D01*
X124930797Y-68384426D01*
X124925581Y-68405250D01*
X124918349Y-68425462D01*
X124909170Y-68444868D01*
X124898134Y-68463281D01*
X124885346Y-68480524D01*
X124870930Y-68496430D01*
X124855024Y-68510846D01*
X124837781Y-68523634D01*
X124819368Y-68534670D01*
X124799962Y-68543849D01*
X124779750Y-68551081D01*
X124758926Y-68556297D01*
X124737691Y-68559447D01*
X124716250Y-68560500D01*
X124203750Y-68560500D01*
X124182309Y-68559447D01*
X124161074Y-68556297D01*
X124140250Y-68551081D01*
X124120038Y-68543849D01*
X124100632Y-68534670D01*
X124082219Y-68523634D01*
X124064976Y-68510846D01*
X124049070Y-68496430D01*
X124034654Y-68480524D01*
X124021866Y-68463281D01*
X124010830Y-68444868D01*
X124001651Y-68425462D01*
X123994419Y-68405250D01*
X123989203Y-68384426D01*
X123986053Y-68363191D01*
X123985000Y-68341750D01*
X123985000Y-67904250D01*
X123986053Y-67882809D01*
X123989203Y-67861574D01*
X123994419Y-67840750D01*
X124001651Y-67820538D01*
X124010830Y-67801132D01*
X124021866Y-67782719D01*
X124034654Y-67765476D01*
X124049070Y-67749570D01*
X124064976Y-67735154D01*
X124082219Y-67722366D01*
X124100632Y-67711330D01*
X124120038Y-67702151D01*
X124140250Y-67694919D01*
X124161074Y-67689703D01*
X124182309Y-67686553D01*
X124203750Y-67685500D01*
X124716250Y-67685500D01*
X124737691Y-67686553D01*
X124737691Y-67686553D01*
G37*
D12*
X124460000Y-68123000D03*
D10*
G36*
X113053691Y-66111553D02*
G01*
X113074926Y-66114703D01*
X113095750Y-66119919D01*
X113115962Y-66127151D01*
X113135368Y-66136330D01*
X113153781Y-66147366D01*
X113171024Y-66160154D01*
X113186930Y-66174570D01*
X113201346Y-66190476D01*
X113214134Y-66207719D01*
X113225170Y-66226132D01*
X113234349Y-66245538D01*
X113241581Y-66265750D01*
X113246797Y-66286574D01*
X113249947Y-66307809D01*
X113251000Y-66329250D01*
X113251000Y-66766750D01*
X113249947Y-66788191D01*
X113246797Y-66809426D01*
X113241581Y-66830250D01*
X113234349Y-66850462D01*
X113225170Y-66869868D01*
X113214134Y-66888281D01*
X113201346Y-66905524D01*
X113186930Y-66921430D01*
X113171024Y-66935846D01*
X113153781Y-66948634D01*
X113135368Y-66959670D01*
X113115962Y-66968849D01*
X113095750Y-66976081D01*
X113074926Y-66981297D01*
X113053691Y-66984447D01*
X113032250Y-66985500D01*
X112519750Y-66985500D01*
X112498309Y-66984447D01*
X112477074Y-66981297D01*
X112456250Y-66976081D01*
X112436038Y-66968849D01*
X112416632Y-66959670D01*
X112398219Y-66948634D01*
X112380976Y-66935846D01*
X112365070Y-66921430D01*
X112350654Y-66905524D01*
X112337866Y-66888281D01*
X112326830Y-66869868D01*
X112317651Y-66850462D01*
X112310419Y-66830250D01*
X112305203Y-66809426D01*
X112302053Y-66788191D01*
X112301000Y-66766750D01*
X112301000Y-66329250D01*
X112302053Y-66307809D01*
X112305203Y-66286574D01*
X112310419Y-66265750D01*
X112317651Y-66245538D01*
X112326830Y-66226132D01*
X112337866Y-66207719D01*
X112350654Y-66190476D01*
X112365070Y-66174570D01*
X112380976Y-66160154D01*
X112398219Y-66147366D01*
X112416632Y-66136330D01*
X112436038Y-66127151D01*
X112456250Y-66119919D01*
X112477074Y-66114703D01*
X112498309Y-66111553D01*
X112519750Y-66110500D01*
X113032250Y-66110500D01*
X113053691Y-66111553D01*
X113053691Y-66111553D01*
G37*
D12*
X112776000Y-66548000D03*
D10*
G36*
X113053691Y-67686553D02*
G01*
X113074926Y-67689703D01*
X113095750Y-67694919D01*
X113115962Y-67702151D01*
X113135368Y-67711330D01*
X113153781Y-67722366D01*
X113171024Y-67735154D01*
X113186930Y-67749570D01*
X113201346Y-67765476D01*
X113214134Y-67782719D01*
X113225170Y-67801132D01*
X113234349Y-67820538D01*
X113241581Y-67840750D01*
X113246797Y-67861574D01*
X113249947Y-67882809D01*
X113251000Y-67904250D01*
X113251000Y-68341750D01*
X113249947Y-68363191D01*
X113246797Y-68384426D01*
X113241581Y-68405250D01*
X113234349Y-68425462D01*
X113225170Y-68444868D01*
X113214134Y-68463281D01*
X113201346Y-68480524D01*
X113186930Y-68496430D01*
X113171024Y-68510846D01*
X113153781Y-68523634D01*
X113135368Y-68534670D01*
X113115962Y-68543849D01*
X113095750Y-68551081D01*
X113074926Y-68556297D01*
X113053691Y-68559447D01*
X113032250Y-68560500D01*
X112519750Y-68560500D01*
X112498309Y-68559447D01*
X112477074Y-68556297D01*
X112456250Y-68551081D01*
X112436038Y-68543849D01*
X112416632Y-68534670D01*
X112398219Y-68523634D01*
X112380976Y-68510846D01*
X112365070Y-68496430D01*
X112350654Y-68480524D01*
X112337866Y-68463281D01*
X112326830Y-68444868D01*
X112317651Y-68425462D01*
X112310419Y-68405250D01*
X112305203Y-68384426D01*
X112302053Y-68363191D01*
X112301000Y-68341750D01*
X112301000Y-67904250D01*
X112302053Y-67882809D01*
X112305203Y-67861574D01*
X112310419Y-67840750D01*
X112317651Y-67820538D01*
X112326830Y-67801132D01*
X112337866Y-67782719D01*
X112350654Y-67765476D01*
X112365070Y-67749570D01*
X112380976Y-67735154D01*
X112398219Y-67722366D01*
X112416632Y-67711330D01*
X112436038Y-67702151D01*
X112456250Y-67694919D01*
X112477074Y-67689703D01*
X112498309Y-67686553D01*
X112519750Y-67685500D01*
X113032250Y-67685500D01*
X113053691Y-67686553D01*
X113053691Y-67686553D01*
G37*
D12*
X112776000Y-68123000D03*
D10*
G36*
X126642691Y-52954553D02*
G01*
X126663926Y-52957703D01*
X126684750Y-52962919D01*
X126704962Y-52970151D01*
X126724368Y-52979330D01*
X126742781Y-52990366D01*
X126760024Y-53003154D01*
X126775930Y-53017570D01*
X126790346Y-53033476D01*
X126803134Y-53050719D01*
X126814170Y-53069132D01*
X126823349Y-53088538D01*
X126830581Y-53108750D01*
X126835797Y-53129574D01*
X126838947Y-53150809D01*
X126840000Y-53172250D01*
X126840000Y-53609750D01*
X126838947Y-53631191D01*
X126835797Y-53652426D01*
X126830581Y-53673250D01*
X126823349Y-53693462D01*
X126814170Y-53712868D01*
X126803134Y-53731281D01*
X126790346Y-53748524D01*
X126775930Y-53764430D01*
X126760024Y-53778846D01*
X126742781Y-53791634D01*
X126724368Y-53802670D01*
X126704962Y-53811849D01*
X126684750Y-53819081D01*
X126663926Y-53824297D01*
X126642691Y-53827447D01*
X126621250Y-53828500D01*
X126108750Y-53828500D01*
X126087309Y-53827447D01*
X126066074Y-53824297D01*
X126045250Y-53819081D01*
X126025038Y-53811849D01*
X126005632Y-53802670D01*
X125987219Y-53791634D01*
X125969976Y-53778846D01*
X125954070Y-53764430D01*
X125939654Y-53748524D01*
X125926866Y-53731281D01*
X125915830Y-53712868D01*
X125906651Y-53693462D01*
X125899419Y-53673250D01*
X125894203Y-53652426D01*
X125891053Y-53631191D01*
X125890000Y-53609750D01*
X125890000Y-53172250D01*
X125891053Y-53150809D01*
X125894203Y-53129574D01*
X125899419Y-53108750D01*
X125906651Y-53088538D01*
X125915830Y-53069132D01*
X125926866Y-53050719D01*
X125939654Y-53033476D01*
X125954070Y-53017570D01*
X125969976Y-53003154D01*
X125987219Y-52990366D01*
X126005632Y-52979330D01*
X126025038Y-52970151D01*
X126045250Y-52962919D01*
X126066074Y-52957703D01*
X126087309Y-52954553D01*
X126108750Y-52953500D01*
X126621250Y-52953500D01*
X126642691Y-52954553D01*
X126642691Y-52954553D01*
G37*
D12*
X126365000Y-53391000D03*
D10*
G36*
X126642691Y-51379553D02*
G01*
X126663926Y-51382703D01*
X126684750Y-51387919D01*
X126704962Y-51395151D01*
X126724368Y-51404330D01*
X126742781Y-51415366D01*
X126760024Y-51428154D01*
X126775930Y-51442570D01*
X126790346Y-51458476D01*
X126803134Y-51475719D01*
X126814170Y-51494132D01*
X126823349Y-51513538D01*
X126830581Y-51533750D01*
X126835797Y-51554574D01*
X126838947Y-51575809D01*
X126840000Y-51597250D01*
X126840000Y-52034750D01*
X126838947Y-52056191D01*
X126835797Y-52077426D01*
X126830581Y-52098250D01*
X126823349Y-52118462D01*
X126814170Y-52137868D01*
X126803134Y-52156281D01*
X126790346Y-52173524D01*
X126775930Y-52189430D01*
X126760024Y-52203846D01*
X126742781Y-52216634D01*
X126724368Y-52227670D01*
X126704962Y-52236849D01*
X126684750Y-52244081D01*
X126663926Y-52249297D01*
X126642691Y-52252447D01*
X126621250Y-52253500D01*
X126108750Y-52253500D01*
X126087309Y-52252447D01*
X126066074Y-52249297D01*
X126045250Y-52244081D01*
X126025038Y-52236849D01*
X126005632Y-52227670D01*
X125987219Y-52216634D01*
X125969976Y-52203846D01*
X125954070Y-52189430D01*
X125939654Y-52173524D01*
X125926866Y-52156281D01*
X125915830Y-52137868D01*
X125906651Y-52118462D01*
X125899419Y-52098250D01*
X125894203Y-52077426D01*
X125891053Y-52056191D01*
X125890000Y-52034750D01*
X125890000Y-51597250D01*
X125891053Y-51575809D01*
X125894203Y-51554574D01*
X125899419Y-51533750D01*
X125906651Y-51513538D01*
X125915830Y-51494132D01*
X125926866Y-51475719D01*
X125939654Y-51458476D01*
X125954070Y-51442570D01*
X125969976Y-51428154D01*
X125987219Y-51415366D01*
X126005632Y-51404330D01*
X126025038Y-51395151D01*
X126045250Y-51387919D01*
X126066074Y-51382703D01*
X126087309Y-51379553D01*
X126108750Y-51378500D01*
X126621250Y-51378500D01*
X126642691Y-51379553D01*
X126642691Y-51379553D01*
G37*
D12*
X126365000Y-51816000D03*
M02*
