G04 #@! TF.GenerationSoftware,KiCad,Pcbnew,5.1.4*
G04 #@! TF.CreationDate,2020-01-07T12:57:50-05:00*
G04 #@! TF.ProjectId,siot-node-current-clamp,73696f74-2d6e-46f6-9465-2d6375727265,rev?*
G04 #@! TF.SameCoordinates,Original*
G04 #@! TF.FileFunction,Soldermask,Top*
G04 #@! TF.FilePolarity,Negative*
%FSLAX46Y46*%
G04 Gerber Fmt 4.6, Leading zero omitted, Abs format (unit mm)*
G04 Created by KiCad (PCBNEW 5.1.4) date 2020-01-07 12:57:50*
%MOMM*%
%LPD*%
G04 APERTURE LIST*
%ADD10C,0.100000*%
G04 APERTURE END LIST*
D10*
G36*
X122005752Y-66673097D02*
G01*
X122186295Y-66727864D01*
X122352677Y-66816797D01*
X122498516Y-66936484D01*
X122618203Y-67082323D01*
X122707136Y-67248705D01*
X122761903Y-67429248D01*
X122781000Y-67623140D01*
X122781000Y-69786860D01*
X122761903Y-69980752D01*
X122707136Y-70161295D01*
X122618203Y-70327677D01*
X122498516Y-70473516D01*
X122352677Y-70593203D01*
X122186295Y-70682136D01*
X122005752Y-70736903D01*
X121811860Y-70756000D01*
X119648140Y-70756000D01*
X119454248Y-70736903D01*
X119273705Y-70682136D01*
X119107323Y-70593203D01*
X118961484Y-70473516D01*
X118841797Y-70327677D01*
X118752864Y-70161295D01*
X118698097Y-69980752D01*
X118679000Y-69786860D01*
X118679000Y-67623140D01*
X118698097Y-67429248D01*
X118752864Y-67248705D01*
X118841797Y-67082323D01*
X118961484Y-66936484D01*
X119107323Y-66816797D01*
X119273705Y-66727864D01*
X119454248Y-66673097D01*
X119648140Y-66654000D01*
X121811860Y-66654000D01*
X122005752Y-66673097D01*
X122005752Y-66673097D01*
G37*
G36*
X117255752Y-66673097D02*
G01*
X117436295Y-66727864D01*
X117602677Y-66816797D01*
X117748516Y-66936484D01*
X117868203Y-67082323D01*
X117957136Y-67248705D01*
X118011903Y-67429248D01*
X118031000Y-67623140D01*
X118031000Y-69786860D01*
X118011903Y-69980752D01*
X117957136Y-70161295D01*
X117868203Y-70327677D01*
X117748516Y-70473516D01*
X117602677Y-70593203D01*
X117436295Y-70682136D01*
X117255752Y-70736903D01*
X117061860Y-70756000D01*
X114898140Y-70756000D01*
X114704248Y-70736903D01*
X114523705Y-70682136D01*
X114357323Y-70593203D01*
X114211484Y-70473516D01*
X114091797Y-70327677D01*
X114002864Y-70161295D01*
X113948097Y-69980752D01*
X113929000Y-69786860D01*
X113929000Y-67623140D01*
X113948097Y-67429248D01*
X114002864Y-67248705D01*
X114091797Y-67082323D01*
X114211484Y-66936484D01*
X114357323Y-66816797D01*
X114523705Y-66727864D01*
X114704248Y-66673097D01*
X114898140Y-66654000D01*
X117061860Y-66654000D01*
X117255752Y-66673097D01*
X117255752Y-66673097D01*
G37*
G36*
X122005752Y-61673097D02*
G01*
X122186295Y-61727864D01*
X122352677Y-61816797D01*
X122498516Y-61936484D01*
X122618203Y-62082323D01*
X122707136Y-62248705D01*
X122761903Y-62429248D01*
X122781000Y-62623140D01*
X122781000Y-64786860D01*
X122761903Y-64980752D01*
X122707136Y-65161295D01*
X122618203Y-65327677D01*
X122498516Y-65473516D01*
X122352677Y-65593203D01*
X122186295Y-65682136D01*
X122005752Y-65736903D01*
X121811860Y-65756000D01*
X119648140Y-65756000D01*
X119454248Y-65736903D01*
X119273705Y-65682136D01*
X119107323Y-65593203D01*
X118961484Y-65473516D01*
X118841797Y-65327677D01*
X118752864Y-65161295D01*
X118698097Y-64980752D01*
X118679000Y-64786860D01*
X118679000Y-62623140D01*
X118698097Y-62429248D01*
X118752864Y-62248705D01*
X118841797Y-62082323D01*
X118961484Y-61936484D01*
X119107323Y-61816797D01*
X119273705Y-61727864D01*
X119454248Y-61673097D01*
X119648140Y-61654000D01*
X121811860Y-61654000D01*
X122005752Y-61673097D01*
X122005752Y-61673097D01*
G37*
G36*
X117255752Y-61673097D02*
G01*
X117436295Y-61727864D01*
X117602677Y-61816797D01*
X117748516Y-61936484D01*
X117868203Y-62082323D01*
X117957136Y-62248705D01*
X118011903Y-62429248D01*
X118031000Y-62623140D01*
X118031000Y-64786860D01*
X118011903Y-64980752D01*
X117957136Y-65161295D01*
X117868203Y-65327677D01*
X117748516Y-65473516D01*
X117602677Y-65593203D01*
X117436295Y-65682136D01*
X117255752Y-65736903D01*
X117061860Y-65756000D01*
X114898140Y-65756000D01*
X114704248Y-65736903D01*
X114523705Y-65682136D01*
X114357323Y-65593203D01*
X114211484Y-65473516D01*
X114091797Y-65327677D01*
X114002864Y-65161295D01*
X113948097Y-64980752D01*
X113929000Y-64786860D01*
X113929000Y-62623140D01*
X113948097Y-62429248D01*
X114002864Y-62248705D01*
X114091797Y-62082323D01*
X114211484Y-61936484D01*
X114357323Y-61816797D01*
X114523705Y-61727864D01*
X114704248Y-61673097D01*
X114898140Y-61654000D01*
X117061860Y-61654000D01*
X117255752Y-61673097D01*
X117255752Y-61673097D01*
G37*
G36*
X110259591Y-63333085D02*
G01*
X110293569Y-63343393D01*
X110324890Y-63360134D01*
X110352339Y-63382661D01*
X110374866Y-63410110D01*
X110391607Y-63441431D01*
X110401915Y-63475409D01*
X110406000Y-63516890D01*
X110406000Y-64193110D01*
X110401915Y-64234591D01*
X110391607Y-64268569D01*
X110374866Y-64299890D01*
X110352339Y-64327339D01*
X110324890Y-64349866D01*
X110293569Y-64366607D01*
X110259591Y-64376915D01*
X110218110Y-64381000D01*
X109616890Y-64381000D01*
X109575409Y-64376915D01*
X109541431Y-64366607D01*
X109510110Y-64349866D01*
X109482661Y-64327339D01*
X109460134Y-64299890D01*
X109443393Y-64268569D01*
X109433085Y-64234591D01*
X109429000Y-64193110D01*
X109429000Y-63516890D01*
X109433085Y-63475409D01*
X109443393Y-63441431D01*
X109460134Y-63410110D01*
X109482661Y-63382661D01*
X109510110Y-63360134D01*
X109541431Y-63343393D01*
X109575409Y-63333085D01*
X109616890Y-63329000D01*
X110218110Y-63329000D01*
X110259591Y-63333085D01*
X110259591Y-63333085D01*
G37*
G36*
X108684591Y-63333085D02*
G01*
X108718569Y-63343393D01*
X108749890Y-63360134D01*
X108777339Y-63382661D01*
X108799866Y-63410110D01*
X108816607Y-63441431D01*
X108826915Y-63475409D01*
X108831000Y-63516890D01*
X108831000Y-64193110D01*
X108826915Y-64234591D01*
X108816607Y-64268569D01*
X108799866Y-64299890D01*
X108777339Y-64327339D01*
X108749890Y-64349866D01*
X108718569Y-64366607D01*
X108684591Y-64376915D01*
X108643110Y-64381000D01*
X108041890Y-64381000D01*
X108000409Y-64376915D01*
X107966431Y-64366607D01*
X107935110Y-64349866D01*
X107907661Y-64327339D01*
X107885134Y-64299890D01*
X107868393Y-64268569D01*
X107858085Y-64234591D01*
X107854000Y-64193110D01*
X107854000Y-63516890D01*
X107858085Y-63475409D01*
X107868393Y-63441431D01*
X107885134Y-63410110D01*
X107907661Y-63382661D01*
X107935110Y-63360134D01*
X107966431Y-63343393D01*
X108000409Y-63333085D01*
X108041890Y-63329000D01*
X108643110Y-63329000D01*
X108684591Y-63333085D01*
X108684591Y-63333085D01*
G37*
G36*
X110656000Y-62626000D02*
G01*
X108004000Y-62626000D01*
X108004000Y-61304000D01*
X110656000Y-61304000D01*
X110656000Y-62626000D01*
X110656000Y-62626000D01*
G37*
G36*
X117255752Y-56673097D02*
G01*
X117436295Y-56727864D01*
X117602677Y-56816797D01*
X117748516Y-56936484D01*
X117868203Y-57082323D01*
X117957136Y-57248705D01*
X118011903Y-57429248D01*
X118031000Y-57623140D01*
X118031000Y-59786860D01*
X118011903Y-59980752D01*
X117957136Y-60161295D01*
X117868203Y-60327677D01*
X117748516Y-60473516D01*
X117602677Y-60593203D01*
X117436295Y-60682136D01*
X117255752Y-60736903D01*
X117061860Y-60756000D01*
X114898140Y-60756000D01*
X114704248Y-60736903D01*
X114523705Y-60682136D01*
X114357323Y-60593203D01*
X114211484Y-60473516D01*
X114091797Y-60327677D01*
X114002864Y-60161295D01*
X113948097Y-59980752D01*
X113929000Y-59786860D01*
X113929000Y-57623140D01*
X113948097Y-57429248D01*
X114002864Y-57248705D01*
X114091797Y-57082323D01*
X114211484Y-56936484D01*
X114357323Y-56816797D01*
X114523705Y-56727864D01*
X114704248Y-56673097D01*
X114898140Y-56654000D01*
X117061860Y-56654000D01*
X117255752Y-56673097D01*
X117255752Y-56673097D01*
G37*
G36*
X122005752Y-56673097D02*
G01*
X122186295Y-56727864D01*
X122352677Y-56816797D01*
X122498516Y-56936484D01*
X122618203Y-57082323D01*
X122707136Y-57248705D01*
X122761903Y-57429248D01*
X122781000Y-57623140D01*
X122781000Y-59786860D01*
X122761903Y-59980752D01*
X122707136Y-60161295D01*
X122618203Y-60327677D01*
X122498516Y-60473516D01*
X122352677Y-60593203D01*
X122186295Y-60682136D01*
X122005752Y-60736903D01*
X121811860Y-60756000D01*
X119648140Y-60756000D01*
X119454248Y-60736903D01*
X119273705Y-60682136D01*
X119107323Y-60593203D01*
X118961484Y-60473516D01*
X118841797Y-60327677D01*
X118752864Y-60161295D01*
X118698097Y-59980752D01*
X118679000Y-59786860D01*
X118679000Y-57623140D01*
X118698097Y-57429248D01*
X118752864Y-57248705D01*
X118841797Y-57082323D01*
X118961484Y-56936484D01*
X119107323Y-56816797D01*
X119273705Y-56727864D01*
X119454248Y-56673097D01*
X119648140Y-56654000D01*
X121811860Y-56654000D01*
X122005752Y-56673097D01*
X122005752Y-56673097D01*
G37*
G36*
X108756000Y-60006000D02*
G01*
X108004000Y-60006000D01*
X108004000Y-58684000D01*
X108756000Y-58684000D01*
X108756000Y-60006000D01*
X108756000Y-60006000D01*
G37*
G36*
X110656000Y-60006000D02*
G01*
X109904000Y-60006000D01*
X109904000Y-58684000D01*
X110656000Y-58684000D01*
X110656000Y-60006000D01*
X110656000Y-60006000D01*
G37*
G36*
X127459591Y-56933085D02*
G01*
X127493569Y-56943393D01*
X127524890Y-56960134D01*
X127552339Y-56982661D01*
X127574866Y-57010110D01*
X127591607Y-57041431D01*
X127601915Y-57075409D01*
X127606000Y-57116890D01*
X127606000Y-57793110D01*
X127601915Y-57834591D01*
X127591607Y-57868569D01*
X127574866Y-57899890D01*
X127552339Y-57927339D01*
X127524890Y-57949866D01*
X127493569Y-57966607D01*
X127459591Y-57976915D01*
X127418110Y-57981000D01*
X126816890Y-57981000D01*
X126775409Y-57976915D01*
X126741431Y-57966607D01*
X126710110Y-57949866D01*
X126682661Y-57927339D01*
X126660134Y-57899890D01*
X126643393Y-57868569D01*
X126633085Y-57834591D01*
X126629000Y-57793110D01*
X126629000Y-57116890D01*
X126633085Y-57075409D01*
X126643393Y-57041431D01*
X126660134Y-57010110D01*
X126682661Y-56982661D01*
X126710110Y-56960134D01*
X126741431Y-56943393D01*
X126775409Y-56933085D01*
X126816890Y-56929000D01*
X127418110Y-56929000D01*
X127459591Y-56933085D01*
X127459591Y-56933085D01*
G37*
G36*
X125884591Y-56933085D02*
G01*
X125918569Y-56943393D01*
X125949890Y-56960134D01*
X125977339Y-56982661D01*
X125999866Y-57010110D01*
X126016607Y-57041431D01*
X126026915Y-57075409D01*
X126031000Y-57116890D01*
X126031000Y-57793110D01*
X126026915Y-57834591D01*
X126016607Y-57868569D01*
X125999866Y-57899890D01*
X125977339Y-57927339D01*
X125949890Y-57949866D01*
X125918569Y-57966607D01*
X125884591Y-57976915D01*
X125843110Y-57981000D01*
X125241890Y-57981000D01*
X125200409Y-57976915D01*
X125166431Y-57966607D01*
X125135110Y-57949866D01*
X125107661Y-57927339D01*
X125085134Y-57899890D01*
X125068393Y-57868569D01*
X125058085Y-57834591D01*
X125054000Y-57793110D01*
X125054000Y-57116890D01*
X125058085Y-57075409D01*
X125068393Y-57041431D01*
X125085134Y-57010110D01*
X125107661Y-56982661D01*
X125135110Y-56960134D01*
X125166431Y-56943393D01*
X125200409Y-56933085D01*
X125241890Y-56929000D01*
X125843110Y-56929000D01*
X125884591Y-56933085D01*
X125884591Y-56933085D01*
G37*
G36*
X108709591Y-55470585D02*
G01*
X108743569Y-55480893D01*
X108774890Y-55497634D01*
X108802339Y-55520161D01*
X108824866Y-55547610D01*
X108841607Y-55578931D01*
X108851915Y-55612909D01*
X108856000Y-55654390D01*
X108856000Y-56255610D01*
X108851915Y-56297091D01*
X108841607Y-56331069D01*
X108824866Y-56362390D01*
X108802339Y-56389839D01*
X108774890Y-56412366D01*
X108743569Y-56429107D01*
X108709591Y-56439415D01*
X108668110Y-56443500D01*
X107991890Y-56443500D01*
X107950409Y-56439415D01*
X107916431Y-56429107D01*
X107885110Y-56412366D01*
X107857661Y-56389839D01*
X107835134Y-56362390D01*
X107818393Y-56331069D01*
X107808085Y-56297091D01*
X107804000Y-56255610D01*
X107804000Y-55654390D01*
X107808085Y-55612909D01*
X107818393Y-55578931D01*
X107835134Y-55547610D01*
X107857661Y-55520161D01*
X107885110Y-55497634D01*
X107916431Y-55480893D01*
X107950409Y-55470585D01*
X107991890Y-55466500D01*
X108668110Y-55466500D01*
X108709591Y-55470585D01*
X108709591Y-55470585D01*
G37*
G36*
X128389928Y-55361764D02*
G01*
X128411009Y-55368160D01*
X128430445Y-55378548D01*
X128447476Y-55392524D01*
X128461452Y-55409555D01*
X128471840Y-55428991D01*
X128478236Y-55450072D01*
X128481000Y-55478140D01*
X128481000Y-55941860D01*
X128478236Y-55969928D01*
X128471840Y-55991009D01*
X128461452Y-56010445D01*
X128447476Y-56027476D01*
X128430445Y-56041452D01*
X128411009Y-56051840D01*
X128389928Y-56058236D01*
X128361860Y-56061000D01*
X126548140Y-56061000D01*
X126520072Y-56058236D01*
X126498991Y-56051840D01*
X126479555Y-56041452D01*
X126462524Y-56027476D01*
X126448548Y-56010445D01*
X126438160Y-55991009D01*
X126431764Y-55969928D01*
X126429000Y-55941860D01*
X126429000Y-55478140D01*
X126431764Y-55450072D01*
X126438160Y-55428991D01*
X126448548Y-55409555D01*
X126462524Y-55392524D01*
X126479555Y-55378548D01*
X126498991Y-55368160D01*
X126520072Y-55361764D01*
X126548140Y-55359000D01*
X128361860Y-55359000D01*
X128389928Y-55361764D01*
X128389928Y-55361764D01*
G37*
G36*
X123439928Y-55361764D02*
G01*
X123461009Y-55368160D01*
X123480445Y-55378548D01*
X123497476Y-55392524D01*
X123511452Y-55409555D01*
X123521840Y-55428991D01*
X123528236Y-55450072D01*
X123531000Y-55478140D01*
X123531000Y-55941860D01*
X123528236Y-55969928D01*
X123521840Y-55991009D01*
X123511452Y-56010445D01*
X123497476Y-56027476D01*
X123480445Y-56041452D01*
X123461009Y-56051840D01*
X123439928Y-56058236D01*
X123411860Y-56061000D01*
X121598140Y-56061000D01*
X121570072Y-56058236D01*
X121548991Y-56051840D01*
X121529555Y-56041452D01*
X121512524Y-56027476D01*
X121498548Y-56010445D01*
X121488160Y-55991009D01*
X121481764Y-55969928D01*
X121479000Y-55941860D01*
X121479000Y-55478140D01*
X121481764Y-55450072D01*
X121488160Y-55428991D01*
X121498548Y-55409555D01*
X121512524Y-55392524D01*
X121529555Y-55378548D01*
X121548991Y-55368160D01*
X121570072Y-55361764D01*
X121598140Y-55359000D01*
X123411860Y-55359000D01*
X123439928Y-55361764D01*
X123439928Y-55361764D01*
G37*
G36*
X120406979Y-52818293D02*
G01*
X120540625Y-52858834D01*
X120663784Y-52924664D01*
X120771740Y-53013260D01*
X120860336Y-53121216D01*
X120926166Y-53244375D01*
X120966707Y-53378021D01*
X120981000Y-53523140D01*
X120981000Y-55186860D01*
X120966707Y-55331979D01*
X120926166Y-55465625D01*
X120860336Y-55588784D01*
X120771740Y-55696740D01*
X120663784Y-55785336D01*
X120540625Y-55851166D01*
X120406979Y-55891707D01*
X120261860Y-55906000D01*
X118598140Y-55906000D01*
X118453021Y-55891707D01*
X118319375Y-55851166D01*
X118196216Y-55785336D01*
X118088260Y-55696740D01*
X117999664Y-55588784D01*
X117933834Y-55465625D01*
X117893293Y-55331979D01*
X117879000Y-55186860D01*
X117879000Y-53523140D01*
X117893293Y-53378021D01*
X117933834Y-53244375D01*
X117999664Y-53121216D01*
X118088260Y-53013260D01*
X118196216Y-52924664D01*
X118319375Y-52858834D01*
X118453021Y-52818293D01*
X118598140Y-52804000D01*
X120261860Y-52804000D01*
X120406979Y-52818293D01*
X120406979Y-52818293D01*
G37*
G36*
X116906979Y-52818293D02*
G01*
X117040625Y-52858834D01*
X117163784Y-52924664D01*
X117271740Y-53013260D01*
X117360336Y-53121216D01*
X117426166Y-53244375D01*
X117466707Y-53378021D01*
X117481000Y-53523140D01*
X117481000Y-55186860D01*
X117466707Y-55331979D01*
X117426166Y-55465625D01*
X117360336Y-55588784D01*
X117271740Y-55696740D01*
X117163784Y-55785336D01*
X117040625Y-55851166D01*
X116906979Y-55891707D01*
X116761860Y-55906000D01*
X115098140Y-55906000D01*
X114953021Y-55891707D01*
X114819375Y-55851166D01*
X114696216Y-55785336D01*
X114588260Y-55696740D01*
X114499664Y-55588784D01*
X114433834Y-55465625D01*
X114393293Y-55331979D01*
X114379000Y-55186860D01*
X114379000Y-53523140D01*
X114393293Y-53378021D01*
X114433834Y-53244375D01*
X114499664Y-53121216D01*
X114588260Y-53013260D01*
X114696216Y-52924664D01*
X114819375Y-52858834D01*
X114953021Y-52818293D01*
X115098140Y-52804000D01*
X116761860Y-52804000D01*
X116906979Y-52818293D01*
X116906979Y-52818293D01*
G37*
G36*
X113406979Y-52818293D02*
G01*
X113540625Y-52858834D01*
X113663784Y-52924664D01*
X113771740Y-53013260D01*
X113860336Y-53121216D01*
X113926166Y-53244375D01*
X113966707Y-53378021D01*
X113981000Y-53523140D01*
X113981000Y-55186860D01*
X113966707Y-55331979D01*
X113926166Y-55465625D01*
X113860336Y-55588784D01*
X113771740Y-55696740D01*
X113663784Y-55785336D01*
X113540625Y-55851166D01*
X113406979Y-55891707D01*
X113261860Y-55906000D01*
X111598140Y-55906000D01*
X111453021Y-55891707D01*
X111319375Y-55851166D01*
X111196216Y-55785336D01*
X111088260Y-55696740D01*
X110999664Y-55588784D01*
X110933834Y-55465625D01*
X110893293Y-55331979D01*
X110879000Y-55186860D01*
X110879000Y-53523140D01*
X110893293Y-53378021D01*
X110933834Y-53244375D01*
X110999664Y-53121216D01*
X111088260Y-53013260D01*
X111196216Y-52924664D01*
X111319375Y-52858834D01*
X111453021Y-52818293D01*
X111598140Y-52804000D01*
X113261860Y-52804000D01*
X113406979Y-52818293D01*
X113406979Y-52818293D01*
G37*
G36*
X108709591Y-53895585D02*
G01*
X108743569Y-53905893D01*
X108774890Y-53922634D01*
X108802339Y-53945161D01*
X108824866Y-53972610D01*
X108841607Y-54003931D01*
X108851915Y-54037909D01*
X108856000Y-54079390D01*
X108856000Y-54680610D01*
X108851915Y-54722091D01*
X108841607Y-54756069D01*
X108824866Y-54787390D01*
X108802339Y-54814839D01*
X108774890Y-54837366D01*
X108743569Y-54854107D01*
X108709591Y-54864415D01*
X108668110Y-54868500D01*
X107991890Y-54868500D01*
X107950409Y-54864415D01*
X107916431Y-54854107D01*
X107885110Y-54837366D01*
X107857661Y-54814839D01*
X107835134Y-54787390D01*
X107818393Y-54756069D01*
X107808085Y-54722091D01*
X107804000Y-54680610D01*
X107804000Y-54079390D01*
X107808085Y-54037909D01*
X107818393Y-54003931D01*
X107835134Y-53972610D01*
X107857661Y-53945161D01*
X107885110Y-53922634D01*
X107916431Y-53905893D01*
X107950409Y-53895585D01*
X107991890Y-53891500D01*
X108668110Y-53891500D01*
X108709591Y-53895585D01*
X108709591Y-53895585D01*
G37*
G36*
X123439928Y-54091764D02*
G01*
X123461009Y-54098160D01*
X123480445Y-54108548D01*
X123497476Y-54122524D01*
X123511452Y-54139555D01*
X123521840Y-54158991D01*
X123528236Y-54180072D01*
X123531000Y-54208140D01*
X123531000Y-54671860D01*
X123528236Y-54699928D01*
X123521840Y-54721009D01*
X123511452Y-54740445D01*
X123497476Y-54757476D01*
X123480445Y-54771452D01*
X123461009Y-54781840D01*
X123439928Y-54788236D01*
X123411860Y-54791000D01*
X121598140Y-54791000D01*
X121570072Y-54788236D01*
X121548991Y-54781840D01*
X121529555Y-54771452D01*
X121512524Y-54757476D01*
X121498548Y-54740445D01*
X121488160Y-54721009D01*
X121481764Y-54699928D01*
X121479000Y-54671860D01*
X121479000Y-54208140D01*
X121481764Y-54180072D01*
X121488160Y-54158991D01*
X121498548Y-54139555D01*
X121512524Y-54122524D01*
X121529555Y-54108548D01*
X121548991Y-54098160D01*
X121570072Y-54091764D01*
X121598140Y-54089000D01*
X123411860Y-54089000D01*
X123439928Y-54091764D01*
X123439928Y-54091764D01*
G37*
G36*
X128389928Y-54091764D02*
G01*
X128411009Y-54098160D01*
X128430445Y-54108548D01*
X128447476Y-54122524D01*
X128461452Y-54139555D01*
X128471840Y-54158991D01*
X128478236Y-54180072D01*
X128481000Y-54208140D01*
X128481000Y-54671860D01*
X128478236Y-54699928D01*
X128471840Y-54721009D01*
X128461452Y-54740445D01*
X128447476Y-54757476D01*
X128430445Y-54771452D01*
X128411009Y-54781840D01*
X128389928Y-54788236D01*
X128361860Y-54791000D01*
X126548140Y-54791000D01*
X126520072Y-54788236D01*
X126498991Y-54781840D01*
X126479555Y-54771452D01*
X126462524Y-54757476D01*
X126448548Y-54740445D01*
X126438160Y-54721009D01*
X126431764Y-54699928D01*
X126429000Y-54671860D01*
X126429000Y-54208140D01*
X126431764Y-54180072D01*
X126438160Y-54158991D01*
X126448548Y-54139555D01*
X126462524Y-54122524D01*
X126479555Y-54108548D01*
X126498991Y-54098160D01*
X126520072Y-54091764D01*
X126548140Y-54089000D01*
X128361860Y-54089000D01*
X128389928Y-54091764D01*
X128389928Y-54091764D01*
G37*
G36*
X128389928Y-52821764D02*
G01*
X128411009Y-52828160D01*
X128430445Y-52838548D01*
X128447476Y-52852524D01*
X128461452Y-52869555D01*
X128471840Y-52888991D01*
X128478236Y-52910072D01*
X128481000Y-52938140D01*
X128481000Y-53401860D01*
X128478236Y-53429928D01*
X128471840Y-53451009D01*
X128461452Y-53470445D01*
X128447476Y-53487476D01*
X128430445Y-53501452D01*
X128411009Y-53511840D01*
X128389928Y-53518236D01*
X128361860Y-53521000D01*
X126548140Y-53521000D01*
X126520072Y-53518236D01*
X126498991Y-53511840D01*
X126479555Y-53501452D01*
X126462524Y-53487476D01*
X126448548Y-53470445D01*
X126438160Y-53451009D01*
X126431764Y-53429928D01*
X126429000Y-53401860D01*
X126429000Y-52938140D01*
X126431764Y-52910072D01*
X126438160Y-52888991D01*
X126448548Y-52869555D01*
X126462524Y-52852524D01*
X126479555Y-52838548D01*
X126498991Y-52828160D01*
X126520072Y-52821764D01*
X126548140Y-52819000D01*
X128361860Y-52819000D01*
X128389928Y-52821764D01*
X128389928Y-52821764D01*
G37*
G36*
X123439928Y-52821764D02*
G01*
X123461009Y-52828160D01*
X123480445Y-52838548D01*
X123497476Y-52852524D01*
X123511452Y-52869555D01*
X123521840Y-52888991D01*
X123528236Y-52910072D01*
X123531000Y-52938140D01*
X123531000Y-53401860D01*
X123528236Y-53429928D01*
X123521840Y-53451009D01*
X123511452Y-53470445D01*
X123497476Y-53487476D01*
X123480445Y-53501452D01*
X123461009Y-53511840D01*
X123439928Y-53518236D01*
X123411860Y-53521000D01*
X121598140Y-53521000D01*
X121570072Y-53518236D01*
X121548991Y-53511840D01*
X121529555Y-53501452D01*
X121512524Y-53487476D01*
X121498548Y-53470445D01*
X121488160Y-53451009D01*
X121481764Y-53429928D01*
X121479000Y-53401860D01*
X121479000Y-52938140D01*
X121481764Y-52910072D01*
X121488160Y-52888991D01*
X121498548Y-52869555D01*
X121512524Y-52852524D01*
X121529555Y-52838548D01*
X121548991Y-52828160D01*
X121570072Y-52821764D01*
X121598140Y-52819000D01*
X123411860Y-52819000D01*
X123439928Y-52821764D01*
X123439928Y-52821764D01*
G37*
G36*
X108672091Y-52233085D02*
G01*
X108706069Y-52243393D01*
X108737390Y-52260134D01*
X108764839Y-52282661D01*
X108787366Y-52310110D01*
X108804107Y-52341431D01*
X108814415Y-52375409D01*
X108818500Y-52416890D01*
X108818500Y-53093110D01*
X108814415Y-53134591D01*
X108804107Y-53168569D01*
X108787366Y-53199890D01*
X108764839Y-53227339D01*
X108737390Y-53249866D01*
X108706069Y-53266607D01*
X108672091Y-53276915D01*
X108630610Y-53281000D01*
X108029390Y-53281000D01*
X107987909Y-53276915D01*
X107953931Y-53266607D01*
X107922610Y-53249866D01*
X107895161Y-53227339D01*
X107872634Y-53199890D01*
X107855893Y-53168569D01*
X107845585Y-53134591D01*
X107841500Y-53093110D01*
X107841500Y-52416890D01*
X107845585Y-52375409D01*
X107855893Y-52341431D01*
X107872634Y-52310110D01*
X107895161Y-52282661D01*
X107922610Y-52260134D01*
X107953931Y-52243393D01*
X107987909Y-52233085D01*
X108029390Y-52229000D01*
X108630610Y-52229000D01*
X108672091Y-52233085D01*
X108672091Y-52233085D01*
G37*
G36*
X110247091Y-52233085D02*
G01*
X110281069Y-52243393D01*
X110312390Y-52260134D01*
X110339839Y-52282661D01*
X110362366Y-52310110D01*
X110379107Y-52341431D01*
X110389415Y-52375409D01*
X110393500Y-52416890D01*
X110393500Y-53093110D01*
X110389415Y-53134591D01*
X110379107Y-53168569D01*
X110362366Y-53199890D01*
X110339839Y-53227339D01*
X110312390Y-53249866D01*
X110281069Y-53266607D01*
X110247091Y-53276915D01*
X110205610Y-53281000D01*
X109604390Y-53281000D01*
X109562909Y-53276915D01*
X109528931Y-53266607D01*
X109497610Y-53249866D01*
X109470161Y-53227339D01*
X109447634Y-53199890D01*
X109430893Y-53168569D01*
X109420585Y-53134591D01*
X109416500Y-53093110D01*
X109416500Y-52416890D01*
X109420585Y-52375409D01*
X109430893Y-52341431D01*
X109447634Y-52310110D01*
X109470161Y-52282661D01*
X109497610Y-52260134D01*
X109528931Y-52243393D01*
X109562909Y-52233085D01*
X109604390Y-52229000D01*
X110205610Y-52229000D01*
X110247091Y-52233085D01*
X110247091Y-52233085D01*
G37*
G36*
X128389928Y-51551764D02*
G01*
X128411009Y-51558160D01*
X128430445Y-51568548D01*
X128447476Y-51582524D01*
X128461452Y-51599555D01*
X128471840Y-51618991D01*
X128478236Y-51640072D01*
X128481000Y-51668140D01*
X128481000Y-52131860D01*
X128478236Y-52159928D01*
X128471840Y-52181009D01*
X128461452Y-52200445D01*
X128447476Y-52217476D01*
X128430445Y-52231452D01*
X128411009Y-52241840D01*
X128389928Y-52248236D01*
X128361860Y-52251000D01*
X126548140Y-52251000D01*
X126520072Y-52248236D01*
X126498991Y-52241840D01*
X126479555Y-52231452D01*
X126462524Y-52217476D01*
X126448548Y-52200445D01*
X126438160Y-52181009D01*
X126431764Y-52159928D01*
X126429000Y-52131860D01*
X126429000Y-51668140D01*
X126431764Y-51640072D01*
X126438160Y-51618991D01*
X126448548Y-51599555D01*
X126462524Y-51582524D01*
X126479555Y-51568548D01*
X126498991Y-51558160D01*
X126520072Y-51551764D01*
X126548140Y-51549000D01*
X128361860Y-51549000D01*
X128389928Y-51551764D01*
X128389928Y-51551764D01*
G37*
G36*
X123439928Y-51551764D02*
G01*
X123461009Y-51558160D01*
X123480445Y-51568548D01*
X123497476Y-51582524D01*
X123511452Y-51599555D01*
X123521840Y-51618991D01*
X123528236Y-51640072D01*
X123531000Y-51668140D01*
X123531000Y-52131860D01*
X123528236Y-52159928D01*
X123521840Y-52181009D01*
X123511452Y-52200445D01*
X123497476Y-52217476D01*
X123480445Y-52231452D01*
X123461009Y-52241840D01*
X123439928Y-52248236D01*
X123411860Y-52251000D01*
X121598140Y-52251000D01*
X121570072Y-52248236D01*
X121548991Y-52241840D01*
X121529555Y-52231452D01*
X121512524Y-52217476D01*
X121498548Y-52200445D01*
X121488160Y-52181009D01*
X121481764Y-52159928D01*
X121479000Y-52131860D01*
X121479000Y-51668140D01*
X121481764Y-51640072D01*
X121488160Y-51618991D01*
X121498548Y-51599555D01*
X121512524Y-51582524D01*
X121529555Y-51568548D01*
X121548991Y-51558160D01*
X121570072Y-51551764D01*
X121598140Y-51549000D01*
X123411860Y-51549000D01*
X123439928Y-51551764D01*
X123439928Y-51551764D01*
G37*
M02*
