G04 #@! TF.GenerationSoftware,KiCad,Pcbnew,(5.1.2-1)-1*
G04 #@! TF.CreationDate,2019-08-09T08:25:00-04:00*
G04 #@! TF.ProjectId,siot-node-current-clamp,73696f74-2d6e-46f6-9465-2d6375727265,rev?*
G04 #@! TF.SameCoordinates,Original*
G04 #@! TF.FileFunction,Soldermask,Bot*
G04 #@! TF.FilePolarity,Negative*
%FSLAX46Y46*%
G04 Gerber Fmt 4.6, Leading zero omitted, Abs format (unit mm)*
G04 Created by KiCad (PCBNEW (5.1.2-1)-1) date 2019-08-09 08:25:00*
%MOMM*%
%LPD*%
G04 APERTURE LIST*
%ADD10C,0.100000*%
G04 APERTURE END LIST*
D10*
G36*
X127115114Y-63074176D02*
G01*
X127209168Y-63083439D01*
X127410299Y-63144451D01*
X127496110Y-63190318D01*
X127595661Y-63243529D01*
X127758133Y-63376867D01*
X127891471Y-63539339D01*
X127944682Y-63638890D01*
X127990549Y-63724701D01*
X128051561Y-63925832D01*
X128072162Y-64135000D01*
X128051561Y-64344168D01*
X127990549Y-64545299D01*
X127944682Y-64631110D01*
X127891471Y-64730661D01*
X127758133Y-64893133D01*
X127595661Y-65026471D01*
X127496110Y-65079682D01*
X127410299Y-65125549D01*
X127209168Y-65186561D01*
X127115114Y-65195824D01*
X127052413Y-65202000D01*
X126947587Y-65202000D01*
X126884886Y-65195824D01*
X126790832Y-65186561D01*
X126589701Y-65125549D01*
X126503890Y-65079682D01*
X126404339Y-65026471D01*
X126241867Y-64893133D01*
X126108529Y-64730661D01*
X126055318Y-64631110D01*
X126009451Y-64545299D01*
X125948439Y-64344168D01*
X125927838Y-64135000D01*
X125948439Y-63925832D01*
X126009451Y-63724701D01*
X126055318Y-63638890D01*
X126108529Y-63539339D01*
X126241867Y-63376867D01*
X126404339Y-63243529D01*
X126503890Y-63190318D01*
X126589701Y-63144451D01*
X126790832Y-63083439D01*
X126884886Y-63074176D01*
X126947587Y-63068000D01*
X127052413Y-63068000D01*
X127115114Y-63074176D01*
X127115114Y-63074176D01*
G37*
G36*
X109335114Y-63074176D02*
G01*
X109429168Y-63083439D01*
X109630299Y-63144451D01*
X109716110Y-63190318D01*
X109815661Y-63243529D01*
X109978133Y-63376867D01*
X110111471Y-63539339D01*
X110164682Y-63638890D01*
X110210549Y-63724701D01*
X110271561Y-63925832D01*
X110292162Y-64135000D01*
X110271561Y-64344168D01*
X110210549Y-64545299D01*
X110164682Y-64631110D01*
X110111471Y-64730661D01*
X109978133Y-64893133D01*
X109815661Y-65026471D01*
X109716110Y-65079682D01*
X109630299Y-65125549D01*
X109429168Y-65186561D01*
X109335114Y-65195824D01*
X109272413Y-65202000D01*
X109167587Y-65202000D01*
X109104886Y-65195824D01*
X109010832Y-65186561D01*
X108809701Y-65125549D01*
X108723890Y-65079682D01*
X108624339Y-65026471D01*
X108461867Y-64893133D01*
X108328529Y-64730661D01*
X108275318Y-64631110D01*
X108229451Y-64545299D01*
X108168439Y-64344168D01*
X108147838Y-64135000D01*
X108168439Y-63925832D01*
X108229451Y-63724701D01*
X108275318Y-63638890D01*
X108328529Y-63539339D01*
X108461867Y-63376867D01*
X108624339Y-63243529D01*
X108723890Y-63190318D01*
X108809701Y-63144451D01*
X109010832Y-63083439D01*
X109104886Y-63074176D01*
X109167587Y-63068000D01*
X109272413Y-63068000D01*
X109335114Y-63074176D01*
X109335114Y-63074176D01*
G37*
G36*
X127115114Y-59899176D02*
G01*
X127209168Y-59908439D01*
X127410299Y-59969451D01*
X127496110Y-60015318D01*
X127595661Y-60068529D01*
X127758133Y-60201867D01*
X127891471Y-60364339D01*
X127944682Y-60463890D01*
X127990549Y-60549701D01*
X128051561Y-60750832D01*
X128072162Y-60960000D01*
X128051561Y-61169168D01*
X127990549Y-61370299D01*
X127944682Y-61456110D01*
X127891471Y-61555661D01*
X127758133Y-61718133D01*
X127595661Y-61851471D01*
X127496110Y-61904682D01*
X127410299Y-61950549D01*
X127209168Y-62011561D01*
X127115114Y-62020824D01*
X127052413Y-62027000D01*
X126947587Y-62027000D01*
X126884886Y-62020824D01*
X126790832Y-62011561D01*
X126589701Y-61950549D01*
X126503890Y-61904682D01*
X126404339Y-61851471D01*
X126241867Y-61718133D01*
X126108529Y-61555661D01*
X126055318Y-61456110D01*
X126009451Y-61370299D01*
X125948439Y-61169168D01*
X125927838Y-60960000D01*
X125948439Y-60750832D01*
X126009451Y-60549701D01*
X126055318Y-60463890D01*
X126108529Y-60364339D01*
X126241867Y-60201867D01*
X126404339Y-60068529D01*
X126503890Y-60015318D01*
X126589701Y-59969451D01*
X126790832Y-59908439D01*
X126884886Y-59899176D01*
X126947587Y-59893000D01*
X127052413Y-59893000D01*
X127115114Y-59899176D01*
X127115114Y-59899176D01*
G37*
G36*
X109335114Y-59899176D02*
G01*
X109429168Y-59908439D01*
X109630299Y-59969451D01*
X109716110Y-60015318D01*
X109815661Y-60068529D01*
X109978133Y-60201867D01*
X110111471Y-60364339D01*
X110164682Y-60463890D01*
X110210549Y-60549701D01*
X110271561Y-60750832D01*
X110292162Y-60960000D01*
X110271561Y-61169168D01*
X110210549Y-61370299D01*
X110164682Y-61456110D01*
X110111471Y-61555661D01*
X109978133Y-61718133D01*
X109815661Y-61851471D01*
X109716110Y-61904682D01*
X109630299Y-61950549D01*
X109429168Y-62011561D01*
X109335114Y-62020824D01*
X109272413Y-62027000D01*
X109167587Y-62027000D01*
X109104886Y-62020824D01*
X109010832Y-62011561D01*
X108809701Y-61950549D01*
X108723890Y-61904682D01*
X108624339Y-61851471D01*
X108461867Y-61718133D01*
X108328529Y-61555661D01*
X108275318Y-61456110D01*
X108229451Y-61370299D01*
X108168439Y-61169168D01*
X108147838Y-60960000D01*
X108168439Y-60750832D01*
X108229451Y-60549701D01*
X108275318Y-60463890D01*
X108328529Y-60364339D01*
X108461867Y-60201867D01*
X108624339Y-60068529D01*
X108723890Y-60015318D01*
X108809701Y-59969451D01*
X109010832Y-59908439D01*
X109104886Y-59899176D01*
X109167587Y-59893000D01*
X109272413Y-59893000D01*
X109335114Y-59899176D01*
X109335114Y-59899176D01*
G37*
G36*
X128067000Y-58852000D02*
G01*
X125933000Y-58852000D01*
X125933000Y-56718000D01*
X128067000Y-56718000D01*
X128067000Y-58852000D01*
X128067000Y-58852000D01*
G37*
G36*
X110287000Y-58852000D02*
G01*
X108153000Y-58852000D01*
X108153000Y-56718000D01*
X110287000Y-56718000D01*
X110287000Y-58852000D01*
X110287000Y-58852000D01*
G37*
G36*
X120281000Y-52971000D02*
G01*
X118479000Y-52971000D01*
X118479000Y-51169000D01*
X120281000Y-51169000D01*
X120281000Y-52971000D01*
X120281000Y-52971000D01*
G37*
G36*
X116950443Y-51175519D02*
G01*
X117016627Y-51182037D01*
X117186466Y-51233557D01*
X117342991Y-51317222D01*
X117378729Y-51346552D01*
X117480186Y-51429814D01*
X117563448Y-51531271D01*
X117592778Y-51567009D01*
X117676443Y-51723534D01*
X117727963Y-51893373D01*
X117745359Y-52070000D01*
X117727963Y-52246627D01*
X117676443Y-52416466D01*
X117592778Y-52572991D01*
X117563448Y-52608729D01*
X117480186Y-52710186D01*
X117378729Y-52793448D01*
X117342991Y-52822778D01*
X117186466Y-52906443D01*
X117016627Y-52957963D01*
X116950442Y-52964482D01*
X116884260Y-52971000D01*
X116795740Y-52971000D01*
X116729558Y-52964482D01*
X116663373Y-52957963D01*
X116493534Y-52906443D01*
X116337009Y-52822778D01*
X116301271Y-52793448D01*
X116199814Y-52710186D01*
X116116552Y-52608729D01*
X116087222Y-52572991D01*
X116003557Y-52416466D01*
X115952037Y-52246627D01*
X115934641Y-52070000D01*
X115952037Y-51893373D01*
X116003557Y-51723534D01*
X116087222Y-51567009D01*
X116116552Y-51531271D01*
X116199814Y-51429814D01*
X116301271Y-51346552D01*
X116337009Y-51317222D01*
X116493534Y-51233557D01*
X116663373Y-51182037D01*
X116729557Y-51175519D01*
X116795740Y-51169000D01*
X116884260Y-51169000D01*
X116950443Y-51175519D01*
X116950443Y-51175519D01*
G37*
M02*
