G04 #@! TF.GenerationSoftware,KiCad,Pcbnew,5.1.4*
G04 #@! TF.CreationDate,2020-01-07T14:43:42-05:00*
G04 #@! TF.ProjectId,siot-splice-kit,73696f74-2d73-4706-9c69-63652d6b6974,rev?*
G04 #@! TF.SameCoordinates,Original*
G04 #@! TF.FileFunction,Soldermask,Top*
G04 #@! TF.FilePolarity,Negative*
%FSLAX46Y46*%
G04 Gerber Fmt 4.6, Leading zero omitted, Abs format (unit mm)*
G04 Created by KiCad (PCBNEW 5.1.4) date 2020-01-07 14:43:42*
%MOMM*%
%LPD*%
G04 APERTURE LIST*
%ADD10C,0.100000*%
G04 APERTURE END LIST*
D10*
G36*
X90994072Y-100900918D02*
G01*
X91239939Y-101002759D01*
X91461212Y-101150610D01*
X91649390Y-101338788D01*
X91797241Y-101560061D01*
X91899082Y-101805928D01*
X91951000Y-102066938D01*
X91951000Y-102333062D01*
X91899082Y-102594072D01*
X91797241Y-102839939D01*
X91649390Y-103061212D01*
X91461212Y-103249390D01*
X91239939Y-103397241D01*
X91239938Y-103397242D01*
X91239937Y-103397242D01*
X90994072Y-103499082D01*
X90733063Y-103551000D01*
X90466937Y-103551000D01*
X90205928Y-103499082D01*
X89960063Y-103397242D01*
X89960062Y-103397242D01*
X89960061Y-103397241D01*
X89738788Y-103249390D01*
X89550610Y-103061212D01*
X89402759Y-102839939D01*
X89300918Y-102594072D01*
X89249000Y-102333062D01*
X89249000Y-102066938D01*
X89300918Y-101805928D01*
X89402759Y-101560061D01*
X89550610Y-101338788D01*
X89738788Y-101150610D01*
X89960061Y-101002759D01*
X90205928Y-100900918D01*
X90466937Y-100849000D01*
X90733063Y-100849000D01*
X90994072Y-100900918D01*
X90994072Y-100900918D01*
G37*
G36*
X90994072Y-95900918D02*
G01*
X91239939Y-96002759D01*
X91348550Y-96075331D01*
X91461211Y-96150609D01*
X91649391Y-96338789D01*
X91797242Y-96560063D01*
X91899082Y-96805928D01*
X91927527Y-96948928D01*
X91951000Y-97066938D01*
X91951000Y-97333062D01*
X91899082Y-97594072D01*
X91797241Y-97839939D01*
X91649390Y-98061212D01*
X91461212Y-98249390D01*
X91239939Y-98397241D01*
X91239938Y-98397242D01*
X91239937Y-98397242D01*
X90994072Y-98499082D01*
X90733063Y-98551000D01*
X90466937Y-98551000D01*
X90205928Y-98499082D01*
X89960063Y-98397242D01*
X89960062Y-98397242D01*
X89960061Y-98397241D01*
X89738788Y-98249390D01*
X89550610Y-98061212D01*
X89402759Y-97839939D01*
X89300918Y-97594072D01*
X89249000Y-97333062D01*
X89249000Y-97066938D01*
X89272474Y-96948928D01*
X89300918Y-96805928D01*
X89402758Y-96560063D01*
X89550609Y-96338789D01*
X89738789Y-96150609D01*
X89851450Y-96075331D01*
X89960061Y-96002759D01*
X90205928Y-95900918D01*
X90466937Y-95849000D01*
X90733063Y-95849000D01*
X90994072Y-95900918D01*
X90994072Y-95900918D01*
G37*
G36*
X80805331Y-93818211D02*
G01*
X81133092Y-93953974D01*
X81428070Y-94151072D01*
X81678928Y-94401930D01*
X81876026Y-94696908D01*
X82011789Y-95024669D01*
X82081000Y-95372616D01*
X82081000Y-95727384D01*
X82011789Y-96075331D01*
X81876026Y-96403092D01*
X81678928Y-96698070D01*
X81428070Y-96948928D01*
X81133092Y-97146026D01*
X80805331Y-97281789D01*
X80457384Y-97351000D01*
X80102616Y-97351000D01*
X79754669Y-97281789D01*
X79426908Y-97146026D01*
X79131930Y-96948928D01*
X78881072Y-96698070D01*
X78683974Y-96403092D01*
X78548211Y-96075331D01*
X78479000Y-95727384D01*
X78479000Y-95372616D01*
X78548211Y-95024669D01*
X78683974Y-94696908D01*
X78881072Y-94401930D01*
X79131930Y-94151072D01*
X79426908Y-93953974D01*
X79754669Y-93818211D01*
X80102616Y-93749000D01*
X80457384Y-93749000D01*
X80805331Y-93818211D01*
X80805331Y-93818211D01*
G37*
G36*
X91951000Y-93551000D02*
G01*
X89249000Y-93551000D01*
X89249000Y-90849000D01*
X91951000Y-90849000D01*
X91951000Y-93551000D01*
X91951000Y-93551000D01*
G37*
G36*
X93575752Y-84218097D02*
G01*
X93756295Y-84272864D01*
X93922677Y-84361797D01*
X94068516Y-84481484D01*
X94188203Y-84627323D01*
X94277136Y-84793705D01*
X94331903Y-84974248D01*
X94351000Y-85168140D01*
X94351000Y-87331860D01*
X94331903Y-87525752D01*
X94277136Y-87706295D01*
X94188203Y-87872677D01*
X94068516Y-88018516D01*
X93922677Y-88138203D01*
X93756295Y-88227136D01*
X93575752Y-88281903D01*
X93381860Y-88301000D01*
X91218140Y-88301000D01*
X91024248Y-88281903D01*
X90843705Y-88227136D01*
X90677323Y-88138203D01*
X90531484Y-88018516D01*
X90411797Y-87872677D01*
X90322864Y-87706295D01*
X90268097Y-87525752D01*
X90249000Y-87331860D01*
X90249000Y-85168140D01*
X90268097Y-84974248D01*
X90322864Y-84793705D01*
X90411797Y-84627323D01*
X90531484Y-84481484D01*
X90677323Y-84361797D01*
X90843705Y-84272864D01*
X91024248Y-84218097D01*
X91218140Y-84199000D01*
X93381860Y-84199000D01*
X93575752Y-84218097D01*
X93575752Y-84218097D01*
G37*
G36*
X93575752Y-79218097D02*
G01*
X93756295Y-79272864D01*
X93922677Y-79361797D01*
X94068516Y-79481484D01*
X94188203Y-79627323D01*
X94277136Y-79793705D01*
X94331903Y-79974248D01*
X94351000Y-80168140D01*
X94351000Y-82331860D01*
X94331903Y-82525752D01*
X94277136Y-82706295D01*
X94188203Y-82872677D01*
X94068516Y-83018516D01*
X93922677Y-83138203D01*
X93756295Y-83227136D01*
X93575752Y-83281903D01*
X93381860Y-83301000D01*
X91218140Y-83301000D01*
X91024248Y-83281903D01*
X90843705Y-83227136D01*
X90677323Y-83138203D01*
X90531484Y-83018516D01*
X90411797Y-82872677D01*
X90322864Y-82706295D01*
X90268097Y-82525752D01*
X90249000Y-82331860D01*
X90249000Y-80168140D01*
X90268097Y-79974248D01*
X90322864Y-79793705D01*
X90411797Y-79627323D01*
X90531484Y-79481484D01*
X90677323Y-79361797D01*
X90843705Y-79272864D01*
X91024248Y-79218097D01*
X91218140Y-79199000D01*
X93381860Y-79199000D01*
X93575752Y-79218097D01*
X93575752Y-79218097D01*
G37*
G36*
X93575752Y-74218097D02*
G01*
X93756295Y-74272864D01*
X93922677Y-74361797D01*
X94068516Y-74481484D01*
X94188203Y-74627323D01*
X94277136Y-74793705D01*
X94331903Y-74974248D01*
X94351000Y-75168140D01*
X94351000Y-77331860D01*
X94331903Y-77525752D01*
X94277136Y-77706295D01*
X94188203Y-77872677D01*
X94068516Y-78018516D01*
X93922677Y-78138203D01*
X93756295Y-78227136D01*
X93575752Y-78281903D01*
X93381860Y-78301000D01*
X91218140Y-78301000D01*
X91024248Y-78281903D01*
X90843705Y-78227136D01*
X90677323Y-78138203D01*
X90531484Y-78018516D01*
X90411797Y-77872677D01*
X90322864Y-77706295D01*
X90268097Y-77525752D01*
X90249000Y-77331860D01*
X90249000Y-75168140D01*
X90268097Y-74974248D01*
X90322864Y-74793705D01*
X90411797Y-74627323D01*
X90531484Y-74481484D01*
X90677323Y-74361797D01*
X90843705Y-74272864D01*
X91024248Y-74218097D01*
X91218140Y-74199000D01*
X93381860Y-74199000D01*
X93575752Y-74218097D01*
X93575752Y-74218097D01*
G37*
G36*
X80805331Y-73828211D02*
G01*
X81133092Y-73963974D01*
X81428070Y-74161072D01*
X81678928Y-74411930D01*
X81876026Y-74706908D01*
X82011789Y-75034669D01*
X82081000Y-75382616D01*
X82081000Y-75737384D01*
X82011789Y-76085331D01*
X81876026Y-76413092D01*
X81678928Y-76708070D01*
X81428070Y-76958928D01*
X81133092Y-77156026D01*
X80805331Y-77291789D01*
X80457384Y-77361000D01*
X80102616Y-77361000D01*
X79754669Y-77291789D01*
X79426908Y-77156026D01*
X79131930Y-76958928D01*
X78881072Y-76708070D01*
X78683974Y-76413092D01*
X78548211Y-76085331D01*
X78479000Y-75737384D01*
X78479000Y-75382616D01*
X78548211Y-75034669D01*
X78683974Y-74706908D01*
X78881072Y-74411930D01*
X79131930Y-74161072D01*
X79426908Y-73963974D01*
X79754669Y-73828211D01*
X80102616Y-73759000D01*
X80457384Y-73759000D01*
X80805331Y-73828211D01*
X80805331Y-73828211D01*
G37*
M02*
