G04 #@! TF.GenerationSoftware,KiCad,Pcbnew,5.1.4*
G04 #@! TF.CreationDate,2020-01-07T14:43:42-05:00*
G04 #@! TF.ProjectId,siot-splice-kit,73696f74-2d73-4706-9c69-63652d6b6974,rev?*
G04 #@! TF.SameCoordinates,Original*
G04 #@! TF.FileFunction,Soldermask,Bot*
G04 #@! TF.FilePolarity,Negative*
%FSLAX46Y46*%
G04 Gerber Fmt 4.6, Leading zero omitted, Abs format (unit mm)*
G04 Created by KiCad (PCBNEW 5.1.4) date 2020-01-07 14:43:42*
%MOMM*%
%LPD*%
G04 APERTURE LIST*
%ADD10C,0.100000*%
G04 APERTURE END LIST*
D10*
G36*
X90994072Y-100900918D02*
G01*
X91239939Y-101002759D01*
X91461212Y-101150610D01*
X91649390Y-101338788D01*
X91797241Y-101560061D01*
X91899082Y-101805928D01*
X91951000Y-102066938D01*
X91951000Y-102333062D01*
X91899082Y-102594072D01*
X91797241Y-102839939D01*
X91649390Y-103061212D01*
X91461212Y-103249390D01*
X91239939Y-103397241D01*
X91239938Y-103397242D01*
X91239937Y-103397242D01*
X90994072Y-103499082D01*
X90733063Y-103551000D01*
X90466937Y-103551000D01*
X90205928Y-103499082D01*
X89960063Y-103397242D01*
X89960062Y-103397242D01*
X89960061Y-103397241D01*
X89738788Y-103249390D01*
X89550610Y-103061212D01*
X89402759Y-102839939D01*
X89300918Y-102594072D01*
X89249000Y-102333062D01*
X89249000Y-102066938D01*
X89300918Y-101805928D01*
X89402759Y-101560061D01*
X89550610Y-101338788D01*
X89738788Y-101150610D01*
X89960061Y-101002759D01*
X90205928Y-100900918D01*
X90466937Y-100849000D01*
X90733063Y-100849000D01*
X90994072Y-100900918D01*
X90994072Y-100900918D01*
G37*
G36*
X90994072Y-95900918D02*
G01*
X91239939Y-96002759D01*
X91348550Y-96075331D01*
X91461211Y-96150609D01*
X91649391Y-96338789D01*
X91797242Y-96560063D01*
X91899082Y-96805928D01*
X91927527Y-96948928D01*
X91951000Y-97066938D01*
X91951000Y-97333062D01*
X91899082Y-97594072D01*
X91797241Y-97839939D01*
X91649390Y-98061212D01*
X91461212Y-98249390D01*
X91239939Y-98397241D01*
X91239938Y-98397242D01*
X91239937Y-98397242D01*
X90994072Y-98499082D01*
X90733063Y-98551000D01*
X90466937Y-98551000D01*
X90205928Y-98499082D01*
X89960063Y-98397242D01*
X89960062Y-98397242D01*
X89960061Y-98397241D01*
X89738788Y-98249390D01*
X89550610Y-98061212D01*
X89402759Y-97839939D01*
X89300918Y-97594072D01*
X89249000Y-97333062D01*
X89249000Y-97066938D01*
X89272474Y-96948928D01*
X89300918Y-96805928D01*
X89402758Y-96560063D01*
X89550609Y-96338789D01*
X89738789Y-96150609D01*
X89851450Y-96075331D01*
X89960061Y-96002759D01*
X90205928Y-95900918D01*
X90466937Y-95849000D01*
X90733063Y-95849000D01*
X90994072Y-95900918D01*
X90994072Y-95900918D01*
G37*
G36*
X80805331Y-93818211D02*
G01*
X81133092Y-93953974D01*
X81428070Y-94151072D01*
X81678928Y-94401930D01*
X81876026Y-94696908D01*
X82011789Y-95024669D01*
X82081000Y-95372616D01*
X82081000Y-95727384D01*
X82011789Y-96075331D01*
X81876026Y-96403092D01*
X81678928Y-96698070D01*
X81428070Y-96948928D01*
X81133092Y-97146026D01*
X80805331Y-97281789D01*
X80457384Y-97351000D01*
X80102616Y-97351000D01*
X79754669Y-97281789D01*
X79426908Y-97146026D01*
X79131930Y-96948928D01*
X78881072Y-96698070D01*
X78683974Y-96403092D01*
X78548211Y-96075331D01*
X78479000Y-95727384D01*
X78479000Y-95372616D01*
X78548211Y-95024669D01*
X78683974Y-94696908D01*
X78881072Y-94401930D01*
X79131930Y-94151072D01*
X79426908Y-93953974D01*
X79754669Y-93818211D01*
X80102616Y-93749000D01*
X80457384Y-93749000D01*
X80805331Y-93818211D01*
X80805331Y-93818211D01*
G37*
G36*
X91951000Y-93551000D02*
G01*
X89249000Y-93551000D01*
X89249000Y-90849000D01*
X91951000Y-90849000D01*
X91951000Y-93551000D01*
X91951000Y-93551000D01*
G37*
G36*
X80805331Y-73828211D02*
G01*
X81133092Y-73963974D01*
X81428070Y-74161072D01*
X81678928Y-74411930D01*
X81876026Y-74706908D01*
X82011789Y-75034669D01*
X82081000Y-75382616D01*
X82081000Y-75737384D01*
X82011789Y-76085331D01*
X81876026Y-76413092D01*
X81678928Y-76708070D01*
X81428070Y-76958928D01*
X81133092Y-77156026D01*
X80805331Y-77291789D01*
X80457384Y-77361000D01*
X80102616Y-77361000D01*
X79754669Y-77291789D01*
X79426908Y-77156026D01*
X79131930Y-76958928D01*
X78881072Y-76708070D01*
X78683974Y-76413092D01*
X78548211Y-76085331D01*
X78479000Y-75737384D01*
X78479000Y-75382616D01*
X78548211Y-75034669D01*
X78683974Y-74706908D01*
X78881072Y-74411930D01*
X79131930Y-74161072D01*
X79426908Y-73963974D01*
X79754669Y-73828211D01*
X80102616Y-73759000D01*
X80457384Y-73759000D01*
X80805331Y-73828211D01*
X80805331Y-73828211D01*
G37*
M02*
