%FSLAX45Y45*%
G04 Gerber Fmt 4.5, Leading zero omitted, Abs format (unit mm)*
G04 Created by KiCad (PCBNEW 5.1.4) date 2019-10-30 11:00:50*
%MOMM*%
%LPD*%
G04 APERTURE LIST*
%ADD10C,0.200000*%
%ADD11C,0.300000*%
G04 APERTURE END LIST*
D10*
X10055000Y-9470000D02*
X10055000Y-6730000D01*
X6475000Y-10870000D02*
X9575000Y-10870000D01*
X5990000Y-7630000D02*
X5990000Y-10410000D01*
X9555000Y-6210000D02*
X6475000Y-6210000D01*
X9555000Y-6210000D02*
X10055000Y-6730000D01*
X6475000Y-6210000D02*
X6475000Y-7210000D01*
X6475000Y-7210000D02*
X5990000Y-7630000D01*
X5990000Y-10410000D02*
X6475000Y-10870000D01*
X9575000Y-10870000D02*
X9575000Y-9910000D01*
X9575000Y-9910000D02*
X10055000Y-9470000D01*
D10*
X7853000Y-7381000D02*
X8203000Y-7731000D01*
X8203000Y-7381000D02*
X7853000Y-7731000D01*
X7853000Y-9380000D02*
X8203000Y-9730000D01*
X8203000Y-9380000D02*
X7853000Y-9730000D01*
D11*
X6266428Y-11345714D02*
X6266428Y-11045714D01*
X6337857Y-11045714D01*
X6380714Y-11060000D01*
X6409286Y-11088572D01*
X6423571Y-11117143D01*
X6437857Y-11174286D01*
X6437857Y-11217143D01*
X6423571Y-11274286D01*
X6409286Y-11302857D01*
X6380714Y-11331429D01*
X6337857Y-11345714D01*
X6266428Y-11345714D01*
X6566428Y-11345714D02*
X6566428Y-11145714D01*
X6566428Y-11202857D02*
X6580714Y-11174286D01*
X6595000Y-11160000D01*
X6623571Y-11145714D01*
X6652143Y-11145714D01*
X6752143Y-11345714D02*
X6752143Y-11145714D01*
X6752143Y-11045714D02*
X6737857Y-11060000D01*
X6752143Y-11074286D01*
X6766428Y-11060000D01*
X6752143Y-11045714D01*
X6752143Y-11074286D01*
X6937857Y-11345714D02*
X6909286Y-11331429D01*
X6895000Y-11302857D01*
X6895000Y-11045714D01*
X7095000Y-11345714D02*
X7066428Y-11331429D01*
X7052143Y-11302857D01*
X7052143Y-11045714D01*
X7437857Y-11345714D02*
X7437857Y-11045714D01*
X7537857Y-11260000D01*
X7637857Y-11045714D01*
X7637857Y-11345714D01*
X7909286Y-11345714D02*
X7909286Y-11188571D01*
X7895000Y-11160000D01*
X7866428Y-11145714D01*
X7809286Y-11145714D01*
X7780714Y-11160000D01*
X7909286Y-11331429D02*
X7880714Y-11345714D01*
X7809286Y-11345714D01*
X7780714Y-11331429D01*
X7766428Y-11302857D01*
X7766428Y-11274286D01*
X7780714Y-11245714D01*
X7809286Y-11231429D01*
X7880714Y-11231429D01*
X7909286Y-11217143D01*
X8052143Y-11145714D02*
X8052143Y-11445714D01*
X8052143Y-11160000D02*
X8080714Y-11145714D01*
X8137857Y-11145714D01*
X8166428Y-11160000D01*
X8180714Y-11174286D01*
X8195000Y-11202857D01*
X8195000Y-11288571D01*
X8180714Y-11317143D01*
X8166428Y-11331429D01*
X8137857Y-11345714D01*
X8080714Y-11345714D01*
X8052143Y-11331429D01*
X8323571Y-11317143D02*
X8337857Y-11331429D01*
X8323571Y-11345714D01*
X8309286Y-11331429D01*
X8323571Y-11317143D01*
X8323571Y-11345714D01*
X8323571Y-11160000D02*
X8337857Y-11174286D01*
X8323571Y-11188571D01*
X8309286Y-11174286D01*
X8323571Y-11160000D01*
X8323571Y-11188571D01*
X5630000Y-11665000D02*
X5980000Y-12015000D01*
X5980000Y-11665000D02*
X5630000Y-12015000D01*
X6237857Y-11675714D02*
X6423571Y-11675714D01*
X6323571Y-11790000D01*
X6366428Y-11790000D01*
X6395000Y-11804286D01*
X6409286Y-11818571D01*
X6423571Y-11847143D01*
X6423571Y-11918571D01*
X6409286Y-11947143D01*
X6395000Y-11961429D01*
X6366428Y-11975714D01*
X6280714Y-11975714D01*
X6252143Y-11961429D01*
X6237857Y-11947143D01*
X6552143Y-11947143D02*
X6566428Y-11961429D01*
X6552143Y-11975714D01*
X6537857Y-11961429D01*
X6552143Y-11947143D01*
X6552143Y-11975714D01*
X6837857Y-11675714D02*
X6695000Y-11675714D01*
X6680714Y-11818571D01*
X6695000Y-11804286D01*
X6723571Y-11790000D01*
X6795000Y-11790000D01*
X6823571Y-11804286D01*
X6837857Y-11818571D01*
X6852143Y-11847143D01*
X6852143Y-11918571D01*
X6837857Y-11947143D01*
X6823571Y-11961429D01*
X6795000Y-11975714D01*
X6723571Y-11975714D01*
X6695000Y-11961429D01*
X6680714Y-11947143D01*
X7037857Y-11675714D02*
X7066428Y-11675714D01*
X7095000Y-11690000D01*
X7109286Y-11704286D01*
X7123571Y-11732857D01*
X7137857Y-11790000D01*
X7137857Y-11861429D01*
X7123571Y-11918571D01*
X7109286Y-11947143D01*
X7095000Y-11961429D01*
X7066428Y-11975714D01*
X7037857Y-11975714D01*
X7009286Y-11961429D01*
X6995000Y-11947143D01*
X6980714Y-11918571D01*
X6966428Y-11861429D01*
X6966428Y-11790000D01*
X6980714Y-11732857D01*
X6995000Y-11704286D01*
X7009286Y-11690000D01*
X7037857Y-11675714D01*
X7266428Y-11975714D02*
X7266428Y-11775714D01*
X7266428Y-11804286D02*
X7280714Y-11790000D01*
X7309286Y-11775714D01*
X7352143Y-11775714D01*
X7380714Y-11790000D01*
X7395000Y-11818571D01*
X7395000Y-11975714D01*
X7395000Y-11818571D02*
X7409286Y-11790000D01*
X7437857Y-11775714D01*
X7480714Y-11775714D01*
X7509286Y-11790000D01*
X7523571Y-11818571D01*
X7523571Y-11975714D01*
X7666428Y-11975714D02*
X7666428Y-11775714D01*
X7666428Y-11804286D02*
X7680714Y-11790000D01*
X7709286Y-11775714D01*
X7752143Y-11775714D01*
X7780714Y-11790000D01*
X7795000Y-11818571D01*
X7795000Y-11975714D01*
X7795000Y-11818571D02*
X7809286Y-11790000D01*
X7837857Y-11775714D01*
X7880714Y-11775714D01*
X7909286Y-11790000D01*
X7923571Y-11818571D01*
X7923571Y-11975714D01*
X8509286Y-11661429D02*
X8252143Y-12047143D01*
X8895000Y-11675714D02*
X8923571Y-11675714D01*
X8952143Y-11690000D01*
X8966428Y-11704286D01*
X8980714Y-11732857D01*
X8995000Y-11790000D01*
X8995000Y-11861429D01*
X8980714Y-11918571D01*
X8966428Y-11947143D01*
X8952143Y-11961429D01*
X8923571Y-11975714D01*
X8895000Y-11975714D01*
X8866428Y-11961429D01*
X8852143Y-11947143D01*
X8837857Y-11918571D01*
X8823571Y-11861429D01*
X8823571Y-11790000D01*
X8837857Y-11732857D01*
X8852143Y-11704286D01*
X8866428Y-11690000D01*
X8895000Y-11675714D01*
X9123571Y-11947143D02*
X9137857Y-11961429D01*
X9123571Y-11975714D01*
X9109286Y-11961429D01*
X9123571Y-11947143D01*
X9123571Y-11975714D01*
X9423571Y-11975714D02*
X9252143Y-11975714D01*
X9337857Y-11975714D02*
X9337857Y-11675714D01*
X9309286Y-11718571D01*
X9280714Y-11747143D01*
X9252143Y-11761429D01*
X9523571Y-11675714D02*
X9709286Y-11675714D01*
X9609286Y-11790000D01*
X9652143Y-11790000D01*
X9680714Y-11804286D01*
X9695000Y-11818571D01*
X9709286Y-11847143D01*
X9709286Y-11918571D01*
X9695000Y-11947143D01*
X9680714Y-11961429D01*
X9652143Y-11975714D01*
X9566428Y-11975714D01*
X9537857Y-11961429D01*
X9523571Y-11947143D01*
X9880714Y-11804286D02*
X9852143Y-11790000D01*
X9837857Y-11775714D01*
X9823571Y-11747143D01*
X9823571Y-11732857D01*
X9837857Y-11704286D01*
X9852143Y-11690000D01*
X9880714Y-11675714D01*
X9937857Y-11675714D01*
X9966428Y-11690000D01*
X9980714Y-11704286D01*
X9995000Y-11732857D01*
X9995000Y-11747143D01*
X9980714Y-11775714D01*
X9966428Y-11790000D01*
X9937857Y-11804286D01*
X9880714Y-11804286D01*
X9852143Y-11818571D01*
X9837857Y-11832857D01*
X9823571Y-11861429D01*
X9823571Y-11918571D01*
X9837857Y-11947143D01*
X9852143Y-11961429D01*
X9880714Y-11975714D01*
X9937857Y-11975714D01*
X9966428Y-11961429D01*
X9980714Y-11947143D01*
X9995000Y-11918571D01*
X9995000Y-11861429D01*
X9980714Y-11832857D01*
X9966428Y-11818571D01*
X9937857Y-11804286D01*
X10109286Y-11675714D02*
X10109286Y-11732857D01*
X10223571Y-11675714D02*
X10223571Y-11732857D01*
X10666428Y-12090000D02*
X10652143Y-12075714D01*
X10623571Y-12032857D01*
X10609286Y-12004286D01*
X10595000Y-11961429D01*
X10580714Y-11890000D01*
X10580714Y-11832857D01*
X10595000Y-11761429D01*
X10609286Y-11718571D01*
X10623571Y-11690000D01*
X10652143Y-11647143D01*
X10666428Y-11632857D01*
X10766428Y-11704286D02*
X10780714Y-11690000D01*
X10809286Y-11675714D01*
X10880714Y-11675714D01*
X10909286Y-11690000D01*
X10923571Y-11704286D01*
X10937857Y-11732857D01*
X10937857Y-11761429D01*
X10923571Y-11804286D01*
X10752143Y-11975714D01*
X10937857Y-11975714D01*
X11295000Y-11975714D02*
X11295000Y-11675714D01*
X11423571Y-11975714D02*
X11423571Y-11818571D01*
X11409286Y-11790000D01*
X11380714Y-11775714D01*
X11337857Y-11775714D01*
X11309286Y-11790000D01*
X11295000Y-11804286D01*
X11609286Y-11975714D02*
X11580714Y-11961429D01*
X11566428Y-11947143D01*
X11552143Y-11918571D01*
X11552143Y-11832857D01*
X11566428Y-11804286D01*
X11580714Y-11790000D01*
X11609286Y-11775714D01*
X11652143Y-11775714D01*
X11680714Y-11790000D01*
X11695000Y-11804286D01*
X11709286Y-11832857D01*
X11709286Y-11918571D01*
X11695000Y-11947143D01*
X11680714Y-11961429D01*
X11652143Y-11975714D01*
X11609286Y-11975714D01*
X11880714Y-11975714D02*
X11852143Y-11961429D01*
X11837857Y-11932857D01*
X11837857Y-11675714D01*
X12109286Y-11961429D02*
X12080714Y-11975714D01*
X12023571Y-11975714D01*
X11995000Y-11961429D01*
X11980714Y-11932857D01*
X11980714Y-11818571D01*
X11995000Y-11790000D01*
X12023571Y-11775714D01*
X12080714Y-11775714D01*
X12109286Y-11790000D01*
X12123571Y-11818571D01*
X12123571Y-11847143D01*
X11980714Y-11875714D01*
X12237857Y-11961429D02*
X12266428Y-11975714D01*
X12323571Y-11975714D01*
X12352143Y-11961429D01*
X12366428Y-11932857D01*
X12366428Y-11918571D01*
X12352143Y-11890000D01*
X12323571Y-11875714D01*
X12280714Y-11875714D01*
X12252143Y-11861429D01*
X12237857Y-11832857D01*
X12237857Y-11818571D01*
X12252143Y-11790000D01*
X12280714Y-11775714D01*
X12323571Y-11775714D01*
X12352143Y-11790000D01*
X12466428Y-12090000D02*
X12480714Y-12075714D01*
X12509286Y-12032857D01*
X12523571Y-12004286D01*
X12537857Y-11961429D01*
X12552143Y-11890000D01*
X12552143Y-11832857D01*
X12537857Y-11761429D01*
X12523571Y-11718571D01*
X12509286Y-11690000D01*
X12480714Y-11647143D01*
X12466428Y-11632857D01*
X13009286Y-12090000D02*
X12995000Y-12075714D01*
X12966428Y-12032857D01*
X12952143Y-12004286D01*
X12937857Y-11961429D01*
X12923571Y-11890000D01*
X12923571Y-11832857D01*
X12937857Y-11761429D01*
X12952143Y-11718571D01*
X12966428Y-11690000D01*
X12995000Y-11647143D01*
X13009286Y-11632857D01*
X13123571Y-11775714D02*
X13123571Y-11975714D01*
X13123571Y-11804286D02*
X13137857Y-11790000D01*
X13166428Y-11775714D01*
X13209286Y-11775714D01*
X13237857Y-11790000D01*
X13252143Y-11818571D01*
X13252143Y-11975714D01*
X13437857Y-11975714D02*
X13409286Y-11961429D01*
X13395000Y-11947143D01*
X13380714Y-11918571D01*
X13380714Y-11832857D01*
X13395000Y-11804286D01*
X13409286Y-11790000D01*
X13437857Y-11775714D01*
X13480714Y-11775714D01*
X13509286Y-11790000D01*
X13523571Y-11804286D01*
X13537857Y-11832857D01*
X13537857Y-11918571D01*
X13523571Y-11947143D01*
X13509286Y-11961429D01*
X13480714Y-11975714D01*
X13437857Y-11975714D01*
X13623571Y-11775714D02*
X13737857Y-11775714D01*
X13666428Y-11675714D02*
X13666428Y-11932857D01*
X13680714Y-11961429D01*
X13709286Y-11975714D01*
X13737857Y-11975714D01*
X14066428Y-11775714D02*
X14066428Y-12075714D01*
X14066428Y-11790000D02*
X14095000Y-11775714D01*
X14152143Y-11775714D01*
X14180714Y-11790000D01*
X14195000Y-11804286D01*
X14209286Y-11832857D01*
X14209286Y-11918571D01*
X14195000Y-11947143D01*
X14180714Y-11961429D01*
X14152143Y-11975714D01*
X14095000Y-11975714D01*
X14066428Y-11961429D01*
X14380714Y-11975714D02*
X14352143Y-11961429D01*
X14337857Y-11932857D01*
X14337857Y-11675714D01*
X14623571Y-11975714D02*
X14623571Y-11818571D01*
X14609286Y-11790000D01*
X14580714Y-11775714D01*
X14523571Y-11775714D01*
X14495000Y-11790000D01*
X14623571Y-11961429D02*
X14595000Y-11975714D01*
X14523571Y-11975714D01*
X14495000Y-11961429D01*
X14480714Y-11932857D01*
X14480714Y-11904286D01*
X14495000Y-11875714D01*
X14523571Y-11861429D01*
X14595000Y-11861429D01*
X14623571Y-11847143D01*
X14723571Y-11775714D02*
X14837857Y-11775714D01*
X14766428Y-11675714D02*
X14766428Y-11932857D01*
X14780714Y-11961429D01*
X14809286Y-11975714D01*
X14837857Y-11975714D01*
X15052143Y-11961429D02*
X15023571Y-11975714D01*
X14966428Y-11975714D01*
X14937857Y-11961429D01*
X14923571Y-11932857D01*
X14923571Y-11818571D01*
X14937857Y-11790000D01*
X14966428Y-11775714D01*
X15023571Y-11775714D01*
X15052143Y-11790000D01*
X15066428Y-11818571D01*
X15066428Y-11847143D01*
X14923571Y-11875714D01*
X15323571Y-11975714D02*
X15323571Y-11675714D01*
X15323571Y-11961429D02*
X15295000Y-11975714D01*
X15237857Y-11975714D01*
X15209286Y-11961429D01*
X15195000Y-11947143D01*
X15180714Y-11918571D01*
X15180714Y-11832857D01*
X15195000Y-11804286D01*
X15209286Y-11790000D01*
X15237857Y-11775714D01*
X15295000Y-11775714D01*
X15323571Y-11790000D01*
X15437857Y-12090000D02*
X15452143Y-12075714D01*
X15480714Y-12032857D01*
X15495000Y-12004286D01*
X15509286Y-11961429D01*
X15523571Y-11890000D01*
X15523571Y-11832857D01*
X15509286Y-11761429D01*
X15495000Y-11718571D01*
X15480714Y-11690000D01*
X15452143Y-11647143D01*
X15437857Y-11632857D01*
M02*
