G04 #@! TF.GenerationSoftware,KiCad,Pcbnew,5.1.4*
G04 #@! TF.CreationDate,2019-08-27T14:39:49-04:00*
G04 #@! TF.ProjectId,siot-gateway-particle,73696f74-2d67-4617-9465-7761792d7061,rev?*
G04 #@! TF.SameCoordinates,Original*
G04 #@! TF.FileFunction,Paste,Top*
G04 #@! TF.FilePolarity,Positive*
%FSLAX46Y46*%
G04 Gerber Fmt 4.6, Leading zero omitted, Abs format (unit mm)*
G04 Created by KiCad (PCBNEW 5.1.4) date 2019-08-27 14:39:49*
%MOMM*%
%LPD*%
G04 APERTURE LIST*
%ADD10C,0.100000*%
%ADD11C,0.875000*%
%ADD12C,4.000000*%
%ADD13R,2.500000X2.300000*%
%ADD14R,1.050000X1.500000*%
%ADD15R,2.400000X1.500000*%
%ADD16R,0.650000X0.250000*%
%ADD17R,0.650000X0.800000*%
%ADD18R,1.650000X2.850000*%
%ADD19R,1.400000X0.300000*%
%ADD20C,1.250000*%
%ADD21C,1.600000*%
%ADD22C,1.800000*%
%ADD23R,1.220000X0.650000*%
G04 APERTURE END LIST*
D10*
G36*
X120315191Y-73226053D02*
G01*
X120336426Y-73229203D01*
X120357250Y-73234419D01*
X120377462Y-73241651D01*
X120396868Y-73250830D01*
X120415281Y-73261866D01*
X120432524Y-73274654D01*
X120448430Y-73289070D01*
X120462846Y-73304976D01*
X120475634Y-73322219D01*
X120486670Y-73340632D01*
X120495849Y-73360038D01*
X120503081Y-73380250D01*
X120508297Y-73401074D01*
X120511447Y-73422309D01*
X120512500Y-73443750D01*
X120512500Y-73956250D01*
X120511447Y-73977691D01*
X120508297Y-73998926D01*
X120503081Y-74019750D01*
X120495849Y-74039962D01*
X120486670Y-74059368D01*
X120475634Y-74077781D01*
X120462846Y-74095024D01*
X120448430Y-74110930D01*
X120432524Y-74125346D01*
X120415281Y-74138134D01*
X120396868Y-74149170D01*
X120377462Y-74158349D01*
X120357250Y-74165581D01*
X120336426Y-74170797D01*
X120315191Y-74173947D01*
X120293750Y-74175000D01*
X119856250Y-74175000D01*
X119834809Y-74173947D01*
X119813574Y-74170797D01*
X119792750Y-74165581D01*
X119772538Y-74158349D01*
X119753132Y-74149170D01*
X119734719Y-74138134D01*
X119717476Y-74125346D01*
X119701570Y-74110930D01*
X119687154Y-74095024D01*
X119674366Y-74077781D01*
X119663330Y-74059368D01*
X119654151Y-74039962D01*
X119646919Y-74019750D01*
X119641703Y-73998926D01*
X119638553Y-73977691D01*
X119637500Y-73956250D01*
X119637500Y-73443750D01*
X119638553Y-73422309D01*
X119641703Y-73401074D01*
X119646919Y-73380250D01*
X119654151Y-73360038D01*
X119663330Y-73340632D01*
X119674366Y-73322219D01*
X119687154Y-73304976D01*
X119701570Y-73289070D01*
X119717476Y-73274654D01*
X119734719Y-73261866D01*
X119753132Y-73250830D01*
X119772538Y-73241651D01*
X119792750Y-73234419D01*
X119813574Y-73229203D01*
X119834809Y-73226053D01*
X119856250Y-73225000D01*
X120293750Y-73225000D01*
X120315191Y-73226053D01*
X120315191Y-73226053D01*
G37*
D11*
X120075000Y-73700000D03*
D10*
G36*
X118740191Y-73226053D02*
G01*
X118761426Y-73229203D01*
X118782250Y-73234419D01*
X118802462Y-73241651D01*
X118821868Y-73250830D01*
X118840281Y-73261866D01*
X118857524Y-73274654D01*
X118873430Y-73289070D01*
X118887846Y-73304976D01*
X118900634Y-73322219D01*
X118911670Y-73340632D01*
X118920849Y-73360038D01*
X118928081Y-73380250D01*
X118933297Y-73401074D01*
X118936447Y-73422309D01*
X118937500Y-73443750D01*
X118937500Y-73956250D01*
X118936447Y-73977691D01*
X118933297Y-73998926D01*
X118928081Y-74019750D01*
X118920849Y-74039962D01*
X118911670Y-74059368D01*
X118900634Y-74077781D01*
X118887846Y-74095024D01*
X118873430Y-74110930D01*
X118857524Y-74125346D01*
X118840281Y-74138134D01*
X118821868Y-74149170D01*
X118802462Y-74158349D01*
X118782250Y-74165581D01*
X118761426Y-74170797D01*
X118740191Y-74173947D01*
X118718750Y-74175000D01*
X118281250Y-74175000D01*
X118259809Y-74173947D01*
X118238574Y-74170797D01*
X118217750Y-74165581D01*
X118197538Y-74158349D01*
X118178132Y-74149170D01*
X118159719Y-74138134D01*
X118142476Y-74125346D01*
X118126570Y-74110930D01*
X118112154Y-74095024D01*
X118099366Y-74077781D01*
X118088330Y-74059368D01*
X118079151Y-74039962D01*
X118071919Y-74019750D01*
X118066703Y-73998926D01*
X118063553Y-73977691D01*
X118062500Y-73956250D01*
X118062500Y-73443750D01*
X118063553Y-73422309D01*
X118066703Y-73401074D01*
X118071919Y-73380250D01*
X118079151Y-73360038D01*
X118088330Y-73340632D01*
X118099366Y-73322219D01*
X118112154Y-73304976D01*
X118126570Y-73289070D01*
X118142476Y-73274654D01*
X118159719Y-73261866D01*
X118178132Y-73250830D01*
X118197538Y-73241651D01*
X118217750Y-73234419D01*
X118238574Y-73229203D01*
X118259809Y-73226053D01*
X118281250Y-73225000D01*
X118718750Y-73225000D01*
X118740191Y-73226053D01*
X118740191Y-73226053D01*
G37*
D11*
X118500000Y-73700000D03*
D10*
G36*
X132352691Y-73076053D02*
G01*
X132373926Y-73079203D01*
X132394750Y-73084419D01*
X132414962Y-73091651D01*
X132434368Y-73100830D01*
X132452781Y-73111866D01*
X132470024Y-73124654D01*
X132485930Y-73139070D01*
X132500346Y-73154976D01*
X132513134Y-73172219D01*
X132524170Y-73190632D01*
X132533349Y-73210038D01*
X132540581Y-73230250D01*
X132545797Y-73251074D01*
X132548947Y-73272309D01*
X132550000Y-73293750D01*
X132550000Y-73806250D01*
X132548947Y-73827691D01*
X132545797Y-73848926D01*
X132540581Y-73869750D01*
X132533349Y-73889962D01*
X132524170Y-73909368D01*
X132513134Y-73927781D01*
X132500346Y-73945024D01*
X132485930Y-73960930D01*
X132470024Y-73975346D01*
X132452781Y-73988134D01*
X132434368Y-73999170D01*
X132414962Y-74008349D01*
X132394750Y-74015581D01*
X132373926Y-74020797D01*
X132352691Y-74023947D01*
X132331250Y-74025000D01*
X131893750Y-74025000D01*
X131872309Y-74023947D01*
X131851074Y-74020797D01*
X131830250Y-74015581D01*
X131810038Y-74008349D01*
X131790632Y-73999170D01*
X131772219Y-73988134D01*
X131754976Y-73975346D01*
X131739070Y-73960930D01*
X131724654Y-73945024D01*
X131711866Y-73927781D01*
X131700830Y-73909368D01*
X131691651Y-73889962D01*
X131684419Y-73869750D01*
X131679203Y-73848926D01*
X131676053Y-73827691D01*
X131675000Y-73806250D01*
X131675000Y-73293750D01*
X131676053Y-73272309D01*
X131679203Y-73251074D01*
X131684419Y-73230250D01*
X131691651Y-73210038D01*
X131700830Y-73190632D01*
X131711866Y-73172219D01*
X131724654Y-73154976D01*
X131739070Y-73139070D01*
X131754976Y-73124654D01*
X131772219Y-73111866D01*
X131790632Y-73100830D01*
X131810038Y-73091651D01*
X131830250Y-73084419D01*
X131851074Y-73079203D01*
X131872309Y-73076053D01*
X131893750Y-73075000D01*
X132331250Y-73075000D01*
X132352691Y-73076053D01*
X132352691Y-73076053D01*
G37*
D11*
X132112500Y-73550000D03*
D10*
G36*
X133927691Y-73076053D02*
G01*
X133948926Y-73079203D01*
X133969750Y-73084419D01*
X133989962Y-73091651D01*
X134009368Y-73100830D01*
X134027781Y-73111866D01*
X134045024Y-73124654D01*
X134060930Y-73139070D01*
X134075346Y-73154976D01*
X134088134Y-73172219D01*
X134099170Y-73190632D01*
X134108349Y-73210038D01*
X134115581Y-73230250D01*
X134120797Y-73251074D01*
X134123947Y-73272309D01*
X134125000Y-73293750D01*
X134125000Y-73806250D01*
X134123947Y-73827691D01*
X134120797Y-73848926D01*
X134115581Y-73869750D01*
X134108349Y-73889962D01*
X134099170Y-73909368D01*
X134088134Y-73927781D01*
X134075346Y-73945024D01*
X134060930Y-73960930D01*
X134045024Y-73975346D01*
X134027781Y-73988134D01*
X134009368Y-73999170D01*
X133989962Y-74008349D01*
X133969750Y-74015581D01*
X133948926Y-74020797D01*
X133927691Y-74023947D01*
X133906250Y-74025000D01*
X133468750Y-74025000D01*
X133447309Y-74023947D01*
X133426074Y-74020797D01*
X133405250Y-74015581D01*
X133385038Y-74008349D01*
X133365632Y-73999170D01*
X133347219Y-73988134D01*
X133329976Y-73975346D01*
X133314070Y-73960930D01*
X133299654Y-73945024D01*
X133286866Y-73927781D01*
X133275830Y-73909368D01*
X133266651Y-73889962D01*
X133259419Y-73869750D01*
X133254203Y-73848926D01*
X133251053Y-73827691D01*
X133250000Y-73806250D01*
X133250000Y-73293750D01*
X133251053Y-73272309D01*
X133254203Y-73251074D01*
X133259419Y-73230250D01*
X133266651Y-73210038D01*
X133275830Y-73190632D01*
X133286866Y-73172219D01*
X133299654Y-73154976D01*
X133314070Y-73139070D01*
X133329976Y-73124654D01*
X133347219Y-73111866D01*
X133365632Y-73100830D01*
X133385038Y-73091651D01*
X133405250Y-73084419D01*
X133426074Y-73079203D01*
X133447309Y-73076053D01*
X133468750Y-73075000D01*
X133906250Y-73075000D01*
X133927691Y-73076053D01*
X133927691Y-73076053D01*
G37*
D11*
X133687500Y-73550000D03*
D10*
G36*
X163498017Y-109764815D02*
G01*
X163595090Y-109779215D01*
X163690285Y-109803060D01*
X163782683Y-109836120D01*
X163871397Y-109878079D01*
X163955570Y-109928530D01*
X164034393Y-109986990D01*
X164107107Y-110052893D01*
X164173010Y-110125607D01*
X164231470Y-110204430D01*
X164281921Y-110288603D01*
X164323880Y-110377317D01*
X164356940Y-110469715D01*
X164380785Y-110564910D01*
X164395185Y-110661983D01*
X164400000Y-110760000D01*
X164400000Y-112760000D01*
X164395185Y-112858017D01*
X164380785Y-112955090D01*
X164356940Y-113050285D01*
X164323880Y-113142683D01*
X164281921Y-113231397D01*
X164231470Y-113315570D01*
X164173010Y-113394393D01*
X164107107Y-113467107D01*
X164034393Y-113533010D01*
X163955570Y-113591470D01*
X163871397Y-113641921D01*
X163782683Y-113683880D01*
X163690285Y-113716940D01*
X163595090Y-113740785D01*
X163498017Y-113755185D01*
X163400000Y-113760000D01*
X161400000Y-113760000D01*
X161301983Y-113755185D01*
X161204910Y-113740785D01*
X161109715Y-113716940D01*
X161017317Y-113683880D01*
X160928603Y-113641921D01*
X160844430Y-113591470D01*
X160765607Y-113533010D01*
X160692893Y-113467107D01*
X160626990Y-113394393D01*
X160568530Y-113315570D01*
X160518079Y-113231397D01*
X160476120Y-113142683D01*
X160443060Y-113050285D01*
X160419215Y-112955090D01*
X160404815Y-112858017D01*
X160400000Y-112760000D01*
X160400000Y-110760000D01*
X160404815Y-110661983D01*
X160419215Y-110564910D01*
X160443060Y-110469715D01*
X160476120Y-110377317D01*
X160518079Y-110288603D01*
X160568530Y-110204430D01*
X160626990Y-110125607D01*
X160692893Y-110052893D01*
X160765607Y-109986990D01*
X160844430Y-109928530D01*
X160928603Y-109878079D01*
X161017317Y-109836120D01*
X161109715Y-109803060D01*
X161204910Y-109779215D01*
X161301983Y-109764815D01*
X161400000Y-109760000D01*
X163400000Y-109760000D01*
X163498017Y-109764815D01*
X163498017Y-109764815D01*
G37*
D12*
X162400000Y-111760000D03*
D10*
G36*
X158498017Y-109764815D02*
G01*
X158595090Y-109779215D01*
X158690285Y-109803060D01*
X158782683Y-109836120D01*
X158871397Y-109878079D01*
X158955570Y-109928530D01*
X159034393Y-109986990D01*
X159107107Y-110052893D01*
X159173010Y-110125607D01*
X159231470Y-110204430D01*
X159281921Y-110288603D01*
X159323880Y-110377317D01*
X159356940Y-110469715D01*
X159380785Y-110564910D01*
X159395185Y-110661983D01*
X159400000Y-110760000D01*
X159400000Y-112760000D01*
X159395185Y-112858017D01*
X159380785Y-112955090D01*
X159356940Y-113050285D01*
X159323880Y-113142683D01*
X159281921Y-113231397D01*
X159231470Y-113315570D01*
X159173010Y-113394393D01*
X159107107Y-113467107D01*
X159034393Y-113533010D01*
X158955570Y-113591470D01*
X158871397Y-113641921D01*
X158782683Y-113683880D01*
X158690285Y-113716940D01*
X158595090Y-113740785D01*
X158498017Y-113755185D01*
X158400000Y-113760000D01*
X156400000Y-113760000D01*
X156301983Y-113755185D01*
X156204910Y-113740785D01*
X156109715Y-113716940D01*
X156017317Y-113683880D01*
X155928603Y-113641921D01*
X155844430Y-113591470D01*
X155765607Y-113533010D01*
X155692893Y-113467107D01*
X155626990Y-113394393D01*
X155568530Y-113315570D01*
X155518079Y-113231397D01*
X155476120Y-113142683D01*
X155443060Y-113050285D01*
X155419215Y-112955090D01*
X155404815Y-112858017D01*
X155400000Y-112760000D01*
X155400000Y-110760000D01*
X155404815Y-110661983D01*
X155419215Y-110564910D01*
X155443060Y-110469715D01*
X155476120Y-110377317D01*
X155518079Y-110288603D01*
X155568530Y-110204430D01*
X155626990Y-110125607D01*
X155692893Y-110052893D01*
X155765607Y-109986990D01*
X155844430Y-109928530D01*
X155928603Y-109878079D01*
X156017317Y-109836120D01*
X156109715Y-109803060D01*
X156204910Y-109779215D01*
X156301983Y-109764815D01*
X156400000Y-109760000D01*
X158400000Y-109760000D01*
X158498017Y-109764815D01*
X158498017Y-109764815D01*
G37*
D12*
X157400000Y-111760000D03*
D10*
G36*
X153498017Y-109764815D02*
G01*
X153595090Y-109779215D01*
X153690285Y-109803060D01*
X153782683Y-109836120D01*
X153871397Y-109878079D01*
X153955570Y-109928530D01*
X154034393Y-109986990D01*
X154107107Y-110052893D01*
X154173010Y-110125607D01*
X154231470Y-110204430D01*
X154281921Y-110288603D01*
X154323880Y-110377317D01*
X154356940Y-110469715D01*
X154380785Y-110564910D01*
X154395185Y-110661983D01*
X154400000Y-110760000D01*
X154400000Y-112760000D01*
X154395185Y-112858017D01*
X154380785Y-112955090D01*
X154356940Y-113050285D01*
X154323880Y-113142683D01*
X154281921Y-113231397D01*
X154231470Y-113315570D01*
X154173010Y-113394393D01*
X154107107Y-113467107D01*
X154034393Y-113533010D01*
X153955570Y-113591470D01*
X153871397Y-113641921D01*
X153782683Y-113683880D01*
X153690285Y-113716940D01*
X153595090Y-113740785D01*
X153498017Y-113755185D01*
X153400000Y-113760000D01*
X151400000Y-113760000D01*
X151301983Y-113755185D01*
X151204910Y-113740785D01*
X151109715Y-113716940D01*
X151017317Y-113683880D01*
X150928603Y-113641921D01*
X150844430Y-113591470D01*
X150765607Y-113533010D01*
X150692893Y-113467107D01*
X150626990Y-113394393D01*
X150568530Y-113315570D01*
X150518079Y-113231397D01*
X150476120Y-113142683D01*
X150443060Y-113050285D01*
X150419215Y-112955090D01*
X150404815Y-112858017D01*
X150400000Y-112760000D01*
X150400000Y-110760000D01*
X150404815Y-110661983D01*
X150419215Y-110564910D01*
X150443060Y-110469715D01*
X150476120Y-110377317D01*
X150518079Y-110288603D01*
X150568530Y-110204430D01*
X150626990Y-110125607D01*
X150692893Y-110052893D01*
X150765607Y-109986990D01*
X150844430Y-109928530D01*
X150928603Y-109878079D01*
X151017317Y-109836120D01*
X151109715Y-109803060D01*
X151204910Y-109779215D01*
X151301983Y-109764815D01*
X151400000Y-109760000D01*
X153400000Y-109760000D01*
X153498017Y-109764815D01*
X153498017Y-109764815D01*
G37*
D12*
X152400000Y-111760000D03*
D10*
G36*
X133098017Y-109764815D02*
G01*
X133195090Y-109779215D01*
X133290285Y-109803060D01*
X133382683Y-109836120D01*
X133471397Y-109878079D01*
X133555570Y-109928530D01*
X133634393Y-109986990D01*
X133707107Y-110052893D01*
X133773010Y-110125607D01*
X133831470Y-110204430D01*
X133881921Y-110288603D01*
X133923880Y-110377317D01*
X133956940Y-110469715D01*
X133980785Y-110564910D01*
X133995185Y-110661983D01*
X134000000Y-110760000D01*
X134000000Y-112760000D01*
X133995185Y-112858017D01*
X133980785Y-112955090D01*
X133956940Y-113050285D01*
X133923880Y-113142683D01*
X133881921Y-113231397D01*
X133831470Y-113315570D01*
X133773010Y-113394393D01*
X133707107Y-113467107D01*
X133634393Y-113533010D01*
X133555570Y-113591470D01*
X133471397Y-113641921D01*
X133382683Y-113683880D01*
X133290285Y-113716940D01*
X133195090Y-113740785D01*
X133098017Y-113755185D01*
X133000000Y-113760000D01*
X131000000Y-113760000D01*
X130901983Y-113755185D01*
X130804910Y-113740785D01*
X130709715Y-113716940D01*
X130617317Y-113683880D01*
X130528603Y-113641921D01*
X130444430Y-113591470D01*
X130365607Y-113533010D01*
X130292893Y-113467107D01*
X130226990Y-113394393D01*
X130168530Y-113315570D01*
X130118079Y-113231397D01*
X130076120Y-113142683D01*
X130043060Y-113050285D01*
X130019215Y-112955090D01*
X130004815Y-112858017D01*
X130000000Y-112760000D01*
X130000000Y-110760000D01*
X130004815Y-110661983D01*
X130019215Y-110564910D01*
X130043060Y-110469715D01*
X130076120Y-110377317D01*
X130118079Y-110288603D01*
X130168530Y-110204430D01*
X130226990Y-110125607D01*
X130292893Y-110052893D01*
X130365607Y-109986990D01*
X130444430Y-109928530D01*
X130528603Y-109878079D01*
X130617317Y-109836120D01*
X130709715Y-109803060D01*
X130804910Y-109779215D01*
X130901983Y-109764815D01*
X131000000Y-109760000D01*
X133000000Y-109760000D01*
X133098017Y-109764815D01*
X133098017Y-109764815D01*
G37*
D12*
X132000000Y-111760000D03*
D10*
G36*
X128098017Y-109764815D02*
G01*
X128195090Y-109779215D01*
X128290285Y-109803060D01*
X128382683Y-109836120D01*
X128471397Y-109878079D01*
X128555570Y-109928530D01*
X128634393Y-109986990D01*
X128707107Y-110052893D01*
X128773010Y-110125607D01*
X128831470Y-110204430D01*
X128881921Y-110288603D01*
X128923880Y-110377317D01*
X128956940Y-110469715D01*
X128980785Y-110564910D01*
X128995185Y-110661983D01*
X129000000Y-110760000D01*
X129000000Y-112760000D01*
X128995185Y-112858017D01*
X128980785Y-112955090D01*
X128956940Y-113050285D01*
X128923880Y-113142683D01*
X128881921Y-113231397D01*
X128831470Y-113315570D01*
X128773010Y-113394393D01*
X128707107Y-113467107D01*
X128634393Y-113533010D01*
X128555570Y-113591470D01*
X128471397Y-113641921D01*
X128382683Y-113683880D01*
X128290285Y-113716940D01*
X128195090Y-113740785D01*
X128098017Y-113755185D01*
X128000000Y-113760000D01*
X126000000Y-113760000D01*
X125901983Y-113755185D01*
X125804910Y-113740785D01*
X125709715Y-113716940D01*
X125617317Y-113683880D01*
X125528603Y-113641921D01*
X125444430Y-113591470D01*
X125365607Y-113533010D01*
X125292893Y-113467107D01*
X125226990Y-113394393D01*
X125168530Y-113315570D01*
X125118079Y-113231397D01*
X125076120Y-113142683D01*
X125043060Y-113050285D01*
X125019215Y-112955090D01*
X125004815Y-112858017D01*
X125000000Y-112760000D01*
X125000000Y-110760000D01*
X125004815Y-110661983D01*
X125019215Y-110564910D01*
X125043060Y-110469715D01*
X125076120Y-110377317D01*
X125118079Y-110288603D01*
X125168530Y-110204430D01*
X125226990Y-110125607D01*
X125292893Y-110052893D01*
X125365607Y-109986990D01*
X125444430Y-109928530D01*
X125528603Y-109878079D01*
X125617317Y-109836120D01*
X125709715Y-109803060D01*
X125804910Y-109779215D01*
X125901983Y-109764815D01*
X126000000Y-109760000D01*
X128000000Y-109760000D01*
X128098017Y-109764815D01*
X128098017Y-109764815D01*
G37*
D12*
X127000000Y-111760000D03*
D10*
G36*
X123098017Y-109764815D02*
G01*
X123195090Y-109779215D01*
X123290285Y-109803060D01*
X123382683Y-109836120D01*
X123471397Y-109878079D01*
X123555570Y-109928530D01*
X123634393Y-109986990D01*
X123707107Y-110052893D01*
X123773010Y-110125607D01*
X123831470Y-110204430D01*
X123881921Y-110288603D01*
X123923880Y-110377317D01*
X123956940Y-110469715D01*
X123980785Y-110564910D01*
X123995185Y-110661983D01*
X124000000Y-110760000D01*
X124000000Y-112760000D01*
X123995185Y-112858017D01*
X123980785Y-112955090D01*
X123956940Y-113050285D01*
X123923880Y-113142683D01*
X123881921Y-113231397D01*
X123831470Y-113315570D01*
X123773010Y-113394393D01*
X123707107Y-113467107D01*
X123634393Y-113533010D01*
X123555570Y-113591470D01*
X123471397Y-113641921D01*
X123382683Y-113683880D01*
X123290285Y-113716940D01*
X123195090Y-113740785D01*
X123098017Y-113755185D01*
X123000000Y-113760000D01*
X121000000Y-113760000D01*
X120901983Y-113755185D01*
X120804910Y-113740785D01*
X120709715Y-113716940D01*
X120617317Y-113683880D01*
X120528603Y-113641921D01*
X120444430Y-113591470D01*
X120365607Y-113533010D01*
X120292893Y-113467107D01*
X120226990Y-113394393D01*
X120168530Y-113315570D01*
X120118079Y-113231397D01*
X120076120Y-113142683D01*
X120043060Y-113050285D01*
X120019215Y-112955090D01*
X120004815Y-112858017D01*
X120000000Y-112760000D01*
X120000000Y-110760000D01*
X120004815Y-110661983D01*
X120019215Y-110564910D01*
X120043060Y-110469715D01*
X120076120Y-110377317D01*
X120118079Y-110288603D01*
X120168530Y-110204430D01*
X120226990Y-110125607D01*
X120292893Y-110052893D01*
X120365607Y-109986990D01*
X120444430Y-109928530D01*
X120528603Y-109878079D01*
X120617317Y-109836120D01*
X120709715Y-109803060D01*
X120804910Y-109779215D01*
X120901983Y-109764815D01*
X121000000Y-109760000D01*
X123000000Y-109760000D01*
X123098017Y-109764815D01*
X123098017Y-109764815D01*
G37*
D12*
X122000000Y-111760000D03*
D13*
X162350000Y-107100000D03*
X158050000Y-107100000D03*
X132350000Y-107100000D03*
X128050000Y-107100000D03*
D14*
X153923000Y-74168000D03*
D15*
X156298000Y-74168000D03*
D16*
X163792000Y-80648000D03*
X164692000Y-80648000D03*
X164692000Y-78148000D03*
X163792000Y-78148000D03*
D17*
X163792000Y-78898000D03*
X164692000Y-78898000D03*
X164692000Y-79898000D03*
X163792000Y-79898000D03*
D18*
X164242000Y-79398000D03*
D19*
X162042000Y-77648000D03*
X162042000Y-78148000D03*
X162042000Y-78648000D03*
X166442000Y-77648000D03*
X166442000Y-78148000D03*
X166442000Y-78648000D03*
X162042000Y-81148000D03*
X162042000Y-80148000D03*
X162042000Y-79148000D03*
X166442000Y-79148000D03*
X166442000Y-80148000D03*
X166442000Y-81148000D03*
D10*
G36*
X161859504Y-83086204D02*
G01*
X161883773Y-83089804D01*
X161907571Y-83095765D01*
X161930671Y-83104030D01*
X161952849Y-83114520D01*
X161973893Y-83127133D01*
X161993598Y-83141747D01*
X162011777Y-83158223D01*
X162028253Y-83176402D01*
X162042867Y-83196107D01*
X162055480Y-83217151D01*
X162065970Y-83239329D01*
X162074235Y-83262429D01*
X162080196Y-83286227D01*
X162083796Y-83310496D01*
X162085000Y-83335000D01*
X162085000Y-85485000D01*
X162083796Y-85509504D01*
X162080196Y-85533773D01*
X162074235Y-85557571D01*
X162065970Y-85580671D01*
X162055480Y-85602849D01*
X162042867Y-85623893D01*
X162028253Y-85643598D01*
X162011777Y-85661777D01*
X161993598Y-85678253D01*
X161973893Y-85692867D01*
X161952849Y-85705480D01*
X161930671Y-85715970D01*
X161907571Y-85724235D01*
X161883773Y-85730196D01*
X161859504Y-85733796D01*
X161835000Y-85735000D01*
X161085000Y-85735000D01*
X161060496Y-85733796D01*
X161036227Y-85730196D01*
X161012429Y-85724235D01*
X160989329Y-85715970D01*
X160967151Y-85705480D01*
X160946107Y-85692867D01*
X160926402Y-85678253D01*
X160908223Y-85661777D01*
X160891747Y-85643598D01*
X160877133Y-85623893D01*
X160864520Y-85602849D01*
X160854030Y-85580671D01*
X160845765Y-85557571D01*
X160839804Y-85533773D01*
X160836204Y-85509504D01*
X160835000Y-85485000D01*
X160835000Y-83335000D01*
X160836204Y-83310496D01*
X160839804Y-83286227D01*
X160845765Y-83262429D01*
X160854030Y-83239329D01*
X160864520Y-83217151D01*
X160877133Y-83196107D01*
X160891747Y-83176402D01*
X160908223Y-83158223D01*
X160926402Y-83141747D01*
X160946107Y-83127133D01*
X160967151Y-83114520D01*
X160989329Y-83104030D01*
X161012429Y-83095765D01*
X161036227Y-83089804D01*
X161060496Y-83086204D01*
X161085000Y-83085000D01*
X161835000Y-83085000D01*
X161859504Y-83086204D01*
X161859504Y-83086204D01*
G37*
D20*
X161460000Y-84410000D03*
D10*
G36*
X159059504Y-83086204D02*
G01*
X159083773Y-83089804D01*
X159107571Y-83095765D01*
X159130671Y-83104030D01*
X159152849Y-83114520D01*
X159173893Y-83127133D01*
X159193598Y-83141747D01*
X159211777Y-83158223D01*
X159228253Y-83176402D01*
X159242867Y-83196107D01*
X159255480Y-83217151D01*
X159265970Y-83239329D01*
X159274235Y-83262429D01*
X159280196Y-83286227D01*
X159283796Y-83310496D01*
X159285000Y-83335000D01*
X159285000Y-85485000D01*
X159283796Y-85509504D01*
X159280196Y-85533773D01*
X159274235Y-85557571D01*
X159265970Y-85580671D01*
X159255480Y-85602849D01*
X159242867Y-85623893D01*
X159228253Y-85643598D01*
X159211777Y-85661777D01*
X159193598Y-85678253D01*
X159173893Y-85692867D01*
X159152849Y-85705480D01*
X159130671Y-85715970D01*
X159107571Y-85724235D01*
X159083773Y-85730196D01*
X159059504Y-85733796D01*
X159035000Y-85735000D01*
X158285000Y-85735000D01*
X158260496Y-85733796D01*
X158236227Y-85730196D01*
X158212429Y-85724235D01*
X158189329Y-85715970D01*
X158167151Y-85705480D01*
X158146107Y-85692867D01*
X158126402Y-85678253D01*
X158108223Y-85661777D01*
X158091747Y-85643598D01*
X158077133Y-85623893D01*
X158064520Y-85602849D01*
X158054030Y-85580671D01*
X158045765Y-85557571D01*
X158039804Y-85533773D01*
X158036204Y-85509504D01*
X158035000Y-85485000D01*
X158035000Y-83335000D01*
X158036204Y-83310496D01*
X158039804Y-83286227D01*
X158045765Y-83262429D01*
X158054030Y-83239329D01*
X158064520Y-83217151D01*
X158077133Y-83196107D01*
X158091747Y-83176402D01*
X158108223Y-83158223D01*
X158126402Y-83141747D01*
X158146107Y-83127133D01*
X158167151Y-83114520D01*
X158189329Y-83104030D01*
X158212429Y-83095765D01*
X158236227Y-83089804D01*
X158260496Y-83086204D01*
X158285000Y-83085000D01*
X159035000Y-83085000D01*
X159059504Y-83086204D01*
X159059504Y-83086204D01*
G37*
D20*
X158660000Y-84410000D03*
D10*
G36*
X160087691Y-79511053D02*
G01*
X160108926Y-79514203D01*
X160129750Y-79519419D01*
X160149962Y-79526651D01*
X160169368Y-79535830D01*
X160187781Y-79546866D01*
X160205024Y-79559654D01*
X160220930Y-79574070D01*
X160235346Y-79589976D01*
X160248134Y-79607219D01*
X160259170Y-79625632D01*
X160268349Y-79645038D01*
X160275581Y-79665250D01*
X160280797Y-79686074D01*
X160283947Y-79707309D01*
X160285000Y-79728750D01*
X160285000Y-80166250D01*
X160283947Y-80187691D01*
X160280797Y-80208926D01*
X160275581Y-80229750D01*
X160268349Y-80249962D01*
X160259170Y-80269368D01*
X160248134Y-80287781D01*
X160235346Y-80305024D01*
X160220930Y-80320930D01*
X160205024Y-80335346D01*
X160187781Y-80348134D01*
X160169368Y-80359170D01*
X160149962Y-80368349D01*
X160129750Y-80375581D01*
X160108926Y-80380797D01*
X160087691Y-80383947D01*
X160066250Y-80385000D01*
X159553750Y-80385000D01*
X159532309Y-80383947D01*
X159511074Y-80380797D01*
X159490250Y-80375581D01*
X159470038Y-80368349D01*
X159450632Y-80359170D01*
X159432219Y-80348134D01*
X159414976Y-80335346D01*
X159399070Y-80320930D01*
X159384654Y-80305024D01*
X159371866Y-80287781D01*
X159360830Y-80269368D01*
X159351651Y-80249962D01*
X159344419Y-80229750D01*
X159339203Y-80208926D01*
X159336053Y-80187691D01*
X159335000Y-80166250D01*
X159335000Y-79728750D01*
X159336053Y-79707309D01*
X159339203Y-79686074D01*
X159344419Y-79665250D01*
X159351651Y-79645038D01*
X159360830Y-79625632D01*
X159371866Y-79607219D01*
X159384654Y-79589976D01*
X159399070Y-79574070D01*
X159414976Y-79559654D01*
X159432219Y-79546866D01*
X159450632Y-79535830D01*
X159470038Y-79526651D01*
X159490250Y-79519419D01*
X159511074Y-79514203D01*
X159532309Y-79511053D01*
X159553750Y-79510000D01*
X160066250Y-79510000D01*
X160087691Y-79511053D01*
X160087691Y-79511053D01*
G37*
D11*
X159810000Y-79947500D03*
D10*
G36*
X160087691Y-77936053D02*
G01*
X160108926Y-77939203D01*
X160129750Y-77944419D01*
X160149962Y-77951651D01*
X160169368Y-77960830D01*
X160187781Y-77971866D01*
X160205024Y-77984654D01*
X160220930Y-77999070D01*
X160235346Y-78014976D01*
X160248134Y-78032219D01*
X160259170Y-78050632D01*
X160268349Y-78070038D01*
X160275581Y-78090250D01*
X160280797Y-78111074D01*
X160283947Y-78132309D01*
X160285000Y-78153750D01*
X160285000Y-78591250D01*
X160283947Y-78612691D01*
X160280797Y-78633926D01*
X160275581Y-78654750D01*
X160268349Y-78674962D01*
X160259170Y-78694368D01*
X160248134Y-78712781D01*
X160235346Y-78730024D01*
X160220930Y-78745930D01*
X160205024Y-78760346D01*
X160187781Y-78773134D01*
X160169368Y-78784170D01*
X160149962Y-78793349D01*
X160129750Y-78800581D01*
X160108926Y-78805797D01*
X160087691Y-78808947D01*
X160066250Y-78810000D01*
X159553750Y-78810000D01*
X159532309Y-78808947D01*
X159511074Y-78805797D01*
X159490250Y-78800581D01*
X159470038Y-78793349D01*
X159450632Y-78784170D01*
X159432219Y-78773134D01*
X159414976Y-78760346D01*
X159399070Y-78745930D01*
X159384654Y-78730024D01*
X159371866Y-78712781D01*
X159360830Y-78694368D01*
X159351651Y-78674962D01*
X159344419Y-78654750D01*
X159339203Y-78633926D01*
X159336053Y-78612691D01*
X159335000Y-78591250D01*
X159335000Y-78153750D01*
X159336053Y-78132309D01*
X159339203Y-78111074D01*
X159344419Y-78090250D01*
X159351651Y-78070038D01*
X159360830Y-78050632D01*
X159371866Y-78032219D01*
X159384654Y-78014976D01*
X159399070Y-77999070D01*
X159414976Y-77984654D01*
X159432219Y-77971866D01*
X159450632Y-77960830D01*
X159470038Y-77951651D01*
X159490250Y-77944419D01*
X159511074Y-77939203D01*
X159532309Y-77936053D01*
X159553750Y-77935000D01*
X160066250Y-77935000D01*
X160087691Y-77936053D01*
X160087691Y-77936053D01*
G37*
D11*
X159810000Y-78372500D03*
D10*
G36*
X161859504Y-86336204D02*
G01*
X161883773Y-86339804D01*
X161907571Y-86345765D01*
X161930671Y-86354030D01*
X161952849Y-86364520D01*
X161973893Y-86377133D01*
X161993598Y-86391747D01*
X162011777Y-86408223D01*
X162028253Y-86426402D01*
X162042867Y-86446107D01*
X162055480Y-86467151D01*
X162065970Y-86489329D01*
X162074235Y-86512429D01*
X162080196Y-86536227D01*
X162083796Y-86560496D01*
X162085000Y-86585000D01*
X162085000Y-88735000D01*
X162083796Y-88759504D01*
X162080196Y-88783773D01*
X162074235Y-88807571D01*
X162065970Y-88830671D01*
X162055480Y-88852849D01*
X162042867Y-88873893D01*
X162028253Y-88893598D01*
X162011777Y-88911777D01*
X161993598Y-88928253D01*
X161973893Y-88942867D01*
X161952849Y-88955480D01*
X161930671Y-88965970D01*
X161907571Y-88974235D01*
X161883773Y-88980196D01*
X161859504Y-88983796D01*
X161835000Y-88985000D01*
X161085000Y-88985000D01*
X161060496Y-88983796D01*
X161036227Y-88980196D01*
X161012429Y-88974235D01*
X160989329Y-88965970D01*
X160967151Y-88955480D01*
X160946107Y-88942867D01*
X160926402Y-88928253D01*
X160908223Y-88911777D01*
X160891747Y-88893598D01*
X160877133Y-88873893D01*
X160864520Y-88852849D01*
X160854030Y-88830671D01*
X160845765Y-88807571D01*
X160839804Y-88783773D01*
X160836204Y-88759504D01*
X160835000Y-88735000D01*
X160835000Y-86585000D01*
X160836204Y-86560496D01*
X160839804Y-86536227D01*
X160845765Y-86512429D01*
X160854030Y-86489329D01*
X160864520Y-86467151D01*
X160877133Y-86446107D01*
X160891747Y-86426402D01*
X160908223Y-86408223D01*
X160926402Y-86391747D01*
X160946107Y-86377133D01*
X160967151Y-86364520D01*
X160989329Y-86354030D01*
X161012429Y-86345765D01*
X161036227Y-86339804D01*
X161060496Y-86336204D01*
X161085000Y-86335000D01*
X161835000Y-86335000D01*
X161859504Y-86336204D01*
X161859504Y-86336204D01*
G37*
D20*
X161460000Y-87660000D03*
D10*
G36*
X159059504Y-86336204D02*
G01*
X159083773Y-86339804D01*
X159107571Y-86345765D01*
X159130671Y-86354030D01*
X159152849Y-86364520D01*
X159173893Y-86377133D01*
X159193598Y-86391747D01*
X159211777Y-86408223D01*
X159228253Y-86426402D01*
X159242867Y-86446107D01*
X159255480Y-86467151D01*
X159265970Y-86489329D01*
X159274235Y-86512429D01*
X159280196Y-86536227D01*
X159283796Y-86560496D01*
X159285000Y-86585000D01*
X159285000Y-88735000D01*
X159283796Y-88759504D01*
X159280196Y-88783773D01*
X159274235Y-88807571D01*
X159265970Y-88830671D01*
X159255480Y-88852849D01*
X159242867Y-88873893D01*
X159228253Y-88893598D01*
X159211777Y-88911777D01*
X159193598Y-88928253D01*
X159173893Y-88942867D01*
X159152849Y-88955480D01*
X159130671Y-88965970D01*
X159107571Y-88974235D01*
X159083773Y-88980196D01*
X159059504Y-88983796D01*
X159035000Y-88985000D01*
X158285000Y-88985000D01*
X158260496Y-88983796D01*
X158236227Y-88980196D01*
X158212429Y-88974235D01*
X158189329Y-88965970D01*
X158167151Y-88955480D01*
X158146107Y-88942867D01*
X158126402Y-88928253D01*
X158108223Y-88911777D01*
X158091747Y-88893598D01*
X158077133Y-88873893D01*
X158064520Y-88852849D01*
X158054030Y-88830671D01*
X158045765Y-88807571D01*
X158039804Y-88783773D01*
X158036204Y-88759504D01*
X158035000Y-88735000D01*
X158035000Y-86585000D01*
X158036204Y-86560496D01*
X158039804Y-86536227D01*
X158045765Y-86512429D01*
X158054030Y-86489329D01*
X158064520Y-86467151D01*
X158077133Y-86446107D01*
X158091747Y-86426402D01*
X158108223Y-86408223D01*
X158126402Y-86391747D01*
X158146107Y-86377133D01*
X158167151Y-86364520D01*
X158189329Y-86354030D01*
X158212429Y-86345765D01*
X158236227Y-86339804D01*
X158260496Y-86336204D01*
X158285000Y-86335000D01*
X159035000Y-86335000D01*
X159059504Y-86336204D01*
X159059504Y-86336204D01*
G37*
D20*
X158660000Y-87660000D03*
D10*
G36*
X158337691Y-79548553D02*
G01*
X158358926Y-79551703D01*
X158379750Y-79556919D01*
X158399962Y-79564151D01*
X158419368Y-79573330D01*
X158437781Y-79584366D01*
X158455024Y-79597154D01*
X158470930Y-79611570D01*
X158485346Y-79627476D01*
X158498134Y-79644719D01*
X158509170Y-79663132D01*
X158518349Y-79682538D01*
X158525581Y-79702750D01*
X158530797Y-79723574D01*
X158533947Y-79744809D01*
X158535000Y-79766250D01*
X158535000Y-80203750D01*
X158533947Y-80225191D01*
X158530797Y-80246426D01*
X158525581Y-80267250D01*
X158518349Y-80287462D01*
X158509170Y-80306868D01*
X158498134Y-80325281D01*
X158485346Y-80342524D01*
X158470930Y-80358430D01*
X158455024Y-80372846D01*
X158437781Y-80385634D01*
X158419368Y-80396670D01*
X158399962Y-80405849D01*
X158379750Y-80413081D01*
X158358926Y-80418297D01*
X158337691Y-80421447D01*
X158316250Y-80422500D01*
X157803750Y-80422500D01*
X157782309Y-80421447D01*
X157761074Y-80418297D01*
X157740250Y-80413081D01*
X157720038Y-80405849D01*
X157700632Y-80396670D01*
X157682219Y-80385634D01*
X157664976Y-80372846D01*
X157649070Y-80358430D01*
X157634654Y-80342524D01*
X157621866Y-80325281D01*
X157610830Y-80306868D01*
X157601651Y-80287462D01*
X157594419Y-80267250D01*
X157589203Y-80246426D01*
X157586053Y-80225191D01*
X157585000Y-80203750D01*
X157585000Y-79766250D01*
X157586053Y-79744809D01*
X157589203Y-79723574D01*
X157594419Y-79702750D01*
X157601651Y-79682538D01*
X157610830Y-79663132D01*
X157621866Y-79644719D01*
X157634654Y-79627476D01*
X157649070Y-79611570D01*
X157664976Y-79597154D01*
X157682219Y-79584366D01*
X157700632Y-79573330D01*
X157720038Y-79564151D01*
X157740250Y-79556919D01*
X157761074Y-79551703D01*
X157782309Y-79548553D01*
X157803750Y-79547500D01*
X158316250Y-79547500D01*
X158337691Y-79548553D01*
X158337691Y-79548553D01*
G37*
D11*
X158060000Y-79985000D03*
D10*
G36*
X158337691Y-77973553D02*
G01*
X158358926Y-77976703D01*
X158379750Y-77981919D01*
X158399962Y-77989151D01*
X158419368Y-77998330D01*
X158437781Y-78009366D01*
X158455024Y-78022154D01*
X158470930Y-78036570D01*
X158485346Y-78052476D01*
X158498134Y-78069719D01*
X158509170Y-78088132D01*
X158518349Y-78107538D01*
X158525581Y-78127750D01*
X158530797Y-78148574D01*
X158533947Y-78169809D01*
X158535000Y-78191250D01*
X158535000Y-78628750D01*
X158533947Y-78650191D01*
X158530797Y-78671426D01*
X158525581Y-78692250D01*
X158518349Y-78712462D01*
X158509170Y-78731868D01*
X158498134Y-78750281D01*
X158485346Y-78767524D01*
X158470930Y-78783430D01*
X158455024Y-78797846D01*
X158437781Y-78810634D01*
X158419368Y-78821670D01*
X158399962Y-78830849D01*
X158379750Y-78838081D01*
X158358926Y-78843297D01*
X158337691Y-78846447D01*
X158316250Y-78847500D01*
X157803750Y-78847500D01*
X157782309Y-78846447D01*
X157761074Y-78843297D01*
X157740250Y-78838081D01*
X157720038Y-78830849D01*
X157700632Y-78821670D01*
X157682219Y-78810634D01*
X157664976Y-78797846D01*
X157649070Y-78783430D01*
X157634654Y-78767524D01*
X157621866Y-78750281D01*
X157610830Y-78731868D01*
X157601651Y-78712462D01*
X157594419Y-78692250D01*
X157589203Y-78671426D01*
X157586053Y-78650191D01*
X157585000Y-78628750D01*
X157585000Y-78191250D01*
X157586053Y-78169809D01*
X157589203Y-78148574D01*
X157594419Y-78127750D01*
X157601651Y-78107538D01*
X157610830Y-78088132D01*
X157621866Y-78069719D01*
X157634654Y-78052476D01*
X157649070Y-78036570D01*
X157664976Y-78022154D01*
X157682219Y-78009366D01*
X157700632Y-77998330D01*
X157720038Y-77989151D01*
X157740250Y-77981919D01*
X157761074Y-77976703D01*
X157782309Y-77973553D01*
X157803750Y-77972500D01*
X158316250Y-77972500D01*
X158337691Y-77973553D01*
X158337691Y-77973553D01*
G37*
D11*
X158060000Y-78410000D03*
D10*
G36*
X158193524Y-92061156D02*
G01*
X158216822Y-92064612D01*
X158239668Y-92070334D01*
X158261844Y-92078269D01*
X158283135Y-92088339D01*
X158303337Y-92100447D01*
X158322254Y-92114477D01*
X158339706Y-92130294D01*
X158355523Y-92147746D01*
X158369553Y-92166663D01*
X158381661Y-92186865D01*
X158391731Y-92208156D01*
X158399666Y-92230332D01*
X158405388Y-92253178D01*
X158408844Y-92276476D01*
X158410000Y-92300000D01*
X158410000Y-95020000D01*
X158408844Y-95043524D01*
X158405388Y-95066822D01*
X158399666Y-95089668D01*
X158391731Y-95111844D01*
X158381661Y-95133135D01*
X158369553Y-95153337D01*
X158355523Y-95172254D01*
X158339706Y-95189706D01*
X158322254Y-95205523D01*
X158303337Y-95219553D01*
X158283135Y-95231661D01*
X158261844Y-95241731D01*
X158239668Y-95249666D01*
X158216822Y-95255388D01*
X158193524Y-95258844D01*
X158170000Y-95260000D01*
X157050000Y-95260000D01*
X157026476Y-95258844D01*
X157003178Y-95255388D01*
X156980332Y-95249666D01*
X156958156Y-95241731D01*
X156936865Y-95231661D01*
X156916663Y-95219553D01*
X156897746Y-95205523D01*
X156880294Y-95189706D01*
X156864477Y-95172254D01*
X156850447Y-95153337D01*
X156838339Y-95133135D01*
X156828269Y-95111844D01*
X156820334Y-95089668D01*
X156814612Y-95066822D01*
X156811156Y-95043524D01*
X156810000Y-95020000D01*
X156810000Y-92300000D01*
X156811156Y-92276476D01*
X156814612Y-92253178D01*
X156820334Y-92230332D01*
X156828269Y-92208156D01*
X156838339Y-92186865D01*
X156850447Y-92166663D01*
X156864477Y-92147746D01*
X156880294Y-92130294D01*
X156897746Y-92114477D01*
X156916663Y-92100447D01*
X156936865Y-92088339D01*
X156958156Y-92078269D01*
X156980332Y-92070334D01*
X157003178Y-92064612D01*
X157026476Y-92061156D01*
X157050000Y-92060000D01*
X158170000Y-92060000D01*
X158193524Y-92061156D01*
X158193524Y-92061156D01*
G37*
D21*
X157610000Y-93660000D03*
D10*
G36*
X167093524Y-92061156D02*
G01*
X167116822Y-92064612D01*
X167139668Y-92070334D01*
X167161844Y-92078269D01*
X167183135Y-92088339D01*
X167203337Y-92100447D01*
X167222254Y-92114477D01*
X167239706Y-92130294D01*
X167255523Y-92147746D01*
X167269553Y-92166663D01*
X167281661Y-92186865D01*
X167291731Y-92208156D01*
X167299666Y-92230332D01*
X167305388Y-92253178D01*
X167308844Y-92276476D01*
X167310000Y-92300000D01*
X167310000Y-95020000D01*
X167308844Y-95043524D01*
X167305388Y-95066822D01*
X167299666Y-95089668D01*
X167291731Y-95111844D01*
X167281661Y-95133135D01*
X167269553Y-95153337D01*
X167255523Y-95172254D01*
X167239706Y-95189706D01*
X167222254Y-95205523D01*
X167203337Y-95219553D01*
X167183135Y-95231661D01*
X167161844Y-95241731D01*
X167139668Y-95249666D01*
X167116822Y-95255388D01*
X167093524Y-95258844D01*
X167070000Y-95260000D01*
X165950000Y-95260000D01*
X165926476Y-95258844D01*
X165903178Y-95255388D01*
X165880332Y-95249666D01*
X165858156Y-95241731D01*
X165836865Y-95231661D01*
X165816663Y-95219553D01*
X165797746Y-95205523D01*
X165780294Y-95189706D01*
X165764477Y-95172254D01*
X165750447Y-95153337D01*
X165738339Y-95133135D01*
X165728269Y-95111844D01*
X165720334Y-95089668D01*
X165714612Y-95066822D01*
X165711156Y-95043524D01*
X165710000Y-95020000D01*
X165710000Y-92300000D01*
X165711156Y-92276476D01*
X165714612Y-92253178D01*
X165720334Y-92230332D01*
X165728269Y-92208156D01*
X165738339Y-92186865D01*
X165750447Y-92166663D01*
X165764477Y-92147746D01*
X165780294Y-92130294D01*
X165797746Y-92114477D01*
X165816663Y-92100447D01*
X165836865Y-92088339D01*
X165858156Y-92078269D01*
X165880332Y-92070334D01*
X165903178Y-92064612D01*
X165926476Y-92061156D01*
X165950000Y-92060000D01*
X167070000Y-92060000D01*
X167093524Y-92061156D01*
X167093524Y-92061156D01*
G37*
D21*
X166510000Y-93660000D03*
D10*
G36*
X165184504Y-82961204D02*
G01*
X165208773Y-82964804D01*
X165232571Y-82970765D01*
X165255671Y-82979030D01*
X165277849Y-82989520D01*
X165298893Y-83002133D01*
X165318598Y-83016747D01*
X165336777Y-83033223D01*
X165353253Y-83051402D01*
X165367867Y-83071107D01*
X165380480Y-83092151D01*
X165390970Y-83114329D01*
X165399235Y-83137429D01*
X165405196Y-83161227D01*
X165408796Y-83185496D01*
X165410000Y-83210000D01*
X165410000Y-88110000D01*
X165408796Y-88134504D01*
X165405196Y-88158773D01*
X165399235Y-88182571D01*
X165390970Y-88205671D01*
X165380480Y-88227849D01*
X165367867Y-88248893D01*
X165353253Y-88268598D01*
X165336777Y-88286777D01*
X165318598Y-88303253D01*
X165298893Y-88317867D01*
X165277849Y-88330480D01*
X165255671Y-88340970D01*
X165232571Y-88349235D01*
X165208773Y-88355196D01*
X165184504Y-88358796D01*
X165160000Y-88360000D01*
X163860000Y-88360000D01*
X163835496Y-88358796D01*
X163811227Y-88355196D01*
X163787429Y-88349235D01*
X163764329Y-88340970D01*
X163742151Y-88330480D01*
X163721107Y-88317867D01*
X163701402Y-88303253D01*
X163683223Y-88286777D01*
X163666747Y-88268598D01*
X163652133Y-88248893D01*
X163639520Y-88227849D01*
X163629030Y-88205671D01*
X163620765Y-88182571D01*
X163614804Y-88158773D01*
X163611204Y-88134504D01*
X163610000Y-88110000D01*
X163610000Y-83210000D01*
X163611204Y-83185496D01*
X163614804Y-83161227D01*
X163620765Y-83137429D01*
X163629030Y-83114329D01*
X163639520Y-83092151D01*
X163652133Y-83071107D01*
X163666747Y-83051402D01*
X163683223Y-83033223D01*
X163701402Y-83016747D01*
X163721107Y-83002133D01*
X163742151Y-82989520D01*
X163764329Y-82979030D01*
X163787429Y-82970765D01*
X163811227Y-82964804D01*
X163835496Y-82961204D01*
X163860000Y-82960000D01*
X165160000Y-82960000D01*
X165184504Y-82961204D01*
X165184504Y-82961204D01*
G37*
D22*
X164510000Y-85660000D03*
D10*
G36*
X170284504Y-82961204D02*
G01*
X170308773Y-82964804D01*
X170332571Y-82970765D01*
X170355671Y-82979030D01*
X170377849Y-82989520D01*
X170398893Y-83002133D01*
X170418598Y-83016747D01*
X170436777Y-83033223D01*
X170453253Y-83051402D01*
X170467867Y-83071107D01*
X170480480Y-83092151D01*
X170490970Y-83114329D01*
X170499235Y-83137429D01*
X170505196Y-83161227D01*
X170508796Y-83185496D01*
X170510000Y-83210000D01*
X170510000Y-88110000D01*
X170508796Y-88134504D01*
X170505196Y-88158773D01*
X170499235Y-88182571D01*
X170490970Y-88205671D01*
X170480480Y-88227849D01*
X170467867Y-88248893D01*
X170453253Y-88268598D01*
X170436777Y-88286777D01*
X170418598Y-88303253D01*
X170398893Y-88317867D01*
X170377849Y-88330480D01*
X170355671Y-88340970D01*
X170332571Y-88349235D01*
X170308773Y-88355196D01*
X170284504Y-88358796D01*
X170260000Y-88360000D01*
X168960000Y-88360000D01*
X168935496Y-88358796D01*
X168911227Y-88355196D01*
X168887429Y-88349235D01*
X168864329Y-88340970D01*
X168842151Y-88330480D01*
X168821107Y-88317867D01*
X168801402Y-88303253D01*
X168783223Y-88286777D01*
X168766747Y-88268598D01*
X168752133Y-88248893D01*
X168739520Y-88227849D01*
X168729030Y-88205671D01*
X168720765Y-88182571D01*
X168714804Y-88158773D01*
X168711204Y-88134504D01*
X168710000Y-88110000D01*
X168710000Y-83210000D01*
X168711204Y-83185496D01*
X168714804Y-83161227D01*
X168720765Y-83137429D01*
X168729030Y-83114329D01*
X168739520Y-83092151D01*
X168752133Y-83071107D01*
X168766747Y-83051402D01*
X168783223Y-83033223D01*
X168801402Y-83016747D01*
X168821107Y-83002133D01*
X168842151Y-82989520D01*
X168864329Y-82979030D01*
X168887429Y-82970765D01*
X168911227Y-82964804D01*
X168935496Y-82961204D01*
X168960000Y-82960000D01*
X170260000Y-82960000D01*
X170284504Y-82961204D01*
X170284504Y-82961204D01*
G37*
D22*
X169610000Y-85660000D03*
D10*
G36*
X125077691Y-105251053D02*
G01*
X125098926Y-105254203D01*
X125119750Y-105259419D01*
X125139962Y-105266651D01*
X125159368Y-105275830D01*
X125177781Y-105286866D01*
X125195024Y-105299654D01*
X125210930Y-105314070D01*
X125225346Y-105329976D01*
X125238134Y-105347219D01*
X125249170Y-105365632D01*
X125258349Y-105385038D01*
X125265581Y-105405250D01*
X125270797Y-105426074D01*
X125273947Y-105447309D01*
X125275000Y-105468750D01*
X125275000Y-105906250D01*
X125273947Y-105927691D01*
X125270797Y-105948926D01*
X125265581Y-105969750D01*
X125258349Y-105989962D01*
X125249170Y-106009368D01*
X125238134Y-106027781D01*
X125225346Y-106045024D01*
X125210930Y-106060930D01*
X125195024Y-106075346D01*
X125177781Y-106088134D01*
X125159368Y-106099170D01*
X125139962Y-106108349D01*
X125119750Y-106115581D01*
X125098926Y-106120797D01*
X125077691Y-106123947D01*
X125056250Y-106125000D01*
X124543750Y-106125000D01*
X124522309Y-106123947D01*
X124501074Y-106120797D01*
X124480250Y-106115581D01*
X124460038Y-106108349D01*
X124440632Y-106099170D01*
X124422219Y-106088134D01*
X124404976Y-106075346D01*
X124389070Y-106060930D01*
X124374654Y-106045024D01*
X124361866Y-106027781D01*
X124350830Y-106009368D01*
X124341651Y-105989962D01*
X124334419Y-105969750D01*
X124329203Y-105948926D01*
X124326053Y-105927691D01*
X124325000Y-105906250D01*
X124325000Y-105468750D01*
X124326053Y-105447309D01*
X124329203Y-105426074D01*
X124334419Y-105405250D01*
X124341651Y-105385038D01*
X124350830Y-105365632D01*
X124361866Y-105347219D01*
X124374654Y-105329976D01*
X124389070Y-105314070D01*
X124404976Y-105299654D01*
X124422219Y-105286866D01*
X124440632Y-105275830D01*
X124460038Y-105266651D01*
X124480250Y-105259419D01*
X124501074Y-105254203D01*
X124522309Y-105251053D01*
X124543750Y-105250000D01*
X125056250Y-105250000D01*
X125077691Y-105251053D01*
X125077691Y-105251053D01*
G37*
D11*
X124800000Y-105687500D03*
D10*
G36*
X125077691Y-103676053D02*
G01*
X125098926Y-103679203D01*
X125119750Y-103684419D01*
X125139962Y-103691651D01*
X125159368Y-103700830D01*
X125177781Y-103711866D01*
X125195024Y-103724654D01*
X125210930Y-103739070D01*
X125225346Y-103754976D01*
X125238134Y-103772219D01*
X125249170Y-103790632D01*
X125258349Y-103810038D01*
X125265581Y-103830250D01*
X125270797Y-103851074D01*
X125273947Y-103872309D01*
X125275000Y-103893750D01*
X125275000Y-104331250D01*
X125273947Y-104352691D01*
X125270797Y-104373926D01*
X125265581Y-104394750D01*
X125258349Y-104414962D01*
X125249170Y-104434368D01*
X125238134Y-104452781D01*
X125225346Y-104470024D01*
X125210930Y-104485930D01*
X125195024Y-104500346D01*
X125177781Y-104513134D01*
X125159368Y-104524170D01*
X125139962Y-104533349D01*
X125119750Y-104540581D01*
X125098926Y-104545797D01*
X125077691Y-104548947D01*
X125056250Y-104550000D01*
X124543750Y-104550000D01*
X124522309Y-104548947D01*
X124501074Y-104545797D01*
X124480250Y-104540581D01*
X124460038Y-104533349D01*
X124440632Y-104524170D01*
X124422219Y-104513134D01*
X124404976Y-104500346D01*
X124389070Y-104485930D01*
X124374654Y-104470024D01*
X124361866Y-104452781D01*
X124350830Y-104434368D01*
X124341651Y-104414962D01*
X124334419Y-104394750D01*
X124329203Y-104373926D01*
X124326053Y-104352691D01*
X124325000Y-104331250D01*
X124325000Y-103893750D01*
X124326053Y-103872309D01*
X124329203Y-103851074D01*
X124334419Y-103830250D01*
X124341651Y-103810038D01*
X124350830Y-103790632D01*
X124361866Y-103772219D01*
X124374654Y-103754976D01*
X124389070Y-103739070D01*
X124404976Y-103724654D01*
X124422219Y-103711866D01*
X124440632Y-103700830D01*
X124460038Y-103691651D01*
X124480250Y-103684419D01*
X124501074Y-103679203D01*
X124522309Y-103676053D01*
X124543750Y-103675000D01*
X125056250Y-103675000D01*
X125077691Y-103676053D01*
X125077691Y-103676053D01*
G37*
D11*
X124800000Y-104112500D03*
D10*
G36*
X149577691Y-105163553D02*
G01*
X149598926Y-105166703D01*
X149619750Y-105171919D01*
X149639962Y-105179151D01*
X149659368Y-105188330D01*
X149677781Y-105199366D01*
X149695024Y-105212154D01*
X149710930Y-105226570D01*
X149725346Y-105242476D01*
X149738134Y-105259719D01*
X149749170Y-105278132D01*
X149758349Y-105297538D01*
X149765581Y-105317750D01*
X149770797Y-105338574D01*
X149773947Y-105359809D01*
X149775000Y-105381250D01*
X149775000Y-105818750D01*
X149773947Y-105840191D01*
X149770797Y-105861426D01*
X149765581Y-105882250D01*
X149758349Y-105902462D01*
X149749170Y-105921868D01*
X149738134Y-105940281D01*
X149725346Y-105957524D01*
X149710930Y-105973430D01*
X149695024Y-105987846D01*
X149677781Y-106000634D01*
X149659368Y-106011670D01*
X149639962Y-106020849D01*
X149619750Y-106028081D01*
X149598926Y-106033297D01*
X149577691Y-106036447D01*
X149556250Y-106037500D01*
X149043750Y-106037500D01*
X149022309Y-106036447D01*
X149001074Y-106033297D01*
X148980250Y-106028081D01*
X148960038Y-106020849D01*
X148940632Y-106011670D01*
X148922219Y-106000634D01*
X148904976Y-105987846D01*
X148889070Y-105973430D01*
X148874654Y-105957524D01*
X148861866Y-105940281D01*
X148850830Y-105921868D01*
X148841651Y-105902462D01*
X148834419Y-105882250D01*
X148829203Y-105861426D01*
X148826053Y-105840191D01*
X148825000Y-105818750D01*
X148825000Y-105381250D01*
X148826053Y-105359809D01*
X148829203Y-105338574D01*
X148834419Y-105317750D01*
X148841651Y-105297538D01*
X148850830Y-105278132D01*
X148861866Y-105259719D01*
X148874654Y-105242476D01*
X148889070Y-105226570D01*
X148904976Y-105212154D01*
X148922219Y-105199366D01*
X148940632Y-105188330D01*
X148960038Y-105179151D01*
X148980250Y-105171919D01*
X149001074Y-105166703D01*
X149022309Y-105163553D01*
X149043750Y-105162500D01*
X149556250Y-105162500D01*
X149577691Y-105163553D01*
X149577691Y-105163553D01*
G37*
D11*
X149300000Y-105600000D03*
D10*
G36*
X149577691Y-103588553D02*
G01*
X149598926Y-103591703D01*
X149619750Y-103596919D01*
X149639962Y-103604151D01*
X149659368Y-103613330D01*
X149677781Y-103624366D01*
X149695024Y-103637154D01*
X149710930Y-103651570D01*
X149725346Y-103667476D01*
X149738134Y-103684719D01*
X149749170Y-103703132D01*
X149758349Y-103722538D01*
X149765581Y-103742750D01*
X149770797Y-103763574D01*
X149773947Y-103784809D01*
X149775000Y-103806250D01*
X149775000Y-104243750D01*
X149773947Y-104265191D01*
X149770797Y-104286426D01*
X149765581Y-104307250D01*
X149758349Y-104327462D01*
X149749170Y-104346868D01*
X149738134Y-104365281D01*
X149725346Y-104382524D01*
X149710930Y-104398430D01*
X149695024Y-104412846D01*
X149677781Y-104425634D01*
X149659368Y-104436670D01*
X149639962Y-104445849D01*
X149619750Y-104453081D01*
X149598926Y-104458297D01*
X149577691Y-104461447D01*
X149556250Y-104462500D01*
X149043750Y-104462500D01*
X149022309Y-104461447D01*
X149001074Y-104458297D01*
X148980250Y-104453081D01*
X148960038Y-104445849D01*
X148940632Y-104436670D01*
X148922219Y-104425634D01*
X148904976Y-104412846D01*
X148889070Y-104398430D01*
X148874654Y-104382524D01*
X148861866Y-104365281D01*
X148850830Y-104346868D01*
X148841651Y-104327462D01*
X148834419Y-104307250D01*
X148829203Y-104286426D01*
X148826053Y-104265191D01*
X148825000Y-104243750D01*
X148825000Y-103806250D01*
X148826053Y-103784809D01*
X148829203Y-103763574D01*
X148834419Y-103742750D01*
X148841651Y-103722538D01*
X148850830Y-103703132D01*
X148861866Y-103684719D01*
X148874654Y-103667476D01*
X148889070Y-103651570D01*
X148904976Y-103637154D01*
X148922219Y-103624366D01*
X148940632Y-103613330D01*
X148960038Y-103604151D01*
X148980250Y-103596919D01*
X149001074Y-103591703D01*
X149022309Y-103588553D01*
X149043750Y-103587500D01*
X149556250Y-103587500D01*
X149577691Y-103588553D01*
X149577691Y-103588553D01*
G37*
D11*
X149300000Y-104025000D03*
D23*
X145120000Y-104100000D03*
X145120000Y-105050000D03*
X145120000Y-106000000D03*
X142500000Y-106000000D03*
X142500000Y-105050000D03*
X142500000Y-104100000D03*
X121810000Y-104050000D03*
X121810000Y-105000000D03*
X121810000Y-105950000D03*
X119190000Y-105950000D03*
X119190000Y-105000000D03*
X119190000Y-104050000D03*
M02*
