G04 #@! TF.GenerationSoftware,KiCad,Pcbnew,5.1.4*
G04 #@! TF.CreationDate,2019-08-23T17:49:04-04:00*
G04 #@! TF.ProjectId,siot-gateway-particle,73696f74-2d67-4617-9465-7761792d7061,rev?*
G04 #@! TF.SameCoordinates,Original*
G04 #@! TF.FileFunction,Copper,L2,Bot*
G04 #@! TF.FilePolarity,Positive*
%FSLAX46Y46*%
G04 Gerber Fmt 4.6, Leading zero omitted, Abs format (unit mm)*
G04 Created by KiCad (PCBNEW 5.1.4) date 2019-08-23 17:49:04*
%MOMM*%
%LPD*%
G04 APERTURE LIST*
%ADD10C,1.508000*%
%ADD11R,1.508000X1.508000*%
%ADD12C,3.556000*%
%ADD13C,0.800000*%
%ADD14O,2.032000X2.032000*%
%ADD15R,2.032000X2.032000*%
%ADD16C,0.250000*%
%ADD17C,0.254000*%
G04 APERTURE END LIST*
D10*
X106540000Y-97050000D03*
X109080000Y-97050000D03*
X111620000Y-97050000D03*
X114160000Y-97050000D03*
X116700000Y-97050000D03*
X119240000Y-97050000D03*
X121780000Y-97050000D03*
X124320000Y-97050000D03*
X126860000Y-97050000D03*
X129400000Y-97050000D03*
X131940000Y-97050000D03*
X134480000Y-97050000D03*
X106540000Y-76730000D03*
X109080000Y-76730000D03*
X111620000Y-76730000D03*
X114160000Y-76730000D03*
X116700000Y-76730000D03*
X119240000Y-76730000D03*
X121780000Y-76730000D03*
X124320000Y-76730000D03*
X126860000Y-76730000D03*
X129400000Y-76730000D03*
X131940000Y-76730000D03*
X134480000Y-76730000D03*
X137020000Y-76730000D03*
X139560000Y-76730000D03*
X142100000Y-76730000D03*
D11*
X144640000Y-76730000D03*
D12*
X148450000Y-78000000D03*
X148450000Y-95780000D03*
D13*
X164242000Y-80398000D03*
X164242000Y-78398000D03*
X164242000Y-79398000D03*
D14*
X160350000Y-113000000D03*
X157175000Y-113000000D03*
D15*
X154000000Y-113000000D03*
D14*
X130350000Y-113000000D03*
X127175000Y-113000000D03*
D15*
X124000000Y-113000000D03*
D13*
X138600000Y-101500000D03*
X138600000Y-104000000D03*
X146700000Y-106000000D03*
X123150000Y-105950000D03*
X162900000Y-83000000D03*
X162900000Y-84000000D03*
X162900000Y-85000000D03*
X162900000Y-86000000D03*
X162900000Y-87000000D03*
X162900000Y-88000000D03*
X162900000Y-88900000D03*
X126528248Y-102928248D03*
X128400000Y-104200000D03*
X117100000Y-106000000D03*
X121800000Y-107450000D03*
D16*
X138600000Y-101500000D02*
X138600000Y-104000000D01*
X126528248Y-102928248D02*
X127128248Y-102928248D01*
X127128248Y-102928248D02*
X128400000Y-104200000D01*
X117100000Y-106000000D02*
X120350000Y-106000000D01*
X120350000Y-106000000D02*
X121800000Y-107450000D01*
D17*
G36*
X175873000Y-75500000D02*
G01*
X175875440Y-75524776D01*
X175882667Y-75548601D01*
X175894403Y-75570557D01*
X175914571Y-75593972D01*
X181414571Y-80593972D01*
X181434545Y-80608833D01*
X181457035Y-80619512D01*
X181481176Y-80625597D01*
X181500000Y-80627000D01*
X185373000Y-80627000D01*
X185373000Y-116373000D01*
X99127000Y-116373000D01*
X99127000Y-111984000D01*
X122652203Y-111984000D01*
X122652203Y-114016000D01*
X122658578Y-114080730D01*
X122677460Y-114142973D01*
X122708121Y-114200337D01*
X122749384Y-114250616D01*
X122799663Y-114291879D01*
X122857027Y-114322540D01*
X122919270Y-114341422D01*
X122984000Y-114347797D01*
X125016000Y-114347797D01*
X125080730Y-114341422D01*
X125142973Y-114322540D01*
X125200337Y-114291879D01*
X125250616Y-114250616D01*
X125291879Y-114200337D01*
X125322540Y-114142973D01*
X125341422Y-114080730D01*
X125347797Y-114016000D01*
X125347797Y-113000000D01*
X125822287Y-113000000D01*
X125848279Y-113263901D01*
X125925256Y-113517661D01*
X126050260Y-113751527D01*
X126218487Y-113956513D01*
X126423473Y-114124740D01*
X126657339Y-114249744D01*
X126911099Y-114326721D01*
X127108872Y-114346200D01*
X127241128Y-114346200D01*
X127438901Y-114326721D01*
X127692661Y-114249744D01*
X127926527Y-114124740D01*
X128131513Y-113956513D01*
X128299740Y-113751527D01*
X128421164Y-113524358D01*
X128784471Y-113524358D01*
X128916849Y-113819702D01*
X129104303Y-114083546D01*
X129339628Y-114305749D01*
X129613781Y-114477773D01*
X129825643Y-114565520D01*
X130077000Y-114467065D01*
X130077000Y-113273000D01*
X130623000Y-113273000D01*
X130623000Y-114467065D01*
X130874357Y-114565520D01*
X131086219Y-114477773D01*
X131360372Y-114305749D01*
X131595697Y-114083546D01*
X131783151Y-113819702D01*
X131915529Y-113524358D01*
X131819532Y-113273000D01*
X130623000Y-113273000D01*
X130077000Y-113273000D01*
X128880468Y-113273000D01*
X128784471Y-113524358D01*
X128421164Y-113524358D01*
X128424744Y-113517661D01*
X128501721Y-113263901D01*
X128527713Y-113000000D01*
X128501721Y-112736099D01*
X128424744Y-112482339D01*
X128421165Y-112475642D01*
X128784471Y-112475642D01*
X128880468Y-112727000D01*
X130077000Y-112727000D01*
X130077000Y-111532935D01*
X130623000Y-111532935D01*
X130623000Y-112727000D01*
X131819532Y-112727000D01*
X131915529Y-112475642D01*
X131783151Y-112180298D01*
X131643687Y-111984000D01*
X152652203Y-111984000D01*
X152652203Y-114016000D01*
X152658578Y-114080730D01*
X152677460Y-114142973D01*
X152708121Y-114200337D01*
X152749384Y-114250616D01*
X152799663Y-114291879D01*
X152857027Y-114322540D01*
X152919270Y-114341422D01*
X152984000Y-114347797D01*
X155016000Y-114347797D01*
X155080730Y-114341422D01*
X155142973Y-114322540D01*
X155200337Y-114291879D01*
X155250616Y-114250616D01*
X155291879Y-114200337D01*
X155322540Y-114142973D01*
X155341422Y-114080730D01*
X155347797Y-114016000D01*
X155347797Y-113000000D01*
X155822287Y-113000000D01*
X155848279Y-113263901D01*
X155925256Y-113517661D01*
X156050260Y-113751527D01*
X156218487Y-113956513D01*
X156423473Y-114124740D01*
X156657339Y-114249744D01*
X156911099Y-114326721D01*
X157108872Y-114346200D01*
X157241128Y-114346200D01*
X157438901Y-114326721D01*
X157692661Y-114249744D01*
X157926527Y-114124740D01*
X158131513Y-113956513D01*
X158299740Y-113751527D01*
X158421164Y-113524358D01*
X158784471Y-113524358D01*
X158916849Y-113819702D01*
X159104303Y-114083546D01*
X159339628Y-114305749D01*
X159613781Y-114477773D01*
X159825643Y-114565520D01*
X160077000Y-114467065D01*
X160077000Y-113273000D01*
X160623000Y-113273000D01*
X160623000Y-114467065D01*
X160874357Y-114565520D01*
X161086219Y-114477773D01*
X161360372Y-114305749D01*
X161595697Y-114083546D01*
X161783151Y-113819702D01*
X161915529Y-113524358D01*
X161819532Y-113273000D01*
X160623000Y-113273000D01*
X160077000Y-113273000D01*
X158880468Y-113273000D01*
X158784471Y-113524358D01*
X158421164Y-113524358D01*
X158424744Y-113517661D01*
X158501721Y-113263901D01*
X158527713Y-113000000D01*
X158501721Y-112736099D01*
X158424744Y-112482339D01*
X158421165Y-112475642D01*
X158784471Y-112475642D01*
X158880468Y-112727000D01*
X160077000Y-112727000D01*
X160077000Y-111532935D01*
X160623000Y-111532935D01*
X160623000Y-112727000D01*
X161819532Y-112727000D01*
X161915529Y-112475642D01*
X161783151Y-112180298D01*
X161595697Y-111916454D01*
X161360372Y-111694251D01*
X161086219Y-111522227D01*
X160874357Y-111434480D01*
X160623000Y-111532935D01*
X160077000Y-111532935D01*
X159825643Y-111434480D01*
X159613781Y-111522227D01*
X159339628Y-111694251D01*
X159104303Y-111916454D01*
X158916849Y-112180298D01*
X158784471Y-112475642D01*
X158421165Y-112475642D01*
X158299740Y-112248473D01*
X158131513Y-112043487D01*
X157926527Y-111875260D01*
X157692661Y-111750256D01*
X157438901Y-111673279D01*
X157241128Y-111653800D01*
X157108872Y-111653800D01*
X156911099Y-111673279D01*
X156657339Y-111750256D01*
X156423473Y-111875260D01*
X156218487Y-112043487D01*
X156050260Y-112248473D01*
X155925256Y-112482339D01*
X155848279Y-112736099D01*
X155822287Y-113000000D01*
X155347797Y-113000000D01*
X155347797Y-111984000D01*
X155341422Y-111919270D01*
X155322540Y-111857027D01*
X155291879Y-111799663D01*
X155250616Y-111749384D01*
X155200337Y-111708121D01*
X155142973Y-111677460D01*
X155080730Y-111658578D01*
X155016000Y-111652203D01*
X152984000Y-111652203D01*
X152919270Y-111658578D01*
X152857027Y-111677460D01*
X152799663Y-111708121D01*
X152749384Y-111749384D01*
X152708121Y-111799663D01*
X152677460Y-111857027D01*
X152658578Y-111919270D01*
X152652203Y-111984000D01*
X131643687Y-111984000D01*
X131595697Y-111916454D01*
X131360372Y-111694251D01*
X131086219Y-111522227D01*
X130874357Y-111434480D01*
X130623000Y-111532935D01*
X130077000Y-111532935D01*
X129825643Y-111434480D01*
X129613781Y-111522227D01*
X129339628Y-111694251D01*
X129104303Y-111916454D01*
X128916849Y-112180298D01*
X128784471Y-112475642D01*
X128421165Y-112475642D01*
X128299740Y-112248473D01*
X128131513Y-112043487D01*
X127926527Y-111875260D01*
X127692661Y-111750256D01*
X127438901Y-111673279D01*
X127241128Y-111653800D01*
X127108872Y-111653800D01*
X126911099Y-111673279D01*
X126657339Y-111750256D01*
X126423473Y-111875260D01*
X126218487Y-112043487D01*
X126050260Y-112248473D01*
X125925256Y-112482339D01*
X125848279Y-112736099D01*
X125822287Y-113000000D01*
X125347797Y-113000000D01*
X125347797Y-111984000D01*
X125341422Y-111919270D01*
X125322540Y-111857027D01*
X125291879Y-111799663D01*
X125250616Y-111749384D01*
X125200337Y-111708121D01*
X125142973Y-111677460D01*
X125080730Y-111658578D01*
X125016000Y-111652203D01*
X122984000Y-111652203D01*
X122919270Y-111658578D01*
X122857027Y-111677460D01*
X122799663Y-111708121D01*
X122749384Y-111749384D01*
X122708121Y-111799663D01*
X122677460Y-111857027D01*
X122658578Y-111919270D01*
X122652203Y-111984000D01*
X99127000Y-111984000D01*
X99127000Y-105928082D01*
X116369800Y-105928082D01*
X116369800Y-106071918D01*
X116397861Y-106212991D01*
X116452905Y-106345879D01*
X116532817Y-106465475D01*
X116634525Y-106567183D01*
X116754121Y-106647095D01*
X116887009Y-106702139D01*
X117028082Y-106730200D01*
X117171918Y-106730200D01*
X117312991Y-106702139D01*
X117445879Y-106647095D01*
X117565475Y-106567183D01*
X117667183Y-106465475D01*
X117674049Y-106455200D01*
X120161451Y-106455200D01*
X121072211Y-107365961D01*
X121069800Y-107378082D01*
X121069800Y-107521918D01*
X121097861Y-107662991D01*
X121152905Y-107795879D01*
X121232817Y-107915475D01*
X121334525Y-108017183D01*
X121454121Y-108097095D01*
X121587009Y-108152139D01*
X121728082Y-108180200D01*
X121871918Y-108180200D01*
X122012991Y-108152139D01*
X122145879Y-108097095D01*
X122265475Y-108017183D01*
X122367183Y-107915475D01*
X122447095Y-107795879D01*
X122502139Y-107662991D01*
X122530200Y-107521918D01*
X122530200Y-107378082D01*
X122502139Y-107237009D01*
X122447095Y-107104121D01*
X122367183Y-106984525D01*
X122265475Y-106882817D01*
X122145879Y-106802905D01*
X122012991Y-106747861D01*
X121871918Y-106719800D01*
X121728082Y-106719800D01*
X121715961Y-106722211D01*
X120687688Y-105693939D01*
X120673432Y-105676568D01*
X120604119Y-105619684D01*
X120525040Y-105577416D01*
X120439235Y-105551387D01*
X120372357Y-105544800D01*
X120372349Y-105544800D01*
X120350000Y-105542599D01*
X120327651Y-105544800D01*
X117674049Y-105544800D01*
X117667183Y-105534525D01*
X117565475Y-105432817D01*
X117445879Y-105352905D01*
X117312991Y-105297861D01*
X117171918Y-105269800D01*
X117028082Y-105269800D01*
X116887009Y-105297861D01*
X116754121Y-105352905D01*
X116634525Y-105432817D01*
X116532817Y-105534525D01*
X116452905Y-105654121D01*
X116397861Y-105787009D01*
X116369800Y-105928082D01*
X99127000Y-105928082D01*
X99127000Y-102856330D01*
X125798048Y-102856330D01*
X125798048Y-103000166D01*
X125826109Y-103141239D01*
X125881153Y-103274127D01*
X125961065Y-103393723D01*
X126062773Y-103495431D01*
X126182369Y-103575343D01*
X126315257Y-103630387D01*
X126456330Y-103658448D01*
X126600166Y-103658448D01*
X126741239Y-103630387D01*
X126874127Y-103575343D01*
X126993723Y-103495431D01*
X127022702Y-103466452D01*
X127672211Y-104115961D01*
X127669800Y-104128082D01*
X127669800Y-104271918D01*
X127697861Y-104412991D01*
X127752905Y-104545879D01*
X127832817Y-104665475D01*
X127934525Y-104767183D01*
X128054121Y-104847095D01*
X128187009Y-104902139D01*
X128328082Y-104930200D01*
X128471918Y-104930200D01*
X128612991Y-104902139D01*
X128745879Y-104847095D01*
X128865475Y-104767183D01*
X128967183Y-104665475D01*
X129047095Y-104545879D01*
X129102139Y-104412991D01*
X129130200Y-104271918D01*
X129130200Y-104128082D01*
X129102139Y-103987009D01*
X129047095Y-103854121D01*
X128967183Y-103734525D01*
X128865475Y-103632817D01*
X128745879Y-103552905D01*
X128612991Y-103497861D01*
X128471918Y-103469800D01*
X128328082Y-103469800D01*
X128315961Y-103472211D01*
X127465936Y-102622187D01*
X127451680Y-102604816D01*
X127382367Y-102547932D01*
X127303288Y-102505664D01*
X127217483Y-102479635D01*
X127150605Y-102473048D01*
X127150597Y-102473048D01*
X127128248Y-102470847D01*
X127105899Y-102473048D01*
X127102297Y-102473048D01*
X127095431Y-102462773D01*
X126993723Y-102361065D01*
X126874127Y-102281153D01*
X126741239Y-102226109D01*
X126600166Y-102198048D01*
X126456330Y-102198048D01*
X126315257Y-102226109D01*
X126182369Y-102281153D01*
X126062773Y-102361065D01*
X125961065Y-102462773D01*
X125881153Y-102582369D01*
X125826109Y-102715257D01*
X125798048Y-102856330D01*
X99127000Y-102856330D01*
X99127000Y-101428082D01*
X137869800Y-101428082D01*
X137869800Y-101571918D01*
X137897861Y-101712991D01*
X137952905Y-101845879D01*
X138032817Y-101965475D01*
X138134525Y-102067183D01*
X138144800Y-102074049D01*
X138144801Y-103425951D01*
X138134525Y-103432817D01*
X138032817Y-103534525D01*
X137952905Y-103654121D01*
X137897861Y-103787009D01*
X137869800Y-103928082D01*
X137869800Y-104071918D01*
X137897861Y-104212991D01*
X137952905Y-104345879D01*
X138032817Y-104465475D01*
X138134525Y-104567183D01*
X138254121Y-104647095D01*
X138387009Y-104702139D01*
X138528082Y-104730200D01*
X138671918Y-104730200D01*
X138812991Y-104702139D01*
X138945879Y-104647095D01*
X139065475Y-104567183D01*
X139167183Y-104465475D01*
X139247095Y-104345879D01*
X139302139Y-104212991D01*
X139330200Y-104071918D01*
X139330200Y-103928082D01*
X139302139Y-103787009D01*
X139247095Y-103654121D01*
X139167183Y-103534525D01*
X139065475Y-103432817D01*
X139055200Y-103425951D01*
X139055200Y-102074049D01*
X139065475Y-102067183D01*
X139167183Y-101965475D01*
X139247095Y-101845879D01*
X139302139Y-101712991D01*
X139330200Y-101571918D01*
X139330200Y-101428082D01*
X139302139Y-101287009D01*
X139247095Y-101154121D01*
X139167183Y-101034525D01*
X139065475Y-100932817D01*
X138945879Y-100852905D01*
X138812991Y-100797861D01*
X138671918Y-100769800D01*
X138528082Y-100769800D01*
X138387009Y-100797861D01*
X138254121Y-100852905D01*
X138134525Y-100932817D01*
X138032817Y-101034525D01*
X137952905Y-101154121D01*
X137897861Y-101287009D01*
X137869800Y-101428082D01*
X99127000Y-101428082D01*
X99127000Y-96269902D01*
X101256800Y-96269902D01*
X101256800Y-96560098D01*
X101313414Y-96844717D01*
X101424467Y-97112822D01*
X101585691Y-97354110D01*
X101790890Y-97559309D01*
X102032178Y-97720533D01*
X102300283Y-97831586D01*
X102584902Y-97888200D01*
X102875098Y-97888200D01*
X103159717Y-97831586D01*
X103427822Y-97720533D01*
X103669110Y-97559309D01*
X103874309Y-97354110D01*
X104035533Y-97112822D01*
X104105786Y-96943216D01*
X105455800Y-96943216D01*
X105455800Y-97156784D01*
X105497465Y-97366249D01*
X105579194Y-97563561D01*
X105697847Y-97741137D01*
X105848863Y-97892153D01*
X106026439Y-98010806D01*
X106223751Y-98092535D01*
X106433216Y-98134200D01*
X106646784Y-98134200D01*
X106856249Y-98092535D01*
X107053561Y-98010806D01*
X107231137Y-97892153D01*
X107382153Y-97741137D01*
X107500806Y-97563561D01*
X107582535Y-97366249D01*
X107624200Y-97156784D01*
X107624200Y-96943216D01*
X107995800Y-96943216D01*
X107995800Y-97156784D01*
X108037465Y-97366249D01*
X108119194Y-97563561D01*
X108237847Y-97741137D01*
X108388863Y-97892153D01*
X108566439Y-98010806D01*
X108763751Y-98092535D01*
X108973216Y-98134200D01*
X109186784Y-98134200D01*
X109396249Y-98092535D01*
X109593561Y-98010806D01*
X109771137Y-97892153D01*
X109922153Y-97741137D01*
X110040806Y-97563561D01*
X110122535Y-97366249D01*
X110164200Y-97156784D01*
X110164200Y-96943216D01*
X110535800Y-96943216D01*
X110535800Y-97156784D01*
X110577465Y-97366249D01*
X110659194Y-97563561D01*
X110777847Y-97741137D01*
X110928863Y-97892153D01*
X111106439Y-98010806D01*
X111303751Y-98092535D01*
X111513216Y-98134200D01*
X111726784Y-98134200D01*
X111936249Y-98092535D01*
X112133561Y-98010806D01*
X112311137Y-97892153D01*
X112462153Y-97741137D01*
X112580806Y-97563561D01*
X112662535Y-97366249D01*
X112704200Y-97156784D01*
X112704200Y-96943216D01*
X113075800Y-96943216D01*
X113075800Y-97156784D01*
X113117465Y-97366249D01*
X113199194Y-97563561D01*
X113317847Y-97741137D01*
X113468863Y-97892153D01*
X113646439Y-98010806D01*
X113843751Y-98092535D01*
X114053216Y-98134200D01*
X114266784Y-98134200D01*
X114476249Y-98092535D01*
X114673561Y-98010806D01*
X114851137Y-97892153D01*
X115002153Y-97741137D01*
X115120806Y-97563561D01*
X115202535Y-97366249D01*
X115244200Y-97156784D01*
X115244200Y-96943216D01*
X115615800Y-96943216D01*
X115615800Y-97156784D01*
X115657465Y-97366249D01*
X115739194Y-97563561D01*
X115857847Y-97741137D01*
X116008863Y-97892153D01*
X116186439Y-98010806D01*
X116383751Y-98092535D01*
X116593216Y-98134200D01*
X116806784Y-98134200D01*
X117016249Y-98092535D01*
X117213561Y-98010806D01*
X117391137Y-97892153D01*
X117542153Y-97741137D01*
X117660806Y-97563561D01*
X117742535Y-97366249D01*
X117784200Y-97156784D01*
X117784200Y-96943216D01*
X118155800Y-96943216D01*
X118155800Y-97156784D01*
X118197465Y-97366249D01*
X118279194Y-97563561D01*
X118397847Y-97741137D01*
X118548863Y-97892153D01*
X118726439Y-98010806D01*
X118923751Y-98092535D01*
X119133216Y-98134200D01*
X119346784Y-98134200D01*
X119556249Y-98092535D01*
X119753561Y-98010806D01*
X119931137Y-97892153D01*
X120082153Y-97741137D01*
X120200806Y-97563561D01*
X120282535Y-97366249D01*
X120324200Y-97156784D01*
X120324200Y-96943216D01*
X120695800Y-96943216D01*
X120695800Y-97156784D01*
X120737465Y-97366249D01*
X120819194Y-97563561D01*
X120937847Y-97741137D01*
X121088863Y-97892153D01*
X121266439Y-98010806D01*
X121463751Y-98092535D01*
X121673216Y-98134200D01*
X121886784Y-98134200D01*
X122096249Y-98092535D01*
X122293561Y-98010806D01*
X122471137Y-97892153D01*
X122622153Y-97741137D01*
X122740806Y-97563561D01*
X122822535Y-97366249D01*
X122864200Y-97156784D01*
X122864200Y-96943216D01*
X123235800Y-96943216D01*
X123235800Y-97156784D01*
X123277465Y-97366249D01*
X123359194Y-97563561D01*
X123477847Y-97741137D01*
X123628863Y-97892153D01*
X123806439Y-98010806D01*
X124003751Y-98092535D01*
X124213216Y-98134200D01*
X124426784Y-98134200D01*
X124636249Y-98092535D01*
X124833561Y-98010806D01*
X125011137Y-97892153D01*
X125162153Y-97741137D01*
X125280806Y-97563561D01*
X125362535Y-97366249D01*
X125404200Y-97156784D01*
X125404200Y-96943216D01*
X125775800Y-96943216D01*
X125775800Y-97156784D01*
X125817465Y-97366249D01*
X125899194Y-97563561D01*
X126017847Y-97741137D01*
X126168863Y-97892153D01*
X126346439Y-98010806D01*
X126543751Y-98092535D01*
X126753216Y-98134200D01*
X126966784Y-98134200D01*
X127176249Y-98092535D01*
X127373561Y-98010806D01*
X127551137Y-97892153D01*
X127702153Y-97741137D01*
X127820806Y-97563561D01*
X127902535Y-97366249D01*
X127944200Y-97156784D01*
X127944200Y-96943216D01*
X128315800Y-96943216D01*
X128315800Y-97156784D01*
X128357465Y-97366249D01*
X128439194Y-97563561D01*
X128557847Y-97741137D01*
X128708863Y-97892153D01*
X128886439Y-98010806D01*
X129083751Y-98092535D01*
X129293216Y-98134200D01*
X129506784Y-98134200D01*
X129716249Y-98092535D01*
X129913561Y-98010806D01*
X130091137Y-97892153D01*
X130242153Y-97741137D01*
X130360806Y-97563561D01*
X130442535Y-97366249D01*
X130484200Y-97156784D01*
X130484200Y-96943216D01*
X130855800Y-96943216D01*
X130855800Y-97156784D01*
X130897465Y-97366249D01*
X130979194Y-97563561D01*
X131097847Y-97741137D01*
X131248863Y-97892153D01*
X131426439Y-98010806D01*
X131623751Y-98092535D01*
X131833216Y-98134200D01*
X132046784Y-98134200D01*
X132256249Y-98092535D01*
X132453561Y-98010806D01*
X132631137Y-97892153D01*
X132782153Y-97741137D01*
X132900806Y-97563561D01*
X132982535Y-97366249D01*
X133024200Y-97156784D01*
X133024200Y-96943216D01*
X133395800Y-96943216D01*
X133395800Y-97156784D01*
X133437465Y-97366249D01*
X133519194Y-97563561D01*
X133637847Y-97741137D01*
X133788863Y-97892153D01*
X133966439Y-98010806D01*
X134163751Y-98092535D01*
X134373216Y-98134200D01*
X134586784Y-98134200D01*
X134796249Y-98092535D01*
X134993561Y-98010806D01*
X135171137Y-97892153D01*
X135322153Y-97741137D01*
X135440806Y-97563561D01*
X135522535Y-97366249D01*
X135564200Y-97156784D01*
X135564200Y-96943216D01*
X135522535Y-96733751D01*
X135440806Y-96536439D01*
X135322153Y-96358863D01*
X135171137Y-96207847D01*
X134993561Y-96089194D01*
X134796249Y-96007465D01*
X134586784Y-95965800D01*
X134373216Y-95965800D01*
X134163751Y-96007465D01*
X133966439Y-96089194D01*
X133788863Y-96207847D01*
X133637847Y-96358863D01*
X133519194Y-96536439D01*
X133437465Y-96733751D01*
X133395800Y-96943216D01*
X133024200Y-96943216D01*
X132982535Y-96733751D01*
X132900806Y-96536439D01*
X132782153Y-96358863D01*
X132631137Y-96207847D01*
X132453561Y-96089194D01*
X132256249Y-96007465D01*
X132046784Y-95965800D01*
X131833216Y-95965800D01*
X131623751Y-96007465D01*
X131426439Y-96089194D01*
X131248863Y-96207847D01*
X131097847Y-96358863D01*
X130979194Y-96536439D01*
X130897465Y-96733751D01*
X130855800Y-96943216D01*
X130484200Y-96943216D01*
X130442535Y-96733751D01*
X130360806Y-96536439D01*
X130242153Y-96358863D01*
X130091137Y-96207847D01*
X129913561Y-96089194D01*
X129716249Y-96007465D01*
X129506784Y-95965800D01*
X129293216Y-95965800D01*
X129083751Y-96007465D01*
X128886439Y-96089194D01*
X128708863Y-96207847D01*
X128557847Y-96358863D01*
X128439194Y-96536439D01*
X128357465Y-96733751D01*
X128315800Y-96943216D01*
X127944200Y-96943216D01*
X127902535Y-96733751D01*
X127820806Y-96536439D01*
X127702153Y-96358863D01*
X127551137Y-96207847D01*
X127373561Y-96089194D01*
X127176249Y-96007465D01*
X126966784Y-95965800D01*
X126753216Y-95965800D01*
X126543751Y-96007465D01*
X126346439Y-96089194D01*
X126168863Y-96207847D01*
X126017847Y-96358863D01*
X125899194Y-96536439D01*
X125817465Y-96733751D01*
X125775800Y-96943216D01*
X125404200Y-96943216D01*
X125362535Y-96733751D01*
X125280806Y-96536439D01*
X125162153Y-96358863D01*
X125011137Y-96207847D01*
X124833561Y-96089194D01*
X124636249Y-96007465D01*
X124426784Y-95965800D01*
X124213216Y-95965800D01*
X124003751Y-96007465D01*
X123806439Y-96089194D01*
X123628863Y-96207847D01*
X123477847Y-96358863D01*
X123359194Y-96536439D01*
X123277465Y-96733751D01*
X123235800Y-96943216D01*
X122864200Y-96943216D01*
X122822535Y-96733751D01*
X122740806Y-96536439D01*
X122622153Y-96358863D01*
X122471137Y-96207847D01*
X122293561Y-96089194D01*
X122096249Y-96007465D01*
X121886784Y-95965800D01*
X121673216Y-95965800D01*
X121463751Y-96007465D01*
X121266439Y-96089194D01*
X121088863Y-96207847D01*
X120937847Y-96358863D01*
X120819194Y-96536439D01*
X120737465Y-96733751D01*
X120695800Y-96943216D01*
X120324200Y-96943216D01*
X120282535Y-96733751D01*
X120200806Y-96536439D01*
X120082153Y-96358863D01*
X119931137Y-96207847D01*
X119753561Y-96089194D01*
X119556249Y-96007465D01*
X119346784Y-95965800D01*
X119133216Y-95965800D01*
X118923751Y-96007465D01*
X118726439Y-96089194D01*
X118548863Y-96207847D01*
X118397847Y-96358863D01*
X118279194Y-96536439D01*
X118197465Y-96733751D01*
X118155800Y-96943216D01*
X117784200Y-96943216D01*
X117742535Y-96733751D01*
X117660806Y-96536439D01*
X117542153Y-96358863D01*
X117391137Y-96207847D01*
X117213561Y-96089194D01*
X117016249Y-96007465D01*
X116806784Y-95965800D01*
X116593216Y-95965800D01*
X116383751Y-96007465D01*
X116186439Y-96089194D01*
X116008863Y-96207847D01*
X115857847Y-96358863D01*
X115739194Y-96536439D01*
X115657465Y-96733751D01*
X115615800Y-96943216D01*
X115244200Y-96943216D01*
X115202535Y-96733751D01*
X115120806Y-96536439D01*
X115002153Y-96358863D01*
X114851137Y-96207847D01*
X114673561Y-96089194D01*
X114476249Y-96007465D01*
X114266784Y-95965800D01*
X114053216Y-95965800D01*
X113843751Y-96007465D01*
X113646439Y-96089194D01*
X113468863Y-96207847D01*
X113317847Y-96358863D01*
X113199194Y-96536439D01*
X113117465Y-96733751D01*
X113075800Y-96943216D01*
X112704200Y-96943216D01*
X112662535Y-96733751D01*
X112580806Y-96536439D01*
X112462153Y-96358863D01*
X112311137Y-96207847D01*
X112133561Y-96089194D01*
X111936249Y-96007465D01*
X111726784Y-95965800D01*
X111513216Y-95965800D01*
X111303751Y-96007465D01*
X111106439Y-96089194D01*
X110928863Y-96207847D01*
X110777847Y-96358863D01*
X110659194Y-96536439D01*
X110577465Y-96733751D01*
X110535800Y-96943216D01*
X110164200Y-96943216D01*
X110122535Y-96733751D01*
X110040806Y-96536439D01*
X109922153Y-96358863D01*
X109771137Y-96207847D01*
X109593561Y-96089194D01*
X109396249Y-96007465D01*
X109186784Y-95965800D01*
X108973216Y-95965800D01*
X108763751Y-96007465D01*
X108566439Y-96089194D01*
X108388863Y-96207847D01*
X108237847Y-96358863D01*
X108119194Y-96536439D01*
X108037465Y-96733751D01*
X107995800Y-96943216D01*
X107624200Y-96943216D01*
X107582535Y-96733751D01*
X107500806Y-96536439D01*
X107382153Y-96358863D01*
X107231137Y-96207847D01*
X107053561Y-96089194D01*
X106856249Y-96007465D01*
X106646784Y-95965800D01*
X106433216Y-95965800D01*
X106223751Y-96007465D01*
X106026439Y-96089194D01*
X105848863Y-96207847D01*
X105697847Y-96358863D01*
X105579194Y-96536439D01*
X105497465Y-96733751D01*
X105455800Y-96943216D01*
X104105786Y-96943216D01*
X104146586Y-96844717D01*
X104203200Y-96560098D01*
X104203200Y-96269902D01*
X104146586Y-95985283D01*
X104035533Y-95717178D01*
X103938769Y-95572360D01*
X146341800Y-95572360D01*
X146341800Y-95987640D01*
X146422817Y-96394939D01*
X146581737Y-96778607D01*
X146812454Y-97123899D01*
X147106101Y-97417546D01*
X147451393Y-97648263D01*
X147835061Y-97807183D01*
X148242360Y-97888200D01*
X148657640Y-97888200D01*
X149064939Y-97807183D01*
X149448607Y-97648263D01*
X149793899Y-97417546D01*
X150087546Y-97123899D01*
X150318263Y-96778607D01*
X150477183Y-96394939D01*
X150558200Y-95987640D01*
X150558200Y-95572360D01*
X150477183Y-95165061D01*
X150318263Y-94781393D01*
X150087546Y-94436101D01*
X149793899Y-94142454D01*
X149448607Y-93911737D01*
X149064939Y-93752817D01*
X148657640Y-93671800D01*
X148242360Y-93671800D01*
X147835061Y-93752817D01*
X147451393Y-93911737D01*
X147106101Y-94142454D01*
X146812454Y-94436101D01*
X146581737Y-94781393D01*
X146422817Y-95165061D01*
X146341800Y-95572360D01*
X103938769Y-95572360D01*
X103874309Y-95475890D01*
X103669110Y-95270691D01*
X103427822Y-95109467D01*
X103159717Y-94998414D01*
X102875098Y-94941800D01*
X102584902Y-94941800D01*
X102300283Y-94998414D01*
X102032178Y-95109467D01*
X101790890Y-95270691D01*
X101585691Y-95475890D01*
X101424467Y-95717178D01*
X101313414Y-95985283D01*
X101256800Y-96269902D01*
X99127000Y-96269902D01*
X99127000Y-81183529D01*
X163842551Y-81183529D01*
X163872997Y-81370345D01*
X164069782Y-81423651D01*
X164273186Y-81437541D01*
X164475391Y-81411483D01*
X164611003Y-81370345D01*
X164641449Y-81183529D01*
X164242000Y-80784080D01*
X163842551Y-81183529D01*
X99127000Y-81183529D01*
X99127000Y-77219902D01*
X101256800Y-77219902D01*
X101256800Y-77510098D01*
X101313414Y-77794717D01*
X101424467Y-78062822D01*
X101585691Y-78304110D01*
X101790890Y-78509309D01*
X102032178Y-78670533D01*
X102300283Y-78781586D01*
X102584902Y-78838200D01*
X102875098Y-78838200D01*
X103159717Y-78781586D01*
X103427822Y-78670533D01*
X103669110Y-78509309D01*
X103874309Y-78304110D01*
X104035533Y-78062822D01*
X104146586Y-77794717D01*
X104203200Y-77510098D01*
X104203200Y-77219902D01*
X104146586Y-76935283D01*
X104035533Y-76667178D01*
X104006159Y-76623216D01*
X105455800Y-76623216D01*
X105455800Y-76836784D01*
X105497465Y-77046249D01*
X105579194Y-77243561D01*
X105697847Y-77421137D01*
X105848863Y-77572153D01*
X106026439Y-77690806D01*
X106223751Y-77772535D01*
X106433216Y-77814200D01*
X106646784Y-77814200D01*
X106856249Y-77772535D01*
X107053561Y-77690806D01*
X107231137Y-77572153D01*
X107382153Y-77421137D01*
X107500806Y-77243561D01*
X107582535Y-77046249D01*
X107624200Y-76836784D01*
X107624200Y-76623216D01*
X107995800Y-76623216D01*
X107995800Y-76836784D01*
X108037465Y-77046249D01*
X108119194Y-77243561D01*
X108237847Y-77421137D01*
X108388863Y-77572153D01*
X108566439Y-77690806D01*
X108763751Y-77772535D01*
X108973216Y-77814200D01*
X109186784Y-77814200D01*
X109396249Y-77772535D01*
X109593561Y-77690806D01*
X109771137Y-77572153D01*
X109922153Y-77421137D01*
X110040806Y-77243561D01*
X110122535Y-77046249D01*
X110164200Y-76836784D01*
X110164200Y-76623216D01*
X110535800Y-76623216D01*
X110535800Y-76836784D01*
X110577465Y-77046249D01*
X110659194Y-77243561D01*
X110777847Y-77421137D01*
X110928863Y-77572153D01*
X111106439Y-77690806D01*
X111303751Y-77772535D01*
X111513216Y-77814200D01*
X111726784Y-77814200D01*
X111936249Y-77772535D01*
X112133561Y-77690806D01*
X112311137Y-77572153D01*
X112462153Y-77421137D01*
X112580806Y-77243561D01*
X112662535Y-77046249D01*
X112704200Y-76836784D01*
X112704200Y-76623216D01*
X113075800Y-76623216D01*
X113075800Y-76836784D01*
X113117465Y-77046249D01*
X113199194Y-77243561D01*
X113317847Y-77421137D01*
X113468863Y-77572153D01*
X113646439Y-77690806D01*
X113843751Y-77772535D01*
X114053216Y-77814200D01*
X114266784Y-77814200D01*
X114476249Y-77772535D01*
X114673561Y-77690806D01*
X114851137Y-77572153D01*
X115002153Y-77421137D01*
X115120806Y-77243561D01*
X115202535Y-77046249D01*
X115244200Y-76836784D01*
X115244200Y-76623216D01*
X115615800Y-76623216D01*
X115615800Y-76836784D01*
X115657465Y-77046249D01*
X115739194Y-77243561D01*
X115857847Y-77421137D01*
X116008863Y-77572153D01*
X116186439Y-77690806D01*
X116383751Y-77772535D01*
X116593216Y-77814200D01*
X116806784Y-77814200D01*
X117016249Y-77772535D01*
X117213561Y-77690806D01*
X117391137Y-77572153D01*
X117542153Y-77421137D01*
X117660806Y-77243561D01*
X117742535Y-77046249D01*
X117784200Y-76836784D01*
X117784200Y-76623216D01*
X118155800Y-76623216D01*
X118155800Y-76836784D01*
X118197465Y-77046249D01*
X118279194Y-77243561D01*
X118397847Y-77421137D01*
X118548863Y-77572153D01*
X118726439Y-77690806D01*
X118923751Y-77772535D01*
X119133216Y-77814200D01*
X119346784Y-77814200D01*
X119556249Y-77772535D01*
X119753561Y-77690806D01*
X119931137Y-77572153D01*
X120082153Y-77421137D01*
X120200806Y-77243561D01*
X120282535Y-77046249D01*
X120324200Y-76836784D01*
X120324200Y-76623216D01*
X120695800Y-76623216D01*
X120695800Y-76836784D01*
X120737465Y-77046249D01*
X120819194Y-77243561D01*
X120937847Y-77421137D01*
X121088863Y-77572153D01*
X121266439Y-77690806D01*
X121463751Y-77772535D01*
X121673216Y-77814200D01*
X121886784Y-77814200D01*
X122096249Y-77772535D01*
X122293561Y-77690806D01*
X122471137Y-77572153D01*
X122622153Y-77421137D01*
X122740806Y-77243561D01*
X122822535Y-77046249D01*
X122864200Y-76836784D01*
X122864200Y-76623216D01*
X123235800Y-76623216D01*
X123235800Y-76836784D01*
X123277465Y-77046249D01*
X123359194Y-77243561D01*
X123477847Y-77421137D01*
X123628863Y-77572153D01*
X123806439Y-77690806D01*
X124003751Y-77772535D01*
X124213216Y-77814200D01*
X124426784Y-77814200D01*
X124636249Y-77772535D01*
X124833561Y-77690806D01*
X125011137Y-77572153D01*
X125162153Y-77421137D01*
X125280806Y-77243561D01*
X125362535Y-77046249D01*
X125404200Y-76836784D01*
X125404200Y-76623216D01*
X125775800Y-76623216D01*
X125775800Y-76836784D01*
X125817465Y-77046249D01*
X125899194Y-77243561D01*
X126017847Y-77421137D01*
X126168863Y-77572153D01*
X126346439Y-77690806D01*
X126543751Y-77772535D01*
X126753216Y-77814200D01*
X126966784Y-77814200D01*
X127176249Y-77772535D01*
X127373561Y-77690806D01*
X127551137Y-77572153D01*
X127702153Y-77421137D01*
X127820806Y-77243561D01*
X127902535Y-77046249D01*
X127944200Y-76836784D01*
X127944200Y-76623216D01*
X128315800Y-76623216D01*
X128315800Y-76836784D01*
X128357465Y-77046249D01*
X128439194Y-77243561D01*
X128557847Y-77421137D01*
X128708863Y-77572153D01*
X128886439Y-77690806D01*
X129083751Y-77772535D01*
X129293216Y-77814200D01*
X129506784Y-77814200D01*
X129716249Y-77772535D01*
X129913561Y-77690806D01*
X130091137Y-77572153D01*
X130242153Y-77421137D01*
X130360806Y-77243561D01*
X130442535Y-77046249D01*
X130484200Y-76836784D01*
X130484200Y-76623216D01*
X130855800Y-76623216D01*
X130855800Y-76836784D01*
X130897465Y-77046249D01*
X130979194Y-77243561D01*
X131097847Y-77421137D01*
X131248863Y-77572153D01*
X131426439Y-77690806D01*
X131623751Y-77772535D01*
X131833216Y-77814200D01*
X132046784Y-77814200D01*
X132256249Y-77772535D01*
X132453561Y-77690806D01*
X132631137Y-77572153D01*
X132782153Y-77421137D01*
X132900806Y-77243561D01*
X132982535Y-77046249D01*
X133024200Y-76836784D01*
X133024200Y-76623216D01*
X133395800Y-76623216D01*
X133395800Y-76836784D01*
X133437465Y-77046249D01*
X133519194Y-77243561D01*
X133637847Y-77421137D01*
X133788863Y-77572153D01*
X133966439Y-77690806D01*
X134163751Y-77772535D01*
X134373216Y-77814200D01*
X134586784Y-77814200D01*
X134778110Y-77776143D01*
X136359938Y-77776143D01*
X136436323Y-77997817D01*
X136694877Y-78087326D01*
X136965925Y-78124674D01*
X137239052Y-78108425D01*
X137503761Y-78039205D01*
X137603677Y-77997817D01*
X137680062Y-77776143D01*
X137020000Y-77116080D01*
X136359938Y-77776143D01*
X134778110Y-77776143D01*
X134796249Y-77772535D01*
X134993561Y-77690806D01*
X135171137Y-77572153D01*
X135322153Y-77421137D01*
X135440806Y-77243561D01*
X135522535Y-77046249D01*
X135564200Y-76836784D01*
X135564200Y-76675925D01*
X135625326Y-76675925D01*
X135641575Y-76949052D01*
X135710795Y-77213761D01*
X135752183Y-77313677D01*
X135973857Y-77390062D01*
X136633920Y-76730000D01*
X137406080Y-76730000D01*
X138066143Y-77390062D01*
X138287817Y-77313677D01*
X138377326Y-77055123D01*
X138414674Y-76784075D01*
X138405105Y-76623216D01*
X138475800Y-76623216D01*
X138475800Y-76836784D01*
X138517465Y-77046249D01*
X138599194Y-77243561D01*
X138717847Y-77421137D01*
X138868863Y-77572153D01*
X139046439Y-77690806D01*
X139243751Y-77772535D01*
X139453216Y-77814200D01*
X139666784Y-77814200D01*
X139876249Y-77772535D01*
X140073561Y-77690806D01*
X140251137Y-77572153D01*
X140402153Y-77421137D01*
X140520806Y-77243561D01*
X140602535Y-77046249D01*
X140644200Y-76836784D01*
X140644200Y-76623216D01*
X141015800Y-76623216D01*
X141015800Y-76836784D01*
X141057465Y-77046249D01*
X141139194Y-77243561D01*
X141257847Y-77421137D01*
X141408863Y-77572153D01*
X141586439Y-77690806D01*
X141783751Y-77772535D01*
X141993216Y-77814200D01*
X142206784Y-77814200D01*
X142416249Y-77772535D01*
X142613561Y-77690806D01*
X142791137Y-77572153D01*
X142942153Y-77421137D01*
X143060806Y-77243561D01*
X143142535Y-77046249D01*
X143184200Y-76836784D01*
X143184200Y-76623216D01*
X143142535Y-76413751D01*
X143060806Y-76216439D01*
X142942153Y-76038863D01*
X142879290Y-75976000D01*
X143554203Y-75976000D01*
X143554203Y-77484000D01*
X143560578Y-77548730D01*
X143579460Y-77610973D01*
X143610121Y-77668337D01*
X143651384Y-77718616D01*
X143701663Y-77759879D01*
X143759027Y-77790540D01*
X143821270Y-77809422D01*
X143886000Y-77815797D01*
X145394000Y-77815797D01*
X145458730Y-77809422D01*
X145514973Y-77792360D01*
X146341800Y-77792360D01*
X146341800Y-78207640D01*
X146422817Y-78614939D01*
X146581737Y-78998607D01*
X146812454Y-79343899D01*
X147106101Y-79637546D01*
X147451393Y-79868263D01*
X147835061Y-80027183D01*
X148242360Y-80108200D01*
X148657640Y-80108200D01*
X149064939Y-80027183D01*
X149448607Y-79868263D01*
X149793899Y-79637546D01*
X150087546Y-79343899D01*
X150318263Y-78998607D01*
X150477183Y-78614939D01*
X150514131Y-78429186D01*
X163202459Y-78429186D01*
X163228517Y-78631391D01*
X163269655Y-78767003D01*
X163384377Y-78785700D01*
X163313997Y-78856080D01*
X163355917Y-78898000D01*
X163313997Y-78939920D01*
X163384377Y-79010300D01*
X163269655Y-79028997D01*
X163216349Y-79225782D01*
X163202459Y-79429186D01*
X163228517Y-79631391D01*
X163269655Y-79767003D01*
X163384377Y-79785700D01*
X163313997Y-79856080D01*
X163355917Y-79898000D01*
X163313997Y-79939920D01*
X163384377Y-80010300D01*
X163269655Y-80028997D01*
X163216349Y-80225782D01*
X163202459Y-80429186D01*
X163228517Y-80631391D01*
X163269655Y-80767003D01*
X163456471Y-80797449D01*
X163855920Y-80398000D01*
X163841778Y-80383858D01*
X163870516Y-80355119D01*
X163872997Y-80370345D01*
X164069782Y-80423651D01*
X164273186Y-80437541D01*
X164475391Y-80411483D01*
X164611003Y-80370345D01*
X164613484Y-80355119D01*
X164642223Y-80383858D01*
X164628080Y-80398000D01*
X165027529Y-80797449D01*
X165214345Y-80767003D01*
X165267651Y-80570218D01*
X165281541Y-80366814D01*
X165255483Y-80164609D01*
X165214345Y-80028997D01*
X165099623Y-80010300D01*
X165170003Y-79939920D01*
X165128083Y-79898000D01*
X165170003Y-79856080D01*
X165099623Y-79785700D01*
X165214345Y-79767003D01*
X165267651Y-79570218D01*
X165281541Y-79366814D01*
X165255483Y-79164609D01*
X165214345Y-79028997D01*
X165099623Y-79010300D01*
X165170003Y-78939920D01*
X165128083Y-78898000D01*
X165170003Y-78856080D01*
X165099623Y-78785700D01*
X165214345Y-78767003D01*
X165267651Y-78570218D01*
X165281541Y-78366814D01*
X165255483Y-78164609D01*
X165214345Y-78028997D01*
X165027529Y-77998551D01*
X164628080Y-78398000D01*
X164642223Y-78412143D01*
X164613484Y-78440881D01*
X164611003Y-78425655D01*
X164414218Y-78372349D01*
X164210814Y-78358459D01*
X164008609Y-78384517D01*
X163872997Y-78425655D01*
X163870516Y-78440881D01*
X163841778Y-78412143D01*
X163855920Y-78398000D01*
X163456471Y-77998551D01*
X163269655Y-78028997D01*
X163216349Y-78225782D01*
X163202459Y-78429186D01*
X150514131Y-78429186D01*
X150558200Y-78207640D01*
X150558200Y-77792360D01*
X150522418Y-77612471D01*
X163842551Y-77612471D01*
X164242000Y-78011920D01*
X164641449Y-77612471D01*
X164611003Y-77425655D01*
X164414218Y-77372349D01*
X164210814Y-77358459D01*
X164008609Y-77384517D01*
X163872997Y-77425655D01*
X163842551Y-77612471D01*
X150522418Y-77612471D01*
X150477183Y-77385061D01*
X150318263Y-77001393D01*
X150087546Y-76656101D01*
X149793899Y-76362454D01*
X149448607Y-76131737D01*
X149064939Y-75972817D01*
X148657640Y-75891800D01*
X148242360Y-75891800D01*
X147835061Y-75972817D01*
X147451393Y-76131737D01*
X147106101Y-76362454D01*
X146812454Y-76656101D01*
X146581737Y-77001393D01*
X146422817Y-77385061D01*
X146341800Y-77792360D01*
X145514973Y-77792360D01*
X145520973Y-77790540D01*
X145578337Y-77759879D01*
X145628616Y-77718616D01*
X145669879Y-77668337D01*
X145700540Y-77610973D01*
X145719422Y-77548730D01*
X145725797Y-77484000D01*
X145725797Y-75976000D01*
X145719422Y-75911270D01*
X145700540Y-75849027D01*
X145669879Y-75791663D01*
X145628616Y-75741384D01*
X145578337Y-75700121D01*
X145520973Y-75669460D01*
X145458730Y-75650578D01*
X145394000Y-75644203D01*
X143886000Y-75644203D01*
X143821270Y-75650578D01*
X143759027Y-75669460D01*
X143701663Y-75700121D01*
X143651384Y-75741384D01*
X143610121Y-75791663D01*
X143579460Y-75849027D01*
X143560578Y-75911270D01*
X143554203Y-75976000D01*
X142879290Y-75976000D01*
X142791137Y-75887847D01*
X142613561Y-75769194D01*
X142416249Y-75687465D01*
X142206784Y-75645800D01*
X141993216Y-75645800D01*
X141783751Y-75687465D01*
X141586439Y-75769194D01*
X141408863Y-75887847D01*
X141257847Y-76038863D01*
X141139194Y-76216439D01*
X141057465Y-76413751D01*
X141015800Y-76623216D01*
X140644200Y-76623216D01*
X140602535Y-76413751D01*
X140520806Y-76216439D01*
X140402153Y-76038863D01*
X140251137Y-75887847D01*
X140073561Y-75769194D01*
X139876249Y-75687465D01*
X139666784Y-75645800D01*
X139453216Y-75645800D01*
X139243751Y-75687465D01*
X139046439Y-75769194D01*
X138868863Y-75887847D01*
X138717847Y-76038863D01*
X138599194Y-76216439D01*
X138517465Y-76413751D01*
X138475800Y-76623216D01*
X138405105Y-76623216D01*
X138398425Y-76510948D01*
X138329205Y-76246239D01*
X138287817Y-76146323D01*
X138066143Y-76069938D01*
X137406080Y-76730000D01*
X136633920Y-76730000D01*
X135973857Y-76069938D01*
X135752183Y-76146323D01*
X135662674Y-76404877D01*
X135625326Y-76675925D01*
X135564200Y-76675925D01*
X135564200Y-76623216D01*
X135522535Y-76413751D01*
X135440806Y-76216439D01*
X135322153Y-76038863D01*
X135171137Y-75887847D01*
X134993561Y-75769194D01*
X134796249Y-75687465D01*
X134778111Y-75683857D01*
X136359938Y-75683857D01*
X137020000Y-76343920D01*
X137680062Y-75683857D01*
X137603677Y-75462183D01*
X137345123Y-75372674D01*
X137074075Y-75335326D01*
X136800948Y-75351575D01*
X136536239Y-75420795D01*
X136436323Y-75462183D01*
X136359938Y-75683857D01*
X134778111Y-75683857D01*
X134586784Y-75645800D01*
X134373216Y-75645800D01*
X134163751Y-75687465D01*
X133966439Y-75769194D01*
X133788863Y-75887847D01*
X133637847Y-76038863D01*
X133519194Y-76216439D01*
X133437465Y-76413751D01*
X133395800Y-76623216D01*
X133024200Y-76623216D01*
X132982535Y-76413751D01*
X132900806Y-76216439D01*
X132782153Y-76038863D01*
X132631137Y-75887847D01*
X132453561Y-75769194D01*
X132256249Y-75687465D01*
X132046784Y-75645800D01*
X131833216Y-75645800D01*
X131623751Y-75687465D01*
X131426439Y-75769194D01*
X131248863Y-75887847D01*
X131097847Y-76038863D01*
X130979194Y-76216439D01*
X130897465Y-76413751D01*
X130855800Y-76623216D01*
X130484200Y-76623216D01*
X130442535Y-76413751D01*
X130360806Y-76216439D01*
X130242153Y-76038863D01*
X130091137Y-75887847D01*
X129913561Y-75769194D01*
X129716249Y-75687465D01*
X129506784Y-75645800D01*
X129293216Y-75645800D01*
X129083751Y-75687465D01*
X128886439Y-75769194D01*
X128708863Y-75887847D01*
X128557847Y-76038863D01*
X128439194Y-76216439D01*
X128357465Y-76413751D01*
X128315800Y-76623216D01*
X127944200Y-76623216D01*
X127902535Y-76413751D01*
X127820806Y-76216439D01*
X127702153Y-76038863D01*
X127551137Y-75887847D01*
X127373561Y-75769194D01*
X127176249Y-75687465D01*
X126966784Y-75645800D01*
X126753216Y-75645800D01*
X126543751Y-75687465D01*
X126346439Y-75769194D01*
X126168863Y-75887847D01*
X126017847Y-76038863D01*
X125899194Y-76216439D01*
X125817465Y-76413751D01*
X125775800Y-76623216D01*
X125404200Y-76623216D01*
X125362535Y-76413751D01*
X125280806Y-76216439D01*
X125162153Y-76038863D01*
X125011137Y-75887847D01*
X124833561Y-75769194D01*
X124636249Y-75687465D01*
X124426784Y-75645800D01*
X124213216Y-75645800D01*
X124003751Y-75687465D01*
X123806439Y-75769194D01*
X123628863Y-75887847D01*
X123477847Y-76038863D01*
X123359194Y-76216439D01*
X123277465Y-76413751D01*
X123235800Y-76623216D01*
X122864200Y-76623216D01*
X122822535Y-76413751D01*
X122740806Y-76216439D01*
X122622153Y-76038863D01*
X122471137Y-75887847D01*
X122293561Y-75769194D01*
X122096249Y-75687465D01*
X121886784Y-75645800D01*
X121673216Y-75645800D01*
X121463751Y-75687465D01*
X121266439Y-75769194D01*
X121088863Y-75887847D01*
X120937847Y-76038863D01*
X120819194Y-76216439D01*
X120737465Y-76413751D01*
X120695800Y-76623216D01*
X120324200Y-76623216D01*
X120282535Y-76413751D01*
X120200806Y-76216439D01*
X120082153Y-76038863D01*
X119931137Y-75887847D01*
X119753561Y-75769194D01*
X119556249Y-75687465D01*
X119346784Y-75645800D01*
X119133216Y-75645800D01*
X118923751Y-75687465D01*
X118726439Y-75769194D01*
X118548863Y-75887847D01*
X118397847Y-76038863D01*
X118279194Y-76216439D01*
X118197465Y-76413751D01*
X118155800Y-76623216D01*
X117784200Y-76623216D01*
X117742535Y-76413751D01*
X117660806Y-76216439D01*
X117542153Y-76038863D01*
X117391137Y-75887847D01*
X117213561Y-75769194D01*
X117016249Y-75687465D01*
X116806784Y-75645800D01*
X116593216Y-75645800D01*
X116383751Y-75687465D01*
X116186439Y-75769194D01*
X116008863Y-75887847D01*
X115857847Y-76038863D01*
X115739194Y-76216439D01*
X115657465Y-76413751D01*
X115615800Y-76623216D01*
X115244200Y-76623216D01*
X115202535Y-76413751D01*
X115120806Y-76216439D01*
X115002153Y-76038863D01*
X114851137Y-75887847D01*
X114673561Y-75769194D01*
X114476249Y-75687465D01*
X114266784Y-75645800D01*
X114053216Y-75645800D01*
X113843751Y-75687465D01*
X113646439Y-75769194D01*
X113468863Y-75887847D01*
X113317847Y-76038863D01*
X113199194Y-76216439D01*
X113117465Y-76413751D01*
X113075800Y-76623216D01*
X112704200Y-76623216D01*
X112662535Y-76413751D01*
X112580806Y-76216439D01*
X112462153Y-76038863D01*
X112311137Y-75887847D01*
X112133561Y-75769194D01*
X111936249Y-75687465D01*
X111726784Y-75645800D01*
X111513216Y-75645800D01*
X111303751Y-75687465D01*
X111106439Y-75769194D01*
X110928863Y-75887847D01*
X110777847Y-76038863D01*
X110659194Y-76216439D01*
X110577465Y-76413751D01*
X110535800Y-76623216D01*
X110164200Y-76623216D01*
X110122535Y-76413751D01*
X110040806Y-76216439D01*
X109922153Y-76038863D01*
X109771137Y-75887847D01*
X109593561Y-75769194D01*
X109396249Y-75687465D01*
X109186784Y-75645800D01*
X108973216Y-75645800D01*
X108763751Y-75687465D01*
X108566439Y-75769194D01*
X108388863Y-75887847D01*
X108237847Y-76038863D01*
X108119194Y-76216439D01*
X108037465Y-76413751D01*
X107995800Y-76623216D01*
X107624200Y-76623216D01*
X107582535Y-76413751D01*
X107500806Y-76216439D01*
X107382153Y-76038863D01*
X107231137Y-75887847D01*
X107053561Y-75769194D01*
X106856249Y-75687465D01*
X106646784Y-75645800D01*
X106433216Y-75645800D01*
X106223751Y-75687465D01*
X106026439Y-75769194D01*
X105848863Y-75887847D01*
X105697847Y-76038863D01*
X105579194Y-76216439D01*
X105497465Y-76413751D01*
X105455800Y-76623216D01*
X104006159Y-76623216D01*
X103874309Y-76425890D01*
X103669110Y-76220691D01*
X103427822Y-76059467D01*
X103159717Y-75948414D01*
X102875098Y-75891800D01*
X102584902Y-75891800D01*
X102300283Y-75948414D01*
X102032178Y-76059467D01*
X101790890Y-76220691D01*
X101585691Y-76425890D01*
X101424467Y-76667178D01*
X101313414Y-76935283D01*
X101256800Y-77219902D01*
X99127000Y-77219902D01*
X99127000Y-73570697D01*
X99291093Y-72862752D01*
X99292628Y-72852721D01*
X99295204Y-72842902D01*
X99300965Y-72798242D01*
X99350713Y-72144248D01*
X175873000Y-72144248D01*
X175873000Y-75500000D01*
X175873000Y-75500000D01*
G37*
X175873000Y-75500000D02*
X175875440Y-75524776D01*
X175882667Y-75548601D01*
X175894403Y-75570557D01*
X175914571Y-75593972D01*
X181414571Y-80593972D01*
X181434545Y-80608833D01*
X181457035Y-80619512D01*
X181481176Y-80625597D01*
X181500000Y-80627000D01*
X185373000Y-80627000D01*
X185373000Y-116373000D01*
X99127000Y-116373000D01*
X99127000Y-111984000D01*
X122652203Y-111984000D01*
X122652203Y-114016000D01*
X122658578Y-114080730D01*
X122677460Y-114142973D01*
X122708121Y-114200337D01*
X122749384Y-114250616D01*
X122799663Y-114291879D01*
X122857027Y-114322540D01*
X122919270Y-114341422D01*
X122984000Y-114347797D01*
X125016000Y-114347797D01*
X125080730Y-114341422D01*
X125142973Y-114322540D01*
X125200337Y-114291879D01*
X125250616Y-114250616D01*
X125291879Y-114200337D01*
X125322540Y-114142973D01*
X125341422Y-114080730D01*
X125347797Y-114016000D01*
X125347797Y-113000000D01*
X125822287Y-113000000D01*
X125848279Y-113263901D01*
X125925256Y-113517661D01*
X126050260Y-113751527D01*
X126218487Y-113956513D01*
X126423473Y-114124740D01*
X126657339Y-114249744D01*
X126911099Y-114326721D01*
X127108872Y-114346200D01*
X127241128Y-114346200D01*
X127438901Y-114326721D01*
X127692661Y-114249744D01*
X127926527Y-114124740D01*
X128131513Y-113956513D01*
X128299740Y-113751527D01*
X128421164Y-113524358D01*
X128784471Y-113524358D01*
X128916849Y-113819702D01*
X129104303Y-114083546D01*
X129339628Y-114305749D01*
X129613781Y-114477773D01*
X129825643Y-114565520D01*
X130077000Y-114467065D01*
X130077000Y-113273000D01*
X130623000Y-113273000D01*
X130623000Y-114467065D01*
X130874357Y-114565520D01*
X131086219Y-114477773D01*
X131360372Y-114305749D01*
X131595697Y-114083546D01*
X131783151Y-113819702D01*
X131915529Y-113524358D01*
X131819532Y-113273000D01*
X130623000Y-113273000D01*
X130077000Y-113273000D01*
X128880468Y-113273000D01*
X128784471Y-113524358D01*
X128421164Y-113524358D01*
X128424744Y-113517661D01*
X128501721Y-113263901D01*
X128527713Y-113000000D01*
X128501721Y-112736099D01*
X128424744Y-112482339D01*
X128421165Y-112475642D01*
X128784471Y-112475642D01*
X128880468Y-112727000D01*
X130077000Y-112727000D01*
X130077000Y-111532935D01*
X130623000Y-111532935D01*
X130623000Y-112727000D01*
X131819532Y-112727000D01*
X131915529Y-112475642D01*
X131783151Y-112180298D01*
X131643687Y-111984000D01*
X152652203Y-111984000D01*
X152652203Y-114016000D01*
X152658578Y-114080730D01*
X152677460Y-114142973D01*
X152708121Y-114200337D01*
X152749384Y-114250616D01*
X152799663Y-114291879D01*
X152857027Y-114322540D01*
X152919270Y-114341422D01*
X152984000Y-114347797D01*
X155016000Y-114347797D01*
X155080730Y-114341422D01*
X155142973Y-114322540D01*
X155200337Y-114291879D01*
X155250616Y-114250616D01*
X155291879Y-114200337D01*
X155322540Y-114142973D01*
X155341422Y-114080730D01*
X155347797Y-114016000D01*
X155347797Y-113000000D01*
X155822287Y-113000000D01*
X155848279Y-113263901D01*
X155925256Y-113517661D01*
X156050260Y-113751527D01*
X156218487Y-113956513D01*
X156423473Y-114124740D01*
X156657339Y-114249744D01*
X156911099Y-114326721D01*
X157108872Y-114346200D01*
X157241128Y-114346200D01*
X157438901Y-114326721D01*
X157692661Y-114249744D01*
X157926527Y-114124740D01*
X158131513Y-113956513D01*
X158299740Y-113751527D01*
X158421164Y-113524358D01*
X158784471Y-113524358D01*
X158916849Y-113819702D01*
X159104303Y-114083546D01*
X159339628Y-114305749D01*
X159613781Y-114477773D01*
X159825643Y-114565520D01*
X160077000Y-114467065D01*
X160077000Y-113273000D01*
X160623000Y-113273000D01*
X160623000Y-114467065D01*
X160874357Y-114565520D01*
X161086219Y-114477773D01*
X161360372Y-114305749D01*
X161595697Y-114083546D01*
X161783151Y-113819702D01*
X161915529Y-113524358D01*
X161819532Y-113273000D01*
X160623000Y-113273000D01*
X160077000Y-113273000D01*
X158880468Y-113273000D01*
X158784471Y-113524358D01*
X158421164Y-113524358D01*
X158424744Y-113517661D01*
X158501721Y-113263901D01*
X158527713Y-113000000D01*
X158501721Y-112736099D01*
X158424744Y-112482339D01*
X158421165Y-112475642D01*
X158784471Y-112475642D01*
X158880468Y-112727000D01*
X160077000Y-112727000D01*
X160077000Y-111532935D01*
X160623000Y-111532935D01*
X160623000Y-112727000D01*
X161819532Y-112727000D01*
X161915529Y-112475642D01*
X161783151Y-112180298D01*
X161595697Y-111916454D01*
X161360372Y-111694251D01*
X161086219Y-111522227D01*
X160874357Y-111434480D01*
X160623000Y-111532935D01*
X160077000Y-111532935D01*
X159825643Y-111434480D01*
X159613781Y-111522227D01*
X159339628Y-111694251D01*
X159104303Y-111916454D01*
X158916849Y-112180298D01*
X158784471Y-112475642D01*
X158421165Y-112475642D01*
X158299740Y-112248473D01*
X158131513Y-112043487D01*
X157926527Y-111875260D01*
X157692661Y-111750256D01*
X157438901Y-111673279D01*
X157241128Y-111653800D01*
X157108872Y-111653800D01*
X156911099Y-111673279D01*
X156657339Y-111750256D01*
X156423473Y-111875260D01*
X156218487Y-112043487D01*
X156050260Y-112248473D01*
X155925256Y-112482339D01*
X155848279Y-112736099D01*
X155822287Y-113000000D01*
X155347797Y-113000000D01*
X155347797Y-111984000D01*
X155341422Y-111919270D01*
X155322540Y-111857027D01*
X155291879Y-111799663D01*
X155250616Y-111749384D01*
X155200337Y-111708121D01*
X155142973Y-111677460D01*
X155080730Y-111658578D01*
X155016000Y-111652203D01*
X152984000Y-111652203D01*
X152919270Y-111658578D01*
X152857027Y-111677460D01*
X152799663Y-111708121D01*
X152749384Y-111749384D01*
X152708121Y-111799663D01*
X152677460Y-111857027D01*
X152658578Y-111919270D01*
X152652203Y-111984000D01*
X131643687Y-111984000D01*
X131595697Y-111916454D01*
X131360372Y-111694251D01*
X131086219Y-111522227D01*
X130874357Y-111434480D01*
X130623000Y-111532935D01*
X130077000Y-111532935D01*
X129825643Y-111434480D01*
X129613781Y-111522227D01*
X129339628Y-111694251D01*
X129104303Y-111916454D01*
X128916849Y-112180298D01*
X128784471Y-112475642D01*
X128421165Y-112475642D01*
X128299740Y-112248473D01*
X128131513Y-112043487D01*
X127926527Y-111875260D01*
X127692661Y-111750256D01*
X127438901Y-111673279D01*
X127241128Y-111653800D01*
X127108872Y-111653800D01*
X126911099Y-111673279D01*
X126657339Y-111750256D01*
X126423473Y-111875260D01*
X126218487Y-112043487D01*
X126050260Y-112248473D01*
X125925256Y-112482339D01*
X125848279Y-112736099D01*
X125822287Y-113000000D01*
X125347797Y-113000000D01*
X125347797Y-111984000D01*
X125341422Y-111919270D01*
X125322540Y-111857027D01*
X125291879Y-111799663D01*
X125250616Y-111749384D01*
X125200337Y-111708121D01*
X125142973Y-111677460D01*
X125080730Y-111658578D01*
X125016000Y-111652203D01*
X122984000Y-111652203D01*
X122919270Y-111658578D01*
X122857027Y-111677460D01*
X122799663Y-111708121D01*
X122749384Y-111749384D01*
X122708121Y-111799663D01*
X122677460Y-111857027D01*
X122658578Y-111919270D01*
X122652203Y-111984000D01*
X99127000Y-111984000D01*
X99127000Y-105928082D01*
X116369800Y-105928082D01*
X116369800Y-106071918D01*
X116397861Y-106212991D01*
X116452905Y-106345879D01*
X116532817Y-106465475D01*
X116634525Y-106567183D01*
X116754121Y-106647095D01*
X116887009Y-106702139D01*
X117028082Y-106730200D01*
X117171918Y-106730200D01*
X117312991Y-106702139D01*
X117445879Y-106647095D01*
X117565475Y-106567183D01*
X117667183Y-106465475D01*
X117674049Y-106455200D01*
X120161451Y-106455200D01*
X121072211Y-107365961D01*
X121069800Y-107378082D01*
X121069800Y-107521918D01*
X121097861Y-107662991D01*
X121152905Y-107795879D01*
X121232817Y-107915475D01*
X121334525Y-108017183D01*
X121454121Y-108097095D01*
X121587009Y-108152139D01*
X121728082Y-108180200D01*
X121871918Y-108180200D01*
X122012991Y-108152139D01*
X122145879Y-108097095D01*
X122265475Y-108017183D01*
X122367183Y-107915475D01*
X122447095Y-107795879D01*
X122502139Y-107662991D01*
X122530200Y-107521918D01*
X122530200Y-107378082D01*
X122502139Y-107237009D01*
X122447095Y-107104121D01*
X122367183Y-106984525D01*
X122265475Y-106882817D01*
X122145879Y-106802905D01*
X122012991Y-106747861D01*
X121871918Y-106719800D01*
X121728082Y-106719800D01*
X121715961Y-106722211D01*
X120687688Y-105693939D01*
X120673432Y-105676568D01*
X120604119Y-105619684D01*
X120525040Y-105577416D01*
X120439235Y-105551387D01*
X120372357Y-105544800D01*
X120372349Y-105544800D01*
X120350000Y-105542599D01*
X120327651Y-105544800D01*
X117674049Y-105544800D01*
X117667183Y-105534525D01*
X117565475Y-105432817D01*
X117445879Y-105352905D01*
X117312991Y-105297861D01*
X117171918Y-105269800D01*
X117028082Y-105269800D01*
X116887009Y-105297861D01*
X116754121Y-105352905D01*
X116634525Y-105432817D01*
X116532817Y-105534525D01*
X116452905Y-105654121D01*
X116397861Y-105787009D01*
X116369800Y-105928082D01*
X99127000Y-105928082D01*
X99127000Y-102856330D01*
X125798048Y-102856330D01*
X125798048Y-103000166D01*
X125826109Y-103141239D01*
X125881153Y-103274127D01*
X125961065Y-103393723D01*
X126062773Y-103495431D01*
X126182369Y-103575343D01*
X126315257Y-103630387D01*
X126456330Y-103658448D01*
X126600166Y-103658448D01*
X126741239Y-103630387D01*
X126874127Y-103575343D01*
X126993723Y-103495431D01*
X127022702Y-103466452D01*
X127672211Y-104115961D01*
X127669800Y-104128082D01*
X127669800Y-104271918D01*
X127697861Y-104412991D01*
X127752905Y-104545879D01*
X127832817Y-104665475D01*
X127934525Y-104767183D01*
X128054121Y-104847095D01*
X128187009Y-104902139D01*
X128328082Y-104930200D01*
X128471918Y-104930200D01*
X128612991Y-104902139D01*
X128745879Y-104847095D01*
X128865475Y-104767183D01*
X128967183Y-104665475D01*
X129047095Y-104545879D01*
X129102139Y-104412991D01*
X129130200Y-104271918D01*
X129130200Y-104128082D01*
X129102139Y-103987009D01*
X129047095Y-103854121D01*
X128967183Y-103734525D01*
X128865475Y-103632817D01*
X128745879Y-103552905D01*
X128612991Y-103497861D01*
X128471918Y-103469800D01*
X128328082Y-103469800D01*
X128315961Y-103472211D01*
X127465936Y-102622187D01*
X127451680Y-102604816D01*
X127382367Y-102547932D01*
X127303288Y-102505664D01*
X127217483Y-102479635D01*
X127150605Y-102473048D01*
X127150597Y-102473048D01*
X127128248Y-102470847D01*
X127105899Y-102473048D01*
X127102297Y-102473048D01*
X127095431Y-102462773D01*
X126993723Y-102361065D01*
X126874127Y-102281153D01*
X126741239Y-102226109D01*
X126600166Y-102198048D01*
X126456330Y-102198048D01*
X126315257Y-102226109D01*
X126182369Y-102281153D01*
X126062773Y-102361065D01*
X125961065Y-102462773D01*
X125881153Y-102582369D01*
X125826109Y-102715257D01*
X125798048Y-102856330D01*
X99127000Y-102856330D01*
X99127000Y-101428082D01*
X137869800Y-101428082D01*
X137869800Y-101571918D01*
X137897861Y-101712991D01*
X137952905Y-101845879D01*
X138032817Y-101965475D01*
X138134525Y-102067183D01*
X138144800Y-102074049D01*
X138144801Y-103425951D01*
X138134525Y-103432817D01*
X138032817Y-103534525D01*
X137952905Y-103654121D01*
X137897861Y-103787009D01*
X137869800Y-103928082D01*
X137869800Y-104071918D01*
X137897861Y-104212991D01*
X137952905Y-104345879D01*
X138032817Y-104465475D01*
X138134525Y-104567183D01*
X138254121Y-104647095D01*
X138387009Y-104702139D01*
X138528082Y-104730200D01*
X138671918Y-104730200D01*
X138812991Y-104702139D01*
X138945879Y-104647095D01*
X139065475Y-104567183D01*
X139167183Y-104465475D01*
X139247095Y-104345879D01*
X139302139Y-104212991D01*
X139330200Y-104071918D01*
X139330200Y-103928082D01*
X139302139Y-103787009D01*
X139247095Y-103654121D01*
X139167183Y-103534525D01*
X139065475Y-103432817D01*
X139055200Y-103425951D01*
X139055200Y-102074049D01*
X139065475Y-102067183D01*
X139167183Y-101965475D01*
X139247095Y-101845879D01*
X139302139Y-101712991D01*
X139330200Y-101571918D01*
X139330200Y-101428082D01*
X139302139Y-101287009D01*
X139247095Y-101154121D01*
X139167183Y-101034525D01*
X139065475Y-100932817D01*
X138945879Y-100852905D01*
X138812991Y-100797861D01*
X138671918Y-100769800D01*
X138528082Y-100769800D01*
X138387009Y-100797861D01*
X138254121Y-100852905D01*
X138134525Y-100932817D01*
X138032817Y-101034525D01*
X137952905Y-101154121D01*
X137897861Y-101287009D01*
X137869800Y-101428082D01*
X99127000Y-101428082D01*
X99127000Y-96269902D01*
X101256800Y-96269902D01*
X101256800Y-96560098D01*
X101313414Y-96844717D01*
X101424467Y-97112822D01*
X101585691Y-97354110D01*
X101790890Y-97559309D01*
X102032178Y-97720533D01*
X102300283Y-97831586D01*
X102584902Y-97888200D01*
X102875098Y-97888200D01*
X103159717Y-97831586D01*
X103427822Y-97720533D01*
X103669110Y-97559309D01*
X103874309Y-97354110D01*
X104035533Y-97112822D01*
X104105786Y-96943216D01*
X105455800Y-96943216D01*
X105455800Y-97156784D01*
X105497465Y-97366249D01*
X105579194Y-97563561D01*
X105697847Y-97741137D01*
X105848863Y-97892153D01*
X106026439Y-98010806D01*
X106223751Y-98092535D01*
X106433216Y-98134200D01*
X106646784Y-98134200D01*
X106856249Y-98092535D01*
X107053561Y-98010806D01*
X107231137Y-97892153D01*
X107382153Y-97741137D01*
X107500806Y-97563561D01*
X107582535Y-97366249D01*
X107624200Y-97156784D01*
X107624200Y-96943216D01*
X107995800Y-96943216D01*
X107995800Y-97156784D01*
X108037465Y-97366249D01*
X108119194Y-97563561D01*
X108237847Y-97741137D01*
X108388863Y-97892153D01*
X108566439Y-98010806D01*
X108763751Y-98092535D01*
X108973216Y-98134200D01*
X109186784Y-98134200D01*
X109396249Y-98092535D01*
X109593561Y-98010806D01*
X109771137Y-97892153D01*
X109922153Y-97741137D01*
X110040806Y-97563561D01*
X110122535Y-97366249D01*
X110164200Y-97156784D01*
X110164200Y-96943216D01*
X110535800Y-96943216D01*
X110535800Y-97156784D01*
X110577465Y-97366249D01*
X110659194Y-97563561D01*
X110777847Y-97741137D01*
X110928863Y-97892153D01*
X111106439Y-98010806D01*
X111303751Y-98092535D01*
X111513216Y-98134200D01*
X111726784Y-98134200D01*
X111936249Y-98092535D01*
X112133561Y-98010806D01*
X112311137Y-97892153D01*
X112462153Y-97741137D01*
X112580806Y-97563561D01*
X112662535Y-97366249D01*
X112704200Y-97156784D01*
X112704200Y-96943216D01*
X113075800Y-96943216D01*
X113075800Y-97156784D01*
X113117465Y-97366249D01*
X113199194Y-97563561D01*
X113317847Y-97741137D01*
X113468863Y-97892153D01*
X113646439Y-98010806D01*
X113843751Y-98092535D01*
X114053216Y-98134200D01*
X114266784Y-98134200D01*
X114476249Y-98092535D01*
X114673561Y-98010806D01*
X114851137Y-97892153D01*
X115002153Y-97741137D01*
X115120806Y-97563561D01*
X115202535Y-97366249D01*
X115244200Y-97156784D01*
X115244200Y-96943216D01*
X115615800Y-96943216D01*
X115615800Y-97156784D01*
X115657465Y-97366249D01*
X115739194Y-97563561D01*
X115857847Y-97741137D01*
X116008863Y-97892153D01*
X116186439Y-98010806D01*
X116383751Y-98092535D01*
X116593216Y-98134200D01*
X116806784Y-98134200D01*
X117016249Y-98092535D01*
X117213561Y-98010806D01*
X117391137Y-97892153D01*
X117542153Y-97741137D01*
X117660806Y-97563561D01*
X117742535Y-97366249D01*
X117784200Y-97156784D01*
X117784200Y-96943216D01*
X118155800Y-96943216D01*
X118155800Y-97156784D01*
X118197465Y-97366249D01*
X118279194Y-97563561D01*
X118397847Y-97741137D01*
X118548863Y-97892153D01*
X118726439Y-98010806D01*
X118923751Y-98092535D01*
X119133216Y-98134200D01*
X119346784Y-98134200D01*
X119556249Y-98092535D01*
X119753561Y-98010806D01*
X119931137Y-97892153D01*
X120082153Y-97741137D01*
X120200806Y-97563561D01*
X120282535Y-97366249D01*
X120324200Y-97156784D01*
X120324200Y-96943216D01*
X120695800Y-96943216D01*
X120695800Y-97156784D01*
X120737465Y-97366249D01*
X120819194Y-97563561D01*
X120937847Y-97741137D01*
X121088863Y-97892153D01*
X121266439Y-98010806D01*
X121463751Y-98092535D01*
X121673216Y-98134200D01*
X121886784Y-98134200D01*
X122096249Y-98092535D01*
X122293561Y-98010806D01*
X122471137Y-97892153D01*
X122622153Y-97741137D01*
X122740806Y-97563561D01*
X122822535Y-97366249D01*
X122864200Y-97156784D01*
X122864200Y-96943216D01*
X123235800Y-96943216D01*
X123235800Y-97156784D01*
X123277465Y-97366249D01*
X123359194Y-97563561D01*
X123477847Y-97741137D01*
X123628863Y-97892153D01*
X123806439Y-98010806D01*
X124003751Y-98092535D01*
X124213216Y-98134200D01*
X124426784Y-98134200D01*
X124636249Y-98092535D01*
X124833561Y-98010806D01*
X125011137Y-97892153D01*
X125162153Y-97741137D01*
X125280806Y-97563561D01*
X125362535Y-97366249D01*
X125404200Y-97156784D01*
X125404200Y-96943216D01*
X125775800Y-96943216D01*
X125775800Y-97156784D01*
X125817465Y-97366249D01*
X125899194Y-97563561D01*
X126017847Y-97741137D01*
X126168863Y-97892153D01*
X126346439Y-98010806D01*
X126543751Y-98092535D01*
X126753216Y-98134200D01*
X126966784Y-98134200D01*
X127176249Y-98092535D01*
X127373561Y-98010806D01*
X127551137Y-97892153D01*
X127702153Y-97741137D01*
X127820806Y-97563561D01*
X127902535Y-97366249D01*
X127944200Y-97156784D01*
X127944200Y-96943216D01*
X128315800Y-96943216D01*
X128315800Y-97156784D01*
X128357465Y-97366249D01*
X128439194Y-97563561D01*
X128557847Y-97741137D01*
X128708863Y-97892153D01*
X128886439Y-98010806D01*
X129083751Y-98092535D01*
X129293216Y-98134200D01*
X129506784Y-98134200D01*
X129716249Y-98092535D01*
X129913561Y-98010806D01*
X130091137Y-97892153D01*
X130242153Y-97741137D01*
X130360806Y-97563561D01*
X130442535Y-97366249D01*
X130484200Y-97156784D01*
X130484200Y-96943216D01*
X130855800Y-96943216D01*
X130855800Y-97156784D01*
X130897465Y-97366249D01*
X130979194Y-97563561D01*
X131097847Y-97741137D01*
X131248863Y-97892153D01*
X131426439Y-98010806D01*
X131623751Y-98092535D01*
X131833216Y-98134200D01*
X132046784Y-98134200D01*
X132256249Y-98092535D01*
X132453561Y-98010806D01*
X132631137Y-97892153D01*
X132782153Y-97741137D01*
X132900806Y-97563561D01*
X132982535Y-97366249D01*
X133024200Y-97156784D01*
X133024200Y-96943216D01*
X133395800Y-96943216D01*
X133395800Y-97156784D01*
X133437465Y-97366249D01*
X133519194Y-97563561D01*
X133637847Y-97741137D01*
X133788863Y-97892153D01*
X133966439Y-98010806D01*
X134163751Y-98092535D01*
X134373216Y-98134200D01*
X134586784Y-98134200D01*
X134796249Y-98092535D01*
X134993561Y-98010806D01*
X135171137Y-97892153D01*
X135322153Y-97741137D01*
X135440806Y-97563561D01*
X135522535Y-97366249D01*
X135564200Y-97156784D01*
X135564200Y-96943216D01*
X135522535Y-96733751D01*
X135440806Y-96536439D01*
X135322153Y-96358863D01*
X135171137Y-96207847D01*
X134993561Y-96089194D01*
X134796249Y-96007465D01*
X134586784Y-95965800D01*
X134373216Y-95965800D01*
X134163751Y-96007465D01*
X133966439Y-96089194D01*
X133788863Y-96207847D01*
X133637847Y-96358863D01*
X133519194Y-96536439D01*
X133437465Y-96733751D01*
X133395800Y-96943216D01*
X133024200Y-96943216D01*
X132982535Y-96733751D01*
X132900806Y-96536439D01*
X132782153Y-96358863D01*
X132631137Y-96207847D01*
X132453561Y-96089194D01*
X132256249Y-96007465D01*
X132046784Y-95965800D01*
X131833216Y-95965800D01*
X131623751Y-96007465D01*
X131426439Y-96089194D01*
X131248863Y-96207847D01*
X131097847Y-96358863D01*
X130979194Y-96536439D01*
X130897465Y-96733751D01*
X130855800Y-96943216D01*
X130484200Y-96943216D01*
X130442535Y-96733751D01*
X130360806Y-96536439D01*
X130242153Y-96358863D01*
X130091137Y-96207847D01*
X129913561Y-96089194D01*
X129716249Y-96007465D01*
X129506784Y-95965800D01*
X129293216Y-95965800D01*
X129083751Y-96007465D01*
X128886439Y-96089194D01*
X128708863Y-96207847D01*
X128557847Y-96358863D01*
X128439194Y-96536439D01*
X128357465Y-96733751D01*
X128315800Y-96943216D01*
X127944200Y-96943216D01*
X127902535Y-96733751D01*
X127820806Y-96536439D01*
X127702153Y-96358863D01*
X127551137Y-96207847D01*
X127373561Y-96089194D01*
X127176249Y-96007465D01*
X126966784Y-95965800D01*
X126753216Y-95965800D01*
X126543751Y-96007465D01*
X126346439Y-96089194D01*
X126168863Y-96207847D01*
X126017847Y-96358863D01*
X125899194Y-96536439D01*
X125817465Y-96733751D01*
X125775800Y-96943216D01*
X125404200Y-96943216D01*
X125362535Y-96733751D01*
X125280806Y-96536439D01*
X125162153Y-96358863D01*
X125011137Y-96207847D01*
X124833561Y-96089194D01*
X124636249Y-96007465D01*
X124426784Y-95965800D01*
X124213216Y-95965800D01*
X124003751Y-96007465D01*
X123806439Y-96089194D01*
X123628863Y-96207847D01*
X123477847Y-96358863D01*
X123359194Y-96536439D01*
X123277465Y-96733751D01*
X123235800Y-96943216D01*
X122864200Y-96943216D01*
X122822535Y-96733751D01*
X122740806Y-96536439D01*
X122622153Y-96358863D01*
X122471137Y-96207847D01*
X122293561Y-96089194D01*
X122096249Y-96007465D01*
X121886784Y-95965800D01*
X121673216Y-95965800D01*
X121463751Y-96007465D01*
X121266439Y-96089194D01*
X121088863Y-96207847D01*
X120937847Y-96358863D01*
X120819194Y-96536439D01*
X120737465Y-96733751D01*
X120695800Y-96943216D01*
X120324200Y-96943216D01*
X120282535Y-96733751D01*
X120200806Y-96536439D01*
X120082153Y-96358863D01*
X119931137Y-96207847D01*
X119753561Y-96089194D01*
X119556249Y-96007465D01*
X119346784Y-95965800D01*
X119133216Y-95965800D01*
X118923751Y-96007465D01*
X118726439Y-96089194D01*
X118548863Y-96207847D01*
X118397847Y-96358863D01*
X118279194Y-96536439D01*
X118197465Y-96733751D01*
X118155800Y-96943216D01*
X117784200Y-96943216D01*
X117742535Y-96733751D01*
X117660806Y-96536439D01*
X117542153Y-96358863D01*
X117391137Y-96207847D01*
X117213561Y-96089194D01*
X117016249Y-96007465D01*
X116806784Y-95965800D01*
X116593216Y-95965800D01*
X116383751Y-96007465D01*
X116186439Y-96089194D01*
X116008863Y-96207847D01*
X115857847Y-96358863D01*
X115739194Y-96536439D01*
X115657465Y-96733751D01*
X115615800Y-96943216D01*
X115244200Y-96943216D01*
X115202535Y-96733751D01*
X115120806Y-96536439D01*
X115002153Y-96358863D01*
X114851137Y-96207847D01*
X114673561Y-96089194D01*
X114476249Y-96007465D01*
X114266784Y-95965800D01*
X114053216Y-95965800D01*
X113843751Y-96007465D01*
X113646439Y-96089194D01*
X113468863Y-96207847D01*
X113317847Y-96358863D01*
X113199194Y-96536439D01*
X113117465Y-96733751D01*
X113075800Y-96943216D01*
X112704200Y-96943216D01*
X112662535Y-96733751D01*
X112580806Y-96536439D01*
X112462153Y-96358863D01*
X112311137Y-96207847D01*
X112133561Y-96089194D01*
X111936249Y-96007465D01*
X111726784Y-95965800D01*
X111513216Y-95965800D01*
X111303751Y-96007465D01*
X111106439Y-96089194D01*
X110928863Y-96207847D01*
X110777847Y-96358863D01*
X110659194Y-96536439D01*
X110577465Y-96733751D01*
X110535800Y-96943216D01*
X110164200Y-96943216D01*
X110122535Y-96733751D01*
X110040806Y-96536439D01*
X109922153Y-96358863D01*
X109771137Y-96207847D01*
X109593561Y-96089194D01*
X109396249Y-96007465D01*
X109186784Y-95965800D01*
X108973216Y-95965800D01*
X108763751Y-96007465D01*
X108566439Y-96089194D01*
X108388863Y-96207847D01*
X108237847Y-96358863D01*
X108119194Y-96536439D01*
X108037465Y-96733751D01*
X107995800Y-96943216D01*
X107624200Y-96943216D01*
X107582535Y-96733751D01*
X107500806Y-96536439D01*
X107382153Y-96358863D01*
X107231137Y-96207847D01*
X107053561Y-96089194D01*
X106856249Y-96007465D01*
X106646784Y-95965800D01*
X106433216Y-95965800D01*
X106223751Y-96007465D01*
X106026439Y-96089194D01*
X105848863Y-96207847D01*
X105697847Y-96358863D01*
X105579194Y-96536439D01*
X105497465Y-96733751D01*
X105455800Y-96943216D01*
X104105786Y-96943216D01*
X104146586Y-96844717D01*
X104203200Y-96560098D01*
X104203200Y-96269902D01*
X104146586Y-95985283D01*
X104035533Y-95717178D01*
X103938769Y-95572360D01*
X146341800Y-95572360D01*
X146341800Y-95987640D01*
X146422817Y-96394939D01*
X146581737Y-96778607D01*
X146812454Y-97123899D01*
X147106101Y-97417546D01*
X147451393Y-97648263D01*
X147835061Y-97807183D01*
X148242360Y-97888200D01*
X148657640Y-97888200D01*
X149064939Y-97807183D01*
X149448607Y-97648263D01*
X149793899Y-97417546D01*
X150087546Y-97123899D01*
X150318263Y-96778607D01*
X150477183Y-96394939D01*
X150558200Y-95987640D01*
X150558200Y-95572360D01*
X150477183Y-95165061D01*
X150318263Y-94781393D01*
X150087546Y-94436101D01*
X149793899Y-94142454D01*
X149448607Y-93911737D01*
X149064939Y-93752817D01*
X148657640Y-93671800D01*
X148242360Y-93671800D01*
X147835061Y-93752817D01*
X147451393Y-93911737D01*
X147106101Y-94142454D01*
X146812454Y-94436101D01*
X146581737Y-94781393D01*
X146422817Y-95165061D01*
X146341800Y-95572360D01*
X103938769Y-95572360D01*
X103874309Y-95475890D01*
X103669110Y-95270691D01*
X103427822Y-95109467D01*
X103159717Y-94998414D01*
X102875098Y-94941800D01*
X102584902Y-94941800D01*
X102300283Y-94998414D01*
X102032178Y-95109467D01*
X101790890Y-95270691D01*
X101585691Y-95475890D01*
X101424467Y-95717178D01*
X101313414Y-95985283D01*
X101256800Y-96269902D01*
X99127000Y-96269902D01*
X99127000Y-81183529D01*
X163842551Y-81183529D01*
X163872997Y-81370345D01*
X164069782Y-81423651D01*
X164273186Y-81437541D01*
X164475391Y-81411483D01*
X164611003Y-81370345D01*
X164641449Y-81183529D01*
X164242000Y-80784080D01*
X163842551Y-81183529D01*
X99127000Y-81183529D01*
X99127000Y-77219902D01*
X101256800Y-77219902D01*
X101256800Y-77510098D01*
X101313414Y-77794717D01*
X101424467Y-78062822D01*
X101585691Y-78304110D01*
X101790890Y-78509309D01*
X102032178Y-78670533D01*
X102300283Y-78781586D01*
X102584902Y-78838200D01*
X102875098Y-78838200D01*
X103159717Y-78781586D01*
X103427822Y-78670533D01*
X103669110Y-78509309D01*
X103874309Y-78304110D01*
X104035533Y-78062822D01*
X104146586Y-77794717D01*
X104203200Y-77510098D01*
X104203200Y-77219902D01*
X104146586Y-76935283D01*
X104035533Y-76667178D01*
X104006159Y-76623216D01*
X105455800Y-76623216D01*
X105455800Y-76836784D01*
X105497465Y-77046249D01*
X105579194Y-77243561D01*
X105697847Y-77421137D01*
X105848863Y-77572153D01*
X106026439Y-77690806D01*
X106223751Y-77772535D01*
X106433216Y-77814200D01*
X106646784Y-77814200D01*
X106856249Y-77772535D01*
X107053561Y-77690806D01*
X107231137Y-77572153D01*
X107382153Y-77421137D01*
X107500806Y-77243561D01*
X107582535Y-77046249D01*
X107624200Y-76836784D01*
X107624200Y-76623216D01*
X107995800Y-76623216D01*
X107995800Y-76836784D01*
X108037465Y-77046249D01*
X108119194Y-77243561D01*
X108237847Y-77421137D01*
X108388863Y-77572153D01*
X108566439Y-77690806D01*
X108763751Y-77772535D01*
X108973216Y-77814200D01*
X109186784Y-77814200D01*
X109396249Y-77772535D01*
X109593561Y-77690806D01*
X109771137Y-77572153D01*
X109922153Y-77421137D01*
X110040806Y-77243561D01*
X110122535Y-77046249D01*
X110164200Y-76836784D01*
X110164200Y-76623216D01*
X110535800Y-76623216D01*
X110535800Y-76836784D01*
X110577465Y-77046249D01*
X110659194Y-77243561D01*
X110777847Y-77421137D01*
X110928863Y-77572153D01*
X111106439Y-77690806D01*
X111303751Y-77772535D01*
X111513216Y-77814200D01*
X111726784Y-77814200D01*
X111936249Y-77772535D01*
X112133561Y-77690806D01*
X112311137Y-77572153D01*
X112462153Y-77421137D01*
X112580806Y-77243561D01*
X112662535Y-77046249D01*
X112704200Y-76836784D01*
X112704200Y-76623216D01*
X113075800Y-76623216D01*
X113075800Y-76836784D01*
X113117465Y-77046249D01*
X113199194Y-77243561D01*
X113317847Y-77421137D01*
X113468863Y-77572153D01*
X113646439Y-77690806D01*
X113843751Y-77772535D01*
X114053216Y-77814200D01*
X114266784Y-77814200D01*
X114476249Y-77772535D01*
X114673561Y-77690806D01*
X114851137Y-77572153D01*
X115002153Y-77421137D01*
X115120806Y-77243561D01*
X115202535Y-77046249D01*
X115244200Y-76836784D01*
X115244200Y-76623216D01*
X115615800Y-76623216D01*
X115615800Y-76836784D01*
X115657465Y-77046249D01*
X115739194Y-77243561D01*
X115857847Y-77421137D01*
X116008863Y-77572153D01*
X116186439Y-77690806D01*
X116383751Y-77772535D01*
X116593216Y-77814200D01*
X116806784Y-77814200D01*
X117016249Y-77772535D01*
X117213561Y-77690806D01*
X117391137Y-77572153D01*
X117542153Y-77421137D01*
X117660806Y-77243561D01*
X117742535Y-77046249D01*
X117784200Y-76836784D01*
X117784200Y-76623216D01*
X118155800Y-76623216D01*
X118155800Y-76836784D01*
X118197465Y-77046249D01*
X118279194Y-77243561D01*
X118397847Y-77421137D01*
X118548863Y-77572153D01*
X118726439Y-77690806D01*
X118923751Y-77772535D01*
X119133216Y-77814200D01*
X119346784Y-77814200D01*
X119556249Y-77772535D01*
X119753561Y-77690806D01*
X119931137Y-77572153D01*
X120082153Y-77421137D01*
X120200806Y-77243561D01*
X120282535Y-77046249D01*
X120324200Y-76836784D01*
X120324200Y-76623216D01*
X120695800Y-76623216D01*
X120695800Y-76836784D01*
X120737465Y-77046249D01*
X120819194Y-77243561D01*
X120937847Y-77421137D01*
X121088863Y-77572153D01*
X121266439Y-77690806D01*
X121463751Y-77772535D01*
X121673216Y-77814200D01*
X121886784Y-77814200D01*
X122096249Y-77772535D01*
X122293561Y-77690806D01*
X122471137Y-77572153D01*
X122622153Y-77421137D01*
X122740806Y-77243561D01*
X122822535Y-77046249D01*
X122864200Y-76836784D01*
X122864200Y-76623216D01*
X123235800Y-76623216D01*
X123235800Y-76836784D01*
X123277465Y-77046249D01*
X123359194Y-77243561D01*
X123477847Y-77421137D01*
X123628863Y-77572153D01*
X123806439Y-77690806D01*
X124003751Y-77772535D01*
X124213216Y-77814200D01*
X124426784Y-77814200D01*
X124636249Y-77772535D01*
X124833561Y-77690806D01*
X125011137Y-77572153D01*
X125162153Y-77421137D01*
X125280806Y-77243561D01*
X125362535Y-77046249D01*
X125404200Y-76836784D01*
X125404200Y-76623216D01*
X125775800Y-76623216D01*
X125775800Y-76836784D01*
X125817465Y-77046249D01*
X125899194Y-77243561D01*
X126017847Y-77421137D01*
X126168863Y-77572153D01*
X126346439Y-77690806D01*
X126543751Y-77772535D01*
X126753216Y-77814200D01*
X126966784Y-77814200D01*
X127176249Y-77772535D01*
X127373561Y-77690806D01*
X127551137Y-77572153D01*
X127702153Y-77421137D01*
X127820806Y-77243561D01*
X127902535Y-77046249D01*
X127944200Y-76836784D01*
X127944200Y-76623216D01*
X128315800Y-76623216D01*
X128315800Y-76836784D01*
X128357465Y-77046249D01*
X128439194Y-77243561D01*
X128557847Y-77421137D01*
X128708863Y-77572153D01*
X128886439Y-77690806D01*
X129083751Y-77772535D01*
X129293216Y-77814200D01*
X129506784Y-77814200D01*
X129716249Y-77772535D01*
X129913561Y-77690806D01*
X130091137Y-77572153D01*
X130242153Y-77421137D01*
X130360806Y-77243561D01*
X130442535Y-77046249D01*
X130484200Y-76836784D01*
X130484200Y-76623216D01*
X130855800Y-76623216D01*
X130855800Y-76836784D01*
X130897465Y-77046249D01*
X130979194Y-77243561D01*
X131097847Y-77421137D01*
X131248863Y-77572153D01*
X131426439Y-77690806D01*
X131623751Y-77772535D01*
X131833216Y-77814200D01*
X132046784Y-77814200D01*
X132256249Y-77772535D01*
X132453561Y-77690806D01*
X132631137Y-77572153D01*
X132782153Y-77421137D01*
X132900806Y-77243561D01*
X132982535Y-77046249D01*
X133024200Y-76836784D01*
X133024200Y-76623216D01*
X133395800Y-76623216D01*
X133395800Y-76836784D01*
X133437465Y-77046249D01*
X133519194Y-77243561D01*
X133637847Y-77421137D01*
X133788863Y-77572153D01*
X133966439Y-77690806D01*
X134163751Y-77772535D01*
X134373216Y-77814200D01*
X134586784Y-77814200D01*
X134778110Y-77776143D01*
X136359938Y-77776143D01*
X136436323Y-77997817D01*
X136694877Y-78087326D01*
X136965925Y-78124674D01*
X137239052Y-78108425D01*
X137503761Y-78039205D01*
X137603677Y-77997817D01*
X137680062Y-77776143D01*
X137020000Y-77116080D01*
X136359938Y-77776143D01*
X134778110Y-77776143D01*
X134796249Y-77772535D01*
X134993561Y-77690806D01*
X135171137Y-77572153D01*
X135322153Y-77421137D01*
X135440806Y-77243561D01*
X135522535Y-77046249D01*
X135564200Y-76836784D01*
X135564200Y-76675925D01*
X135625326Y-76675925D01*
X135641575Y-76949052D01*
X135710795Y-77213761D01*
X135752183Y-77313677D01*
X135973857Y-77390062D01*
X136633920Y-76730000D01*
X137406080Y-76730000D01*
X138066143Y-77390062D01*
X138287817Y-77313677D01*
X138377326Y-77055123D01*
X138414674Y-76784075D01*
X138405105Y-76623216D01*
X138475800Y-76623216D01*
X138475800Y-76836784D01*
X138517465Y-77046249D01*
X138599194Y-77243561D01*
X138717847Y-77421137D01*
X138868863Y-77572153D01*
X139046439Y-77690806D01*
X139243751Y-77772535D01*
X139453216Y-77814200D01*
X139666784Y-77814200D01*
X139876249Y-77772535D01*
X140073561Y-77690806D01*
X140251137Y-77572153D01*
X140402153Y-77421137D01*
X140520806Y-77243561D01*
X140602535Y-77046249D01*
X140644200Y-76836784D01*
X140644200Y-76623216D01*
X141015800Y-76623216D01*
X141015800Y-76836784D01*
X141057465Y-77046249D01*
X141139194Y-77243561D01*
X141257847Y-77421137D01*
X141408863Y-77572153D01*
X141586439Y-77690806D01*
X141783751Y-77772535D01*
X141993216Y-77814200D01*
X142206784Y-77814200D01*
X142416249Y-77772535D01*
X142613561Y-77690806D01*
X142791137Y-77572153D01*
X142942153Y-77421137D01*
X143060806Y-77243561D01*
X143142535Y-77046249D01*
X143184200Y-76836784D01*
X143184200Y-76623216D01*
X143142535Y-76413751D01*
X143060806Y-76216439D01*
X142942153Y-76038863D01*
X142879290Y-75976000D01*
X143554203Y-75976000D01*
X143554203Y-77484000D01*
X143560578Y-77548730D01*
X143579460Y-77610973D01*
X143610121Y-77668337D01*
X143651384Y-77718616D01*
X143701663Y-77759879D01*
X143759027Y-77790540D01*
X143821270Y-77809422D01*
X143886000Y-77815797D01*
X145394000Y-77815797D01*
X145458730Y-77809422D01*
X145514973Y-77792360D01*
X146341800Y-77792360D01*
X146341800Y-78207640D01*
X146422817Y-78614939D01*
X146581737Y-78998607D01*
X146812454Y-79343899D01*
X147106101Y-79637546D01*
X147451393Y-79868263D01*
X147835061Y-80027183D01*
X148242360Y-80108200D01*
X148657640Y-80108200D01*
X149064939Y-80027183D01*
X149448607Y-79868263D01*
X149793899Y-79637546D01*
X150087546Y-79343899D01*
X150318263Y-78998607D01*
X150477183Y-78614939D01*
X150514131Y-78429186D01*
X163202459Y-78429186D01*
X163228517Y-78631391D01*
X163269655Y-78767003D01*
X163384377Y-78785700D01*
X163313997Y-78856080D01*
X163355917Y-78898000D01*
X163313997Y-78939920D01*
X163384377Y-79010300D01*
X163269655Y-79028997D01*
X163216349Y-79225782D01*
X163202459Y-79429186D01*
X163228517Y-79631391D01*
X163269655Y-79767003D01*
X163384377Y-79785700D01*
X163313997Y-79856080D01*
X163355917Y-79898000D01*
X163313997Y-79939920D01*
X163384377Y-80010300D01*
X163269655Y-80028997D01*
X163216349Y-80225782D01*
X163202459Y-80429186D01*
X163228517Y-80631391D01*
X163269655Y-80767003D01*
X163456471Y-80797449D01*
X163855920Y-80398000D01*
X163841778Y-80383858D01*
X163870516Y-80355119D01*
X163872997Y-80370345D01*
X164069782Y-80423651D01*
X164273186Y-80437541D01*
X164475391Y-80411483D01*
X164611003Y-80370345D01*
X164613484Y-80355119D01*
X164642223Y-80383858D01*
X164628080Y-80398000D01*
X165027529Y-80797449D01*
X165214345Y-80767003D01*
X165267651Y-80570218D01*
X165281541Y-80366814D01*
X165255483Y-80164609D01*
X165214345Y-80028997D01*
X165099623Y-80010300D01*
X165170003Y-79939920D01*
X165128083Y-79898000D01*
X165170003Y-79856080D01*
X165099623Y-79785700D01*
X165214345Y-79767003D01*
X165267651Y-79570218D01*
X165281541Y-79366814D01*
X165255483Y-79164609D01*
X165214345Y-79028997D01*
X165099623Y-79010300D01*
X165170003Y-78939920D01*
X165128083Y-78898000D01*
X165170003Y-78856080D01*
X165099623Y-78785700D01*
X165214345Y-78767003D01*
X165267651Y-78570218D01*
X165281541Y-78366814D01*
X165255483Y-78164609D01*
X165214345Y-78028997D01*
X165027529Y-77998551D01*
X164628080Y-78398000D01*
X164642223Y-78412143D01*
X164613484Y-78440881D01*
X164611003Y-78425655D01*
X164414218Y-78372349D01*
X164210814Y-78358459D01*
X164008609Y-78384517D01*
X163872997Y-78425655D01*
X163870516Y-78440881D01*
X163841778Y-78412143D01*
X163855920Y-78398000D01*
X163456471Y-77998551D01*
X163269655Y-78028997D01*
X163216349Y-78225782D01*
X163202459Y-78429186D01*
X150514131Y-78429186D01*
X150558200Y-78207640D01*
X150558200Y-77792360D01*
X150522418Y-77612471D01*
X163842551Y-77612471D01*
X164242000Y-78011920D01*
X164641449Y-77612471D01*
X164611003Y-77425655D01*
X164414218Y-77372349D01*
X164210814Y-77358459D01*
X164008609Y-77384517D01*
X163872997Y-77425655D01*
X163842551Y-77612471D01*
X150522418Y-77612471D01*
X150477183Y-77385061D01*
X150318263Y-77001393D01*
X150087546Y-76656101D01*
X149793899Y-76362454D01*
X149448607Y-76131737D01*
X149064939Y-75972817D01*
X148657640Y-75891800D01*
X148242360Y-75891800D01*
X147835061Y-75972817D01*
X147451393Y-76131737D01*
X147106101Y-76362454D01*
X146812454Y-76656101D01*
X146581737Y-77001393D01*
X146422817Y-77385061D01*
X146341800Y-77792360D01*
X145514973Y-77792360D01*
X145520973Y-77790540D01*
X145578337Y-77759879D01*
X145628616Y-77718616D01*
X145669879Y-77668337D01*
X145700540Y-77610973D01*
X145719422Y-77548730D01*
X145725797Y-77484000D01*
X145725797Y-75976000D01*
X145719422Y-75911270D01*
X145700540Y-75849027D01*
X145669879Y-75791663D01*
X145628616Y-75741384D01*
X145578337Y-75700121D01*
X145520973Y-75669460D01*
X145458730Y-75650578D01*
X145394000Y-75644203D01*
X143886000Y-75644203D01*
X143821270Y-75650578D01*
X143759027Y-75669460D01*
X143701663Y-75700121D01*
X143651384Y-75741384D01*
X143610121Y-75791663D01*
X143579460Y-75849027D01*
X143560578Y-75911270D01*
X143554203Y-75976000D01*
X142879290Y-75976000D01*
X142791137Y-75887847D01*
X142613561Y-75769194D01*
X142416249Y-75687465D01*
X142206784Y-75645800D01*
X141993216Y-75645800D01*
X141783751Y-75687465D01*
X141586439Y-75769194D01*
X141408863Y-75887847D01*
X141257847Y-76038863D01*
X141139194Y-76216439D01*
X141057465Y-76413751D01*
X141015800Y-76623216D01*
X140644200Y-76623216D01*
X140602535Y-76413751D01*
X140520806Y-76216439D01*
X140402153Y-76038863D01*
X140251137Y-75887847D01*
X140073561Y-75769194D01*
X139876249Y-75687465D01*
X139666784Y-75645800D01*
X139453216Y-75645800D01*
X139243751Y-75687465D01*
X139046439Y-75769194D01*
X138868863Y-75887847D01*
X138717847Y-76038863D01*
X138599194Y-76216439D01*
X138517465Y-76413751D01*
X138475800Y-76623216D01*
X138405105Y-76623216D01*
X138398425Y-76510948D01*
X138329205Y-76246239D01*
X138287817Y-76146323D01*
X138066143Y-76069938D01*
X137406080Y-76730000D01*
X136633920Y-76730000D01*
X135973857Y-76069938D01*
X135752183Y-76146323D01*
X135662674Y-76404877D01*
X135625326Y-76675925D01*
X135564200Y-76675925D01*
X135564200Y-76623216D01*
X135522535Y-76413751D01*
X135440806Y-76216439D01*
X135322153Y-76038863D01*
X135171137Y-75887847D01*
X134993561Y-75769194D01*
X134796249Y-75687465D01*
X134778111Y-75683857D01*
X136359938Y-75683857D01*
X137020000Y-76343920D01*
X137680062Y-75683857D01*
X137603677Y-75462183D01*
X137345123Y-75372674D01*
X137074075Y-75335326D01*
X136800948Y-75351575D01*
X136536239Y-75420795D01*
X136436323Y-75462183D01*
X136359938Y-75683857D01*
X134778111Y-75683857D01*
X134586784Y-75645800D01*
X134373216Y-75645800D01*
X134163751Y-75687465D01*
X133966439Y-75769194D01*
X133788863Y-75887847D01*
X133637847Y-76038863D01*
X133519194Y-76216439D01*
X133437465Y-76413751D01*
X133395800Y-76623216D01*
X133024200Y-76623216D01*
X132982535Y-76413751D01*
X132900806Y-76216439D01*
X132782153Y-76038863D01*
X132631137Y-75887847D01*
X132453561Y-75769194D01*
X132256249Y-75687465D01*
X132046784Y-75645800D01*
X131833216Y-75645800D01*
X131623751Y-75687465D01*
X131426439Y-75769194D01*
X131248863Y-75887847D01*
X131097847Y-76038863D01*
X130979194Y-76216439D01*
X130897465Y-76413751D01*
X130855800Y-76623216D01*
X130484200Y-76623216D01*
X130442535Y-76413751D01*
X130360806Y-76216439D01*
X130242153Y-76038863D01*
X130091137Y-75887847D01*
X129913561Y-75769194D01*
X129716249Y-75687465D01*
X129506784Y-75645800D01*
X129293216Y-75645800D01*
X129083751Y-75687465D01*
X128886439Y-75769194D01*
X128708863Y-75887847D01*
X128557847Y-76038863D01*
X128439194Y-76216439D01*
X128357465Y-76413751D01*
X128315800Y-76623216D01*
X127944200Y-76623216D01*
X127902535Y-76413751D01*
X127820806Y-76216439D01*
X127702153Y-76038863D01*
X127551137Y-75887847D01*
X127373561Y-75769194D01*
X127176249Y-75687465D01*
X126966784Y-75645800D01*
X126753216Y-75645800D01*
X126543751Y-75687465D01*
X126346439Y-75769194D01*
X126168863Y-75887847D01*
X126017847Y-76038863D01*
X125899194Y-76216439D01*
X125817465Y-76413751D01*
X125775800Y-76623216D01*
X125404200Y-76623216D01*
X125362535Y-76413751D01*
X125280806Y-76216439D01*
X125162153Y-76038863D01*
X125011137Y-75887847D01*
X124833561Y-75769194D01*
X124636249Y-75687465D01*
X124426784Y-75645800D01*
X124213216Y-75645800D01*
X124003751Y-75687465D01*
X123806439Y-75769194D01*
X123628863Y-75887847D01*
X123477847Y-76038863D01*
X123359194Y-76216439D01*
X123277465Y-76413751D01*
X123235800Y-76623216D01*
X122864200Y-76623216D01*
X122822535Y-76413751D01*
X122740806Y-76216439D01*
X122622153Y-76038863D01*
X122471137Y-75887847D01*
X122293561Y-75769194D01*
X122096249Y-75687465D01*
X121886784Y-75645800D01*
X121673216Y-75645800D01*
X121463751Y-75687465D01*
X121266439Y-75769194D01*
X121088863Y-75887847D01*
X120937847Y-76038863D01*
X120819194Y-76216439D01*
X120737465Y-76413751D01*
X120695800Y-76623216D01*
X120324200Y-76623216D01*
X120282535Y-76413751D01*
X120200806Y-76216439D01*
X120082153Y-76038863D01*
X119931137Y-75887847D01*
X119753561Y-75769194D01*
X119556249Y-75687465D01*
X119346784Y-75645800D01*
X119133216Y-75645800D01*
X118923751Y-75687465D01*
X118726439Y-75769194D01*
X118548863Y-75887847D01*
X118397847Y-76038863D01*
X118279194Y-76216439D01*
X118197465Y-76413751D01*
X118155800Y-76623216D01*
X117784200Y-76623216D01*
X117742535Y-76413751D01*
X117660806Y-76216439D01*
X117542153Y-76038863D01*
X117391137Y-75887847D01*
X117213561Y-75769194D01*
X117016249Y-75687465D01*
X116806784Y-75645800D01*
X116593216Y-75645800D01*
X116383751Y-75687465D01*
X116186439Y-75769194D01*
X116008863Y-75887847D01*
X115857847Y-76038863D01*
X115739194Y-76216439D01*
X115657465Y-76413751D01*
X115615800Y-76623216D01*
X115244200Y-76623216D01*
X115202535Y-76413751D01*
X115120806Y-76216439D01*
X115002153Y-76038863D01*
X114851137Y-75887847D01*
X114673561Y-75769194D01*
X114476249Y-75687465D01*
X114266784Y-75645800D01*
X114053216Y-75645800D01*
X113843751Y-75687465D01*
X113646439Y-75769194D01*
X113468863Y-75887847D01*
X113317847Y-76038863D01*
X113199194Y-76216439D01*
X113117465Y-76413751D01*
X113075800Y-76623216D01*
X112704200Y-76623216D01*
X112662535Y-76413751D01*
X112580806Y-76216439D01*
X112462153Y-76038863D01*
X112311137Y-75887847D01*
X112133561Y-75769194D01*
X111936249Y-75687465D01*
X111726784Y-75645800D01*
X111513216Y-75645800D01*
X111303751Y-75687465D01*
X111106439Y-75769194D01*
X110928863Y-75887847D01*
X110777847Y-76038863D01*
X110659194Y-76216439D01*
X110577465Y-76413751D01*
X110535800Y-76623216D01*
X110164200Y-76623216D01*
X110122535Y-76413751D01*
X110040806Y-76216439D01*
X109922153Y-76038863D01*
X109771137Y-75887847D01*
X109593561Y-75769194D01*
X109396249Y-75687465D01*
X109186784Y-75645800D01*
X108973216Y-75645800D01*
X108763751Y-75687465D01*
X108566439Y-75769194D01*
X108388863Y-75887847D01*
X108237847Y-76038863D01*
X108119194Y-76216439D01*
X108037465Y-76413751D01*
X107995800Y-76623216D01*
X107624200Y-76623216D01*
X107582535Y-76413751D01*
X107500806Y-76216439D01*
X107382153Y-76038863D01*
X107231137Y-75887847D01*
X107053561Y-75769194D01*
X106856249Y-75687465D01*
X106646784Y-75645800D01*
X106433216Y-75645800D01*
X106223751Y-75687465D01*
X106026439Y-75769194D01*
X105848863Y-75887847D01*
X105697847Y-76038863D01*
X105579194Y-76216439D01*
X105497465Y-76413751D01*
X105455800Y-76623216D01*
X104006159Y-76623216D01*
X103874309Y-76425890D01*
X103669110Y-76220691D01*
X103427822Y-76059467D01*
X103159717Y-75948414D01*
X102875098Y-75891800D01*
X102584902Y-75891800D01*
X102300283Y-75948414D01*
X102032178Y-76059467D01*
X101790890Y-76220691D01*
X101585691Y-76425890D01*
X101424467Y-76667178D01*
X101313414Y-76935283D01*
X101256800Y-77219902D01*
X99127000Y-77219902D01*
X99127000Y-73570697D01*
X99291093Y-72862752D01*
X99292628Y-72852721D01*
X99295204Y-72842902D01*
X99300965Y-72798242D01*
X99350713Y-72144248D01*
X175873000Y-72144248D01*
X175873000Y-75500000D01*
G36*
X164642223Y-79383858D02*
G01*
X164628080Y-79398000D01*
X164642223Y-79412143D01*
X164613484Y-79440881D01*
X164611003Y-79425655D01*
X164514684Y-79399564D01*
X164611003Y-79370345D01*
X164613484Y-79355119D01*
X164642223Y-79383858D01*
X164642223Y-79383858D01*
G37*
X164642223Y-79383858D02*
X164628080Y-79398000D01*
X164642223Y-79412143D01*
X164613484Y-79440881D01*
X164611003Y-79425655D01*
X164514684Y-79399564D01*
X164611003Y-79370345D01*
X164613484Y-79355119D01*
X164642223Y-79383858D01*
G36*
X163872997Y-79370345D02*
G01*
X163969316Y-79396436D01*
X163872997Y-79425655D01*
X163870516Y-79440881D01*
X163841778Y-79412143D01*
X163855920Y-79398000D01*
X163841778Y-79383858D01*
X163870516Y-79355119D01*
X163872997Y-79370345D01*
X163872997Y-79370345D01*
G37*
X163872997Y-79370345D02*
X163969316Y-79396436D01*
X163872997Y-79425655D01*
X163870516Y-79440881D01*
X163841778Y-79412143D01*
X163855920Y-79398000D01*
X163841778Y-79383858D01*
X163870516Y-79355119D01*
X163872997Y-79370345D01*
G36*
X165481000Y-81661000D02*
G01*
X163195000Y-81661000D01*
X163195000Y-76835000D01*
X165481000Y-76835000D01*
X165481000Y-81661000D01*
X165481000Y-81661000D01*
G37*
X165481000Y-81661000D02*
X163195000Y-81661000D01*
X163195000Y-76835000D01*
X165481000Y-76835000D01*
X165481000Y-81661000D01*
M02*
