G04 #@! TF.GenerationSoftware,KiCad,Pcbnew,5.1.4*
G04 #@! TF.CreationDate,2019-08-27T14:39:49-04:00*
G04 #@! TF.ProjectId,siot-gateway-particle,73696f74-2d67-4617-9465-7761792d7061,rev?*
G04 #@! TF.SameCoordinates,Original*
G04 #@! TF.FileFunction,Other,Fab,Top*
%FSLAX46Y46*%
G04 Gerber Fmt 4.6, Leading zero omitted, Abs format (unit mm)*
G04 Created by KiCad (PCBNEW 5.1.4) date 2019-08-27 14:39:49*
%MOMM*%
%LPD*%
G04 APERTURE LIST*
%ADD10C,0.100000*%
%ADD11C,0.150000*%
%ADD12C,0.060000*%
%ADD13C,0.090000*%
%ADD14C,0.120000*%
%ADD15C,0.075000*%
G04 APERTURE END LIST*
D10*
X120087500Y-74100000D02*
X118487500Y-74100000D01*
X120087500Y-73300000D02*
X120087500Y-74100000D01*
X118487500Y-73300000D02*
X120087500Y-73300000D01*
X118487500Y-74100000D02*
X118487500Y-73300000D01*
X132100000Y-73150000D02*
X133700000Y-73150000D01*
X132100000Y-73950000D02*
X132100000Y-73150000D01*
X133700000Y-73950000D02*
X132100000Y-73950000D01*
X133700000Y-73150000D02*
X133700000Y-73950000D01*
X128585000Y-72080000D02*
X129220000Y-72715000D01*
X121600000Y-72080000D02*
X128585000Y-72080000D01*
X121600000Y-74620000D02*
X121600000Y-72080000D01*
X129220000Y-74620000D02*
X121600000Y-74620000D01*
X129220000Y-72715000D02*
X129220000Y-74620000D01*
X151000000Y-113760000D02*
X150400000Y-113160000D01*
X164400000Y-113760000D02*
X151000000Y-113760000D01*
X164400000Y-109760000D02*
X164400000Y-113760000D01*
X150400000Y-109760000D02*
X164400000Y-109760000D01*
X150400000Y-113160000D02*
X150400000Y-109760000D01*
X120600000Y-113760000D02*
X120000000Y-113160000D01*
X134000000Y-113760000D02*
X120600000Y-113760000D01*
X134000000Y-109760000D02*
X134000000Y-113760000D01*
X120000000Y-109760000D02*
X134000000Y-109760000D01*
X120000000Y-113160000D02*
X120000000Y-109760000D01*
X159550560Y-107101020D02*
X160701180Y-106300920D01*
X159550560Y-107101020D02*
X160701180Y-107850320D01*
X160701180Y-107850320D02*
X160701180Y-106300920D01*
X159550560Y-106300920D02*
X159550560Y-107901120D01*
X160701180Y-107101020D02*
X161699400Y-107101020D01*
X159550560Y-107101020D02*
X158648860Y-107101020D01*
X162500000Y-105100000D02*
X157900000Y-105100000D01*
X162500000Y-105100000D02*
X162500000Y-109100000D01*
X157900000Y-109100000D02*
X157900000Y-105100000D01*
X162500000Y-109100000D02*
X157900000Y-109100000D01*
X129550560Y-107101020D02*
X130701180Y-106300920D01*
X129550560Y-107101020D02*
X130701180Y-107850320D01*
X130701180Y-107850320D02*
X130701180Y-106300920D01*
X129550560Y-106300920D02*
X129550560Y-107901120D01*
X130701180Y-107101020D02*
X131699400Y-107101020D01*
X129550560Y-107101020D02*
X128648860Y-107101020D01*
X132500000Y-105100000D02*
X127900000Y-105100000D01*
X132500000Y-105100000D02*
X132500000Y-109100000D01*
X127900000Y-109100000D02*
X127900000Y-105100000D01*
X132500000Y-109100000D02*
X127900000Y-109100000D01*
X156848000Y-75068000D02*
X154048000Y-75068000D01*
X154048000Y-75068000D02*
X154048000Y-73268000D01*
X154048000Y-73268000D02*
X156848000Y-73268000D01*
X156848000Y-73268000D02*
X156848000Y-75068000D01*
X156248000Y-74168000D02*
X155948000Y-74168000D01*
X155948000Y-74168000D02*
X155948000Y-74668000D01*
X155948000Y-74168000D02*
X155948000Y-73668000D01*
X155948000Y-74168000D02*
X155148000Y-73668000D01*
X155148000Y-73668000D02*
X155148000Y-74668000D01*
X155148000Y-74668000D02*
X155948000Y-74168000D01*
X155148000Y-74168000D02*
X154748000Y-74168000D01*
D11*
X165742000Y-80398000D02*
X164742000Y-81398000D01*
X165742000Y-77398000D02*
X165742000Y-80398000D01*
X162742000Y-77398000D02*
X165742000Y-77398000D01*
X162742000Y-81398000D02*
X162742000Y-77398000D01*
X164742000Y-81398000D02*
X162742000Y-81398000D01*
D10*
X161660000Y-85660000D02*
X158460000Y-85660000D01*
X161660000Y-83160000D02*
X161660000Y-85660000D01*
X158460000Y-83160000D02*
X161660000Y-83160000D01*
X158460000Y-85660000D02*
X158460000Y-83160000D01*
X159410000Y-79960000D02*
X159410000Y-78360000D01*
X160210000Y-79960000D02*
X159410000Y-79960000D01*
X160210000Y-78360000D02*
X160210000Y-79960000D01*
X159410000Y-78360000D02*
X160210000Y-78360000D01*
X161660000Y-88910000D02*
X158460000Y-88910000D01*
X161660000Y-86410000D02*
X161660000Y-88910000D01*
X158460000Y-86410000D02*
X161660000Y-86410000D01*
X158460000Y-88910000D02*
X158460000Y-86410000D01*
X157660000Y-79997500D02*
X157660000Y-78397500D01*
X158460000Y-79997500D02*
X157660000Y-79997500D01*
X158460000Y-78397500D02*
X158460000Y-79997500D01*
X157660000Y-78397500D02*
X158460000Y-78397500D01*
X165960000Y-89760000D02*
X158160000Y-89760000D01*
X158160000Y-89760000D02*
X158160000Y-97560000D01*
X165960000Y-97560000D02*
X158160000Y-97560000D01*
X165960000Y-89760000D02*
X165960000Y-97560000D01*
X164210000Y-83160000D02*
X169910000Y-83160000D01*
X164210000Y-88160000D02*
X164210000Y-83160000D01*
X169910000Y-88160000D02*
X164210000Y-88160000D01*
X169910000Y-83160000D02*
X169910000Y-88160000D01*
X124400000Y-105700000D02*
X124400000Y-104100000D01*
X125200000Y-105700000D02*
X124400000Y-105700000D01*
X125200000Y-104100000D02*
X125200000Y-105700000D01*
X124400000Y-104100000D02*
X125200000Y-104100000D01*
X148900000Y-105612500D02*
X148900000Y-104012500D01*
X149700000Y-105612500D02*
X148900000Y-105612500D01*
X149700000Y-104012500D02*
X149700000Y-105612500D01*
X148900000Y-104012500D02*
X149700000Y-104012500D01*
X144690000Y-103600000D02*
X144690000Y-106500000D01*
X144690000Y-106500000D02*
X142930000Y-106500000D01*
X142930000Y-104050000D02*
X142930000Y-106500000D01*
X144690000Y-103600000D02*
X143380000Y-103600000D01*
X142930000Y-104050000D02*
X143380000Y-103600000D01*
X121380000Y-103550000D02*
X121380000Y-106450000D01*
X121380000Y-106450000D02*
X119620000Y-106450000D01*
X119620000Y-104000000D02*
X119620000Y-106450000D01*
X121380000Y-103550000D02*
X120070000Y-103550000D01*
X119620000Y-104000000D02*
X120070000Y-103550000D01*
D11*
X118620833Y-75582380D02*
X118049404Y-75582380D01*
X118335119Y-75582380D02*
X118335119Y-74582380D01*
X118239880Y-74725238D01*
X118144642Y-74820476D01*
X118049404Y-74868095D01*
X119525595Y-74582380D02*
X119049404Y-74582380D01*
X119001785Y-75058571D01*
X119049404Y-75010952D01*
X119144642Y-74963333D01*
X119382738Y-74963333D01*
X119477976Y-75010952D01*
X119525595Y-75058571D01*
X119573214Y-75153809D01*
X119573214Y-75391904D01*
X119525595Y-75487142D01*
X119477976Y-75534761D01*
X119382738Y-75582380D01*
X119144642Y-75582380D01*
X119049404Y-75534761D01*
X119001785Y-75487142D01*
X120192261Y-74582380D02*
X120287500Y-74582380D01*
X120382738Y-74630000D01*
X120430357Y-74677619D01*
X120477976Y-74772857D01*
X120525595Y-74963333D01*
X120525595Y-75201428D01*
X120477976Y-75391904D01*
X120430357Y-75487142D01*
X120382738Y-75534761D01*
X120287500Y-75582380D01*
X120192261Y-75582380D01*
X120097023Y-75534761D01*
X120049404Y-75487142D01*
X120001785Y-75391904D01*
X119954166Y-75201428D01*
X119954166Y-74963333D01*
X120001785Y-74772857D01*
X120049404Y-74677619D01*
X120097023Y-74630000D01*
X120192261Y-74582380D01*
D12*
X119220833Y-73880952D02*
X119087500Y-73690476D01*
X118992261Y-73880952D02*
X118992261Y-73480952D01*
X119144642Y-73480952D01*
X119182738Y-73500000D01*
X119201785Y-73519047D01*
X119220833Y-73557142D01*
X119220833Y-73614285D01*
X119201785Y-73652380D01*
X119182738Y-73671428D01*
X119144642Y-73690476D01*
X118992261Y-73690476D01*
X119354166Y-73480952D02*
X119601785Y-73480952D01*
X119468452Y-73633333D01*
X119525595Y-73633333D01*
X119563690Y-73652380D01*
X119582738Y-73671428D01*
X119601785Y-73709523D01*
X119601785Y-73804761D01*
X119582738Y-73842857D01*
X119563690Y-73861904D01*
X119525595Y-73880952D01*
X119411309Y-73880952D01*
X119373214Y-73861904D01*
X119354166Y-73842857D01*
D11*
X132233333Y-72572380D02*
X131661904Y-72572380D01*
X131947619Y-72572380D02*
X131947619Y-71572380D01*
X131852380Y-71715238D01*
X131757142Y-71810476D01*
X131661904Y-71858095D01*
X133138095Y-71572380D02*
X132661904Y-71572380D01*
X132614285Y-72048571D01*
X132661904Y-72000952D01*
X132757142Y-71953333D01*
X132995238Y-71953333D01*
X133090476Y-72000952D01*
X133138095Y-72048571D01*
X133185714Y-72143809D01*
X133185714Y-72381904D01*
X133138095Y-72477142D01*
X133090476Y-72524761D01*
X132995238Y-72572380D01*
X132757142Y-72572380D01*
X132661904Y-72524761D01*
X132614285Y-72477142D01*
X133804761Y-71572380D02*
X133900000Y-71572380D01*
X133995238Y-71620000D01*
X134042857Y-71667619D01*
X134090476Y-71762857D01*
X134138095Y-71953333D01*
X134138095Y-72191428D01*
X134090476Y-72381904D01*
X134042857Y-72477142D01*
X133995238Y-72524761D01*
X133900000Y-72572380D01*
X133804761Y-72572380D01*
X133709523Y-72524761D01*
X133661904Y-72477142D01*
X133614285Y-72381904D01*
X133566666Y-72191428D01*
X133566666Y-71953333D01*
X133614285Y-71762857D01*
X133661904Y-71667619D01*
X133709523Y-71620000D01*
X133804761Y-71572380D01*
D12*
X132833333Y-73730952D02*
X132700000Y-73540476D01*
X132604761Y-73730952D02*
X132604761Y-73330952D01*
X132757142Y-73330952D01*
X132795238Y-73350000D01*
X132814285Y-73369047D01*
X132833333Y-73407142D01*
X132833333Y-73464285D01*
X132814285Y-73502380D01*
X132795238Y-73521428D01*
X132757142Y-73540476D01*
X132604761Y-73540476D01*
X132985714Y-73369047D02*
X133004761Y-73350000D01*
X133042857Y-73330952D01*
X133138095Y-73330952D01*
X133176190Y-73350000D01*
X133195238Y-73369047D01*
X133214285Y-73407142D01*
X133214285Y-73445238D01*
X133195238Y-73502380D01*
X132966666Y-73730952D01*
X133214285Y-73730952D01*
D11*
X120897142Y-77088095D02*
X120944761Y-77135714D01*
X120992380Y-77278571D01*
X120992380Y-77373809D01*
X120944761Y-77516666D01*
X120849523Y-77611904D01*
X120754285Y-77659523D01*
X120563809Y-77707142D01*
X120420952Y-77707142D01*
X120230476Y-77659523D01*
X120135238Y-77611904D01*
X120040000Y-77516666D01*
X119992380Y-77373809D01*
X119992380Y-77278571D01*
X120040000Y-77135714D01*
X120087619Y-77088095D01*
X120992380Y-76516666D02*
X120944761Y-76611904D01*
X120897142Y-76659523D01*
X120801904Y-76707142D01*
X120516190Y-76707142D01*
X120420952Y-76659523D01*
X120373333Y-76611904D01*
X120325714Y-76516666D01*
X120325714Y-76373809D01*
X120373333Y-76278571D01*
X120420952Y-76230952D01*
X120516190Y-76183333D01*
X120801904Y-76183333D01*
X120897142Y-76230952D01*
X120944761Y-76278571D01*
X120992380Y-76373809D01*
X120992380Y-76516666D01*
X120325714Y-75754761D02*
X120992380Y-75754761D01*
X120420952Y-75754761D02*
X120373333Y-75707142D01*
X120325714Y-75611904D01*
X120325714Y-75469047D01*
X120373333Y-75373809D01*
X120468571Y-75326190D01*
X120992380Y-75326190D01*
X120325714Y-74850000D02*
X120992380Y-74850000D01*
X120420952Y-74850000D02*
X120373333Y-74802380D01*
X120325714Y-74707142D01*
X120325714Y-74564285D01*
X120373333Y-74469047D01*
X120468571Y-74421428D01*
X120992380Y-74421428D01*
X121087619Y-74183333D02*
X121087619Y-73421428D01*
X119992380Y-72992857D02*
X119992380Y-72897619D01*
X120040000Y-72802380D01*
X120087619Y-72754761D01*
X120182857Y-72707142D01*
X120373333Y-72659523D01*
X120611428Y-72659523D01*
X120801904Y-72707142D01*
X120897142Y-72754761D01*
X120944761Y-72802380D01*
X120992380Y-72897619D01*
X120992380Y-72992857D01*
X120944761Y-73088095D01*
X120897142Y-73135714D01*
X120801904Y-73183333D01*
X120611428Y-73230952D01*
X120373333Y-73230952D01*
X120182857Y-73183333D01*
X120087619Y-73135714D01*
X120040000Y-73088095D01*
X119992380Y-72992857D01*
X120992380Y-71707142D02*
X120992380Y-72278571D01*
X120992380Y-71992857D02*
X119992380Y-71992857D01*
X120135238Y-72088095D01*
X120230476Y-72183333D01*
X120278095Y-72278571D01*
X120992380Y-71373809D02*
X120325714Y-70850000D01*
X120325714Y-71373809D02*
X120992380Y-70850000D01*
X119992380Y-70278571D02*
X119992380Y-70183333D01*
X120040000Y-70088095D01*
X120087619Y-70040476D01*
X120182857Y-69992857D01*
X120373333Y-69945238D01*
X120611428Y-69945238D01*
X120801904Y-69992857D01*
X120897142Y-70040476D01*
X120944761Y-70088095D01*
X120992380Y-70183333D01*
X120992380Y-70278571D01*
X120944761Y-70373809D01*
X120897142Y-70421428D01*
X120801904Y-70469047D01*
X120611428Y-70516666D01*
X120373333Y-70516666D01*
X120182857Y-70469047D01*
X120087619Y-70421428D01*
X120040000Y-70373809D01*
X119992380Y-70278571D01*
X119992380Y-69611904D02*
X119992380Y-68992857D01*
X120373333Y-69326190D01*
X120373333Y-69183333D01*
X120420952Y-69088095D01*
X120468571Y-69040476D01*
X120563809Y-68992857D01*
X120801904Y-68992857D01*
X120897142Y-69040476D01*
X120944761Y-69088095D01*
X120992380Y-69183333D01*
X120992380Y-69469047D01*
X120944761Y-69564285D01*
X120897142Y-69611904D01*
X125076666Y-72802380D02*
X125076666Y-73516666D01*
X125029047Y-73659523D01*
X124933809Y-73754761D01*
X124790952Y-73802380D01*
X124695714Y-73802380D01*
X125457619Y-72802380D02*
X126076666Y-72802380D01*
X125743333Y-73183333D01*
X125886190Y-73183333D01*
X125981428Y-73230952D01*
X126029047Y-73278571D01*
X126076666Y-73373809D01*
X126076666Y-73611904D01*
X126029047Y-73707142D01*
X125981428Y-73754761D01*
X125886190Y-73802380D01*
X125600476Y-73802380D01*
X125505238Y-73754761D01*
X125457619Y-73707142D01*
X165652380Y-116626666D02*
X164985714Y-116102857D01*
X164985714Y-116626666D02*
X165652380Y-116102857D01*
X165557142Y-115150476D02*
X165604761Y-115198095D01*
X165652380Y-115340952D01*
X165652380Y-115436190D01*
X165604761Y-115579047D01*
X165509523Y-115674285D01*
X165414285Y-115721904D01*
X165223809Y-115769523D01*
X165080952Y-115769523D01*
X164890476Y-115721904D01*
X164795238Y-115674285D01*
X164700000Y-115579047D01*
X164652380Y-115436190D01*
X164652380Y-115340952D01*
X164700000Y-115198095D01*
X164747619Y-115150476D01*
X165652380Y-114579047D02*
X165604761Y-114674285D01*
X165557142Y-114721904D01*
X165461904Y-114769523D01*
X165176190Y-114769523D01*
X165080952Y-114721904D01*
X165033333Y-114674285D01*
X164985714Y-114579047D01*
X164985714Y-114436190D01*
X165033333Y-114340952D01*
X165080952Y-114293333D01*
X165176190Y-114245714D01*
X165461904Y-114245714D01*
X165557142Y-114293333D01*
X165604761Y-114340952D01*
X165652380Y-114436190D01*
X165652380Y-114579047D01*
X164985714Y-113817142D02*
X165652380Y-113817142D01*
X165080952Y-113817142D02*
X165033333Y-113769523D01*
X164985714Y-113674285D01*
X164985714Y-113531428D01*
X165033333Y-113436190D01*
X165128571Y-113388571D01*
X165652380Y-113388571D01*
X164985714Y-112912380D02*
X165652380Y-112912380D01*
X165080952Y-112912380D02*
X165033333Y-112864761D01*
X164985714Y-112769523D01*
X164985714Y-112626666D01*
X165033333Y-112531428D01*
X165128571Y-112483809D01*
X165652380Y-112483809D01*
X165604761Y-111626666D02*
X165652380Y-111721904D01*
X165652380Y-111912380D01*
X165604761Y-112007619D01*
X165509523Y-112055238D01*
X165128571Y-112055238D01*
X165033333Y-112007619D01*
X164985714Y-111912380D01*
X164985714Y-111721904D01*
X165033333Y-111626666D01*
X165128571Y-111579047D01*
X165223809Y-111579047D01*
X165319047Y-112055238D01*
X165604761Y-110721904D02*
X165652380Y-110817142D01*
X165652380Y-111007619D01*
X165604761Y-111102857D01*
X165557142Y-111150476D01*
X165461904Y-111198095D01*
X165176190Y-111198095D01*
X165080952Y-111150476D01*
X165033333Y-111102857D01*
X164985714Y-111007619D01*
X164985714Y-110817142D01*
X165033333Y-110721904D01*
X164985714Y-110436190D02*
X164985714Y-110055238D01*
X164652380Y-110293333D02*
X165509523Y-110293333D01*
X165604761Y-110245714D01*
X165652380Y-110150476D01*
X165652380Y-110055238D01*
X165747619Y-109960000D02*
X165747619Y-109198095D01*
X165604761Y-109007619D02*
X165652380Y-108912380D01*
X165652380Y-108721904D01*
X165604761Y-108626666D01*
X165509523Y-108579047D01*
X165461904Y-108579047D01*
X165366666Y-108626666D01*
X165319047Y-108721904D01*
X165319047Y-108864761D01*
X165271428Y-108960000D01*
X165176190Y-109007619D01*
X165128571Y-109007619D01*
X165033333Y-108960000D01*
X164985714Y-108864761D01*
X164985714Y-108721904D01*
X165033333Y-108626666D01*
X165652380Y-108150476D02*
X164985714Y-108150476D01*
X165080952Y-108150476D02*
X165033333Y-108102857D01*
X164985714Y-108007619D01*
X164985714Y-107864761D01*
X165033333Y-107769523D01*
X165128571Y-107721904D01*
X165652380Y-107721904D01*
X165128571Y-107721904D02*
X165033333Y-107674285D01*
X164985714Y-107579047D01*
X164985714Y-107436190D01*
X165033333Y-107340952D01*
X165128571Y-107293333D01*
X165652380Y-107293333D01*
X165652380Y-106388571D02*
X164652380Y-106388571D01*
X165604761Y-106388571D02*
X165652380Y-106483809D01*
X165652380Y-106674285D01*
X165604761Y-106769523D01*
X165557142Y-106817142D01*
X165461904Y-106864761D01*
X165176190Y-106864761D01*
X165080952Y-106817142D01*
X165033333Y-106769523D01*
X164985714Y-106674285D01*
X164985714Y-106483809D01*
X165033333Y-106388571D01*
X156966666Y-111112380D02*
X156966666Y-111826666D01*
X156919047Y-111969523D01*
X156823809Y-112064761D01*
X156680952Y-112112380D01*
X156585714Y-112112380D01*
X157395238Y-111207619D02*
X157442857Y-111160000D01*
X157538095Y-111112380D01*
X157776190Y-111112380D01*
X157871428Y-111160000D01*
X157919047Y-111207619D01*
X157966666Y-111302857D01*
X157966666Y-111398095D01*
X157919047Y-111540952D01*
X157347619Y-112112380D01*
X157966666Y-112112380D01*
X135252380Y-116626666D02*
X134585714Y-116102857D01*
X134585714Y-116626666D02*
X135252380Y-116102857D01*
X135157142Y-115150476D02*
X135204761Y-115198095D01*
X135252380Y-115340952D01*
X135252380Y-115436190D01*
X135204761Y-115579047D01*
X135109523Y-115674285D01*
X135014285Y-115721904D01*
X134823809Y-115769523D01*
X134680952Y-115769523D01*
X134490476Y-115721904D01*
X134395238Y-115674285D01*
X134300000Y-115579047D01*
X134252380Y-115436190D01*
X134252380Y-115340952D01*
X134300000Y-115198095D01*
X134347619Y-115150476D01*
X135252380Y-114579047D02*
X135204761Y-114674285D01*
X135157142Y-114721904D01*
X135061904Y-114769523D01*
X134776190Y-114769523D01*
X134680952Y-114721904D01*
X134633333Y-114674285D01*
X134585714Y-114579047D01*
X134585714Y-114436190D01*
X134633333Y-114340952D01*
X134680952Y-114293333D01*
X134776190Y-114245714D01*
X135061904Y-114245714D01*
X135157142Y-114293333D01*
X135204761Y-114340952D01*
X135252380Y-114436190D01*
X135252380Y-114579047D01*
X134585714Y-113817142D02*
X135252380Y-113817142D01*
X134680952Y-113817142D02*
X134633333Y-113769523D01*
X134585714Y-113674285D01*
X134585714Y-113531428D01*
X134633333Y-113436190D01*
X134728571Y-113388571D01*
X135252380Y-113388571D01*
X134585714Y-112912380D02*
X135252380Y-112912380D01*
X134680952Y-112912380D02*
X134633333Y-112864761D01*
X134585714Y-112769523D01*
X134585714Y-112626666D01*
X134633333Y-112531428D01*
X134728571Y-112483809D01*
X135252380Y-112483809D01*
X135204761Y-111626666D02*
X135252380Y-111721904D01*
X135252380Y-111912380D01*
X135204761Y-112007619D01*
X135109523Y-112055238D01*
X134728571Y-112055238D01*
X134633333Y-112007619D01*
X134585714Y-111912380D01*
X134585714Y-111721904D01*
X134633333Y-111626666D01*
X134728571Y-111579047D01*
X134823809Y-111579047D01*
X134919047Y-112055238D01*
X135204761Y-110721904D02*
X135252380Y-110817142D01*
X135252380Y-111007619D01*
X135204761Y-111102857D01*
X135157142Y-111150476D01*
X135061904Y-111198095D01*
X134776190Y-111198095D01*
X134680952Y-111150476D01*
X134633333Y-111102857D01*
X134585714Y-111007619D01*
X134585714Y-110817142D01*
X134633333Y-110721904D01*
X134585714Y-110436190D02*
X134585714Y-110055238D01*
X134252380Y-110293333D02*
X135109523Y-110293333D01*
X135204761Y-110245714D01*
X135252380Y-110150476D01*
X135252380Y-110055238D01*
X135347619Y-109960000D02*
X135347619Y-109198095D01*
X135204761Y-109007619D02*
X135252380Y-108912380D01*
X135252380Y-108721904D01*
X135204761Y-108626666D01*
X135109523Y-108579047D01*
X135061904Y-108579047D01*
X134966666Y-108626666D01*
X134919047Y-108721904D01*
X134919047Y-108864761D01*
X134871428Y-108960000D01*
X134776190Y-109007619D01*
X134728571Y-109007619D01*
X134633333Y-108960000D01*
X134585714Y-108864761D01*
X134585714Y-108721904D01*
X134633333Y-108626666D01*
X135252380Y-108150476D02*
X134585714Y-108150476D01*
X134680952Y-108150476D02*
X134633333Y-108102857D01*
X134585714Y-108007619D01*
X134585714Y-107864761D01*
X134633333Y-107769523D01*
X134728571Y-107721904D01*
X135252380Y-107721904D01*
X134728571Y-107721904D02*
X134633333Y-107674285D01*
X134585714Y-107579047D01*
X134585714Y-107436190D01*
X134633333Y-107340952D01*
X134728571Y-107293333D01*
X135252380Y-107293333D01*
X135252380Y-106388571D02*
X134252380Y-106388571D01*
X135204761Y-106388571D02*
X135252380Y-106483809D01*
X135252380Y-106674285D01*
X135204761Y-106769523D01*
X135157142Y-106817142D01*
X135061904Y-106864761D01*
X134776190Y-106864761D01*
X134680952Y-106817142D01*
X134633333Y-106769523D01*
X134585714Y-106674285D01*
X134585714Y-106483809D01*
X134633333Y-106388571D01*
X126566666Y-111112380D02*
X126566666Y-111826666D01*
X126519047Y-111969523D01*
X126423809Y-112064761D01*
X126280952Y-112112380D01*
X126185714Y-112112380D01*
X127566666Y-112112380D02*
X126995238Y-112112380D01*
X127280952Y-112112380D02*
X127280952Y-111112380D01*
X127185714Y-111255238D01*
X127090476Y-111350476D01*
X126995238Y-111398095D01*
X156842857Y-110604761D02*
X156985714Y-110652380D01*
X157223809Y-110652380D01*
X157319047Y-110604761D01*
X157366666Y-110557142D01*
X157414285Y-110461904D01*
X157414285Y-110366666D01*
X157366666Y-110271428D01*
X157319047Y-110223809D01*
X157223809Y-110176190D01*
X157033333Y-110128571D01*
X156938095Y-110080952D01*
X156890476Y-110033333D01*
X156842857Y-109938095D01*
X156842857Y-109842857D01*
X156890476Y-109747619D01*
X156938095Y-109700000D01*
X157033333Y-109652380D01*
X157271428Y-109652380D01*
X157414285Y-109700000D01*
X157842857Y-110652380D02*
X157842857Y-109652380D01*
X158176190Y-110366666D01*
X158509523Y-109652380D01*
X158509523Y-110652380D01*
X159319047Y-110128571D02*
X159461904Y-110176190D01*
X159509523Y-110223809D01*
X159557142Y-110319047D01*
X159557142Y-110461904D01*
X159509523Y-110557142D01*
X159461904Y-110604761D01*
X159366666Y-110652380D01*
X158985714Y-110652380D01*
X158985714Y-109652380D01*
X159319047Y-109652380D01*
X159414285Y-109700000D01*
X159461904Y-109747619D01*
X159509523Y-109842857D01*
X159509523Y-109938095D01*
X159461904Y-110033333D01*
X159414285Y-110080952D01*
X159319047Y-110128571D01*
X158985714Y-110128571D01*
X160271428Y-109652380D02*
X160271428Y-110366666D01*
X160223809Y-110509523D01*
X160128571Y-110604761D01*
X159985714Y-110652380D01*
X159890476Y-110652380D01*
X161223809Y-109652380D02*
X160747619Y-109652380D01*
X160700000Y-110128571D01*
X160747619Y-110080952D01*
X160842857Y-110033333D01*
X161080952Y-110033333D01*
X161176190Y-110080952D01*
X161223809Y-110128571D01*
X161271428Y-110223809D01*
X161271428Y-110461904D01*
X161223809Y-110557142D01*
X161176190Y-110604761D01*
X161080952Y-110652380D01*
X160842857Y-110652380D01*
X160747619Y-110604761D01*
X160700000Y-110557142D01*
X161700000Y-110557142D02*
X161747619Y-110604761D01*
X161700000Y-110652380D01*
X161652380Y-110604761D01*
X161700000Y-110557142D01*
X161700000Y-110652380D01*
X162366666Y-109652380D02*
X162461904Y-109652380D01*
X162557142Y-109700000D01*
X162604761Y-109747619D01*
X162652380Y-109842857D01*
X162700000Y-110033333D01*
X162700000Y-110271428D01*
X162652380Y-110461904D01*
X162604761Y-110557142D01*
X162557142Y-110604761D01*
X162461904Y-110652380D01*
X162366666Y-110652380D01*
X162271428Y-110604761D01*
X162223809Y-110557142D01*
X162176190Y-110461904D01*
X162128571Y-110271428D01*
X162128571Y-110033333D01*
X162176190Y-109842857D01*
X162223809Y-109747619D01*
X162271428Y-109700000D01*
X162366666Y-109652380D01*
X163080952Y-110366666D02*
X163557142Y-110366666D01*
X162985714Y-110652380D02*
X163319047Y-109652380D01*
X163652380Y-110652380D01*
X159461904Y-104552380D02*
X159461904Y-103552380D01*
X159700000Y-103552380D01*
X159842857Y-103600000D01*
X159938095Y-103695238D01*
X159985714Y-103790476D01*
X160033333Y-103980952D01*
X160033333Y-104123809D01*
X159985714Y-104314285D01*
X159938095Y-104409523D01*
X159842857Y-104504761D01*
X159700000Y-104552380D01*
X159461904Y-104552380D01*
X160366666Y-103552380D02*
X160985714Y-103552380D01*
X160652380Y-103933333D01*
X160795238Y-103933333D01*
X160890476Y-103980952D01*
X160938095Y-104028571D01*
X160985714Y-104123809D01*
X160985714Y-104361904D01*
X160938095Y-104457142D01*
X160890476Y-104504761D01*
X160795238Y-104552380D01*
X160509523Y-104552380D01*
X160414285Y-104504761D01*
X160366666Y-104457142D01*
X126842857Y-110604761D02*
X126985714Y-110652380D01*
X127223809Y-110652380D01*
X127319047Y-110604761D01*
X127366666Y-110557142D01*
X127414285Y-110461904D01*
X127414285Y-110366666D01*
X127366666Y-110271428D01*
X127319047Y-110223809D01*
X127223809Y-110176190D01*
X127033333Y-110128571D01*
X126938095Y-110080952D01*
X126890476Y-110033333D01*
X126842857Y-109938095D01*
X126842857Y-109842857D01*
X126890476Y-109747619D01*
X126938095Y-109700000D01*
X127033333Y-109652380D01*
X127271428Y-109652380D01*
X127414285Y-109700000D01*
X127842857Y-110652380D02*
X127842857Y-109652380D01*
X128176190Y-110366666D01*
X128509523Y-109652380D01*
X128509523Y-110652380D01*
X129319047Y-110128571D02*
X129461904Y-110176190D01*
X129509523Y-110223809D01*
X129557142Y-110319047D01*
X129557142Y-110461904D01*
X129509523Y-110557142D01*
X129461904Y-110604761D01*
X129366666Y-110652380D01*
X128985714Y-110652380D01*
X128985714Y-109652380D01*
X129319047Y-109652380D01*
X129414285Y-109700000D01*
X129461904Y-109747619D01*
X129509523Y-109842857D01*
X129509523Y-109938095D01*
X129461904Y-110033333D01*
X129414285Y-110080952D01*
X129319047Y-110128571D01*
X128985714Y-110128571D01*
X130271428Y-109652380D02*
X130271428Y-110366666D01*
X130223809Y-110509523D01*
X130128571Y-110604761D01*
X129985714Y-110652380D01*
X129890476Y-110652380D01*
X131223809Y-109652380D02*
X130747619Y-109652380D01*
X130700000Y-110128571D01*
X130747619Y-110080952D01*
X130842857Y-110033333D01*
X131080952Y-110033333D01*
X131176190Y-110080952D01*
X131223809Y-110128571D01*
X131271428Y-110223809D01*
X131271428Y-110461904D01*
X131223809Y-110557142D01*
X131176190Y-110604761D01*
X131080952Y-110652380D01*
X130842857Y-110652380D01*
X130747619Y-110604761D01*
X130700000Y-110557142D01*
X131700000Y-110557142D02*
X131747619Y-110604761D01*
X131700000Y-110652380D01*
X131652380Y-110604761D01*
X131700000Y-110557142D01*
X131700000Y-110652380D01*
X132366666Y-109652380D02*
X132461904Y-109652380D01*
X132557142Y-109700000D01*
X132604761Y-109747619D01*
X132652380Y-109842857D01*
X132700000Y-110033333D01*
X132700000Y-110271428D01*
X132652380Y-110461904D01*
X132604761Y-110557142D01*
X132557142Y-110604761D01*
X132461904Y-110652380D01*
X132366666Y-110652380D01*
X132271428Y-110604761D01*
X132223809Y-110557142D01*
X132176190Y-110461904D01*
X132128571Y-110271428D01*
X132128571Y-110033333D01*
X132176190Y-109842857D01*
X132223809Y-109747619D01*
X132271428Y-109700000D01*
X132366666Y-109652380D01*
X133080952Y-110366666D02*
X133557142Y-110366666D01*
X132985714Y-110652380D02*
X133319047Y-109652380D01*
X133652380Y-110652380D01*
X129461904Y-104552380D02*
X129461904Y-103552380D01*
X129700000Y-103552380D01*
X129842857Y-103600000D01*
X129938095Y-103695238D01*
X129985714Y-103790476D01*
X130033333Y-103980952D01*
X130033333Y-104123809D01*
X129985714Y-104314285D01*
X129938095Y-104409523D01*
X129842857Y-104504761D01*
X129700000Y-104552380D01*
X129461904Y-104552380D01*
X130414285Y-103647619D02*
X130461904Y-103600000D01*
X130557142Y-103552380D01*
X130795238Y-103552380D01*
X130890476Y-103600000D01*
X130938095Y-103647619D01*
X130985714Y-103742857D01*
X130985714Y-103838095D01*
X130938095Y-103980952D01*
X130366666Y-104552380D01*
X130985714Y-104552380D01*
X149233714Y-72120380D02*
X149233714Y-71120380D01*
X149471809Y-71120380D01*
X149614666Y-71168000D01*
X149709904Y-71263238D01*
X149757523Y-71358476D01*
X149805142Y-71548952D01*
X149805142Y-71691809D01*
X149757523Y-71882285D01*
X149709904Y-71977523D01*
X149614666Y-72072761D01*
X149471809Y-72120380D01*
X149233714Y-72120380D01*
X149995619Y-72215619D02*
X150757523Y-72215619D01*
X151519428Y-72120380D02*
X150948000Y-72120380D01*
X151233714Y-72120380D02*
X151233714Y-71120380D01*
X151138476Y-71263238D01*
X151043238Y-71358476D01*
X150948000Y-71406095D01*
X151900380Y-71834666D02*
X152376571Y-71834666D01*
X151805142Y-72120380D02*
X152138476Y-71120380D01*
X152471809Y-72120380D01*
X152567047Y-72215619D02*
X153328952Y-72215619D01*
X153471809Y-71120380D02*
X154090857Y-71120380D01*
X153757523Y-71501333D01*
X153900380Y-71501333D01*
X153995619Y-71548952D01*
X154043238Y-71596571D01*
X154090857Y-71691809D01*
X154090857Y-71929904D01*
X154043238Y-72025142D01*
X153995619Y-72072761D01*
X153900380Y-72120380D01*
X153614666Y-72120380D01*
X153519428Y-72072761D01*
X153471809Y-72025142D01*
X154709904Y-71120380D02*
X154805142Y-71120380D01*
X154900380Y-71168000D01*
X154948000Y-71215619D01*
X154995619Y-71310857D01*
X155043238Y-71501333D01*
X155043238Y-71739428D01*
X154995619Y-71929904D01*
X154948000Y-72025142D01*
X154900380Y-72072761D01*
X154805142Y-72120380D01*
X154709904Y-72120380D01*
X154614666Y-72072761D01*
X154567047Y-72025142D01*
X154519428Y-71929904D01*
X154471809Y-71739428D01*
X154471809Y-71501333D01*
X154519428Y-71310857D01*
X154567047Y-71215619D01*
X154614666Y-71168000D01*
X154709904Y-71120380D01*
X155328952Y-71120380D02*
X155662285Y-72120380D01*
X155995619Y-71120380D01*
X156090857Y-72215619D02*
X156852761Y-72215619D01*
X156995619Y-71120380D02*
X157614666Y-71120380D01*
X157281333Y-71501333D01*
X157424190Y-71501333D01*
X157519428Y-71548952D01*
X157567047Y-71596571D01*
X157614666Y-71691809D01*
X157614666Y-71929904D01*
X157567047Y-72025142D01*
X157519428Y-72072761D01*
X157424190Y-72120380D01*
X157138476Y-72120380D01*
X157043238Y-72072761D01*
X156995619Y-72025142D01*
X158567047Y-72120380D02*
X157995619Y-72120380D01*
X158281333Y-72120380D02*
X158281333Y-71120380D01*
X158186095Y-71263238D01*
X158090857Y-71358476D01*
X157995619Y-71406095D01*
X159186095Y-71120380D02*
X159281333Y-71120380D01*
X159376571Y-71168000D01*
X159424190Y-71215619D01*
X159471809Y-71310857D01*
X159519428Y-71501333D01*
X159519428Y-71739428D01*
X159471809Y-71929904D01*
X159424190Y-72025142D01*
X159376571Y-72072761D01*
X159281333Y-72120380D01*
X159186095Y-72120380D01*
X159090857Y-72072761D01*
X159043238Y-72025142D01*
X158995619Y-71929904D01*
X158948000Y-71739428D01*
X158948000Y-71501333D01*
X158995619Y-71310857D01*
X159043238Y-71215619D01*
X159090857Y-71168000D01*
X159186095Y-71120380D01*
X159948000Y-72120380D02*
X159948000Y-71453714D01*
X159948000Y-71548952D02*
X159995619Y-71501333D01*
X160090857Y-71453714D01*
X160233714Y-71453714D01*
X160328952Y-71501333D01*
X160376571Y-71596571D01*
X160376571Y-72120380D01*
X160376571Y-71596571D02*
X160424190Y-71501333D01*
X160519428Y-71453714D01*
X160662285Y-71453714D01*
X160757523Y-71501333D01*
X160805142Y-71596571D01*
X160805142Y-72120380D01*
X161138476Y-71120380D02*
X161471809Y-72120380D01*
X161805142Y-71120380D01*
X154709904Y-76620380D02*
X154709904Y-75620380D01*
X154948000Y-75620380D01*
X155090857Y-75668000D01*
X155186095Y-75763238D01*
X155233714Y-75858476D01*
X155281333Y-76048952D01*
X155281333Y-76191809D01*
X155233714Y-76382285D01*
X155186095Y-76477523D01*
X155090857Y-76572761D01*
X154948000Y-76620380D01*
X154709904Y-76620380D01*
X156233714Y-76620380D02*
X155662285Y-76620380D01*
X155948000Y-76620380D02*
X155948000Y-75620380D01*
X155852761Y-75763238D01*
X155757523Y-75858476D01*
X155662285Y-75906095D01*
X161765809Y-76350380D02*
X161289619Y-76350380D01*
X161289619Y-75350380D01*
X161956285Y-75350380D02*
X162527714Y-75350380D01*
X162242000Y-76350380D02*
X162242000Y-75350380D01*
X163432476Y-76255142D02*
X163384857Y-76302761D01*
X163242000Y-76350380D01*
X163146761Y-76350380D01*
X163003904Y-76302761D01*
X162908666Y-76207523D01*
X162861047Y-76112285D01*
X162813428Y-75921809D01*
X162813428Y-75778952D01*
X162861047Y-75588476D01*
X162908666Y-75493238D01*
X163003904Y-75398000D01*
X163146761Y-75350380D01*
X163242000Y-75350380D01*
X163384857Y-75398000D01*
X163432476Y-75445619D01*
X163765809Y-75350380D02*
X164384857Y-75350380D01*
X164051523Y-75731333D01*
X164194380Y-75731333D01*
X164289619Y-75778952D01*
X164337238Y-75826571D01*
X164384857Y-75921809D01*
X164384857Y-76159904D01*
X164337238Y-76255142D01*
X164289619Y-76302761D01*
X164194380Y-76350380D01*
X163908666Y-76350380D01*
X163813428Y-76302761D01*
X163765809Y-76255142D01*
X165242000Y-75350380D02*
X165051523Y-75350380D01*
X164956285Y-75398000D01*
X164908666Y-75445619D01*
X164813428Y-75588476D01*
X164765809Y-75778952D01*
X164765809Y-76159904D01*
X164813428Y-76255142D01*
X164861047Y-76302761D01*
X164956285Y-76350380D01*
X165146761Y-76350380D01*
X165242000Y-76302761D01*
X165289619Y-76255142D01*
X165337238Y-76159904D01*
X165337238Y-75921809D01*
X165289619Y-75826571D01*
X165242000Y-75778952D01*
X165146761Y-75731333D01*
X164956285Y-75731333D01*
X164861047Y-75778952D01*
X164813428Y-75826571D01*
X164765809Y-75921809D01*
X165670571Y-75350380D02*
X166289619Y-75350380D01*
X165956285Y-75731333D01*
X166099142Y-75731333D01*
X166194380Y-75778952D01*
X166242000Y-75826571D01*
X166289619Y-75921809D01*
X166289619Y-76159904D01*
X166242000Y-76255142D01*
X166194380Y-76302761D01*
X166099142Y-76350380D01*
X165813428Y-76350380D01*
X165718190Y-76302761D01*
X165670571Y-76255142D01*
X166908666Y-75350380D02*
X167003904Y-75350380D01*
X167099142Y-75398000D01*
X167146761Y-75445619D01*
X167194380Y-75540857D01*
X167242000Y-75731333D01*
X167242000Y-75969428D01*
X167194380Y-76159904D01*
X167146761Y-76255142D01*
X167099142Y-76302761D01*
X167003904Y-76350380D01*
X166908666Y-76350380D01*
X166813428Y-76302761D01*
X166765809Y-76255142D01*
X166718190Y-76159904D01*
X166670571Y-75969428D01*
X166670571Y-75731333D01*
X166718190Y-75540857D01*
X166765809Y-75445619D01*
X166813428Y-75398000D01*
X166908666Y-75350380D01*
D13*
X163784857Y-79069428D02*
X163784857Y-79555142D01*
X163813428Y-79612285D01*
X163842000Y-79640857D01*
X163899142Y-79669428D01*
X164013428Y-79669428D01*
X164070571Y-79640857D01*
X164099142Y-79612285D01*
X164127714Y-79555142D01*
X164127714Y-79069428D01*
X164384857Y-79126571D02*
X164413428Y-79098000D01*
X164470571Y-79069428D01*
X164613428Y-79069428D01*
X164670571Y-79098000D01*
X164699142Y-79126571D01*
X164727714Y-79183714D01*
X164727714Y-79240857D01*
X164699142Y-79326571D01*
X164356285Y-79669428D01*
X164727714Y-79669428D01*
D11*
X154612380Y-83612380D02*
X154040952Y-83612380D01*
X154326666Y-83612380D02*
X154326666Y-82612380D01*
X154231428Y-82755238D01*
X154136190Y-82850476D01*
X154040952Y-82898095D01*
X155231428Y-82612380D02*
X155326666Y-82612380D01*
X155421904Y-82660000D01*
X155469523Y-82707619D01*
X155517142Y-82802857D01*
X155564761Y-82993333D01*
X155564761Y-83231428D01*
X155517142Y-83421904D01*
X155469523Y-83517142D01*
X155421904Y-83564761D01*
X155326666Y-83612380D01*
X155231428Y-83612380D01*
X155136190Y-83564761D01*
X155088571Y-83517142D01*
X155040952Y-83421904D01*
X154993333Y-83231428D01*
X154993333Y-82993333D01*
X155040952Y-82802857D01*
X155088571Y-82707619D01*
X155136190Y-82660000D01*
X155231428Y-82612380D01*
X156183809Y-82612380D02*
X156279047Y-82612380D01*
X156374285Y-82660000D01*
X156421904Y-82707619D01*
X156469523Y-82802857D01*
X156517142Y-82993333D01*
X156517142Y-83231428D01*
X156469523Y-83421904D01*
X156421904Y-83517142D01*
X156374285Y-83564761D01*
X156279047Y-83612380D01*
X156183809Y-83612380D01*
X156088571Y-83564761D01*
X156040952Y-83517142D01*
X155993333Y-83421904D01*
X155945714Y-83231428D01*
X155945714Y-82993333D01*
X155993333Y-82802857D01*
X156040952Y-82707619D01*
X156088571Y-82660000D01*
X156183809Y-82612380D01*
X157374285Y-82945714D02*
X157374285Y-83612380D01*
X156945714Y-82945714D02*
X156945714Y-83469523D01*
X156993333Y-83564761D01*
X157088571Y-83612380D01*
X157231428Y-83612380D01*
X157326666Y-83564761D01*
X157374285Y-83517142D01*
X158183809Y-83088571D02*
X157850476Y-83088571D01*
X157850476Y-83612380D02*
X157850476Y-82612380D01*
X158326666Y-82612380D01*
X158469523Y-83707619D02*
X159231428Y-83707619D01*
X159898095Y-82612380D02*
X159707619Y-82612380D01*
X159612380Y-82660000D01*
X159564761Y-82707619D01*
X159469523Y-82850476D01*
X159421904Y-83040952D01*
X159421904Y-83421904D01*
X159469523Y-83517142D01*
X159517142Y-83564761D01*
X159612380Y-83612380D01*
X159802857Y-83612380D01*
X159898095Y-83564761D01*
X159945714Y-83517142D01*
X159993333Y-83421904D01*
X159993333Y-83183809D01*
X159945714Y-83088571D01*
X159898095Y-83040952D01*
X159802857Y-82993333D01*
X159612380Y-82993333D01*
X159517142Y-83040952D01*
X159469523Y-83088571D01*
X159421904Y-83183809D01*
X160421904Y-83517142D02*
X160469523Y-83564761D01*
X160421904Y-83612380D01*
X160374285Y-83564761D01*
X160421904Y-83517142D01*
X160421904Y-83612380D01*
X160802857Y-82612380D02*
X161421904Y-82612380D01*
X161088571Y-82993333D01*
X161231428Y-82993333D01*
X161326666Y-83040952D01*
X161374285Y-83088571D01*
X161421904Y-83183809D01*
X161421904Y-83421904D01*
X161374285Y-83517142D01*
X161326666Y-83564761D01*
X161231428Y-83612380D01*
X160945714Y-83612380D01*
X160850476Y-83564761D01*
X160802857Y-83517142D01*
X161707619Y-82612380D02*
X162040952Y-83612380D01*
X162374285Y-82612380D01*
D14*
X159926666Y-84695714D02*
X159888571Y-84733809D01*
X159774285Y-84771904D01*
X159698095Y-84771904D01*
X159583809Y-84733809D01*
X159507619Y-84657619D01*
X159469523Y-84581428D01*
X159431428Y-84429047D01*
X159431428Y-84314761D01*
X159469523Y-84162380D01*
X159507619Y-84086190D01*
X159583809Y-84010000D01*
X159698095Y-83971904D01*
X159774285Y-83971904D01*
X159888571Y-84010000D01*
X159926666Y-84048095D01*
X160612380Y-84238571D02*
X160612380Y-84771904D01*
X160421904Y-83933809D02*
X160231428Y-84505238D01*
X160726666Y-84505238D01*
D11*
X158832380Y-80707619D02*
X158832380Y-81279047D01*
X158832380Y-80993333D02*
X157832380Y-80993333D01*
X157975238Y-81088571D01*
X158070476Y-81183809D01*
X158118095Y-81279047D01*
X157832380Y-80088571D02*
X157832380Y-79993333D01*
X157880000Y-79898095D01*
X157927619Y-79850476D01*
X158022857Y-79802857D01*
X158213333Y-79755238D01*
X158451428Y-79755238D01*
X158641904Y-79802857D01*
X158737142Y-79850476D01*
X158784761Y-79898095D01*
X158832380Y-79993333D01*
X158832380Y-80088571D01*
X158784761Y-80183809D01*
X158737142Y-80231428D01*
X158641904Y-80279047D01*
X158451428Y-80326666D01*
X158213333Y-80326666D01*
X158022857Y-80279047D01*
X157927619Y-80231428D01*
X157880000Y-80183809D01*
X157832380Y-80088571D01*
X157832380Y-79136190D02*
X157832380Y-79040952D01*
X157880000Y-78945714D01*
X157927619Y-78898095D01*
X158022857Y-78850476D01*
X158213333Y-78802857D01*
X158451428Y-78802857D01*
X158641904Y-78850476D01*
X158737142Y-78898095D01*
X158784761Y-78945714D01*
X158832380Y-79040952D01*
X158832380Y-79136190D01*
X158784761Y-79231428D01*
X158737142Y-79279047D01*
X158641904Y-79326666D01*
X158451428Y-79374285D01*
X158213333Y-79374285D01*
X158022857Y-79326666D01*
X157927619Y-79279047D01*
X157880000Y-79231428D01*
X157832380Y-79136190D01*
X158165714Y-78374285D02*
X159165714Y-78374285D01*
X158213333Y-78374285D02*
X158165714Y-78279047D01*
X158165714Y-78088571D01*
X158213333Y-77993333D01*
X158260952Y-77945714D01*
X158356190Y-77898095D01*
X158641904Y-77898095D01*
X158737142Y-77945714D01*
X158784761Y-77993333D01*
X158832380Y-78088571D01*
X158832380Y-78279047D01*
X158784761Y-78374285D01*
X158308571Y-77136190D02*
X158308571Y-77469523D01*
X158832380Y-77469523D02*
X157832380Y-77469523D01*
X157832380Y-76993333D01*
D12*
X159952857Y-79226666D02*
X159971904Y-79245714D01*
X159990952Y-79302857D01*
X159990952Y-79340952D01*
X159971904Y-79398095D01*
X159933809Y-79436190D01*
X159895714Y-79455238D01*
X159819523Y-79474285D01*
X159762380Y-79474285D01*
X159686190Y-79455238D01*
X159648095Y-79436190D01*
X159610000Y-79398095D01*
X159590952Y-79340952D01*
X159590952Y-79302857D01*
X159610000Y-79245714D01*
X159629047Y-79226666D01*
X159629047Y-79074285D02*
X159610000Y-79055238D01*
X159590952Y-79017142D01*
X159590952Y-78921904D01*
X159610000Y-78883809D01*
X159629047Y-78864761D01*
X159667142Y-78845714D01*
X159705238Y-78845714D01*
X159762380Y-78864761D01*
X159990952Y-79093333D01*
X159990952Y-78845714D01*
D11*
X154612380Y-87362380D02*
X154040952Y-87362380D01*
X154326666Y-87362380D02*
X154326666Y-86362380D01*
X154231428Y-86505238D01*
X154136190Y-86600476D01*
X154040952Y-86648095D01*
X155231428Y-86362380D02*
X155326666Y-86362380D01*
X155421904Y-86410000D01*
X155469523Y-86457619D01*
X155517142Y-86552857D01*
X155564761Y-86743333D01*
X155564761Y-86981428D01*
X155517142Y-87171904D01*
X155469523Y-87267142D01*
X155421904Y-87314761D01*
X155326666Y-87362380D01*
X155231428Y-87362380D01*
X155136190Y-87314761D01*
X155088571Y-87267142D01*
X155040952Y-87171904D01*
X154993333Y-86981428D01*
X154993333Y-86743333D01*
X155040952Y-86552857D01*
X155088571Y-86457619D01*
X155136190Y-86410000D01*
X155231428Y-86362380D01*
X156183809Y-86362380D02*
X156279047Y-86362380D01*
X156374285Y-86410000D01*
X156421904Y-86457619D01*
X156469523Y-86552857D01*
X156517142Y-86743333D01*
X156517142Y-86981428D01*
X156469523Y-87171904D01*
X156421904Y-87267142D01*
X156374285Y-87314761D01*
X156279047Y-87362380D01*
X156183809Y-87362380D01*
X156088571Y-87314761D01*
X156040952Y-87267142D01*
X155993333Y-87171904D01*
X155945714Y-86981428D01*
X155945714Y-86743333D01*
X155993333Y-86552857D01*
X156040952Y-86457619D01*
X156088571Y-86410000D01*
X156183809Y-86362380D01*
X157374285Y-86695714D02*
X157374285Y-87362380D01*
X156945714Y-86695714D02*
X156945714Y-87219523D01*
X156993333Y-87314761D01*
X157088571Y-87362380D01*
X157231428Y-87362380D01*
X157326666Y-87314761D01*
X157374285Y-87267142D01*
X158183809Y-86838571D02*
X157850476Y-86838571D01*
X157850476Y-87362380D02*
X157850476Y-86362380D01*
X158326666Y-86362380D01*
X158469523Y-87457619D02*
X159231428Y-87457619D01*
X159898095Y-86362380D02*
X159707619Y-86362380D01*
X159612380Y-86410000D01*
X159564761Y-86457619D01*
X159469523Y-86600476D01*
X159421904Y-86790952D01*
X159421904Y-87171904D01*
X159469523Y-87267142D01*
X159517142Y-87314761D01*
X159612380Y-87362380D01*
X159802857Y-87362380D01*
X159898095Y-87314761D01*
X159945714Y-87267142D01*
X159993333Y-87171904D01*
X159993333Y-86933809D01*
X159945714Y-86838571D01*
X159898095Y-86790952D01*
X159802857Y-86743333D01*
X159612380Y-86743333D01*
X159517142Y-86790952D01*
X159469523Y-86838571D01*
X159421904Y-86933809D01*
X160421904Y-87267142D02*
X160469523Y-87314761D01*
X160421904Y-87362380D01*
X160374285Y-87314761D01*
X160421904Y-87267142D01*
X160421904Y-87362380D01*
X160802857Y-86362380D02*
X161421904Y-86362380D01*
X161088571Y-86743333D01*
X161231428Y-86743333D01*
X161326666Y-86790952D01*
X161374285Y-86838571D01*
X161421904Y-86933809D01*
X161421904Y-87171904D01*
X161374285Y-87267142D01*
X161326666Y-87314761D01*
X161231428Y-87362380D01*
X160945714Y-87362380D01*
X160850476Y-87314761D01*
X160802857Y-87267142D01*
X161707619Y-86362380D02*
X162040952Y-87362380D01*
X162374285Y-86362380D01*
D14*
X159926666Y-87945714D02*
X159888571Y-87983809D01*
X159774285Y-88021904D01*
X159698095Y-88021904D01*
X159583809Y-87983809D01*
X159507619Y-87907619D01*
X159469523Y-87831428D01*
X159431428Y-87679047D01*
X159431428Y-87564761D01*
X159469523Y-87412380D01*
X159507619Y-87336190D01*
X159583809Y-87260000D01*
X159698095Y-87221904D01*
X159774285Y-87221904D01*
X159888571Y-87260000D01*
X159926666Y-87298095D01*
X160193333Y-87221904D02*
X160688571Y-87221904D01*
X160421904Y-87526666D01*
X160536190Y-87526666D01*
X160612380Y-87564761D01*
X160650476Y-87602857D01*
X160688571Y-87679047D01*
X160688571Y-87869523D01*
X160650476Y-87945714D01*
X160612380Y-87983809D01*
X160536190Y-88021904D01*
X160307619Y-88021904D01*
X160231428Y-87983809D01*
X160193333Y-87945714D01*
D11*
X156177619Y-80935595D02*
X156130000Y-80887976D01*
X156082380Y-80792738D01*
X156082380Y-80554642D01*
X156130000Y-80459404D01*
X156177619Y-80411785D01*
X156272857Y-80364166D01*
X156368095Y-80364166D01*
X156510952Y-80411785D01*
X157082380Y-80983214D01*
X157082380Y-80364166D01*
X156177619Y-79983214D02*
X156130000Y-79935595D01*
X156082380Y-79840357D01*
X156082380Y-79602261D01*
X156130000Y-79507023D01*
X156177619Y-79459404D01*
X156272857Y-79411785D01*
X156368095Y-79411785D01*
X156510952Y-79459404D01*
X157082380Y-80030833D01*
X157082380Y-79411785D01*
X156082380Y-78792738D02*
X156082380Y-78697500D01*
X156130000Y-78602261D01*
X156177619Y-78554642D01*
X156272857Y-78507023D01*
X156463333Y-78459404D01*
X156701428Y-78459404D01*
X156891904Y-78507023D01*
X156987142Y-78554642D01*
X157034761Y-78602261D01*
X157082380Y-78697500D01*
X157082380Y-78792738D01*
X157034761Y-78887976D01*
X156987142Y-78935595D01*
X156891904Y-78983214D01*
X156701428Y-79030833D01*
X156463333Y-79030833D01*
X156272857Y-78983214D01*
X156177619Y-78935595D01*
X156130000Y-78887976D01*
X156082380Y-78792738D01*
X157082380Y-78030833D02*
X156082380Y-78030833D01*
X157082380Y-77459404D02*
X156510952Y-77887976D01*
X156082380Y-77459404D02*
X156653809Y-78030833D01*
D12*
X158240952Y-79264166D02*
X158050476Y-79397500D01*
X158240952Y-79492738D02*
X157840952Y-79492738D01*
X157840952Y-79340357D01*
X157860000Y-79302261D01*
X157879047Y-79283214D01*
X157917142Y-79264166D01*
X157974285Y-79264166D01*
X158012380Y-79283214D01*
X158031428Y-79302261D01*
X158050476Y-79340357D01*
X158050476Y-79492738D01*
X158240952Y-78883214D02*
X158240952Y-79111785D01*
X158240952Y-78997500D02*
X157840952Y-78997500D01*
X157898095Y-79035595D01*
X157936190Y-79073690D01*
X157955238Y-79111785D01*
D11*
X154506428Y-96112380D02*
X155125476Y-96112380D01*
X154792142Y-96493333D01*
X154935000Y-96493333D01*
X155030238Y-96540952D01*
X155077857Y-96588571D01*
X155125476Y-96683809D01*
X155125476Y-96921904D01*
X155077857Y-97017142D01*
X155030238Y-97064761D01*
X154935000Y-97112380D01*
X154649285Y-97112380D01*
X154554047Y-97064761D01*
X154506428Y-97017142D01*
X155458809Y-96112380D02*
X156077857Y-96112380D01*
X155744523Y-96493333D01*
X155887380Y-96493333D01*
X155982619Y-96540952D01*
X156030238Y-96588571D01*
X156077857Y-96683809D01*
X156077857Y-96921904D01*
X156030238Y-97017142D01*
X155982619Y-97064761D01*
X155887380Y-97112380D01*
X155601666Y-97112380D01*
X155506428Y-97064761D01*
X155458809Y-97017142D01*
X156935000Y-96445714D02*
X156935000Y-97112380D01*
X156506428Y-96445714D02*
X156506428Y-96969523D01*
X156554047Y-97064761D01*
X156649285Y-97112380D01*
X156792142Y-97112380D01*
X156887380Y-97064761D01*
X156935000Y-97017142D01*
X157411190Y-97112380D02*
X157411190Y-96112380D01*
X157411190Y-96588571D02*
X157982619Y-96588571D01*
X157982619Y-97112380D02*
X157982619Y-96112380D01*
X158220714Y-97207619D02*
X158982619Y-97207619D01*
X159173095Y-96207619D02*
X159220714Y-96160000D01*
X159315952Y-96112380D01*
X159554047Y-96112380D01*
X159649285Y-96160000D01*
X159696904Y-96207619D01*
X159744523Y-96302857D01*
X159744523Y-96398095D01*
X159696904Y-96540952D01*
X159125476Y-97112380D01*
X159744523Y-97112380D01*
X160173095Y-97017142D02*
X160220714Y-97064761D01*
X160173095Y-97112380D01*
X160125476Y-97064761D01*
X160173095Y-97017142D01*
X160173095Y-97112380D01*
X161125476Y-96112380D02*
X160649285Y-96112380D01*
X160601666Y-96588571D01*
X160649285Y-96540952D01*
X160744523Y-96493333D01*
X160982619Y-96493333D01*
X161077857Y-96540952D01*
X161125476Y-96588571D01*
X161173095Y-96683809D01*
X161173095Y-96921904D01*
X161125476Y-97017142D01*
X161077857Y-97064761D01*
X160982619Y-97112380D01*
X160744523Y-97112380D01*
X160649285Y-97064761D01*
X160601666Y-97017142D01*
X161554047Y-96826666D02*
X162030238Y-96826666D01*
X161458809Y-97112380D02*
X161792142Y-96112380D01*
X162125476Y-97112380D01*
X162220714Y-97207619D02*
X162982619Y-97207619D01*
X163363571Y-96540952D02*
X163268333Y-96493333D01*
X163220714Y-96445714D01*
X163173095Y-96350476D01*
X163173095Y-96302857D01*
X163220714Y-96207619D01*
X163268333Y-96160000D01*
X163363571Y-96112380D01*
X163554047Y-96112380D01*
X163649285Y-96160000D01*
X163696904Y-96207619D01*
X163744523Y-96302857D01*
X163744523Y-96350476D01*
X163696904Y-96445714D01*
X163649285Y-96493333D01*
X163554047Y-96540952D01*
X163363571Y-96540952D01*
X163268333Y-96588571D01*
X163220714Y-96636190D01*
X163173095Y-96731428D01*
X163173095Y-96921904D01*
X163220714Y-97017142D01*
X163268333Y-97064761D01*
X163363571Y-97112380D01*
X163554047Y-97112380D01*
X163649285Y-97064761D01*
X163696904Y-97017142D01*
X163744523Y-96921904D01*
X163744523Y-96731428D01*
X163696904Y-96636190D01*
X163649285Y-96588571D01*
X163554047Y-96540952D01*
X164601666Y-96445714D02*
X164601666Y-97112380D01*
X164363571Y-96064761D02*
X164125476Y-96779047D01*
X164744523Y-96779047D01*
X165125476Y-97112380D02*
X165125476Y-96445714D01*
X165125476Y-96540952D02*
X165173095Y-96493333D01*
X165268333Y-96445714D01*
X165411190Y-96445714D01*
X165506428Y-96493333D01*
X165554047Y-96588571D01*
X165554047Y-97112380D01*
X165554047Y-96588571D02*
X165601666Y-96493333D01*
X165696904Y-96445714D01*
X165839761Y-96445714D01*
X165935000Y-96493333D01*
X165982619Y-96588571D01*
X165982619Y-97112380D01*
X166649285Y-96112380D02*
X166839761Y-96112380D01*
X166935000Y-96160000D01*
X167030238Y-96255238D01*
X167077857Y-96445714D01*
X167077857Y-96779047D01*
X167030238Y-96969523D01*
X166935000Y-97064761D01*
X166839761Y-97112380D01*
X166649285Y-97112380D01*
X166554047Y-97064761D01*
X166458809Y-96969523D01*
X166411190Y-96779047D01*
X166411190Y-96445714D01*
X166458809Y-96255238D01*
X166554047Y-96160000D01*
X166649285Y-96112380D01*
X167506428Y-97112380D02*
X167506428Y-96112380D01*
X167935000Y-97112380D02*
X167935000Y-96588571D01*
X167887380Y-96493333D01*
X167792142Y-96445714D01*
X167649285Y-96445714D01*
X167554047Y-96493333D01*
X167506428Y-96540952D01*
X168411190Y-97112380D02*
X168411190Y-96445714D01*
X168411190Y-96540952D02*
X168458809Y-96493333D01*
X168554047Y-96445714D01*
X168696904Y-96445714D01*
X168792142Y-96493333D01*
X168839761Y-96588571D01*
X168839761Y-97112380D01*
X168839761Y-96588571D02*
X168887380Y-96493333D01*
X168982619Y-96445714D01*
X169125476Y-96445714D01*
X169220714Y-96493333D01*
X169268333Y-96588571D01*
X169268333Y-97112380D01*
X161618333Y-94012380D02*
X161142142Y-94012380D01*
X161142142Y-93012380D01*
X162475476Y-94012380D02*
X161904047Y-94012380D01*
X162189761Y-94012380D02*
X162189761Y-93012380D01*
X162094523Y-93155238D01*
X161999285Y-93250476D01*
X161904047Y-93298095D01*
X163417142Y-81795714D02*
X163417142Y-82462380D01*
X163179047Y-81414761D02*
X162940952Y-82129047D01*
X163560000Y-82129047D01*
X163940952Y-82367142D02*
X163988571Y-82414761D01*
X163940952Y-82462380D01*
X163893333Y-82414761D01*
X163940952Y-82367142D01*
X163940952Y-82462380D01*
X164321904Y-81462380D02*
X164988571Y-81462380D01*
X164560000Y-82462380D01*
X165798095Y-81795714D02*
X165798095Y-82462380D01*
X165369523Y-81795714D02*
X165369523Y-82319523D01*
X165417142Y-82414761D01*
X165512380Y-82462380D01*
X165655238Y-82462380D01*
X165750476Y-82414761D01*
X165798095Y-82367142D01*
X166607619Y-81938571D02*
X166274285Y-81938571D01*
X166274285Y-82462380D02*
X166274285Y-81462380D01*
X166750476Y-81462380D01*
X166893333Y-82557619D02*
X167655238Y-82557619D01*
X168417142Y-82462380D02*
X167845714Y-82462380D01*
X168131428Y-82462380D02*
X168131428Y-81462380D01*
X168036190Y-81605238D01*
X167940952Y-81700476D01*
X167845714Y-81748095D01*
X169036190Y-81462380D02*
X169131428Y-81462380D01*
X169226666Y-81510000D01*
X169274285Y-81557619D01*
X169321904Y-81652857D01*
X169369523Y-81843333D01*
X169369523Y-82081428D01*
X169321904Y-82271904D01*
X169274285Y-82367142D01*
X169226666Y-82414761D01*
X169131428Y-82462380D01*
X169036190Y-82462380D01*
X168940952Y-82414761D01*
X168893333Y-82367142D01*
X168845714Y-82271904D01*
X168798095Y-82081428D01*
X168798095Y-81843333D01*
X168845714Y-81652857D01*
X168893333Y-81557619D01*
X168940952Y-81510000D01*
X169036190Y-81462380D01*
X169988571Y-81462380D02*
X170083809Y-81462380D01*
X170179047Y-81510000D01*
X170226666Y-81557619D01*
X170274285Y-81652857D01*
X170321904Y-81843333D01*
X170321904Y-82081428D01*
X170274285Y-82271904D01*
X170226666Y-82367142D01*
X170179047Y-82414761D01*
X170083809Y-82462380D01*
X169988571Y-82462380D01*
X169893333Y-82414761D01*
X169845714Y-82367142D01*
X169798095Y-82271904D01*
X169750476Y-82081428D01*
X169750476Y-81843333D01*
X169798095Y-81652857D01*
X169845714Y-81557619D01*
X169893333Y-81510000D01*
X169988571Y-81462380D01*
X170607619Y-81462380D02*
X170940952Y-82462380D01*
X171274285Y-81462380D01*
X167417142Y-85826666D02*
X167464761Y-85874285D01*
X167512380Y-86017142D01*
X167512380Y-86112380D01*
X167464761Y-86255238D01*
X167369523Y-86350476D01*
X167274285Y-86398095D01*
X167083809Y-86445714D01*
X166940952Y-86445714D01*
X166750476Y-86398095D01*
X166655238Y-86350476D01*
X166560000Y-86255238D01*
X166512380Y-86112380D01*
X166512380Y-86017142D01*
X166560000Y-85874285D01*
X166607619Y-85826666D01*
X167512380Y-84874285D02*
X167512380Y-85445714D01*
X167512380Y-85160000D02*
X166512380Y-85160000D01*
X166655238Y-85255238D01*
X166750476Y-85350476D01*
X166798095Y-85445714D01*
X184664285Y-117162380D02*
X184664285Y-116162380D01*
X184997619Y-116876666D01*
X185330952Y-116162380D01*
X185330952Y-117162380D01*
X185950000Y-117162380D02*
X185854761Y-117114761D01*
X185807142Y-117067142D01*
X185759523Y-116971904D01*
X185759523Y-116686190D01*
X185807142Y-116590952D01*
X185854761Y-116543333D01*
X185950000Y-116495714D01*
X186092857Y-116495714D01*
X186188095Y-116543333D01*
X186235714Y-116590952D01*
X186283333Y-116686190D01*
X186283333Y-116971904D01*
X186235714Y-117067142D01*
X186188095Y-117114761D01*
X186092857Y-117162380D01*
X185950000Y-117162380D01*
X187140476Y-116495714D02*
X187140476Y-117162380D01*
X186711904Y-116495714D02*
X186711904Y-117019523D01*
X186759523Y-117114761D01*
X186854761Y-117162380D01*
X186997619Y-117162380D01*
X187092857Y-117114761D01*
X187140476Y-117067142D01*
X187616666Y-116495714D02*
X187616666Y-117162380D01*
X187616666Y-116590952D02*
X187664285Y-116543333D01*
X187759523Y-116495714D01*
X187902380Y-116495714D01*
X187997619Y-116543333D01*
X188045238Y-116638571D01*
X188045238Y-117162380D01*
X188378571Y-116495714D02*
X188759523Y-116495714D01*
X188521428Y-116162380D02*
X188521428Y-117019523D01*
X188569047Y-117114761D01*
X188664285Y-117162380D01*
X188759523Y-117162380D01*
X189092857Y-117162380D02*
X189092857Y-116495714D01*
X189092857Y-116162380D02*
X189045238Y-116210000D01*
X189092857Y-116257619D01*
X189140476Y-116210000D01*
X189092857Y-116162380D01*
X189092857Y-116257619D01*
X189569047Y-116495714D02*
X189569047Y-117162380D01*
X189569047Y-116590952D02*
X189616666Y-116543333D01*
X189711904Y-116495714D01*
X189854761Y-116495714D01*
X189950000Y-116543333D01*
X189997619Y-116638571D01*
X189997619Y-117162380D01*
X190902380Y-116495714D02*
X190902380Y-117305238D01*
X190854761Y-117400476D01*
X190807142Y-117448095D01*
X190711904Y-117495714D01*
X190569047Y-117495714D01*
X190473809Y-117448095D01*
X190902380Y-117114761D02*
X190807142Y-117162380D01*
X190616666Y-117162380D01*
X190521428Y-117114761D01*
X190473809Y-117067142D01*
X190426190Y-116971904D01*
X190426190Y-116686190D01*
X190473809Y-116590952D01*
X190521428Y-116543333D01*
X190616666Y-116495714D01*
X190807142Y-116495714D01*
X190902380Y-116543333D01*
X191378571Y-117162380D02*
X191378571Y-116162380D01*
X191378571Y-116638571D02*
X191950000Y-116638571D01*
X191950000Y-117162380D02*
X191950000Y-116162380D01*
X192569047Y-117162380D02*
X192473809Y-117114761D01*
X192426190Y-117067142D01*
X192378571Y-116971904D01*
X192378571Y-116686190D01*
X192426190Y-116590952D01*
X192473809Y-116543333D01*
X192569047Y-116495714D01*
X192711904Y-116495714D01*
X192807142Y-116543333D01*
X192854761Y-116590952D01*
X192902380Y-116686190D01*
X192902380Y-116971904D01*
X192854761Y-117067142D01*
X192807142Y-117114761D01*
X192711904Y-117162380D01*
X192569047Y-117162380D01*
X193473809Y-117162380D02*
X193378571Y-117114761D01*
X193330952Y-117019523D01*
X193330952Y-116162380D01*
X194235714Y-117114761D02*
X194140476Y-117162380D01*
X193950000Y-117162380D01*
X193854761Y-117114761D01*
X193807142Y-117019523D01*
X193807142Y-116638571D01*
X193854761Y-116543333D01*
X193950000Y-116495714D01*
X194140476Y-116495714D01*
X194235714Y-116543333D01*
X194283333Y-116638571D01*
X194283333Y-116733809D01*
X193807142Y-116829047D01*
X188988095Y-112662380D02*
X188988095Y-111662380D01*
X188988095Y-112138571D02*
X189559523Y-112138571D01*
X189559523Y-112662380D02*
X189559523Y-111662380D01*
X190464285Y-111995714D02*
X190464285Y-112662380D01*
X190226190Y-111614761D02*
X189988095Y-112329047D01*
X190607142Y-112329047D01*
X184664285Y-89182380D02*
X184664285Y-88182380D01*
X184997619Y-88896666D01*
X185330952Y-88182380D01*
X185330952Y-89182380D01*
X185950000Y-89182380D02*
X185854761Y-89134761D01*
X185807142Y-89087142D01*
X185759523Y-88991904D01*
X185759523Y-88706190D01*
X185807142Y-88610952D01*
X185854761Y-88563333D01*
X185950000Y-88515714D01*
X186092857Y-88515714D01*
X186188095Y-88563333D01*
X186235714Y-88610952D01*
X186283333Y-88706190D01*
X186283333Y-88991904D01*
X186235714Y-89087142D01*
X186188095Y-89134761D01*
X186092857Y-89182380D01*
X185950000Y-89182380D01*
X187140476Y-88515714D02*
X187140476Y-89182380D01*
X186711904Y-88515714D02*
X186711904Y-89039523D01*
X186759523Y-89134761D01*
X186854761Y-89182380D01*
X186997619Y-89182380D01*
X187092857Y-89134761D01*
X187140476Y-89087142D01*
X187616666Y-88515714D02*
X187616666Y-89182380D01*
X187616666Y-88610952D02*
X187664285Y-88563333D01*
X187759523Y-88515714D01*
X187902380Y-88515714D01*
X187997619Y-88563333D01*
X188045238Y-88658571D01*
X188045238Y-89182380D01*
X188378571Y-88515714D02*
X188759523Y-88515714D01*
X188521428Y-88182380D02*
X188521428Y-89039523D01*
X188569047Y-89134761D01*
X188664285Y-89182380D01*
X188759523Y-89182380D01*
X189092857Y-89182380D02*
X189092857Y-88515714D01*
X189092857Y-88182380D02*
X189045238Y-88230000D01*
X189092857Y-88277619D01*
X189140476Y-88230000D01*
X189092857Y-88182380D01*
X189092857Y-88277619D01*
X189569047Y-88515714D02*
X189569047Y-89182380D01*
X189569047Y-88610952D02*
X189616666Y-88563333D01*
X189711904Y-88515714D01*
X189854761Y-88515714D01*
X189950000Y-88563333D01*
X189997619Y-88658571D01*
X189997619Y-89182380D01*
X190902380Y-88515714D02*
X190902380Y-89325238D01*
X190854761Y-89420476D01*
X190807142Y-89468095D01*
X190711904Y-89515714D01*
X190569047Y-89515714D01*
X190473809Y-89468095D01*
X190902380Y-89134761D02*
X190807142Y-89182380D01*
X190616666Y-89182380D01*
X190521428Y-89134761D01*
X190473809Y-89087142D01*
X190426190Y-88991904D01*
X190426190Y-88706190D01*
X190473809Y-88610952D01*
X190521428Y-88563333D01*
X190616666Y-88515714D01*
X190807142Y-88515714D01*
X190902380Y-88563333D01*
X191378571Y-89182380D02*
X191378571Y-88182380D01*
X191378571Y-88658571D02*
X191950000Y-88658571D01*
X191950000Y-89182380D02*
X191950000Y-88182380D01*
X192569047Y-89182380D02*
X192473809Y-89134761D01*
X192426190Y-89087142D01*
X192378571Y-88991904D01*
X192378571Y-88706190D01*
X192426190Y-88610952D01*
X192473809Y-88563333D01*
X192569047Y-88515714D01*
X192711904Y-88515714D01*
X192807142Y-88563333D01*
X192854761Y-88610952D01*
X192902380Y-88706190D01*
X192902380Y-88991904D01*
X192854761Y-89087142D01*
X192807142Y-89134761D01*
X192711904Y-89182380D01*
X192569047Y-89182380D01*
X193473809Y-89182380D02*
X193378571Y-89134761D01*
X193330952Y-89039523D01*
X193330952Y-88182380D01*
X194235714Y-89134761D02*
X194140476Y-89182380D01*
X193950000Y-89182380D01*
X193854761Y-89134761D01*
X193807142Y-89039523D01*
X193807142Y-88658571D01*
X193854761Y-88563333D01*
X193950000Y-88515714D01*
X194140476Y-88515714D01*
X194235714Y-88563333D01*
X194283333Y-88658571D01*
X194283333Y-88753809D01*
X193807142Y-88849047D01*
X188988095Y-84682380D02*
X188988095Y-83682380D01*
X188988095Y-84158571D02*
X189559523Y-84158571D01*
X189559523Y-84682380D02*
X189559523Y-83682380D01*
X189940476Y-83682380D02*
X190559523Y-83682380D01*
X190226190Y-84063333D01*
X190369047Y-84063333D01*
X190464285Y-84110952D01*
X190511904Y-84158571D01*
X190559523Y-84253809D01*
X190559523Y-84491904D01*
X190511904Y-84587142D01*
X190464285Y-84634761D01*
X190369047Y-84682380D01*
X190083333Y-84682380D01*
X189988095Y-84634761D01*
X189940476Y-84587142D01*
X89574285Y-117152380D02*
X89574285Y-116152380D01*
X89907619Y-116866666D01*
X90240952Y-116152380D01*
X90240952Y-117152380D01*
X90860000Y-117152380D02*
X90764761Y-117104761D01*
X90717142Y-117057142D01*
X90669523Y-116961904D01*
X90669523Y-116676190D01*
X90717142Y-116580952D01*
X90764761Y-116533333D01*
X90860000Y-116485714D01*
X91002857Y-116485714D01*
X91098095Y-116533333D01*
X91145714Y-116580952D01*
X91193333Y-116676190D01*
X91193333Y-116961904D01*
X91145714Y-117057142D01*
X91098095Y-117104761D01*
X91002857Y-117152380D01*
X90860000Y-117152380D01*
X92050476Y-116485714D02*
X92050476Y-117152380D01*
X91621904Y-116485714D02*
X91621904Y-117009523D01*
X91669523Y-117104761D01*
X91764761Y-117152380D01*
X91907619Y-117152380D01*
X92002857Y-117104761D01*
X92050476Y-117057142D01*
X92526666Y-116485714D02*
X92526666Y-117152380D01*
X92526666Y-116580952D02*
X92574285Y-116533333D01*
X92669523Y-116485714D01*
X92812380Y-116485714D01*
X92907619Y-116533333D01*
X92955238Y-116628571D01*
X92955238Y-117152380D01*
X93288571Y-116485714D02*
X93669523Y-116485714D01*
X93431428Y-116152380D02*
X93431428Y-117009523D01*
X93479047Y-117104761D01*
X93574285Y-117152380D01*
X93669523Y-117152380D01*
X94002857Y-117152380D02*
X94002857Y-116485714D01*
X94002857Y-116152380D02*
X93955238Y-116200000D01*
X94002857Y-116247619D01*
X94050476Y-116200000D01*
X94002857Y-116152380D01*
X94002857Y-116247619D01*
X94479047Y-116485714D02*
X94479047Y-117152380D01*
X94479047Y-116580952D02*
X94526666Y-116533333D01*
X94621904Y-116485714D01*
X94764761Y-116485714D01*
X94860000Y-116533333D01*
X94907619Y-116628571D01*
X94907619Y-117152380D01*
X95812380Y-116485714D02*
X95812380Y-117295238D01*
X95764761Y-117390476D01*
X95717142Y-117438095D01*
X95621904Y-117485714D01*
X95479047Y-117485714D01*
X95383809Y-117438095D01*
X95812380Y-117104761D02*
X95717142Y-117152380D01*
X95526666Y-117152380D01*
X95431428Y-117104761D01*
X95383809Y-117057142D01*
X95336190Y-116961904D01*
X95336190Y-116676190D01*
X95383809Y-116580952D01*
X95431428Y-116533333D01*
X95526666Y-116485714D01*
X95717142Y-116485714D01*
X95812380Y-116533333D01*
X96288571Y-117152380D02*
X96288571Y-116152380D01*
X96288571Y-116628571D02*
X96860000Y-116628571D01*
X96860000Y-117152380D02*
X96860000Y-116152380D01*
X97479047Y-117152380D02*
X97383809Y-117104761D01*
X97336190Y-117057142D01*
X97288571Y-116961904D01*
X97288571Y-116676190D01*
X97336190Y-116580952D01*
X97383809Y-116533333D01*
X97479047Y-116485714D01*
X97621904Y-116485714D01*
X97717142Y-116533333D01*
X97764761Y-116580952D01*
X97812380Y-116676190D01*
X97812380Y-116961904D01*
X97764761Y-117057142D01*
X97717142Y-117104761D01*
X97621904Y-117152380D01*
X97479047Y-117152380D01*
X98383809Y-117152380D02*
X98288571Y-117104761D01*
X98240952Y-117009523D01*
X98240952Y-116152380D01*
X99145714Y-117104761D02*
X99050476Y-117152380D01*
X98860000Y-117152380D01*
X98764761Y-117104761D01*
X98717142Y-117009523D01*
X98717142Y-116628571D01*
X98764761Y-116533333D01*
X98860000Y-116485714D01*
X99050476Y-116485714D01*
X99145714Y-116533333D01*
X99193333Y-116628571D01*
X99193333Y-116723809D01*
X98717142Y-116819047D01*
X93898095Y-112652380D02*
X93898095Y-111652380D01*
X93898095Y-112128571D02*
X94469523Y-112128571D01*
X94469523Y-112652380D02*
X94469523Y-111652380D01*
X94898095Y-111747619D02*
X94945714Y-111700000D01*
X95040952Y-111652380D01*
X95279047Y-111652380D01*
X95374285Y-111700000D01*
X95421904Y-111747619D01*
X95469523Y-111842857D01*
X95469523Y-111938095D01*
X95421904Y-112080952D01*
X94850476Y-112652380D01*
X95469523Y-112652380D01*
X89594285Y-89172380D02*
X89594285Y-88172380D01*
X89927619Y-88886666D01*
X90260952Y-88172380D01*
X90260952Y-89172380D01*
X90880000Y-89172380D02*
X90784761Y-89124761D01*
X90737142Y-89077142D01*
X90689523Y-88981904D01*
X90689523Y-88696190D01*
X90737142Y-88600952D01*
X90784761Y-88553333D01*
X90880000Y-88505714D01*
X91022857Y-88505714D01*
X91118095Y-88553333D01*
X91165714Y-88600952D01*
X91213333Y-88696190D01*
X91213333Y-88981904D01*
X91165714Y-89077142D01*
X91118095Y-89124761D01*
X91022857Y-89172380D01*
X90880000Y-89172380D01*
X92070476Y-88505714D02*
X92070476Y-89172380D01*
X91641904Y-88505714D02*
X91641904Y-89029523D01*
X91689523Y-89124761D01*
X91784761Y-89172380D01*
X91927619Y-89172380D01*
X92022857Y-89124761D01*
X92070476Y-89077142D01*
X92546666Y-88505714D02*
X92546666Y-89172380D01*
X92546666Y-88600952D02*
X92594285Y-88553333D01*
X92689523Y-88505714D01*
X92832380Y-88505714D01*
X92927619Y-88553333D01*
X92975238Y-88648571D01*
X92975238Y-89172380D01*
X93308571Y-88505714D02*
X93689523Y-88505714D01*
X93451428Y-88172380D02*
X93451428Y-89029523D01*
X93499047Y-89124761D01*
X93594285Y-89172380D01*
X93689523Y-89172380D01*
X94022857Y-89172380D02*
X94022857Y-88505714D01*
X94022857Y-88172380D02*
X93975238Y-88220000D01*
X94022857Y-88267619D01*
X94070476Y-88220000D01*
X94022857Y-88172380D01*
X94022857Y-88267619D01*
X94499047Y-88505714D02*
X94499047Y-89172380D01*
X94499047Y-88600952D02*
X94546666Y-88553333D01*
X94641904Y-88505714D01*
X94784761Y-88505714D01*
X94880000Y-88553333D01*
X94927619Y-88648571D01*
X94927619Y-89172380D01*
X95832380Y-88505714D02*
X95832380Y-89315238D01*
X95784761Y-89410476D01*
X95737142Y-89458095D01*
X95641904Y-89505714D01*
X95499047Y-89505714D01*
X95403809Y-89458095D01*
X95832380Y-89124761D02*
X95737142Y-89172380D01*
X95546666Y-89172380D01*
X95451428Y-89124761D01*
X95403809Y-89077142D01*
X95356190Y-88981904D01*
X95356190Y-88696190D01*
X95403809Y-88600952D01*
X95451428Y-88553333D01*
X95546666Y-88505714D01*
X95737142Y-88505714D01*
X95832380Y-88553333D01*
X96308571Y-89172380D02*
X96308571Y-88172380D01*
X96308571Y-88648571D02*
X96880000Y-88648571D01*
X96880000Y-89172380D02*
X96880000Y-88172380D01*
X97499047Y-89172380D02*
X97403809Y-89124761D01*
X97356190Y-89077142D01*
X97308571Y-88981904D01*
X97308571Y-88696190D01*
X97356190Y-88600952D01*
X97403809Y-88553333D01*
X97499047Y-88505714D01*
X97641904Y-88505714D01*
X97737142Y-88553333D01*
X97784761Y-88600952D01*
X97832380Y-88696190D01*
X97832380Y-88981904D01*
X97784761Y-89077142D01*
X97737142Y-89124761D01*
X97641904Y-89172380D01*
X97499047Y-89172380D01*
X98403809Y-89172380D02*
X98308571Y-89124761D01*
X98260952Y-89029523D01*
X98260952Y-88172380D01*
X99165714Y-89124761D02*
X99070476Y-89172380D01*
X98880000Y-89172380D01*
X98784761Y-89124761D01*
X98737142Y-89029523D01*
X98737142Y-88648571D01*
X98784761Y-88553333D01*
X98880000Y-88505714D01*
X99070476Y-88505714D01*
X99165714Y-88553333D01*
X99213333Y-88648571D01*
X99213333Y-88743809D01*
X98737142Y-88839047D01*
X93918095Y-84672380D02*
X93918095Y-83672380D01*
X93918095Y-84148571D02*
X94489523Y-84148571D01*
X94489523Y-84672380D02*
X94489523Y-83672380D01*
X95489523Y-84672380D02*
X94918095Y-84672380D01*
X95203809Y-84672380D02*
X95203809Y-83672380D01*
X95108571Y-83815238D01*
X95013333Y-83910476D01*
X94918095Y-83958095D01*
X122822380Y-106542857D02*
X122822380Y-106447619D01*
X122870000Y-106352380D01*
X122917619Y-106304761D01*
X123012857Y-106257142D01*
X123203333Y-106209523D01*
X123441428Y-106209523D01*
X123631904Y-106257142D01*
X123727142Y-106304761D01*
X123774761Y-106352380D01*
X123822380Y-106447619D01*
X123822380Y-106542857D01*
X123774761Y-106638095D01*
X123727142Y-106685714D01*
X123631904Y-106733333D01*
X123441428Y-106780952D01*
X123203333Y-106780952D01*
X123012857Y-106733333D01*
X122917619Y-106685714D01*
X122870000Y-106638095D01*
X122822380Y-106542857D01*
X123727142Y-105780952D02*
X123774761Y-105733333D01*
X123822380Y-105780952D01*
X123774761Y-105828571D01*
X123727142Y-105780952D01*
X123822380Y-105780952D01*
X123822380Y-104780952D02*
X123822380Y-105352380D01*
X123822380Y-105066666D02*
X122822380Y-105066666D01*
X122965238Y-105161904D01*
X123060476Y-105257142D01*
X123108095Y-105352380D01*
X123155714Y-103923809D02*
X123822380Y-103923809D01*
X123155714Y-104352380D02*
X123679523Y-104352380D01*
X123774761Y-104304761D01*
X123822380Y-104209523D01*
X123822380Y-104066666D01*
X123774761Y-103971428D01*
X123727142Y-103923809D01*
X123298571Y-103114285D02*
X123298571Y-103447619D01*
X123822380Y-103447619D02*
X122822380Y-103447619D01*
X122822380Y-102971428D01*
D12*
X124942857Y-104966666D02*
X124961904Y-104985714D01*
X124980952Y-105042857D01*
X124980952Y-105080952D01*
X124961904Y-105138095D01*
X124923809Y-105176190D01*
X124885714Y-105195238D01*
X124809523Y-105214285D01*
X124752380Y-105214285D01*
X124676190Y-105195238D01*
X124638095Y-105176190D01*
X124600000Y-105138095D01*
X124580952Y-105080952D01*
X124580952Y-105042857D01*
X124600000Y-104985714D01*
X124619047Y-104966666D01*
X124580952Y-104623809D02*
X124580952Y-104700000D01*
X124600000Y-104738095D01*
X124619047Y-104757142D01*
X124676190Y-104795238D01*
X124752380Y-104814285D01*
X124904761Y-104814285D01*
X124942857Y-104795238D01*
X124961904Y-104776190D01*
X124980952Y-104738095D01*
X124980952Y-104661904D01*
X124961904Y-104623809D01*
X124942857Y-104604761D01*
X124904761Y-104585714D01*
X124809523Y-104585714D01*
X124771428Y-104604761D01*
X124752380Y-104623809D01*
X124733333Y-104661904D01*
X124733333Y-104738095D01*
X124752380Y-104776190D01*
X124771428Y-104795238D01*
X124809523Y-104814285D01*
D11*
X147322380Y-106455357D02*
X147322380Y-106360119D01*
X147370000Y-106264880D01*
X147417619Y-106217261D01*
X147512857Y-106169642D01*
X147703333Y-106122023D01*
X147941428Y-106122023D01*
X148131904Y-106169642D01*
X148227142Y-106217261D01*
X148274761Y-106264880D01*
X148322380Y-106360119D01*
X148322380Y-106455357D01*
X148274761Y-106550595D01*
X148227142Y-106598214D01*
X148131904Y-106645833D01*
X147941428Y-106693452D01*
X147703333Y-106693452D01*
X147512857Y-106645833D01*
X147417619Y-106598214D01*
X147370000Y-106550595D01*
X147322380Y-106455357D01*
X148227142Y-105693452D02*
X148274761Y-105645833D01*
X148322380Y-105693452D01*
X148274761Y-105741071D01*
X148227142Y-105693452D01*
X148322380Y-105693452D01*
X148322380Y-104693452D02*
X148322380Y-105264880D01*
X148322380Y-104979166D02*
X147322380Y-104979166D01*
X147465238Y-105074404D01*
X147560476Y-105169642D01*
X147608095Y-105264880D01*
X147655714Y-103836309D02*
X148322380Y-103836309D01*
X147655714Y-104264880D02*
X148179523Y-104264880D01*
X148274761Y-104217261D01*
X148322380Y-104122023D01*
X148322380Y-103979166D01*
X148274761Y-103883928D01*
X148227142Y-103836309D01*
X147798571Y-103026785D02*
X147798571Y-103360119D01*
X148322380Y-103360119D02*
X147322380Y-103360119D01*
X147322380Y-102883928D01*
D12*
X149442857Y-104879166D02*
X149461904Y-104898214D01*
X149480952Y-104955357D01*
X149480952Y-104993452D01*
X149461904Y-105050595D01*
X149423809Y-105088690D01*
X149385714Y-105107738D01*
X149309523Y-105126785D01*
X149252380Y-105126785D01*
X149176190Y-105107738D01*
X149138095Y-105088690D01*
X149100000Y-105050595D01*
X149080952Y-104993452D01*
X149080952Y-104955357D01*
X149100000Y-104898214D01*
X149119047Y-104879166D01*
X149080952Y-104517261D02*
X149080952Y-104707738D01*
X149271428Y-104726785D01*
X149252380Y-104707738D01*
X149233333Y-104669642D01*
X149233333Y-104574404D01*
X149252380Y-104536309D01*
X149271428Y-104517261D01*
X149309523Y-104498214D01*
X149404761Y-104498214D01*
X149442857Y-104517261D01*
X149461904Y-104536309D01*
X149480952Y-104574404D01*
X149480952Y-104669642D01*
X149461904Y-104707738D01*
X149442857Y-104726785D01*
D11*
X140667142Y-108002380D02*
X140667142Y-107002380D01*
X140905238Y-107002380D01*
X141048095Y-107050000D01*
X141143333Y-107145238D01*
X141190952Y-107240476D01*
X141238571Y-107430952D01*
X141238571Y-107573809D01*
X141190952Y-107764285D01*
X141143333Y-107859523D01*
X141048095Y-107954761D01*
X140905238Y-108002380D01*
X140667142Y-108002380D01*
X141619523Y-107954761D02*
X141762380Y-108002380D01*
X142000476Y-108002380D01*
X142095714Y-107954761D01*
X142143333Y-107907142D01*
X142190952Y-107811904D01*
X142190952Y-107716666D01*
X142143333Y-107621428D01*
X142095714Y-107573809D01*
X142000476Y-107526190D01*
X141810000Y-107478571D01*
X141714761Y-107430952D01*
X141667142Y-107383333D01*
X141619523Y-107288095D01*
X141619523Y-107192857D01*
X141667142Y-107097619D01*
X141714761Y-107050000D01*
X141810000Y-107002380D01*
X142048095Y-107002380D01*
X142190952Y-107050000D01*
X142571904Y-107097619D02*
X142619523Y-107050000D01*
X142714761Y-107002380D01*
X142952857Y-107002380D01*
X143048095Y-107050000D01*
X143095714Y-107097619D01*
X143143333Y-107192857D01*
X143143333Y-107288095D01*
X143095714Y-107430952D01*
X142524285Y-108002380D01*
X143143333Y-108002380D01*
X144000476Y-107335714D02*
X144000476Y-108002380D01*
X143762380Y-106954761D02*
X143524285Y-107669047D01*
X144143333Y-107669047D01*
X144667142Y-107430952D02*
X144571904Y-107383333D01*
X144524285Y-107335714D01*
X144476666Y-107240476D01*
X144476666Y-107192857D01*
X144524285Y-107097619D01*
X144571904Y-107050000D01*
X144667142Y-107002380D01*
X144857619Y-107002380D01*
X144952857Y-107050000D01*
X145000476Y-107097619D01*
X145048095Y-107192857D01*
X145048095Y-107240476D01*
X145000476Y-107335714D01*
X144952857Y-107383333D01*
X144857619Y-107430952D01*
X144667142Y-107430952D01*
X144571904Y-107478571D01*
X144524285Y-107526190D01*
X144476666Y-107621428D01*
X144476666Y-107811904D01*
X144524285Y-107907142D01*
X144571904Y-107954761D01*
X144667142Y-108002380D01*
X144857619Y-108002380D01*
X144952857Y-107954761D01*
X145000476Y-107907142D01*
X145048095Y-107811904D01*
X145048095Y-107621428D01*
X145000476Y-107526190D01*
X144952857Y-107478571D01*
X144857619Y-107430952D01*
X145381428Y-107002380D02*
X146000476Y-107002380D01*
X145667142Y-107383333D01*
X145810000Y-107383333D01*
X145905238Y-107430952D01*
X145952857Y-107478571D01*
X146000476Y-107573809D01*
X146000476Y-107811904D01*
X145952857Y-107907142D01*
X145905238Y-107954761D01*
X145810000Y-108002380D01*
X145524285Y-108002380D01*
X145429047Y-107954761D01*
X145381428Y-107907142D01*
X147000476Y-108002380D02*
X146667142Y-107526190D01*
X146429047Y-108002380D02*
X146429047Y-107002380D01*
X146810000Y-107002380D01*
X146905238Y-107050000D01*
X146952857Y-107097619D01*
X147000476Y-107192857D01*
X147000476Y-107335714D01*
X146952857Y-107430952D01*
X146905238Y-107478571D01*
X146810000Y-107526190D01*
X146429047Y-107526190D01*
D15*
X143536190Y-105430952D02*
X143940952Y-105430952D01*
X143988571Y-105407142D01*
X144012380Y-105383333D01*
X144036190Y-105335714D01*
X144036190Y-105240476D01*
X144012380Y-105192857D01*
X143988571Y-105169047D01*
X143940952Y-105145238D01*
X143536190Y-105145238D01*
X143702857Y-104692857D02*
X144036190Y-104692857D01*
X143512380Y-104811904D02*
X143869523Y-104930952D01*
X143869523Y-104621428D01*
D11*
X117357142Y-107952380D02*
X117357142Y-106952380D01*
X117595238Y-106952380D01*
X117738095Y-107000000D01*
X117833333Y-107095238D01*
X117880952Y-107190476D01*
X117928571Y-107380952D01*
X117928571Y-107523809D01*
X117880952Y-107714285D01*
X117833333Y-107809523D01*
X117738095Y-107904761D01*
X117595238Y-107952380D01*
X117357142Y-107952380D01*
X118309523Y-107904761D02*
X118452380Y-107952380D01*
X118690476Y-107952380D01*
X118785714Y-107904761D01*
X118833333Y-107857142D01*
X118880952Y-107761904D01*
X118880952Y-107666666D01*
X118833333Y-107571428D01*
X118785714Y-107523809D01*
X118690476Y-107476190D01*
X118500000Y-107428571D01*
X118404761Y-107380952D01*
X118357142Y-107333333D01*
X118309523Y-107238095D01*
X118309523Y-107142857D01*
X118357142Y-107047619D01*
X118404761Y-107000000D01*
X118500000Y-106952380D01*
X118738095Y-106952380D01*
X118880952Y-107000000D01*
X119261904Y-107047619D02*
X119309523Y-107000000D01*
X119404761Y-106952380D01*
X119642857Y-106952380D01*
X119738095Y-107000000D01*
X119785714Y-107047619D01*
X119833333Y-107142857D01*
X119833333Y-107238095D01*
X119785714Y-107380952D01*
X119214285Y-107952380D01*
X119833333Y-107952380D01*
X120690476Y-107285714D02*
X120690476Y-107952380D01*
X120452380Y-106904761D02*
X120214285Y-107619047D01*
X120833333Y-107619047D01*
X121357142Y-107380952D02*
X121261904Y-107333333D01*
X121214285Y-107285714D01*
X121166666Y-107190476D01*
X121166666Y-107142857D01*
X121214285Y-107047619D01*
X121261904Y-107000000D01*
X121357142Y-106952380D01*
X121547619Y-106952380D01*
X121642857Y-107000000D01*
X121690476Y-107047619D01*
X121738095Y-107142857D01*
X121738095Y-107190476D01*
X121690476Y-107285714D01*
X121642857Y-107333333D01*
X121547619Y-107380952D01*
X121357142Y-107380952D01*
X121261904Y-107428571D01*
X121214285Y-107476190D01*
X121166666Y-107571428D01*
X121166666Y-107761904D01*
X121214285Y-107857142D01*
X121261904Y-107904761D01*
X121357142Y-107952380D01*
X121547619Y-107952380D01*
X121642857Y-107904761D01*
X121690476Y-107857142D01*
X121738095Y-107761904D01*
X121738095Y-107571428D01*
X121690476Y-107476190D01*
X121642857Y-107428571D01*
X121547619Y-107380952D01*
X122071428Y-106952380D02*
X122690476Y-106952380D01*
X122357142Y-107333333D01*
X122500000Y-107333333D01*
X122595238Y-107380952D01*
X122642857Y-107428571D01*
X122690476Y-107523809D01*
X122690476Y-107761904D01*
X122642857Y-107857142D01*
X122595238Y-107904761D01*
X122500000Y-107952380D01*
X122214285Y-107952380D01*
X122119047Y-107904761D01*
X122071428Y-107857142D01*
X123690476Y-107952380D02*
X123357142Y-107476190D01*
X123119047Y-107952380D02*
X123119047Y-106952380D01*
X123500000Y-106952380D01*
X123595238Y-107000000D01*
X123642857Y-107047619D01*
X123690476Y-107142857D01*
X123690476Y-107285714D01*
X123642857Y-107380952D01*
X123595238Y-107428571D01*
X123500000Y-107476190D01*
X123119047Y-107476190D01*
D15*
X120226190Y-105380952D02*
X120630952Y-105380952D01*
X120678571Y-105357142D01*
X120702380Y-105333333D01*
X120726190Y-105285714D01*
X120726190Y-105190476D01*
X120702380Y-105142857D01*
X120678571Y-105119047D01*
X120630952Y-105095238D01*
X120226190Y-105095238D01*
X120226190Y-104904761D02*
X120226190Y-104595238D01*
X120416666Y-104761904D01*
X120416666Y-104690476D01*
X120440476Y-104642857D01*
X120464285Y-104619047D01*
X120511904Y-104595238D01*
X120630952Y-104595238D01*
X120678571Y-104619047D01*
X120702380Y-104642857D01*
X120726190Y-104690476D01*
X120726190Y-104833333D01*
X120702380Y-104880952D01*
X120678571Y-104904761D01*
M02*
