G04 #@! TF.GenerationSoftware,KiCad,Pcbnew,5.1.4*
G04 #@! TF.CreationDate,2019-08-24T18:03:49-04:00*
G04 #@! TF.ProjectId,siot-gateway-particle,73696f74-2d67-4617-9465-7761792d7061,rev?*
G04 #@! TF.SameCoordinates,Original*
G04 #@! TF.FileFunction,Soldermask,Top*
G04 #@! TF.FilePolarity,Negative*
%FSLAX46Y46*%
G04 Gerber Fmt 4.6, Leading zero omitted, Abs format (unit mm)*
G04 Created by KiCad (PCBNEW 5.1.4) date 2019-08-24 18:03:49*
%MOMM*%
%LPD*%
G04 APERTURE LIST*
%ADD10C,0.100000*%
G04 APERTURE END LIST*
D10*
G36*
X189975274Y-110478404D02*
G01*
X190302999Y-110614152D01*
X190523707Y-110761625D01*
X190597945Y-110811229D01*
X190848771Y-111062055D01*
X190848772Y-111062057D01*
X191045848Y-111357001D01*
X191181596Y-111684726D01*
X191250800Y-112032637D01*
X191250800Y-112387363D01*
X191181596Y-112735274D01*
X191045848Y-113062999D01*
X190969137Y-113177804D01*
X190848771Y-113357945D01*
X190597945Y-113608771D01*
X190523707Y-113658375D01*
X190302999Y-113805848D01*
X189975274Y-113941596D01*
X189627363Y-114010800D01*
X189272637Y-114010800D01*
X188924726Y-113941596D01*
X188597001Y-113805848D01*
X188376293Y-113658375D01*
X188302055Y-113608771D01*
X188051229Y-113357945D01*
X187930863Y-113177804D01*
X187854152Y-113062999D01*
X187718404Y-112735274D01*
X187649200Y-112387363D01*
X187649200Y-112032637D01*
X187718404Y-111684726D01*
X187854152Y-111357001D01*
X188051228Y-111062057D01*
X188051229Y-111062055D01*
X188302055Y-110811229D01*
X188376293Y-110761625D01*
X188597001Y-110614152D01*
X188924726Y-110478404D01*
X189272637Y-110409200D01*
X189627363Y-110409200D01*
X189975274Y-110478404D01*
X189975274Y-110478404D01*
G37*
G36*
X94885274Y-110468404D02*
G01*
X95212999Y-110604152D01*
X95433707Y-110751625D01*
X95507945Y-110801229D01*
X95758771Y-111052055D01*
X95765454Y-111062057D01*
X95955848Y-111347001D01*
X96091596Y-111674726D01*
X96160800Y-112022637D01*
X96160800Y-112377363D01*
X96091596Y-112725274D01*
X95955848Y-113052999D01*
X95808375Y-113273707D01*
X95758771Y-113347945D01*
X95507945Y-113598771D01*
X95492977Y-113608772D01*
X95212999Y-113795848D01*
X94885274Y-113931596D01*
X94537363Y-114000800D01*
X94182637Y-114000800D01*
X93834726Y-113931596D01*
X93507001Y-113795848D01*
X93227023Y-113608772D01*
X93212055Y-113598771D01*
X92961229Y-113347945D01*
X92911625Y-113273707D01*
X92764152Y-113052999D01*
X92628404Y-112725274D01*
X92559200Y-112377363D01*
X92559200Y-112022637D01*
X92628404Y-111674726D01*
X92764152Y-111347001D01*
X92954546Y-111062057D01*
X92961229Y-111052055D01*
X93212055Y-110801229D01*
X93286293Y-110751625D01*
X93507001Y-110604152D01*
X93834726Y-110468404D01*
X94182637Y-110399200D01*
X94537363Y-110399200D01*
X94885274Y-110468404D01*
X94885274Y-110468404D01*
G37*
G36*
X158689688Y-109728125D02*
G01*
X158866897Y-109781881D01*
X159030202Y-109869169D01*
X159173351Y-109986649D01*
X159290831Y-110129798D01*
X159378119Y-110293103D01*
X159431875Y-110470312D01*
X159450800Y-110662465D01*
X159450800Y-112857535D01*
X159431875Y-113049688D01*
X159378119Y-113226897D01*
X159290831Y-113390202D01*
X159173351Y-113533351D01*
X159030202Y-113650831D01*
X158866897Y-113738119D01*
X158689688Y-113791875D01*
X158497535Y-113810800D01*
X156302465Y-113810800D01*
X156110312Y-113791875D01*
X155933103Y-113738119D01*
X155769798Y-113650831D01*
X155626649Y-113533351D01*
X155509169Y-113390202D01*
X155421881Y-113226897D01*
X155368125Y-113049688D01*
X155349200Y-112857535D01*
X155349200Y-110662465D01*
X155368125Y-110470312D01*
X155421881Y-110293103D01*
X155509169Y-110129798D01*
X155626649Y-109986649D01*
X155769798Y-109869169D01*
X155933103Y-109781881D01*
X156110312Y-109728125D01*
X156302465Y-109709200D01*
X158497535Y-109709200D01*
X158689688Y-109728125D01*
X158689688Y-109728125D01*
G37*
G36*
X153689688Y-109728125D02*
G01*
X153866897Y-109781881D01*
X154030202Y-109869169D01*
X154173351Y-109986649D01*
X154290831Y-110129798D01*
X154378119Y-110293103D01*
X154431875Y-110470312D01*
X154450800Y-110662465D01*
X154450800Y-112857535D01*
X154431875Y-113049688D01*
X154378119Y-113226897D01*
X154290831Y-113390202D01*
X154173351Y-113533351D01*
X154030202Y-113650831D01*
X153866897Y-113738119D01*
X153689688Y-113791875D01*
X153497535Y-113810800D01*
X151302465Y-113810800D01*
X151110312Y-113791875D01*
X150933103Y-113738119D01*
X150769798Y-113650831D01*
X150626649Y-113533351D01*
X150509169Y-113390202D01*
X150421881Y-113226897D01*
X150368125Y-113049688D01*
X150349200Y-112857535D01*
X150349200Y-110662465D01*
X150368125Y-110470312D01*
X150421881Y-110293103D01*
X150509169Y-110129798D01*
X150626649Y-109986649D01*
X150769798Y-109869169D01*
X150933103Y-109781881D01*
X151110312Y-109728125D01*
X151302465Y-109709200D01*
X153497535Y-109709200D01*
X153689688Y-109728125D01*
X153689688Y-109728125D01*
G37*
G36*
X133369688Y-109728125D02*
G01*
X133546897Y-109781881D01*
X133710202Y-109869169D01*
X133853351Y-109986649D01*
X133970831Y-110129798D01*
X134058119Y-110293103D01*
X134111875Y-110470312D01*
X134130800Y-110662465D01*
X134130800Y-112857535D01*
X134111875Y-113049688D01*
X134058119Y-113226897D01*
X133970831Y-113390202D01*
X133853351Y-113533351D01*
X133710202Y-113650831D01*
X133546897Y-113738119D01*
X133369688Y-113791875D01*
X133177535Y-113810800D01*
X130982465Y-113810800D01*
X130790312Y-113791875D01*
X130613103Y-113738119D01*
X130449798Y-113650831D01*
X130306649Y-113533351D01*
X130189169Y-113390202D01*
X130101881Y-113226897D01*
X130048125Y-113049688D01*
X130029200Y-112857535D01*
X130029200Y-110662465D01*
X130048125Y-110470312D01*
X130101881Y-110293103D01*
X130189169Y-110129798D01*
X130306649Y-109986649D01*
X130449798Y-109869169D01*
X130613103Y-109781881D01*
X130790312Y-109728125D01*
X130982465Y-109709200D01*
X133177535Y-109709200D01*
X133369688Y-109728125D01*
X133369688Y-109728125D01*
G37*
G36*
X128369688Y-109728125D02*
G01*
X128546897Y-109781881D01*
X128710202Y-109869169D01*
X128853351Y-109986649D01*
X128970831Y-110129798D01*
X129058119Y-110293103D01*
X129111875Y-110470312D01*
X129130800Y-110662465D01*
X129130800Y-112857535D01*
X129111875Y-113049688D01*
X129058119Y-113226897D01*
X128970831Y-113390202D01*
X128853351Y-113533351D01*
X128710202Y-113650831D01*
X128546897Y-113738119D01*
X128369688Y-113791875D01*
X128177535Y-113810800D01*
X125982465Y-113810800D01*
X125790312Y-113791875D01*
X125613103Y-113738119D01*
X125449798Y-113650831D01*
X125306649Y-113533351D01*
X125189169Y-113390202D01*
X125101881Y-113226897D01*
X125048125Y-113049688D01*
X125029200Y-112857535D01*
X125029200Y-110662465D01*
X125048125Y-110470312D01*
X125101881Y-110293103D01*
X125189169Y-110129798D01*
X125306649Y-109986649D01*
X125449798Y-109869169D01*
X125613103Y-109781881D01*
X125790312Y-109728125D01*
X125982465Y-109709200D01*
X128177535Y-109709200D01*
X128369688Y-109728125D01*
X128369688Y-109728125D01*
G37*
G36*
X123369688Y-109728125D02*
G01*
X123546897Y-109781881D01*
X123710202Y-109869169D01*
X123853351Y-109986649D01*
X123970831Y-110129798D01*
X124058119Y-110293103D01*
X124111875Y-110470312D01*
X124130800Y-110662465D01*
X124130800Y-112857535D01*
X124111875Y-113049688D01*
X124058119Y-113226897D01*
X123970831Y-113390202D01*
X123853351Y-113533351D01*
X123710202Y-113650831D01*
X123546897Y-113738119D01*
X123369688Y-113791875D01*
X123177535Y-113810800D01*
X120982465Y-113810800D01*
X120790312Y-113791875D01*
X120613103Y-113738119D01*
X120449798Y-113650831D01*
X120306649Y-113533351D01*
X120189169Y-113390202D01*
X120101881Y-113226897D01*
X120048125Y-113049688D01*
X120029200Y-112857535D01*
X120029200Y-110662465D01*
X120048125Y-110470312D01*
X120101881Y-110293103D01*
X120189169Y-110129798D01*
X120306649Y-109986649D01*
X120449798Y-109869169D01*
X120613103Y-109781881D01*
X120790312Y-109728125D01*
X120982465Y-109709200D01*
X123177535Y-109709200D01*
X123369688Y-109728125D01*
X123369688Y-109728125D01*
G37*
G36*
X163689688Y-109728125D02*
G01*
X163866897Y-109781881D01*
X164030202Y-109869169D01*
X164173351Y-109986649D01*
X164290831Y-110129798D01*
X164378119Y-110293103D01*
X164431875Y-110470312D01*
X164450800Y-110662465D01*
X164450800Y-112857535D01*
X164431875Y-113049688D01*
X164378119Y-113226897D01*
X164290831Y-113390202D01*
X164173351Y-113533351D01*
X164030202Y-113650831D01*
X163866897Y-113738119D01*
X163689688Y-113791875D01*
X163497535Y-113810800D01*
X161302465Y-113810800D01*
X161110312Y-113791875D01*
X160933103Y-113738119D01*
X160769798Y-113650831D01*
X160626649Y-113533351D01*
X160509169Y-113390202D01*
X160421881Y-113226897D01*
X160368125Y-113049688D01*
X160349200Y-112857535D01*
X160349200Y-110662465D01*
X160368125Y-110470312D01*
X160421881Y-110293103D01*
X160509169Y-110129798D01*
X160626649Y-109986649D01*
X160769798Y-109869169D01*
X160933103Y-109781881D01*
X161110312Y-109728125D01*
X161302465Y-109709200D01*
X163497535Y-109709200D01*
X163689688Y-109728125D01*
X163689688Y-109728125D01*
G37*
G36*
X143160800Y-106375800D02*
G01*
X141839200Y-106375800D01*
X141839200Y-103724200D01*
X143160800Y-103724200D01*
X143160800Y-106375800D01*
X143160800Y-106375800D01*
G37*
G36*
X145780800Y-106375800D02*
G01*
X144459200Y-106375800D01*
X144459200Y-103724200D01*
X145780800Y-103724200D01*
X145780800Y-106375800D01*
X145780800Y-106375800D01*
G37*
G36*
X119850800Y-106325800D02*
G01*
X118529200Y-106325800D01*
X118529200Y-103674200D01*
X119850800Y-103674200D01*
X119850800Y-106325800D01*
X119850800Y-106325800D01*
G37*
G36*
X122470800Y-106325800D02*
G01*
X121149200Y-106325800D01*
X121149200Y-103674200D01*
X122470800Y-103674200D01*
X122470800Y-106325800D01*
X122470800Y-106325800D01*
G37*
G36*
X125193528Y-105203114D02*
G01*
X125224166Y-105212408D01*
X125252416Y-105227508D01*
X125277174Y-105247826D01*
X125297492Y-105272584D01*
X125312592Y-105300834D01*
X125321886Y-105331472D01*
X125325800Y-105371214D01*
X125325800Y-106003786D01*
X125321886Y-106043528D01*
X125312592Y-106074166D01*
X125297492Y-106102416D01*
X125277174Y-106127174D01*
X125252416Y-106147492D01*
X125224166Y-106162592D01*
X125193528Y-106171886D01*
X125153786Y-106175800D01*
X124446214Y-106175800D01*
X124406472Y-106171886D01*
X124375834Y-106162592D01*
X124347584Y-106147492D01*
X124322826Y-106127174D01*
X124302508Y-106102416D01*
X124287408Y-106074166D01*
X124278114Y-106043528D01*
X124274200Y-106003786D01*
X124274200Y-105371214D01*
X124278114Y-105331472D01*
X124287408Y-105300834D01*
X124302508Y-105272584D01*
X124322826Y-105247826D01*
X124347584Y-105227508D01*
X124375834Y-105212408D01*
X124406472Y-105203114D01*
X124446214Y-105199200D01*
X125153786Y-105199200D01*
X125193528Y-105203114D01*
X125193528Y-105203114D01*
G37*
G36*
X149693528Y-105115614D02*
G01*
X149724166Y-105124908D01*
X149752416Y-105140008D01*
X149777174Y-105160326D01*
X149797492Y-105185084D01*
X149812592Y-105213334D01*
X149821886Y-105243972D01*
X149825800Y-105283714D01*
X149825800Y-105916286D01*
X149821886Y-105956028D01*
X149812592Y-105986666D01*
X149797492Y-106014916D01*
X149777174Y-106039674D01*
X149752416Y-106059992D01*
X149724166Y-106075092D01*
X149693528Y-106084386D01*
X149653786Y-106088300D01*
X148946214Y-106088300D01*
X148906472Y-106084386D01*
X148875834Y-106075092D01*
X148847584Y-106059992D01*
X148822826Y-106039674D01*
X148802508Y-106014916D01*
X148787408Y-105986666D01*
X148778114Y-105956028D01*
X148774200Y-105916286D01*
X148774200Y-105283714D01*
X148778114Y-105243972D01*
X148787408Y-105213334D01*
X148802508Y-105185084D01*
X148822826Y-105160326D01*
X148847584Y-105140008D01*
X148875834Y-105124908D01*
X148906472Y-105115614D01*
X148946214Y-105111700D01*
X149653786Y-105111700D01*
X149693528Y-105115614D01*
X149693528Y-105115614D01*
G37*
G36*
X125193528Y-103628114D02*
G01*
X125224166Y-103637408D01*
X125252416Y-103652508D01*
X125277174Y-103672826D01*
X125297492Y-103697584D01*
X125312592Y-103725834D01*
X125321886Y-103756472D01*
X125325800Y-103796214D01*
X125325800Y-104428786D01*
X125321886Y-104468528D01*
X125312592Y-104499166D01*
X125297492Y-104527416D01*
X125277174Y-104552174D01*
X125252416Y-104572492D01*
X125224166Y-104587592D01*
X125193528Y-104596886D01*
X125153786Y-104600800D01*
X124446214Y-104600800D01*
X124406472Y-104596886D01*
X124375834Y-104587592D01*
X124347584Y-104572492D01*
X124322826Y-104552174D01*
X124302508Y-104527416D01*
X124287408Y-104499166D01*
X124278114Y-104468528D01*
X124274200Y-104428786D01*
X124274200Y-103796214D01*
X124278114Y-103756472D01*
X124287408Y-103725834D01*
X124302508Y-103697584D01*
X124322826Y-103672826D01*
X124347584Y-103652508D01*
X124375834Y-103637408D01*
X124406472Y-103628114D01*
X124446214Y-103624200D01*
X125153786Y-103624200D01*
X125193528Y-103628114D01*
X125193528Y-103628114D01*
G37*
G36*
X149693528Y-103540614D02*
G01*
X149724166Y-103549908D01*
X149752416Y-103565008D01*
X149777174Y-103585326D01*
X149797492Y-103610084D01*
X149812592Y-103638334D01*
X149821886Y-103668972D01*
X149825800Y-103708714D01*
X149825800Y-104341286D01*
X149821886Y-104381028D01*
X149812592Y-104411666D01*
X149797492Y-104439916D01*
X149777174Y-104464674D01*
X149752416Y-104484992D01*
X149724166Y-104500092D01*
X149693528Y-104509386D01*
X149653786Y-104513300D01*
X148946214Y-104513300D01*
X148906472Y-104509386D01*
X148875834Y-104500092D01*
X148847584Y-104484992D01*
X148822826Y-104464674D01*
X148802508Y-104439916D01*
X148787408Y-104411666D01*
X148778114Y-104381028D01*
X148774200Y-104341286D01*
X148774200Y-103708714D01*
X148778114Y-103668972D01*
X148787408Y-103638334D01*
X148802508Y-103610084D01*
X148822826Y-103585326D01*
X148847584Y-103565008D01*
X148875834Y-103549908D01*
X148906472Y-103540614D01*
X148946214Y-103536700D01*
X149653786Y-103536700D01*
X149693528Y-103540614D01*
X149693528Y-103540614D01*
G37*
G36*
X132174751Y-96276128D02*
G01*
X132174753Y-96276129D01*
X132174754Y-96276129D01*
X132321216Y-96336795D01*
X132453031Y-96424872D01*
X132565128Y-96536969D01*
X132653205Y-96668784D01*
X132713871Y-96815246D01*
X132713872Y-96815249D01*
X132744800Y-96970734D01*
X132744800Y-97129266D01*
X132730626Y-97200521D01*
X132713871Y-97284754D01*
X132653205Y-97431216D01*
X132565128Y-97563031D01*
X132453031Y-97675128D01*
X132321216Y-97763205D01*
X132174754Y-97823871D01*
X132174753Y-97823871D01*
X132174751Y-97823872D01*
X132019266Y-97854800D01*
X131860734Y-97854800D01*
X131705249Y-97823872D01*
X131705247Y-97823871D01*
X131705246Y-97823871D01*
X131558784Y-97763205D01*
X131426969Y-97675128D01*
X131314872Y-97563031D01*
X131226795Y-97431216D01*
X131166129Y-97284754D01*
X131149374Y-97200521D01*
X131135200Y-97129266D01*
X131135200Y-96970734D01*
X131166128Y-96815249D01*
X131166129Y-96815246D01*
X131226795Y-96668784D01*
X131314872Y-96536969D01*
X131426969Y-96424872D01*
X131558784Y-96336795D01*
X131705246Y-96276129D01*
X131705247Y-96276129D01*
X131705249Y-96276128D01*
X131860734Y-96245200D01*
X132019266Y-96245200D01*
X132174751Y-96276128D01*
X132174751Y-96276128D01*
G37*
G36*
X129634751Y-96276128D02*
G01*
X129634753Y-96276129D01*
X129634754Y-96276129D01*
X129781216Y-96336795D01*
X129913031Y-96424872D01*
X130025128Y-96536969D01*
X130113205Y-96668784D01*
X130173871Y-96815246D01*
X130173872Y-96815249D01*
X130204800Y-96970734D01*
X130204800Y-97129266D01*
X130190626Y-97200521D01*
X130173871Y-97284754D01*
X130113205Y-97431216D01*
X130025128Y-97563031D01*
X129913031Y-97675128D01*
X129781216Y-97763205D01*
X129634754Y-97823871D01*
X129634753Y-97823871D01*
X129634751Y-97823872D01*
X129479266Y-97854800D01*
X129320734Y-97854800D01*
X129165249Y-97823872D01*
X129165247Y-97823871D01*
X129165246Y-97823871D01*
X129018784Y-97763205D01*
X128886969Y-97675128D01*
X128774872Y-97563031D01*
X128686795Y-97431216D01*
X128626129Y-97284754D01*
X128609374Y-97200521D01*
X128595200Y-97129266D01*
X128595200Y-96970734D01*
X128626128Y-96815249D01*
X128626129Y-96815246D01*
X128686795Y-96668784D01*
X128774872Y-96536969D01*
X128886969Y-96424872D01*
X129018784Y-96336795D01*
X129165246Y-96276129D01*
X129165247Y-96276129D01*
X129165249Y-96276128D01*
X129320734Y-96245200D01*
X129479266Y-96245200D01*
X129634751Y-96276128D01*
X129634751Y-96276128D01*
G37*
G36*
X109314751Y-96276128D02*
G01*
X109314753Y-96276129D01*
X109314754Y-96276129D01*
X109461216Y-96336795D01*
X109593031Y-96424872D01*
X109705128Y-96536969D01*
X109793205Y-96668784D01*
X109853871Y-96815246D01*
X109853872Y-96815249D01*
X109884800Y-96970734D01*
X109884800Y-97129266D01*
X109870626Y-97200521D01*
X109853871Y-97284754D01*
X109793205Y-97431216D01*
X109705128Y-97563031D01*
X109593031Y-97675128D01*
X109461216Y-97763205D01*
X109314754Y-97823871D01*
X109314753Y-97823871D01*
X109314751Y-97823872D01*
X109159266Y-97854800D01*
X109000734Y-97854800D01*
X108845249Y-97823872D01*
X108845247Y-97823871D01*
X108845246Y-97823871D01*
X108698784Y-97763205D01*
X108566969Y-97675128D01*
X108454872Y-97563031D01*
X108366795Y-97431216D01*
X108306129Y-97284754D01*
X108289374Y-97200521D01*
X108275200Y-97129266D01*
X108275200Y-96970734D01*
X108306128Y-96815249D01*
X108306129Y-96815246D01*
X108366795Y-96668784D01*
X108454872Y-96536969D01*
X108566969Y-96424872D01*
X108698784Y-96336795D01*
X108845246Y-96276129D01*
X108845247Y-96276129D01*
X108845249Y-96276128D01*
X109000734Y-96245200D01*
X109159266Y-96245200D01*
X109314751Y-96276128D01*
X109314751Y-96276128D01*
G37*
G36*
X127094751Y-96276128D02*
G01*
X127094753Y-96276129D01*
X127094754Y-96276129D01*
X127241216Y-96336795D01*
X127373031Y-96424872D01*
X127485128Y-96536969D01*
X127573205Y-96668784D01*
X127633871Y-96815246D01*
X127633872Y-96815249D01*
X127664800Y-96970734D01*
X127664800Y-97129266D01*
X127650626Y-97200521D01*
X127633871Y-97284754D01*
X127573205Y-97431216D01*
X127485128Y-97563031D01*
X127373031Y-97675128D01*
X127241216Y-97763205D01*
X127094754Y-97823871D01*
X127094753Y-97823871D01*
X127094751Y-97823872D01*
X126939266Y-97854800D01*
X126780734Y-97854800D01*
X126625249Y-97823872D01*
X126625247Y-97823871D01*
X126625246Y-97823871D01*
X126478784Y-97763205D01*
X126346969Y-97675128D01*
X126234872Y-97563031D01*
X126146795Y-97431216D01*
X126086129Y-97284754D01*
X126069374Y-97200521D01*
X126055200Y-97129266D01*
X126055200Y-96970734D01*
X126086128Y-96815249D01*
X126086129Y-96815246D01*
X126146795Y-96668784D01*
X126234872Y-96536969D01*
X126346969Y-96424872D01*
X126478784Y-96336795D01*
X126625246Y-96276129D01*
X126625247Y-96276129D01*
X126625249Y-96276128D01*
X126780734Y-96245200D01*
X126939266Y-96245200D01*
X127094751Y-96276128D01*
X127094751Y-96276128D01*
G37*
G36*
X124554751Y-96276128D02*
G01*
X124554753Y-96276129D01*
X124554754Y-96276129D01*
X124701216Y-96336795D01*
X124833031Y-96424872D01*
X124945128Y-96536969D01*
X125033205Y-96668784D01*
X125093871Y-96815246D01*
X125093872Y-96815249D01*
X125124800Y-96970734D01*
X125124800Y-97129266D01*
X125110626Y-97200521D01*
X125093871Y-97284754D01*
X125033205Y-97431216D01*
X124945128Y-97563031D01*
X124833031Y-97675128D01*
X124701216Y-97763205D01*
X124554754Y-97823871D01*
X124554753Y-97823871D01*
X124554751Y-97823872D01*
X124399266Y-97854800D01*
X124240734Y-97854800D01*
X124085249Y-97823872D01*
X124085247Y-97823871D01*
X124085246Y-97823871D01*
X123938784Y-97763205D01*
X123806969Y-97675128D01*
X123694872Y-97563031D01*
X123606795Y-97431216D01*
X123546129Y-97284754D01*
X123529374Y-97200521D01*
X123515200Y-97129266D01*
X123515200Y-96970734D01*
X123546128Y-96815249D01*
X123546129Y-96815246D01*
X123606795Y-96668784D01*
X123694872Y-96536969D01*
X123806969Y-96424872D01*
X123938784Y-96336795D01*
X124085246Y-96276129D01*
X124085247Y-96276129D01*
X124085249Y-96276128D01*
X124240734Y-96245200D01*
X124399266Y-96245200D01*
X124554751Y-96276128D01*
X124554751Y-96276128D01*
G37*
G36*
X122014751Y-96276128D02*
G01*
X122014753Y-96276129D01*
X122014754Y-96276129D01*
X122161216Y-96336795D01*
X122293031Y-96424872D01*
X122405128Y-96536969D01*
X122493205Y-96668784D01*
X122553871Y-96815246D01*
X122553872Y-96815249D01*
X122584800Y-96970734D01*
X122584800Y-97129266D01*
X122570626Y-97200521D01*
X122553871Y-97284754D01*
X122493205Y-97431216D01*
X122405128Y-97563031D01*
X122293031Y-97675128D01*
X122161216Y-97763205D01*
X122014754Y-97823871D01*
X122014753Y-97823871D01*
X122014751Y-97823872D01*
X121859266Y-97854800D01*
X121700734Y-97854800D01*
X121545249Y-97823872D01*
X121545247Y-97823871D01*
X121545246Y-97823871D01*
X121398784Y-97763205D01*
X121266969Y-97675128D01*
X121154872Y-97563031D01*
X121066795Y-97431216D01*
X121006129Y-97284754D01*
X120989374Y-97200521D01*
X120975200Y-97129266D01*
X120975200Y-96970734D01*
X121006128Y-96815249D01*
X121006129Y-96815246D01*
X121066795Y-96668784D01*
X121154872Y-96536969D01*
X121266969Y-96424872D01*
X121398784Y-96336795D01*
X121545246Y-96276129D01*
X121545247Y-96276129D01*
X121545249Y-96276128D01*
X121700734Y-96245200D01*
X121859266Y-96245200D01*
X122014751Y-96276128D01*
X122014751Y-96276128D01*
G37*
G36*
X119474751Y-96276128D02*
G01*
X119474753Y-96276129D01*
X119474754Y-96276129D01*
X119621216Y-96336795D01*
X119753031Y-96424872D01*
X119865128Y-96536969D01*
X119953205Y-96668784D01*
X120013871Y-96815246D01*
X120013872Y-96815249D01*
X120044800Y-96970734D01*
X120044800Y-97129266D01*
X120030626Y-97200521D01*
X120013871Y-97284754D01*
X119953205Y-97431216D01*
X119865128Y-97563031D01*
X119753031Y-97675128D01*
X119621216Y-97763205D01*
X119474754Y-97823871D01*
X119474753Y-97823871D01*
X119474751Y-97823872D01*
X119319266Y-97854800D01*
X119160734Y-97854800D01*
X119005249Y-97823872D01*
X119005247Y-97823871D01*
X119005246Y-97823871D01*
X118858784Y-97763205D01*
X118726969Y-97675128D01*
X118614872Y-97563031D01*
X118526795Y-97431216D01*
X118466129Y-97284754D01*
X118449374Y-97200521D01*
X118435200Y-97129266D01*
X118435200Y-96970734D01*
X118466128Y-96815249D01*
X118466129Y-96815246D01*
X118526795Y-96668784D01*
X118614872Y-96536969D01*
X118726969Y-96424872D01*
X118858784Y-96336795D01*
X119005246Y-96276129D01*
X119005247Y-96276129D01*
X119005249Y-96276128D01*
X119160734Y-96245200D01*
X119319266Y-96245200D01*
X119474751Y-96276128D01*
X119474751Y-96276128D01*
G37*
G36*
X116934751Y-96276128D02*
G01*
X116934753Y-96276129D01*
X116934754Y-96276129D01*
X117081216Y-96336795D01*
X117213031Y-96424872D01*
X117325128Y-96536969D01*
X117413205Y-96668784D01*
X117473871Y-96815246D01*
X117473872Y-96815249D01*
X117504800Y-96970734D01*
X117504800Y-97129266D01*
X117490626Y-97200521D01*
X117473871Y-97284754D01*
X117413205Y-97431216D01*
X117325128Y-97563031D01*
X117213031Y-97675128D01*
X117081216Y-97763205D01*
X116934754Y-97823871D01*
X116934753Y-97823871D01*
X116934751Y-97823872D01*
X116779266Y-97854800D01*
X116620734Y-97854800D01*
X116465249Y-97823872D01*
X116465247Y-97823871D01*
X116465246Y-97823871D01*
X116318784Y-97763205D01*
X116186969Y-97675128D01*
X116074872Y-97563031D01*
X115986795Y-97431216D01*
X115926129Y-97284754D01*
X115909374Y-97200521D01*
X115895200Y-97129266D01*
X115895200Y-96970734D01*
X115926128Y-96815249D01*
X115926129Y-96815246D01*
X115986795Y-96668784D01*
X116074872Y-96536969D01*
X116186969Y-96424872D01*
X116318784Y-96336795D01*
X116465246Y-96276129D01*
X116465247Y-96276129D01*
X116465249Y-96276128D01*
X116620734Y-96245200D01*
X116779266Y-96245200D01*
X116934751Y-96276128D01*
X116934751Y-96276128D01*
G37*
G36*
X114394751Y-96276128D02*
G01*
X114394753Y-96276129D01*
X114394754Y-96276129D01*
X114541216Y-96336795D01*
X114673031Y-96424872D01*
X114785128Y-96536969D01*
X114873205Y-96668784D01*
X114933871Y-96815246D01*
X114933872Y-96815249D01*
X114964800Y-96970734D01*
X114964800Y-97129266D01*
X114950626Y-97200521D01*
X114933871Y-97284754D01*
X114873205Y-97431216D01*
X114785128Y-97563031D01*
X114673031Y-97675128D01*
X114541216Y-97763205D01*
X114394754Y-97823871D01*
X114394753Y-97823871D01*
X114394751Y-97823872D01*
X114239266Y-97854800D01*
X114080734Y-97854800D01*
X113925249Y-97823872D01*
X113925247Y-97823871D01*
X113925246Y-97823871D01*
X113778784Y-97763205D01*
X113646969Y-97675128D01*
X113534872Y-97563031D01*
X113446795Y-97431216D01*
X113386129Y-97284754D01*
X113369374Y-97200521D01*
X113355200Y-97129266D01*
X113355200Y-96970734D01*
X113386128Y-96815249D01*
X113386129Y-96815246D01*
X113446795Y-96668784D01*
X113534872Y-96536969D01*
X113646969Y-96424872D01*
X113778784Y-96336795D01*
X113925246Y-96276129D01*
X113925247Y-96276129D01*
X113925249Y-96276128D01*
X114080734Y-96245200D01*
X114239266Y-96245200D01*
X114394751Y-96276128D01*
X114394751Y-96276128D01*
G37*
G36*
X111854751Y-96276128D02*
G01*
X111854753Y-96276129D01*
X111854754Y-96276129D01*
X112001216Y-96336795D01*
X112133031Y-96424872D01*
X112245128Y-96536969D01*
X112333205Y-96668784D01*
X112393871Y-96815246D01*
X112393872Y-96815249D01*
X112424800Y-96970734D01*
X112424800Y-97129266D01*
X112410626Y-97200521D01*
X112393871Y-97284754D01*
X112333205Y-97431216D01*
X112245128Y-97563031D01*
X112133031Y-97675128D01*
X112001216Y-97763205D01*
X111854754Y-97823871D01*
X111854753Y-97823871D01*
X111854751Y-97823872D01*
X111699266Y-97854800D01*
X111540734Y-97854800D01*
X111385249Y-97823872D01*
X111385247Y-97823871D01*
X111385246Y-97823871D01*
X111238784Y-97763205D01*
X111106969Y-97675128D01*
X110994872Y-97563031D01*
X110906795Y-97431216D01*
X110846129Y-97284754D01*
X110829374Y-97200521D01*
X110815200Y-97129266D01*
X110815200Y-96970734D01*
X110846128Y-96815249D01*
X110846129Y-96815246D01*
X110906795Y-96668784D01*
X110994872Y-96536969D01*
X111106969Y-96424872D01*
X111238784Y-96336795D01*
X111385246Y-96276129D01*
X111385247Y-96276129D01*
X111385249Y-96276128D01*
X111540734Y-96245200D01*
X111699266Y-96245200D01*
X111854751Y-96276128D01*
X111854751Y-96276128D01*
G37*
G36*
X106774751Y-96276128D02*
G01*
X106774753Y-96276129D01*
X106774754Y-96276129D01*
X106921216Y-96336795D01*
X107053031Y-96424872D01*
X107165128Y-96536969D01*
X107253205Y-96668784D01*
X107313871Y-96815246D01*
X107313872Y-96815249D01*
X107344800Y-96970734D01*
X107344800Y-97129266D01*
X107330626Y-97200521D01*
X107313871Y-97284754D01*
X107253205Y-97431216D01*
X107165128Y-97563031D01*
X107053031Y-97675128D01*
X106921216Y-97763205D01*
X106774754Y-97823871D01*
X106774753Y-97823871D01*
X106774751Y-97823872D01*
X106619266Y-97854800D01*
X106460734Y-97854800D01*
X106305249Y-97823872D01*
X106305247Y-97823871D01*
X106305246Y-97823871D01*
X106158784Y-97763205D01*
X106026969Y-97675128D01*
X105914872Y-97563031D01*
X105826795Y-97431216D01*
X105766129Y-97284754D01*
X105749374Y-97200521D01*
X105735200Y-97129266D01*
X105735200Y-96970734D01*
X105766128Y-96815249D01*
X105766129Y-96815246D01*
X105826795Y-96668784D01*
X105914872Y-96536969D01*
X106026969Y-96424872D01*
X106158784Y-96336795D01*
X106305246Y-96276129D01*
X106305247Y-96276129D01*
X106305249Y-96276128D01*
X106460734Y-96245200D01*
X106619266Y-96245200D01*
X106774751Y-96276128D01*
X106774751Y-96276128D01*
G37*
G36*
X134714751Y-96276128D02*
G01*
X134714753Y-96276129D01*
X134714754Y-96276129D01*
X134861216Y-96336795D01*
X134993031Y-96424872D01*
X135105128Y-96536969D01*
X135193205Y-96668784D01*
X135253871Y-96815246D01*
X135253872Y-96815249D01*
X135284800Y-96970734D01*
X135284800Y-97129266D01*
X135270626Y-97200521D01*
X135253871Y-97284754D01*
X135193205Y-97431216D01*
X135105128Y-97563031D01*
X134993031Y-97675128D01*
X134861216Y-97763205D01*
X134714754Y-97823871D01*
X134714753Y-97823871D01*
X134714751Y-97823872D01*
X134559266Y-97854800D01*
X134400734Y-97854800D01*
X134245249Y-97823872D01*
X134245247Y-97823871D01*
X134245246Y-97823871D01*
X134098784Y-97763205D01*
X133966969Y-97675128D01*
X133854872Y-97563031D01*
X133766795Y-97431216D01*
X133706129Y-97284754D01*
X133689374Y-97200521D01*
X133675200Y-97129266D01*
X133675200Y-96970734D01*
X133706128Y-96815249D01*
X133706129Y-96815246D01*
X133766795Y-96668784D01*
X133854872Y-96536969D01*
X133966969Y-96424872D01*
X134098784Y-96336795D01*
X134245246Y-96276129D01*
X134245247Y-96276129D01*
X134245249Y-96276128D01*
X134400734Y-96245200D01*
X134559266Y-96245200D01*
X134714751Y-96276128D01*
X134714751Y-96276128D01*
G37*
G36*
X103078219Y-95267077D02*
G01*
X103295476Y-95357068D01*
X103491003Y-95487715D01*
X103657285Y-95653997D01*
X103787932Y-95849524D01*
X103877923Y-96066781D01*
X103923800Y-96297421D01*
X103923800Y-96532579D01*
X103877923Y-96763219D01*
X103787932Y-96980476D01*
X103657285Y-97176003D01*
X103491003Y-97342285D01*
X103295476Y-97472932D01*
X103078219Y-97562923D01*
X102847579Y-97608800D01*
X102612421Y-97608800D01*
X102381781Y-97562923D01*
X102164524Y-97472932D01*
X101968997Y-97342285D01*
X101802715Y-97176003D01*
X101672068Y-96980476D01*
X101582077Y-96763219D01*
X101536200Y-96532579D01*
X101536200Y-96297421D01*
X101582077Y-96066781D01*
X101672068Y-95849524D01*
X101802715Y-95653997D01*
X101968997Y-95487715D01*
X102164524Y-95357068D01*
X102381781Y-95267077D01*
X102612421Y-95221200D01*
X102847579Y-95221200D01*
X103078219Y-95267077D01*
X103078219Y-95267077D01*
G37*
G36*
X148983441Y-94021480D02*
G01*
X149316262Y-94159338D01*
X149615792Y-94359478D01*
X149870522Y-94614208D01*
X150070662Y-94913738D01*
X150208520Y-95246559D01*
X150278800Y-95599879D01*
X150278800Y-95960121D01*
X150208520Y-96313441D01*
X150070662Y-96646262D01*
X149870522Y-96945792D01*
X149615792Y-97200522D01*
X149316262Y-97400662D01*
X148983441Y-97538520D01*
X148630121Y-97608800D01*
X148269879Y-97608800D01*
X147916559Y-97538520D01*
X147583738Y-97400662D01*
X147284208Y-97200522D01*
X147029478Y-96945792D01*
X146829338Y-96646262D01*
X146691480Y-96313441D01*
X146621200Y-95960121D01*
X146621200Y-95599879D01*
X146691480Y-95246559D01*
X146829338Y-94913738D01*
X147029478Y-94614208D01*
X147284208Y-94359478D01*
X147583738Y-94159338D01*
X147916559Y-94021480D01*
X148269879Y-93951200D01*
X148630121Y-93951200D01*
X148983441Y-94021480D01*
X148983441Y-94021480D01*
G37*
G36*
X167245349Y-92012711D02*
G01*
X167272082Y-92020820D01*
X167296708Y-92033983D01*
X167318298Y-92051702D01*
X167336017Y-92073292D01*
X167349180Y-92097918D01*
X167357289Y-92124651D01*
X167360800Y-92160296D01*
X167360800Y-95159704D01*
X167357289Y-95195349D01*
X167349180Y-95222082D01*
X167336017Y-95246708D01*
X167318298Y-95268298D01*
X167296708Y-95286017D01*
X167272082Y-95299180D01*
X167245349Y-95307289D01*
X167209704Y-95310800D01*
X165810296Y-95310800D01*
X165774651Y-95307289D01*
X165747918Y-95299180D01*
X165723292Y-95286017D01*
X165701702Y-95268298D01*
X165683983Y-95246708D01*
X165670820Y-95222082D01*
X165662711Y-95195349D01*
X165659200Y-95159704D01*
X165659200Y-92160296D01*
X165662711Y-92124651D01*
X165670820Y-92097918D01*
X165683983Y-92073292D01*
X165701702Y-92051702D01*
X165723292Y-92033983D01*
X165747918Y-92020820D01*
X165774651Y-92012711D01*
X165810296Y-92009200D01*
X167209704Y-92009200D01*
X167245349Y-92012711D01*
X167245349Y-92012711D01*
G37*
G36*
X158345349Y-92012711D02*
G01*
X158372082Y-92020820D01*
X158396708Y-92033983D01*
X158418298Y-92051702D01*
X158436017Y-92073292D01*
X158449180Y-92097918D01*
X158457289Y-92124651D01*
X158460800Y-92160296D01*
X158460800Y-95159704D01*
X158457289Y-95195349D01*
X158449180Y-95222082D01*
X158436017Y-95246708D01*
X158418298Y-95268298D01*
X158396708Y-95286017D01*
X158372082Y-95299180D01*
X158345349Y-95307289D01*
X158309704Y-95310800D01*
X156910296Y-95310800D01*
X156874651Y-95307289D01*
X156847918Y-95299180D01*
X156823292Y-95286017D01*
X156801702Y-95268298D01*
X156783983Y-95246708D01*
X156770820Y-95222082D01*
X156762711Y-95195349D01*
X156759200Y-95159704D01*
X156759200Y-92160296D01*
X156762711Y-92124651D01*
X156770820Y-92097918D01*
X156783983Y-92073292D01*
X156801702Y-92051702D01*
X156823292Y-92033983D01*
X156847918Y-92020820D01*
X156874651Y-92012711D01*
X156910296Y-92009200D01*
X158309704Y-92009200D01*
X158345349Y-92012711D01*
X158345349Y-92012711D01*
G37*
G36*
X161995340Y-86288310D02*
G01*
X162027892Y-86298185D01*
X162057898Y-86314223D01*
X162084195Y-86335805D01*
X162105777Y-86362102D01*
X162121815Y-86392108D01*
X162131690Y-86424660D01*
X162135800Y-86466385D01*
X162135800Y-88853615D01*
X162131690Y-88895340D01*
X162121815Y-88927892D01*
X162105777Y-88957898D01*
X162084195Y-88984195D01*
X162057898Y-89005777D01*
X162027892Y-89021815D01*
X161995340Y-89031690D01*
X161953615Y-89035800D01*
X160966385Y-89035800D01*
X160924660Y-89031690D01*
X160892108Y-89021815D01*
X160862102Y-89005777D01*
X160835805Y-88984195D01*
X160814223Y-88957898D01*
X160798185Y-88927892D01*
X160788310Y-88895340D01*
X160784200Y-88853615D01*
X160784200Y-86466385D01*
X160788310Y-86424660D01*
X160798185Y-86392108D01*
X160814223Y-86362102D01*
X160835805Y-86335805D01*
X160862102Y-86314223D01*
X160892108Y-86298185D01*
X160924660Y-86288310D01*
X160966385Y-86284200D01*
X161953615Y-86284200D01*
X161995340Y-86288310D01*
X161995340Y-86288310D01*
G37*
G36*
X159195340Y-86288310D02*
G01*
X159227892Y-86298185D01*
X159257898Y-86314223D01*
X159284195Y-86335805D01*
X159305777Y-86362102D01*
X159321815Y-86392108D01*
X159331690Y-86424660D01*
X159335800Y-86466385D01*
X159335800Y-88853615D01*
X159331690Y-88895340D01*
X159321815Y-88927892D01*
X159305777Y-88957898D01*
X159284195Y-88984195D01*
X159257898Y-89005777D01*
X159227892Y-89021815D01*
X159195340Y-89031690D01*
X159153615Y-89035800D01*
X158166385Y-89035800D01*
X158124660Y-89031690D01*
X158092108Y-89021815D01*
X158062102Y-89005777D01*
X158035805Y-88984195D01*
X158014223Y-88957898D01*
X157998185Y-88927892D01*
X157988310Y-88895340D01*
X157984200Y-88853615D01*
X157984200Y-86466385D01*
X157988310Y-86424660D01*
X157998185Y-86392108D01*
X158014223Y-86362102D01*
X158035805Y-86335805D01*
X158062102Y-86314223D01*
X158092108Y-86298185D01*
X158124660Y-86288310D01*
X158166385Y-86284200D01*
X159153615Y-86284200D01*
X159195340Y-86288310D01*
X159195340Y-86288310D01*
G37*
G36*
X170441077Y-82912815D02*
G01*
X170468798Y-82921224D01*
X170494347Y-82934880D01*
X170516741Y-82953259D01*
X170535120Y-82975653D01*
X170548776Y-83001202D01*
X170557185Y-83028923D01*
X170560800Y-83065621D01*
X170560800Y-88254379D01*
X170557185Y-88291077D01*
X170548776Y-88318798D01*
X170535120Y-88344347D01*
X170516741Y-88366741D01*
X170494347Y-88385120D01*
X170468798Y-88398776D01*
X170441077Y-88407185D01*
X170404379Y-88410800D01*
X168815621Y-88410800D01*
X168778923Y-88407185D01*
X168751202Y-88398776D01*
X168725653Y-88385120D01*
X168703259Y-88366741D01*
X168684880Y-88344347D01*
X168671224Y-88318798D01*
X168662815Y-88291077D01*
X168659200Y-88254379D01*
X168659200Y-83065621D01*
X168662815Y-83028923D01*
X168671224Y-83001202D01*
X168684880Y-82975653D01*
X168703259Y-82953259D01*
X168725653Y-82934880D01*
X168751202Y-82921224D01*
X168778923Y-82912815D01*
X168815621Y-82909200D01*
X170404379Y-82909200D01*
X170441077Y-82912815D01*
X170441077Y-82912815D01*
G37*
G36*
X165341077Y-82912815D02*
G01*
X165368798Y-82921224D01*
X165394347Y-82934880D01*
X165416741Y-82953259D01*
X165435120Y-82975653D01*
X165448776Y-83001202D01*
X165457185Y-83028923D01*
X165460800Y-83065621D01*
X165460800Y-88254379D01*
X165457185Y-88291077D01*
X165448776Y-88318798D01*
X165435120Y-88344347D01*
X165416741Y-88366741D01*
X165394347Y-88385120D01*
X165368798Y-88398776D01*
X165341077Y-88407185D01*
X165304379Y-88410800D01*
X163715621Y-88410800D01*
X163678923Y-88407185D01*
X163651202Y-88398776D01*
X163625653Y-88385120D01*
X163603259Y-88366741D01*
X163584880Y-88344347D01*
X163571224Y-88318798D01*
X163562815Y-88291077D01*
X163559200Y-88254379D01*
X163559200Y-83065621D01*
X163562815Y-83028923D01*
X163571224Y-83001202D01*
X163584880Y-82975653D01*
X163603259Y-82953259D01*
X163625653Y-82934880D01*
X163651202Y-82921224D01*
X163678923Y-82912815D01*
X163715621Y-82909200D01*
X165304379Y-82909200D01*
X165341077Y-82912815D01*
X165341077Y-82912815D01*
G37*
G36*
X189975274Y-82498404D02*
G01*
X190302999Y-82634152D01*
X190523707Y-82781625D01*
X190597945Y-82831229D01*
X190848771Y-83082055D01*
X190888897Y-83142108D01*
X191045848Y-83377001D01*
X191181596Y-83704726D01*
X191250800Y-84052637D01*
X191250800Y-84407363D01*
X191181596Y-84755274D01*
X191045848Y-85082999D01*
X190898375Y-85303707D01*
X190848771Y-85377945D01*
X190597945Y-85628771D01*
X190524430Y-85677892D01*
X190302999Y-85825848D01*
X189975274Y-85961596D01*
X189627363Y-86030800D01*
X189272637Y-86030800D01*
X188924726Y-85961596D01*
X188597001Y-85825848D01*
X188375570Y-85677892D01*
X188302055Y-85628771D01*
X188051229Y-85377945D01*
X188001625Y-85303707D01*
X187854152Y-85082999D01*
X187718404Y-84755274D01*
X187649200Y-84407363D01*
X187649200Y-84052637D01*
X187718404Y-83704726D01*
X187854152Y-83377001D01*
X188011103Y-83142108D01*
X188051229Y-83082055D01*
X188302055Y-82831229D01*
X188376293Y-82781625D01*
X188597001Y-82634152D01*
X188924726Y-82498404D01*
X189272637Y-82429200D01*
X189627363Y-82429200D01*
X189975274Y-82498404D01*
X189975274Y-82498404D01*
G37*
G36*
X94905274Y-82488404D02*
G01*
X95232999Y-82624152D01*
X95453707Y-82771625D01*
X95527945Y-82821229D01*
X95778771Y-83072055D01*
X95785454Y-83082057D01*
X95975848Y-83367001D01*
X96111596Y-83694726D01*
X96180800Y-84042637D01*
X96180800Y-84397363D01*
X96111596Y-84745274D01*
X95975848Y-85072999D01*
X95828375Y-85293707D01*
X95778771Y-85367945D01*
X95527945Y-85618771D01*
X95457767Y-85665662D01*
X95232999Y-85815848D01*
X94905274Y-85951596D01*
X94557363Y-86020800D01*
X94202637Y-86020800D01*
X93854726Y-85951596D01*
X93527001Y-85815848D01*
X93302233Y-85665662D01*
X93232055Y-85618771D01*
X92981229Y-85367945D01*
X92931625Y-85293707D01*
X92784152Y-85072999D01*
X92648404Y-84745274D01*
X92579200Y-84397363D01*
X92579200Y-84042637D01*
X92648404Y-83694726D01*
X92784152Y-83367001D01*
X92974546Y-83082057D01*
X92981229Y-83072055D01*
X93232055Y-82821229D01*
X93306293Y-82771625D01*
X93527001Y-82624152D01*
X93854726Y-82488404D01*
X94202637Y-82419200D01*
X94557363Y-82419200D01*
X94905274Y-82488404D01*
X94905274Y-82488404D01*
G37*
G36*
X159195340Y-83038310D02*
G01*
X159227892Y-83048185D01*
X159257898Y-83064223D01*
X159284195Y-83085805D01*
X159305777Y-83112102D01*
X159321815Y-83142108D01*
X159331690Y-83174660D01*
X159335800Y-83216385D01*
X159335800Y-85603615D01*
X159331690Y-85645340D01*
X159321815Y-85677892D01*
X159305777Y-85707898D01*
X159284195Y-85734195D01*
X159257898Y-85755777D01*
X159227892Y-85771815D01*
X159195340Y-85781690D01*
X159153615Y-85785800D01*
X158166385Y-85785800D01*
X158124660Y-85781690D01*
X158092108Y-85771815D01*
X158062102Y-85755777D01*
X158035805Y-85734195D01*
X158014223Y-85707898D01*
X157998185Y-85677892D01*
X157988310Y-85645340D01*
X157984200Y-85603615D01*
X157984200Y-83216385D01*
X157988310Y-83174660D01*
X157998185Y-83142108D01*
X158014223Y-83112102D01*
X158035805Y-83085805D01*
X158062102Y-83064223D01*
X158092108Y-83048185D01*
X158124660Y-83038310D01*
X158166385Y-83034200D01*
X159153615Y-83034200D01*
X159195340Y-83038310D01*
X159195340Y-83038310D01*
G37*
G36*
X161995340Y-83038310D02*
G01*
X162027892Y-83048185D01*
X162057898Y-83064223D01*
X162084195Y-83085805D01*
X162105777Y-83112102D01*
X162121815Y-83142108D01*
X162131690Y-83174660D01*
X162135800Y-83216385D01*
X162135800Y-85603615D01*
X162131690Y-85645340D01*
X162121815Y-85677892D01*
X162105777Y-85707898D01*
X162084195Y-85734195D01*
X162057898Y-85755777D01*
X162027892Y-85771815D01*
X161995340Y-85781690D01*
X161953615Y-85785800D01*
X160966385Y-85785800D01*
X160924660Y-85781690D01*
X160892108Y-85771815D01*
X160862102Y-85755777D01*
X160835805Y-85734195D01*
X160814223Y-85707898D01*
X160798185Y-85677892D01*
X160788310Y-85645340D01*
X160784200Y-85603615D01*
X160784200Y-83216385D01*
X160788310Y-83174660D01*
X160798185Y-83142108D01*
X160814223Y-83112102D01*
X160835805Y-83085805D01*
X160862102Y-83064223D01*
X160892108Y-83048185D01*
X160924660Y-83038310D01*
X160966385Y-83034200D01*
X161953615Y-83034200D01*
X161995340Y-83038310D01*
X161995340Y-83038310D01*
G37*
G36*
X162792800Y-81348800D02*
G01*
X161291200Y-81348800D01*
X161291200Y-80947200D01*
X162792800Y-80947200D01*
X162792800Y-81348800D01*
X162792800Y-81348800D01*
G37*
G36*
X167192800Y-81348800D02*
G01*
X165691200Y-81348800D01*
X165691200Y-80947200D01*
X167192800Y-80947200D01*
X167192800Y-81348800D01*
X167192800Y-81348800D01*
G37*
G36*
X165117800Y-80873800D02*
G01*
X163366200Y-80873800D01*
X163366200Y-77922200D01*
X165117800Y-77922200D01*
X165117800Y-80873800D01*
X165117800Y-80873800D01*
G37*
G36*
X158453528Y-79500614D02*
G01*
X158484166Y-79509908D01*
X158512416Y-79525008D01*
X158537174Y-79545326D01*
X158557492Y-79570084D01*
X158572592Y-79598334D01*
X158581886Y-79628972D01*
X158585800Y-79668714D01*
X158585800Y-80301286D01*
X158581886Y-80341028D01*
X158572592Y-80371666D01*
X158557492Y-80399916D01*
X158537174Y-80424674D01*
X158512416Y-80444992D01*
X158484166Y-80460092D01*
X158453528Y-80469386D01*
X158413786Y-80473300D01*
X157706214Y-80473300D01*
X157666472Y-80469386D01*
X157635834Y-80460092D01*
X157607584Y-80444992D01*
X157582826Y-80424674D01*
X157562508Y-80399916D01*
X157547408Y-80371666D01*
X157538114Y-80341028D01*
X157534200Y-80301286D01*
X157534200Y-79668714D01*
X157538114Y-79628972D01*
X157547408Y-79598334D01*
X157562508Y-79570084D01*
X157582826Y-79545326D01*
X157607584Y-79525008D01*
X157635834Y-79509908D01*
X157666472Y-79500614D01*
X157706214Y-79496700D01*
X158413786Y-79496700D01*
X158453528Y-79500614D01*
X158453528Y-79500614D01*
G37*
G36*
X160203528Y-79463114D02*
G01*
X160234166Y-79472408D01*
X160262416Y-79487508D01*
X160287174Y-79507826D01*
X160307492Y-79532584D01*
X160322592Y-79560834D01*
X160331886Y-79591472D01*
X160335800Y-79631214D01*
X160335800Y-80263786D01*
X160331886Y-80303528D01*
X160322592Y-80334166D01*
X160307492Y-80362416D01*
X160287174Y-80387174D01*
X160262416Y-80407492D01*
X160234166Y-80422592D01*
X160203528Y-80431886D01*
X160163786Y-80435800D01*
X159456214Y-80435800D01*
X159416472Y-80431886D01*
X159385834Y-80422592D01*
X159357584Y-80407492D01*
X159332826Y-80387174D01*
X159312508Y-80362416D01*
X159297408Y-80334166D01*
X159288114Y-80303528D01*
X159284200Y-80263786D01*
X159284200Y-79631214D01*
X159288114Y-79591472D01*
X159297408Y-79560834D01*
X159312508Y-79532584D01*
X159332826Y-79507826D01*
X159357584Y-79487508D01*
X159385834Y-79472408D01*
X159416472Y-79463114D01*
X159456214Y-79459200D01*
X160163786Y-79459200D01*
X160203528Y-79463114D01*
X160203528Y-79463114D01*
G37*
G36*
X162792800Y-80348800D02*
G01*
X161291200Y-80348800D01*
X161291200Y-79947200D01*
X162792800Y-79947200D01*
X162792800Y-80348800D01*
X162792800Y-80348800D01*
G37*
G36*
X167192800Y-80348800D02*
G01*
X165691200Y-80348800D01*
X165691200Y-79947200D01*
X167192800Y-79947200D01*
X167192800Y-80348800D01*
X167192800Y-80348800D01*
G37*
G36*
X148983441Y-76241480D02*
G01*
X149316262Y-76379338D01*
X149615792Y-76579478D01*
X149870522Y-76834208D01*
X150070662Y-77133738D01*
X150208520Y-77466559D01*
X150278800Y-77819879D01*
X150278800Y-78180121D01*
X150208520Y-78533441D01*
X150070662Y-78866262D01*
X149870522Y-79165792D01*
X149615792Y-79420522D01*
X149316262Y-79620662D01*
X148983441Y-79758520D01*
X148630121Y-79828800D01*
X148269879Y-79828800D01*
X147916559Y-79758520D01*
X147583738Y-79620662D01*
X147284208Y-79420522D01*
X147029478Y-79165792D01*
X146829338Y-78866262D01*
X146691480Y-78533441D01*
X146621200Y-78180121D01*
X146621200Y-77819879D01*
X146691480Y-77466559D01*
X146829338Y-77133738D01*
X147029478Y-76834208D01*
X147284208Y-76579478D01*
X147583738Y-76379338D01*
X147916559Y-76241480D01*
X148269879Y-76171200D01*
X148630121Y-76171200D01*
X148983441Y-76241480D01*
X148983441Y-76241480D01*
G37*
G36*
X167192800Y-79348800D02*
G01*
X165691200Y-79348800D01*
X165691200Y-77447200D01*
X167192800Y-77447200D01*
X167192800Y-79348800D01*
X167192800Y-79348800D01*
G37*
G36*
X162792800Y-79348800D02*
G01*
X161291200Y-79348800D01*
X161291200Y-77447200D01*
X162792800Y-77447200D01*
X162792800Y-79348800D01*
X162792800Y-79348800D01*
G37*
G36*
X158453528Y-77925614D02*
G01*
X158484166Y-77934908D01*
X158512416Y-77950008D01*
X158537174Y-77970326D01*
X158557492Y-77995084D01*
X158572592Y-78023334D01*
X158581886Y-78053972D01*
X158585800Y-78093714D01*
X158585800Y-78726286D01*
X158581886Y-78766028D01*
X158572592Y-78796666D01*
X158557492Y-78824916D01*
X158537174Y-78849674D01*
X158512416Y-78869992D01*
X158484166Y-78885092D01*
X158453528Y-78894386D01*
X158413786Y-78898300D01*
X157706214Y-78898300D01*
X157666472Y-78894386D01*
X157635834Y-78885092D01*
X157607584Y-78869992D01*
X157582826Y-78849674D01*
X157562508Y-78824916D01*
X157547408Y-78796666D01*
X157538114Y-78766028D01*
X157534200Y-78726286D01*
X157534200Y-78093714D01*
X157538114Y-78053972D01*
X157547408Y-78023334D01*
X157562508Y-77995084D01*
X157582826Y-77970326D01*
X157607584Y-77950008D01*
X157635834Y-77934908D01*
X157666472Y-77925614D01*
X157706214Y-77921700D01*
X158413786Y-77921700D01*
X158453528Y-77925614D01*
X158453528Y-77925614D01*
G37*
G36*
X160203528Y-77888114D02*
G01*
X160234166Y-77897408D01*
X160262416Y-77912508D01*
X160287174Y-77932826D01*
X160307492Y-77957584D01*
X160322592Y-77985834D01*
X160331886Y-78016472D01*
X160335800Y-78056214D01*
X160335800Y-78688786D01*
X160331886Y-78728528D01*
X160322592Y-78759166D01*
X160307492Y-78787416D01*
X160287174Y-78812174D01*
X160262416Y-78832492D01*
X160234166Y-78847592D01*
X160203528Y-78856886D01*
X160163786Y-78860800D01*
X159456214Y-78860800D01*
X159416472Y-78856886D01*
X159385834Y-78847592D01*
X159357584Y-78832492D01*
X159332826Y-78812174D01*
X159312508Y-78787416D01*
X159297408Y-78759166D01*
X159288114Y-78728528D01*
X159284200Y-78688786D01*
X159284200Y-78056214D01*
X159288114Y-78016472D01*
X159297408Y-77985834D01*
X159312508Y-77957584D01*
X159332826Y-77932826D01*
X159357584Y-77912508D01*
X159385834Y-77897408D01*
X159416472Y-77888114D01*
X159456214Y-77884200D01*
X160163786Y-77884200D01*
X160203528Y-77888114D01*
X160203528Y-77888114D01*
G37*
G36*
X103078219Y-76217077D02*
G01*
X103295476Y-76307068D01*
X103491003Y-76437715D01*
X103657285Y-76603997D01*
X103787932Y-76799524D01*
X103877923Y-77016781D01*
X103923800Y-77247421D01*
X103923800Y-77482579D01*
X103877923Y-77713219D01*
X103787932Y-77930476D01*
X103657285Y-78126003D01*
X103491003Y-78292285D01*
X103295476Y-78422932D01*
X103078219Y-78512923D01*
X102847579Y-78558800D01*
X102612421Y-78558800D01*
X102381781Y-78512923D01*
X102164524Y-78422932D01*
X101968997Y-78292285D01*
X101802715Y-78126003D01*
X101672068Y-77930476D01*
X101582077Y-77713219D01*
X101536200Y-77482579D01*
X101536200Y-77247421D01*
X101582077Y-77016781D01*
X101672068Y-76799524D01*
X101802715Y-76603997D01*
X101968997Y-76437715D01*
X102164524Y-76307068D01*
X102381781Y-76217077D01*
X102612421Y-76171200D01*
X102847579Y-76171200D01*
X103078219Y-76217077D01*
X103078219Y-76217077D01*
G37*
G36*
X134714751Y-75956128D02*
G01*
X134714753Y-75956129D01*
X134714754Y-75956129D01*
X134861216Y-76016795D01*
X134993031Y-76104872D01*
X135105128Y-76216969D01*
X135193205Y-76348784D01*
X135253871Y-76495246D01*
X135253872Y-76495249D01*
X135284800Y-76650734D01*
X135284800Y-76809266D01*
X135253872Y-76964751D01*
X135253871Y-76964754D01*
X135193205Y-77111216D01*
X135105128Y-77243031D01*
X134993031Y-77355128D01*
X134861216Y-77443205D01*
X134714754Y-77503871D01*
X134714753Y-77503871D01*
X134714751Y-77503872D01*
X134559266Y-77534800D01*
X134400734Y-77534800D01*
X134245249Y-77503872D01*
X134245247Y-77503871D01*
X134245246Y-77503871D01*
X134098784Y-77443205D01*
X133966969Y-77355128D01*
X133854872Y-77243031D01*
X133766795Y-77111216D01*
X133706129Y-76964754D01*
X133706128Y-76964751D01*
X133675200Y-76809266D01*
X133675200Y-76650734D01*
X133706128Y-76495249D01*
X133706129Y-76495246D01*
X133766795Y-76348784D01*
X133854872Y-76216969D01*
X133966969Y-76104872D01*
X134098784Y-76016795D01*
X134245246Y-75956129D01*
X134245247Y-75956129D01*
X134245249Y-75956128D01*
X134400734Y-75925200D01*
X134559266Y-75925200D01*
X134714751Y-75956128D01*
X134714751Y-75956128D01*
G37*
G36*
X124554751Y-75956128D02*
G01*
X124554753Y-75956129D01*
X124554754Y-75956129D01*
X124701216Y-76016795D01*
X124833031Y-76104872D01*
X124945128Y-76216969D01*
X125033205Y-76348784D01*
X125093871Y-76495246D01*
X125093872Y-76495249D01*
X125124800Y-76650734D01*
X125124800Y-76809266D01*
X125093872Y-76964751D01*
X125093871Y-76964754D01*
X125033205Y-77111216D01*
X124945128Y-77243031D01*
X124833031Y-77355128D01*
X124701216Y-77443205D01*
X124554754Y-77503871D01*
X124554753Y-77503871D01*
X124554751Y-77503872D01*
X124399266Y-77534800D01*
X124240734Y-77534800D01*
X124085249Y-77503872D01*
X124085247Y-77503871D01*
X124085246Y-77503871D01*
X123938784Y-77443205D01*
X123806969Y-77355128D01*
X123694872Y-77243031D01*
X123606795Y-77111216D01*
X123546129Y-76964754D01*
X123546128Y-76964751D01*
X123515200Y-76809266D01*
X123515200Y-76650734D01*
X123546128Y-76495249D01*
X123546129Y-76495246D01*
X123606795Y-76348784D01*
X123694872Y-76216969D01*
X123806969Y-76104872D01*
X123938784Y-76016795D01*
X124085246Y-75956129D01*
X124085247Y-75956129D01*
X124085249Y-75956128D01*
X124240734Y-75925200D01*
X124399266Y-75925200D01*
X124554751Y-75956128D01*
X124554751Y-75956128D01*
G37*
G36*
X127094751Y-75956128D02*
G01*
X127094753Y-75956129D01*
X127094754Y-75956129D01*
X127241216Y-76016795D01*
X127373031Y-76104872D01*
X127485128Y-76216969D01*
X127573205Y-76348784D01*
X127633871Y-76495246D01*
X127633872Y-76495249D01*
X127664800Y-76650734D01*
X127664800Y-76809266D01*
X127633872Y-76964751D01*
X127633871Y-76964754D01*
X127573205Y-77111216D01*
X127485128Y-77243031D01*
X127373031Y-77355128D01*
X127241216Y-77443205D01*
X127094754Y-77503871D01*
X127094753Y-77503871D01*
X127094751Y-77503872D01*
X126939266Y-77534800D01*
X126780734Y-77534800D01*
X126625249Y-77503872D01*
X126625247Y-77503871D01*
X126625246Y-77503871D01*
X126478784Y-77443205D01*
X126346969Y-77355128D01*
X126234872Y-77243031D01*
X126146795Y-77111216D01*
X126086129Y-76964754D01*
X126086128Y-76964751D01*
X126055200Y-76809266D01*
X126055200Y-76650734D01*
X126086128Y-76495249D01*
X126086129Y-76495246D01*
X126146795Y-76348784D01*
X126234872Y-76216969D01*
X126346969Y-76104872D01*
X126478784Y-76016795D01*
X126625246Y-75956129D01*
X126625247Y-75956129D01*
X126625249Y-75956128D01*
X126780734Y-75925200D01*
X126939266Y-75925200D01*
X127094751Y-75956128D01*
X127094751Y-75956128D01*
G37*
G36*
X129634751Y-75956128D02*
G01*
X129634753Y-75956129D01*
X129634754Y-75956129D01*
X129781216Y-76016795D01*
X129913031Y-76104872D01*
X130025128Y-76216969D01*
X130113205Y-76348784D01*
X130173871Y-76495246D01*
X130173872Y-76495249D01*
X130204800Y-76650734D01*
X130204800Y-76809266D01*
X130173872Y-76964751D01*
X130173871Y-76964754D01*
X130113205Y-77111216D01*
X130025128Y-77243031D01*
X129913031Y-77355128D01*
X129781216Y-77443205D01*
X129634754Y-77503871D01*
X129634753Y-77503871D01*
X129634751Y-77503872D01*
X129479266Y-77534800D01*
X129320734Y-77534800D01*
X129165249Y-77503872D01*
X129165247Y-77503871D01*
X129165246Y-77503871D01*
X129018784Y-77443205D01*
X128886969Y-77355128D01*
X128774872Y-77243031D01*
X128686795Y-77111216D01*
X128626129Y-76964754D01*
X128626128Y-76964751D01*
X128595200Y-76809266D01*
X128595200Y-76650734D01*
X128626128Y-76495249D01*
X128626129Y-76495246D01*
X128686795Y-76348784D01*
X128774872Y-76216969D01*
X128886969Y-76104872D01*
X129018784Y-76016795D01*
X129165246Y-75956129D01*
X129165247Y-75956129D01*
X129165249Y-75956128D01*
X129320734Y-75925200D01*
X129479266Y-75925200D01*
X129634751Y-75956128D01*
X129634751Y-75956128D01*
G37*
G36*
X132174751Y-75956128D02*
G01*
X132174753Y-75956129D01*
X132174754Y-75956129D01*
X132321216Y-76016795D01*
X132453031Y-76104872D01*
X132565128Y-76216969D01*
X132653205Y-76348784D01*
X132713871Y-76495246D01*
X132713872Y-76495249D01*
X132744800Y-76650734D01*
X132744800Y-76809266D01*
X132713872Y-76964751D01*
X132713871Y-76964754D01*
X132653205Y-77111216D01*
X132565128Y-77243031D01*
X132453031Y-77355128D01*
X132321216Y-77443205D01*
X132174754Y-77503871D01*
X132174753Y-77503871D01*
X132174751Y-77503872D01*
X132019266Y-77534800D01*
X131860734Y-77534800D01*
X131705249Y-77503872D01*
X131705247Y-77503871D01*
X131705246Y-77503871D01*
X131558784Y-77443205D01*
X131426969Y-77355128D01*
X131314872Y-77243031D01*
X131226795Y-77111216D01*
X131166129Y-76964754D01*
X131166128Y-76964751D01*
X131135200Y-76809266D01*
X131135200Y-76650734D01*
X131166128Y-76495249D01*
X131166129Y-76495246D01*
X131226795Y-76348784D01*
X131314872Y-76216969D01*
X131426969Y-76104872D01*
X131558784Y-76016795D01*
X131705246Y-75956129D01*
X131705247Y-75956129D01*
X131705249Y-75956128D01*
X131860734Y-75925200D01*
X132019266Y-75925200D01*
X132174751Y-75956128D01*
X132174751Y-75956128D01*
G37*
G36*
X145444800Y-77534800D02*
G01*
X143835200Y-77534800D01*
X143835200Y-75925200D01*
X145444800Y-75925200D01*
X145444800Y-77534800D01*
X145444800Y-77534800D01*
G37*
G36*
X137254751Y-75956128D02*
G01*
X137254753Y-75956129D01*
X137254754Y-75956129D01*
X137401216Y-76016795D01*
X137533031Y-76104872D01*
X137645128Y-76216969D01*
X137733205Y-76348784D01*
X137793871Y-76495246D01*
X137793872Y-76495249D01*
X137824800Y-76650734D01*
X137824800Y-76809266D01*
X137793872Y-76964751D01*
X137793871Y-76964754D01*
X137733205Y-77111216D01*
X137645128Y-77243031D01*
X137533031Y-77355128D01*
X137401216Y-77443205D01*
X137254754Y-77503871D01*
X137254753Y-77503871D01*
X137254751Y-77503872D01*
X137099266Y-77534800D01*
X136940734Y-77534800D01*
X136785249Y-77503872D01*
X136785247Y-77503871D01*
X136785246Y-77503871D01*
X136638784Y-77443205D01*
X136506969Y-77355128D01*
X136394872Y-77243031D01*
X136306795Y-77111216D01*
X136246129Y-76964754D01*
X136246128Y-76964751D01*
X136215200Y-76809266D01*
X136215200Y-76650734D01*
X136246128Y-76495249D01*
X136246129Y-76495246D01*
X136306795Y-76348784D01*
X136394872Y-76216969D01*
X136506969Y-76104872D01*
X136638784Y-76016795D01*
X136785246Y-75956129D01*
X136785247Y-75956129D01*
X136785249Y-75956128D01*
X136940734Y-75925200D01*
X137099266Y-75925200D01*
X137254751Y-75956128D01*
X137254751Y-75956128D01*
G37*
G36*
X139794751Y-75956128D02*
G01*
X139794753Y-75956129D01*
X139794754Y-75956129D01*
X139941216Y-76016795D01*
X140073031Y-76104872D01*
X140185128Y-76216969D01*
X140273205Y-76348784D01*
X140333871Y-76495246D01*
X140333872Y-76495249D01*
X140364800Y-76650734D01*
X140364800Y-76809266D01*
X140333872Y-76964751D01*
X140333871Y-76964754D01*
X140273205Y-77111216D01*
X140185128Y-77243031D01*
X140073031Y-77355128D01*
X139941216Y-77443205D01*
X139794754Y-77503871D01*
X139794753Y-77503871D01*
X139794751Y-77503872D01*
X139639266Y-77534800D01*
X139480734Y-77534800D01*
X139325249Y-77503872D01*
X139325247Y-77503871D01*
X139325246Y-77503871D01*
X139178784Y-77443205D01*
X139046969Y-77355128D01*
X138934872Y-77243031D01*
X138846795Y-77111216D01*
X138786129Y-76964754D01*
X138786128Y-76964751D01*
X138755200Y-76809266D01*
X138755200Y-76650734D01*
X138786128Y-76495249D01*
X138786129Y-76495246D01*
X138846795Y-76348784D01*
X138934872Y-76216969D01*
X139046969Y-76104872D01*
X139178784Y-76016795D01*
X139325246Y-75956129D01*
X139325247Y-75956129D01*
X139325249Y-75956128D01*
X139480734Y-75925200D01*
X139639266Y-75925200D01*
X139794751Y-75956128D01*
X139794751Y-75956128D01*
G37*
G36*
X109314751Y-75956128D02*
G01*
X109314753Y-75956129D01*
X109314754Y-75956129D01*
X109461216Y-76016795D01*
X109593031Y-76104872D01*
X109705128Y-76216969D01*
X109793205Y-76348784D01*
X109853871Y-76495246D01*
X109853872Y-76495249D01*
X109884800Y-76650734D01*
X109884800Y-76809266D01*
X109853872Y-76964751D01*
X109853871Y-76964754D01*
X109793205Y-77111216D01*
X109705128Y-77243031D01*
X109593031Y-77355128D01*
X109461216Y-77443205D01*
X109314754Y-77503871D01*
X109314753Y-77503871D01*
X109314751Y-77503872D01*
X109159266Y-77534800D01*
X109000734Y-77534800D01*
X108845249Y-77503872D01*
X108845247Y-77503871D01*
X108845246Y-77503871D01*
X108698784Y-77443205D01*
X108566969Y-77355128D01*
X108454872Y-77243031D01*
X108366795Y-77111216D01*
X108306129Y-76964754D01*
X108306128Y-76964751D01*
X108275200Y-76809266D01*
X108275200Y-76650734D01*
X108306128Y-76495249D01*
X108306129Y-76495246D01*
X108366795Y-76348784D01*
X108454872Y-76216969D01*
X108566969Y-76104872D01*
X108698784Y-76016795D01*
X108845246Y-75956129D01*
X108845247Y-75956129D01*
X108845249Y-75956128D01*
X109000734Y-75925200D01*
X109159266Y-75925200D01*
X109314751Y-75956128D01*
X109314751Y-75956128D01*
G37*
G36*
X142334751Y-75956128D02*
G01*
X142334753Y-75956129D01*
X142334754Y-75956129D01*
X142481216Y-76016795D01*
X142613031Y-76104872D01*
X142725128Y-76216969D01*
X142813205Y-76348784D01*
X142873871Y-76495246D01*
X142873872Y-76495249D01*
X142904800Y-76650734D01*
X142904800Y-76809266D01*
X142873872Y-76964751D01*
X142873871Y-76964754D01*
X142813205Y-77111216D01*
X142725128Y-77243031D01*
X142613031Y-77355128D01*
X142481216Y-77443205D01*
X142334754Y-77503871D01*
X142334753Y-77503871D01*
X142334751Y-77503872D01*
X142179266Y-77534800D01*
X142020734Y-77534800D01*
X141865249Y-77503872D01*
X141865247Y-77503871D01*
X141865246Y-77503871D01*
X141718784Y-77443205D01*
X141586969Y-77355128D01*
X141474872Y-77243031D01*
X141386795Y-77111216D01*
X141326129Y-76964754D01*
X141326128Y-76964751D01*
X141295200Y-76809266D01*
X141295200Y-76650734D01*
X141326128Y-76495249D01*
X141326129Y-76495246D01*
X141386795Y-76348784D01*
X141474872Y-76216969D01*
X141586969Y-76104872D01*
X141718784Y-76016795D01*
X141865246Y-75956129D01*
X141865247Y-75956129D01*
X141865249Y-75956128D01*
X142020734Y-75925200D01*
X142179266Y-75925200D01*
X142334751Y-75956128D01*
X142334751Y-75956128D01*
G37*
G36*
X116934751Y-75956128D02*
G01*
X116934753Y-75956129D01*
X116934754Y-75956129D01*
X117081216Y-76016795D01*
X117213031Y-76104872D01*
X117325128Y-76216969D01*
X117413205Y-76348784D01*
X117473871Y-76495246D01*
X117473872Y-76495249D01*
X117504800Y-76650734D01*
X117504800Y-76809266D01*
X117473872Y-76964751D01*
X117473871Y-76964754D01*
X117413205Y-77111216D01*
X117325128Y-77243031D01*
X117213031Y-77355128D01*
X117081216Y-77443205D01*
X116934754Y-77503871D01*
X116934753Y-77503871D01*
X116934751Y-77503872D01*
X116779266Y-77534800D01*
X116620734Y-77534800D01*
X116465249Y-77503872D01*
X116465247Y-77503871D01*
X116465246Y-77503871D01*
X116318784Y-77443205D01*
X116186969Y-77355128D01*
X116074872Y-77243031D01*
X115986795Y-77111216D01*
X115926129Y-76964754D01*
X115926128Y-76964751D01*
X115895200Y-76809266D01*
X115895200Y-76650734D01*
X115926128Y-76495249D01*
X115926129Y-76495246D01*
X115986795Y-76348784D01*
X116074872Y-76216969D01*
X116186969Y-76104872D01*
X116318784Y-76016795D01*
X116465246Y-75956129D01*
X116465247Y-75956129D01*
X116465249Y-75956128D01*
X116620734Y-75925200D01*
X116779266Y-75925200D01*
X116934751Y-75956128D01*
X116934751Y-75956128D01*
G37*
G36*
X122014751Y-75956128D02*
G01*
X122014753Y-75956129D01*
X122014754Y-75956129D01*
X122161216Y-76016795D01*
X122293031Y-76104872D01*
X122405128Y-76216969D01*
X122493205Y-76348784D01*
X122553871Y-76495246D01*
X122553872Y-76495249D01*
X122584800Y-76650734D01*
X122584800Y-76809266D01*
X122553872Y-76964751D01*
X122553871Y-76964754D01*
X122493205Y-77111216D01*
X122405128Y-77243031D01*
X122293031Y-77355128D01*
X122161216Y-77443205D01*
X122014754Y-77503871D01*
X122014753Y-77503871D01*
X122014751Y-77503872D01*
X121859266Y-77534800D01*
X121700734Y-77534800D01*
X121545249Y-77503872D01*
X121545247Y-77503871D01*
X121545246Y-77503871D01*
X121398784Y-77443205D01*
X121266969Y-77355128D01*
X121154872Y-77243031D01*
X121066795Y-77111216D01*
X121006129Y-76964754D01*
X121006128Y-76964751D01*
X120975200Y-76809266D01*
X120975200Y-76650734D01*
X121006128Y-76495249D01*
X121006129Y-76495246D01*
X121066795Y-76348784D01*
X121154872Y-76216969D01*
X121266969Y-76104872D01*
X121398784Y-76016795D01*
X121545246Y-75956129D01*
X121545247Y-75956129D01*
X121545249Y-75956128D01*
X121700734Y-75925200D01*
X121859266Y-75925200D01*
X122014751Y-75956128D01*
X122014751Y-75956128D01*
G37*
G36*
X119474751Y-75956128D02*
G01*
X119474753Y-75956129D01*
X119474754Y-75956129D01*
X119621216Y-76016795D01*
X119753031Y-76104872D01*
X119865128Y-76216969D01*
X119953205Y-76348784D01*
X120013871Y-76495246D01*
X120013872Y-76495249D01*
X120044800Y-76650734D01*
X120044800Y-76809266D01*
X120013872Y-76964751D01*
X120013871Y-76964754D01*
X119953205Y-77111216D01*
X119865128Y-77243031D01*
X119753031Y-77355128D01*
X119621216Y-77443205D01*
X119474754Y-77503871D01*
X119474753Y-77503871D01*
X119474751Y-77503872D01*
X119319266Y-77534800D01*
X119160734Y-77534800D01*
X119005249Y-77503872D01*
X119005247Y-77503871D01*
X119005246Y-77503871D01*
X118858784Y-77443205D01*
X118726969Y-77355128D01*
X118614872Y-77243031D01*
X118526795Y-77111216D01*
X118466129Y-76964754D01*
X118466128Y-76964751D01*
X118435200Y-76809266D01*
X118435200Y-76650734D01*
X118466128Y-76495249D01*
X118466129Y-76495246D01*
X118526795Y-76348784D01*
X118614872Y-76216969D01*
X118726969Y-76104872D01*
X118858784Y-76016795D01*
X119005246Y-75956129D01*
X119005247Y-75956129D01*
X119005249Y-75956128D01*
X119160734Y-75925200D01*
X119319266Y-75925200D01*
X119474751Y-75956128D01*
X119474751Y-75956128D01*
G37*
G36*
X114394751Y-75956128D02*
G01*
X114394753Y-75956129D01*
X114394754Y-75956129D01*
X114541216Y-76016795D01*
X114673031Y-76104872D01*
X114785128Y-76216969D01*
X114873205Y-76348784D01*
X114933871Y-76495246D01*
X114933872Y-76495249D01*
X114964800Y-76650734D01*
X114964800Y-76809266D01*
X114933872Y-76964751D01*
X114933871Y-76964754D01*
X114873205Y-77111216D01*
X114785128Y-77243031D01*
X114673031Y-77355128D01*
X114541216Y-77443205D01*
X114394754Y-77503871D01*
X114394753Y-77503871D01*
X114394751Y-77503872D01*
X114239266Y-77534800D01*
X114080734Y-77534800D01*
X113925249Y-77503872D01*
X113925247Y-77503871D01*
X113925246Y-77503871D01*
X113778784Y-77443205D01*
X113646969Y-77355128D01*
X113534872Y-77243031D01*
X113446795Y-77111216D01*
X113386129Y-76964754D01*
X113386128Y-76964751D01*
X113355200Y-76809266D01*
X113355200Y-76650734D01*
X113386128Y-76495249D01*
X113386129Y-76495246D01*
X113446795Y-76348784D01*
X113534872Y-76216969D01*
X113646969Y-76104872D01*
X113778784Y-76016795D01*
X113925246Y-75956129D01*
X113925247Y-75956129D01*
X113925249Y-75956128D01*
X114080734Y-75925200D01*
X114239266Y-75925200D01*
X114394751Y-75956128D01*
X114394751Y-75956128D01*
G37*
G36*
X111854751Y-75956128D02*
G01*
X111854753Y-75956129D01*
X111854754Y-75956129D01*
X112001216Y-76016795D01*
X112133031Y-76104872D01*
X112245128Y-76216969D01*
X112333205Y-76348784D01*
X112393871Y-76495246D01*
X112393872Y-76495249D01*
X112424800Y-76650734D01*
X112424800Y-76809266D01*
X112393872Y-76964751D01*
X112393871Y-76964754D01*
X112333205Y-77111216D01*
X112245128Y-77243031D01*
X112133031Y-77355128D01*
X112001216Y-77443205D01*
X111854754Y-77503871D01*
X111854753Y-77503871D01*
X111854751Y-77503872D01*
X111699266Y-77534800D01*
X111540734Y-77534800D01*
X111385249Y-77503872D01*
X111385247Y-77503871D01*
X111385246Y-77503871D01*
X111238784Y-77443205D01*
X111106969Y-77355128D01*
X110994872Y-77243031D01*
X110906795Y-77111216D01*
X110846129Y-76964754D01*
X110846128Y-76964751D01*
X110815200Y-76809266D01*
X110815200Y-76650734D01*
X110846128Y-76495249D01*
X110846129Y-76495246D01*
X110906795Y-76348784D01*
X110994872Y-76216969D01*
X111106969Y-76104872D01*
X111238784Y-76016795D01*
X111385246Y-75956129D01*
X111385247Y-75956129D01*
X111385249Y-75956128D01*
X111540734Y-75925200D01*
X111699266Y-75925200D01*
X111854751Y-75956128D01*
X111854751Y-75956128D01*
G37*
G36*
X106774751Y-75956128D02*
G01*
X106774753Y-75956129D01*
X106774754Y-75956129D01*
X106921216Y-76016795D01*
X107053031Y-76104872D01*
X107165128Y-76216969D01*
X107253205Y-76348784D01*
X107313871Y-76495246D01*
X107313872Y-76495249D01*
X107344800Y-76650734D01*
X107344800Y-76809266D01*
X107313872Y-76964751D01*
X107313871Y-76964754D01*
X107253205Y-77111216D01*
X107165128Y-77243031D01*
X107053031Y-77355128D01*
X106921216Y-77443205D01*
X106774754Y-77503871D01*
X106774753Y-77503871D01*
X106774751Y-77503872D01*
X106619266Y-77534800D01*
X106460734Y-77534800D01*
X106305249Y-77503872D01*
X106305247Y-77503871D01*
X106305246Y-77503871D01*
X106158784Y-77443205D01*
X106026969Y-77355128D01*
X105914872Y-77243031D01*
X105826795Y-77111216D01*
X105766129Y-76964754D01*
X105766128Y-76964751D01*
X105735200Y-76809266D01*
X105735200Y-76650734D01*
X105766128Y-76495249D01*
X105766129Y-76495246D01*
X105826795Y-76348784D01*
X105914872Y-76216969D01*
X106026969Y-76104872D01*
X106158784Y-76016795D01*
X106305246Y-75956129D01*
X106305247Y-75956129D01*
X106305249Y-75956128D01*
X106460734Y-75925200D01*
X106619266Y-75925200D01*
X106774751Y-75956128D01*
X106774751Y-75956128D01*
G37*
M02*
