M48
; DRILL file {KiCad 5.1.4} date Tue 27 Aug 2019 02:39:47 PM EDT
; FORMAT={-:-/ absolute / inch / decimal}
; #@! TF.CreationDate,2019-08-27T14:39:47-04:00
; #@! TF.GenerationSoftware,Kicad,Pcbnew,5.1.4
; #@! TF.FileFunction,Plated,1,2,PTH
FMAT,2
INCH
T1C0.0157
T2C0.0394
T3C0.1000
%
G90
G05
T1
X4.6102Y-4.1732
X4.7953Y-4.2303
X4.8484Y-4.1713
X4.9084Y-4.02
X4.9655Y-4.02
X5.16Y-4.36
X5.16Y-4.44
X5.2Y-4.4
X5.24Y-4.36
X5.24Y-4.44
X5.39Y-3.7797
X5.39Y-3.947
X5.7756Y-4.1732
X6.36Y-4.36
X6.36Y-4.44
X6.4Y-4.4
X6.4134Y-3.2677
X6.4134Y-3.3071
X6.4134Y-3.3465
X6.4134Y-3.3858
X6.4134Y-3.4252
X6.4134Y-3.4646
X6.4134Y-3.5
X6.44Y-4.36
X6.44Y-4.44
X6.4662Y-3.0865
X6.4662Y-3.1259
X6.4662Y-3.1653
T2
X4.8374Y-2.8878
X4.9374Y-2.8878
X5.0374Y-2.8878
X4.1945Y-3.0209
X4.1945Y-3.8209
X4.2945Y-3.0209
X4.2945Y-3.8209
X4.3945Y-3.0209
X4.3945Y-3.8209
X4.4945Y-3.0209
X4.4945Y-3.8209
X4.5945Y-3.0209
X4.5945Y-3.8209
X4.6945Y-3.0209
X4.6945Y-3.8209
X4.7945Y-3.0209
X4.7945Y-3.8209
X4.8945Y-3.0209
X4.8945Y-3.8209
X4.9945Y-3.0209
X4.9945Y-3.8209
X5.0945Y-3.0209
X5.0945Y-3.8209
X5.1945Y-3.0209
X5.1945Y-3.8209
X5.2945Y-3.0209
X5.2945Y-3.8209
X5.3945Y-3.0209
X5.4945Y-3.0209
X5.5945Y-3.0209
X5.6945Y-3.0209
T3
X5.8445Y-3.0709
X5.8445Y-3.7709
T0
M30
