G04 #@! TF.GenerationSoftware,KiCad,Pcbnew,5.1.4*
G04 #@! TF.CreationDate,2019-08-24T18:03:49-04:00*
G04 #@! TF.ProjectId,siot-gateway-particle,73696f74-2d67-4617-9465-7761792d7061,rev?*
G04 #@! TF.SameCoordinates,Original*
G04 #@! TF.FileFunction,Legend,Top*
G04 #@! TF.FilePolarity,Positive*
%FSLAX46Y46*%
G04 Gerber Fmt 4.6, Leading zero omitted, Abs format (unit mm)*
G04 Created by KiCad (PCBNEW 5.1.4) date 2019-08-24 18:03:49*
%MOMM*%
%LPD*%
G04 APERTURE LIST*
%ADD10C,0.203200*%
%ADD11C,0.127000*%
%ADD12C,0.120000*%
%ADD13C,0.150000*%
%ADD14C,0.050000*%
G04 APERTURE END LIST*
D10*
X144840000Y-78000000D02*
G75*
G03X144840000Y-78000000I-200000J0D01*
G01*
D11*
X150990000Y-75460000D02*
X150990000Y-98320000D01*
X100190000Y-75460000D02*
X150990000Y-75460000D01*
X100190000Y-98320000D02*
X100190000Y-75460000D01*
X150990000Y-98320000D02*
X100190000Y-98320000D01*
D12*
X150200000Y-113960000D02*
X150200000Y-112630000D01*
X151530000Y-113960000D02*
X150200000Y-113960000D01*
X119880000Y-113960000D02*
X119880000Y-112630000D01*
X121210000Y-113960000D02*
X119880000Y-113960000D01*
D13*
X165917000Y-81598000D02*
X167142000Y-81598000D01*
X165917000Y-76973000D02*
X162567000Y-76973000D01*
X165917000Y-81823000D02*
X162567000Y-81823000D01*
X165917000Y-76973000D02*
X165917000Y-77273000D01*
X162567000Y-76973000D02*
X162567000Y-77273000D01*
X162567000Y-81823000D02*
X162567000Y-81523000D01*
X165917000Y-81823000D02*
X165917000Y-81598000D01*
D12*
X159457936Y-85770000D02*
X160662064Y-85770000D01*
X159457936Y-83050000D02*
X160662064Y-83050000D01*
X159300000Y-78997221D02*
X159300000Y-79322779D01*
X160320000Y-78997221D02*
X160320000Y-79322779D01*
X159457936Y-89020000D02*
X160662064Y-89020000D01*
X159457936Y-86300000D02*
X160662064Y-86300000D01*
X157550000Y-79034721D02*
X157550000Y-79360279D01*
X158570000Y-79034721D02*
X158570000Y-79360279D01*
D13*
X158060000Y-89660000D02*
X158060000Y-91660000D01*
X166060000Y-89660000D02*
X158060000Y-89660000D01*
X166060000Y-91660000D02*
X166060000Y-89660000D01*
X158060000Y-97660000D02*
X158060000Y-95660000D01*
X166060000Y-97660000D02*
X158060000Y-97660000D01*
X166060000Y-95660000D02*
X166060000Y-97660000D01*
D12*
X168475748Y-83050000D02*
X165644252Y-83050000D01*
X168475748Y-88270000D02*
X165644252Y-88270000D01*
X124290000Y-104737221D02*
X124290000Y-105062779D01*
X125310000Y-104737221D02*
X125310000Y-105062779D01*
X148790000Y-104649721D02*
X148790000Y-104975279D01*
X149810000Y-104649721D02*
X149810000Y-104975279D01*
X144690000Y-103540000D02*
X142260000Y-103540000D01*
X142930000Y-106610000D02*
X144690000Y-106610000D01*
X121380000Y-103490000D02*
X118950000Y-103490000D01*
X119620000Y-106560000D02*
X121380000Y-106560000D01*
D14*
X143865693Y-99739323D02*
X143865693Y-100875036D01*
X143932500Y-101008650D01*
X143999306Y-101075456D01*
X144132920Y-101142263D01*
X144400146Y-101142263D01*
X144533760Y-101075456D01*
X144600566Y-101008650D01*
X144667373Y-100875036D01*
X144667373Y-99739323D01*
X146070313Y-101142263D02*
X145268633Y-101142263D01*
X145669473Y-101142263D02*
X145669473Y-99739323D01*
X145535860Y-99939743D01*
X145402246Y-100073356D01*
X145268633Y-100140163D01*
X137164030Y-74414644D02*
X137164030Y-73011524D01*
X137698552Y-73011524D01*
X137832182Y-73078340D01*
X137898998Y-73145155D01*
X137965813Y-73278785D01*
X137965813Y-73479231D01*
X137898998Y-73612861D01*
X137832182Y-73679677D01*
X137698552Y-73746492D01*
X137164030Y-73746492D01*
X139168487Y-74414644D02*
X139168487Y-73679677D01*
X139101672Y-73546046D01*
X138968041Y-73479231D01*
X138700780Y-73479231D01*
X138567150Y-73546046D01*
X139168487Y-74347829D02*
X139034857Y-74414644D01*
X138700780Y-74414644D01*
X138567150Y-74347829D01*
X138500335Y-74214199D01*
X138500335Y-74080568D01*
X138567150Y-73946938D01*
X138700780Y-73880122D01*
X139034857Y-73880122D01*
X139168487Y-73813307D01*
X139836640Y-74414644D02*
X139836640Y-73479231D01*
X139836640Y-73746492D02*
X139903455Y-73612861D01*
X139970270Y-73546046D01*
X140103900Y-73479231D01*
X140237531Y-73479231D01*
X140504792Y-73479231D02*
X141039314Y-73479231D01*
X140705238Y-73011524D02*
X140705238Y-74214199D01*
X140772053Y-74347829D01*
X140905683Y-74414644D01*
X141039314Y-74414644D01*
X141507020Y-74414644D02*
X141507020Y-73479231D01*
X141507020Y-73011524D02*
X141440205Y-73078340D01*
X141507020Y-73145155D01*
X141573836Y-73078340D01*
X141507020Y-73011524D01*
X141507020Y-73145155D01*
X142776510Y-74347829D02*
X142642880Y-74414644D01*
X142375619Y-74414644D01*
X142241988Y-74347829D01*
X142175173Y-74281014D01*
X142108358Y-74147383D01*
X142108358Y-73746492D01*
X142175173Y-73612861D01*
X142241988Y-73546046D01*
X142375619Y-73479231D01*
X142642880Y-73479231D01*
X142776510Y-73546046D01*
X143578293Y-74414644D02*
X143444662Y-74347829D01*
X143377847Y-74214199D01*
X143377847Y-73011524D01*
X144647337Y-74347829D02*
X144513706Y-74414644D01*
X144246445Y-74414644D01*
X144112815Y-74347829D01*
X144046000Y-74214199D01*
X144046000Y-73679677D01*
X144112815Y-73546046D01*
X144246445Y-73479231D01*
X144513706Y-73479231D01*
X144647337Y-73546046D01*
X144714152Y-73679677D01*
X144714152Y-73813307D01*
X144046000Y-73946938D01*
X144981413Y-74548275D02*
X146050457Y-74548275D01*
X146384533Y-74414644D02*
X146384533Y-73011524D01*
X146852240Y-74013753D01*
X147319946Y-73011524D01*
X147319946Y-74414644D01*
X148522620Y-74347829D02*
X148388990Y-74414644D01*
X148121729Y-74414644D01*
X147988099Y-74347829D01*
X147921283Y-74214199D01*
X147921283Y-73679677D01*
X147988099Y-73546046D01*
X148121729Y-73479231D01*
X148388990Y-73479231D01*
X148522620Y-73546046D01*
X148589436Y-73679677D01*
X148589436Y-73813307D01*
X147921283Y-73946938D01*
X149123958Y-74347829D02*
X149257588Y-74414644D01*
X149524849Y-74414644D01*
X149658480Y-74347829D01*
X149725295Y-74214199D01*
X149725295Y-74147383D01*
X149658480Y-74013753D01*
X149524849Y-73946938D01*
X149324403Y-73946938D01*
X149190773Y-73880122D01*
X149123958Y-73746492D01*
X149123958Y-73679677D01*
X149190773Y-73546046D01*
X149324403Y-73479231D01*
X149524849Y-73479231D01*
X149658480Y-73546046D01*
X150326632Y-74414644D02*
X150326632Y-73011524D01*
X150927969Y-74414644D02*
X150927969Y-73679677D01*
X150861154Y-73546046D01*
X150727523Y-73479231D01*
X150527078Y-73479231D01*
X150393447Y-73546046D01*
X150326632Y-73612861D01*
D13*
X148952380Y-111693333D02*
X149666666Y-111693333D01*
X149809523Y-111740952D01*
X149904761Y-111836190D01*
X149952380Y-111979047D01*
X149952380Y-112074285D01*
X149047619Y-111264761D02*
X149000000Y-111217142D01*
X148952380Y-111121904D01*
X148952380Y-110883809D01*
X149000000Y-110788571D01*
X149047619Y-110740952D01*
X149142857Y-110693333D01*
X149238095Y-110693333D01*
X149380952Y-110740952D01*
X149952380Y-111312380D01*
X149952380Y-110693333D01*
X162328571Y-108688571D02*
X162376190Y-108545714D01*
X162423809Y-108498095D01*
X162519047Y-108450476D01*
X162661904Y-108450476D01*
X162757142Y-108498095D01*
X162804761Y-108545714D01*
X162852380Y-108640952D01*
X162852380Y-109021904D01*
X161852380Y-109021904D01*
X161852380Y-108688571D01*
X161900000Y-108593333D01*
X161947619Y-108545714D01*
X162042857Y-108498095D01*
X162138095Y-108498095D01*
X162233333Y-108545714D01*
X162280952Y-108593333D01*
X162328571Y-108688571D01*
X162328571Y-109021904D01*
X157276190Y-108560000D02*
X157752380Y-108560000D01*
X156752380Y-108893333D02*
X157276190Y-108560000D01*
X156752380Y-108226666D01*
X152852380Y-108350476D02*
X152376190Y-108683809D01*
X152852380Y-108921904D02*
X151852380Y-108921904D01*
X151852380Y-108540952D01*
X151900000Y-108445714D01*
X151947619Y-108398095D01*
X152042857Y-108350476D01*
X152185714Y-108350476D01*
X152280952Y-108398095D01*
X152328571Y-108445714D01*
X152376190Y-108540952D01*
X152376190Y-108921904D01*
X118632380Y-111693333D02*
X119346666Y-111693333D01*
X119489523Y-111740952D01*
X119584761Y-111836190D01*
X119632380Y-111979047D01*
X119632380Y-112074285D01*
X119632380Y-110693333D02*
X119632380Y-111264761D01*
X119632380Y-110979047D02*
X118632380Y-110979047D01*
X118775238Y-111074285D01*
X118870476Y-111169523D01*
X118918095Y-111264761D01*
X132008571Y-108688571D02*
X132056190Y-108545714D01*
X132103809Y-108498095D01*
X132199047Y-108450476D01*
X132341904Y-108450476D01*
X132437142Y-108498095D01*
X132484761Y-108545714D01*
X132532380Y-108640952D01*
X132532380Y-109021904D01*
X131532380Y-109021904D01*
X131532380Y-108688571D01*
X131580000Y-108593333D01*
X131627619Y-108545714D01*
X131722857Y-108498095D01*
X131818095Y-108498095D01*
X131913333Y-108545714D01*
X131960952Y-108593333D01*
X132008571Y-108688571D01*
X132008571Y-109021904D01*
X126956190Y-108560000D02*
X127432380Y-108560000D01*
X126432380Y-108893333D02*
X126956190Y-108560000D01*
X126432380Y-108226666D01*
X122532380Y-108350476D02*
X122056190Y-108683809D01*
X122532380Y-108921904D02*
X121532380Y-108921904D01*
X121532380Y-108540952D01*
X121580000Y-108445714D01*
X121627619Y-108398095D01*
X121722857Y-108350476D01*
X121865714Y-108350476D01*
X121960952Y-108398095D01*
X122008571Y-108445714D01*
X122056190Y-108540952D01*
X122056190Y-108921904D01*
X163480095Y-82200380D02*
X163480095Y-83009904D01*
X163527714Y-83105142D01*
X163575333Y-83152761D01*
X163670571Y-83200380D01*
X163861047Y-83200380D01*
X163956285Y-83152761D01*
X164003904Y-83105142D01*
X164051523Y-83009904D01*
X164051523Y-82200380D01*
X164480095Y-82295619D02*
X164527714Y-82248000D01*
X164622952Y-82200380D01*
X164861047Y-82200380D01*
X164956285Y-82248000D01*
X165003904Y-82295619D01*
X165051523Y-82390857D01*
X165051523Y-82486095D01*
X165003904Y-82628952D01*
X164432476Y-83200380D01*
X165051523Y-83200380D01*
X156493333Y-84767142D02*
X156445714Y-84814761D01*
X156302857Y-84862380D01*
X156207619Y-84862380D01*
X156064761Y-84814761D01*
X155969523Y-84719523D01*
X155921904Y-84624285D01*
X155874285Y-84433809D01*
X155874285Y-84290952D01*
X155921904Y-84100476D01*
X155969523Y-84005238D01*
X156064761Y-83910000D01*
X156207619Y-83862380D01*
X156302857Y-83862380D01*
X156445714Y-83910000D01*
X156493333Y-83957619D01*
X157350476Y-84195714D02*
X157350476Y-84862380D01*
X157112380Y-83814761D02*
X156874285Y-84529047D01*
X157493333Y-84529047D01*
X160167142Y-76576666D02*
X160214761Y-76624285D01*
X160262380Y-76767142D01*
X160262380Y-76862380D01*
X160214761Y-77005238D01*
X160119523Y-77100476D01*
X160024285Y-77148095D01*
X159833809Y-77195714D01*
X159690952Y-77195714D01*
X159500476Y-77148095D01*
X159405238Y-77100476D01*
X159310000Y-77005238D01*
X159262380Y-76862380D01*
X159262380Y-76767142D01*
X159310000Y-76624285D01*
X159357619Y-76576666D01*
X159357619Y-76195714D02*
X159310000Y-76148095D01*
X159262380Y-76052857D01*
X159262380Y-75814761D01*
X159310000Y-75719523D01*
X159357619Y-75671904D01*
X159452857Y-75624285D01*
X159548095Y-75624285D01*
X159690952Y-75671904D01*
X160262380Y-76243333D01*
X160262380Y-75624285D01*
X156493333Y-88267142D02*
X156445714Y-88314761D01*
X156302857Y-88362380D01*
X156207619Y-88362380D01*
X156064761Y-88314761D01*
X155969523Y-88219523D01*
X155921904Y-88124285D01*
X155874285Y-87933809D01*
X155874285Y-87790952D01*
X155921904Y-87600476D01*
X155969523Y-87505238D01*
X156064761Y-87410000D01*
X156207619Y-87362380D01*
X156302857Y-87362380D01*
X156445714Y-87410000D01*
X156493333Y-87457619D01*
X156826666Y-87362380D02*
X157445714Y-87362380D01*
X157112380Y-87743333D01*
X157255238Y-87743333D01*
X157350476Y-87790952D01*
X157398095Y-87838571D01*
X157445714Y-87933809D01*
X157445714Y-88171904D01*
X157398095Y-88267142D01*
X157350476Y-88314761D01*
X157255238Y-88362380D01*
X156969523Y-88362380D01*
X156874285Y-88314761D01*
X156826666Y-88267142D01*
X158512380Y-76826666D02*
X158036190Y-77160000D01*
X158512380Y-77398095D02*
X157512380Y-77398095D01*
X157512380Y-77017142D01*
X157560000Y-76921904D01*
X157607619Y-76874285D01*
X157702857Y-76826666D01*
X157845714Y-76826666D01*
X157940952Y-76874285D01*
X157988571Y-76921904D01*
X158036190Y-77017142D01*
X158036190Y-77398095D01*
X158512380Y-75874285D02*
X158512380Y-76445714D01*
X158512380Y-76160000D02*
X157512380Y-76160000D01*
X157655238Y-76255238D01*
X157750476Y-76350476D01*
X157798095Y-76445714D01*
X161868333Y-98962380D02*
X161392142Y-98962380D01*
X161392142Y-97962380D01*
X162725476Y-98962380D02*
X162154047Y-98962380D01*
X162439761Y-98962380D02*
X162439761Y-97962380D01*
X162344523Y-98105238D01*
X162249285Y-98200476D01*
X162154047Y-98248095D01*
X171643333Y-86267142D02*
X171595714Y-86314761D01*
X171452857Y-86362380D01*
X171357619Y-86362380D01*
X171214761Y-86314761D01*
X171119523Y-86219523D01*
X171071904Y-86124285D01*
X171024285Y-85933809D01*
X171024285Y-85790952D01*
X171071904Y-85600476D01*
X171119523Y-85505238D01*
X171214761Y-85410000D01*
X171357619Y-85362380D01*
X171452857Y-85362380D01*
X171595714Y-85410000D01*
X171643333Y-85457619D01*
X172595714Y-86362380D02*
X172024285Y-86362380D01*
X172310000Y-86362380D02*
X172310000Y-85362380D01*
X172214761Y-85505238D01*
X172119523Y-85600476D01*
X172024285Y-85648095D01*
X188688095Y-108162380D02*
X188688095Y-107162380D01*
X188688095Y-107638571D02*
X189259523Y-107638571D01*
X189259523Y-108162380D02*
X189259523Y-107162380D01*
X190164285Y-107495714D02*
X190164285Y-108162380D01*
X189926190Y-107114761D02*
X189688095Y-107829047D01*
X190307142Y-107829047D01*
X188848095Y-89622380D02*
X188848095Y-88622380D01*
X188848095Y-89098571D02*
X189419523Y-89098571D01*
X189419523Y-89622380D02*
X189419523Y-88622380D01*
X189800476Y-88622380D02*
X190419523Y-88622380D01*
X190086190Y-89003333D01*
X190229047Y-89003333D01*
X190324285Y-89050952D01*
X190371904Y-89098571D01*
X190419523Y-89193809D01*
X190419523Y-89431904D01*
X190371904Y-89527142D01*
X190324285Y-89574761D01*
X190229047Y-89622380D01*
X189943333Y-89622380D01*
X189848095Y-89574761D01*
X189800476Y-89527142D01*
X93598095Y-108152380D02*
X93598095Y-107152380D01*
X93598095Y-107628571D02*
X94169523Y-107628571D01*
X94169523Y-108152380D02*
X94169523Y-107152380D01*
X94598095Y-107247619D02*
X94645714Y-107200000D01*
X94740952Y-107152380D01*
X94979047Y-107152380D01*
X95074285Y-107200000D01*
X95121904Y-107247619D01*
X95169523Y-107342857D01*
X95169523Y-107438095D01*
X95121904Y-107580952D01*
X94550476Y-108152380D01*
X95169523Y-108152380D01*
X93618095Y-80172380D02*
X93618095Y-79172380D01*
X93618095Y-79648571D02*
X94189523Y-79648571D01*
X94189523Y-80172380D02*
X94189523Y-79172380D01*
X95189523Y-80172380D02*
X94618095Y-80172380D01*
X94903809Y-80172380D02*
X94903809Y-79172380D01*
X94808571Y-79315238D01*
X94713333Y-79410476D01*
X94618095Y-79458095D01*
X126587142Y-105066666D02*
X126634761Y-105114285D01*
X126682380Y-105257142D01*
X126682380Y-105352380D01*
X126634761Y-105495238D01*
X126539523Y-105590476D01*
X126444285Y-105638095D01*
X126253809Y-105685714D01*
X126110952Y-105685714D01*
X125920476Y-105638095D01*
X125825238Y-105590476D01*
X125730000Y-105495238D01*
X125682380Y-105352380D01*
X125682380Y-105257142D01*
X125730000Y-105114285D01*
X125777619Y-105066666D01*
X125682380Y-104209523D02*
X125682380Y-104400000D01*
X125730000Y-104495238D01*
X125777619Y-104542857D01*
X125920476Y-104638095D01*
X126110952Y-104685714D01*
X126491904Y-104685714D01*
X126587142Y-104638095D01*
X126634761Y-104590476D01*
X126682380Y-104495238D01*
X126682380Y-104304761D01*
X126634761Y-104209523D01*
X126587142Y-104161904D01*
X126491904Y-104114285D01*
X126253809Y-104114285D01*
X126158571Y-104161904D01*
X126110952Y-104209523D01*
X126063333Y-104304761D01*
X126063333Y-104495238D01*
X126110952Y-104590476D01*
X126158571Y-104638095D01*
X126253809Y-104685714D01*
X151087142Y-104979166D02*
X151134761Y-105026785D01*
X151182380Y-105169642D01*
X151182380Y-105264880D01*
X151134761Y-105407738D01*
X151039523Y-105502976D01*
X150944285Y-105550595D01*
X150753809Y-105598214D01*
X150610952Y-105598214D01*
X150420476Y-105550595D01*
X150325238Y-105502976D01*
X150230000Y-105407738D01*
X150182380Y-105264880D01*
X150182380Y-105169642D01*
X150230000Y-105026785D01*
X150277619Y-104979166D01*
X150182380Y-104074404D02*
X150182380Y-104550595D01*
X150658571Y-104598214D01*
X150610952Y-104550595D01*
X150563333Y-104455357D01*
X150563333Y-104217261D01*
X150610952Y-104122023D01*
X150658571Y-104074404D01*
X150753809Y-104026785D01*
X150991904Y-104026785D01*
X151087142Y-104074404D01*
X151134761Y-104122023D01*
X151182380Y-104217261D01*
X151182380Y-104455357D01*
X151134761Y-104550595D01*
X151087142Y-104598214D01*
X143048095Y-102052380D02*
X143048095Y-102861904D01*
X143095714Y-102957142D01*
X143143333Y-103004761D01*
X143238571Y-103052380D01*
X143429047Y-103052380D01*
X143524285Y-103004761D01*
X143571904Y-102957142D01*
X143619523Y-102861904D01*
X143619523Y-102052380D01*
X144524285Y-102385714D02*
X144524285Y-103052380D01*
X144286190Y-102004761D02*
X144048095Y-102719047D01*
X144667142Y-102719047D01*
X119738095Y-102002380D02*
X119738095Y-102811904D01*
X119785714Y-102907142D01*
X119833333Y-102954761D01*
X119928571Y-103002380D01*
X120119047Y-103002380D01*
X120214285Y-102954761D01*
X120261904Y-102907142D01*
X120309523Y-102811904D01*
X120309523Y-102002380D01*
X120690476Y-102002380D02*
X121309523Y-102002380D01*
X120976190Y-102383333D01*
X121119047Y-102383333D01*
X121214285Y-102430952D01*
X121261904Y-102478571D01*
X121309523Y-102573809D01*
X121309523Y-102811904D01*
X121261904Y-102907142D01*
X121214285Y-102954761D01*
X121119047Y-103002380D01*
X120833333Y-103002380D01*
X120738095Y-102954761D01*
X120690476Y-102907142D01*
M02*
