G04 #@! TF.GenerationSoftware,KiCad,Pcbnew,5.1.4*
G04 #@! TF.CreationDate,2019-08-24T18:03:49-04:00*
G04 #@! TF.ProjectId,siot-gateway-particle,73696f74-2d67-4617-9465-7761792d7061,rev?*
G04 #@! TF.SameCoordinates,Original*
G04 #@! TF.FileFunction,Soldermask,Bot*
G04 #@! TF.FilePolarity,Negative*
%FSLAX46Y46*%
G04 Gerber Fmt 4.6, Leading zero omitted, Abs format (unit mm)*
G04 Created by KiCad (PCBNEW 5.1.4) date 2019-08-24 18:03:49*
%MOMM*%
%LPD*%
G04 APERTURE LIST*
%ADD10C,0.100000*%
G04 APERTURE END LIST*
D10*
G36*
X189975274Y-110478404D02*
G01*
X190302999Y-110614152D01*
X190523707Y-110761625D01*
X190597945Y-110811229D01*
X190848771Y-111062055D01*
X190848772Y-111062057D01*
X191045848Y-111357001D01*
X191181596Y-111684726D01*
X191250800Y-112032637D01*
X191250800Y-112387363D01*
X191181596Y-112735274D01*
X191045848Y-113062999D01*
X190898375Y-113283707D01*
X190848771Y-113357945D01*
X190597945Y-113608771D01*
X190523707Y-113658375D01*
X190302999Y-113805848D01*
X189975274Y-113941596D01*
X189627363Y-114010800D01*
X189272637Y-114010800D01*
X188924726Y-113941596D01*
X188597001Y-113805848D01*
X188376293Y-113658375D01*
X188302055Y-113608771D01*
X188051229Y-113357945D01*
X188001625Y-113283707D01*
X187854152Y-113062999D01*
X187718404Y-112735274D01*
X187649200Y-112387363D01*
X187649200Y-112032637D01*
X187718404Y-111684726D01*
X187854152Y-111357001D01*
X188051228Y-111062057D01*
X188051229Y-111062055D01*
X188302055Y-110811229D01*
X188376293Y-110761625D01*
X188597001Y-110614152D01*
X188924726Y-110478404D01*
X189272637Y-110409200D01*
X189627363Y-110409200D01*
X189975274Y-110478404D01*
X189975274Y-110478404D01*
G37*
G36*
X94885274Y-110468404D02*
G01*
X95212999Y-110604152D01*
X95433707Y-110751625D01*
X95507945Y-110801229D01*
X95758771Y-111052055D01*
X95765454Y-111062057D01*
X95955848Y-111347001D01*
X96091596Y-111674726D01*
X96160800Y-112022637D01*
X96160800Y-112377363D01*
X96091596Y-112725274D01*
X95955848Y-113052999D01*
X95808375Y-113273707D01*
X95758771Y-113347945D01*
X95507945Y-113598771D01*
X95492977Y-113608772D01*
X95212999Y-113795848D01*
X94885274Y-113931596D01*
X94537363Y-114000800D01*
X94182637Y-114000800D01*
X93834726Y-113931596D01*
X93507001Y-113795848D01*
X93227023Y-113608772D01*
X93212055Y-113598771D01*
X92961229Y-113347945D01*
X92911625Y-113273707D01*
X92764152Y-113052999D01*
X92628404Y-112725274D01*
X92559200Y-112377363D01*
X92559200Y-112022637D01*
X92628404Y-111674726D01*
X92764152Y-111347001D01*
X92954546Y-111062057D01*
X92961229Y-111052055D01*
X93212055Y-110801229D01*
X93286293Y-110751625D01*
X93507001Y-110604152D01*
X93834726Y-110468404D01*
X94182637Y-110399200D01*
X94537363Y-110399200D01*
X94885274Y-110468404D01*
X94885274Y-110468404D01*
G37*
G36*
X134714751Y-96276128D02*
G01*
X134714753Y-96276129D01*
X134714754Y-96276129D01*
X134861216Y-96336795D01*
X134993031Y-96424872D01*
X135105128Y-96536969D01*
X135193205Y-96668784D01*
X135253871Y-96815246D01*
X135253872Y-96815249D01*
X135284800Y-96970734D01*
X135284800Y-97129266D01*
X135270626Y-97200521D01*
X135253871Y-97284754D01*
X135193205Y-97431216D01*
X135105128Y-97563031D01*
X134993031Y-97675128D01*
X134861216Y-97763205D01*
X134714754Y-97823871D01*
X134714753Y-97823871D01*
X134714751Y-97823872D01*
X134559266Y-97854800D01*
X134400734Y-97854800D01*
X134245249Y-97823872D01*
X134245247Y-97823871D01*
X134245246Y-97823871D01*
X134098784Y-97763205D01*
X133966969Y-97675128D01*
X133854872Y-97563031D01*
X133766795Y-97431216D01*
X133706129Y-97284754D01*
X133689374Y-97200521D01*
X133675200Y-97129266D01*
X133675200Y-96970734D01*
X133706128Y-96815249D01*
X133706129Y-96815246D01*
X133766795Y-96668784D01*
X133854872Y-96536969D01*
X133966969Y-96424872D01*
X134098784Y-96336795D01*
X134245246Y-96276129D01*
X134245247Y-96276129D01*
X134245249Y-96276128D01*
X134400734Y-96245200D01*
X134559266Y-96245200D01*
X134714751Y-96276128D01*
X134714751Y-96276128D01*
G37*
G36*
X106774751Y-96276128D02*
G01*
X106774753Y-96276129D01*
X106774754Y-96276129D01*
X106921216Y-96336795D01*
X107053031Y-96424872D01*
X107165128Y-96536969D01*
X107253205Y-96668784D01*
X107313871Y-96815246D01*
X107313872Y-96815249D01*
X107344800Y-96970734D01*
X107344800Y-97129266D01*
X107330626Y-97200521D01*
X107313871Y-97284754D01*
X107253205Y-97431216D01*
X107165128Y-97563031D01*
X107053031Y-97675128D01*
X106921216Y-97763205D01*
X106774754Y-97823871D01*
X106774753Y-97823871D01*
X106774751Y-97823872D01*
X106619266Y-97854800D01*
X106460734Y-97854800D01*
X106305249Y-97823872D01*
X106305247Y-97823871D01*
X106305246Y-97823871D01*
X106158784Y-97763205D01*
X106026969Y-97675128D01*
X105914872Y-97563031D01*
X105826795Y-97431216D01*
X105766129Y-97284754D01*
X105749374Y-97200521D01*
X105735200Y-97129266D01*
X105735200Y-96970734D01*
X105766128Y-96815249D01*
X105766129Y-96815246D01*
X105826795Y-96668784D01*
X105914872Y-96536969D01*
X106026969Y-96424872D01*
X106158784Y-96336795D01*
X106305246Y-96276129D01*
X106305247Y-96276129D01*
X106305249Y-96276128D01*
X106460734Y-96245200D01*
X106619266Y-96245200D01*
X106774751Y-96276128D01*
X106774751Y-96276128D01*
G37*
G36*
X111854751Y-96276128D02*
G01*
X111854753Y-96276129D01*
X111854754Y-96276129D01*
X112001216Y-96336795D01*
X112133031Y-96424872D01*
X112245128Y-96536969D01*
X112333205Y-96668784D01*
X112393871Y-96815246D01*
X112393872Y-96815249D01*
X112424800Y-96970734D01*
X112424800Y-97129266D01*
X112410626Y-97200521D01*
X112393871Y-97284754D01*
X112333205Y-97431216D01*
X112245128Y-97563031D01*
X112133031Y-97675128D01*
X112001216Y-97763205D01*
X111854754Y-97823871D01*
X111854753Y-97823871D01*
X111854751Y-97823872D01*
X111699266Y-97854800D01*
X111540734Y-97854800D01*
X111385249Y-97823872D01*
X111385247Y-97823871D01*
X111385246Y-97823871D01*
X111238784Y-97763205D01*
X111106969Y-97675128D01*
X110994872Y-97563031D01*
X110906795Y-97431216D01*
X110846129Y-97284754D01*
X110829374Y-97200521D01*
X110815200Y-97129266D01*
X110815200Y-96970734D01*
X110846128Y-96815249D01*
X110846129Y-96815246D01*
X110906795Y-96668784D01*
X110994872Y-96536969D01*
X111106969Y-96424872D01*
X111238784Y-96336795D01*
X111385246Y-96276129D01*
X111385247Y-96276129D01*
X111385249Y-96276128D01*
X111540734Y-96245200D01*
X111699266Y-96245200D01*
X111854751Y-96276128D01*
X111854751Y-96276128D01*
G37*
G36*
X114394751Y-96276128D02*
G01*
X114394753Y-96276129D01*
X114394754Y-96276129D01*
X114541216Y-96336795D01*
X114673031Y-96424872D01*
X114785128Y-96536969D01*
X114873205Y-96668784D01*
X114933871Y-96815246D01*
X114933872Y-96815249D01*
X114964800Y-96970734D01*
X114964800Y-97129266D01*
X114950626Y-97200521D01*
X114933871Y-97284754D01*
X114873205Y-97431216D01*
X114785128Y-97563031D01*
X114673031Y-97675128D01*
X114541216Y-97763205D01*
X114394754Y-97823871D01*
X114394753Y-97823871D01*
X114394751Y-97823872D01*
X114239266Y-97854800D01*
X114080734Y-97854800D01*
X113925249Y-97823872D01*
X113925247Y-97823871D01*
X113925246Y-97823871D01*
X113778784Y-97763205D01*
X113646969Y-97675128D01*
X113534872Y-97563031D01*
X113446795Y-97431216D01*
X113386129Y-97284754D01*
X113369374Y-97200521D01*
X113355200Y-97129266D01*
X113355200Y-96970734D01*
X113386128Y-96815249D01*
X113386129Y-96815246D01*
X113446795Y-96668784D01*
X113534872Y-96536969D01*
X113646969Y-96424872D01*
X113778784Y-96336795D01*
X113925246Y-96276129D01*
X113925247Y-96276129D01*
X113925249Y-96276128D01*
X114080734Y-96245200D01*
X114239266Y-96245200D01*
X114394751Y-96276128D01*
X114394751Y-96276128D01*
G37*
G36*
X116934751Y-96276128D02*
G01*
X116934753Y-96276129D01*
X116934754Y-96276129D01*
X117081216Y-96336795D01*
X117213031Y-96424872D01*
X117325128Y-96536969D01*
X117413205Y-96668784D01*
X117473871Y-96815246D01*
X117473872Y-96815249D01*
X117504800Y-96970734D01*
X117504800Y-97129266D01*
X117490626Y-97200521D01*
X117473871Y-97284754D01*
X117413205Y-97431216D01*
X117325128Y-97563031D01*
X117213031Y-97675128D01*
X117081216Y-97763205D01*
X116934754Y-97823871D01*
X116934753Y-97823871D01*
X116934751Y-97823872D01*
X116779266Y-97854800D01*
X116620734Y-97854800D01*
X116465249Y-97823872D01*
X116465247Y-97823871D01*
X116465246Y-97823871D01*
X116318784Y-97763205D01*
X116186969Y-97675128D01*
X116074872Y-97563031D01*
X115986795Y-97431216D01*
X115926129Y-97284754D01*
X115909374Y-97200521D01*
X115895200Y-97129266D01*
X115895200Y-96970734D01*
X115926128Y-96815249D01*
X115926129Y-96815246D01*
X115986795Y-96668784D01*
X116074872Y-96536969D01*
X116186969Y-96424872D01*
X116318784Y-96336795D01*
X116465246Y-96276129D01*
X116465247Y-96276129D01*
X116465249Y-96276128D01*
X116620734Y-96245200D01*
X116779266Y-96245200D01*
X116934751Y-96276128D01*
X116934751Y-96276128D01*
G37*
G36*
X119474751Y-96276128D02*
G01*
X119474753Y-96276129D01*
X119474754Y-96276129D01*
X119621216Y-96336795D01*
X119753031Y-96424872D01*
X119865128Y-96536969D01*
X119953205Y-96668784D01*
X120013871Y-96815246D01*
X120013872Y-96815249D01*
X120044800Y-96970734D01*
X120044800Y-97129266D01*
X120030626Y-97200521D01*
X120013871Y-97284754D01*
X119953205Y-97431216D01*
X119865128Y-97563031D01*
X119753031Y-97675128D01*
X119621216Y-97763205D01*
X119474754Y-97823871D01*
X119474753Y-97823871D01*
X119474751Y-97823872D01*
X119319266Y-97854800D01*
X119160734Y-97854800D01*
X119005249Y-97823872D01*
X119005247Y-97823871D01*
X119005246Y-97823871D01*
X118858784Y-97763205D01*
X118726969Y-97675128D01*
X118614872Y-97563031D01*
X118526795Y-97431216D01*
X118466129Y-97284754D01*
X118449374Y-97200521D01*
X118435200Y-97129266D01*
X118435200Y-96970734D01*
X118466128Y-96815249D01*
X118466129Y-96815246D01*
X118526795Y-96668784D01*
X118614872Y-96536969D01*
X118726969Y-96424872D01*
X118858784Y-96336795D01*
X119005246Y-96276129D01*
X119005247Y-96276129D01*
X119005249Y-96276128D01*
X119160734Y-96245200D01*
X119319266Y-96245200D01*
X119474751Y-96276128D01*
X119474751Y-96276128D01*
G37*
G36*
X122014751Y-96276128D02*
G01*
X122014753Y-96276129D01*
X122014754Y-96276129D01*
X122161216Y-96336795D01*
X122293031Y-96424872D01*
X122405128Y-96536969D01*
X122493205Y-96668784D01*
X122553871Y-96815246D01*
X122553872Y-96815249D01*
X122584800Y-96970734D01*
X122584800Y-97129266D01*
X122570626Y-97200521D01*
X122553871Y-97284754D01*
X122493205Y-97431216D01*
X122405128Y-97563031D01*
X122293031Y-97675128D01*
X122161216Y-97763205D01*
X122014754Y-97823871D01*
X122014753Y-97823871D01*
X122014751Y-97823872D01*
X121859266Y-97854800D01*
X121700734Y-97854800D01*
X121545249Y-97823872D01*
X121545247Y-97823871D01*
X121545246Y-97823871D01*
X121398784Y-97763205D01*
X121266969Y-97675128D01*
X121154872Y-97563031D01*
X121066795Y-97431216D01*
X121006129Y-97284754D01*
X120989374Y-97200521D01*
X120975200Y-97129266D01*
X120975200Y-96970734D01*
X121006128Y-96815249D01*
X121006129Y-96815246D01*
X121066795Y-96668784D01*
X121154872Y-96536969D01*
X121266969Y-96424872D01*
X121398784Y-96336795D01*
X121545246Y-96276129D01*
X121545247Y-96276129D01*
X121545249Y-96276128D01*
X121700734Y-96245200D01*
X121859266Y-96245200D01*
X122014751Y-96276128D01*
X122014751Y-96276128D01*
G37*
G36*
X124554751Y-96276128D02*
G01*
X124554753Y-96276129D01*
X124554754Y-96276129D01*
X124701216Y-96336795D01*
X124833031Y-96424872D01*
X124945128Y-96536969D01*
X125033205Y-96668784D01*
X125093871Y-96815246D01*
X125093872Y-96815249D01*
X125124800Y-96970734D01*
X125124800Y-97129266D01*
X125110626Y-97200521D01*
X125093871Y-97284754D01*
X125033205Y-97431216D01*
X124945128Y-97563031D01*
X124833031Y-97675128D01*
X124701216Y-97763205D01*
X124554754Y-97823871D01*
X124554753Y-97823871D01*
X124554751Y-97823872D01*
X124399266Y-97854800D01*
X124240734Y-97854800D01*
X124085249Y-97823872D01*
X124085247Y-97823871D01*
X124085246Y-97823871D01*
X123938784Y-97763205D01*
X123806969Y-97675128D01*
X123694872Y-97563031D01*
X123606795Y-97431216D01*
X123546129Y-97284754D01*
X123529374Y-97200521D01*
X123515200Y-97129266D01*
X123515200Y-96970734D01*
X123546128Y-96815249D01*
X123546129Y-96815246D01*
X123606795Y-96668784D01*
X123694872Y-96536969D01*
X123806969Y-96424872D01*
X123938784Y-96336795D01*
X124085246Y-96276129D01*
X124085247Y-96276129D01*
X124085249Y-96276128D01*
X124240734Y-96245200D01*
X124399266Y-96245200D01*
X124554751Y-96276128D01*
X124554751Y-96276128D01*
G37*
G36*
X127094751Y-96276128D02*
G01*
X127094753Y-96276129D01*
X127094754Y-96276129D01*
X127241216Y-96336795D01*
X127373031Y-96424872D01*
X127485128Y-96536969D01*
X127573205Y-96668784D01*
X127633871Y-96815246D01*
X127633872Y-96815249D01*
X127664800Y-96970734D01*
X127664800Y-97129266D01*
X127650626Y-97200521D01*
X127633871Y-97284754D01*
X127573205Y-97431216D01*
X127485128Y-97563031D01*
X127373031Y-97675128D01*
X127241216Y-97763205D01*
X127094754Y-97823871D01*
X127094753Y-97823871D01*
X127094751Y-97823872D01*
X126939266Y-97854800D01*
X126780734Y-97854800D01*
X126625249Y-97823872D01*
X126625247Y-97823871D01*
X126625246Y-97823871D01*
X126478784Y-97763205D01*
X126346969Y-97675128D01*
X126234872Y-97563031D01*
X126146795Y-97431216D01*
X126086129Y-97284754D01*
X126069374Y-97200521D01*
X126055200Y-97129266D01*
X126055200Y-96970734D01*
X126086128Y-96815249D01*
X126086129Y-96815246D01*
X126146795Y-96668784D01*
X126234872Y-96536969D01*
X126346969Y-96424872D01*
X126478784Y-96336795D01*
X126625246Y-96276129D01*
X126625247Y-96276129D01*
X126625249Y-96276128D01*
X126780734Y-96245200D01*
X126939266Y-96245200D01*
X127094751Y-96276128D01*
X127094751Y-96276128D01*
G37*
G36*
X129634751Y-96276128D02*
G01*
X129634753Y-96276129D01*
X129634754Y-96276129D01*
X129781216Y-96336795D01*
X129913031Y-96424872D01*
X130025128Y-96536969D01*
X130113205Y-96668784D01*
X130173871Y-96815246D01*
X130173872Y-96815249D01*
X130204800Y-96970734D01*
X130204800Y-97129266D01*
X130190626Y-97200521D01*
X130173871Y-97284754D01*
X130113205Y-97431216D01*
X130025128Y-97563031D01*
X129913031Y-97675128D01*
X129781216Y-97763205D01*
X129634754Y-97823871D01*
X129634753Y-97823871D01*
X129634751Y-97823872D01*
X129479266Y-97854800D01*
X129320734Y-97854800D01*
X129165249Y-97823872D01*
X129165247Y-97823871D01*
X129165246Y-97823871D01*
X129018784Y-97763205D01*
X128886969Y-97675128D01*
X128774872Y-97563031D01*
X128686795Y-97431216D01*
X128626129Y-97284754D01*
X128609374Y-97200521D01*
X128595200Y-97129266D01*
X128595200Y-96970734D01*
X128626128Y-96815249D01*
X128626129Y-96815246D01*
X128686795Y-96668784D01*
X128774872Y-96536969D01*
X128886969Y-96424872D01*
X129018784Y-96336795D01*
X129165246Y-96276129D01*
X129165247Y-96276129D01*
X129165249Y-96276128D01*
X129320734Y-96245200D01*
X129479266Y-96245200D01*
X129634751Y-96276128D01*
X129634751Y-96276128D01*
G37*
G36*
X132174751Y-96276128D02*
G01*
X132174753Y-96276129D01*
X132174754Y-96276129D01*
X132321216Y-96336795D01*
X132453031Y-96424872D01*
X132565128Y-96536969D01*
X132653205Y-96668784D01*
X132713871Y-96815246D01*
X132713872Y-96815249D01*
X132744800Y-96970734D01*
X132744800Y-97129266D01*
X132730626Y-97200521D01*
X132713871Y-97284754D01*
X132653205Y-97431216D01*
X132565128Y-97563031D01*
X132453031Y-97675128D01*
X132321216Y-97763205D01*
X132174754Y-97823871D01*
X132174753Y-97823871D01*
X132174751Y-97823872D01*
X132019266Y-97854800D01*
X131860734Y-97854800D01*
X131705249Y-97823872D01*
X131705247Y-97823871D01*
X131705246Y-97823871D01*
X131558784Y-97763205D01*
X131426969Y-97675128D01*
X131314872Y-97563031D01*
X131226795Y-97431216D01*
X131166129Y-97284754D01*
X131149374Y-97200521D01*
X131135200Y-97129266D01*
X131135200Y-96970734D01*
X131166128Y-96815249D01*
X131166129Y-96815246D01*
X131226795Y-96668784D01*
X131314872Y-96536969D01*
X131426969Y-96424872D01*
X131558784Y-96336795D01*
X131705246Y-96276129D01*
X131705247Y-96276129D01*
X131705249Y-96276128D01*
X131860734Y-96245200D01*
X132019266Y-96245200D01*
X132174751Y-96276128D01*
X132174751Y-96276128D01*
G37*
G36*
X109314751Y-96276128D02*
G01*
X109314753Y-96276129D01*
X109314754Y-96276129D01*
X109461216Y-96336795D01*
X109593031Y-96424872D01*
X109705128Y-96536969D01*
X109793205Y-96668784D01*
X109853871Y-96815246D01*
X109853872Y-96815249D01*
X109884800Y-96970734D01*
X109884800Y-97129266D01*
X109870626Y-97200521D01*
X109853871Y-97284754D01*
X109793205Y-97431216D01*
X109705128Y-97563031D01*
X109593031Y-97675128D01*
X109461216Y-97763205D01*
X109314754Y-97823871D01*
X109314753Y-97823871D01*
X109314751Y-97823872D01*
X109159266Y-97854800D01*
X109000734Y-97854800D01*
X108845249Y-97823872D01*
X108845247Y-97823871D01*
X108845246Y-97823871D01*
X108698784Y-97763205D01*
X108566969Y-97675128D01*
X108454872Y-97563031D01*
X108366795Y-97431216D01*
X108306129Y-97284754D01*
X108289374Y-97200521D01*
X108275200Y-97129266D01*
X108275200Y-96970734D01*
X108306128Y-96815249D01*
X108306129Y-96815246D01*
X108366795Y-96668784D01*
X108454872Y-96536969D01*
X108566969Y-96424872D01*
X108698784Y-96336795D01*
X108845246Y-96276129D01*
X108845247Y-96276129D01*
X108845249Y-96276128D01*
X109000734Y-96245200D01*
X109159266Y-96245200D01*
X109314751Y-96276128D01*
X109314751Y-96276128D01*
G37*
G36*
X103078219Y-95267077D02*
G01*
X103295476Y-95357068D01*
X103491003Y-95487715D01*
X103657285Y-95653997D01*
X103787932Y-95849524D01*
X103877923Y-96066781D01*
X103923800Y-96297421D01*
X103923800Y-96532579D01*
X103877923Y-96763219D01*
X103787932Y-96980476D01*
X103657285Y-97176003D01*
X103491003Y-97342285D01*
X103295476Y-97472932D01*
X103078219Y-97562923D01*
X102847579Y-97608800D01*
X102612421Y-97608800D01*
X102381781Y-97562923D01*
X102164524Y-97472932D01*
X101968997Y-97342285D01*
X101802715Y-97176003D01*
X101672068Y-96980476D01*
X101582077Y-96763219D01*
X101536200Y-96532579D01*
X101536200Y-96297421D01*
X101582077Y-96066781D01*
X101672068Y-95849524D01*
X101802715Y-95653997D01*
X101968997Y-95487715D01*
X102164524Y-95357068D01*
X102381781Y-95267077D01*
X102612421Y-95221200D01*
X102847579Y-95221200D01*
X103078219Y-95267077D01*
X103078219Y-95267077D01*
G37*
G36*
X148983441Y-94021480D02*
G01*
X149316262Y-94159338D01*
X149615792Y-94359478D01*
X149870522Y-94614208D01*
X150070662Y-94913738D01*
X150208520Y-95246559D01*
X150278800Y-95599879D01*
X150278800Y-95960121D01*
X150208520Y-96313441D01*
X150070662Y-96646262D01*
X149870522Y-96945792D01*
X149615792Y-97200522D01*
X149316262Y-97400662D01*
X148983441Y-97538520D01*
X148630121Y-97608800D01*
X148269879Y-97608800D01*
X147916559Y-97538520D01*
X147583738Y-97400662D01*
X147284208Y-97200522D01*
X147029478Y-96945792D01*
X146829338Y-96646262D01*
X146691480Y-96313441D01*
X146621200Y-95960121D01*
X146621200Y-95599879D01*
X146691480Y-95246559D01*
X146829338Y-94913738D01*
X147029478Y-94614208D01*
X147284208Y-94359478D01*
X147583738Y-94159338D01*
X147916559Y-94021480D01*
X148269879Y-93951200D01*
X148630121Y-93951200D01*
X148983441Y-94021480D01*
X148983441Y-94021480D01*
G37*
G36*
X189975274Y-82498404D02*
G01*
X190302999Y-82634152D01*
X190523707Y-82781625D01*
X190597945Y-82831229D01*
X190848771Y-83082055D01*
X190848772Y-83082057D01*
X191045848Y-83377001D01*
X191181596Y-83704726D01*
X191250800Y-84052637D01*
X191250800Y-84407363D01*
X191181596Y-84755274D01*
X191045848Y-85082999D01*
X190898375Y-85303707D01*
X190848771Y-85377945D01*
X190597945Y-85628771D01*
X190523707Y-85678375D01*
X190302999Y-85825848D01*
X189975274Y-85961596D01*
X189627363Y-86030800D01*
X189272637Y-86030800D01*
X188924726Y-85961596D01*
X188597001Y-85825848D01*
X188376293Y-85678375D01*
X188302055Y-85628771D01*
X188051229Y-85377945D01*
X188001625Y-85303707D01*
X187854152Y-85082999D01*
X187718404Y-84755274D01*
X187649200Y-84407363D01*
X187649200Y-84052637D01*
X187718404Y-83704726D01*
X187854152Y-83377001D01*
X188051228Y-83082057D01*
X188051229Y-83082055D01*
X188302055Y-82831229D01*
X188376293Y-82781625D01*
X188597001Y-82634152D01*
X188924726Y-82498404D01*
X189272637Y-82429200D01*
X189627363Y-82429200D01*
X189975274Y-82498404D01*
X189975274Y-82498404D01*
G37*
G36*
X94905274Y-82488404D02*
G01*
X95232999Y-82624152D01*
X95453707Y-82771625D01*
X95527945Y-82821229D01*
X95778771Y-83072055D01*
X95785454Y-83082057D01*
X95975848Y-83367001D01*
X96111596Y-83694726D01*
X96180800Y-84042637D01*
X96180800Y-84397363D01*
X96111596Y-84745274D01*
X95975848Y-85072999D01*
X95828375Y-85293707D01*
X95778771Y-85367945D01*
X95527945Y-85618771D01*
X95512977Y-85628772D01*
X95232999Y-85815848D01*
X94905274Y-85951596D01*
X94557363Y-86020800D01*
X94202637Y-86020800D01*
X93854726Y-85951596D01*
X93527001Y-85815848D01*
X93247023Y-85628772D01*
X93232055Y-85618771D01*
X92981229Y-85367945D01*
X92931625Y-85293707D01*
X92784152Y-85072999D01*
X92648404Y-84745274D01*
X92579200Y-84397363D01*
X92579200Y-84042637D01*
X92648404Y-83694726D01*
X92784152Y-83367001D01*
X92974546Y-83082057D01*
X92981229Y-83072055D01*
X93232055Y-82821229D01*
X93306293Y-82771625D01*
X93527001Y-82624152D01*
X93854726Y-82488404D01*
X94202637Y-82419200D01*
X94557363Y-82419200D01*
X94905274Y-82488404D01*
X94905274Y-82488404D01*
G37*
G36*
X164373493Y-77964524D02*
G01*
X164373495Y-77964525D01*
X164373496Y-77964525D01*
X164414514Y-77981515D01*
X164455534Y-77998506D01*
X164529368Y-78047841D01*
X164592159Y-78110632D01*
X164641494Y-78184466D01*
X164675476Y-78266507D01*
X164692800Y-78353600D01*
X164692800Y-78442400D01*
X164675476Y-78529493D01*
X164641494Y-78611534D01*
X164592159Y-78685368D01*
X164529368Y-78748159D01*
X164504210Y-78764969D01*
X164479968Y-78784864D01*
X164460070Y-78809110D01*
X164445285Y-78836771D01*
X164436180Y-78866786D01*
X164433106Y-78898000D01*
X164436180Y-78929215D01*
X164445285Y-78959229D01*
X164460071Y-78986891D01*
X164479969Y-79011137D01*
X164504210Y-79031031D01*
X164529368Y-79047841D01*
X164592159Y-79110632D01*
X164641494Y-79184466D01*
X164675476Y-79266507D01*
X164692800Y-79353600D01*
X164692800Y-79442400D01*
X164675476Y-79529493D01*
X164641494Y-79611534D01*
X164592159Y-79685368D01*
X164529368Y-79748159D01*
X164504210Y-79764969D01*
X164479968Y-79784864D01*
X164460070Y-79809110D01*
X164445285Y-79836771D01*
X164436180Y-79866786D01*
X164433106Y-79898000D01*
X164436180Y-79929215D01*
X164445285Y-79959229D01*
X164460071Y-79986891D01*
X164479969Y-80011137D01*
X164504210Y-80031031D01*
X164529368Y-80047841D01*
X164592159Y-80110632D01*
X164641494Y-80184466D01*
X164675476Y-80266507D01*
X164692800Y-80353600D01*
X164692800Y-80442400D01*
X164675476Y-80529493D01*
X164641494Y-80611534D01*
X164592159Y-80685368D01*
X164529368Y-80748159D01*
X164455534Y-80797494D01*
X164414513Y-80814485D01*
X164373496Y-80831475D01*
X164373495Y-80831475D01*
X164373493Y-80831476D01*
X164286400Y-80848800D01*
X164197600Y-80848800D01*
X164110507Y-80831476D01*
X164110505Y-80831475D01*
X164110504Y-80831475D01*
X164069487Y-80814485D01*
X164028466Y-80797494D01*
X163954632Y-80748159D01*
X163891841Y-80685368D01*
X163842506Y-80611534D01*
X163808524Y-80529493D01*
X163791200Y-80442400D01*
X163791200Y-80353600D01*
X163808524Y-80266507D01*
X163842506Y-80184466D01*
X163891841Y-80110632D01*
X163954632Y-80047841D01*
X163979790Y-80031031D01*
X164004032Y-80011136D01*
X164023930Y-79986890D01*
X164038715Y-79959229D01*
X164047820Y-79929214D01*
X164050894Y-79898000D01*
X164047820Y-79866785D01*
X164038715Y-79836771D01*
X164023929Y-79809109D01*
X164004031Y-79784863D01*
X163979790Y-79764969D01*
X163954632Y-79748159D01*
X163891841Y-79685368D01*
X163842506Y-79611534D01*
X163808524Y-79529493D01*
X163791200Y-79442400D01*
X163791200Y-79353600D01*
X163808524Y-79266507D01*
X163842506Y-79184466D01*
X163891841Y-79110632D01*
X163954632Y-79047841D01*
X163979790Y-79031031D01*
X164004032Y-79011136D01*
X164023930Y-78986890D01*
X164038715Y-78959229D01*
X164047820Y-78929214D01*
X164050894Y-78898000D01*
X164047820Y-78866785D01*
X164038715Y-78836771D01*
X164023929Y-78809109D01*
X164004031Y-78784863D01*
X163979790Y-78764969D01*
X163954632Y-78748159D01*
X163891841Y-78685368D01*
X163842506Y-78611534D01*
X163808524Y-78529493D01*
X163791200Y-78442400D01*
X163791200Y-78353600D01*
X163808524Y-78266507D01*
X163842506Y-78184466D01*
X163891841Y-78110632D01*
X163954632Y-78047841D01*
X164028466Y-77998506D01*
X164069486Y-77981515D01*
X164110504Y-77964525D01*
X164110505Y-77964525D01*
X164110507Y-77964524D01*
X164197600Y-77947200D01*
X164286400Y-77947200D01*
X164373493Y-77964524D01*
X164373493Y-77964524D01*
G37*
G36*
X148983441Y-76241480D02*
G01*
X149316262Y-76379338D01*
X149615792Y-76579478D01*
X149870522Y-76834208D01*
X150070662Y-77133738D01*
X150208520Y-77466559D01*
X150278800Y-77819879D01*
X150278800Y-78180121D01*
X150208520Y-78533441D01*
X150070662Y-78866262D01*
X149870522Y-79165792D01*
X149615792Y-79420522D01*
X149316262Y-79620662D01*
X148983441Y-79758520D01*
X148630121Y-79828800D01*
X148269879Y-79828800D01*
X147916559Y-79758520D01*
X147583738Y-79620662D01*
X147284208Y-79420522D01*
X147029478Y-79165792D01*
X146829338Y-78866262D01*
X146691480Y-78533441D01*
X146621200Y-78180121D01*
X146621200Y-77819879D01*
X146691480Y-77466559D01*
X146829338Y-77133738D01*
X147029478Y-76834208D01*
X147284208Y-76579478D01*
X147583738Y-76379338D01*
X147916559Y-76241480D01*
X148269879Y-76171200D01*
X148630121Y-76171200D01*
X148983441Y-76241480D01*
X148983441Y-76241480D01*
G37*
G36*
X103078219Y-76217077D02*
G01*
X103295476Y-76307068D01*
X103491003Y-76437715D01*
X103657285Y-76603997D01*
X103787932Y-76799524D01*
X103877923Y-77016781D01*
X103923800Y-77247421D01*
X103923800Y-77482579D01*
X103877923Y-77713219D01*
X103787932Y-77930476D01*
X103657285Y-78126003D01*
X103491003Y-78292285D01*
X103295476Y-78422932D01*
X103078219Y-78512923D01*
X102847579Y-78558800D01*
X102612421Y-78558800D01*
X102381781Y-78512923D01*
X102164524Y-78422932D01*
X101968997Y-78292285D01*
X101802715Y-78126003D01*
X101672068Y-77930476D01*
X101582077Y-77713219D01*
X101536200Y-77482579D01*
X101536200Y-77247421D01*
X101582077Y-77016781D01*
X101672068Y-76799524D01*
X101802715Y-76603997D01*
X101968997Y-76437715D01*
X102164524Y-76307068D01*
X102381781Y-76217077D01*
X102612421Y-76171200D01*
X102847579Y-76171200D01*
X103078219Y-76217077D01*
X103078219Y-76217077D01*
G37*
G36*
X109314751Y-75956128D02*
G01*
X109314753Y-75956129D01*
X109314754Y-75956129D01*
X109461216Y-76016795D01*
X109593031Y-76104872D01*
X109705128Y-76216969D01*
X109793205Y-76348784D01*
X109853871Y-76495246D01*
X109853872Y-76495249D01*
X109884800Y-76650734D01*
X109884800Y-76809266D01*
X109853872Y-76964751D01*
X109853871Y-76964754D01*
X109793205Y-77111216D01*
X109705128Y-77243031D01*
X109593031Y-77355128D01*
X109461216Y-77443205D01*
X109314754Y-77503871D01*
X109314753Y-77503871D01*
X109314751Y-77503872D01*
X109159266Y-77534800D01*
X109000734Y-77534800D01*
X108845249Y-77503872D01*
X108845247Y-77503871D01*
X108845246Y-77503871D01*
X108698784Y-77443205D01*
X108566969Y-77355128D01*
X108454872Y-77243031D01*
X108366795Y-77111216D01*
X108306129Y-76964754D01*
X108306128Y-76964751D01*
X108275200Y-76809266D01*
X108275200Y-76650734D01*
X108306128Y-76495249D01*
X108306129Y-76495246D01*
X108366795Y-76348784D01*
X108454872Y-76216969D01*
X108566969Y-76104872D01*
X108698784Y-76016795D01*
X108845246Y-75956129D01*
X108845247Y-75956129D01*
X108845249Y-75956128D01*
X109000734Y-75925200D01*
X109159266Y-75925200D01*
X109314751Y-75956128D01*
X109314751Y-75956128D01*
G37*
G36*
X119474751Y-75956128D02*
G01*
X119474753Y-75956129D01*
X119474754Y-75956129D01*
X119621216Y-76016795D01*
X119753031Y-76104872D01*
X119865128Y-76216969D01*
X119953205Y-76348784D01*
X120013871Y-76495246D01*
X120013872Y-76495249D01*
X120044800Y-76650734D01*
X120044800Y-76809266D01*
X120013872Y-76964751D01*
X120013871Y-76964754D01*
X119953205Y-77111216D01*
X119865128Y-77243031D01*
X119753031Y-77355128D01*
X119621216Y-77443205D01*
X119474754Y-77503871D01*
X119474753Y-77503871D01*
X119474751Y-77503872D01*
X119319266Y-77534800D01*
X119160734Y-77534800D01*
X119005249Y-77503872D01*
X119005247Y-77503871D01*
X119005246Y-77503871D01*
X118858784Y-77443205D01*
X118726969Y-77355128D01*
X118614872Y-77243031D01*
X118526795Y-77111216D01*
X118466129Y-76964754D01*
X118466128Y-76964751D01*
X118435200Y-76809266D01*
X118435200Y-76650734D01*
X118466128Y-76495249D01*
X118466129Y-76495246D01*
X118526795Y-76348784D01*
X118614872Y-76216969D01*
X118726969Y-76104872D01*
X118858784Y-76016795D01*
X119005246Y-75956129D01*
X119005247Y-75956129D01*
X119005249Y-75956128D01*
X119160734Y-75925200D01*
X119319266Y-75925200D01*
X119474751Y-75956128D01*
X119474751Y-75956128D01*
G37*
G36*
X116934751Y-75956128D02*
G01*
X116934753Y-75956129D01*
X116934754Y-75956129D01*
X117081216Y-76016795D01*
X117213031Y-76104872D01*
X117325128Y-76216969D01*
X117413205Y-76348784D01*
X117473871Y-76495246D01*
X117473872Y-76495249D01*
X117504800Y-76650734D01*
X117504800Y-76809266D01*
X117473872Y-76964751D01*
X117473871Y-76964754D01*
X117413205Y-77111216D01*
X117325128Y-77243031D01*
X117213031Y-77355128D01*
X117081216Y-77443205D01*
X116934754Y-77503871D01*
X116934753Y-77503871D01*
X116934751Y-77503872D01*
X116779266Y-77534800D01*
X116620734Y-77534800D01*
X116465249Y-77503872D01*
X116465247Y-77503871D01*
X116465246Y-77503871D01*
X116318784Y-77443205D01*
X116186969Y-77355128D01*
X116074872Y-77243031D01*
X115986795Y-77111216D01*
X115926129Y-76964754D01*
X115926128Y-76964751D01*
X115895200Y-76809266D01*
X115895200Y-76650734D01*
X115926128Y-76495249D01*
X115926129Y-76495246D01*
X115986795Y-76348784D01*
X116074872Y-76216969D01*
X116186969Y-76104872D01*
X116318784Y-76016795D01*
X116465246Y-75956129D01*
X116465247Y-75956129D01*
X116465249Y-75956128D01*
X116620734Y-75925200D01*
X116779266Y-75925200D01*
X116934751Y-75956128D01*
X116934751Y-75956128D01*
G37*
G36*
X114394751Y-75956128D02*
G01*
X114394753Y-75956129D01*
X114394754Y-75956129D01*
X114541216Y-76016795D01*
X114673031Y-76104872D01*
X114785128Y-76216969D01*
X114873205Y-76348784D01*
X114933871Y-76495246D01*
X114933872Y-76495249D01*
X114964800Y-76650734D01*
X114964800Y-76809266D01*
X114933872Y-76964751D01*
X114933871Y-76964754D01*
X114873205Y-77111216D01*
X114785128Y-77243031D01*
X114673031Y-77355128D01*
X114541216Y-77443205D01*
X114394754Y-77503871D01*
X114394753Y-77503871D01*
X114394751Y-77503872D01*
X114239266Y-77534800D01*
X114080734Y-77534800D01*
X113925249Y-77503872D01*
X113925247Y-77503871D01*
X113925246Y-77503871D01*
X113778784Y-77443205D01*
X113646969Y-77355128D01*
X113534872Y-77243031D01*
X113446795Y-77111216D01*
X113386129Y-76964754D01*
X113386128Y-76964751D01*
X113355200Y-76809266D01*
X113355200Y-76650734D01*
X113386128Y-76495249D01*
X113386129Y-76495246D01*
X113446795Y-76348784D01*
X113534872Y-76216969D01*
X113646969Y-76104872D01*
X113778784Y-76016795D01*
X113925246Y-75956129D01*
X113925247Y-75956129D01*
X113925249Y-75956128D01*
X114080734Y-75925200D01*
X114239266Y-75925200D01*
X114394751Y-75956128D01*
X114394751Y-75956128D01*
G37*
G36*
X111854751Y-75956128D02*
G01*
X111854753Y-75956129D01*
X111854754Y-75956129D01*
X112001216Y-76016795D01*
X112133031Y-76104872D01*
X112245128Y-76216969D01*
X112333205Y-76348784D01*
X112393871Y-76495246D01*
X112393872Y-76495249D01*
X112424800Y-76650734D01*
X112424800Y-76809266D01*
X112393872Y-76964751D01*
X112393871Y-76964754D01*
X112333205Y-77111216D01*
X112245128Y-77243031D01*
X112133031Y-77355128D01*
X112001216Y-77443205D01*
X111854754Y-77503871D01*
X111854753Y-77503871D01*
X111854751Y-77503872D01*
X111699266Y-77534800D01*
X111540734Y-77534800D01*
X111385249Y-77503872D01*
X111385247Y-77503871D01*
X111385246Y-77503871D01*
X111238784Y-77443205D01*
X111106969Y-77355128D01*
X110994872Y-77243031D01*
X110906795Y-77111216D01*
X110846129Y-76964754D01*
X110846128Y-76964751D01*
X110815200Y-76809266D01*
X110815200Y-76650734D01*
X110846128Y-76495249D01*
X110846129Y-76495246D01*
X110906795Y-76348784D01*
X110994872Y-76216969D01*
X111106969Y-76104872D01*
X111238784Y-76016795D01*
X111385246Y-75956129D01*
X111385247Y-75956129D01*
X111385249Y-75956128D01*
X111540734Y-75925200D01*
X111699266Y-75925200D01*
X111854751Y-75956128D01*
X111854751Y-75956128D01*
G37*
G36*
X106774751Y-75956128D02*
G01*
X106774753Y-75956129D01*
X106774754Y-75956129D01*
X106921216Y-76016795D01*
X107053031Y-76104872D01*
X107165128Y-76216969D01*
X107253205Y-76348784D01*
X107313871Y-76495246D01*
X107313872Y-76495249D01*
X107344800Y-76650734D01*
X107344800Y-76809266D01*
X107313872Y-76964751D01*
X107313871Y-76964754D01*
X107253205Y-77111216D01*
X107165128Y-77243031D01*
X107053031Y-77355128D01*
X106921216Y-77443205D01*
X106774754Y-77503871D01*
X106774753Y-77503871D01*
X106774751Y-77503872D01*
X106619266Y-77534800D01*
X106460734Y-77534800D01*
X106305249Y-77503872D01*
X106305247Y-77503871D01*
X106305246Y-77503871D01*
X106158784Y-77443205D01*
X106026969Y-77355128D01*
X105914872Y-77243031D01*
X105826795Y-77111216D01*
X105766129Y-76964754D01*
X105766128Y-76964751D01*
X105735200Y-76809266D01*
X105735200Y-76650734D01*
X105766128Y-76495249D01*
X105766129Y-76495246D01*
X105826795Y-76348784D01*
X105914872Y-76216969D01*
X106026969Y-76104872D01*
X106158784Y-76016795D01*
X106305246Y-75956129D01*
X106305247Y-75956129D01*
X106305249Y-75956128D01*
X106460734Y-75925200D01*
X106619266Y-75925200D01*
X106774751Y-75956128D01*
X106774751Y-75956128D01*
G37*
G36*
X145444800Y-77534800D02*
G01*
X143835200Y-77534800D01*
X143835200Y-75925200D01*
X145444800Y-75925200D01*
X145444800Y-77534800D01*
X145444800Y-77534800D01*
G37*
G36*
X142334751Y-75956128D02*
G01*
X142334753Y-75956129D01*
X142334754Y-75956129D01*
X142481216Y-76016795D01*
X142613031Y-76104872D01*
X142725128Y-76216969D01*
X142813205Y-76348784D01*
X142873871Y-76495246D01*
X142873872Y-76495249D01*
X142904800Y-76650734D01*
X142904800Y-76809266D01*
X142873872Y-76964751D01*
X142873871Y-76964754D01*
X142813205Y-77111216D01*
X142725128Y-77243031D01*
X142613031Y-77355128D01*
X142481216Y-77443205D01*
X142334754Y-77503871D01*
X142334753Y-77503871D01*
X142334751Y-77503872D01*
X142179266Y-77534800D01*
X142020734Y-77534800D01*
X141865249Y-77503872D01*
X141865247Y-77503871D01*
X141865246Y-77503871D01*
X141718784Y-77443205D01*
X141586969Y-77355128D01*
X141474872Y-77243031D01*
X141386795Y-77111216D01*
X141326129Y-76964754D01*
X141326128Y-76964751D01*
X141295200Y-76809266D01*
X141295200Y-76650734D01*
X141326128Y-76495249D01*
X141326129Y-76495246D01*
X141386795Y-76348784D01*
X141474872Y-76216969D01*
X141586969Y-76104872D01*
X141718784Y-76016795D01*
X141865246Y-75956129D01*
X141865247Y-75956129D01*
X141865249Y-75956128D01*
X142020734Y-75925200D01*
X142179266Y-75925200D01*
X142334751Y-75956128D01*
X142334751Y-75956128D01*
G37*
G36*
X139794751Y-75956128D02*
G01*
X139794753Y-75956129D01*
X139794754Y-75956129D01*
X139941216Y-76016795D01*
X140073031Y-76104872D01*
X140185128Y-76216969D01*
X140273205Y-76348784D01*
X140333871Y-76495246D01*
X140333872Y-76495249D01*
X140364800Y-76650734D01*
X140364800Y-76809266D01*
X140333872Y-76964751D01*
X140333871Y-76964754D01*
X140273205Y-77111216D01*
X140185128Y-77243031D01*
X140073031Y-77355128D01*
X139941216Y-77443205D01*
X139794754Y-77503871D01*
X139794753Y-77503871D01*
X139794751Y-77503872D01*
X139639266Y-77534800D01*
X139480734Y-77534800D01*
X139325249Y-77503872D01*
X139325247Y-77503871D01*
X139325246Y-77503871D01*
X139178784Y-77443205D01*
X139046969Y-77355128D01*
X138934872Y-77243031D01*
X138846795Y-77111216D01*
X138786129Y-76964754D01*
X138786128Y-76964751D01*
X138755200Y-76809266D01*
X138755200Y-76650734D01*
X138786128Y-76495249D01*
X138786129Y-76495246D01*
X138846795Y-76348784D01*
X138934872Y-76216969D01*
X139046969Y-76104872D01*
X139178784Y-76016795D01*
X139325246Y-75956129D01*
X139325247Y-75956129D01*
X139325249Y-75956128D01*
X139480734Y-75925200D01*
X139639266Y-75925200D01*
X139794751Y-75956128D01*
X139794751Y-75956128D01*
G37*
G36*
X137254751Y-75956128D02*
G01*
X137254753Y-75956129D01*
X137254754Y-75956129D01*
X137401216Y-76016795D01*
X137533031Y-76104872D01*
X137645128Y-76216969D01*
X137733205Y-76348784D01*
X137793871Y-76495246D01*
X137793872Y-76495249D01*
X137824800Y-76650734D01*
X137824800Y-76809266D01*
X137793872Y-76964751D01*
X137793871Y-76964754D01*
X137733205Y-77111216D01*
X137645128Y-77243031D01*
X137533031Y-77355128D01*
X137401216Y-77443205D01*
X137254754Y-77503871D01*
X137254753Y-77503871D01*
X137254751Y-77503872D01*
X137099266Y-77534800D01*
X136940734Y-77534800D01*
X136785249Y-77503872D01*
X136785247Y-77503871D01*
X136785246Y-77503871D01*
X136638784Y-77443205D01*
X136506969Y-77355128D01*
X136394872Y-77243031D01*
X136306795Y-77111216D01*
X136246129Y-76964754D01*
X136246128Y-76964751D01*
X136215200Y-76809266D01*
X136215200Y-76650734D01*
X136246128Y-76495249D01*
X136246129Y-76495246D01*
X136306795Y-76348784D01*
X136394872Y-76216969D01*
X136506969Y-76104872D01*
X136638784Y-76016795D01*
X136785246Y-75956129D01*
X136785247Y-75956129D01*
X136785249Y-75956128D01*
X136940734Y-75925200D01*
X137099266Y-75925200D01*
X137254751Y-75956128D01*
X137254751Y-75956128D01*
G37*
G36*
X134714751Y-75956128D02*
G01*
X134714753Y-75956129D01*
X134714754Y-75956129D01*
X134861216Y-76016795D01*
X134993031Y-76104872D01*
X135105128Y-76216969D01*
X135193205Y-76348784D01*
X135253871Y-76495246D01*
X135253872Y-76495249D01*
X135284800Y-76650734D01*
X135284800Y-76809266D01*
X135253872Y-76964751D01*
X135253871Y-76964754D01*
X135193205Y-77111216D01*
X135105128Y-77243031D01*
X134993031Y-77355128D01*
X134861216Y-77443205D01*
X134714754Y-77503871D01*
X134714753Y-77503871D01*
X134714751Y-77503872D01*
X134559266Y-77534800D01*
X134400734Y-77534800D01*
X134245249Y-77503872D01*
X134245247Y-77503871D01*
X134245246Y-77503871D01*
X134098784Y-77443205D01*
X133966969Y-77355128D01*
X133854872Y-77243031D01*
X133766795Y-77111216D01*
X133706129Y-76964754D01*
X133706128Y-76964751D01*
X133675200Y-76809266D01*
X133675200Y-76650734D01*
X133706128Y-76495249D01*
X133706129Y-76495246D01*
X133766795Y-76348784D01*
X133854872Y-76216969D01*
X133966969Y-76104872D01*
X134098784Y-76016795D01*
X134245246Y-75956129D01*
X134245247Y-75956129D01*
X134245249Y-75956128D01*
X134400734Y-75925200D01*
X134559266Y-75925200D01*
X134714751Y-75956128D01*
X134714751Y-75956128D01*
G37*
G36*
X132174751Y-75956128D02*
G01*
X132174753Y-75956129D01*
X132174754Y-75956129D01*
X132321216Y-76016795D01*
X132453031Y-76104872D01*
X132565128Y-76216969D01*
X132653205Y-76348784D01*
X132713871Y-76495246D01*
X132713872Y-76495249D01*
X132744800Y-76650734D01*
X132744800Y-76809266D01*
X132713872Y-76964751D01*
X132713871Y-76964754D01*
X132653205Y-77111216D01*
X132565128Y-77243031D01*
X132453031Y-77355128D01*
X132321216Y-77443205D01*
X132174754Y-77503871D01*
X132174753Y-77503871D01*
X132174751Y-77503872D01*
X132019266Y-77534800D01*
X131860734Y-77534800D01*
X131705249Y-77503872D01*
X131705247Y-77503871D01*
X131705246Y-77503871D01*
X131558784Y-77443205D01*
X131426969Y-77355128D01*
X131314872Y-77243031D01*
X131226795Y-77111216D01*
X131166129Y-76964754D01*
X131166128Y-76964751D01*
X131135200Y-76809266D01*
X131135200Y-76650734D01*
X131166128Y-76495249D01*
X131166129Y-76495246D01*
X131226795Y-76348784D01*
X131314872Y-76216969D01*
X131426969Y-76104872D01*
X131558784Y-76016795D01*
X131705246Y-75956129D01*
X131705247Y-75956129D01*
X131705249Y-75956128D01*
X131860734Y-75925200D01*
X132019266Y-75925200D01*
X132174751Y-75956128D01*
X132174751Y-75956128D01*
G37*
G36*
X129634751Y-75956128D02*
G01*
X129634753Y-75956129D01*
X129634754Y-75956129D01*
X129781216Y-76016795D01*
X129913031Y-76104872D01*
X130025128Y-76216969D01*
X130113205Y-76348784D01*
X130173871Y-76495246D01*
X130173872Y-76495249D01*
X130204800Y-76650734D01*
X130204800Y-76809266D01*
X130173872Y-76964751D01*
X130173871Y-76964754D01*
X130113205Y-77111216D01*
X130025128Y-77243031D01*
X129913031Y-77355128D01*
X129781216Y-77443205D01*
X129634754Y-77503871D01*
X129634753Y-77503871D01*
X129634751Y-77503872D01*
X129479266Y-77534800D01*
X129320734Y-77534800D01*
X129165249Y-77503872D01*
X129165247Y-77503871D01*
X129165246Y-77503871D01*
X129018784Y-77443205D01*
X128886969Y-77355128D01*
X128774872Y-77243031D01*
X128686795Y-77111216D01*
X128626129Y-76964754D01*
X128626128Y-76964751D01*
X128595200Y-76809266D01*
X128595200Y-76650734D01*
X128626128Y-76495249D01*
X128626129Y-76495246D01*
X128686795Y-76348784D01*
X128774872Y-76216969D01*
X128886969Y-76104872D01*
X129018784Y-76016795D01*
X129165246Y-75956129D01*
X129165247Y-75956129D01*
X129165249Y-75956128D01*
X129320734Y-75925200D01*
X129479266Y-75925200D01*
X129634751Y-75956128D01*
X129634751Y-75956128D01*
G37*
G36*
X127094751Y-75956128D02*
G01*
X127094753Y-75956129D01*
X127094754Y-75956129D01*
X127241216Y-76016795D01*
X127373031Y-76104872D01*
X127485128Y-76216969D01*
X127573205Y-76348784D01*
X127633871Y-76495246D01*
X127633872Y-76495249D01*
X127664800Y-76650734D01*
X127664800Y-76809266D01*
X127633872Y-76964751D01*
X127633871Y-76964754D01*
X127573205Y-77111216D01*
X127485128Y-77243031D01*
X127373031Y-77355128D01*
X127241216Y-77443205D01*
X127094754Y-77503871D01*
X127094753Y-77503871D01*
X127094751Y-77503872D01*
X126939266Y-77534800D01*
X126780734Y-77534800D01*
X126625249Y-77503872D01*
X126625247Y-77503871D01*
X126625246Y-77503871D01*
X126478784Y-77443205D01*
X126346969Y-77355128D01*
X126234872Y-77243031D01*
X126146795Y-77111216D01*
X126086129Y-76964754D01*
X126086128Y-76964751D01*
X126055200Y-76809266D01*
X126055200Y-76650734D01*
X126086128Y-76495249D01*
X126086129Y-76495246D01*
X126146795Y-76348784D01*
X126234872Y-76216969D01*
X126346969Y-76104872D01*
X126478784Y-76016795D01*
X126625246Y-75956129D01*
X126625247Y-75956129D01*
X126625249Y-75956128D01*
X126780734Y-75925200D01*
X126939266Y-75925200D01*
X127094751Y-75956128D01*
X127094751Y-75956128D01*
G37*
G36*
X122014751Y-75956128D02*
G01*
X122014753Y-75956129D01*
X122014754Y-75956129D01*
X122161216Y-76016795D01*
X122293031Y-76104872D01*
X122405128Y-76216969D01*
X122493205Y-76348784D01*
X122553871Y-76495246D01*
X122553872Y-76495249D01*
X122584800Y-76650734D01*
X122584800Y-76809266D01*
X122553872Y-76964751D01*
X122553871Y-76964754D01*
X122493205Y-77111216D01*
X122405128Y-77243031D01*
X122293031Y-77355128D01*
X122161216Y-77443205D01*
X122014754Y-77503871D01*
X122014753Y-77503871D01*
X122014751Y-77503872D01*
X121859266Y-77534800D01*
X121700734Y-77534800D01*
X121545249Y-77503872D01*
X121545247Y-77503871D01*
X121545246Y-77503871D01*
X121398784Y-77443205D01*
X121266969Y-77355128D01*
X121154872Y-77243031D01*
X121066795Y-77111216D01*
X121006129Y-76964754D01*
X121006128Y-76964751D01*
X120975200Y-76809266D01*
X120975200Y-76650734D01*
X121006128Y-76495249D01*
X121006129Y-76495246D01*
X121066795Y-76348784D01*
X121154872Y-76216969D01*
X121266969Y-76104872D01*
X121398784Y-76016795D01*
X121545246Y-75956129D01*
X121545247Y-75956129D01*
X121545249Y-75956128D01*
X121700734Y-75925200D01*
X121859266Y-75925200D01*
X122014751Y-75956128D01*
X122014751Y-75956128D01*
G37*
G36*
X124554751Y-75956128D02*
G01*
X124554753Y-75956129D01*
X124554754Y-75956129D01*
X124701216Y-76016795D01*
X124833031Y-76104872D01*
X124945128Y-76216969D01*
X125033205Y-76348784D01*
X125093871Y-76495246D01*
X125093872Y-76495249D01*
X125124800Y-76650734D01*
X125124800Y-76809266D01*
X125093872Y-76964751D01*
X125093871Y-76964754D01*
X125033205Y-77111216D01*
X124945128Y-77243031D01*
X124833031Y-77355128D01*
X124701216Y-77443205D01*
X124554754Y-77503871D01*
X124554753Y-77503871D01*
X124554751Y-77503872D01*
X124399266Y-77534800D01*
X124240734Y-77534800D01*
X124085249Y-77503872D01*
X124085247Y-77503871D01*
X124085246Y-77503871D01*
X123938784Y-77443205D01*
X123806969Y-77355128D01*
X123694872Y-77243031D01*
X123606795Y-77111216D01*
X123546129Y-76964754D01*
X123546128Y-76964751D01*
X123515200Y-76809266D01*
X123515200Y-76650734D01*
X123546128Y-76495249D01*
X123546129Y-76495246D01*
X123606795Y-76348784D01*
X123694872Y-76216969D01*
X123806969Y-76104872D01*
X123938784Y-76016795D01*
X124085246Y-75956129D01*
X124085247Y-75956129D01*
X124085249Y-75956128D01*
X124240734Y-75925200D01*
X124399266Y-75925200D01*
X124554751Y-75956128D01*
X124554751Y-75956128D01*
G37*
M02*
