G04 #@! TF.GenerationSoftware,KiCad,Pcbnew,(5.1.2-1)-1*
G04 #@! TF.CreationDate,2019-08-09T08:26:06-04:00*
G04 #@! TF.ProjectId,siot-node-temp,73696f74-2d6e-46f6-9465-2d74656d702e,rev?*
G04 #@! TF.SameCoordinates,Original*
G04 #@! TF.FileFunction,Legend,Top*
G04 #@! TF.FilePolarity,Positive*
%FSLAX46Y46*%
G04 Gerber Fmt 4.6, Leading zero omitted, Abs format (unit mm)*
G04 Created by KiCad (PCBNEW (5.1.2-1)-1) date 2019-08-09 08:26:06*
%MOMM*%
%LPD*%
G04 APERTURE LIST*
%ADD10C,0.120000*%
%ADD11C,0.150000*%
G04 APERTURE END LIST*
D10*
X-460435000Y629860000D02*
X-460435000Y631190000D01*
X-459105000Y629860000D02*
X-460435000Y629860000D01*
X-457835000Y629860000D02*
X-457835000Y632520000D01*
X-457835000Y632520000D02*
X-452695000Y632520000D01*
X-457835000Y629860000D02*
X-452695000Y629860000D01*
X-452695000Y629860000D02*
X-452695000Y632520000D01*
X-444560000Y624265000D02*
X-444560000Y625535000D01*
X-441900000Y624265000D02*
X-441900000Y625535000D01*
X-441900000Y616525000D02*
X-443230000Y616525000D01*
X-441900000Y617855000D02*
X-441900000Y616525000D01*
X-441900000Y619125000D02*
X-444560000Y619125000D01*
X-444560000Y619125000D02*
X-444560000Y624265000D01*
X-441900000Y619125000D02*
X-441900000Y624265000D01*
X-441900000Y625535000D02*
X-444560000Y625535000D01*
X-450275000Y629860000D02*
X-450275000Y631190000D01*
X-448945000Y629860000D02*
X-450275000Y629860000D01*
X-447675000Y629860000D02*
X-447675000Y632520000D01*
X-447675000Y632520000D02*
X-442535000Y632520000D01*
X-447675000Y629860000D02*
X-442535000Y629860000D01*
X-442535000Y629860000D02*
X-442535000Y632520000D01*
X-461070000Y624265000D02*
X-461070000Y625535000D01*
X-458410000Y624265000D02*
X-458410000Y625535000D01*
X-458410000Y616525000D02*
X-459740000Y616525000D01*
X-458410000Y617855000D02*
X-458410000Y616525000D01*
X-458410000Y619125000D02*
X-461070000Y619125000D01*
X-461070000Y619125000D02*
X-461070000Y624265000D01*
X-458410000Y619125000D02*
X-458410000Y624265000D01*
X-458410000Y625535000D02*
X-461070000Y625535000D01*
X-450934999Y624860000D02*
X-454384999Y624860000D01*
X-450934999Y624860000D02*
X-448984999Y624860000D01*
X-450934999Y619740000D02*
X-452884999Y619740000D01*
X-450934999Y619740000D02*
X-448984999Y619740000D01*
X-447350000Y628025279D02*
X-447350000Y627699721D01*
X-446330000Y628025279D02*
X-446330000Y627699721D01*
X-456440000Y628025279D02*
X-456440000Y627699721D01*
X-455420000Y628025279D02*
X-455420000Y627699721D01*
X-456440000Y624215279D02*
X-456440000Y623889721D01*
X-455420000Y624215279D02*
X-455420000Y623889721D01*
X-446915000Y624215279D02*
X-446915000Y623889721D01*
X-445895000Y624215279D02*
X-445895000Y623889721D01*
D11*
X-461982619Y630856666D02*
X-461268333Y630856666D01*
X-461125476Y630809047D01*
X-461030238Y630713809D01*
X-460982619Y630570952D01*
X-460982619Y630475714D01*
X-461887380Y631285238D02*
X-461935000Y631332857D01*
X-461982619Y631428095D01*
X-461982619Y631666190D01*
X-461935000Y631761428D01*
X-461887380Y631809047D01*
X-461792142Y631856666D01*
X-461696904Y631856666D01*
X-461554047Y631809047D01*
X-460982619Y631237619D01*
X-460982619Y631856666D01*
X-443563333Y616072619D02*
X-443563333Y615358333D01*
X-443610952Y615215476D01*
X-443706190Y615120238D01*
X-443849047Y615072619D01*
X-443944285Y615072619D01*
X-442658571Y615739285D02*
X-442658571Y615072619D01*
X-442896666Y616120238D02*
X-443134761Y615405952D01*
X-442515714Y615405952D01*
X-451822619Y630856666D02*
X-451108333Y630856666D01*
X-450965476Y630809047D01*
X-450870238Y630713809D01*
X-450822619Y630570952D01*
X-450822619Y630475714D01*
X-451822619Y631237619D02*
X-451822619Y631856666D01*
X-451441666Y631523333D01*
X-451441666Y631666190D01*
X-451394047Y631761428D01*
X-451346428Y631809047D01*
X-451251190Y631856666D01*
X-451013095Y631856666D01*
X-450917857Y631809047D01*
X-450870238Y631761428D01*
X-450822619Y631666190D01*
X-450822619Y631380476D01*
X-450870238Y631285238D01*
X-450917857Y631237619D01*
X-460073333Y616072619D02*
X-460073333Y615358333D01*
X-460120952Y615215476D01*
X-460216190Y615120238D01*
X-460359047Y615072619D01*
X-460454285Y615072619D01*
X-459073333Y615072619D02*
X-459644761Y615072619D01*
X-459359047Y615072619D02*
X-459359047Y616072619D01*
X-459454285Y615929761D01*
X-459549523Y615834523D01*
X-459644761Y615786904D01*
X-451696903Y626247619D02*
X-451696903Y625438095D01*
X-451649284Y625342857D01*
X-451601665Y625295238D01*
X-451506427Y625247619D01*
X-451315951Y625247619D01*
X-451220713Y625295238D01*
X-451173094Y625342857D01*
X-451125475Y625438095D01*
X-451125475Y626247619D01*
X-450125475Y625247619D02*
X-450696903Y625247619D01*
X-450411189Y625247619D02*
X-450411189Y626247619D01*
X-450506427Y626104761D01*
X-450601665Y626009523D01*
X-450696903Y625961904D01*
X-445174666Y627435619D02*
X-445508000Y627911809D01*
X-445746095Y627435619D02*
X-445746095Y628435619D01*
X-445365142Y628435619D01*
X-445269904Y628388000D01*
X-445222285Y628340380D01*
X-445174666Y628245142D01*
X-445174666Y628102285D01*
X-445222285Y628007047D01*
X-445269904Y627959428D01*
X-445365142Y627911809D01*
X-445746095Y627911809D01*
X-444793714Y628340380D02*
X-444746095Y628388000D01*
X-444650857Y628435619D01*
X-444412761Y628435619D01*
X-444317523Y628388000D01*
X-444269904Y628340380D01*
X-444222285Y628245142D01*
X-444222285Y628149904D01*
X-444269904Y628007047D01*
X-444841333Y627435619D01*
X-444222285Y627435619D01*
X-454318666Y627435619D02*
X-454652000Y627911809D01*
X-454890095Y627435619D02*
X-454890095Y628435619D01*
X-454509142Y628435619D01*
X-454413904Y628388000D01*
X-454366285Y628340380D01*
X-454318666Y628245142D01*
X-454318666Y628102285D01*
X-454366285Y628007047D01*
X-454413904Y627959428D01*
X-454509142Y627911809D01*
X-454890095Y627911809D01*
X-453366285Y627435619D02*
X-453937714Y627435619D01*
X-453652000Y627435619D02*
X-453652000Y628435619D01*
X-453747238Y628292761D01*
X-453842476Y628197523D01*
X-453937714Y628149904D01*
X-457874666Y625498857D02*
X-457922285Y625451238D01*
X-458065142Y625403619D01*
X-458160380Y625403619D01*
X-458303238Y625451238D01*
X-458398476Y625546476D01*
X-458446095Y625641714D01*
X-458493714Y625832190D01*
X-458493714Y625975047D01*
X-458446095Y626165523D01*
X-458398476Y626260761D01*
X-458303238Y626356000D01*
X-458160380Y626403619D01*
X-458065142Y626403619D01*
X-457922285Y626356000D01*
X-457874666Y626308380D01*
X-457493714Y626308380D02*
X-457446095Y626356000D01*
X-457350857Y626403619D01*
X-457112761Y626403619D01*
X-457017523Y626356000D01*
X-456969904Y626308380D01*
X-456922285Y626213142D01*
X-456922285Y626117904D01*
X-456969904Y625975047D01*
X-457541333Y625403619D01*
X-456922285Y625403619D01*
X-446047857Y621625333D02*
X-446000238Y621577714D01*
X-445952619Y621434857D01*
X-445952619Y621339619D01*
X-446000238Y621196761D01*
X-446095476Y621101523D01*
X-446190714Y621053904D01*
X-446381190Y621006285D01*
X-446524047Y621006285D01*
X-446714523Y621053904D01*
X-446809761Y621101523D01*
X-446905000Y621196761D01*
X-446952619Y621339619D01*
X-446952619Y621434857D01*
X-446905000Y621577714D01*
X-446857380Y621625333D01*
X-445952619Y622577714D02*
X-445952619Y622006285D01*
X-445952619Y622292000D02*
X-446952619Y622292000D01*
X-446809761Y622196761D01*
X-446714523Y622101523D01*
X-446666904Y622006285D01*
M02*
