G04 #@! TF.GenerationSoftware,KiCad,Pcbnew,5.1.2*
G04 #@! TF.CreationDate,2019-07-19T16:12:23-04:00*
G04 #@! TF.ProjectId,siot-node-temp,73696f74-2d6e-46f6-9465-2d74656d702e,rev?*
G04 #@! TF.SameCoordinates,Original*
G04 #@! TF.FileFunction,Soldermask,Bot*
G04 #@! TF.FilePolarity,Negative*
%FSLAX46Y46*%
G04 Gerber Fmt 4.6, Leading zero omitted, Abs format (unit mm)*
G04 Created by KiCad (PCBNEW 5.1.2) date 2019-07-19 16:12:23*
%MOMM*%
%LPD*%
G04 APERTURE LIST*
%ADD10C,0.100000*%
G04 APERTURE END LIST*
D10*
G36*
X-459631985Y624113027D02*
G01*
X-459528121Y624081521D01*
X-459500945Y624066995D01*
X-459432400Y624030357D01*
X-459348499Y623961501D01*
X-459279643Y623877600D01*
X-459243005Y623809055D01*
X-459228479Y623781879D01*
X-459196973Y623678015D01*
X-459186334Y623570000D01*
X-459196973Y623461985D01*
X-459228479Y623358121D01*
X-459228481Y623358118D01*
X-459279643Y623262400D01*
X-459348499Y623178499D01*
X-459432400Y623109643D01*
X-459500945Y623073005D01*
X-459528121Y623058479D01*
X-459540869Y623054612D01*
X-459563496Y623045240D01*
X-459583870Y623031626D01*
X-459601197Y623014299D01*
X-459614811Y622993925D01*
X-459624188Y622971286D01*
X-459628969Y622947253D01*
X-459628969Y622922749D01*
X-459624189Y622898715D01*
X-459614812Y622876076D01*
X-459601198Y622855702D01*
X-459583871Y622838375D01*
X-459563497Y622824761D01*
X-459540869Y622815388D01*
X-459528121Y622811521D01*
X-459500945Y622796995D01*
X-459432400Y622760357D01*
X-459348499Y622691501D01*
X-459279643Y622607600D01*
X-459243005Y622539055D01*
X-459228479Y622511879D01*
X-459196973Y622408015D01*
X-459186334Y622300000D01*
X-459196973Y622191985D01*
X-459228479Y622088121D01*
X-459228481Y622088118D01*
X-459279643Y621992400D01*
X-459348499Y621908499D01*
X-459432400Y621839644D01*
X-459476193Y621816236D01*
X-459496563Y621802625D01*
X-459513890Y621785298D01*
X-459527504Y621764924D01*
X-459536881Y621742285D01*
X-459541662Y621718252D01*
X-459541662Y621693748D01*
X-459536882Y621669714D01*
X-459527505Y621647076D01*
X-459513891Y621626701D01*
X-459496564Y621609374D01*
X-459476190Y621595760D01*
X-459453551Y621586383D01*
X-459429518Y621581602D01*
X-459417265Y621581000D01*
X-459189000Y621581000D01*
X-459189000Y620479000D01*
X-460291000Y620479000D01*
X-460291000Y621581000D01*
X-460062735Y621581000D01*
X-460038349Y621583402D01*
X-460014900Y621590515D01*
X-459993289Y621602066D01*
X-459974347Y621617611D01*
X-459958802Y621636553D01*
X-459947251Y621658164D01*
X-459940138Y621681613D01*
X-459937736Y621705999D01*
X-459940138Y621730385D01*
X-459947251Y621753834D01*
X-459958802Y621775445D01*
X-459974347Y621794387D01*
X-459993289Y621809932D01*
X-460003802Y621816233D01*
X-460047600Y621839644D01*
X-460131501Y621908499D01*
X-460200357Y621992400D01*
X-460251519Y622088118D01*
X-460251521Y622088121D01*
X-460283027Y622191985D01*
X-460293666Y622300000D01*
X-460283027Y622408015D01*
X-460251521Y622511879D01*
X-460236995Y622539055D01*
X-460200357Y622607600D01*
X-460131501Y622691501D01*
X-460047600Y622760357D01*
X-459979055Y622796995D01*
X-459951879Y622811521D01*
X-459939131Y622815388D01*
X-459916504Y622824760D01*
X-459896130Y622838374D01*
X-459878803Y622855701D01*
X-459865189Y622876075D01*
X-459855812Y622898714D01*
X-459851031Y622922747D01*
X-459851031Y622947251D01*
X-459855811Y622971285D01*
X-459865188Y622993924D01*
X-459878802Y623014298D01*
X-459896129Y623031625D01*
X-459916503Y623045239D01*
X-459939131Y623054612D01*
X-459951879Y623058479D01*
X-459979055Y623073005D01*
X-460047600Y623109643D01*
X-460131501Y623178499D01*
X-460200357Y623262400D01*
X-460251519Y623358118D01*
X-460251521Y623358121D01*
X-460283027Y623461985D01*
X-460293666Y623570000D01*
X-460283027Y623678015D01*
X-460251521Y623781879D01*
X-460236995Y623809055D01*
X-460200357Y623877600D01*
X-460131501Y623961501D01*
X-460047600Y624030357D01*
X-459979055Y624066995D01*
X-459951879Y624081521D01*
X-459848015Y624113027D01*
X-459767067Y624121000D01*
X-459712933Y624121000D01*
X-459631985Y624113027D01*
X-459631985Y624113027D01*
G37*
G36*
X-443121985Y624113027D02*
G01*
X-443018121Y624081521D01*
X-442990945Y624066995D01*
X-442922400Y624030357D01*
X-442838499Y623961501D01*
X-442769643Y623877600D01*
X-442733005Y623809055D01*
X-442718479Y623781879D01*
X-442686973Y623678015D01*
X-442676334Y623570000D01*
X-442686973Y623461985D01*
X-442718479Y623358121D01*
X-442718481Y623358118D01*
X-442769643Y623262400D01*
X-442838499Y623178499D01*
X-442922400Y623109643D01*
X-442990945Y623073005D01*
X-443018121Y623058479D01*
X-443030869Y623054612D01*
X-443053496Y623045240D01*
X-443073870Y623031626D01*
X-443091197Y623014299D01*
X-443104811Y622993925D01*
X-443114188Y622971286D01*
X-443118969Y622947253D01*
X-443118969Y622922749D01*
X-443114189Y622898715D01*
X-443104812Y622876076D01*
X-443091198Y622855702D01*
X-443073871Y622838375D01*
X-443053497Y622824761D01*
X-443030869Y622815388D01*
X-443018121Y622811521D01*
X-442990945Y622796995D01*
X-442922400Y622760357D01*
X-442838499Y622691501D01*
X-442769643Y622607600D01*
X-442733005Y622539055D01*
X-442718479Y622511879D01*
X-442686973Y622408015D01*
X-442676334Y622300000D01*
X-442686973Y622191985D01*
X-442718479Y622088121D01*
X-442718481Y622088118D01*
X-442769643Y621992400D01*
X-442838499Y621908499D01*
X-442922400Y621839644D01*
X-442966193Y621816236D01*
X-442986563Y621802625D01*
X-443003890Y621785298D01*
X-443017504Y621764924D01*
X-443026881Y621742285D01*
X-443031662Y621718252D01*
X-443031662Y621693748D01*
X-443026882Y621669714D01*
X-443017505Y621647076D01*
X-443003891Y621626701D01*
X-442986564Y621609374D01*
X-442966190Y621595760D01*
X-442943551Y621586383D01*
X-442919518Y621581602D01*
X-442907265Y621581000D01*
X-442679000Y621581000D01*
X-442679000Y620479000D01*
X-443781000Y620479000D01*
X-443781000Y621581000D01*
X-443552735Y621581000D01*
X-443528349Y621583402D01*
X-443504900Y621590515D01*
X-443483289Y621602066D01*
X-443464347Y621617611D01*
X-443448802Y621636553D01*
X-443437251Y621658164D01*
X-443430138Y621681613D01*
X-443427736Y621705999D01*
X-443430138Y621730385D01*
X-443437251Y621753834D01*
X-443448802Y621775445D01*
X-443464347Y621794387D01*
X-443483289Y621809932D01*
X-443493802Y621816233D01*
X-443537600Y621839644D01*
X-443621501Y621908499D01*
X-443690357Y621992400D01*
X-443741519Y622088118D01*
X-443741521Y622088121D01*
X-443773027Y622191985D01*
X-443783666Y622300000D01*
X-443773027Y622408015D01*
X-443741521Y622511879D01*
X-443726995Y622539055D01*
X-443690357Y622607600D01*
X-443621501Y622691501D01*
X-443537600Y622760357D01*
X-443469055Y622796995D01*
X-443441879Y622811521D01*
X-443429131Y622815388D01*
X-443406504Y622824760D01*
X-443386130Y622838374D01*
X-443368803Y622855701D01*
X-443355189Y622876075D01*
X-443345812Y622898714D01*
X-443341031Y622922747D01*
X-443341031Y622947251D01*
X-443345811Y622971285D01*
X-443355188Y622993924D01*
X-443368802Y623014298D01*
X-443386129Y623031625D01*
X-443406503Y623045239D01*
X-443429131Y623054612D01*
X-443441879Y623058479D01*
X-443469055Y623073005D01*
X-443537600Y623109643D01*
X-443621501Y623178499D01*
X-443690357Y623262400D01*
X-443741519Y623358118D01*
X-443741521Y623358121D01*
X-443773027Y623461985D01*
X-443783666Y623570000D01*
X-443773027Y623678015D01*
X-443741521Y623781879D01*
X-443726995Y623809055D01*
X-443690357Y623877600D01*
X-443621501Y623961501D01*
X-443537600Y624030357D01*
X-443469055Y624066995D01*
X-443441879Y624081521D01*
X-443338015Y624113027D01*
X-443257067Y624121000D01*
X-443202933Y624121000D01*
X-443121985Y624113027D01*
X-443121985Y624113027D01*
G37*
G36*
X-447419000Y631512735D02*
G01*
X-447416598Y631488349D01*
X-447409485Y631464900D01*
X-447397934Y631443289D01*
X-447382389Y631424347D01*
X-447363447Y631408802D01*
X-447341836Y631397251D01*
X-447318387Y631390138D01*
X-447294001Y631387736D01*
X-447269615Y631390138D01*
X-447246166Y631397251D01*
X-447224555Y631408802D01*
X-447205613Y631424347D01*
X-447190068Y631443289D01*
X-447183767Y631453802D01*
X-447160356Y631497600D01*
X-447091501Y631581501D01*
X-447007600Y631650357D01*
X-446939055Y631686995D01*
X-446911879Y631701521D01*
X-446808015Y631733027D01*
X-446727067Y631741000D01*
X-446672933Y631741000D01*
X-446591985Y631733027D01*
X-446488121Y631701521D01*
X-446460945Y631686995D01*
X-446392400Y631650357D01*
X-446308499Y631581501D01*
X-446239643Y631497600D01*
X-446203005Y631429055D01*
X-446188479Y631401879D01*
X-446184612Y631389131D01*
X-446175240Y631366504D01*
X-446161626Y631346130D01*
X-446144299Y631328803D01*
X-446123925Y631315189D01*
X-446101286Y631305812D01*
X-446077253Y631301031D01*
X-446052749Y631301031D01*
X-446028715Y631305811D01*
X-446006076Y631315188D01*
X-445985702Y631328802D01*
X-445968375Y631346129D01*
X-445954761Y631366503D01*
X-445945388Y631389131D01*
X-445941521Y631401879D01*
X-445926995Y631429055D01*
X-445890357Y631497600D01*
X-445821501Y631581501D01*
X-445737600Y631650357D01*
X-445669055Y631686995D01*
X-445641879Y631701521D01*
X-445538015Y631733027D01*
X-445457067Y631741000D01*
X-445402933Y631741000D01*
X-445321985Y631733027D01*
X-445218121Y631701521D01*
X-445190945Y631686995D01*
X-445122400Y631650357D01*
X-445038499Y631581501D01*
X-444969643Y631497600D01*
X-444933005Y631429055D01*
X-444918479Y631401879D01*
X-444886973Y631298015D01*
X-444876334Y631190000D01*
X-444886973Y631081985D01*
X-444918479Y630978121D01*
X-444918809Y630977504D01*
X-444969643Y630882400D01*
X-445038499Y630798499D01*
X-445122400Y630729643D01*
X-445190945Y630693005D01*
X-445218121Y630678479D01*
X-445321985Y630646973D01*
X-445402933Y630639000D01*
X-445457067Y630639000D01*
X-445538015Y630646973D01*
X-445641879Y630678479D01*
X-445669055Y630693005D01*
X-445737600Y630729643D01*
X-445821501Y630798499D01*
X-445890357Y630882400D01*
X-445941191Y630977504D01*
X-445941521Y630978121D01*
X-445945388Y630990869D01*
X-445954760Y631013496D01*
X-445968374Y631033870D01*
X-445985701Y631051197D01*
X-446006075Y631064811D01*
X-446028714Y631074188D01*
X-446052747Y631078969D01*
X-446077251Y631078969D01*
X-446101285Y631074189D01*
X-446123924Y631064812D01*
X-446144298Y631051198D01*
X-446161625Y631033871D01*
X-446175239Y631013497D01*
X-446184612Y630990869D01*
X-446188479Y630978121D01*
X-446188809Y630977504D01*
X-446239643Y630882400D01*
X-446308499Y630798499D01*
X-446392400Y630729643D01*
X-446460945Y630693005D01*
X-446488121Y630678479D01*
X-446591985Y630646973D01*
X-446672933Y630639000D01*
X-446727067Y630639000D01*
X-446808015Y630646973D01*
X-446911879Y630678479D01*
X-446939055Y630693005D01*
X-447007600Y630729643D01*
X-447091501Y630798499D01*
X-447160355Y630882399D01*
X-447160356Y630882400D01*
X-447183764Y630926193D01*
X-447197375Y630946563D01*
X-447214702Y630963890D01*
X-447235076Y630977504D01*
X-447257715Y630986881D01*
X-447281748Y630991662D01*
X-447306252Y630991662D01*
X-447330286Y630986882D01*
X-447352924Y630977505D01*
X-447373299Y630963891D01*
X-447390626Y630946564D01*
X-447404240Y630926190D01*
X-447413617Y630903551D01*
X-447418398Y630879518D01*
X-447419000Y630867265D01*
X-447419000Y630639000D01*
X-448521000Y630639000D01*
X-448521000Y631741000D01*
X-447419000Y631741000D01*
X-447419000Y631512735D01*
X-447419000Y631512735D01*
G37*
G36*
X-456649000Y631512735D02*
G01*
X-456646598Y631488349D01*
X-456639485Y631464900D01*
X-456627934Y631443289D01*
X-456612389Y631424347D01*
X-456593447Y631408802D01*
X-456571836Y631397251D01*
X-456548387Y631390138D01*
X-456524001Y631387736D01*
X-456499615Y631390138D01*
X-456476166Y631397251D01*
X-456454555Y631408802D01*
X-456435613Y631424347D01*
X-456420068Y631443289D01*
X-456413767Y631453802D01*
X-456390356Y631497600D01*
X-456321501Y631581501D01*
X-456237600Y631650357D01*
X-456169055Y631686995D01*
X-456141879Y631701521D01*
X-456038015Y631733027D01*
X-455957067Y631741000D01*
X-455902933Y631741000D01*
X-455821985Y631733027D01*
X-455718121Y631701521D01*
X-455690945Y631686995D01*
X-455622400Y631650357D01*
X-455538499Y631581501D01*
X-455469643Y631497600D01*
X-455433005Y631429055D01*
X-455418479Y631401879D01*
X-455414612Y631389131D01*
X-455405240Y631366504D01*
X-455391626Y631346130D01*
X-455374299Y631328803D01*
X-455353925Y631315189D01*
X-455331286Y631305812D01*
X-455307253Y631301031D01*
X-455282749Y631301031D01*
X-455258715Y631305811D01*
X-455236076Y631315188D01*
X-455215702Y631328802D01*
X-455198375Y631346129D01*
X-455184761Y631366503D01*
X-455175388Y631389131D01*
X-455171521Y631401879D01*
X-455156995Y631429055D01*
X-455120357Y631497600D01*
X-455051501Y631581501D01*
X-454967600Y631650357D01*
X-454899055Y631686995D01*
X-454871879Y631701521D01*
X-454768015Y631733027D01*
X-454687067Y631741000D01*
X-454632933Y631741000D01*
X-454551985Y631733027D01*
X-454448121Y631701521D01*
X-454420945Y631686995D01*
X-454352400Y631650357D01*
X-454268499Y631581501D01*
X-454199643Y631497600D01*
X-454163005Y631429055D01*
X-454148479Y631401879D01*
X-454116973Y631298015D01*
X-454106334Y631190000D01*
X-454116973Y631081985D01*
X-454148479Y630978121D01*
X-454148809Y630977504D01*
X-454199643Y630882400D01*
X-454268499Y630798499D01*
X-454352400Y630729643D01*
X-454420945Y630693005D01*
X-454448121Y630678479D01*
X-454551985Y630646973D01*
X-454632933Y630639000D01*
X-454687067Y630639000D01*
X-454768015Y630646973D01*
X-454871879Y630678479D01*
X-454899055Y630693005D01*
X-454967600Y630729643D01*
X-455051501Y630798499D01*
X-455120357Y630882400D01*
X-455171191Y630977504D01*
X-455171521Y630978121D01*
X-455175388Y630990869D01*
X-455184760Y631013496D01*
X-455198374Y631033870D01*
X-455215701Y631051197D01*
X-455236075Y631064811D01*
X-455258714Y631074188D01*
X-455282747Y631078969D01*
X-455307251Y631078969D01*
X-455331285Y631074189D01*
X-455353924Y631064812D01*
X-455374298Y631051198D01*
X-455391625Y631033871D01*
X-455405239Y631013497D01*
X-455414612Y630990869D01*
X-455418479Y630978121D01*
X-455418809Y630977504D01*
X-455469643Y630882400D01*
X-455538499Y630798499D01*
X-455622400Y630729643D01*
X-455690945Y630693005D01*
X-455718121Y630678479D01*
X-455821985Y630646973D01*
X-455902933Y630639000D01*
X-455957067Y630639000D01*
X-456038015Y630646973D01*
X-456141879Y630678479D01*
X-456169055Y630693005D01*
X-456237600Y630729643D01*
X-456321501Y630798499D01*
X-456390355Y630882399D01*
X-456390356Y630882400D01*
X-456413764Y630926193D01*
X-456427375Y630946563D01*
X-456444702Y630963890D01*
X-456465076Y630977504D01*
X-456487715Y630986881D01*
X-456511748Y630991662D01*
X-456536252Y630991662D01*
X-456560286Y630986882D01*
X-456582924Y630977505D01*
X-456603299Y630963891D01*
X-456620626Y630946564D01*
X-456634240Y630926190D01*
X-456643617Y630903551D01*
X-456648398Y630879518D01*
X-456649000Y630867265D01*
X-456649000Y630639000D01*
X-457751000Y630639000D01*
X-457751000Y631741000D01*
X-456649000Y631741000D01*
X-456649000Y631512735D01*
X-456649000Y631512735D01*
G37*
M02*
