G04 #@! TF.GenerationSoftware,KiCad,Pcbnew,5.1.2*
G04 #@! TF.CreationDate,2019-07-19T16:40:10-04:00*
G04 #@! TF.ProjectId,siot-node-temp,73696f74-2d6e-46f6-9465-2d74656d702e,rev?*
G04 #@! TF.SameCoordinates,Original*
G04 #@! TF.FileFunction,Legend,Top*
G04 #@! TF.FilePolarity,Positive*
%FSLAX46Y46*%
G04 Gerber Fmt 4.6, Leading zero omitted, Abs format (unit mm)*
G04 Created by KiCad (PCBNEW 5.1.2) date 2019-07-19 16:40:10*
%MOMM*%
%LPD*%
G04 APERTURE LIST*
%ADD10C,0.120000*%
%ADD11C,0.150000*%
G04 APERTURE END LIST*
D10*
X-442120000Y620270000D02*
X-443230000Y620270000D01*
X-442120000Y621030000D02*
X-442120000Y620270000D01*
X-443793471Y621790000D02*
X-444340000Y621790000D01*
X-442120000Y621790000D02*
X-442666529Y621790000D01*
X-444340000Y621790000D02*
X-444340000Y624265000D01*
X-442120000Y621790000D02*
X-442120000Y624265000D01*
X-443537530Y624265000D02*
X-444340000Y624265000D01*
X-442120000Y624265000D02*
X-442922470Y624265000D01*
X-450934999Y624860000D02*
X-454384999Y624860000D01*
X-450934999Y624860000D02*
X-448984999Y624860000D01*
X-450934999Y619740000D02*
X-452884999Y619740000D01*
X-450934999Y619740000D02*
X-448984999Y619740000D01*
X-447350000Y628025279D02*
X-447350000Y627699721D01*
X-446330000Y628025279D02*
X-446330000Y627699721D01*
X-456440000Y628025279D02*
X-456440000Y627699721D01*
X-455420000Y628025279D02*
X-455420000Y627699721D01*
X-448730000Y630080000D02*
X-448730000Y631190000D01*
X-447970000Y630080000D02*
X-448730000Y630080000D01*
X-447210000Y631753471D02*
X-447210000Y632300000D01*
X-447210000Y630080000D02*
X-447210000Y630626529D01*
X-447210000Y632300000D02*
X-444735000Y632300000D01*
X-447210000Y630080000D02*
X-444735000Y630080000D01*
X-444735000Y631497530D02*
X-444735000Y632300000D01*
X-444735000Y630080000D02*
X-444735000Y630882470D01*
X-457960000Y630080000D02*
X-457960000Y631190000D01*
X-457200000Y630080000D02*
X-457960000Y630080000D01*
X-456440000Y631753471D02*
X-456440000Y632300000D01*
X-456440000Y630080000D02*
X-456440000Y630626529D01*
X-456440000Y632300000D02*
X-453965000Y632300000D01*
X-456440000Y630080000D02*
X-453965000Y630080000D01*
X-453965000Y631497530D02*
X-453965000Y632300000D01*
X-453965000Y630080000D02*
X-453965000Y630882470D01*
X-458630000Y620270000D02*
X-459740000Y620270000D01*
X-458630000Y621030000D02*
X-458630000Y620270000D01*
X-460303471Y621790000D02*
X-460850000Y621790000D01*
X-458630000Y621790000D02*
X-459176529Y621790000D01*
X-460850000Y621790000D02*
X-460850000Y624265000D01*
X-458630000Y621790000D02*
X-458630000Y624265000D01*
X-460047530Y624265000D02*
X-460850000Y624265000D01*
X-458630000Y624265000D02*
X-459432470Y624265000D01*
X-456440000Y624215279D02*
X-456440000Y623889721D01*
X-455420000Y624215279D02*
X-455420000Y623889721D01*
X-446280000Y624215279D02*
X-446280000Y623889721D01*
X-445260000Y624215279D02*
X-445260000Y623889721D01*
D11*
X-443563333Y625895619D02*
X-443563333Y625181333D01*
X-443610952Y625038476D01*
X-443706190Y624943238D01*
X-443849047Y624895619D01*
X-443944285Y624895619D01*
X-442658571Y625562285D02*
X-442658571Y624895619D01*
X-442896666Y625943238D02*
X-443134761Y625228952D01*
X-442515714Y625228952D01*
X-451696903Y626247619D02*
X-451696903Y625438095D01*
X-451649284Y625342857D01*
X-451601665Y625295238D01*
X-451506427Y625247619D01*
X-451315951Y625247619D01*
X-451220713Y625295238D01*
X-451173094Y625342857D01*
X-451125475Y625438095D01*
X-451125475Y626247619D01*
X-450125475Y625247619D02*
X-450696903Y625247619D01*
X-450411189Y625247619D02*
X-450411189Y626247619D01*
X-450506427Y626104761D01*
X-450601665Y626009523D01*
X-450696903Y625961904D01*
X-445174666Y627435619D02*
X-445508000Y627911809D01*
X-445746095Y627435619D02*
X-445746095Y628435619D01*
X-445365142Y628435619D01*
X-445269904Y628388000D01*
X-445222285Y628340380D01*
X-445174666Y628245142D01*
X-445174666Y628102285D01*
X-445222285Y628007047D01*
X-445269904Y627959428D01*
X-445365142Y627911809D01*
X-445746095Y627911809D01*
X-444793714Y628340380D02*
X-444746095Y628388000D01*
X-444650857Y628435619D01*
X-444412761Y628435619D01*
X-444317523Y628388000D01*
X-444269904Y628340380D01*
X-444222285Y628245142D01*
X-444222285Y628149904D01*
X-444269904Y628007047D01*
X-444841333Y627435619D01*
X-444222285Y627435619D01*
X-454318666Y627435619D02*
X-454652000Y627911809D01*
X-454890095Y627435619D02*
X-454890095Y628435619D01*
X-454509142Y628435619D01*
X-454413904Y628388000D01*
X-454366285Y628340380D01*
X-454318666Y628245142D01*
X-454318666Y628102285D01*
X-454366285Y628007047D01*
X-454413904Y627959428D01*
X-454509142Y627911809D01*
X-454890095Y627911809D01*
X-453366285Y627435619D02*
X-453937714Y627435619D01*
X-453652000Y627435619D02*
X-453652000Y628435619D01*
X-453747238Y628292761D01*
X-453842476Y628197523D01*
X-453937714Y628149904D01*
X-450421333Y631737619D02*
X-450421333Y631023333D01*
X-450468952Y630880476D01*
X-450564190Y630785238D01*
X-450707047Y630737619D01*
X-450802285Y630737619D01*
X-450040380Y631737619D02*
X-449421333Y631737619D01*
X-449754666Y631356666D01*
X-449611809Y631356666D01*
X-449516571Y631309047D01*
X-449468952Y631261428D01*
X-449421333Y631166190D01*
X-449421333Y630928095D01*
X-449468952Y630832857D01*
X-449516571Y630785238D01*
X-449611809Y630737619D01*
X-449897523Y630737619D01*
X-449992761Y630785238D01*
X-450040380Y630832857D01*
X-459565333Y631737619D02*
X-459565333Y631023333D01*
X-459612952Y630880476D01*
X-459708190Y630785238D01*
X-459851047Y630737619D01*
X-459946285Y630737619D01*
X-459136761Y631642380D02*
X-459089142Y631690000D01*
X-458993904Y631737619D01*
X-458755809Y631737619D01*
X-458660571Y631690000D01*
X-458612952Y631642380D01*
X-458565333Y631547142D01*
X-458565333Y631451904D01*
X-458612952Y631309047D01*
X-459184380Y630737619D01*
X-458565333Y630737619D01*
X-460073333Y625895619D02*
X-460073333Y625181333D01*
X-460120952Y625038476D01*
X-460216190Y624943238D01*
X-460359047Y624895619D01*
X-460454285Y624895619D01*
X-459073333Y624895619D02*
X-459644761Y624895619D01*
X-459359047Y624895619D02*
X-459359047Y625895619D01*
X-459454285Y625752761D01*
X-459549523Y625657523D01*
X-459644761Y625609904D01*
X-457874666Y625498857D02*
X-457922285Y625451238D01*
X-458065142Y625403619D01*
X-458160380Y625403619D01*
X-458303238Y625451238D01*
X-458398476Y625546476D01*
X-458446095Y625641714D01*
X-458493714Y625832190D01*
X-458493714Y625975047D01*
X-458446095Y626165523D01*
X-458398476Y626260761D01*
X-458303238Y626356000D01*
X-458160380Y626403619D01*
X-458065142Y626403619D01*
X-457922285Y626356000D01*
X-457874666Y626308380D01*
X-457493714Y626308380D02*
X-457446095Y626356000D01*
X-457350857Y626403619D01*
X-457112761Y626403619D01*
X-457017523Y626356000D01*
X-456969904Y626308380D01*
X-456922285Y626213142D01*
X-456922285Y626117904D01*
X-456969904Y625975047D01*
X-457541333Y625403619D01*
X-456922285Y625403619D01*
X-445666857Y621625333D02*
X-445619238Y621577714D01*
X-445571619Y621434857D01*
X-445571619Y621339619D01*
X-445619238Y621196761D01*
X-445714476Y621101523D01*
X-445809714Y621053904D01*
X-446000190Y621006285D01*
X-446143047Y621006285D01*
X-446333523Y621053904D01*
X-446428761Y621101523D01*
X-446524000Y621196761D01*
X-446571619Y621339619D01*
X-446571619Y621434857D01*
X-446524000Y621577714D01*
X-446476380Y621625333D01*
X-445571619Y622577714D02*
X-445571619Y622006285D01*
X-445571619Y622292000D02*
X-446571619Y622292000D01*
X-446428761Y622196761D01*
X-446333523Y622101523D01*
X-446285904Y622006285D01*
M02*
