G04 #@! TF.GenerationSoftware,KiCad,Pcbnew,(5.1.2-1)-1*
G04 #@! TF.CreationDate,2019-08-09T08:26:06-04:00*
G04 #@! TF.ProjectId,siot-node-temp,73696f74-2d6e-46f6-9465-2d74656d702e,rev?*
G04 #@! TF.SameCoordinates,Original*
G04 #@! TF.FileFunction,Soldermask,Top*
G04 #@! TF.FilePolarity,Negative*
%FSLAX46Y46*%
G04 Gerber Fmt 4.6, Leading zero omitted, Abs format (unit mm)*
G04 Created by KiCad (PCBNEW (5.1.2-1)-1) date 2019-08-09 08:26:06*
%MOMM*%
%LPD*%
G04 APERTURE LIST*
%ADD10C,0.100000*%
G04 APERTURE END LIST*
D10*
G36*
X-442163000Y616788000D02*
G01*
X-444297000Y616788000D01*
X-444297000Y618922000D01*
X-442163000Y618922000D01*
X-442163000Y616788000D01*
X-442163000Y616788000D01*
G37*
G36*
X-458673000Y616788000D02*
G01*
X-460807000Y616788000D01*
X-460807000Y618922000D01*
X-458673000Y618922000D01*
X-458673000Y616788000D01*
X-458673000Y616788000D01*
G37*
G36*
X-443114886Y622090824D02*
G01*
X-443020832Y622081561D01*
X-442819701Y622020549D01*
X-442748472Y621982476D01*
X-442634339Y621921471D01*
X-442471867Y621788133D01*
X-442338529Y621625661D01*
X-442285318Y621526110D01*
X-442239451Y621440299D01*
X-442178439Y621239168D01*
X-442157838Y621030000D01*
X-442178439Y620820832D01*
X-442239451Y620619701D01*
X-442265750Y620570500D01*
X-442338529Y620434339D01*
X-442471867Y620271867D01*
X-442634339Y620138529D01*
X-442733890Y620085318D01*
X-442819701Y620039451D01*
X-443020832Y619978439D01*
X-443114886Y619969176D01*
X-443177587Y619963000D01*
X-443282413Y619963000D01*
X-443345114Y619969176D01*
X-443439168Y619978439D01*
X-443640299Y620039451D01*
X-443726110Y620085318D01*
X-443825661Y620138529D01*
X-443988133Y620271867D01*
X-444121471Y620434339D01*
X-444194250Y620570500D01*
X-444220549Y620619701D01*
X-444281561Y620820832D01*
X-444302162Y621030000D01*
X-444281561Y621239168D01*
X-444220549Y621440299D01*
X-444174682Y621526110D01*
X-444121471Y621625661D01*
X-443988133Y621788133D01*
X-443825661Y621921471D01*
X-443711528Y621982476D01*
X-443640299Y622020549D01*
X-443439168Y622081561D01*
X-443345114Y622090824D01*
X-443282413Y622097000D01*
X-443177587Y622097000D01*
X-443114886Y622090824D01*
X-443114886Y622090824D01*
G37*
G36*
X-459624886Y622090824D02*
G01*
X-459530832Y622081561D01*
X-459329701Y622020549D01*
X-459258472Y621982476D01*
X-459144339Y621921471D01*
X-458981867Y621788133D01*
X-458848529Y621625661D01*
X-458795318Y621526110D01*
X-458749451Y621440299D01*
X-458688439Y621239168D01*
X-458667838Y621030000D01*
X-458688439Y620820832D01*
X-458749451Y620619701D01*
X-458775750Y620570500D01*
X-458848529Y620434339D01*
X-458981867Y620271867D01*
X-459144339Y620138529D01*
X-459243890Y620085318D01*
X-459329701Y620039451D01*
X-459530832Y619978439D01*
X-459624886Y619969176D01*
X-459687587Y619963000D01*
X-459792413Y619963000D01*
X-459855114Y619969176D01*
X-459949168Y619978439D01*
X-460150299Y620039451D01*
X-460236110Y620085318D01*
X-460335661Y620138529D01*
X-460498133Y620271867D01*
X-460631471Y620434339D01*
X-460704250Y620570500D01*
X-460730549Y620619701D01*
X-460791561Y620820832D01*
X-460812162Y621030000D01*
X-460791561Y621239168D01*
X-460730549Y621440299D01*
X-460684682Y621526110D01*
X-460631471Y621625661D01*
X-460498133Y621788133D01*
X-460335661Y621921471D01*
X-460221528Y621982476D01*
X-460150299Y622020549D01*
X-459949168Y622081561D01*
X-459855114Y622090824D01*
X-459792413Y622097000D01*
X-459687587Y622097000D01*
X-459624886Y622090824D01*
X-459624886Y622090824D01*
G37*
G36*
X-447525071Y620743236D02*
G01*
X-447503990Y620736840D01*
X-447484554Y620726452D01*
X-447467523Y620712476D01*
X-447453547Y620695445D01*
X-447443159Y620676009D01*
X-447436763Y620654928D01*
X-447433999Y620626860D01*
X-447433999Y620163140D01*
X-447436763Y620135072D01*
X-447443159Y620113991D01*
X-447453547Y620094555D01*
X-447467523Y620077524D01*
X-447484554Y620063548D01*
X-447503990Y620053160D01*
X-447525071Y620046764D01*
X-447553139Y620044000D01*
X-449366859Y620044000D01*
X-449394927Y620046764D01*
X-449416008Y620053160D01*
X-449435444Y620063548D01*
X-449452475Y620077524D01*
X-449466451Y620094555D01*
X-449476839Y620113991D01*
X-449483235Y620135072D01*
X-449485999Y620163140D01*
X-449485999Y620626860D01*
X-449483235Y620654928D01*
X-449476839Y620676009D01*
X-449466451Y620695445D01*
X-449452475Y620712476D01*
X-449435444Y620726452D01*
X-449416008Y620736840D01*
X-449394927Y620743236D01*
X-449366859Y620746000D01*
X-447553139Y620746000D01*
X-447525071Y620743236D01*
X-447525071Y620743236D01*
G37*
G36*
X-452475071Y620743236D02*
G01*
X-452453990Y620736840D01*
X-452434554Y620726452D01*
X-452417523Y620712476D01*
X-452403547Y620695445D01*
X-452393159Y620676009D01*
X-452386763Y620654928D01*
X-452383999Y620626860D01*
X-452383999Y620163140D01*
X-452386763Y620135072D01*
X-452393159Y620113991D01*
X-452403547Y620094555D01*
X-452417523Y620077524D01*
X-452434554Y620063548D01*
X-452453990Y620053160D01*
X-452475071Y620046764D01*
X-452503139Y620044000D01*
X-454316859Y620044000D01*
X-454344927Y620046764D01*
X-454366008Y620053160D01*
X-454385444Y620063548D01*
X-454402475Y620077524D01*
X-454416451Y620094555D01*
X-454426839Y620113991D01*
X-454433235Y620135072D01*
X-454435999Y620163140D01*
X-454435999Y620626860D01*
X-454433235Y620654928D01*
X-454426839Y620676009D01*
X-454416451Y620695445D01*
X-454402475Y620712476D01*
X-454385444Y620726452D01*
X-454366008Y620736840D01*
X-454344927Y620743236D01*
X-454316859Y620746000D01*
X-452503139Y620746000D01*
X-452475071Y620743236D01*
X-452475071Y620743236D01*
G37*
G36*
X-447525071Y622013236D02*
G01*
X-447503990Y622006840D01*
X-447484554Y621996452D01*
X-447467523Y621982476D01*
X-447453547Y621965445D01*
X-447443159Y621946009D01*
X-447436763Y621924928D01*
X-447433999Y621896860D01*
X-447433999Y621433140D01*
X-447436763Y621405072D01*
X-447443159Y621383991D01*
X-447453547Y621364555D01*
X-447467523Y621347524D01*
X-447484554Y621333548D01*
X-447503990Y621323160D01*
X-447525071Y621316764D01*
X-447553139Y621314000D01*
X-449366859Y621314000D01*
X-449394927Y621316764D01*
X-449416008Y621323160D01*
X-449435444Y621333548D01*
X-449452475Y621347524D01*
X-449466451Y621364555D01*
X-449476839Y621383991D01*
X-449483235Y621405072D01*
X-449485999Y621433140D01*
X-449485999Y621896860D01*
X-449483235Y621924928D01*
X-449476839Y621946009D01*
X-449466451Y621965445D01*
X-449452475Y621982476D01*
X-449435444Y621996452D01*
X-449416008Y622006840D01*
X-449394927Y622013236D01*
X-449366859Y622016000D01*
X-447553139Y622016000D01*
X-447525071Y622013236D01*
X-447525071Y622013236D01*
G37*
G36*
X-452475071Y622013236D02*
G01*
X-452453990Y622006840D01*
X-452434554Y621996452D01*
X-452417523Y621982476D01*
X-452403547Y621965445D01*
X-452393159Y621946009D01*
X-452386763Y621924928D01*
X-452383999Y621896860D01*
X-452383999Y621433140D01*
X-452386763Y621405072D01*
X-452393159Y621383991D01*
X-452403547Y621364555D01*
X-452417523Y621347524D01*
X-452434554Y621333548D01*
X-452453990Y621323160D01*
X-452475071Y621316764D01*
X-452503139Y621314000D01*
X-454316859Y621314000D01*
X-454344927Y621316764D01*
X-454366008Y621323160D01*
X-454385444Y621333548D01*
X-454402475Y621347524D01*
X-454416451Y621364555D01*
X-454426839Y621383991D01*
X-454433235Y621405072D01*
X-454435999Y621433140D01*
X-454435999Y621896860D01*
X-454433235Y621924928D01*
X-454426839Y621946009D01*
X-454416451Y621965445D01*
X-454402475Y621982476D01*
X-454385444Y621996452D01*
X-454366008Y622006840D01*
X-454344927Y622013236D01*
X-454316859Y622016000D01*
X-452503139Y622016000D01*
X-452475071Y622013236D01*
X-452475071Y622013236D01*
G37*
G36*
X-447525071Y623283236D02*
G01*
X-447503990Y623276840D01*
X-447484554Y623266452D01*
X-447467523Y623252476D01*
X-447453547Y623235445D01*
X-447443159Y623216009D01*
X-447436763Y623194928D01*
X-447433999Y623166860D01*
X-447433999Y622703140D01*
X-447436763Y622675072D01*
X-447443159Y622653991D01*
X-447453547Y622634555D01*
X-447467523Y622617524D01*
X-447484554Y622603548D01*
X-447503990Y622593160D01*
X-447525071Y622586764D01*
X-447553139Y622584000D01*
X-449366859Y622584000D01*
X-449394927Y622586764D01*
X-449416008Y622593160D01*
X-449435444Y622603548D01*
X-449452475Y622617524D01*
X-449466451Y622634555D01*
X-449476839Y622653991D01*
X-449483235Y622675072D01*
X-449485999Y622703140D01*
X-449485999Y623166860D01*
X-449483235Y623194928D01*
X-449476839Y623216009D01*
X-449466451Y623235445D01*
X-449452475Y623252476D01*
X-449435444Y623266452D01*
X-449416008Y623276840D01*
X-449394927Y623283236D01*
X-449366859Y623286000D01*
X-447553139Y623286000D01*
X-447525071Y623283236D01*
X-447525071Y623283236D01*
G37*
G36*
X-452475071Y623283236D02*
G01*
X-452453990Y623276840D01*
X-452434554Y623266452D01*
X-452417523Y623252476D01*
X-452403547Y623235445D01*
X-452393159Y623216009D01*
X-452386763Y623194928D01*
X-452383999Y623166860D01*
X-452383999Y622703140D01*
X-452386763Y622675072D01*
X-452393159Y622653991D01*
X-452403547Y622634555D01*
X-452417523Y622617524D01*
X-452434554Y622603548D01*
X-452453990Y622593160D01*
X-452475071Y622586764D01*
X-452503139Y622584000D01*
X-454316859Y622584000D01*
X-454344927Y622586764D01*
X-454366008Y622593160D01*
X-454385444Y622603548D01*
X-454402475Y622617524D01*
X-454416451Y622634555D01*
X-454426839Y622653991D01*
X-454433235Y622675072D01*
X-454435999Y622703140D01*
X-454435999Y623166860D01*
X-454433235Y623194928D01*
X-454426839Y623216009D01*
X-454416451Y623235445D01*
X-454402475Y623252476D01*
X-454385444Y623266452D01*
X-454366008Y623276840D01*
X-454344927Y623283236D01*
X-454316859Y623286000D01*
X-452503139Y623286000D01*
X-452475071Y623283236D01*
X-452475071Y623283236D01*
G37*
G36*
X-446025409Y623749415D02*
G01*
X-445991431Y623739107D01*
X-445960110Y623722366D01*
X-445932661Y623699839D01*
X-445910134Y623672390D01*
X-445893393Y623641069D01*
X-445883085Y623607091D01*
X-445879000Y623565610D01*
X-445879000Y622964390D01*
X-445883085Y622922909D01*
X-445893393Y622888931D01*
X-445910134Y622857610D01*
X-445932661Y622830161D01*
X-445960110Y622807634D01*
X-445991431Y622790893D01*
X-446025409Y622780585D01*
X-446066890Y622776500D01*
X-446743110Y622776500D01*
X-446784591Y622780585D01*
X-446818569Y622790893D01*
X-446849890Y622807634D01*
X-446877339Y622830161D01*
X-446899866Y622857610D01*
X-446916607Y622888931D01*
X-446926915Y622922909D01*
X-446931000Y622964390D01*
X-446931000Y623565610D01*
X-446926915Y623607091D01*
X-446916607Y623641069D01*
X-446899866Y623672390D01*
X-446877339Y623699839D01*
X-446849890Y623722366D01*
X-446818569Y623739107D01*
X-446784591Y623749415D01*
X-446743110Y623753500D01*
X-446066890Y623753500D01*
X-446025409Y623749415D01*
X-446025409Y623749415D01*
G37*
G36*
X-455550409Y623749415D02*
G01*
X-455516431Y623739107D01*
X-455485110Y623722366D01*
X-455457661Y623699839D01*
X-455435134Y623672390D01*
X-455418393Y623641069D01*
X-455408085Y623607091D01*
X-455404000Y623565610D01*
X-455404000Y622964390D01*
X-455408085Y622922909D01*
X-455418393Y622888931D01*
X-455435134Y622857610D01*
X-455457661Y622830161D01*
X-455485110Y622807634D01*
X-455516431Y622790893D01*
X-455550409Y622780585D01*
X-455591890Y622776500D01*
X-456268110Y622776500D01*
X-456309591Y622780585D01*
X-456343569Y622790893D01*
X-456374890Y622807634D01*
X-456402339Y622830161D01*
X-456424866Y622857610D01*
X-456441607Y622888931D01*
X-456451915Y622922909D01*
X-456456000Y622964390D01*
X-456456000Y623565610D01*
X-456451915Y623607091D01*
X-456441607Y623641069D01*
X-456424866Y623672390D01*
X-456402339Y623699839D01*
X-456374890Y623722366D01*
X-456343569Y623739107D01*
X-456309591Y623749415D01*
X-456268110Y623753500D01*
X-455591890Y623753500D01*
X-455550409Y623749415D01*
X-455550409Y623749415D01*
G37*
G36*
X-459624886Y625265824D02*
G01*
X-459530832Y625256561D01*
X-459329701Y625195549D01*
X-459243890Y625149682D01*
X-459144339Y625096471D01*
X-458981867Y624963133D01*
X-458848529Y624800661D01*
X-458795318Y624701110D01*
X-458749451Y624615299D01*
X-458688439Y624414168D01*
X-458667838Y624205000D01*
X-458688439Y623995832D01*
X-458749451Y623794701D01*
X-458788115Y623722366D01*
X-458848529Y623609339D01*
X-458981867Y623446867D01*
X-459144339Y623313529D01*
X-459220836Y623272641D01*
X-459329701Y623214451D01*
X-459530832Y623153439D01*
X-459619176Y623144738D01*
X-459687587Y623138000D01*
X-459792413Y623138000D01*
X-459860824Y623144738D01*
X-459949168Y623153439D01*
X-460150299Y623214451D01*
X-460259164Y623272641D01*
X-460335661Y623313529D01*
X-460498133Y623446867D01*
X-460631471Y623609339D01*
X-460691885Y623722366D01*
X-460730549Y623794701D01*
X-460791561Y623995832D01*
X-460812162Y624205000D01*
X-460791561Y624414168D01*
X-460730549Y624615299D01*
X-460684682Y624701110D01*
X-460631471Y624800661D01*
X-460498133Y624963133D01*
X-460335661Y625096471D01*
X-460236110Y625149682D01*
X-460150299Y625195549D01*
X-459949168Y625256561D01*
X-459855114Y625265824D01*
X-459792413Y625272000D01*
X-459687587Y625272000D01*
X-459624886Y625265824D01*
X-459624886Y625265824D01*
G37*
G36*
X-443114886Y625265824D02*
G01*
X-443020832Y625256561D01*
X-442819701Y625195549D01*
X-442733890Y625149682D01*
X-442634339Y625096471D01*
X-442471867Y624963133D01*
X-442338529Y624800661D01*
X-442285318Y624701110D01*
X-442239451Y624615299D01*
X-442178439Y624414168D01*
X-442157838Y624205000D01*
X-442178439Y623995832D01*
X-442239451Y623794701D01*
X-442278115Y623722366D01*
X-442338529Y623609339D01*
X-442471867Y623446867D01*
X-442634339Y623313529D01*
X-442710836Y623272641D01*
X-442819701Y623214451D01*
X-443020832Y623153439D01*
X-443109176Y623144738D01*
X-443177587Y623138000D01*
X-443282413Y623138000D01*
X-443350824Y623144738D01*
X-443439168Y623153439D01*
X-443640299Y623214451D01*
X-443749164Y623272641D01*
X-443825661Y623313529D01*
X-443988133Y623446867D01*
X-444121471Y623609339D01*
X-444181885Y623722366D01*
X-444220549Y623794701D01*
X-444281561Y623995832D01*
X-444302162Y624205000D01*
X-444281561Y624414168D01*
X-444220549Y624615299D01*
X-444174682Y624701110D01*
X-444121471Y624800661D01*
X-443988133Y624963133D01*
X-443825661Y625096471D01*
X-443726110Y625149682D01*
X-443640299Y625195549D01*
X-443439168Y625256561D01*
X-443345114Y625265824D01*
X-443282413Y625272000D01*
X-443177587Y625272000D01*
X-443114886Y625265824D01*
X-443114886Y625265824D01*
G37*
G36*
X-452475071Y624553236D02*
G01*
X-452453990Y624546840D01*
X-452434554Y624536452D01*
X-452417523Y624522476D01*
X-452403547Y624505445D01*
X-452393159Y624486009D01*
X-452386763Y624464928D01*
X-452383999Y624436860D01*
X-452383999Y623973140D01*
X-452386763Y623945072D01*
X-452393159Y623923991D01*
X-452403547Y623904555D01*
X-452417523Y623887524D01*
X-452434554Y623873548D01*
X-452453990Y623863160D01*
X-452475071Y623856764D01*
X-452503139Y623854000D01*
X-454316859Y623854000D01*
X-454344927Y623856764D01*
X-454366008Y623863160D01*
X-454385444Y623873548D01*
X-454402475Y623887524D01*
X-454416451Y623904555D01*
X-454426839Y623923991D01*
X-454433235Y623945072D01*
X-454435999Y623973140D01*
X-454435999Y624436860D01*
X-454433235Y624464928D01*
X-454426839Y624486009D01*
X-454416451Y624505445D01*
X-454402475Y624522476D01*
X-454385444Y624536452D01*
X-454366008Y624546840D01*
X-454344927Y624553236D01*
X-454316859Y624556000D01*
X-452503139Y624556000D01*
X-452475071Y624553236D01*
X-452475071Y624553236D01*
G37*
G36*
X-447525071Y624553236D02*
G01*
X-447503990Y624546840D01*
X-447484554Y624536452D01*
X-447467523Y624522476D01*
X-447453547Y624505445D01*
X-447443159Y624486009D01*
X-447436763Y624464928D01*
X-447433999Y624436860D01*
X-447433999Y623973140D01*
X-447436763Y623945072D01*
X-447443159Y623923991D01*
X-447453547Y623904555D01*
X-447467523Y623887524D01*
X-447484554Y623873548D01*
X-447503990Y623863160D01*
X-447525071Y623856764D01*
X-447553139Y623854000D01*
X-449366859Y623854000D01*
X-449394927Y623856764D01*
X-449416008Y623863160D01*
X-449435444Y623873548D01*
X-449452475Y623887524D01*
X-449466451Y623904555D01*
X-449476839Y623923991D01*
X-449483235Y623945072D01*
X-449485999Y623973140D01*
X-449485999Y624436860D01*
X-449483235Y624464928D01*
X-449476839Y624486009D01*
X-449466451Y624505445D01*
X-449452475Y624522476D01*
X-449435444Y624536452D01*
X-449416008Y624546840D01*
X-449394927Y624553236D01*
X-449366859Y624556000D01*
X-447553139Y624556000D01*
X-447525071Y624553236D01*
X-447525071Y624553236D01*
G37*
G36*
X-446025409Y625324415D02*
G01*
X-445991431Y625314107D01*
X-445960110Y625297366D01*
X-445932661Y625274839D01*
X-445910134Y625247390D01*
X-445893393Y625216069D01*
X-445883085Y625182091D01*
X-445879000Y625140610D01*
X-445879000Y624539390D01*
X-445883085Y624497909D01*
X-445893393Y624463931D01*
X-445910134Y624432610D01*
X-445932661Y624405161D01*
X-445960110Y624382634D01*
X-445991431Y624365893D01*
X-446025409Y624355585D01*
X-446066890Y624351500D01*
X-446743110Y624351500D01*
X-446784591Y624355585D01*
X-446818569Y624365893D01*
X-446849890Y624382634D01*
X-446877339Y624405161D01*
X-446899866Y624432610D01*
X-446916607Y624463931D01*
X-446926915Y624497909D01*
X-446931000Y624539390D01*
X-446931000Y625140610D01*
X-446926915Y625182091D01*
X-446916607Y625216069D01*
X-446899866Y625247390D01*
X-446877339Y625274839D01*
X-446849890Y625297366D01*
X-446818569Y625314107D01*
X-446784591Y625324415D01*
X-446743110Y625328500D01*
X-446066890Y625328500D01*
X-446025409Y625324415D01*
X-446025409Y625324415D01*
G37*
G36*
X-455550409Y625324415D02*
G01*
X-455516431Y625314107D01*
X-455485110Y625297366D01*
X-455457661Y625274839D01*
X-455435134Y625247390D01*
X-455418393Y625216069D01*
X-455408085Y625182091D01*
X-455404000Y625140610D01*
X-455404000Y624539390D01*
X-455408085Y624497909D01*
X-455418393Y624463931D01*
X-455435134Y624432610D01*
X-455457661Y624405161D01*
X-455485110Y624382634D01*
X-455516431Y624365893D01*
X-455550409Y624355585D01*
X-455591890Y624351500D01*
X-456268110Y624351500D01*
X-456309591Y624355585D01*
X-456343569Y624365893D01*
X-456374890Y624382634D01*
X-456402339Y624405161D01*
X-456424866Y624432610D01*
X-456441607Y624463931D01*
X-456451915Y624497909D01*
X-456456000Y624539390D01*
X-456456000Y625140610D01*
X-456451915Y625182091D01*
X-456441607Y625216069D01*
X-456424866Y625247390D01*
X-456402339Y625274839D01*
X-456374890Y625297366D01*
X-456343569Y625314107D01*
X-456309591Y625324415D01*
X-456268110Y625328500D01*
X-455591890Y625328500D01*
X-455550409Y625324415D01*
X-455550409Y625324415D01*
G37*
G36*
X-455550409Y627559415D02*
G01*
X-455516431Y627549107D01*
X-455485110Y627532366D01*
X-455457661Y627509839D01*
X-455435134Y627482390D01*
X-455418393Y627451069D01*
X-455408085Y627417091D01*
X-455404000Y627375610D01*
X-455404000Y626774390D01*
X-455408085Y626732909D01*
X-455418393Y626698931D01*
X-455435134Y626667610D01*
X-455457661Y626640161D01*
X-455485110Y626617634D01*
X-455516431Y626600893D01*
X-455550409Y626590585D01*
X-455591890Y626586500D01*
X-456268110Y626586500D01*
X-456309591Y626590585D01*
X-456343569Y626600893D01*
X-456374890Y626617634D01*
X-456402339Y626640161D01*
X-456424866Y626667610D01*
X-456441607Y626698931D01*
X-456451915Y626732909D01*
X-456456000Y626774390D01*
X-456456000Y627375610D01*
X-456451915Y627417091D01*
X-456441607Y627451069D01*
X-456424866Y627482390D01*
X-456402339Y627509839D01*
X-456374890Y627532366D01*
X-456343569Y627549107D01*
X-456309591Y627559415D01*
X-456268110Y627563500D01*
X-455591890Y627563500D01*
X-455550409Y627559415D01*
X-455550409Y627559415D01*
G37*
G36*
X-446460409Y627559415D02*
G01*
X-446426431Y627549107D01*
X-446395110Y627532366D01*
X-446367661Y627509839D01*
X-446345134Y627482390D01*
X-446328393Y627451069D01*
X-446318085Y627417091D01*
X-446314000Y627375610D01*
X-446314000Y626774390D01*
X-446318085Y626732909D01*
X-446328393Y626698931D01*
X-446345134Y626667610D01*
X-446367661Y626640161D01*
X-446395110Y626617634D01*
X-446426431Y626600893D01*
X-446460409Y626590585D01*
X-446501890Y626586500D01*
X-447178110Y626586500D01*
X-447219591Y626590585D01*
X-447253569Y626600893D01*
X-447284890Y626617634D01*
X-447312339Y626640161D01*
X-447334866Y626667610D01*
X-447351607Y626698931D01*
X-447361915Y626732909D01*
X-447366000Y626774390D01*
X-447366000Y627375610D01*
X-447361915Y627417091D01*
X-447351607Y627451069D01*
X-447334866Y627482390D01*
X-447312339Y627509839D01*
X-447284890Y627532366D01*
X-447253569Y627549107D01*
X-447219591Y627559415D01*
X-447178110Y627563500D01*
X-446501890Y627563500D01*
X-446460409Y627559415D01*
X-446460409Y627559415D01*
G37*
G36*
X-455550409Y629134415D02*
G01*
X-455516431Y629124107D01*
X-455485110Y629107366D01*
X-455457661Y629084839D01*
X-455435134Y629057390D01*
X-455418393Y629026069D01*
X-455408085Y628992091D01*
X-455404000Y628950610D01*
X-455404000Y628349390D01*
X-455408085Y628307909D01*
X-455418393Y628273931D01*
X-455435134Y628242610D01*
X-455457661Y628215161D01*
X-455485110Y628192634D01*
X-455516431Y628175893D01*
X-455550409Y628165585D01*
X-455591890Y628161500D01*
X-456268110Y628161500D01*
X-456309591Y628165585D01*
X-456343569Y628175893D01*
X-456374890Y628192634D01*
X-456402339Y628215161D01*
X-456424866Y628242610D01*
X-456441607Y628273931D01*
X-456451915Y628307909D01*
X-456456000Y628349390D01*
X-456456000Y628950610D01*
X-456451915Y628992091D01*
X-456441607Y629026069D01*
X-456424866Y629057390D01*
X-456402339Y629084839D01*
X-456374890Y629107366D01*
X-456343569Y629124107D01*
X-456309591Y629134415D01*
X-456268110Y629138500D01*
X-455591890Y629138500D01*
X-455550409Y629134415D01*
X-455550409Y629134415D01*
G37*
G36*
X-446460409Y629134415D02*
G01*
X-446426431Y629124107D01*
X-446395110Y629107366D01*
X-446367661Y629084839D01*
X-446345134Y629057390D01*
X-446328393Y629026069D01*
X-446318085Y628992091D01*
X-446314000Y628950610D01*
X-446314000Y628349390D01*
X-446318085Y628307909D01*
X-446328393Y628273931D01*
X-446345134Y628242610D01*
X-446367661Y628215161D01*
X-446395110Y628192634D01*
X-446426431Y628175893D01*
X-446460409Y628165585D01*
X-446501890Y628161500D01*
X-447178110Y628161500D01*
X-447219591Y628165585D01*
X-447253569Y628175893D01*
X-447284890Y628192634D01*
X-447312339Y628215161D01*
X-447334866Y628242610D01*
X-447351607Y628273931D01*
X-447361915Y628307909D01*
X-447366000Y628349390D01*
X-447366000Y628950610D01*
X-447361915Y628992091D01*
X-447351607Y629026069D01*
X-447334866Y629057390D01*
X-447312339Y629084839D01*
X-447284890Y629107366D01*
X-447253569Y629124107D01*
X-447219591Y629134415D01*
X-447178110Y629138500D01*
X-446501890Y629138500D01*
X-446460409Y629134415D01*
X-446460409Y629134415D01*
G37*
G36*
X-456454558Y632084482D02*
G01*
X-456388373Y632077963D01*
X-456218534Y632026443D01*
X-456062009Y631942778D01*
X-456026271Y631913448D01*
X-455924814Y631830186D01*
X-455841552Y631728729D01*
X-455812222Y631692991D01*
X-455728557Y631536466D01*
X-455677037Y631366627D01*
X-455659641Y631190000D01*
X-455677037Y631013373D01*
X-455728557Y630843534D01*
X-455812222Y630687009D01*
X-455841552Y630651271D01*
X-455924814Y630549814D01*
X-456026271Y630466552D01*
X-456062009Y630437222D01*
X-456218534Y630353557D01*
X-456388373Y630302037D01*
X-456454558Y630295518D01*
X-456520740Y630289000D01*
X-456609260Y630289000D01*
X-456675442Y630295518D01*
X-456741627Y630302037D01*
X-456911466Y630353557D01*
X-457067991Y630437222D01*
X-457103729Y630466552D01*
X-457205186Y630549814D01*
X-457288448Y630651271D01*
X-457317778Y630687009D01*
X-457401443Y630843534D01*
X-457452963Y631013373D01*
X-457470359Y631190000D01*
X-457452963Y631366627D01*
X-457401443Y631536466D01*
X-457317778Y631692991D01*
X-457288448Y631728729D01*
X-457205186Y631830186D01*
X-457103729Y631913448D01*
X-457067991Y631942778D01*
X-456911466Y632026443D01*
X-456741627Y632077963D01*
X-456675442Y632084482D01*
X-456609260Y632091000D01*
X-456520740Y632091000D01*
X-456454558Y632084482D01*
X-456454558Y632084482D01*
G37*
G36*
X-443754558Y632084482D02*
G01*
X-443688373Y632077963D01*
X-443518534Y632026443D01*
X-443362009Y631942778D01*
X-443326271Y631913448D01*
X-443224814Y631830186D01*
X-443141552Y631728729D01*
X-443112222Y631692991D01*
X-443028557Y631536466D01*
X-442977037Y631366627D01*
X-442959641Y631190000D01*
X-442977037Y631013373D01*
X-443028557Y630843534D01*
X-443112222Y630687009D01*
X-443141552Y630651271D01*
X-443224814Y630549814D01*
X-443326271Y630466552D01*
X-443362009Y630437222D01*
X-443518534Y630353557D01*
X-443688373Y630302037D01*
X-443754558Y630295518D01*
X-443820740Y630289000D01*
X-443909260Y630289000D01*
X-443975442Y630295518D01*
X-444041627Y630302037D01*
X-444211466Y630353557D01*
X-444367991Y630437222D01*
X-444403729Y630466552D01*
X-444505186Y630549814D01*
X-444588448Y630651271D01*
X-444617778Y630687009D01*
X-444701443Y630843534D01*
X-444752963Y631013373D01*
X-444770359Y631190000D01*
X-444752963Y631366627D01*
X-444701443Y631536466D01*
X-444617778Y631692991D01*
X-444588448Y631728729D01*
X-444505186Y631830186D01*
X-444403729Y631913448D01*
X-444367991Y631942778D01*
X-444211466Y632026443D01*
X-444041627Y632077963D01*
X-443975442Y632084482D01*
X-443909260Y632091000D01*
X-443820740Y632091000D01*
X-443754558Y632084482D01*
X-443754558Y632084482D01*
G37*
G36*
X-446294558Y632084482D02*
G01*
X-446228373Y632077963D01*
X-446058534Y632026443D01*
X-445902009Y631942778D01*
X-445866271Y631913448D01*
X-445764814Y631830186D01*
X-445681552Y631728729D01*
X-445652222Y631692991D01*
X-445568557Y631536466D01*
X-445517037Y631366627D01*
X-445499641Y631190000D01*
X-445517037Y631013373D01*
X-445568557Y630843534D01*
X-445652222Y630687009D01*
X-445681552Y630651271D01*
X-445764814Y630549814D01*
X-445866271Y630466552D01*
X-445902009Y630437222D01*
X-446058534Y630353557D01*
X-446228373Y630302037D01*
X-446294558Y630295518D01*
X-446360740Y630289000D01*
X-446449260Y630289000D01*
X-446515442Y630295518D01*
X-446581627Y630302037D01*
X-446751466Y630353557D01*
X-446907991Y630437222D01*
X-446943729Y630466552D01*
X-447045186Y630549814D01*
X-447128448Y630651271D01*
X-447157778Y630687009D01*
X-447241443Y630843534D01*
X-447292963Y631013373D01*
X-447310359Y631190000D01*
X-447292963Y631366627D01*
X-447241443Y631536466D01*
X-447157778Y631692991D01*
X-447128448Y631728729D01*
X-447045186Y631830186D01*
X-446943729Y631913448D01*
X-446907991Y631942778D01*
X-446751466Y632026443D01*
X-446581627Y632077963D01*
X-446515442Y632084482D01*
X-446449260Y632091000D01*
X-446360740Y632091000D01*
X-446294558Y632084482D01*
X-446294558Y632084482D01*
G37*
G36*
X-448044000Y630289000D02*
G01*
X-449846000Y630289000D01*
X-449846000Y632091000D01*
X-448044000Y632091000D01*
X-448044000Y630289000D01*
X-448044000Y630289000D01*
G37*
G36*
X-458204000Y630289000D02*
G01*
X-460006000Y630289000D01*
X-460006000Y632091000D01*
X-458204000Y632091000D01*
X-458204000Y630289000D01*
X-458204000Y630289000D01*
G37*
G36*
X-453914558Y632084482D02*
G01*
X-453848373Y632077963D01*
X-453678534Y632026443D01*
X-453522009Y631942778D01*
X-453486271Y631913448D01*
X-453384814Y631830186D01*
X-453301552Y631728729D01*
X-453272222Y631692991D01*
X-453188557Y631536466D01*
X-453137037Y631366627D01*
X-453119641Y631190000D01*
X-453137037Y631013373D01*
X-453188557Y630843534D01*
X-453272222Y630687009D01*
X-453301552Y630651271D01*
X-453384814Y630549814D01*
X-453486271Y630466552D01*
X-453522009Y630437222D01*
X-453678534Y630353557D01*
X-453848373Y630302037D01*
X-453914558Y630295518D01*
X-453980740Y630289000D01*
X-454069260Y630289000D01*
X-454135442Y630295518D01*
X-454201627Y630302037D01*
X-454371466Y630353557D01*
X-454527991Y630437222D01*
X-454563729Y630466552D01*
X-454665186Y630549814D01*
X-454748448Y630651271D01*
X-454777778Y630687009D01*
X-454861443Y630843534D01*
X-454912963Y631013373D01*
X-454930359Y631190000D01*
X-454912963Y631366627D01*
X-454861443Y631536466D01*
X-454777778Y631692991D01*
X-454748448Y631728729D01*
X-454665186Y631830186D01*
X-454563729Y631913448D01*
X-454527991Y631942778D01*
X-454371466Y632026443D01*
X-454201627Y632077963D01*
X-454135442Y632084482D01*
X-454069260Y632091000D01*
X-453980740Y632091000D01*
X-453914558Y632084482D01*
X-453914558Y632084482D01*
G37*
M02*
