%FSLAX45Y45*%
G04 Gerber Fmt 4.5, Leading zero omitted, Abs format (unit mm)*
G04 Created by KiCad (PCBNEW 5.1.4) date 2019-08-27 15:34:20*
%MOMM*%
%LPD*%
G04 APERTURE LIST*
%ADD10C,0.050000*%
%ADD11C,0.200000*%
%ADD12C,0.300000*%
G04 APERTURE END LIST*
D10*
X9317000Y-5152000D02*
X9317000Y-7311000D01*
X11476000Y-5152000D02*
X9317000Y-5152000D01*
X11476000Y-7311000D02*
X11476000Y-5152000D01*
X9317000Y-7311000D02*
X11476000Y-7311000D01*
D11*
D12*
X9600928Y-7779214D02*
X9600928Y-7479214D01*
X9672357Y-7479214D01*
X9715214Y-7493500D01*
X9743786Y-7522071D01*
X9758071Y-7550643D01*
X9772357Y-7607786D01*
X9772357Y-7650643D01*
X9758071Y-7707786D01*
X9743786Y-7736357D01*
X9715214Y-7764929D01*
X9672357Y-7779214D01*
X9600928Y-7779214D01*
X9900928Y-7779214D02*
X9900928Y-7579214D01*
X9900928Y-7636357D02*
X9915214Y-7607786D01*
X9929500Y-7593500D01*
X9958071Y-7579214D01*
X9986643Y-7579214D01*
X10086643Y-7779214D02*
X10086643Y-7579214D01*
X10086643Y-7479214D02*
X10072357Y-7493500D01*
X10086643Y-7507786D01*
X10100928Y-7493500D01*
X10086643Y-7479214D01*
X10086643Y-7507786D01*
X10272357Y-7779214D02*
X10243786Y-7764929D01*
X10229500Y-7736357D01*
X10229500Y-7479214D01*
X10429500Y-7779214D02*
X10400928Y-7764929D01*
X10386643Y-7736357D01*
X10386643Y-7479214D01*
X10772357Y-7779214D02*
X10772357Y-7479214D01*
X10872357Y-7693500D01*
X10972357Y-7479214D01*
X10972357Y-7779214D01*
X11243786Y-7779214D02*
X11243786Y-7622071D01*
X11229500Y-7593500D01*
X11200928Y-7579214D01*
X11143786Y-7579214D01*
X11115214Y-7593500D01*
X11243786Y-7764929D02*
X11215214Y-7779214D01*
X11143786Y-7779214D01*
X11115214Y-7764929D01*
X11100928Y-7736357D01*
X11100928Y-7707786D01*
X11115214Y-7679214D01*
X11143786Y-7664929D01*
X11215214Y-7664929D01*
X11243786Y-7650643D01*
X11386643Y-7579214D02*
X11386643Y-7879214D01*
X11386643Y-7593500D02*
X11415214Y-7579214D01*
X11472357Y-7579214D01*
X11500928Y-7593500D01*
X11515214Y-7607786D01*
X11529500Y-7636357D01*
X11529500Y-7722071D01*
X11515214Y-7750643D01*
X11500928Y-7764929D01*
X11472357Y-7779214D01*
X11415214Y-7779214D01*
X11386643Y-7764929D01*
X11658071Y-7750643D02*
X11672357Y-7764929D01*
X11658071Y-7779214D01*
X11643786Y-7764929D01*
X11658071Y-7750643D01*
X11658071Y-7779214D01*
X11658071Y-7593500D02*
X11672357Y-7607786D01*
X11658071Y-7622071D01*
X11643786Y-7607786D01*
X11658071Y-7593500D01*
X11658071Y-7622071D01*
M02*
