G04 #@! TF.GenerationSoftware,KiCad,Pcbnew,5.1.4*
G04 #@! TF.CreationDate,2019-08-27T15:34:22-04:00*
G04 #@! TF.ProjectId,siot-node-temp,73696f74-2d6e-46f6-9465-2d74656d702e,rev?*
G04 #@! TF.SameCoordinates,Original*
G04 #@! TF.FileFunction,Legend,Top*
G04 #@! TF.FilePolarity,Positive*
%FSLAX46Y46*%
G04 Gerber Fmt 4.6, Leading zero omitted, Abs format (unit mm)*
G04 Created by KiCad (PCBNEW 5.1.4) date 2019-08-27 15:34:22*
%MOMM*%
%LPD*%
G04 APERTURE LIST*
%ADD10C,0.120000*%
%ADD11C,0.150000*%
G04 APERTURE END LIST*
D10*
X104100000Y-58400000D02*
X104100000Y-57070000D01*
X105430000Y-58400000D02*
X104100000Y-58400000D01*
X93200000Y-58400000D02*
X93200000Y-57070000D01*
X94530000Y-58400000D02*
X93200000Y-58400000D01*
X93390000Y-65720000D02*
X93390000Y-68150000D01*
X96460000Y-67480000D02*
X96460000Y-65720000D01*
X104450000Y-58700000D02*
X105780000Y-58700000D01*
X104450000Y-60030000D02*
X104450000Y-58700000D01*
X99500000Y-58700000D02*
X100830000Y-58700000D01*
X99500000Y-60030000D02*
X99500000Y-58700000D01*
X113290000Y-60237221D02*
X113290000Y-60562779D01*
X114310000Y-60237221D02*
X114310000Y-60562779D01*
X94090000Y-60537221D02*
X94090000Y-60862779D01*
X95110000Y-60537221D02*
X95110000Y-60862779D01*
X94637221Y-63910000D02*
X94962779Y-63910000D01*
X94637221Y-62890000D02*
X94962779Y-62890000D01*
X94637221Y-70310000D02*
X94962779Y-70310000D01*
X94637221Y-69290000D02*
X94962779Y-69290000D01*
D11*
X108866666Y-53752380D02*
X108866666Y-54466666D01*
X108819047Y-54609523D01*
X108723809Y-54704761D01*
X108580952Y-54752380D01*
X108485714Y-54752380D01*
X109247619Y-53752380D02*
X109866666Y-53752380D01*
X109533333Y-54133333D01*
X109676190Y-54133333D01*
X109771428Y-54180952D01*
X109819047Y-54228571D01*
X109866666Y-54323809D01*
X109866666Y-54561904D01*
X109819047Y-54657142D01*
X109771428Y-54704761D01*
X109676190Y-54752380D01*
X109390476Y-54752380D01*
X109295238Y-54704761D01*
X109247619Y-54657142D01*
X98166666Y-53752380D02*
X98166666Y-54466666D01*
X98119047Y-54609523D01*
X98023809Y-54704761D01*
X97880952Y-54752380D01*
X97785714Y-54752380D01*
X98595238Y-53847619D02*
X98642857Y-53800000D01*
X98738095Y-53752380D01*
X98976190Y-53752380D01*
X99071428Y-53800000D01*
X99119047Y-53847619D01*
X99166666Y-53942857D01*
X99166666Y-54038095D01*
X99119047Y-54180952D01*
X98547619Y-54752380D01*
X99166666Y-54752380D01*
X96738095Y-65852380D02*
X96738095Y-66661904D01*
X96785714Y-66757142D01*
X96833333Y-66804761D01*
X96928571Y-66852380D01*
X97119047Y-66852380D01*
X97214285Y-66804761D01*
X97261904Y-66757142D01*
X97309523Y-66661904D01*
X97309523Y-65852380D01*
X98309523Y-66852380D02*
X97738095Y-66852380D01*
X98023809Y-66852380D02*
X98023809Y-65852380D01*
X97928571Y-65995238D01*
X97833333Y-66090476D01*
X97738095Y-66138095D01*
X108866666Y-62752380D02*
X108866666Y-63466666D01*
X108819047Y-63609523D01*
X108723809Y-63704761D01*
X108580952Y-63752380D01*
X108485714Y-63752380D01*
X109771428Y-63085714D02*
X109771428Y-63752380D01*
X109533333Y-62704761D02*
X109295238Y-63419047D01*
X109914285Y-63419047D01*
X109721428Y-70828571D02*
X109864285Y-70876190D01*
X109911904Y-70923809D01*
X109959523Y-71019047D01*
X109959523Y-71161904D01*
X109911904Y-71257142D01*
X109864285Y-71304761D01*
X109769047Y-71352380D01*
X109388095Y-71352380D01*
X109388095Y-70352380D01*
X109721428Y-70352380D01*
X109816666Y-70400000D01*
X109864285Y-70447619D01*
X109911904Y-70542857D01*
X109911904Y-70638095D01*
X109864285Y-70733333D01*
X109816666Y-70780952D01*
X109721428Y-70828571D01*
X109388095Y-70828571D01*
X109850000Y-65776190D02*
X109850000Y-66252380D01*
X109516666Y-65252380D02*
X109850000Y-65776190D01*
X110183333Y-65252380D01*
X110059523Y-61352380D02*
X109726190Y-60876190D01*
X109488095Y-61352380D02*
X109488095Y-60352380D01*
X109869047Y-60352380D01*
X109964285Y-60400000D01*
X110011904Y-60447619D01*
X110059523Y-60542857D01*
X110059523Y-60685714D01*
X110011904Y-60780952D01*
X109964285Y-60828571D01*
X109869047Y-60876190D01*
X109488095Y-60876190D01*
X98766666Y-67852380D02*
X98766666Y-68566666D01*
X98719047Y-68709523D01*
X98623809Y-68804761D01*
X98480952Y-68852380D01*
X98385714Y-68852380D01*
X99766666Y-68852380D02*
X99195238Y-68852380D01*
X99480952Y-68852380D02*
X99480952Y-67852380D01*
X99385714Y-67995238D01*
X99290476Y-68090476D01*
X99195238Y-68138095D01*
X99271428Y-70828571D02*
X99414285Y-70876190D01*
X99461904Y-70923809D01*
X99509523Y-71019047D01*
X99509523Y-71161904D01*
X99461904Y-71257142D01*
X99414285Y-71304761D01*
X99319047Y-71352380D01*
X98938095Y-71352380D01*
X98938095Y-70352380D01*
X99271428Y-70352380D01*
X99366666Y-70400000D01*
X99414285Y-70447619D01*
X99461904Y-70542857D01*
X99461904Y-70638095D01*
X99414285Y-70733333D01*
X99366666Y-70780952D01*
X99271428Y-70828571D01*
X98938095Y-70828571D01*
X99100000Y-65876190D02*
X99100000Y-66352380D01*
X98766666Y-65352380D02*
X99100000Y-65876190D01*
X99433333Y-65352380D01*
X99209523Y-61352380D02*
X98876190Y-60876190D01*
X98638095Y-61352380D02*
X98638095Y-60352380D01*
X99019047Y-60352380D01*
X99114285Y-60400000D01*
X99161904Y-60447619D01*
X99209523Y-60542857D01*
X99209523Y-60685714D01*
X99161904Y-60780952D01*
X99114285Y-60828571D01*
X99019047Y-60876190D01*
X98638095Y-60876190D01*
X111933333Y-60052380D02*
X111600000Y-59576190D01*
X111361904Y-60052380D02*
X111361904Y-59052380D01*
X111742857Y-59052380D01*
X111838095Y-59100000D01*
X111885714Y-59147619D01*
X111933333Y-59242857D01*
X111933333Y-59385714D01*
X111885714Y-59480952D01*
X111838095Y-59528571D01*
X111742857Y-59576190D01*
X111361904Y-59576190D01*
X112314285Y-59147619D02*
X112361904Y-59100000D01*
X112457142Y-59052380D01*
X112695238Y-59052380D01*
X112790476Y-59100000D01*
X112838095Y-59147619D01*
X112885714Y-59242857D01*
X112885714Y-59338095D01*
X112838095Y-59480952D01*
X112266666Y-60052380D01*
X112885714Y-60052380D01*
X96211333Y-61126880D02*
X95878000Y-60650690D01*
X95639904Y-61126880D02*
X95639904Y-60126880D01*
X96020857Y-60126880D01*
X96116095Y-60174500D01*
X96163714Y-60222119D01*
X96211333Y-60317357D01*
X96211333Y-60460214D01*
X96163714Y-60555452D01*
X96116095Y-60603071D01*
X96020857Y-60650690D01*
X95639904Y-60650690D01*
X97163714Y-61126880D02*
X96592285Y-61126880D01*
X96878000Y-61126880D02*
X96878000Y-60126880D01*
X96782761Y-60269738D01*
X96687523Y-60364976D01*
X96592285Y-60412595D01*
X97133333Y-62757142D02*
X97085714Y-62804761D01*
X96942857Y-62852380D01*
X96847619Y-62852380D01*
X96704761Y-62804761D01*
X96609523Y-62709523D01*
X96561904Y-62614285D01*
X96514285Y-62423809D01*
X96514285Y-62280952D01*
X96561904Y-62090476D01*
X96609523Y-61995238D01*
X96704761Y-61900000D01*
X96847619Y-61852380D01*
X96942857Y-61852380D01*
X97085714Y-61900000D01*
X97133333Y-61947619D01*
X97514285Y-61947619D02*
X97561904Y-61900000D01*
X97657142Y-61852380D01*
X97895238Y-61852380D01*
X97990476Y-61900000D01*
X98038095Y-61947619D01*
X98085714Y-62042857D01*
X98085714Y-62138095D01*
X98038095Y-62280952D01*
X97466666Y-62852380D01*
X98085714Y-62852380D01*
X94633333Y-71757142D02*
X94585714Y-71804761D01*
X94442857Y-71852380D01*
X94347619Y-71852380D01*
X94204761Y-71804761D01*
X94109523Y-71709523D01*
X94061904Y-71614285D01*
X94014285Y-71423809D01*
X94014285Y-71280952D01*
X94061904Y-71090476D01*
X94109523Y-70995238D01*
X94204761Y-70900000D01*
X94347619Y-70852380D01*
X94442857Y-70852380D01*
X94585714Y-70900000D01*
X94633333Y-70947619D01*
X95585714Y-71852380D02*
X95014285Y-71852380D01*
X95300000Y-71852380D02*
X95300000Y-70852380D01*
X95204761Y-70995238D01*
X95109523Y-71090476D01*
X95014285Y-71138095D01*
M02*
