M48
; DRILL file {KiCad 5.1.4} date Wed 30 Oct 2019 11:02:13 AM EDT
; FORMAT={-:-/ absolute / inch / decimal}
; #@! TF.CreationDate,2019-10-30T11:02:13-04:00
; #@! TF.GenerationSoftware,Kicad,Pcbnew,5.1.4
; #@! TF.FileFunction,Plated,1,2,PTH
FMAT,2
INCH
T1C0.0157
T2C0.0433
T3C0.0512
%
G90
G05
T1
X6.4272Y-3.7106
X6.4272Y-3.8091
X6.4764Y-3.7598
X6.5157Y-3.7106
X6.5256Y-3.8091
X6.5354Y-3.9567
X6.8701Y-4.3799
X7.185Y-4.3504
X7.3681Y-4.0709
X7.372Y-4.1732
X7.4372Y-4.4451
X7.5197Y-4.1634
X7.624Y-3.6811
X7.6378Y-3.4449
X7.6398Y-3.5354
X7.6831Y-3.4843
X7.7264Y-3.4449
X7.7264Y-3.5315
X7.4469Y-4.3346
X7.4469Y-4.3701
X7.4469Y-4.4055
X7.4902Y-4.3346
X7.4902Y-4.3701
X7.4902Y-4.4055
T2
X6.8248Y-3.3827
X6.8248Y-3.6827
X6.8248Y-3.9827
X6.8248Y-4.0827
T3
X7.6673Y-3.0748
X7.6673Y-3.2717
X7.0138Y-3.7323
X7.2106Y-3.7323
T0
M30
