G04 #@! TF.GenerationSoftware,KiCad,Pcbnew,5.1.4*
G04 #@! TF.CreationDate,2019-10-30T11:02:10-04:00*
G04 #@! TF.ProjectId,siot-node-relay,73696f74-2d6e-46f6-9465-2d72656c6179,rev?*
G04 #@! TF.SameCoordinates,Original*
G04 #@! TF.FileFunction,Soldermask,Top*
G04 #@! TF.FilePolarity,Negative*
%FSLAX46Y46*%
G04 Gerber Fmt 4.6, Leading zero omitted, Abs format (unit mm)*
G04 Created by KiCad (PCBNEW 5.1.4) date 2019-10-30 11:02:10*
%MOMM*%
%LPD*%
G04 APERTURE LIST*
%ADD10C,0.100000*%
G04 APERTURE END LIST*
D10*
G36*
X182879591Y-113053085D02*
G01*
X182913569Y-113063393D01*
X182944890Y-113080134D01*
X182972339Y-113102661D01*
X182994866Y-113130110D01*
X183011607Y-113161431D01*
X183021915Y-113195409D01*
X183026000Y-113236890D01*
X183026000Y-113838110D01*
X183021915Y-113879591D01*
X183011607Y-113913569D01*
X182994866Y-113944890D01*
X182972339Y-113972339D01*
X182944890Y-113994866D01*
X182913569Y-114011607D01*
X182879591Y-114021915D01*
X182838110Y-114026000D01*
X182161890Y-114026000D01*
X182120409Y-114021915D01*
X182086431Y-114011607D01*
X182055110Y-113994866D01*
X182027661Y-113972339D01*
X182005134Y-113944890D01*
X181988393Y-113913569D01*
X181978085Y-113879591D01*
X181974000Y-113838110D01*
X181974000Y-113236890D01*
X181978085Y-113195409D01*
X181988393Y-113161431D01*
X182005134Y-113130110D01*
X182027661Y-113102661D01*
X182055110Y-113080134D01*
X182086431Y-113063393D01*
X182120409Y-113053085D01*
X182161890Y-113049000D01*
X182838110Y-113049000D01*
X182879591Y-113053085D01*
X182879591Y-113053085D01*
G37*
G36*
X181129591Y-113053085D02*
G01*
X181163569Y-113063393D01*
X181194890Y-113080134D01*
X181222339Y-113102661D01*
X181244866Y-113130110D01*
X181261607Y-113161431D01*
X181271915Y-113195409D01*
X181276000Y-113236890D01*
X181276000Y-113838110D01*
X181271915Y-113879591D01*
X181261607Y-113913569D01*
X181244866Y-113944890D01*
X181222339Y-113972339D01*
X181194890Y-113994866D01*
X181163569Y-114011607D01*
X181129591Y-114021915D01*
X181088110Y-114026000D01*
X180411890Y-114026000D01*
X180370409Y-114021915D01*
X180336431Y-114011607D01*
X180305110Y-113994866D01*
X180277661Y-113972339D01*
X180255134Y-113944890D01*
X180238393Y-113913569D01*
X180228085Y-113879591D01*
X180224000Y-113838110D01*
X180224000Y-113236890D01*
X180228085Y-113195409D01*
X180238393Y-113161431D01*
X180255134Y-113130110D01*
X180277661Y-113102661D01*
X180305110Y-113080134D01*
X180336431Y-113063393D01*
X180370409Y-113053085D01*
X180411890Y-113049000D01*
X181088110Y-113049000D01*
X181129591Y-113053085D01*
X181129591Y-113053085D01*
G37*
G36*
X188209928Y-112556764D02*
G01*
X188231009Y-112563160D01*
X188250445Y-112573548D01*
X188267476Y-112587524D01*
X188281452Y-112604555D01*
X188291840Y-112623991D01*
X188298236Y-112645072D01*
X188301000Y-112673140D01*
X188301000Y-113136860D01*
X188298236Y-113164928D01*
X188291840Y-113186009D01*
X188281452Y-113205445D01*
X188267476Y-113222476D01*
X188250445Y-113236452D01*
X188231009Y-113246840D01*
X188209928Y-113253236D01*
X188181860Y-113256000D01*
X186368140Y-113256000D01*
X186340072Y-113253236D01*
X186318991Y-113246840D01*
X186299555Y-113236452D01*
X186282524Y-113222476D01*
X186268548Y-113205445D01*
X186258160Y-113186009D01*
X186251764Y-113164928D01*
X186249000Y-113136860D01*
X186249000Y-112673140D01*
X186251764Y-112645072D01*
X186258160Y-112623991D01*
X186268548Y-112604555D01*
X186282524Y-112587524D01*
X186299555Y-112573548D01*
X186318991Y-112563160D01*
X186340072Y-112556764D01*
X186368140Y-112554000D01*
X188181860Y-112554000D01*
X188209928Y-112556764D01*
X188209928Y-112556764D01*
G37*
G36*
X193159928Y-112556764D02*
G01*
X193181009Y-112563160D01*
X193200445Y-112573548D01*
X193217476Y-112587524D01*
X193231452Y-112604555D01*
X193241840Y-112623991D01*
X193248236Y-112645072D01*
X193251000Y-112673140D01*
X193251000Y-113136860D01*
X193248236Y-113164928D01*
X193241840Y-113186009D01*
X193231452Y-113205445D01*
X193217476Y-113222476D01*
X193200445Y-113236452D01*
X193181009Y-113246840D01*
X193159928Y-113253236D01*
X193131860Y-113256000D01*
X191318140Y-113256000D01*
X191290072Y-113253236D01*
X191268991Y-113246840D01*
X191249555Y-113236452D01*
X191232524Y-113222476D01*
X191218548Y-113205445D01*
X191208160Y-113186009D01*
X191201764Y-113164928D01*
X191199000Y-113136860D01*
X191199000Y-112673140D01*
X191201764Y-112645072D01*
X191208160Y-112623991D01*
X191218548Y-112604555D01*
X191232524Y-112587524D01*
X191249555Y-112573548D01*
X191268991Y-112563160D01*
X191290072Y-112556764D01*
X191318140Y-112554000D01*
X193131860Y-112554000D01*
X193159928Y-112556764D01*
X193159928Y-112556764D01*
G37*
G36*
X173370000Y-112770000D02*
G01*
X172630000Y-112770000D01*
X172630000Y-111330000D01*
X173370000Y-111330000D01*
X173370000Y-112770000D01*
X173370000Y-112770000D01*
G37*
G36*
X190814336Y-109452733D02*
G01*
X190844883Y-109461999D01*
X190873033Y-109477046D01*
X190897706Y-109497294D01*
X190917954Y-109521967D01*
X190933001Y-109550117D01*
X190942267Y-109580664D01*
X190946000Y-109618567D01*
X190946000Y-112381433D01*
X190942267Y-112419336D01*
X190933001Y-112449883D01*
X190917954Y-112478033D01*
X190897706Y-112502706D01*
X190873033Y-112522954D01*
X190844883Y-112538001D01*
X190814336Y-112547267D01*
X190776433Y-112551000D01*
X188723567Y-112551000D01*
X188685664Y-112547267D01*
X188655117Y-112538001D01*
X188626967Y-112522954D01*
X188602294Y-112502706D01*
X188582046Y-112478033D01*
X188566999Y-112449883D01*
X188557733Y-112419336D01*
X188554000Y-112381433D01*
X188554000Y-109618567D01*
X188557733Y-109580664D01*
X188566999Y-109550117D01*
X188582046Y-109521967D01*
X188602294Y-109497294D01*
X188626967Y-109477046D01*
X188655117Y-109461999D01*
X188685664Y-109452733D01*
X188723567Y-109449000D01*
X190776433Y-109449000D01*
X190814336Y-109452733D01*
X190814336Y-109452733D01*
G37*
G36*
X182879591Y-111478085D02*
G01*
X182913569Y-111488393D01*
X182944890Y-111505134D01*
X182972339Y-111527661D01*
X182994866Y-111555110D01*
X183011607Y-111586431D01*
X183021915Y-111620409D01*
X183026000Y-111661890D01*
X183026000Y-112263110D01*
X183021915Y-112304591D01*
X183011607Y-112338569D01*
X182994866Y-112369890D01*
X182972339Y-112397339D01*
X182944890Y-112419866D01*
X182913569Y-112436607D01*
X182879591Y-112446915D01*
X182838110Y-112451000D01*
X182161890Y-112451000D01*
X182120409Y-112446915D01*
X182086431Y-112436607D01*
X182055110Y-112419866D01*
X182027661Y-112397339D01*
X182005134Y-112369890D01*
X181988393Y-112338569D01*
X181978085Y-112304591D01*
X181974000Y-112263110D01*
X181974000Y-111661890D01*
X181978085Y-111620409D01*
X181988393Y-111586431D01*
X182005134Y-111555110D01*
X182027661Y-111527661D01*
X182055110Y-111505134D01*
X182086431Y-111488393D01*
X182120409Y-111478085D01*
X182161890Y-111474000D01*
X182838110Y-111474000D01*
X182879591Y-111478085D01*
X182879591Y-111478085D01*
G37*
G36*
X181129591Y-111478085D02*
G01*
X181163569Y-111488393D01*
X181194890Y-111505134D01*
X181222339Y-111527661D01*
X181244866Y-111555110D01*
X181261607Y-111586431D01*
X181271915Y-111620409D01*
X181276000Y-111661890D01*
X181276000Y-112263110D01*
X181271915Y-112304591D01*
X181261607Y-112338569D01*
X181244866Y-112369890D01*
X181222339Y-112397339D01*
X181194890Y-112419866D01*
X181163569Y-112436607D01*
X181129591Y-112446915D01*
X181088110Y-112451000D01*
X180411890Y-112451000D01*
X180370409Y-112446915D01*
X180336431Y-112436607D01*
X180305110Y-112419866D01*
X180277661Y-112397339D01*
X180255134Y-112369890D01*
X180238393Y-112338569D01*
X180228085Y-112304591D01*
X180224000Y-112263110D01*
X180224000Y-111661890D01*
X180228085Y-111620409D01*
X180238393Y-111586431D01*
X180255134Y-111555110D01*
X180277661Y-111527661D01*
X180305110Y-111505134D01*
X180336431Y-111488393D01*
X180370409Y-111478085D01*
X180411890Y-111474000D01*
X181088110Y-111474000D01*
X181129591Y-111478085D01*
X181129591Y-111478085D01*
G37*
G36*
X179445000Y-112320000D02*
G01*
X178255000Y-112320000D01*
X178255000Y-111580000D01*
X179445000Y-111580000D01*
X179445000Y-112320000D01*
X179445000Y-112320000D01*
G37*
G36*
X176745000Y-112320000D02*
G01*
X175555000Y-112320000D01*
X175555000Y-109680000D01*
X176745000Y-109680000D01*
X176745000Y-112320000D01*
X176745000Y-112320000D01*
G37*
G36*
X193159928Y-111286764D02*
G01*
X193181009Y-111293160D01*
X193200445Y-111303548D01*
X193217476Y-111317524D01*
X193231452Y-111334555D01*
X193241840Y-111353991D01*
X193248236Y-111375072D01*
X193251000Y-111403140D01*
X193251000Y-111866860D01*
X193248236Y-111894928D01*
X193241840Y-111916009D01*
X193231452Y-111935445D01*
X193217476Y-111952476D01*
X193200445Y-111966452D01*
X193181009Y-111976840D01*
X193159928Y-111983236D01*
X193131860Y-111986000D01*
X191318140Y-111986000D01*
X191290072Y-111983236D01*
X191268991Y-111976840D01*
X191249555Y-111966452D01*
X191232524Y-111952476D01*
X191218548Y-111935445D01*
X191208160Y-111916009D01*
X191201764Y-111894928D01*
X191199000Y-111866860D01*
X191199000Y-111403140D01*
X191201764Y-111375072D01*
X191208160Y-111353991D01*
X191218548Y-111334555D01*
X191232524Y-111317524D01*
X191249555Y-111303548D01*
X191268991Y-111293160D01*
X191290072Y-111286764D01*
X191318140Y-111284000D01*
X193131860Y-111284000D01*
X193159928Y-111286764D01*
X193159928Y-111286764D01*
G37*
G36*
X188209928Y-111286764D02*
G01*
X188231009Y-111293160D01*
X188250445Y-111303548D01*
X188267476Y-111317524D01*
X188281452Y-111334555D01*
X188291840Y-111353991D01*
X188298236Y-111375072D01*
X188301000Y-111403140D01*
X188301000Y-111866860D01*
X188298236Y-111894928D01*
X188291840Y-111916009D01*
X188281452Y-111935445D01*
X188267476Y-111952476D01*
X188250445Y-111966452D01*
X188231009Y-111976840D01*
X188209928Y-111983236D01*
X188181860Y-111986000D01*
X186368140Y-111986000D01*
X186340072Y-111983236D01*
X186318991Y-111976840D01*
X186299555Y-111966452D01*
X186282524Y-111952476D01*
X186268548Y-111935445D01*
X186258160Y-111916009D01*
X186251764Y-111894928D01*
X186249000Y-111866860D01*
X186249000Y-111403140D01*
X186251764Y-111375072D01*
X186258160Y-111353991D01*
X186268548Y-111334555D01*
X186282524Y-111317524D01*
X186299555Y-111303548D01*
X186318991Y-111293160D01*
X186340072Y-111286764D01*
X186368140Y-111284000D01*
X188181860Y-111284000D01*
X188209928Y-111286764D01*
X188209928Y-111286764D01*
G37*
G36*
X193159928Y-110016764D02*
G01*
X193181009Y-110023160D01*
X193200445Y-110033548D01*
X193217476Y-110047524D01*
X193231452Y-110064555D01*
X193241840Y-110083991D01*
X193248236Y-110105072D01*
X193251000Y-110133140D01*
X193251000Y-110596860D01*
X193248236Y-110624928D01*
X193241840Y-110646009D01*
X193231452Y-110665445D01*
X193217476Y-110682476D01*
X193200445Y-110696452D01*
X193181009Y-110706840D01*
X193159928Y-110713236D01*
X193131860Y-110716000D01*
X191318140Y-110716000D01*
X191290072Y-110713236D01*
X191268991Y-110706840D01*
X191249555Y-110696452D01*
X191232524Y-110682476D01*
X191218548Y-110665445D01*
X191208160Y-110646009D01*
X191201764Y-110624928D01*
X191199000Y-110596860D01*
X191199000Y-110133140D01*
X191201764Y-110105072D01*
X191208160Y-110083991D01*
X191218548Y-110064555D01*
X191232524Y-110047524D01*
X191249555Y-110033548D01*
X191268991Y-110023160D01*
X191290072Y-110016764D01*
X191318140Y-110014000D01*
X193131860Y-110014000D01*
X193159928Y-110016764D01*
X193159928Y-110016764D01*
G37*
G36*
X188209928Y-110016764D02*
G01*
X188231009Y-110023160D01*
X188250445Y-110033548D01*
X188267476Y-110047524D01*
X188281452Y-110064555D01*
X188291840Y-110083991D01*
X188298236Y-110105072D01*
X188301000Y-110133140D01*
X188301000Y-110596860D01*
X188298236Y-110624928D01*
X188291840Y-110646009D01*
X188281452Y-110665445D01*
X188267476Y-110682476D01*
X188250445Y-110696452D01*
X188231009Y-110706840D01*
X188209928Y-110713236D01*
X188181860Y-110716000D01*
X186368140Y-110716000D01*
X186340072Y-110713236D01*
X186318991Y-110706840D01*
X186299555Y-110696452D01*
X186282524Y-110682476D01*
X186268548Y-110665445D01*
X186258160Y-110646009D01*
X186251764Y-110624928D01*
X186249000Y-110596860D01*
X186249000Y-110133140D01*
X186251764Y-110105072D01*
X186258160Y-110083991D01*
X186268548Y-110064555D01*
X186282524Y-110047524D01*
X186299555Y-110033548D01*
X186318991Y-110023160D01*
X186340072Y-110016764D01*
X186368140Y-110014000D01*
X188181860Y-110014000D01*
X188209928Y-110016764D01*
X188209928Y-110016764D01*
G37*
G36*
X172420000Y-110670000D02*
G01*
X171680000Y-110670000D01*
X171680000Y-109230000D01*
X172420000Y-109230000D01*
X172420000Y-110670000D01*
X172420000Y-110670000D01*
G37*
G36*
X174320000Y-110670000D02*
G01*
X173580000Y-110670000D01*
X173580000Y-109230000D01*
X174320000Y-109230000D01*
X174320000Y-110670000D01*
X174320000Y-110670000D01*
G37*
G36*
X179445000Y-110420000D02*
G01*
X178255000Y-110420000D01*
X178255000Y-109680000D01*
X179445000Y-109680000D01*
X179445000Y-110420000D01*
X179445000Y-110420000D01*
G37*
G36*
X188209928Y-108746764D02*
G01*
X188231009Y-108753160D01*
X188250445Y-108763548D01*
X188267476Y-108777524D01*
X188281452Y-108794555D01*
X188291840Y-108813991D01*
X188298236Y-108835072D01*
X188301000Y-108863140D01*
X188301000Y-109326860D01*
X188298236Y-109354928D01*
X188291840Y-109376009D01*
X188281452Y-109395445D01*
X188267476Y-109412476D01*
X188250445Y-109426452D01*
X188231009Y-109436840D01*
X188209928Y-109443236D01*
X188181860Y-109446000D01*
X186368140Y-109446000D01*
X186340072Y-109443236D01*
X186318991Y-109436840D01*
X186299555Y-109426452D01*
X186282524Y-109412476D01*
X186268548Y-109395445D01*
X186258160Y-109376009D01*
X186251764Y-109354928D01*
X186249000Y-109326860D01*
X186249000Y-108863140D01*
X186251764Y-108835072D01*
X186258160Y-108813991D01*
X186268548Y-108794555D01*
X186282524Y-108777524D01*
X186299555Y-108763548D01*
X186318991Y-108753160D01*
X186340072Y-108746764D01*
X186368140Y-108744000D01*
X188181860Y-108744000D01*
X188209928Y-108746764D01*
X188209928Y-108746764D01*
G37*
G36*
X193159928Y-108746764D02*
G01*
X193181009Y-108753160D01*
X193200445Y-108763548D01*
X193217476Y-108777524D01*
X193231452Y-108794555D01*
X193241840Y-108813991D01*
X193248236Y-108835072D01*
X193251000Y-108863140D01*
X193251000Y-109326860D01*
X193248236Y-109354928D01*
X193241840Y-109376009D01*
X193231452Y-109395445D01*
X193217476Y-109412476D01*
X193200445Y-109426452D01*
X193181009Y-109436840D01*
X193159928Y-109443236D01*
X193131860Y-109446000D01*
X191318140Y-109446000D01*
X191290072Y-109443236D01*
X191268991Y-109436840D01*
X191249555Y-109426452D01*
X191232524Y-109412476D01*
X191218548Y-109395445D01*
X191208160Y-109376009D01*
X191201764Y-109354928D01*
X191199000Y-109326860D01*
X191199000Y-108863140D01*
X191201764Y-108835072D01*
X191208160Y-108813991D01*
X191218548Y-108794555D01*
X191232524Y-108777524D01*
X191249555Y-108763548D01*
X191268991Y-108753160D01*
X191290072Y-108746764D01*
X191318140Y-108744000D01*
X193131860Y-108744000D01*
X193159928Y-108746764D01*
X193159928Y-108746764D01*
G37*
G36*
X176379591Y-107903085D02*
G01*
X176413569Y-107913393D01*
X176444890Y-107930134D01*
X176472339Y-107952661D01*
X176494866Y-107980110D01*
X176511607Y-108011431D01*
X176521915Y-108045409D01*
X176526000Y-108086890D01*
X176526000Y-108688110D01*
X176521915Y-108729591D01*
X176511607Y-108763569D01*
X176494866Y-108794890D01*
X176472339Y-108822339D01*
X176444890Y-108844866D01*
X176413569Y-108861607D01*
X176379591Y-108871915D01*
X176338110Y-108876000D01*
X175661890Y-108876000D01*
X175620409Y-108871915D01*
X175586431Y-108861607D01*
X175555110Y-108844866D01*
X175527661Y-108822339D01*
X175505134Y-108794890D01*
X175488393Y-108763569D01*
X175478085Y-108729591D01*
X175474000Y-108688110D01*
X175474000Y-108086890D01*
X175478085Y-108045409D01*
X175488393Y-108011431D01*
X175505134Y-107980110D01*
X175527661Y-107952661D01*
X175555110Y-107930134D01*
X175586431Y-107913393D01*
X175620409Y-107903085D01*
X175661890Y-107899000D01*
X176338110Y-107899000D01*
X176379591Y-107903085D01*
X176379591Y-107903085D01*
G37*
G36*
X174851000Y-108201000D02*
G01*
X172249000Y-108201000D01*
X172249000Y-106299000D01*
X174851000Y-106299000D01*
X174851000Y-108201000D01*
X174851000Y-108201000D01*
G37*
G36*
X170851000Y-108201000D02*
G01*
X168249000Y-108201000D01*
X168249000Y-106299000D01*
X170851000Y-106299000D01*
X170851000Y-108201000D01*
X170851000Y-108201000D01*
G37*
G36*
X165775752Y-103468097D02*
G01*
X165956295Y-103522864D01*
X166122677Y-103611797D01*
X166268516Y-103731484D01*
X166388203Y-103877323D01*
X166477136Y-104043705D01*
X166531903Y-104224248D01*
X166551000Y-104418140D01*
X166551000Y-106581860D01*
X166531903Y-106775752D01*
X166477136Y-106956295D01*
X166388203Y-107122677D01*
X166268516Y-107268516D01*
X166122677Y-107388203D01*
X165956295Y-107477136D01*
X165775752Y-107531903D01*
X165581860Y-107551000D01*
X163418140Y-107551000D01*
X163224248Y-107531903D01*
X163043705Y-107477136D01*
X162877323Y-107388203D01*
X162731484Y-107268516D01*
X162611797Y-107122677D01*
X162522864Y-106956295D01*
X162468097Y-106775752D01*
X162449000Y-106581860D01*
X162449000Y-104418140D01*
X162468097Y-104224248D01*
X162522864Y-104043705D01*
X162611797Y-103877323D01*
X162731484Y-103731484D01*
X162877323Y-103611797D01*
X163043705Y-103522864D01*
X163224248Y-103468097D01*
X163418140Y-103449000D01*
X165581860Y-103449000D01*
X165775752Y-103468097D01*
X165775752Y-103468097D01*
G37*
G36*
X191304591Y-106478085D02*
G01*
X191338569Y-106488393D01*
X191369890Y-106505134D01*
X191397339Y-106527661D01*
X191419866Y-106555110D01*
X191436607Y-106586431D01*
X191446915Y-106620409D01*
X191451000Y-106661890D01*
X191451000Y-107338110D01*
X191446915Y-107379591D01*
X191436607Y-107413569D01*
X191419866Y-107444890D01*
X191397339Y-107472339D01*
X191369890Y-107494866D01*
X191338569Y-107511607D01*
X191304591Y-107521915D01*
X191263110Y-107526000D01*
X190661890Y-107526000D01*
X190620409Y-107521915D01*
X190586431Y-107511607D01*
X190555110Y-107494866D01*
X190527661Y-107472339D01*
X190505134Y-107444890D01*
X190488393Y-107413569D01*
X190478085Y-107379591D01*
X190474000Y-107338110D01*
X190474000Y-106661890D01*
X190478085Y-106620409D01*
X190488393Y-106586431D01*
X190505134Y-106555110D01*
X190527661Y-106527661D01*
X190555110Y-106505134D01*
X190586431Y-106488393D01*
X190620409Y-106478085D01*
X190661890Y-106474000D01*
X191263110Y-106474000D01*
X191304591Y-106478085D01*
X191304591Y-106478085D01*
G37*
G36*
X192879591Y-106478085D02*
G01*
X192913569Y-106488393D01*
X192944890Y-106505134D01*
X192972339Y-106527661D01*
X192994866Y-106555110D01*
X193011607Y-106586431D01*
X193021915Y-106620409D01*
X193026000Y-106661890D01*
X193026000Y-107338110D01*
X193021915Y-107379591D01*
X193011607Y-107413569D01*
X192994866Y-107444890D01*
X192972339Y-107472339D01*
X192944890Y-107494866D01*
X192913569Y-107511607D01*
X192879591Y-107521915D01*
X192838110Y-107526000D01*
X192236890Y-107526000D01*
X192195409Y-107521915D01*
X192161431Y-107511607D01*
X192130110Y-107494866D01*
X192102661Y-107472339D01*
X192080134Y-107444890D01*
X192063393Y-107413569D01*
X192053085Y-107379591D01*
X192049000Y-107338110D01*
X192049000Y-106661890D01*
X192053085Y-106620409D01*
X192063393Y-106586431D01*
X192080134Y-106555110D01*
X192102661Y-106527661D01*
X192130110Y-106505134D01*
X192161431Y-106488393D01*
X192195409Y-106478085D01*
X192236890Y-106474000D01*
X192838110Y-106474000D01*
X192879591Y-106478085D01*
X192879591Y-106478085D01*
G37*
G36*
X176379591Y-106328085D02*
G01*
X176413569Y-106338393D01*
X176444890Y-106355134D01*
X176472339Y-106377661D01*
X176494866Y-106405110D01*
X176511607Y-106436431D01*
X176521915Y-106470409D01*
X176526000Y-106511890D01*
X176526000Y-107113110D01*
X176521915Y-107154591D01*
X176511607Y-107188569D01*
X176494866Y-107219890D01*
X176472339Y-107247339D01*
X176444890Y-107269866D01*
X176413569Y-107286607D01*
X176379591Y-107296915D01*
X176338110Y-107301000D01*
X175661890Y-107301000D01*
X175620409Y-107296915D01*
X175586431Y-107286607D01*
X175555110Y-107269866D01*
X175527661Y-107247339D01*
X175505134Y-107219890D01*
X175488393Y-107188569D01*
X175478085Y-107154591D01*
X175474000Y-107113110D01*
X175474000Y-106511890D01*
X175478085Y-106470409D01*
X175488393Y-106436431D01*
X175505134Y-106405110D01*
X175527661Y-106377661D01*
X175555110Y-106355134D01*
X175586431Y-106338393D01*
X175620409Y-106328085D01*
X175661890Y-106324000D01*
X176338110Y-106324000D01*
X176379591Y-106328085D01*
X176379591Y-106328085D01*
G37*
G36*
X180965331Y-103738211D02*
G01*
X181293092Y-103873974D01*
X181588070Y-104071072D01*
X181838928Y-104321930D01*
X182036026Y-104616908D01*
X182171789Y-104944669D01*
X182241000Y-105292616D01*
X182241000Y-105647384D01*
X182171789Y-105995331D01*
X182036026Y-106323092D01*
X181838928Y-106618070D01*
X181588070Y-106868928D01*
X181293092Y-107066026D01*
X180965331Y-107201789D01*
X180617384Y-107271000D01*
X180262616Y-107271000D01*
X179914669Y-107201789D01*
X179586908Y-107066026D01*
X179291930Y-106868928D01*
X179041072Y-106618070D01*
X178843974Y-106323092D01*
X178708211Y-105995331D01*
X178639000Y-105647384D01*
X178639000Y-105292616D01*
X178708211Y-104944669D01*
X178843974Y-104616908D01*
X179041072Y-104321930D01*
X179291930Y-104071072D01*
X179586908Y-103873974D01*
X179914669Y-103738211D01*
X180262616Y-103669000D01*
X180617384Y-103669000D01*
X180965331Y-103738211D01*
X180965331Y-103738211D01*
G37*
G36*
X189491000Y-106586000D02*
G01*
X188059000Y-106586000D01*
X188059000Y-105954000D01*
X189491000Y-105954000D01*
X189491000Y-106586000D01*
X189491000Y-106586000D01*
G37*
G36*
X186441000Y-106586000D02*
G01*
X185009000Y-106586000D01*
X185009000Y-105954000D01*
X186441000Y-105954000D01*
X186441000Y-106586000D01*
X186441000Y-106586000D01*
G37*
G36*
X189491000Y-105316000D02*
G01*
X188059000Y-105316000D01*
X188059000Y-104684000D01*
X189491000Y-104684000D01*
X189491000Y-105316000D01*
X189491000Y-105316000D01*
G37*
G36*
X186441000Y-105316000D02*
G01*
X185009000Y-105316000D01*
X185009000Y-104684000D01*
X186441000Y-104684000D01*
X186441000Y-105316000D01*
X186441000Y-105316000D01*
G37*
G36*
X174401000Y-104751000D02*
G01*
X172299000Y-104751000D01*
X172299000Y-102649000D01*
X174401000Y-102649000D01*
X174401000Y-104751000D01*
X174401000Y-104751000D01*
G37*
G36*
X186441000Y-104046000D02*
G01*
X185009000Y-104046000D01*
X185009000Y-103414000D01*
X186441000Y-103414000D01*
X186441000Y-104046000D01*
X186441000Y-104046000D01*
G37*
G36*
X189491000Y-104046000D02*
G01*
X188059000Y-104046000D01*
X188059000Y-103414000D01*
X189491000Y-103414000D01*
X189491000Y-104046000D01*
X189491000Y-104046000D01*
G37*
G36*
X165775752Y-98468097D02*
G01*
X165956295Y-98522864D01*
X166122677Y-98611797D01*
X166268516Y-98731484D01*
X166388203Y-98877323D01*
X166477136Y-99043705D01*
X166531903Y-99224248D01*
X166551000Y-99418140D01*
X166551000Y-101581860D01*
X166531903Y-101775752D01*
X166477136Y-101956295D01*
X166388203Y-102122677D01*
X166268516Y-102268516D01*
X166122677Y-102388203D01*
X165956295Y-102477136D01*
X165775752Y-102531903D01*
X165581860Y-102551000D01*
X163418140Y-102551000D01*
X163224248Y-102531903D01*
X163043705Y-102477136D01*
X162877323Y-102388203D01*
X162731484Y-102268516D01*
X162611797Y-102122677D01*
X162522864Y-101956295D01*
X162468097Y-101775752D01*
X162449000Y-101581860D01*
X162449000Y-99418140D01*
X162468097Y-99224248D01*
X162522864Y-99043705D01*
X162611797Y-98877323D01*
X162731484Y-98731484D01*
X162877323Y-98611797D01*
X163043705Y-98522864D01*
X163224248Y-98468097D01*
X163418140Y-98449000D01*
X165581860Y-98449000D01*
X165775752Y-98468097D01*
X165775752Y-98468097D01*
G37*
G36*
X173656564Y-100149389D02*
G01*
X173847833Y-100228615D01*
X173847835Y-100228616D01*
X174019973Y-100343635D01*
X174166365Y-100490027D01*
X174281385Y-100662167D01*
X174360611Y-100853436D01*
X174401000Y-101056484D01*
X174401000Y-101263516D01*
X174360611Y-101466564D01*
X174336199Y-101525500D01*
X174281384Y-101657835D01*
X174166365Y-101829973D01*
X174019973Y-101976365D01*
X173847835Y-102091384D01*
X173847834Y-102091385D01*
X173847833Y-102091385D01*
X173656564Y-102170611D01*
X173453516Y-102211000D01*
X173246484Y-102211000D01*
X173043436Y-102170611D01*
X172852167Y-102091385D01*
X172852166Y-102091385D01*
X172852165Y-102091384D01*
X172680027Y-101976365D01*
X172533635Y-101829973D01*
X172418616Y-101657835D01*
X172363801Y-101525500D01*
X172339389Y-101466564D01*
X172299000Y-101263516D01*
X172299000Y-101056484D01*
X172339389Y-100853436D01*
X172418615Y-100662167D01*
X172533635Y-100490027D01*
X172680027Y-100343635D01*
X172852165Y-100228616D01*
X172852167Y-100228615D01*
X173043436Y-100149389D01*
X173246484Y-100109000D01*
X173453516Y-100109000D01*
X173656564Y-100149389D01*
X173656564Y-100149389D01*
G37*
G36*
X196425752Y-96468097D02*
G01*
X196606295Y-96522864D01*
X196772677Y-96611797D01*
X196918516Y-96731484D01*
X197038203Y-96877323D01*
X197127136Y-97043705D01*
X197181903Y-97224248D01*
X197201000Y-97418140D01*
X197201000Y-99581860D01*
X197181903Y-99775752D01*
X197127136Y-99956295D01*
X197038203Y-100122677D01*
X196918516Y-100268516D01*
X196772677Y-100388203D01*
X196606295Y-100477136D01*
X196425752Y-100531903D01*
X196231860Y-100551000D01*
X194068140Y-100551000D01*
X193874248Y-100531903D01*
X193693705Y-100477136D01*
X193527323Y-100388203D01*
X193381484Y-100268516D01*
X193261797Y-100122677D01*
X193172864Y-99956295D01*
X193118097Y-99775752D01*
X193099000Y-99581860D01*
X193099000Y-97418140D01*
X193118097Y-97224248D01*
X193172864Y-97043705D01*
X193261797Y-96877323D01*
X193381484Y-96731484D01*
X193527323Y-96611797D01*
X193693705Y-96522864D01*
X193874248Y-96468097D01*
X194068140Y-96449000D01*
X196231860Y-96449000D01*
X196425752Y-96468097D01*
X196425752Y-96468097D01*
G37*
G36*
X165775752Y-93468097D02*
G01*
X165956295Y-93522864D01*
X166122677Y-93611797D01*
X166268516Y-93731484D01*
X166388203Y-93877323D01*
X166477136Y-94043705D01*
X166531903Y-94224248D01*
X166551000Y-94418140D01*
X166551000Y-96581860D01*
X166531903Y-96775752D01*
X166477136Y-96956295D01*
X166388203Y-97122677D01*
X166268516Y-97268516D01*
X166122677Y-97388203D01*
X165956295Y-97477136D01*
X165775752Y-97531903D01*
X165581860Y-97551000D01*
X163418140Y-97551000D01*
X163224248Y-97531903D01*
X163043705Y-97477136D01*
X162877323Y-97388203D01*
X162731484Y-97268516D01*
X162611797Y-97122677D01*
X162522864Y-96956295D01*
X162468097Y-96775752D01*
X162449000Y-96581860D01*
X162449000Y-94418140D01*
X162468097Y-94224248D01*
X162522864Y-94043705D01*
X162611797Y-93877323D01*
X162731484Y-93731484D01*
X162877323Y-93611797D01*
X163043705Y-93522864D01*
X163224248Y-93468097D01*
X163418140Y-93449000D01*
X165581860Y-93449000D01*
X165775752Y-93468097D01*
X165775752Y-93468097D01*
G37*
G36*
X178544072Y-93500918D02*
G01*
X178607190Y-93527062D01*
X178789939Y-93602759D01*
X178901328Y-93677187D01*
X179011211Y-93750609D01*
X179199391Y-93938789D01*
X179347242Y-94160063D01*
X179449082Y-94405928D01*
X179501000Y-94666937D01*
X179501000Y-94933063D01*
X179463283Y-95122677D01*
X179449082Y-95194072D01*
X179347241Y-95439939D01*
X179199390Y-95661212D01*
X179011212Y-95849390D01*
X178789939Y-95997241D01*
X178789938Y-95997242D01*
X178789937Y-95997242D01*
X178544072Y-96099082D01*
X178283063Y-96151000D01*
X178016937Y-96151000D01*
X177755928Y-96099082D01*
X177510063Y-95997242D01*
X177510062Y-95997242D01*
X177510061Y-95997241D01*
X177288788Y-95849390D01*
X177100610Y-95661212D01*
X176952759Y-95439939D01*
X176850918Y-95194072D01*
X176836717Y-95122677D01*
X176799000Y-94933063D01*
X176799000Y-94666937D01*
X176850918Y-94405928D01*
X176952758Y-94160063D01*
X177100609Y-93938789D01*
X177288789Y-93750609D01*
X177398672Y-93677187D01*
X177510061Y-93602759D01*
X177692811Y-93527062D01*
X177755928Y-93500918D01*
X178016937Y-93449000D01*
X178283063Y-93449000D01*
X178544072Y-93500918D01*
X178544072Y-93500918D01*
G37*
G36*
X184501000Y-96151000D02*
G01*
X181799000Y-96151000D01*
X181799000Y-93449000D01*
X184501000Y-93449000D01*
X184501000Y-96151000D01*
X184501000Y-96151000D01*
G37*
G36*
X196425752Y-91468097D02*
G01*
X196606295Y-91522864D01*
X196772677Y-91611797D01*
X196918516Y-91731484D01*
X197038203Y-91877323D01*
X197127136Y-92043705D01*
X197181903Y-92224248D01*
X197201000Y-92418140D01*
X197201000Y-94581860D01*
X197181903Y-94775752D01*
X197127136Y-94956295D01*
X197038203Y-95122677D01*
X196918516Y-95268516D01*
X196772677Y-95388203D01*
X196606295Y-95477136D01*
X196425752Y-95531903D01*
X196231860Y-95551000D01*
X194068140Y-95551000D01*
X193874248Y-95531903D01*
X193693705Y-95477136D01*
X193527323Y-95388203D01*
X193381484Y-95268516D01*
X193261797Y-95122677D01*
X193172864Y-94956295D01*
X193118097Y-94775752D01*
X193099000Y-94581860D01*
X193099000Y-92418140D01*
X193118097Y-92224248D01*
X193172864Y-92043705D01*
X193261797Y-91877323D01*
X193381484Y-91731484D01*
X193527323Y-91611797D01*
X193693705Y-91522864D01*
X193874248Y-91468097D01*
X194068140Y-91449000D01*
X196231860Y-91449000D01*
X196425752Y-91468097D01*
X196425752Y-91468097D01*
G37*
G36*
X173656564Y-92529389D02*
G01*
X173847833Y-92608615D01*
X173847835Y-92608616D01*
X174019973Y-92723635D01*
X174166365Y-92870027D01*
X174281385Y-93042167D01*
X174360611Y-93233436D01*
X174401000Y-93436484D01*
X174401000Y-93643516D01*
X174360611Y-93846564D01*
X174322410Y-93938789D01*
X174281384Y-94037835D01*
X174166365Y-94209973D01*
X174019973Y-94356365D01*
X173847835Y-94471384D01*
X173847834Y-94471385D01*
X173847833Y-94471385D01*
X173656564Y-94550611D01*
X173453516Y-94591000D01*
X173246484Y-94591000D01*
X173043436Y-94550611D01*
X172852167Y-94471385D01*
X172852166Y-94471385D01*
X172852165Y-94471384D01*
X172680027Y-94356365D01*
X172533635Y-94209973D01*
X172418616Y-94037835D01*
X172377590Y-93938789D01*
X172339389Y-93846564D01*
X172299000Y-93643516D01*
X172299000Y-93436484D01*
X172339389Y-93233436D01*
X172418615Y-93042167D01*
X172533635Y-92870027D01*
X172680027Y-92723635D01*
X172852165Y-92608616D01*
X172852167Y-92608615D01*
X173043436Y-92529389D01*
X173246484Y-92489000D01*
X173453516Y-92489000D01*
X173656564Y-92529389D01*
X173656564Y-92529389D01*
G37*
G36*
X196425752Y-86468097D02*
G01*
X196606295Y-86522864D01*
X196772677Y-86611797D01*
X196918516Y-86731484D01*
X197038203Y-86877323D01*
X197127136Y-87043705D01*
X197181903Y-87224248D01*
X197201000Y-87418140D01*
X197201000Y-89581860D01*
X197181903Y-89775752D01*
X197127136Y-89956295D01*
X197038203Y-90122677D01*
X196918516Y-90268516D01*
X196772677Y-90388203D01*
X196606295Y-90477136D01*
X196425752Y-90531903D01*
X196231860Y-90551000D01*
X194068140Y-90551000D01*
X193874248Y-90531903D01*
X193693705Y-90477136D01*
X193527323Y-90388203D01*
X193381484Y-90268516D01*
X193261797Y-90122677D01*
X193172864Y-89956295D01*
X193118097Y-89775752D01*
X193099000Y-89581860D01*
X193099000Y-87418140D01*
X193118097Y-87224248D01*
X193172864Y-87043705D01*
X193261797Y-86877323D01*
X193381484Y-86731484D01*
X193527323Y-86611797D01*
X193693705Y-86522864D01*
X193874248Y-86468097D01*
X194068140Y-86449000D01*
X196231860Y-86449000D01*
X196425752Y-86468097D01*
X196425752Y-86468097D01*
G37*
G36*
X180965331Y-83738211D02*
G01*
X181293092Y-83873974D01*
X181588070Y-84071072D01*
X181838928Y-84321930D01*
X182036026Y-84616908D01*
X182171789Y-84944669D01*
X182241000Y-85292616D01*
X182241000Y-85647384D01*
X182171789Y-85995331D01*
X182036026Y-86323092D01*
X181838928Y-86618070D01*
X181588070Y-86868928D01*
X181293092Y-87066026D01*
X180965331Y-87201789D01*
X180617384Y-87271000D01*
X180262616Y-87271000D01*
X179914669Y-87201789D01*
X179586908Y-87066026D01*
X179291930Y-86868928D01*
X179041072Y-86618070D01*
X178843974Y-86323092D01*
X178708211Y-85995331D01*
X178639000Y-85647384D01*
X178639000Y-85292616D01*
X178708211Y-84944669D01*
X178843974Y-84616908D01*
X179041072Y-84321930D01*
X179291930Y-84071072D01*
X179586908Y-83873974D01*
X179914669Y-83738211D01*
X180262616Y-83669000D01*
X180617384Y-83669000D01*
X180965331Y-83738211D01*
X180965331Y-83738211D01*
G37*
G36*
X173656564Y-84909389D02*
G01*
X173847833Y-84988615D01*
X173847835Y-84988616D01*
X174019973Y-85103635D01*
X174166365Y-85250027D01*
X174281385Y-85422167D01*
X174360611Y-85613436D01*
X174401000Y-85816484D01*
X174401000Y-86023516D01*
X174360611Y-86226564D01*
X174320628Y-86323092D01*
X174281384Y-86417835D01*
X174166365Y-86589973D01*
X174019973Y-86736365D01*
X173847835Y-86851384D01*
X173847834Y-86851385D01*
X173847833Y-86851385D01*
X173656564Y-86930611D01*
X173453516Y-86971000D01*
X173246484Y-86971000D01*
X173043436Y-86930611D01*
X172852167Y-86851385D01*
X172852166Y-86851385D01*
X172852165Y-86851384D01*
X172680027Y-86736365D01*
X172533635Y-86589973D01*
X172418616Y-86417835D01*
X172379372Y-86323092D01*
X172339389Y-86226564D01*
X172299000Y-86023516D01*
X172299000Y-85816484D01*
X172339389Y-85613436D01*
X172418615Y-85422167D01*
X172533635Y-85250027D01*
X172680027Y-85103635D01*
X172852165Y-84988616D01*
X172852167Y-84988615D01*
X173043436Y-84909389D01*
X173246484Y-84869000D01*
X173453516Y-84869000D01*
X173656564Y-84909389D01*
X173656564Y-84909389D01*
G37*
G36*
X195144072Y-81800918D02*
G01*
X195389939Y-81902759D01*
X195501328Y-81977187D01*
X195611211Y-82050609D01*
X195799391Y-82238789D01*
X195947242Y-82460063D01*
X196049082Y-82705928D01*
X196101000Y-82966937D01*
X196101000Y-83233063D01*
X196049082Y-83494072D01*
X195947957Y-83738212D01*
X195947241Y-83739939D01*
X195799390Y-83961212D01*
X195611212Y-84149390D01*
X195389939Y-84297241D01*
X195389938Y-84297242D01*
X195389937Y-84297242D01*
X195144072Y-84399082D01*
X194883063Y-84451000D01*
X194616937Y-84451000D01*
X194355928Y-84399082D01*
X194110063Y-84297242D01*
X194110062Y-84297242D01*
X194110061Y-84297241D01*
X193888788Y-84149390D01*
X193700610Y-83961212D01*
X193552759Y-83739939D01*
X193552044Y-83738212D01*
X193450918Y-83494072D01*
X193399000Y-83233063D01*
X193399000Y-82966937D01*
X193450918Y-82705928D01*
X193552758Y-82460063D01*
X193700609Y-82238789D01*
X193888789Y-82050609D01*
X193998672Y-81977187D01*
X194110061Y-81902759D01*
X194355928Y-81800918D01*
X194616937Y-81749000D01*
X194883063Y-81749000D01*
X195144072Y-81800918D01*
X195144072Y-81800918D01*
G37*
G36*
X196101000Y-79451000D02*
G01*
X193399000Y-79451000D01*
X193399000Y-76749000D01*
X196101000Y-76749000D01*
X196101000Y-79451000D01*
X196101000Y-79451000D01*
G37*
M02*
