%FSLAX45Y45*%
G04 Gerber Fmt 4.5, Leading zero omitted, Abs format (unit mm)*
G04 Created by KiCad (PCBNEW 5.1.4) date 2019-10-30 11:02:12*
%MOMM*%
%LPD*%
G04 APERTURE LIST*
%ADD10C,0.200000*%
%ADD11C,0.300000*%
G04 APERTURE END LIST*
D10*
X19595000Y-10910000D02*
X20075000Y-10470000D01*
X19595000Y-11870000D02*
X19595000Y-10910000D01*
X16010000Y-11410000D02*
X16495000Y-11870000D01*
X16495000Y-8210000D02*
X16010000Y-8630000D01*
X16495000Y-7210000D02*
X16495000Y-8210000D01*
X19575000Y-7210000D02*
X20075000Y-7730000D01*
X19575000Y-7210000D02*
X16495000Y-7210000D01*
X16010000Y-8630000D02*
X16010000Y-11410000D01*
X16495000Y-11870000D02*
X19595000Y-11870000D01*
X20075000Y-10470000D02*
X20075000Y-7730000D01*
D10*
X16305000Y-9405000D02*
X16345000Y-9445000D01*
X16345000Y-9405000D02*
X16305000Y-9445000D01*
X16305000Y-9655000D02*
X16345000Y-9695000D01*
X16345000Y-9655000D02*
X16305000Y-9695000D01*
X16430000Y-9530000D02*
X16470000Y-9570000D01*
X16470000Y-9530000D02*
X16430000Y-9570000D01*
X16530000Y-9405000D02*
X16570000Y-9445000D01*
X16570000Y-9405000D02*
X16530000Y-9445000D01*
X16555000Y-9655000D02*
X16595000Y-9695000D01*
X16595000Y-9655000D02*
X16555000Y-9695000D01*
X16580000Y-10030000D02*
X16620000Y-10070000D01*
X16620000Y-10030000D02*
X16580000Y-10070000D01*
X17430000Y-11105000D02*
X17470000Y-11145000D01*
X17470000Y-11105000D02*
X17430000Y-11145000D01*
X18230000Y-11030000D02*
X18270000Y-11070000D01*
X18270000Y-11030000D02*
X18230000Y-11070000D01*
X18695000Y-10320000D02*
X18735000Y-10360000D01*
X18735000Y-10320000D02*
X18695000Y-10360000D01*
X18705000Y-10580000D02*
X18745000Y-10620000D01*
X18745000Y-10580000D02*
X18705000Y-10620000D01*
X18870500Y-11270500D02*
X18910500Y-11310500D01*
X18910500Y-11270500D02*
X18870500Y-11310500D01*
X19080000Y-10555000D02*
X19120000Y-10595000D01*
X19120000Y-10555000D02*
X19080000Y-10595000D01*
X19345000Y-9330000D02*
X19385000Y-9370000D01*
X19385000Y-9330000D02*
X19345000Y-9370000D01*
X19380000Y-8730000D02*
X19420000Y-8770000D01*
X19420000Y-8730000D02*
X19380000Y-8770000D01*
X19385000Y-8960000D02*
X19425000Y-9000000D01*
X19425000Y-8960000D02*
X19385000Y-9000000D01*
X19495000Y-8830000D02*
X19535000Y-8870000D01*
X19535000Y-8830000D02*
X19495000Y-8870000D01*
X19605000Y-8730000D02*
X19645000Y-8770000D01*
X19645000Y-8730000D02*
X19605000Y-8770000D01*
X19605000Y-8950000D02*
X19645000Y-8990000D01*
X19645000Y-8950000D02*
X19605000Y-8990000D01*
X18895000Y-10990000D02*
X18935000Y-11030000D01*
X18935000Y-10990000D02*
X18895000Y-11030000D01*
X18895000Y-11080000D02*
X18935000Y-11120000D01*
X18935000Y-11080000D02*
X18895000Y-11120000D01*
X18895000Y-11170000D02*
X18935000Y-11210000D01*
X18935000Y-11170000D02*
X18895000Y-11210000D01*
X19005000Y-10990000D02*
X19045000Y-11030000D01*
X19045000Y-10990000D02*
X19005000Y-11030000D01*
X19005000Y-11080000D02*
X19045000Y-11120000D01*
X19045000Y-11080000D02*
X19005000Y-11120000D01*
X19005000Y-11170000D02*
X19045000Y-11210000D01*
X19045000Y-11170000D02*
X19005000Y-11210000D01*
X17390000Y-8592000D02*
G75*
G03X17390000Y-8592000I-55000J0D01*
G01*
X17390000Y-9354000D02*
G75*
G03X17390000Y-9354000I-55000J0D01*
G01*
X17390000Y-10116000D02*
G75*
G03X17390000Y-10116000I-55000J0D01*
G01*
X17390000Y-10370000D02*
G75*
G03X17390000Y-10370000I-55000J0D01*
G01*
X19475000Y-7745000D02*
X19475000Y-7875000D01*
X19410000Y-7810000D02*
X19540000Y-7810000D01*
X19475000Y-8245000D02*
X19475000Y-8375000D01*
X19410000Y-8310000D02*
X19540000Y-8310000D01*
X17815000Y-9415000D02*
X17815000Y-9545000D01*
X17750000Y-9480000D02*
X17880000Y-9480000D01*
X18315000Y-9415000D02*
X18315000Y-9545000D01*
X18250000Y-9480000D02*
X18380000Y-9480000D01*
D11*
X16286428Y-12345714D02*
X16286428Y-12045714D01*
X16357857Y-12045714D01*
X16400714Y-12060000D01*
X16429286Y-12088571D01*
X16443571Y-12117143D01*
X16457857Y-12174286D01*
X16457857Y-12217143D01*
X16443571Y-12274286D01*
X16429286Y-12302857D01*
X16400714Y-12331429D01*
X16357857Y-12345714D01*
X16286428Y-12345714D01*
X16586428Y-12345714D02*
X16586428Y-12145714D01*
X16586428Y-12202857D02*
X16600714Y-12174286D01*
X16615000Y-12160000D01*
X16643571Y-12145714D01*
X16672143Y-12145714D01*
X16772143Y-12345714D02*
X16772143Y-12145714D01*
X16772143Y-12045714D02*
X16757857Y-12060000D01*
X16772143Y-12074286D01*
X16786428Y-12060000D01*
X16772143Y-12045714D01*
X16772143Y-12074286D01*
X16957857Y-12345714D02*
X16929286Y-12331429D01*
X16915000Y-12302857D01*
X16915000Y-12045714D01*
X17115000Y-12345714D02*
X17086428Y-12331429D01*
X17072143Y-12302857D01*
X17072143Y-12045714D01*
X17457857Y-12345714D02*
X17457857Y-12045714D01*
X17557857Y-12260000D01*
X17657857Y-12045714D01*
X17657857Y-12345714D01*
X17929286Y-12345714D02*
X17929286Y-12188571D01*
X17915000Y-12160000D01*
X17886428Y-12145714D01*
X17829286Y-12145714D01*
X17800714Y-12160000D01*
X17929286Y-12331429D02*
X17900714Y-12345714D01*
X17829286Y-12345714D01*
X17800714Y-12331429D01*
X17786428Y-12302857D01*
X17786428Y-12274286D01*
X17800714Y-12245714D01*
X17829286Y-12231429D01*
X17900714Y-12231429D01*
X17929286Y-12217143D01*
X18072143Y-12145714D02*
X18072143Y-12445714D01*
X18072143Y-12160000D02*
X18100714Y-12145714D01*
X18157857Y-12145714D01*
X18186428Y-12160000D01*
X18200714Y-12174286D01*
X18215000Y-12202857D01*
X18215000Y-12288571D01*
X18200714Y-12317143D01*
X18186428Y-12331429D01*
X18157857Y-12345714D01*
X18100714Y-12345714D01*
X18072143Y-12331429D01*
X18343571Y-12317143D02*
X18357857Y-12331429D01*
X18343571Y-12345714D01*
X18329286Y-12331429D01*
X18343571Y-12317143D01*
X18343571Y-12345714D01*
X18343571Y-12160000D02*
X18357857Y-12174286D01*
X18343571Y-12188571D01*
X18329286Y-12174286D01*
X18343571Y-12160000D01*
X18343571Y-12188571D01*
X15960000Y-12820000D02*
X16000000Y-12860000D01*
X16000000Y-12820000D02*
X15960000Y-12860000D01*
X16343571Y-12675714D02*
X16372143Y-12675714D01*
X16400714Y-12690000D01*
X16415000Y-12704286D01*
X16429286Y-12732857D01*
X16443571Y-12790000D01*
X16443571Y-12861429D01*
X16429286Y-12918571D01*
X16415000Y-12947143D01*
X16400714Y-12961429D01*
X16372143Y-12975714D01*
X16343571Y-12975714D01*
X16315000Y-12961429D01*
X16300714Y-12947143D01*
X16286428Y-12918571D01*
X16272143Y-12861429D01*
X16272143Y-12790000D01*
X16286428Y-12732857D01*
X16300714Y-12704286D01*
X16315000Y-12690000D01*
X16343571Y-12675714D01*
X16572143Y-12947143D02*
X16586428Y-12961429D01*
X16572143Y-12975714D01*
X16557857Y-12961429D01*
X16572143Y-12947143D01*
X16572143Y-12975714D01*
X16843571Y-12775714D02*
X16843571Y-12975714D01*
X16772143Y-12661429D02*
X16700714Y-12875714D01*
X16886428Y-12875714D01*
X17057857Y-12675714D02*
X17086428Y-12675714D01*
X17115000Y-12690000D01*
X17129286Y-12704286D01*
X17143571Y-12732857D01*
X17157857Y-12790000D01*
X17157857Y-12861429D01*
X17143571Y-12918571D01*
X17129286Y-12947143D01*
X17115000Y-12961429D01*
X17086428Y-12975714D01*
X17057857Y-12975714D01*
X17029286Y-12961429D01*
X17015000Y-12947143D01*
X17000714Y-12918571D01*
X16986428Y-12861429D01*
X16986428Y-12790000D01*
X17000714Y-12732857D01*
X17015000Y-12704286D01*
X17029286Y-12690000D01*
X17057857Y-12675714D01*
X17286428Y-12975714D02*
X17286428Y-12775714D01*
X17286428Y-12804286D02*
X17300714Y-12790000D01*
X17329286Y-12775714D01*
X17372143Y-12775714D01*
X17400714Y-12790000D01*
X17415000Y-12818571D01*
X17415000Y-12975714D01*
X17415000Y-12818571D02*
X17429286Y-12790000D01*
X17457857Y-12775714D01*
X17500714Y-12775714D01*
X17529286Y-12790000D01*
X17543571Y-12818571D01*
X17543571Y-12975714D01*
X17686428Y-12975714D02*
X17686428Y-12775714D01*
X17686428Y-12804286D02*
X17700714Y-12790000D01*
X17729286Y-12775714D01*
X17772143Y-12775714D01*
X17800714Y-12790000D01*
X17815000Y-12818571D01*
X17815000Y-12975714D01*
X17815000Y-12818571D02*
X17829286Y-12790000D01*
X17857857Y-12775714D01*
X17900714Y-12775714D01*
X17929286Y-12790000D01*
X17943571Y-12818571D01*
X17943571Y-12975714D01*
X18529286Y-12661429D02*
X18272143Y-13047143D01*
X18915000Y-12675714D02*
X18943571Y-12675714D01*
X18972143Y-12690000D01*
X18986428Y-12704286D01*
X19000714Y-12732857D01*
X19015000Y-12790000D01*
X19015000Y-12861429D01*
X19000714Y-12918571D01*
X18986428Y-12947143D01*
X18972143Y-12961429D01*
X18943571Y-12975714D01*
X18915000Y-12975714D01*
X18886428Y-12961429D01*
X18872143Y-12947143D01*
X18857857Y-12918571D01*
X18843571Y-12861429D01*
X18843571Y-12790000D01*
X18857857Y-12732857D01*
X18872143Y-12704286D01*
X18886428Y-12690000D01*
X18915000Y-12675714D01*
X19143571Y-12947143D02*
X19157857Y-12961429D01*
X19143571Y-12975714D01*
X19129286Y-12961429D01*
X19143571Y-12947143D01*
X19143571Y-12975714D01*
X19343571Y-12675714D02*
X19372143Y-12675714D01*
X19400714Y-12690000D01*
X19415000Y-12704286D01*
X19429286Y-12732857D01*
X19443571Y-12790000D01*
X19443571Y-12861429D01*
X19429286Y-12918571D01*
X19415000Y-12947143D01*
X19400714Y-12961429D01*
X19372143Y-12975714D01*
X19343571Y-12975714D01*
X19315000Y-12961429D01*
X19300714Y-12947143D01*
X19286428Y-12918571D01*
X19272143Y-12861429D01*
X19272143Y-12790000D01*
X19286428Y-12732857D01*
X19300714Y-12704286D01*
X19315000Y-12690000D01*
X19343571Y-12675714D01*
X19729286Y-12975714D02*
X19557857Y-12975714D01*
X19643571Y-12975714D02*
X19643571Y-12675714D01*
X19615000Y-12718571D01*
X19586428Y-12747143D01*
X19557857Y-12761429D01*
X19986428Y-12675714D02*
X19929286Y-12675714D01*
X19900714Y-12690000D01*
X19886428Y-12704286D01*
X19857857Y-12747143D01*
X19843571Y-12804286D01*
X19843571Y-12918571D01*
X19857857Y-12947143D01*
X19872143Y-12961429D01*
X19900714Y-12975714D01*
X19957857Y-12975714D01*
X19986428Y-12961429D01*
X20000714Y-12947143D01*
X20015000Y-12918571D01*
X20015000Y-12847143D01*
X20000714Y-12818571D01*
X19986428Y-12804286D01*
X19957857Y-12790000D01*
X19900714Y-12790000D01*
X19872143Y-12804286D01*
X19857857Y-12818571D01*
X19843571Y-12847143D01*
X20129286Y-12675714D02*
X20129286Y-12732857D01*
X20243571Y-12675714D02*
X20243571Y-12732857D01*
X20686428Y-13090000D02*
X20672143Y-13075714D01*
X20643571Y-13032857D01*
X20629286Y-13004286D01*
X20615000Y-12961429D01*
X20600714Y-12890000D01*
X20600714Y-12832857D01*
X20615000Y-12761429D01*
X20629286Y-12718571D01*
X20643571Y-12690000D01*
X20672143Y-12647143D01*
X20686428Y-12632857D01*
X20786428Y-12704286D02*
X20800714Y-12690000D01*
X20829286Y-12675714D01*
X20900714Y-12675714D01*
X20929286Y-12690000D01*
X20943571Y-12704286D01*
X20957857Y-12732857D01*
X20957857Y-12761429D01*
X20943571Y-12804286D01*
X20772143Y-12975714D01*
X20957857Y-12975714D01*
X21215000Y-12775714D02*
X21215000Y-12975714D01*
X21143571Y-12661429D02*
X21072143Y-12875714D01*
X21257857Y-12875714D01*
X21600714Y-12975714D02*
X21600714Y-12675714D01*
X21729286Y-12975714D02*
X21729286Y-12818571D01*
X21715000Y-12790000D01*
X21686428Y-12775714D01*
X21643571Y-12775714D01*
X21615000Y-12790000D01*
X21600714Y-12804286D01*
X21915000Y-12975714D02*
X21886428Y-12961429D01*
X21872143Y-12947143D01*
X21857857Y-12918571D01*
X21857857Y-12832857D01*
X21872143Y-12804286D01*
X21886428Y-12790000D01*
X21915000Y-12775714D01*
X21957857Y-12775714D01*
X21986428Y-12790000D01*
X22000714Y-12804286D01*
X22015000Y-12832857D01*
X22015000Y-12918571D01*
X22000714Y-12947143D01*
X21986428Y-12961429D01*
X21957857Y-12975714D01*
X21915000Y-12975714D01*
X22186428Y-12975714D02*
X22157857Y-12961429D01*
X22143571Y-12932857D01*
X22143571Y-12675714D01*
X22415000Y-12961429D02*
X22386428Y-12975714D01*
X22329286Y-12975714D01*
X22300714Y-12961429D01*
X22286428Y-12932857D01*
X22286428Y-12818571D01*
X22300714Y-12790000D01*
X22329286Y-12775714D01*
X22386428Y-12775714D01*
X22415000Y-12790000D01*
X22429286Y-12818571D01*
X22429286Y-12847143D01*
X22286428Y-12875714D01*
X22543571Y-12961429D02*
X22572143Y-12975714D01*
X22629286Y-12975714D01*
X22657857Y-12961429D01*
X22672143Y-12932857D01*
X22672143Y-12918571D01*
X22657857Y-12890000D01*
X22629286Y-12875714D01*
X22586428Y-12875714D01*
X22557857Y-12861429D01*
X22543571Y-12832857D01*
X22543571Y-12818571D01*
X22557857Y-12790000D01*
X22586428Y-12775714D01*
X22629286Y-12775714D01*
X22657857Y-12790000D01*
X22772143Y-13090000D02*
X22786428Y-13075714D01*
X22815000Y-13032857D01*
X22829286Y-13004286D01*
X22843571Y-12961429D01*
X22857857Y-12890000D01*
X22857857Y-12832857D01*
X22843571Y-12761429D01*
X22829286Y-12718571D01*
X22815000Y-12690000D01*
X22786428Y-12647143D01*
X22772143Y-12632857D01*
X16000000Y-13236000D02*
G75*
G03X16000000Y-13236000I-55000J0D01*
G01*
X16443571Y-13371714D02*
X16272143Y-13371714D01*
X16357857Y-13371714D02*
X16357857Y-13071714D01*
X16329286Y-13114571D01*
X16300714Y-13143143D01*
X16272143Y-13157429D01*
X16572143Y-13343143D02*
X16586428Y-13357429D01*
X16572143Y-13371714D01*
X16557857Y-13357429D01*
X16572143Y-13343143D01*
X16572143Y-13371714D01*
X16872143Y-13371714D02*
X16700714Y-13371714D01*
X16786428Y-13371714D02*
X16786428Y-13071714D01*
X16757857Y-13114571D01*
X16729286Y-13143143D01*
X16700714Y-13157429D01*
X17057857Y-13071714D02*
X17086428Y-13071714D01*
X17115000Y-13086000D01*
X17129286Y-13100286D01*
X17143571Y-13128857D01*
X17157857Y-13186000D01*
X17157857Y-13257429D01*
X17143571Y-13314571D01*
X17129286Y-13343143D01*
X17115000Y-13357429D01*
X17086428Y-13371714D01*
X17057857Y-13371714D01*
X17029286Y-13357429D01*
X17015000Y-13343143D01*
X17000714Y-13314571D01*
X16986428Y-13257429D01*
X16986428Y-13186000D01*
X17000714Y-13128857D01*
X17015000Y-13100286D01*
X17029286Y-13086000D01*
X17057857Y-13071714D01*
X17286428Y-13371714D02*
X17286428Y-13171714D01*
X17286428Y-13200286D02*
X17300714Y-13186000D01*
X17329286Y-13171714D01*
X17372143Y-13171714D01*
X17400714Y-13186000D01*
X17415000Y-13214571D01*
X17415000Y-13371714D01*
X17415000Y-13214571D02*
X17429286Y-13186000D01*
X17457857Y-13171714D01*
X17500714Y-13171714D01*
X17529286Y-13186000D01*
X17543571Y-13214571D01*
X17543571Y-13371714D01*
X17686428Y-13371714D02*
X17686428Y-13171714D01*
X17686428Y-13200286D02*
X17700714Y-13186000D01*
X17729286Y-13171714D01*
X17772143Y-13171714D01*
X17800714Y-13186000D01*
X17815000Y-13214571D01*
X17815000Y-13371714D01*
X17815000Y-13214571D02*
X17829286Y-13186000D01*
X17857857Y-13171714D01*
X17900714Y-13171714D01*
X17929286Y-13186000D01*
X17943571Y-13214571D01*
X17943571Y-13371714D01*
X18529286Y-13057429D02*
X18272143Y-13443143D01*
X18915000Y-13071714D02*
X18943571Y-13071714D01*
X18972143Y-13086000D01*
X18986428Y-13100286D01*
X19000714Y-13128857D01*
X19015000Y-13186000D01*
X19015000Y-13257429D01*
X19000714Y-13314571D01*
X18986428Y-13343143D01*
X18972143Y-13357429D01*
X18943571Y-13371714D01*
X18915000Y-13371714D01*
X18886428Y-13357429D01*
X18872143Y-13343143D01*
X18857857Y-13314571D01*
X18843571Y-13257429D01*
X18843571Y-13186000D01*
X18857857Y-13128857D01*
X18872143Y-13100286D01*
X18886428Y-13086000D01*
X18915000Y-13071714D01*
X19143571Y-13343143D02*
X19157857Y-13357429D01*
X19143571Y-13371714D01*
X19129286Y-13357429D01*
X19143571Y-13343143D01*
X19143571Y-13371714D01*
X19343571Y-13071714D02*
X19372143Y-13071714D01*
X19400714Y-13086000D01*
X19415000Y-13100286D01*
X19429286Y-13128857D01*
X19443571Y-13186000D01*
X19443571Y-13257429D01*
X19429286Y-13314571D01*
X19415000Y-13343143D01*
X19400714Y-13357429D01*
X19372143Y-13371714D01*
X19343571Y-13371714D01*
X19315000Y-13357429D01*
X19300714Y-13343143D01*
X19286428Y-13314571D01*
X19272143Y-13257429D01*
X19272143Y-13186000D01*
X19286428Y-13128857D01*
X19300714Y-13100286D01*
X19315000Y-13086000D01*
X19343571Y-13071714D01*
X19700714Y-13171714D02*
X19700714Y-13371714D01*
X19629286Y-13057429D02*
X19557857Y-13271714D01*
X19743571Y-13271714D01*
X19829286Y-13071714D02*
X20015000Y-13071714D01*
X19915000Y-13186000D01*
X19957857Y-13186000D01*
X19986428Y-13200286D01*
X20000714Y-13214571D01*
X20015000Y-13243143D01*
X20015000Y-13314571D01*
X20000714Y-13343143D01*
X19986428Y-13357429D01*
X19957857Y-13371714D01*
X19872143Y-13371714D01*
X19843571Y-13357429D01*
X19829286Y-13343143D01*
X20129286Y-13071714D02*
X20129286Y-13128857D01*
X20243571Y-13071714D02*
X20243571Y-13128857D01*
X20686428Y-13486000D02*
X20672143Y-13471714D01*
X20643571Y-13428857D01*
X20629286Y-13400286D01*
X20615000Y-13357429D01*
X20600714Y-13286000D01*
X20600714Y-13228857D01*
X20615000Y-13157429D01*
X20629286Y-13114571D01*
X20643571Y-13086000D01*
X20672143Y-13043143D01*
X20686428Y-13028857D01*
X20929286Y-13171714D02*
X20929286Y-13371714D01*
X20857857Y-13057429D02*
X20786428Y-13271714D01*
X20972143Y-13271714D01*
X21315000Y-13371714D02*
X21315000Y-13071714D01*
X21443571Y-13371714D02*
X21443571Y-13214571D01*
X21429286Y-13186000D01*
X21400714Y-13171714D01*
X21357857Y-13171714D01*
X21329286Y-13186000D01*
X21315000Y-13200286D01*
X21629286Y-13371714D02*
X21600714Y-13357429D01*
X21586428Y-13343143D01*
X21572143Y-13314571D01*
X21572143Y-13228857D01*
X21586428Y-13200286D01*
X21600714Y-13186000D01*
X21629286Y-13171714D01*
X21672143Y-13171714D01*
X21700714Y-13186000D01*
X21715000Y-13200286D01*
X21729286Y-13228857D01*
X21729286Y-13314571D01*
X21715000Y-13343143D01*
X21700714Y-13357429D01*
X21672143Y-13371714D01*
X21629286Y-13371714D01*
X21900714Y-13371714D02*
X21872143Y-13357429D01*
X21857857Y-13328857D01*
X21857857Y-13071714D01*
X22129286Y-13357429D02*
X22100714Y-13371714D01*
X22043571Y-13371714D01*
X22015000Y-13357429D01*
X22000714Y-13328857D01*
X22000714Y-13214571D01*
X22015000Y-13186000D01*
X22043571Y-13171714D01*
X22100714Y-13171714D01*
X22129286Y-13186000D01*
X22143571Y-13214571D01*
X22143571Y-13243143D01*
X22000714Y-13271714D01*
X22257857Y-13357429D02*
X22286428Y-13371714D01*
X22343571Y-13371714D01*
X22372143Y-13357429D01*
X22386428Y-13328857D01*
X22386428Y-13314571D01*
X22372143Y-13286000D01*
X22343571Y-13271714D01*
X22300714Y-13271714D01*
X22272143Y-13257429D01*
X22257857Y-13228857D01*
X22257857Y-13214571D01*
X22272143Y-13186000D01*
X22300714Y-13171714D01*
X22343571Y-13171714D01*
X22372143Y-13186000D01*
X22486428Y-13486000D02*
X22500714Y-13471714D01*
X22529286Y-13428857D01*
X22543571Y-13400286D01*
X22557857Y-13357429D01*
X22572143Y-13286000D01*
X22572143Y-13228857D01*
X22557857Y-13157429D01*
X22543571Y-13114571D01*
X22529286Y-13086000D01*
X22500714Y-13043143D01*
X22486428Y-13028857D01*
X15935000Y-13567000D02*
X15935000Y-13697000D01*
X15870000Y-13632000D02*
X16000000Y-13632000D01*
X16443571Y-13767714D02*
X16272143Y-13767714D01*
X16357857Y-13767714D02*
X16357857Y-13467714D01*
X16329286Y-13510571D01*
X16300714Y-13539143D01*
X16272143Y-13553429D01*
X16572143Y-13739143D02*
X16586428Y-13753429D01*
X16572143Y-13767714D01*
X16557857Y-13753429D01*
X16572143Y-13739143D01*
X16572143Y-13767714D01*
X16686428Y-13467714D02*
X16872143Y-13467714D01*
X16772143Y-13582000D01*
X16815000Y-13582000D01*
X16843571Y-13596286D01*
X16857857Y-13610571D01*
X16872143Y-13639143D01*
X16872143Y-13710571D01*
X16857857Y-13739143D01*
X16843571Y-13753429D01*
X16815000Y-13767714D01*
X16729286Y-13767714D01*
X16700714Y-13753429D01*
X16686428Y-13739143D01*
X17057857Y-13467714D02*
X17086428Y-13467714D01*
X17115000Y-13482000D01*
X17129286Y-13496286D01*
X17143571Y-13524857D01*
X17157857Y-13582000D01*
X17157857Y-13653429D01*
X17143571Y-13710571D01*
X17129286Y-13739143D01*
X17115000Y-13753429D01*
X17086428Y-13767714D01*
X17057857Y-13767714D01*
X17029286Y-13753429D01*
X17015000Y-13739143D01*
X17000714Y-13710571D01*
X16986428Y-13653429D01*
X16986428Y-13582000D01*
X17000714Y-13524857D01*
X17015000Y-13496286D01*
X17029286Y-13482000D01*
X17057857Y-13467714D01*
X17286428Y-13767714D02*
X17286428Y-13567714D01*
X17286428Y-13596286D02*
X17300714Y-13582000D01*
X17329286Y-13567714D01*
X17372143Y-13567714D01*
X17400714Y-13582000D01*
X17415000Y-13610571D01*
X17415000Y-13767714D01*
X17415000Y-13610571D02*
X17429286Y-13582000D01*
X17457857Y-13567714D01*
X17500714Y-13567714D01*
X17529286Y-13582000D01*
X17543571Y-13610571D01*
X17543571Y-13767714D01*
X17686428Y-13767714D02*
X17686428Y-13567714D01*
X17686428Y-13596286D02*
X17700714Y-13582000D01*
X17729286Y-13567714D01*
X17772143Y-13567714D01*
X17800714Y-13582000D01*
X17815000Y-13610571D01*
X17815000Y-13767714D01*
X17815000Y-13610571D02*
X17829286Y-13582000D01*
X17857857Y-13567714D01*
X17900714Y-13567714D01*
X17929286Y-13582000D01*
X17943571Y-13610571D01*
X17943571Y-13767714D01*
X18529286Y-13453429D02*
X18272143Y-13839143D01*
X18915000Y-13467714D02*
X18943571Y-13467714D01*
X18972143Y-13482000D01*
X18986428Y-13496286D01*
X19000714Y-13524857D01*
X19015000Y-13582000D01*
X19015000Y-13653429D01*
X19000714Y-13710571D01*
X18986428Y-13739143D01*
X18972143Y-13753429D01*
X18943571Y-13767714D01*
X18915000Y-13767714D01*
X18886428Y-13753429D01*
X18872143Y-13739143D01*
X18857857Y-13710571D01*
X18843571Y-13653429D01*
X18843571Y-13582000D01*
X18857857Y-13524857D01*
X18872143Y-13496286D01*
X18886428Y-13482000D01*
X18915000Y-13467714D01*
X19143571Y-13739143D02*
X19157857Y-13753429D01*
X19143571Y-13767714D01*
X19129286Y-13753429D01*
X19143571Y-13739143D01*
X19143571Y-13767714D01*
X19343571Y-13467714D02*
X19372143Y-13467714D01*
X19400714Y-13482000D01*
X19415000Y-13496286D01*
X19429286Y-13524857D01*
X19443571Y-13582000D01*
X19443571Y-13653429D01*
X19429286Y-13710571D01*
X19415000Y-13739143D01*
X19400714Y-13753429D01*
X19372143Y-13767714D01*
X19343571Y-13767714D01*
X19315000Y-13753429D01*
X19300714Y-13739143D01*
X19286428Y-13710571D01*
X19272143Y-13653429D01*
X19272143Y-13582000D01*
X19286428Y-13524857D01*
X19300714Y-13496286D01*
X19315000Y-13482000D01*
X19343571Y-13467714D01*
X19715000Y-13467714D02*
X19572143Y-13467714D01*
X19557857Y-13610571D01*
X19572143Y-13596286D01*
X19600714Y-13582000D01*
X19672143Y-13582000D01*
X19700714Y-13596286D01*
X19715000Y-13610571D01*
X19729286Y-13639143D01*
X19729286Y-13710571D01*
X19715000Y-13739143D01*
X19700714Y-13753429D01*
X19672143Y-13767714D01*
X19600714Y-13767714D01*
X19572143Y-13753429D01*
X19557857Y-13739143D01*
X20015000Y-13767714D02*
X19843571Y-13767714D01*
X19929286Y-13767714D02*
X19929286Y-13467714D01*
X19900714Y-13510571D01*
X19872143Y-13539143D01*
X19843571Y-13553429D01*
X20129286Y-13467714D02*
X20129286Y-13524857D01*
X20243571Y-13467714D02*
X20243571Y-13524857D01*
X20686428Y-13882000D02*
X20672143Y-13867714D01*
X20643571Y-13824857D01*
X20629286Y-13796286D01*
X20615000Y-13753429D01*
X20600714Y-13682000D01*
X20600714Y-13624857D01*
X20615000Y-13553429D01*
X20629286Y-13510571D01*
X20643571Y-13482000D01*
X20672143Y-13439143D01*
X20686428Y-13424857D01*
X20929286Y-13567714D02*
X20929286Y-13767714D01*
X20857857Y-13453429D02*
X20786428Y-13667714D01*
X20972143Y-13667714D01*
X21315000Y-13767714D02*
X21315000Y-13467714D01*
X21443571Y-13767714D02*
X21443571Y-13610571D01*
X21429286Y-13582000D01*
X21400714Y-13567714D01*
X21357857Y-13567714D01*
X21329286Y-13582000D01*
X21315000Y-13596286D01*
X21629286Y-13767714D02*
X21600714Y-13753429D01*
X21586428Y-13739143D01*
X21572143Y-13710571D01*
X21572143Y-13624857D01*
X21586428Y-13596286D01*
X21600714Y-13582000D01*
X21629286Y-13567714D01*
X21672143Y-13567714D01*
X21700714Y-13582000D01*
X21715000Y-13596286D01*
X21729286Y-13624857D01*
X21729286Y-13710571D01*
X21715000Y-13739143D01*
X21700714Y-13753429D01*
X21672143Y-13767714D01*
X21629286Y-13767714D01*
X21900714Y-13767714D02*
X21872143Y-13753429D01*
X21857857Y-13724857D01*
X21857857Y-13467714D01*
X22129286Y-13753429D02*
X22100714Y-13767714D01*
X22043571Y-13767714D01*
X22015000Y-13753429D01*
X22000714Y-13724857D01*
X22000714Y-13610571D01*
X22015000Y-13582000D01*
X22043571Y-13567714D01*
X22100714Y-13567714D01*
X22129286Y-13582000D01*
X22143571Y-13610571D01*
X22143571Y-13639143D01*
X22000714Y-13667714D01*
X22257857Y-13753429D02*
X22286428Y-13767714D01*
X22343571Y-13767714D01*
X22372143Y-13753429D01*
X22386428Y-13724857D01*
X22386428Y-13710571D01*
X22372143Y-13682000D01*
X22343571Y-13667714D01*
X22300714Y-13667714D01*
X22272143Y-13653429D01*
X22257857Y-13624857D01*
X22257857Y-13610571D01*
X22272143Y-13582000D01*
X22300714Y-13567714D01*
X22343571Y-13567714D01*
X22372143Y-13582000D01*
X22486428Y-13882000D02*
X22500714Y-13867714D01*
X22529286Y-13824857D01*
X22543571Y-13796286D01*
X22557857Y-13753429D01*
X22572143Y-13682000D01*
X22572143Y-13624857D01*
X22557857Y-13553429D01*
X22543571Y-13510571D01*
X22529286Y-13482000D01*
X22500714Y-13439143D01*
X22486428Y-13424857D01*
M02*
