G04 #@! TF.GenerationSoftware,KiCad,Pcbnew,5.1.4*
G04 #@! TF.CreationDate,2019-10-30T11:02:10-04:00*
G04 #@! TF.ProjectId,siot-node-relay,73696f74-2d6e-46f6-9465-2d72656c6179,rev?*
G04 #@! TF.SameCoordinates,Original*
G04 #@! TF.FileFunction,Paste,Top*
G04 #@! TF.FilePolarity,Positive*
%FSLAX46Y46*%
G04 Gerber Fmt 4.6, Leading zero omitted, Abs format (unit mm)*
G04 Created by KiCad (PCBNEW 5.1.4) date 2019-10-30 11:02:10*
%MOMM*%
%LPD*%
G04 APERTURE LIST*
%ADD10R,1.330000X0.530000*%
%ADD11C,0.100000*%
%ADD12C,0.600000*%
%ADD13C,0.960000*%
%ADD14C,0.875000*%
%ADD15R,0.600000X1.300000*%
%ADD16R,2.500000X1.800000*%
%ADD17R,1.050000X0.600000*%
%ADD18C,4.000000*%
G04 APERTURE END LIST*
D10*
X185725000Y-106270000D03*
X185725000Y-105000000D03*
X185725000Y-103730000D03*
X188775000Y-103730000D03*
X188775000Y-106270000D03*
X188775000Y-105000000D03*
D11*
G36*
X193064703Y-108795722D02*
G01*
X193079264Y-108797882D01*
X193093543Y-108801459D01*
X193107403Y-108806418D01*
X193120710Y-108812712D01*
X193133336Y-108820280D01*
X193145159Y-108829048D01*
X193156066Y-108838934D01*
X193165952Y-108849841D01*
X193174720Y-108861664D01*
X193182288Y-108874290D01*
X193188582Y-108887597D01*
X193193541Y-108901457D01*
X193197118Y-108915736D01*
X193199278Y-108930297D01*
X193200000Y-108945000D01*
X193200000Y-109245000D01*
X193199278Y-109259703D01*
X193197118Y-109274264D01*
X193193541Y-109288543D01*
X193188582Y-109302403D01*
X193182288Y-109315710D01*
X193174720Y-109328336D01*
X193165952Y-109340159D01*
X193156066Y-109351066D01*
X193145159Y-109360952D01*
X193133336Y-109369720D01*
X193120710Y-109377288D01*
X193107403Y-109383582D01*
X193093543Y-109388541D01*
X193079264Y-109392118D01*
X193064703Y-109394278D01*
X193050000Y-109395000D01*
X191400000Y-109395000D01*
X191385297Y-109394278D01*
X191370736Y-109392118D01*
X191356457Y-109388541D01*
X191342597Y-109383582D01*
X191329290Y-109377288D01*
X191316664Y-109369720D01*
X191304841Y-109360952D01*
X191293934Y-109351066D01*
X191284048Y-109340159D01*
X191275280Y-109328336D01*
X191267712Y-109315710D01*
X191261418Y-109302403D01*
X191256459Y-109288543D01*
X191252882Y-109274264D01*
X191250722Y-109259703D01*
X191250000Y-109245000D01*
X191250000Y-108945000D01*
X191250722Y-108930297D01*
X191252882Y-108915736D01*
X191256459Y-108901457D01*
X191261418Y-108887597D01*
X191267712Y-108874290D01*
X191275280Y-108861664D01*
X191284048Y-108849841D01*
X191293934Y-108838934D01*
X191304841Y-108829048D01*
X191316664Y-108820280D01*
X191329290Y-108812712D01*
X191342597Y-108806418D01*
X191356457Y-108801459D01*
X191370736Y-108797882D01*
X191385297Y-108795722D01*
X191400000Y-108795000D01*
X193050000Y-108795000D01*
X193064703Y-108795722D01*
X193064703Y-108795722D01*
G37*
D12*
X192225000Y-109095000D03*
D11*
G36*
X193064703Y-110065722D02*
G01*
X193079264Y-110067882D01*
X193093543Y-110071459D01*
X193107403Y-110076418D01*
X193120710Y-110082712D01*
X193133336Y-110090280D01*
X193145159Y-110099048D01*
X193156066Y-110108934D01*
X193165952Y-110119841D01*
X193174720Y-110131664D01*
X193182288Y-110144290D01*
X193188582Y-110157597D01*
X193193541Y-110171457D01*
X193197118Y-110185736D01*
X193199278Y-110200297D01*
X193200000Y-110215000D01*
X193200000Y-110515000D01*
X193199278Y-110529703D01*
X193197118Y-110544264D01*
X193193541Y-110558543D01*
X193188582Y-110572403D01*
X193182288Y-110585710D01*
X193174720Y-110598336D01*
X193165952Y-110610159D01*
X193156066Y-110621066D01*
X193145159Y-110630952D01*
X193133336Y-110639720D01*
X193120710Y-110647288D01*
X193107403Y-110653582D01*
X193093543Y-110658541D01*
X193079264Y-110662118D01*
X193064703Y-110664278D01*
X193050000Y-110665000D01*
X191400000Y-110665000D01*
X191385297Y-110664278D01*
X191370736Y-110662118D01*
X191356457Y-110658541D01*
X191342597Y-110653582D01*
X191329290Y-110647288D01*
X191316664Y-110639720D01*
X191304841Y-110630952D01*
X191293934Y-110621066D01*
X191284048Y-110610159D01*
X191275280Y-110598336D01*
X191267712Y-110585710D01*
X191261418Y-110572403D01*
X191256459Y-110558543D01*
X191252882Y-110544264D01*
X191250722Y-110529703D01*
X191250000Y-110515000D01*
X191250000Y-110215000D01*
X191250722Y-110200297D01*
X191252882Y-110185736D01*
X191256459Y-110171457D01*
X191261418Y-110157597D01*
X191267712Y-110144290D01*
X191275280Y-110131664D01*
X191284048Y-110119841D01*
X191293934Y-110108934D01*
X191304841Y-110099048D01*
X191316664Y-110090280D01*
X191329290Y-110082712D01*
X191342597Y-110076418D01*
X191356457Y-110071459D01*
X191370736Y-110067882D01*
X191385297Y-110065722D01*
X191400000Y-110065000D01*
X193050000Y-110065000D01*
X193064703Y-110065722D01*
X193064703Y-110065722D01*
G37*
D12*
X192225000Y-110365000D03*
D11*
G36*
X193064703Y-111335722D02*
G01*
X193079264Y-111337882D01*
X193093543Y-111341459D01*
X193107403Y-111346418D01*
X193120710Y-111352712D01*
X193133336Y-111360280D01*
X193145159Y-111369048D01*
X193156066Y-111378934D01*
X193165952Y-111389841D01*
X193174720Y-111401664D01*
X193182288Y-111414290D01*
X193188582Y-111427597D01*
X193193541Y-111441457D01*
X193197118Y-111455736D01*
X193199278Y-111470297D01*
X193200000Y-111485000D01*
X193200000Y-111785000D01*
X193199278Y-111799703D01*
X193197118Y-111814264D01*
X193193541Y-111828543D01*
X193188582Y-111842403D01*
X193182288Y-111855710D01*
X193174720Y-111868336D01*
X193165952Y-111880159D01*
X193156066Y-111891066D01*
X193145159Y-111900952D01*
X193133336Y-111909720D01*
X193120710Y-111917288D01*
X193107403Y-111923582D01*
X193093543Y-111928541D01*
X193079264Y-111932118D01*
X193064703Y-111934278D01*
X193050000Y-111935000D01*
X191400000Y-111935000D01*
X191385297Y-111934278D01*
X191370736Y-111932118D01*
X191356457Y-111928541D01*
X191342597Y-111923582D01*
X191329290Y-111917288D01*
X191316664Y-111909720D01*
X191304841Y-111900952D01*
X191293934Y-111891066D01*
X191284048Y-111880159D01*
X191275280Y-111868336D01*
X191267712Y-111855710D01*
X191261418Y-111842403D01*
X191256459Y-111828543D01*
X191252882Y-111814264D01*
X191250722Y-111799703D01*
X191250000Y-111785000D01*
X191250000Y-111485000D01*
X191250722Y-111470297D01*
X191252882Y-111455736D01*
X191256459Y-111441457D01*
X191261418Y-111427597D01*
X191267712Y-111414290D01*
X191275280Y-111401664D01*
X191284048Y-111389841D01*
X191293934Y-111378934D01*
X191304841Y-111369048D01*
X191316664Y-111360280D01*
X191329290Y-111352712D01*
X191342597Y-111346418D01*
X191356457Y-111341459D01*
X191370736Y-111337882D01*
X191385297Y-111335722D01*
X191400000Y-111335000D01*
X193050000Y-111335000D01*
X193064703Y-111335722D01*
X193064703Y-111335722D01*
G37*
D12*
X192225000Y-111635000D03*
D11*
G36*
X193064703Y-112605722D02*
G01*
X193079264Y-112607882D01*
X193093543Y-112611459D01*
X193107403Y-112616418D01*
X193120710Y-112622712D01*
X193133336Y-112630280D01*
X193145159Y-112639048D01*
X193156066Y-112648934D01*
X193165952Y-112659841D01*
X193174720Y-112671664D01*
X193182288Y-112684290D01*
X193188582Y-112697597D01*
X193193541Y-112711457D01*
X193197118Y-112725736D01*
X193199278Y-112740297D01*
X193200000Y-112755000D01*
X193200000Y-113055000D01*
X193199278Y-113069703D01*
X193197118Y-113084264D01*
X193193541Y-113098543D01*
X193188582Y-113112403D01*
X193182288Y-113125710D01*
X193174720Y-113138336D01*
X193165952Y-113150159D01*
X193156066Y-113161066D01*
X193145159Y-113170952D01*
X193133336Y-113179720D01*
X193120710Y-113187288D01*
X193107403Y-113193582D01*
X193093543Y-113198541D01*
X193079264Y-113202118D01*
X193064703Y-113204278D01*
X193050000Y-113205000D01*
X191400000Y-113205000D01*
X191385297Y-113204278D01*
X191370736Y-113202118D01*
X191356457Y-113198541D01*
X191342597Y-113193582D01*
X191329290Y-113187288D01*
X191316664Y-113179720D01*
X191304841Y-113170952D01*
X191293934Y-113161066D01*
X191284048Y-113150159D01*
X191275280Y-113138336D01*
X191267712Y-113125710D01*
X191261418Y-113112403D01*
X191256459Y-113098543D01*
X191252882Y-113084264D01*
X191250722Y-113069703D01*
X191250000Y-113055000D01*
X191250000Y-112755000D01*
X191250722Y-112740297D01*
X191252882Y-112725736D01*
X191256459Y-112711457D01*
X191261418Y-112697597D01*
X191267712Y-112684290D01*
X191275280Y-112671664D01*
X191284048Y-112659841D01*
X191293934Y-112648934D01*
X191304841Y-112639048D01*
X191316664Y-112630280D01*
X191329290Y-112622712D01*
X191342597Y-112616418D01*
X191356457Y-112611459D01*
X191370736Y-112607882D01*
X191385297Y-112605722D01*
X191400000Y-112605000D01*
X193050000Y-112605000D01*
X193064703Y-112605722D01*
X193064703Y-112605722D01*
G37*
D12*
X192225000Y-112905000D03*
D11*
G36*
X188114703Y-112605722D02*
G01*
X188129264Y-112607882D01*
X188143543Y-112611459D01*
X188157403Y-112616418D01*
X188170710Y-112622712D01*
X188183336Y-112630280D01*
X188195159Y-112639048D01*
X188206066Y-112648934D01*
X188215952Y-112659841D01*
X188224720Y-112671664D01*
X188232288Y-112684290D01*
X188238582Y-112697597D01*
X188243541Y-112711457D01*
X188247118Y-112725736D01*
X188249278Y-112740297D01*
X188250000Y-112755000D01*
X188250000Y-113055000D01*
X188249278Y-113069703D01*
X188247118Y-113084264D01*
X188243541Y-113098543D01*
X188238582Y-113112403D01*
X188232288Y-113125710D01*
X188224720Y-113138336D01*
X188215952Y-113150159D01*
X188206066Y-113161066D01*
X188195159Y-113170952D01*
X188183336Y-113179720D01*
X188170710Y-113187288D01*
X188157403Y-113193582D01*
X188143543Y-113198541D01*
X188129264Y-113202118D01*
X188114703Y-113204278D01*
X188100000Y-113205000D01*
X186450000Y-113205000D01*
X186435297Y-113204278D01*
X186420736Y-113202118D01*
X186406457Y-113198541D01*
X186392597Y-113193582D01*
X186379290Y-113187288D01*
X186366664Y-113179720D01*
X186354841Y-113170952D01*
X186343934Y-113161066D01*
X186334048Y-113150159D01*
X186325280Y-113138336D01*
X186317712Y-113125710D01*
X186311418Y-113112403D01*
X186306459Y-113098543D01*
X186302882Y-113084264D01*
X186300722Y-113069703D01*
X186300000Y-113055000D01*
X186300000Y-112755000D01*
X186300722Y-112740297D01*
X186302882Y-112725736D01*
X186306459Y-112711457D01*
X186311418Y-112697597D01*
X186317712Y-112684290D01*
X186325280Y-112671664D01*
X186334048Y-112659841D01*
X186343934Y-112648934D01*
X186354841Y-112639048D01*
X186366664Y-112630280D01*
X186379290Y-112622712D01*
X186392597Y-112616418D01*
X186406457Y-112611459D01*
X186420736Y-112607882D01*
X186435297Y-112605722D01*
X186450000Y-112605000D01*
X188100000Y-112605000D01*
X188114703Y-112605722D01*
X188114703Y-112605722D01*
G37*
D12*
X187275000Y-112905000D03*
D11*
G36*
X188114703Y-111335722D02*
G01*
X188129264Y-111337882D01*
X188143543Y-111341459D01*
X188157403Y-111346418D01*
X188170710Y-111352712D01*
X188183336Y-111360280D01*
X188195159Y-111369048D01*
X188206066Y-111378934D01*
X188215952Y-111389841D01*
X188224720Y-111401664D01*
X188232288Y-111414290D01*
X188238582Y-111427597D01*
X188243541Y-111441457D01*
X188247118Y-111455736D01*
X188249278Y-111470297D01*
X188250000Y-111485000D01*
X188250000Y-111785000D01*
X188249278Y-111799703D01*
X188247118Y-111814264D01*
X188243541Y-111828543D01*
X188238582Y-111842403D01*
X188232288Y-111855710D01*
X188224720Y-111868336D01*
X188215952Y-111880159D01*
X188206066Y-111891066D01*
X188195159Y-111900952D01*
X188183336Y-111909720D01*
X188170710Y-111917288D01*
X188157403Y-111923582D01*
X188143543Y-111928541D01*
X188129264Y-111932118D01*
X188114703Y-111934278D01*
X188100000Y-111935000D01*
X186450000Y-111935000D01*
X186435297Y-111934278D01*
X186420736Y-111932118D01*
X186406457Y-111928541D01*
X186392597Y-111923582D01*
X186379290Y-111917288D01*
X186366664Y-111909720D01*
X186354841Y-111900952D01*
X186343934Y-111891066D01*
X186334048Y-111880159D01*
X186325280Y-111868336D01*
X186317712Y-111855710D01*
X186311418Y-111842403D01*
X186306459Y-111828543D01*
X186302882Y-111814264D01*
X186300722Y-111799703D01*
X186300000Y-111785000D01*
X186300000Y-111485000D01*
X186300722Y-111470297D01*
X186302882Y-111455736D01*
X186306459Y-111441457D01*
X186311418Y-111427597D01*
X186317712Y-111414290D01*
X186325280Y-111401664D01*
X186334048Y-111389841D01*
X186343934Y-111378934D01*
X186354841Y-111369048D01*
X186366664Y-111360280D01*
X186379290Y-111352712D01*
X186392597Y-111346418D01*
X186406457Y-111341459D01*
X186420736Y-111337882D01*
X186435297Y-111335722D01*
X186450000Y-111335000D01*
X188100000Y-111335000D01*
X188114703Y-111335722D01*
X188114703Y-111335722D01*
G37*
D12*
X187275000Y-111635000D03*
D11*
G36*
X188114703Y-110065722D02*
G01*
X188129264Y-110067882D01*
X188143543Y-110071459D01*
X188157403Y-110076418D01*
X188170710Y-110082712D01*
X188183336Y-110090280D01*
X188195159Y-110099048D01*
X188206066Y-110108934D01*
X188215952Y-110119841D01*
X188224720Y-110131664D01*
X188232288Y-110144290D01*
X188238582Y-110157597D01*
X188243541Y-110171457D01*
X188247118Y-110185736D01*
X188249278Y-110200297D01*
X188250000Y-110215000D01*
X188250000Y-110515000D01*
X188249278Y-110529703D01*
X188247118Y-110544264D01*
X188243541Y-110558543D01*
X188238582Y-110572403D01*
X188232288Y-110585710D01*
X188224720Y-110598336D01*
X188215952Y-110610159D01*
X188206066Y-110621066D01*
X188195159Y-110630952D01*
X188183336Y-110639720D01*
X188170710Y-110647288D01*
X188157403Y-110653582D01*
X188143543Y-110658541D01*
X188129264Y-110662118D01*
X188114703Y-110664278D01*
X188100000Y-110665000D01*
X186450000Y-110665000D01*
X186435297Y-110664278D01*
X186420736Y-110662118D01*
X186406457Y-110658541D01*
X186392597Y-110653582D01*
X186379290Y-110647288D01*
X186366664Y-110639720D01*
X186354841Y-110630952D01*
X186343934Y-110621066D01*
X186334048Y-110610159D01*
X186325280Y-110598336D01*
X186317712Y-110585710D01*
X186311418Y-110572403D01*
X186306459Y-110558543D01*
X186302882Y-110544264D01*
X186300722Y-110529703D01*
X186300000Y-110515000D01*
X186300000Y-110215000D01*
X186300722Y-110200297D01*
X186302882Y-110185736D01*
X186306459Y-110171457D01*
X186311418Y-110157597D01*
X186317712Y-110144290D01*
X186325280Y-110131664D01*
X186334048Y-110119841D01*
X186343934Y-110108934D01*
X186354841Y-110099048D01*
X186366664Y-110090280D01*
X186379290Y-110082712D01*
X186392597Y-110076418D01*
X186406457Y-110071459D01*
X186420736Y-110067882D01*
X186435297Y-110065722D01*
X186450000Y-110065000D01*
X188100000Y-110065000D01*
X188114703Y-110065722D01*
X188114703Y-110065722D01*
G37*
D12*
X187275000Y-110365000D03*
D11*
G36*
X188114703Y-108795722D02*
G01*
X188129264Y-108797882D01*
X188143543Y-108801459D01*
X188157403Y-108806418D01*
X188170710Y-108812712D01*
X188183336Y-108820280D01*
X188195159Y-108829048D01*
X188206066Y-108838934D01*
X188215952Y-108849841D01*
X188224720Y-108861664D01*
X188232288Y-108874290D01*
X188238582Y-108887597D01*
X188243541Y-108901457D01*
X188247118Y-108915736D01*
X188249278Y-108930297D01*
X188250000Y-108945000D01*
X188250000Y-109245000D01*
X188249278Y-109259703D01*
X188247118Y-109274264D01*
X188243541Y-109288543D01*
X188238582Y-109302403D01*
X188232288Y-109315710D01*
X188224720Y-109328336D01*
X188215952Y-109340159D01*
X188206066Y-109351066D01*
X188195159Y-109360952D01*
X188183336Y-109369720D01*
X188170710Y-109377288D01*
X188157403Y-109383582D01*
X188143543Y-109388541D01*
X188129264Y-109392118D01*
X188114703Y-109394278D01*
X188100000Y-109395000D01*
X186450000Y-109395000D01*
X186435297Y-109394278D01*
X186420736Y-109392118D01*
X186406457Y-109388541D01*
X186392597Y-109383582D01*
X186379290Y-109377288D01*
X186366664Y-109369720D01*
X186354841Y-109360952D01*
X186343934Y-109351066D01*
X186334048Y-109340159D01*
X186325280Y-109328336D01*
X186317712Y-109315710D01*
X186311418Y-109302403D01*
X186306459Y-109288543D01*
X186302882Y-109274264D01*
X186300722Y-109259703D01*
X186300000Y-109245000D01*
X186300000Y-108945000D01*
X186300722Y-108930297D01*
X186302882Y-108915736D01*
X186306459Y-108901457D01*
X186311418Y-108887597D01*
X186317712Y-108874290D01*
X186325280Y-108861664D01*
X186334048Y-108849841D01*
X186343934Y-108838934D01*
X186354841Y-108829048D01*
X186366664Y-108820280D01*
X186379290Y-108812712D01*
X186392597Y-108806418D01*
X186406457Y-108801459D01*
X186420736Y-108797882D01*
X186435297Y-108795722D01*
X186450000Y-108795000D01*
X188100000Y-108795000D01*
X188114703Y-108795722D01*
X188114703Y-108795722D01*
G37*
D12*
X187275000Y-109095000D03*
D11*
G36*
X190583524Y-111126156D02*
G01*
X190606822Y-111129612D01*
X190629668Y-111135334D01*
X190651844Y-111143269D01*
X190673135Y-111153339D01*
X190693337Y-111165447D01*
X190712254Y-111179477D01*
X190729706Y-111195294D01*
X190745523Y-111212746D01*
X190759553Y-111231663D01*
X190771661Y-111251865D01*
X190781731Y-111273156D01*
X190789666Y-111295332D01*
X190795388Y-111318178D01*
X190798844Y-111341476D01*
X190800000Y-111365000D01*
X190800000Y-112135000D01*
X190798844Y-112158524D01*
X190795388Y-112181822D01*
X190789666Y-112204668D01*
X190781731Y-112226844D01*
X190771661Y-112248135D01*
X190759553Y-112268337D01*
X190745523Y-112287254D01*
X190729706Y-112304706D01*
X190712254Y-112320523D01*
X190693337Y-112334553D01*
X190673135Y-112346661D01*
X190651844Y-112356731D01*
X190629668Y-112364666D01*
X190606822Y-112370388D01*
X190583524Y-112373844D01*
X190560000Y-112375000D01*
X190080000Y-112375000D01*
X190056476Y-112373844D01*
X190033178Y-112370388D01*
X190010332Y-112364666D01*
X189988156Y-112356731D01*
X189966865Y-112346661D01*
X189946663Y-112334553D01*
X189927746Y-112320523D01*
X189910294Y-112304706D01*
X189894477Y-112287254D01*
X189880447Y-112268337D01*
X189868339Y-112248135D01*
X189858269Y-112226844D01*
X189850334Y-112204668D01*
X189844612Y-112181822D01*
X189841156Y-112158524D01*
X189840000Y-112135000D01*
X189840000Y-111365000D01*
X189841156Y-111341476D01*
X189844612Y-111318178D01*
X189850334Y-111295332D01*
X189858269Y-111273156D01*
X189868339Y-111251865D01*
X189880447Y-111231663D01*
X189894477Y-111212746D01*
X189910294Y-111195294D01*
X189927746Y-111179477D01*
X189946663Y-111165447D01*
X189966865Y-111153339D01*
X189988156Y-111143269D01*
X190010332Y-111135334D01*
X190033178Y-111129612D01*
X190056476Y-111126156D01*
X190080000Y-111125000D01*
X190560000Y-111125000D01*
X190583524Y-111126156D01*
X190583524Y-111126156D01*
G37*
D13*
X190320000Y-111750000D03*
D11*
G36*
X190583524Y-109626156D02*
G01*
X190606822Y-109629612D01*
X190629668Y-109635334D01*
X190651844Y-109643269D01*
X190673135Y-109653339D01*
X190693337Y-109665447D01*
X190712254Y-109679477D01*
X190729706Y-109695294D01*
X190745523Y-109712746D01*
X190759553Y-109731663D01*
X190771661Y-109751865D01*
X190781731Y-109773156D01*
X190789666Y-109795332D01*
X190795388Y-109818178D01*
X190798844Y-109841476D01*
X190800000Y-109865000D01*
X190800000Y-110635000D01*
X190798844Y-110658524D01*
X190795388Y-110681822D01*
X190789666Y-110704668D01*
X190781731Y-110726844D01*
X190771661Y-110748135D01*
X190759553Y-110768337D01*
X190745523Y-110787254D01*
X190729706Y-110804706D01*
X190712254Y-110820523D01*
X190693337Y-110834553D01*
X190673135Y-110846661D01*
X190651844Y-110856731D01*
X190629668Y-110864666D01*
X190606822Y-110870388D01*
X190583524Y-110873844D01*
X190560000Y-110875000D01*
X190080000Y-110875000D01*
X190056476Y-110873844D01*
X190033178Y-110870388D01*
X190010332Y-110864666D01*
X189988156Y-110856731D01*
X189966865Y-110846661D01*
X189946663Y-110834553D01*
X189927746Y-110820523D01*
X189910294Y-110804706D01*
X189894477Y-110787254D01*
X189880447Y-110768337D01*
X189868339Y-110748135D01*
X189858269Y-110726844D01*
X189850334Y-110704668D01*
X189844612Y-110681822D01*
X189841156Y-110658524D01*
X189840000Y-110635000D01*
X189840000Y-109865000D01*
X189841156Y-109841476D01*
X189844612Y-109818178D01*
X189850334Y-109795332D01*
X189858269Y-109773156D01*
X189868339Y-109751865D01*
X189880447Y-109731663D01*
X189894477Y-109712746D01*
X189910294Y-109695294D01*
X189927746Y-109679477D01*
X189946663Y-109665447D01*
X189966865Y-109653339D01*
X189988156Y-109643269D01*
X190010332Y-109635334D01*
X190033178Y-109629612D01*
X190056476Y-109626156D01*
X190080000Y-109625000D01*
X190560000Y-109625000D01*
X190583524Y-109626156D01*
X190583524Y-109626156D01*
G37*
D13*
X190320000Y-110250000D03*
D11*
G36*
X189443524Y-111126156D02*
G01*
X189466822Y-111129612D01*
X189489668Y-111135334D01*
X189511844Y-111143269D01*
X189533135Y-111153339D01*
X189553337Y-111165447D01*
X189572254Y-111179477D01*
X189589706Y-111195294D01*
X189605523Y-111212746D01*
X189619553Y-111231663D01*
X189631661Y-111251865D01*
X189641731Y-111273156D01*
X189649666Y-111295332D01*
X189655388Y-111318178D01*
X189658844Y-111341476D01*
X189660000Y-111365000D01*
X189660000Y-112135000D01*
X189658844Y-112158524D01*
X189655388Y-112181822D01*
X189649666Y-112204668D01*
X189641731Y-112226844D01*
X189631661Y-112248135D01*
X189619553Y-112268337D01*
X189605523Y-112287254D01*
X189589706Y-112304706D01*
X189572254Y-112320523D01*
X189553337Y-112334553D01*
X189533135Y-112346661D01*
X189511844Y-112356731D01*
X189489668Y-112364666D01*
X189466822Y-112370388D01*
X189443524Y-112373844D01*
X189420000Y-112375000D01*
X188940000Y-112375000D01*
X188916476Y-112373844D01*
X188893178Y-112370388D01*
X188870332Y-112364666D01*
X188848156Y-112356731D01*
X188826865Y-112346661D01*
X188806663Y-112334553D01*
X188787746Y-112320523D01*
X188770294Y-112304706D01*
X188754477Y-112287254D01*
X188740447Y-112268337D01*
X188728339Y-112248135D01*
X188718269Y-112226844D01*
X188710334Y-112204668D01*
X188704612Y-112181822D01*
X188701156Y-112158524D01*
X188700000Y-112135000D01*
X188700000Y-111365000D01*
X188701156Y-111341476D01*
X188704612Y-111318178D01*
X188710334Y-111295332D01*
X188718269Y-111273156D01*
X188728339Y-111251865D01*
X188740447Y-111231663D01*
X188754477Y-111212746D01*
X188770294Y-111195294D01*
X188787746Y-111179477D01*
X188806663Y-111165447D01*
X188826865Y-111153339D01*
X188848156Y-111143269D01*
X188870332Y-111135334D01*
X188893178Y-111129612D01*
X188916476Y-111126156D01*
X188940000Y-111125000D01*
X189420000Y-111125000D01*
X189443524Y-111126156D01*
X189443524Y-111126156D01*
G37*
D13*
X189180000Y-111750000D03*
D11*
G36*
X189443524Y-109626156D02*
G01*
X189466822Y-109629612D01*
X189489668Y-109635334D01*
X189511844Y-109643269D01*
X189533135Y-109653339D01*
X189553337Y-109665447D01*
X189572254Y-109679477D01*
X189589706Y-109695294D01*
X189605523Y-109712746D01*
X189619553Y-109731663D01*
X189631661Y-109751865D01*
X189641731Y-109773156D01*
X189649666Y-109795332D01*
X189655388Y-109818178D01*
X189658844Y-109841476D01*
X189660000Y-109865000D01*
X189660000Y-110635000D01*
X189658844Y-110658524D01*
X189655388Y-110681822D01*
X189649666Y-110704668D01*
X189641731Y-110726844D01*
X189631661Y-110748135D01*
X189619553Y-110768337D01*
X189605523Y-110787254D01*
X189589706Y-110804706D01*
X189572254Y-110820523D01*
X189553337Y-110834553D01*
X189533135Y-110846661D01*
X189511844Y-110856731D01*
X189489668Y-110864666D01*
X189466822Y-110870388D01*
X189443524Y-110873844D01*
X189420000Y-110875000D01*
X188940000Y-110875000D01*
X188916476Y-110873844D01*
X188893178Y-110870388D01*
X188870332Y-110864666D01*
X188848156Y-110856731D01*
X188826865Y-110846661D01*
X188806663Y-110834553D01*
X188787746Y-110820523D01*
X188770294Y-110804706D01*
X188754477Y-110787254D01*
X188740447Y-110768337D01*
X188728339Y-110748135D01*
X188718269Y-110726844D01*
X188710334Y-110704668D01*
X188704612Y-110681822D01*
X188701156Y-110658524D01*
X188700000Y-110635000D01*
X188700000Y-109865000D01*
X188701156Y-109841476D01*
X188704612Y-109818178D01*
X188710334Y-109795332D01*
X188718269Y-109773156D01*
X188728339Y-109751865D01*
X188740447Y-109731663D01*
X188754477Y-109712746D01*
X188770294Y-109695294D01*
X188787746Y-109679477D01*
X188806663Y-109665447D01*
X188826865Y-109653339D01*
X188848156Y-109643269D01*
X188870332Y-109635334D01*
X188893178Y-109629612D01*
X188916476Y-109626156D01*
X188940000Y-109625000D01*
X189420000Y-109625000D01*
X189443524Y-109626156D01*
X189443524Y-109626156D01*
G37*
D13*
X189180000Y-110250000D03*
D11*
G36*
X176277691Y-106376053D02*
G01*
X176298926Y-106379203D01*
X176319750Y-106384419D01*
X176339962Y-106391651D01*
X176359368Y-106400830D01*
X176377781Y-106411866D01*
X176395024Y-106424654D01*
X176410930Y-106439070D01*
X176425346Y-106454976D01*
X176438134Y-106472219D01*
X176449170Y-106490632D01*
X176458349Y-106510038D01*
X176465581Y-106530250D01*
X176470797Y-106551074D01*
X176473947Y-106572309D01*
X176475000Y-106593750D01*
X176475000Y-107031250D01*
X176473947Y-107052691D01*
X176470797Y-107073926D01*
X176465581Y-107094750D01*
X176458349Y-107114962D01*
X176449170Y-107134368D01*
X176438134Y-107152781D01*
X176425346Y-107170024D01*
X176410930Y-107185930D01*
X176395024Y-107200346D01*
X176377781Y-107213134D01*
X176359368Y-107224170D01*
X176339962Y-107233349D01*
X176319750Y-107240581D01*
X176298926Y-107245797D01*
X176277691Y-107248947D01*
X176256250Y-107250000D01*
X175743750Y-107250000D01*
X175722309Y-107248947D01*
X175701074Y-107245797D01*
X175680250Y-107240581D01*
X175660038Y-107233349D01*
X175640632Y-107224170D01*
X175622219Y-107213134D01*
X175604976Y-107200346D01*
X175589070Y-107185930D01*
X175574654Y-107170024D01*
X175561866Y-107152781D01*
X175550830Y-107134368D01*
X175541651Y-107114962D01*
X175534419Y-107094750D01*
X175529203Y-107073926D01*
X175526053Y-107052691D01*
X175525000Y-107031250D01*
X175525000Y-106593750D01*
X175526053Y-106572309D01*
X175529203Y-106551074D01*
X175534419Y-106530250D01*
X175541651Y-106510038D01*
X175550830Y-106490632D01*
X175561866Y-106472219D01*
X175574654Y-106454976D01*
X175589070Y-106439070D01*
X175604976Y-106424654D01*
X175622219Y-106411866D01*
X175640632Y-106400830D01*
X175660038Y-106391651D01*
X175680250Y-106384419D01*
X175701074Y-106379203D01*
X175722309Y-106376053D01*
X175743750Y-106375000D01*
X176256250Y-106375000D01*
X176277691Y-106376053D01*
X176277691Y-106376053D01*
G37*
D14*
X176000000Y-106812500D03*
D11*
G36*
X176277691Y-107951053D02*
G01*
X176298926Y-107954203D01*
X176319750Y-107959419D01*
X176339962Y-107966651D01*
X176359368Y-107975830D01*
X176377781Y-107986866D01*
X176395024Y-107999654D01*
X176410930Y-108014070D01*
X176425346Y-108029976D01*
X176438134Y-108047219D01*
X176449170Y-108065632D01*
X176458349Y-108085038D01*
X176465581Y-108105250D01*
X176470797Y-108126074D01*
X176473947Y-108147309D01*
X176475000Y-108168750D01*
X176475000Y-108606250D01*
X176473947Y-108627691D01*
X176470797Y-108648926D01*
X176465581Y-108669750D01*
X176458349Y-108689962D01*
X176449170Y-108709368D01*
X176438134Y-108727781D01*
X176425346Y-108745024D01*
X176410930Y-108760930D01*
X176395024Y-108775346D01*
X176377781Y-108788134D01*
X176359368Y-108799170D01*
X176339962Y-108808349D01*
X176319750Y-108815581D01*
X176298926Y-108820797D01*
X176277691Y-108823947D01*
X176256250Y-108825000D01*
X175743750Y-108825000D01*
X175722309Y-108823947D01*
X175701074Y-108820797D01*
X175680250Y-108815581D01*
X175660038Y-108808349D01*
X175640632Y-108799170D01*
X175622219Y-108788134D01*
X175604976Y-108775346D01*
X175589070Y-108760930D01*
X175574654Y-108745024D01*
X175561866Y-108727781D01*
X175550830Y-108709368D01*
X175541651Y-108689962D01*
X175534419Y-108669750D01*
X175529203Y-108648926D01*
X175526053Y-108627691D01*
X175525000Y-108606250D01*
X175525000Y-108168750D01*
X175526053Y-108147309D01*
X175529203Y-108126074D01*
X175534419Y-108105250D01*
X175541651Y-108085038D01*
X175550830Y-108065632D01*
X175561866Y-108047219D01*
X175574654Y-108029976D01*
X175589070Y-108014070D01*
X175604976Y-107999654D01*
X175622219Y-107986866D01*
X175640632Y-107975830D01*
X175660038Y-107966651D01*
X175680250Y-107959419D01*
X175701074Y-107954203D01*
X175722309Y-107951053D01*
X175743750Y-107950000D01*
X176256250Y-107950000D01*
X176277691Y-107951053D01*
X176277691Y-107951053D01*
G37*
D14*
X176000000Y-108387500D03*
D15*
X173950000Y-109950000D03*
X172050000Y-109950000D03*
X173000000Y-112050000D03*
D16*
X173550000Y-107250000D03*
X169550000Y-107250000D03*
D17*
X176150000Y-110050000D03*
X176150000Y-111000000D03*
X176150000Y-111950000D03*
X178850000Y-111950000D03*
X178850000Y-110050000D03*
D11*
G36*
X181027691Y-111526053D02*
G01*
X181048926Y-111529203D01*
X181069750Y-111534419D01*
X181089962Y-111541651D01*
X181109368Y-111550830D01*
X181127781Y-111561866D01*
X181145024Y-111574654D01*
X181160930Y-111589070D01*
X181175346Y-111604976D01*
X181188134Y-111622219D01*
X181199170Y-111640632D01*
X181208349Y-111660038D01*
X181215581Y-111680250D01*
X181220797Y-111701074D01*
X181223947Y-111722309D01*
X181225000Y-111743750D01*
X181225000Y-112181250D01*
X181223947Y-112202691D01*
X181220797Y-112223926D01*
X181215581Y-112244750D01*
X181208349Y-112264962D01*
X181199170Y-112284368D01*
X181188134Y-112302781D01*
X181175346Y-112320024D01*
X181160930Y-112335930D01*
X181145024Y-112350346D01*
X181127781Y-112363134D01*
X181109368Y-112374170D01*
X181089962Y-112383349D01*
X181069750Y-112390581D01*
X181048926Y-112395797D01*
X181027691Y-112398947D01*
X181006250Y-112400000D01*
X180493750Y-112400000D01*
X180472309Y-112398947D01*
X180451074Y-112395797D01*
X180430250Y-112390581D01*
X180410038Y-112383349D01*
X180390632Y-112374170D01*
X180372219Y-112363134D01*
X180354976Y-112350346D01*
X180339070Y-112335930D01*
X180324654Y-112320024D01*
X180311866Y-112302781D01*
X180300830Y-112284368D01*
X180291651Y-112264962D01*
X180284419Y-112244750D01*
X180279203Y-112223926D01*
X180276053Y-112202691D01*
X180275000Y-112181250D01*
X180275000Y-111743750D01*
X180276053Y-111722309D01*
X180279203Y-111701074D01*
X180284419Y-111680250D01*
X180291651Y-111660038D01*
X180300830Y-111640632D01*
X180311866Y-111622219D01*
X180324654Y-111604976D01*
X180339070Y-111589070D01*
X180354976Y-111574654D01*
X180372219Y-111561866D01*
X180390632Y-111550830D01*
X180410038Y-111541651D01*
X180430250Y-111534419D01*
X180451074Y-111529203D01*
X180472309Y-111526053D01*
X180493750Y-111525000D01*
X181006250Y-111525000D01*
X181027691Y-111526053D01*
X181027691Y-111526053D01*
G37*
D14*
X180750000Y-111962500D03*
D11*
G36*
X181027691Y-113101053D02*
G01*
X181048926Y-113104203D01*
X181069750Y-113109419D01*
X181089962Y-113116651D01*
X181109368Y-113125830D01*
X181127781Y-113136866D01*
X181145024Y-113149654D01*
X181160930Y-113164070D01*
X181175346Y-113179976D01*
X181188134Y-113197219D01*
X181199170Y-113215632D01*
X181208349Y-113235038D01*
X181215581Y-113255250D01*
X181220797Y-113276074D01*
X181223947Y-113297309D01*
X181225000Y-113318750D01*
X181225000Y-113756250D01*
X181223947Y-113777691D01*
X181220797Y-113798926D01*
X181215581Y-113819750D01*
X181208349Y-113839962D01*
X181199170Y-113859368D01*
X181188134Y-113877781D01*
X181175346Y-113895024D01*
X181160930Y-113910930D01*
X181145024Y-113925346D01*
X181127781Y-113938134D01*
X181109368Y-113949170D01*
X181089962Y-113958349D01*
X181069750Y-113965581D01*
X181048926Y-113970797D01*
X181027691Y-113973947D01*
X181006250Y-113975000D01*
X180493750Y-113975000D01*
X180472309Y-113973947D01*
X180451074Y-113970797D01*
X180430250Y-113965581D01*
X180410038Y-113958349D01*
X180390632Y-113949170D01*
X180372219Y-113938134D01*
X180354976Y-113925346D01*
X180339070Y-113910930D01*
X180324654Y-113895024D01*
X180311866Y-113877781D01*
X180300830Y-113859368D01*
X180291651Y-113839962D01*
X180284419Y-113819750D01*
X180279203Y-113798926D01*
X180276053Y-113777691D01*
X180275000Y-113756250D01*
X180275000Y-113318750D01*
X180276053Y-113297309D01*
X180279203Y-113276074D01*
X180284419Y-113255250D01*
X180291651Y-113235038D01*
X180300830Y-113215632D01*
X180311866Y-113197219D01*
X180324654Y-113179976D01*
X180339070Y-113164070D01*
X180354976Y-113149654D01*
X180372219Y-113136866D01*
X180390632Y-113125830D01*
X180410038Y-113116651D01*
X180430250Y-113109419D01*
X180451074Y-113104203D01*
X180472309Y-113101053D01*
X180493750Y-113100000D01*
X181006250Y-113100000D01*
X181027691Y-113101053D01*
X181027691Y-113101053D01*
G37*
D14*
X180750000Y-113537500D03*
D11*
G36*
X196248017Y-86504815D02*
G01*
X196345090Y-86519215D01*
X196440285Y-86543060D01*
X196532683Y-86576120D01*
X196621397Y-86618079D01*
X196705570Y-86668530D01*
X196784393Y-86726990D01*
X196857107Y-86792893D01*
X196923010Y-86865607D01*
X196981470Y-86944430D01*
X197031921Y-87028603D01*
X197073880Y-87117317D01*
X197106940Y-87209715D01*
X197130785Y-87304910D01*
X197145185Y-87401983D01*
X197150000Y-87500000D01*
X197150000Y-89500000D01*
X197145185Y-89598017D01*
X197130785Y-89695090D01*
X197106940Y-89790285D01*
X197073880Y-89882683D01*
X197031921Y-89971397D01*
X196981470Y-90055570D01*
X196923010Y-90134393D01*
X196857107Y-90207107D01*
X196784393Y-90273010D01*
X196705570Y-90331470D01*
X196621397Y-90381921D01*
X196532683Y-90423880D01*
X196440285Y-90456940D01*
X196345090Y-90480785D01*
X196248017Y-90495185D01*
X196150000Y-90500000D01*
X194150000Y-90500000D01*
X194051983Y-90495185D01*
X193954910Y-90480785D01*
X193859715Y-90456940D01*
X193767317Y-90423880D01*
X193678603Y-90381921D01*
X193594430Y-90331470D01*
X193515607Y-90273010D01*
X193442893Y-90207107D01*
X193376990Y-90134393D01*
X193318530Y-90055570D01*
X193268079Y-89971397D01*
X193226120Y-89882683D01*
X193193060Y-89790285D01*
X193169215Y-89695090D01*
X193154815Y-89598017D01*
X193150000Y-89500000D01*
X193150000Y-87500000D01*
X193154815Y-87401983D01*
X193169215Y-87304910D01*
X193193060Y-87209715D01*
X193226120Y-87117317D01*
X193268079Y-87028603D01*
X193318530Y-86944430D01*
X193376990Y-86865607D01*
X193442893Y-86792893D01*
X193515607Y-86726990D01*
X193594430Y-86668530D01*
X193678603Y-86618079D01*
X193767317Y-86576120D01*
X193859715Y-86543060D01*
X193954910Y-86519215D01*
X194051983Y-86504815D01*
X194150000Y-86500000D01*
X196150000Y-86500000D01*
X196248017Y-86504815D01*
X196248017Y-86504815D01*
G37*
D18*
X195150000Y-88500000D03*
D11*
G36*
X196248017Y-91504815D02*
G01*
X196345090Y-91519215D01*
X196440285Y-91543060D01*
X196532683Y-91576120D01*
X196621397Y-91618079D01*
X196705570Y-91668530D01*
X196784393Y-91726990D01*
X196857107Y-91792893D01*
X196923010Y-91865607D01*
X196981470Y-91944430D01*
X197031921Y-92028603D01*
X197073880Y-92117317D01*
X197106940Y-92209715D01*
X197130785Y-92304910D01*
X197145185Y-92401983D01*
X197150000Y-92500000D01*
X197150000Y-94500000D01*
X197145185Y-94598017D01*
X197130785Y-94695090D01*
X197106940Y-94790285D01*
X197073880Y-94882683D01*
X197031921Y-94971397D01*
X196981470Y-95055570D01*
X196923010Y-95134393D01*
X196857107Y-95207107D01*
X196784393Y-95273010D01*
X196705570Y-95331470D01*
X196621397Y-95381921D01*
X196532683Y-95423880D01*
X196440285Y-95456940D01*
X196345090Y-95480785D01*
X196248017Y-95495185D01*
X196150000Y-95500000D01*
X194150000Y-95500000D01*
X194051983Y-95495185D01*
X193954910Y-95480785D01*
X193859715Y-95456940D01*
X193767317Y-95423880D01*
X193678603Y-95381921D01*
X193594430Y-95331470D01*
X193515607Y-95273010D01*
X193442893Y-95207107D01*
X193376990Y-95134393D01*
X193318530Y-95055570D01*
X193268079Y-94971397D01*
X193226120Y-94882683D01*
X193193060Y-94790285D01*
X193169215Y-94695090D01*
X193154815Y-94598017D01*
X193150000Y-94500000D01*
X193150000Y-92500000D01*
X193154815Y-92401983D01*
X193169215Y-92304910D01*
X193193060Y-92209715D01*
X193226120Y-92117317D01*
X193268079Y-92028603D01*
X193318530Y-91944430D01*
X193376990Y-91865607D01*
X193442893Y-91792893D01*
X193515607Y-91726990D01*
X193594430Y-91668530D01*
X193678603Y-91618079D01*
X193767317Y-91576120D01*
X193859715Y-91543060D01*
X193954910Y-91519215D01*
X194051983Y-91504815D01*
X194150000Y-91500000D01*
X196150000Y-91500000D01*
X196248017Y-91504815D01*
X196248017Y-91504815D01*
G37*
D18*
X195150000Y-93500000D03*
D11*
G36*
X196248017Y-96504815D02*
G01*
X196345090Y-96519215D01*
X196440285Y-96543060D01*
X196532683Y-96576120D01*
X196621397Y-96618079D01*
X196705570Y-96668530D01*
X196784393Y-96726990D01*
X196857107Y-96792893D01*
X196923010Y-96865607D01*
X196981470Y-96944430D01*
X197031921Y-97028603D01*
X197073880Y-97117317D01*
X197106940Y-97209715D01*
X197130785Y-97304910D01*
X197145185Y-97401983D01*
X197150000Y-97500000D01*
X197150000Y-99500000D01*
X197145185Y-99598017D01*
X197130785Y-99695090D01*
X197106940Y-99790285D01*
X197073880Y-99882683D01*
X197031921Y-99971397D01*
X196981470Y-100055570D01*
X196923010Y-100134393D01*
X196857107Y-100207107D01*
X196784393Y-100273010D01*
X196705570Y-100331470D01*
X196621397Y-100381921D01*
X196532683Y-100423880D01*
X196440285Y-100456940D01*
X196345090Y-100480785D01*
X196248017Y-100495185D01*
X196150000Y-100500000D01*
X194150000Y-100500000D01*
X194051983Y-100495185D01*
X193954910Y-100480785D01*
X193859715Y-100456940D01*
X193767317Y-100423880D01*
X193678603Y-100381921D01*
X193594430Y-100331470D01*
X193515607Y-100273010D01*
X193442893Y-100207107D01*
X193376990Y-100134393D01*
X193318530Y-100055570D01*
X193268079Y-99971397D01*
X193226120Y-99882683D01*
X193193060Y-99790285D01*
X193169215Y-99695090D01*
X193154815Y-99598017D01*
X193150000Y-99500000D01*
X193150000Y-97500000D01*
X193154815Y-97401983D01*
X193169215Y-97304910D01*
X193193060Y-97209715D01*
X193226120Y-97117317D01*
X193268079Y-97028603D01*
X193318530Y-96944430D01*
X193376990Y-96865607D01*
X193442893Y-96792893D01*
X193515607Y-96726990D01*
X193594430Y-96668530D01*
X193678603Y-96618079D01*
X193767317Y-96576120D01*
X193859715Y-96543060D01*
X193954910Y-96519215D01*
X194051983Y-96504815D01*
X194150000Y-96500000D01*
X196150000Y-96500000D01*
X196248017Y-96504815D01*
X196248017Y-96504815D01*
G37*
D18*
X195150000Y-98500000D03*
D11*
G36*
X165598017Y-93504815D02*
G01*
X165695090Y-93519215D01*
X165790285Y-93543060D01*
X165882683Y-93576120D01*
X165971397Y-93618079D01*
X166055570Y-93668530D01*
X166134393Y-93726990D01*
X166207107Y-93792893D01*
X166273010Y-93865607D01*
X166331470Y-93944430D01*
X166381921Y-94028603D01*
X166423880Y-94117317D01*
X166456940Y-94209715D01*
X166480785Y-94304910D01*
X166495185Y-94401983D01*
X166500000Y-94500000D01*
X166500000Y-96500000D01*
X166495185Y-96598017D01*
X166480785Y-96695090D01*
X166456940Y-96790285D01*
X166423880Y-96882683D01*
X166381921Y-96971397D01*
X166331470Y-97055570D01*
X166273010Y-97134393D01*
X166207107Y-97207107D01*
X166134393Y-97273010D01*
X166055570Y-97331470D01*
X165971397Y-97381921D01*
X165882683Y-97423880D01*
X165790285Y-97456940D01*
X165695090Y-97480785D01*
X165598017Y-97495185D01*
X165500000Y-97500000D01*
X163500000Y-97500000D01*
X163401983Y-97495185D01*
X163304910Y-97480785D01*
X163209715Y-97456940D01*
X163117317Y-97423880D01*
X163028603Y-97381921D01*
X162944430Y-97331470D01*
X162865607Y-97273010D01*
X162792893Y-97207107D01*
X162726990Y-97134393D01*
X162668530Y-97055570D01*
X162618079Y-96971397D01*
X162576120Y-96882683D01*
X162543060Y-96790285D01*
X162519215Y-96695090D01*
X162504815Y-96598017D01*
X162500000Y-96500000D01*
X162500000Y-94500000D01*
X162504815Y-94401983D01*
X162519215Y-94304910D01*
X162543060Y-94209715D01*
X162576120Y-94117317D01*
X162618079Y-94028603D01*
X162668530Y-93944430D01*
X162726990Y-93865607D01*
X162792893Y-93792893D01*
X162865607Y-93726990D01*
X162944430Y-93668530D01*
X163028603Y-93618079D01*
X163117317Y-93576120D01*
X163209715Y-93543060D01*
X163304910Y-93519215D01*
X163401983Y-93504815D01*
X163500000Y-93500000D01*
X165500000Y-93500000D01*
X165598017Y-93504815D01*
X165598017Y-93504815D01*
G37*
D18*
X164500000Y-95500000D03*
D11*
G36*
X165598017Y-98504815D02*
G01*
X165695090Y-98519215D01*
X165790285Y-98543060D01*
X165882683Y-98576120D01*
X165971397Y-98618079D01*
X166055570Y-98668530D01*
X166134393Y-98726990D01*
X166207107Y-98792893D01*
X166273010Y-98865607D01*
X166331470Y-98944430D01*
X166381921Y-99028603D01*
X166423880Y-99117317D01*
X166456940Y-99209715D01*
X166480785Y-99304910D01*
X166495185Y-99401983D01*
X166500000Y-99500000D01*
X166500000Y-101500000D01*
X166495185Y-101598017D01*
X166480785Y-101695090D01*
X166456940Y-101790285D01*
X166423880Y-101882683D01*
X166381921Y-101971397D01*
X166331470Y-102055570D01*
X166273010Y-102134393D01*
X166207107Y-102207107D01*
X166134393Y-102273010D01*
X166055570Y-102331470D01*
X165971397Y-102381921D01*
X165882683Y-102423880D01*
X165790285Y-102456940D01*
X165695090Y-102480785D01*
X165598017Y-102495185D01*
X165500000Y-102500000D01*
X163500000Y-102500000D01*
X163401983Y-102495185D01*
X163304910Y-102480785D01*
X163209715Y-102456940D01*
X163117317Y-102423880D01*
X163028603Y-102381921D01*
X162944430Y-102331470D01*
X162865607Y-102273010D01*
X162792893Y-102207107D01*
X162726990Y-102134393D01*
X162668530Y-102055570D01*
X162618079Y-101971397D01*
X162576120Y-101882683D01*
X162543060Y-101790285D01*
X162519215Y-101695090D01*
X162504815Y-101598017D01*
X162500000Y-101500000D01*
X162500000Y-99500000D01*
X162504815Y-99401983D01*
X162519215Y-99304910D01*
X162543060Y-99209715D01*
X162576120Y-99117317D01*
X162618079Y-99028603D01*
X162668530Y-98944430D01*
X162726990Y-98865607D01*
X162792893Y-98792893D01*
X162865607Y-98726990D01*
X162944430Y-98668530D01*
X163028603Y-98618079D01*
X163117317Y-98576120D01*
X163209715Y-98543060D01*
X163304910Y-98519215D01*
X163401983Y-98504815D01*
X163500000Y-98500000D01*
X165500000Y-98500000D01*
X165598017Y-98504815D01*
X165598017Y-98504815D01*
G37*
D18*
X164500000Y-100500000D03*
D11*
G36*
X165598017Y-103504815D02*
G01*
X165695090Y-103519215D01*
X165790285Y-103543060D01*
X165882683Y-103576120D01*
X165971397Y-103618079D01*
X166055570Y-103668530D01*
X166134393Y-103726990D01*
X166207107Y-103792893D01*
X166273010Y-103865607D01*
X166331470Y-103944430D01*
X166381921Y-104028603D01*
X166423880Y-104117317D01*
X166456940Y-104209715D01*
X166480785Y-104304910D01*
X166495185Y-104401983D01*
X166500000Y-104500000D01*
X166500000Y-106500000D01*
X166495185Y-106598017D01*
X166480785Y-106695090D01*
X166456940Y-106790285D01*
X166423880Y-106882683D01*
X166381921Y-106971397D01*
X166331470Y-107055570D01*
X166273010Y-107134393D01*
X166207107Y-107207107D01*
X166134393Y-107273010D01*
X166055570Y-107331470D01*
X165971397Y-107381921D01*
X165882683Y-107423880D01*
X165790285Y-107456940D01*
X165695090Y-107480785D01*
X165598017Y-107495185D01*
X165500000Y-107500000D01*
X163500000Y-107500000D01*
X163401983Y-107495185D01*
X163304910Y-107480785D01*
X163209715Y-107456940D01*
X163117317Y-107423880D01*
X163028603Y-107381921D01*
X162944430Y-107331470D01*
X162865607Y-107273010D01*
X162792893Y-107207107D01*
X162726990Y-107134393D01*
X162668530Y-107055570D01*
X162618079Y-106971397D01*
X162576120Y-106882683D01*
X162543060Y-106790285D01*
X162519215Y-106695090D01*
X162504815Y-106598017D01*
X162500000Y-106500000D01*
X162500000Y-104500000D01*
X162504815Y-104401983D01*
X162519215Y-104304910D01*
X162543060Y-104209715D01*
X162576120Y-104117317D01*
X162618079Y-104028603D01*
X162668530Y-103944430D01*
X162726990Y-103865607D01*
X162792893Y-103792893D01*
X162865607Y-103726990D01*
X162944430Y-103668530D01*
X163028603Y-103618079D01*
X163117317Y-103576120D01*
X163209715Y-103543060D01*
X163304910Y-103519215D01*
X163401983Y-103504815D01*
X163500000Y-103500000D01*
X165500000Y-103500000D01*
X165598017Y-103504815D01*
X165598017Y-103504815D01*
G37*
D18*
X164500000Y-105500000D03*
D11*
G36*
X182777691Y-111526053D02*
G01*
X182798926Y-111529203D01*
X182819750Y-111534419D01*
X182839962Y-111541651D01*
X182859368Y-111550830D01*
X182877781Y-111561866D01*
X182895024Y-111574654D01*
X182910930Y-111589070D01*
X182925346Y-111604976D01*
X182938134Y-111622219D01*
X182949170Y-111640632D01*
X182958349Y-111660038D01*
X182965581Y-111680250D01*
X182970797Y-111701074D01*
X182973947Y-111722309D01*
X182975000Y-111743750D01*
X182975000Y-112181250D01*
X182973947Y-112202691D01*
X182970797Y-112223926D01*
X182965581Y-112244750D01*
X182958349Y-112264962D01*
X182949170Y-112284368D01*
X182938134Y-112302781D01*
X182925346Y-112320024D01*
X182910930Y-112335930D01*
X182895024Y-112350346D01*
X182877781Y-112363134D01*
X182859368Y-112374170D01*
X182839962Y-112383349D01*
X182819750Y-112390581D01*
X182798926Y-112395797D01*
X182777691Y-112398947D01*
X182756250Y-112400000D01*
X182243750Y-112400000D01*
X182222309Y-112398947D01*
X182201074Y-112395797D01*
X182180250Y-112390581D01*
X182160038Y-112383349D01*
X182140632Y-112374170D01*
X182122219Y-112363134D01*
X182104976Y-112350346D01*
X182089070Y-112335930D01*
X182074654Y-112320024D01*
X182061866Y-112302781D01*
X182050830Y-112284368D01*
X182041651Y-112264962D01*
X182034419Y-112244750D01*
X182029203Y-112223926D01*
X182026053Y-112202691D01*
X182025000Y-112181250D01*
X182025000Y-111743750D01*
X182026053Y-111722309D01*
X182029203Y-111701074D01*
X182034419Y-111680250D01*
X182041651Y-111660038D01*
X182050830Y-111640632D01*
X182061866Y-111622219D01*
X182074654Y-111604976D01*
X182089070Y-111589070D01*
X182104976Y-111574654D01*
X182122219Y-111561866D01*
X182140632Y-111550830D01*
X182160038Y-111541651D01*
X182180250Y-111534419D01*
X182201074Y-111529203D01*
X182222309Y-111526053D01*
X182243750Y-111525000D01*
X182756250Y-111525000D01*
X182777691Y-111526053D01*
X182777691Y-111526053D01*
G37*
D14*
X182500000Y-111962500D03*
D11*
G36*
X182777691Y-113101053D02*
G01*
X182798926Y-113104203D01*
X182819750Y-113109419D01*
X182839962Y-113116651D01*
X182859368Y-113125830D01*
X182877781Y-113136866D01*
X182895024Y-113149654D01*
X182910930Y-113164070D01*
X182925346Y-113179976D01*
X182938134Y-113197219D01*
X182949170Y-113215632D01*
X182958349Y-113235038D01*
X182965581Y-113255250D01*
X182970797Y-113276074D01*
X182973947Y-113297309D01*
X182975000Y-113318750D01*
X182975000Y-113756250D01*
X182973947Y-113777691D01*
X182970797Y-113798926D01*
X182965581Y-113819750D01*
X182958349Y-113839962D01*
X182949170Y-113859368D01*
X182938134Y-113877781D01*
X182925346Y-113895024D01*
X182910930Y-113910930D01*
X182895024Y-113925346D01*
X182877781Y-113938134D01*
X182859368Y-113949170D01*
X182839962Y-113958349D01*
X182819750Y-113965581D01*
X182798926Y-113970797D01*
X182777691Y-113973947D01*
X182756250Y-113975000D01*
X182243750Y-113975000D01*
X182222309Y-113973947D01*
X182201074Y-113970797D01*
X182180250Y-113965581D01*
X182160038Y-113958349D01*
X182140632Y-113949170D01*
X182122219Y-113938134D01*
X182104976Y-113925346D01*
X182089070Y-113910930D01*
X182074654Y-113895024D01*
X182061866Y-113877781D01*
X182050830Y-113859368D01*
X182041651Y-113839962D01*
X182034419Y-113819750D01*
X182029203Y-113798926D01*
X182026053Y-113777691D01*
X182025000Y-113756250D01*
X182025000Y-113318750D01*
X182026053Y-113297309D01*
X182029203Y-113276074D01*
X182034419Y-113255250D01*
X182041651Y-113235038D01*
X182050830Y-113215632D01*
X182061866Y-113197219D01*
X182074654Y-113179976D01*
X182089070Y-113164070D01*
X182104976Y-113149654D01*
X182122219Y-113136866D01*
X182140632Y-113125830D01*
X182160038Y-113116651D01*
X182180250Y-113109419D01*
X182201074Y-113104203D01*
X182222309Y-113101053D01*
X182243750Y-113100000D01*
X182756250Y-113100000D01*
X182777691Y-113101053D01*
X182777691Y-113101053D01*
G37*
D14*
X182500000Y-113537500D03*
D11*
G36*
X191202691Y-106526053D02*
G01*
X191223926Y-106529203D01*
X191244750Y-106534419D01*
X191264962Y-106541651D01*
X191284368Y-106550830D01*
X191302781Y-106561866D01*
X191320024Y-106574654D01*
X191335930Y-106589070D01*
X191350346Y-106604976D01*
X191363134Y-106622219D01*
X191374170Y-106640632D01*
X191383349Y-106660038D01*
X191390581Y-106680250D01*
X191395797Y-106701074D01*
X191398947Y-106722309D01*
X191400000Y-106743750D01*
X191400000Y-107256250D01*
X191398947Y-107277691D01*
X191395797Y-107298926D01*
X191390581Y-107319750D01*
X191383349Y-107339962D01*
X191374170Y-107359368D01*
X191363134Y-107377781D01*
X191350346Y-107395024D01*
X191335930Y-107410930D01*
X191320024Y-107425346D01*
X191302781Y-107438134D01*
X191284368Y-107449170D01*
X191264962Y-107458349D01*
X191244750Y-107465581D01*
X191223926Y-107470797D01*
X191202691Y-107473947D01*
X191181250Y-107475000D01*
X190743750Y-107475000D01*
X190722309Y-107473947D01*
X190701074Y-107470797D01*
X190680250Y-107465581D01*
X190660038Y-107458349D01*
X190640632Y-107449170D01*
X190622219Y-107438134D01*
X190604976Y-107425346D01*
X190589070Y-107410930D01*
X190574654Y-107395024D01*
X190561866Y-107377781D01*
X190550830Y-107359368D01*
X190541651Y-107339962D01*
X190534419Y-107319750D01*
X190529203Y-107298926D01*
X190526053Y-107277691D01*
X190525000Y-107256250D01*
X190525000Y-106743750D01*
X190526053Y-106722309D01*
X190529203Y-106701074D01*
X190534419Y-106680250D01*
X190541651Y-106660038D01*
X190550830Y-106640632D01*
X190561866Y-106622219D01*
X190574654Y-106604976D01*
X190589070Y-106589070D01*
X190604976Y-106574654D01*
X190622219Y-106561866D01*
X190640632Y-106550830D01*
X190660038Y-106541651D01*
X190680250Y-106534419D01*
X190701074Y-106529203D01*
X190722309Y-106526053D01*
X190743750Y-106525000D01*
X191181250Y-106525000D01*
X191202691Y-106526053D01*
X191202691Y-106526053D01*
G37*
D14*
X190962500Y-107000000D03*
D11*
G36*
X192777691Y-106526053D02*
G01*
X192798926Y-106529203D01*
X192819750Y-106534419D01*
X192839962Y-106541651D01*
X192859368Y-106550830D01*
X192877781Y-106561866D01*
X192895024Y-106574654D01*
X192910930Y-106589070D01*
X192925346Y-106604976D01*
X192938134Y-106622219D01*
X192949170Y-106640632D01*
X192958349Y-106660038D01*
X192965581Y-106680250D01*
X192970797Y-106701074D01*
X192973947Y-106722309D01*
X192975000Y-106743750D01*
X192975000Y-107256250D01*
X192973947Y-107277691D01*
X192970797Y-107298926D01*
X192965581Y-107319750D01*
X192958349Y-107339962D01*
X192949170Y-107359368D01*
X192938134Y-107377781D01*
X192925346Y-107395024D01*
X192910930Y-107410930D01*
X192895024Y-107425346D01*
X192877781Y-107438134D01*
X192859368Y-107449170D01*
X192839962Y-107458349D01*
X192819750Y-107465581D01*
X192798926Y-107470797D01*
X192777691Y-107473947D01*
X192756250Y-107475000D01*
X192318750Y-107475000D01*
X192297309Y-107473947D01*
X192276074Y-107470797D01*
X192255250Y-107465581D01*
X192235038Y-107458349D01*
X192215632Y-107449170D01*
X192197219Y-107438134D01*
X192179976Y-107425346D01*
X192164070Y-107410930D01*
X192149654Y-107395024D01*
X192136866Y-107377781D01*
X192125830Y-107359368D01*
X192116651Y-107339962D01*
X192109419Y-107319750D01*
X192104203Y-107298926D01*
X192101053Y-107277691D01*
X192100000Y-107256250D01*
X192100000Y-106743750D01*
X192101053Y-106722309D01*
X192104203Y-106701074D01*
X192109419Y-106680250D01*
X192116651Y-106660038D01*
X192125830Y-106640632D01*
X192136866Y-106622219D01*
X192149654Y-106604976D01*
X192164070Y-106589070D01*
X192179976Y-106574654D01*
X192197219Y-106561866D01*
X192215632Y-106550830D01*
X192235038Y-106541651D01*
X192255250Y-106534419D01*
X192276074Y-106529203D01*
X192297309Y-106526053D01*
X192318750Y-106525000D01*
X192756250Y-106525000D01*
X192777691Y-106526053D01*
X192777691Y-106526053D01*
G37*
D14*
X192537500Y-107000000D03*
M02*
